M48
; DRILL file {KiCad 9.0.1} date 2025-11-12T14:17:12-0500
; FORMAT={-:-/ absolute / inch / decimal}
; #@! TF.CreationDate,2025-11-12T14:17:12-05:00
; #@! TF.GenerationSoftware,Kicad,Pcbnew,9.0.1
; #@! TF.FileFunction,Plated,1,2,PTH
FMAT,2
INCH
; #@! TA.AperFunction,Plated,PTH,ViaDrill
T1C0.0118
; #@! TA.AperFunction,Plated,PTH,ComponentDrill
T2C0.0394
%
G90
G05
T1
X0.5906Y-0.9961
X0.5984Y-0.7953
X0.5984Y-0.8425
X0.5984Y-1.1417
X0.5984Y-1.2362
X0.6063Y-0.748
X0.6142Y-1.0787
X0.6929Y-1.063
X0.7244Y-0.7953
X0.7244Y-0.8425
X0.7323Y-0.9961
X0.7717Y-1.0787
X0.8031Y-0.7559
X0.8031Y-0.7874
X0.8543Y-1.063
X0.8957Y-0.6378
X0.8976Y-1.4724
X0.8976Y-1.6457
X0.9291Y-0.7638
X0.9291Y-1.0787
X0.9439Y-1.8277
X0.9606Y-1.9291
X0.9695Y-1.7431
X0.9768Y-1.685
X0.9843Y-1.8346
X1.0079Y-1.0787
X1.0157Y-1.9685
X1.0787Y-1.9213
X1.0787Y-2.1732
X1.1254Y-2.6171
X1.1333Y-2.6506
X1.1496Y-0.622
X1.1575Y-1.6614
X1.1575Y-1.8484
X1.1654Y-1.6142
X1.1733Y-1.7264
X1.1811Y-1.874
X1.187Y-1.7953
X1.189Y-2.0315
X1.189Y-2.2756
X1.2047Y-2.4882
X1.2362Y-0.5669
X1.238Y-0.8994
X1.252Y-1.6142
X1.2756Y-1.7559
X1.2756Y-2.5118
X1.2829Y-0.9321
X1.2913Y-1.9134
X1.2913Y-2.189
X1.315Y-0.9321
X1.3227Y-1.7718
X1.3228Y-2.0709
X1.3307Y-0.5197
X1.3307Y-0.5512
X1.3307Y-0.5827
X1.3622Y-0.9577
T2
X1.4931Y-0.8061
X1.4931Y-0.9061
X1.4931Y-1.0061
X1.4931Y-1.1061
X1.4931Y-1.2061
X1.4931Y-1.3061
X1.4931Y-1.4061
X1.4931Y-1.5061
X1.4931Y-1.6061
X1.4931Y-1.7061
X1.4931Y-1.8061
X1.4931Y-1.9061
X1.4931Y-2.0061
X1.4931Y-2.1061
X1.4931Y-2.2061
X1.4931Y-2.3061
X1.4931Y-2.4061
X1.4931Y-2.5061
X1.4931Y-2.6061
X1.4931Y-2.7061
X1.5931Y-0.8061
X1.5931Y-0.9061
X1.5931Y-1.0061
X1.5931Y-1.1061
X1.5931Y-1.2061
X1.5931Y-1.3061
X1.5931Y-1.4061
X1.5931Y-1.5061
X1.5931Y-1.6061
X1.5931Y-1.7061
X1.5931Y-1.8061
X1.5931Y-1.9061
X1.5931Y-2.0061
X1.5931Y-2.1061
X1.5931Y-2.2061
X1.5931Y-2.3061
X1.5931Y-2.4061
X1.5931Y-2.5061
X1.5931Y-2.6061
X1.5931Y-2.7061
M30
