%TF.GenerationSoftware,KiCad,Pcbnew,9.0.1*%
%TF.CreationDate,2025-11-12T14:17:17-05:00*%
%TF.ProjectId,Drone-Flight-Controller,44726f6e-652d-4466-9c69-6768742d436f,rev?*%
%TF.SameCoordinates,Original*%
%TF.FileFunction,Legend,Bot*%
%TF.FilePolarity,Positive*%
%FSLAX46Y46*%
G04 Gerber Fmt 4.6, Leading zero omitted, Abs format (unit mm)*
G04 Created by KiCad (PCBNEW 9.0.1) date 2025-11-12 14:17:17*
%MOMM*%
%LPD*%
G01*
G04 APERTURE LIST*
%ADD10C,0.150000*%
%ADD11C,0.120000*%
G04 APERTURE END LIST*
D10*
X35233333Y-20654819D02*
X35233333Y-21369104D01*
X35233333Y-21369104D02*
X35280952Y-21511961D01*
X35280952Y-21511961D02*
X35376190Y-21607200D01*
X35376190Y-21607200D02*
X35519047Y-21654819D01*
X35519047Y-21654819D02*
X35614285Y-21654819D01*
X34757142Y-21654819D02*
X34757142Y-20654819D01*
X34757142Y-20654819D02*
X34376190Y-20654819D01*
X34376190Y-20654819D02*
X34280952Y-20702438D01*
X34280952Y-20702438D02*
X34233333Y-20750057D01*
X34233333Y-20750057D02*
X34185714Y-20845295D01*
X34185714Y-20845295D02*
X34185714Y-20988152D01*
X34185714Y-20988152D02*
X34233333Y-21083390D01*
X34233333Y-21083390D02*
X34280952Y-21131009D01*
X34280952Y-21131009D02*
X34376190Y-21178628D01*
X34376190Y-21178628D02*
X34757142Y-21178628D01*
X33804761Y-20750057D02*
X33757142Y-20702438D01*
X33757142Y-20702438D02*
X33661904Y-20654819D01*
X33661904Y-20654819D02*
X33423809Y-20654819D01*
X33423809Y-20654819D02*
X33328571Y-20702438D01*
X33328571Y-20702438D02*
X33280952Y-20750057D01*
X33280952Y-20750057D02*
X33233333Y-20845295D01*
X33233333Y-20845295D02*
X33233333Y-20940533D01*
X33233333Y-20940533D02*
X33280952Y-21083390D01*
X33280952Y-21083390D02*
X33852380Y-21654819D01*
X33852380Y-21654819D02*
X33233333Y-21654819D01*
X35233333Y-14454819D02*
X35233333Y-15169104D01*
X35233333Y-15169104D02*
X35280952Y-15311961D01*
X35280952Y-15311961D02*
X35376190Y-15407200D01*
X35376190Y-15407200D02*
X35519047Y-15454819D01*
X35519047Y-15454819D02*
X35614285Y-15454819D01*
X34757142Y-15454819D02*
X34757142Y-14454819D01*
X34757142Y-14454819D02*
X34376190Y-14454819D01*
X34376190Y-14454819D02*
X34280952Y-14502438D01*
X34280952Y-14502438D02*
X34233333Y-14550057D01*
X34233333Y-14550057D02*
X34185714Y-14645295D01*
X34185714Y-14645295D02*
X34185714Y-14788152D01*
X34185714Y-14788152D02*
X34233333Y-14883390D01*
X34233333Y-14883390D02*
X34280952Y-14931009D01*
X34280952Y-14931009D02*
X34376190Y-14978628D01*
X34376190Y-14978628D02*
X34757142Y-14978628D01*
X33233333Y-15454819D02*
X33804761Y-15454819D01*
X33519047Y-15454819D02*
X33519047Y-14454819D01*
X33519047Y-14454819D02*
X33614285Y-14597676D01*
X33614285Y-14597676D02*
X33709523Y-14692914D01*
X33709523Y-14692914D02*
X33804761Y-14740533D01*
X39528333Y-17159819D02*
X39528333Y-17874104D01*
X39528333Y-17874104D02*
X39575952Y-18016961D01*
X39575952Y-18016961D02*
X39671190Y-18112200D01*
X39671190Y-18112200D02*
X39814047Y-18159819D01*
X39814047Y-18159819D02*
X39909285Y-18159819D01*
X39147380Y-17159819D02*
X38528333Y-17159819D01*
X38528333Y-17159819D02*
X38861666Y-17540771D01*
X38861666Y-17540771D02*
X38718809Y-17540771D01*
X38718809Y-17540771D02*
X38623571Y-17588390D01*
X38623571Y-17588390D02*
X38575952Y-17636009D01*
X38575952Y-17636009D02*
X38528333Y-17731247D01*
X38528333Y-17731247D02*
X38528333Y-17969342D01*
X38528333Y-17969342D02*
X38575952Y-18064580D01*
X38575952Y-18064580D02*
X38623571Y-18112200D01*
X38623571Y-18112200D02*
X38718809Y-18159819D01*
X38718809Y-18159819D02*
X39004523Y-18159819D01*
X39004523Y-18159819D02*
X39099761Y-18112200D01*
X39099761Y-18112200D02*
X39147380Y-18064580D01*
D11*
%TO.C,JP2*%
X33000000Y-18400000D02*
X33000000Y-20400000D01*
X33000000Y-20400000D02*
X35800000Y-20400000D01*
X35800000Y-18400000D02*
X33000000Y-18400000D01*
X35800000Y-20400000D02*
X35800000Y-18400000D01*
%TO.C,JP1*%
X33000000Y-15800000D02*
X33000000Y-17800000D01*
X33000000Y-17800000D02*
X35800000Y-17800000D01*
X35800000Y-15800000D02*
X33000000Y-15800000D01*
X35800000Y-17800000D02*
X35800000Y-15800000D01*
%TO.C,J3*%
X36595000Y-19145000D02*
X36595000Y-20475000D01*
X36595000Y-21745000D02*
X36595000Y-70065000D01*
X37925000Y-19145000D02*
X36595000Y-19145000D01*
X39195000Y-19145000D02*
X39195000Y-21745000D01*
X39195000Y-21745000D02*
X36595000Y-21745000D01*
X41795000Y-19145000D02*
X39195000Y-19145000D01*
X41795000Y-19145000D02*
X41795000Y-70065000D01*
X41795000Y-70065000D02*
X36595000Y-70065000D01*
%TD*%
M02*
