%TF.GenerationSoftware,KiCad,Pcbnew,9.0.1*%
%TF.CreationDate,2025-11-12T14:17:17-05:00*%
%TF.ProjectId,Drone-Flight-Controller,44726f6e-652d-4466-9c69-6768742d436f,rev?*%
%TF.SameCoordinates,Original*%
%TF.FileFunction,Legend,Top*%
%TF.FilePolarity,Positive*%
%FSLAX46Y46*%
G04 Gerber Fmt 4.6, Leading zero omitted, Abs format (unit mm)*
G04 Created by KiCad (PCBNEW 9.0.1) date 2025-11-12 14:17:17*
%MOMM*%
%LPD*%
G01*
G04 APERTURE LIST*
%ADD10C,0.100000*%
%ADD11C,0.087500*%
%ADD12C,0.140000*%
%ADD13C,0.150000*%
%ADD14C,0.120000*%
G04 APERTURE END LIST*
D10*
X21700000Y-55200000D02*
X21300000Y-55800000D01*
X22300000Y-54900000D02*
X22500000Y-54700000D01*
X22700000Y-53900000D02*
X22300000Y-53900000D01*
X20900000Y-55200000D02*
X21700000Y-55200000D01*
X21300000Y-55800000D02*
X20900000Y-55200000D01*
X22300000Y-54300000D02*
X22700000Y-53900000D01*
X23300000Y-56100000D02*
X23500000Y-56300000D01*
X23700000Y-55500000D02*
X23100000Y-55900000D01*
X22100000Y-55300000D02*
X22300000Y-55100000D01*
X20700000Y-55500000D02*
X20500000Y-55700000D01*
X22100000Y-55300000D02*
X22100000Y-55700000D01*
X22500000Y-54700000D02*
G75*
G02*
X22924264Y-54524264I0J600000D01*
G01*
X26000000Y-20400000D02*
X26000000Y-21400000D01*
X23100000Y-55100000D02*
X23700000Y-55500000D01*
X22500000Y-54700000D02*
X22300000Y-54500000D01*
X22300000Y-55500000D02*
X23700000Y-55500000D01*
X25400000Y-21000000D02*
X26600000Y-21000000D01*
X20700000Y-55500000D02*
X20900000Y-55700000D01*
X21100000Y-54300000D02*
X21500000Y-53900000D01*
X21300000Y-54400000D02*
X21300000Y-55800000D01*
X28200000Y-21000000D02*
X29200000Y-21000000D01*
X23300000Y-54900000D02*
G75*
G02*
X23300000Y-56100000I0J-600000D01*
G01*
X23100000Y-55900000D02*
X23100000Y-55100000D01*
X23300000Y-56100000D02*
X23500000Y-55900000D01*
X21500000Y-54300000D02*
X21100000Y-53900000D01*
X21900000Y-55100000D02*
X22100000Y-55300000D01*
X21900000Y-55500000D02*
G75*
G02*
X20700000Y-55500000I-600000J0D01*
G01*
X22700000Y-54300000D02*
X22300000Y-54300000D01*
X22500000Y-54700000D02*
X22300000Y-54900000D01*
D11*
X21424231Y-52909783D02*
X21424231Y-52443116D01*
X21424231Y-52209783D02*
X21390898Y-52243116D01*
X21390898Y-52243116D02*
X21424231Y-52276450D01*
X21424231Y-52276450D02*
X21457565Y-52243116D01*
X21457565Y-52243116D02*
X21424231Y-52209783D01*
X21424231Y-52209783D02*
X21424231Y-52276450D01*
X21757564Y-52909783D02*
X21757564Y-52443116D01*
X21757564Y-52509783D02*
X21790898Y-52476450D01*
X21790898Y-52476450D02*
X21857564Y-52443116D01*
X21857564Y-52443116D02*
X21957564Y-52443116D01*
X21957564Y-52443116D02*
X22024231Y-52476450D01*
X22024231Y-52476450D02*
X22057564Y-52543116D01*
X22057564Y-52543116D02*
X22057564Y-52909783D01*
X22057564Y-52543116D02*
X22090898Y-52476450D01*
X22090898Y-52476450D02*
X22157564Y-52443116D01*
X22157564Y-52443116D02*
X22257564Y-52443116D01*
X22257564Y-52443116D02*
X22324231Y-52476450D01*
X22324231Y-52476450D02*
X22357564Y-52543116D01*
X22357564Y-52543116D02*
X22357564Y-52909783D01*
X22990897Y-52443116D02*
X22990897Y-52909783D01*
X22690897Y-52443116D02*
X22690897Y-52809783D01*
X22690897Y-52809783D02*
X22724231Y-52876450D01*
X22724231Y-52876450D02*
X22790897Y-52909783D01*
X22790897Y-52909783D02*
X22890897Y-52909783D01*
X22890897Y-52909783D02*
X22957564Y-52876450D01*
X22957564Y-52876450D02*
X22990897Y-52843116D01*
D12*
X17225438Y-67273720D02*
X17258771Y-67240386D01*
X17258771Y-67240386D02*
X17325438Y-67207053D01*
X17325438Y-67207053D02*
X17492105Y-67207053D01*
X17492105Y-67207053D02*
X17558771Y-67240386D01*
X17558771Y-67240386D02*
X17592105Y-67273720D01*
X17592105Y-67273720D02*
X17625438Y-67340386D01*
X17625438Y-67340386D02*
X17625438Y-67407053D01*
X17625438Y-67407053D02*
X17592105Y-67507053D01*
X17592105Y-67507053D02*
X17192105Y-67907053D01*
X17192105Y-67907053D02*
X17625438Y-67907053D01*
X27792105Y-71607053D02*
X28258771Y-71607053D01*
X28258771Y-71607053D02*
X27958771Y-72307053D01*
X15658771Y-60307053D02*
X15658771Y-59607053D01*
X15658771Y-59607053D02*
X15925438Y-59607053D01*
X15925438Y-59607053D02*
X15992105Y-59640386D01*
X15992105Y-59640386D02*
X16025438Y-59673720D01*
X16025438Y-59673720D02*
X16058771Y-59740386D01*
X16058771Y-59740386D02*
X16058771Y-59840386D01*
X16058771Y-59840386D02*
X16025438Y-59907053D01*
X16025438Y-59907053D02*
X15992105Y-59940386D01*
X15992105Y-59940386D02*
X15925438Y-59973720D01*
X15925438Y-59973720D02*
X15658771Y-59973720D01*
X16292105Y-59607053D02*
X16458771Y-60307053D01*
X16458771Y-60307053D02*
X16592105Y-59807053D01*
X16592105Y-59807053D02*
X16725438Y-60307053D01*
X16725438Y-60307053D02*
X16892105Y-59607053D01*
X17158771Y-60307053D02*
X17158771Y-59607053D01*
X17158771Y-59607053D02*
X17392105Y-60107053D01*
X17392105Y-60107053D02*
X17625438Y-59607053D01*
X17625438Y-59607053D02*
X17625438Y-60307053D01*
X19158771Y-71840386D02*
X19158771Y-72307053D01*
X18992105Y-71573720D02*
X18825438Y-72073720D01*
X18825438Y-72073720D02*
X19258771Y-72073720D01*
X22192105Y-71607053D02*
X21858771Y-71607053D01*
X21858771Y-71607053D02*
X21825438Y-71940386D01*
X21825438Y-71940386D02*
X21858771Y-71907053D01*
X21858771Y-71907053D02*
X21925438Y-71873720D01*
X21925438Y-71873720D02*
X22092105Y-71873720D01*
X22092105Y-71873720D02*
X22158771Y-71907053D01*
X22158771Y-71907053D02*
X22192105Y-71940386D01*
X22192105Y-71940386D02*
X22225438Y-72007053D01*
X22225438Y-72007053D02*
X22225438Y-72173720D01*
X22225438Y-72173720D02*
X22192105Y-72240386D01*
X22192105Y-72240386D02*
X22158771Y-72273720D01*
X22158771Y-72273720D02*
X22092105Y-72307053D01*
X22092105Y-72307053D02*
X21925438Y-72307053D01*
X21925438Y-72307053D02*
X21858771Y-72273720D01*
X21858771Y-72273720D02*
X21825438Y-72240386D01*
X17192105Y-70207053D02*
X17625438Y-70207053D01*
X17625438Y-70207053D02*
X17392105Y-70473720D01*
X17392105Y-70473720D02*
X17492105Y-70473720D01*
X17492105Y-70473720D02*
X17558771Y-70507053D01*
X17558771Y-70507053D02*
X17592105Y-70540386D01*
X17592105Y-70540386D02*
X17625438Y-70607053D01*
X17625438Y-70607053D02*
X17625438Y-70773720D01*
X17625438Y-70773720D02*
X17592105Y-70840386D01*
X17592105Y-70840386D02*
X17558771Y-70873720D01*
X17558771Y-70873720D02*
X17492105Y-70907053D01*
X17492105Y-70907053D02*
X17292105Y-70907053D01*
X17292105Y-70907053D02*
X17225438Y-70873720D01*
X17225438Y-70873720D02*
X17192105Y-70840386D01*
X31258771Y-45980092D02*
X31258771Y-45280092D01*
X31258771Y-45280092D02*
X31425438Y-45280092D01*
X31425438Y-45280092D02*
X31525438Y-45313425D01*
X31525438Y-45313425D02*
X31592105Y-45380092D01*
X31592105Y-45380092D02*
X31625438Y-45446759D01*
X31625438Y-45446759D02*
X31658771Y-45580092D01*
X31658771Y-45580092D02*
X31658771Y-45680092D01*
X31658771Y-45680092D02*
X31625438Y-45813425D01*
X31625438Y-45813425D02*
X31592105Y-45880092D01*
X31592105Y-45880092D02*
X31525438Y-45946759D01*
X31525438Y-45946759D02*
X31425438Y-45980092D01*
X31425438Y-45980092D02*
X31258771Y-45980092D01*
X32092105Y-45280092D02*
X32225438Y-45280092D01*
X32225438Y-45280092D02*
X32292105Y-45313425D01*
X32292105Y-45313425D02*
X32358771Y-45380092D01*
X32358771Y-45380092D02*
X32392105Y-45513425D01*
X32392105Y-45513425D02*
X32392105Y-45746759D01*
X32392105Y-45746759D02*
X32358771Y-45880092D01*
X32358771Y-45880092D02*
X32292105Y-45946759D01*
X32292105Y-45946759D02*
X32225438Y-45980092D01*
X32225438Y-45980092D02*
X32092105Y-45980092D01*
X32092105Y-45980092D02*
X32025438Y-45946759D01*
X32025438Y-45946759D02*
X31958771Y-45880092D01*
X31958771Y-45880092D02*
X31925438Y-45746759D01*
X31925438Y-45746759D02*
X31925438Y-45513425D01*
X31925438Y-45513425D02*
X31958771Y-45380092D01*
X31958771Y-45380092D02*
X32025438Y-45313425D01*
X32025438Y-45313425D02*
X32092105Y-45280092D01*
X33225437Y-45980092D02*
X33225437Y-45280092D01*
X33225437Y-45280092D02*
X33625437Y-45980092D01*
X33625437Y-45980092D02*
X33625437Y-45280092D01*
X34092104Y-45280092D02*
X34225437Y-45280092D01*
X34225437Y-45280092D02*
X34292104Y-45313425D01*
X34292104Y-45313425D02*
X34358770Y-45380092D01*
X34358770Y-45380092D02*
X34392104Y-45513425D01*
X34392104Y-45513425D02*
X34392104Y-45746759D01*
X34392104Y-45746759D02*
X34358770Y-45880092D01*
X34358770Y-45880092D02*
X34292104Y-45946759D01*
X34292104Y-45946759D02*
X34225437Y-45980092D01*
X34225437Y-45980092D02*
X34092104Y-45980092D01*
X34092104Y-45980092D02*
X34025437Y-45946759D01*
X34025437Y-45946759D02*
X33958770Y-45880092D01*
X33958770Y-45880092D02*
X33925437Y-45746759D01*
X33925437Y-45746759D02*
X33925437Y-45513425D01*
X33925437Y-45513425D02*
X33958770Y-45380092D01*
X33958770Y-45380092D02*
X34025437Y-45313425D01*
X34025437Y-45313425D02*
X34092104Y-45280092D01*
X34592103Y-45280092D02*
X34992103Y-45280092D01*
X34792103Y-45980092D02*
X34792103Y-45280092D01*
X31658771Y-47040386D02*
X31625438Y-47073720D01*
X31625438Y-47073720D02*
X31525438Y-47107053D01*
X31525438Y-47107053D02*
X31458771Y-47107053D01*
X31458771Y-47107053D02*
X31358771Y-47073720D01*
X31358771Y-47073720D02*
X31292105Y-47007053D01*
X31292105Y-47007053D02*
X31258771Y-46940386D01*
X31258771Y-46940386D02*
X31225438Y-46807053D01*
X31225438Y-46807053D02*
X31225438Y-46707053D01*
X31225438Y-46707053D02*
X31258771Y-46573720D01*
X31258771Y-46573720D02*
X31292105Y-46507053D01*
X31292105Y-46507053D02*
X31358771Y-46440386D01*
X31358771Y-46440386D02*
X31458771Y-46407053D01*
X31458771Y-46407053D02*
X31525438Y-46407053D01*
X31525438Y-46407053D02*
X31625438Y-46440386D01*
X31625438Y-46440386D02*
X31658771Y-46473720D01*
X32092105Y-46407053D02*
X32225438Y-46407053D01*
X32225438Y-46407053D02*
X32292105Y-46440386D01*
X32292105Y-46440386D02*
X32358771Y-46507053D01*
X32358771Y-46507053D02*
X32392105Y-46640386D01*
X32392105Y-46640386D02*
X32392105Y-46873720D01*
X32392105Y-46873720D02*
X32358771Y-47007053D01*
X32358771Y-47007053D02*
X32292105Y-47073720D01*
X32292105Y-47073720D02*
X32225438Y-47107053D01*
X32225438Y-47107053D02*
X32092105Y-47107053D01*
X32092105Y-47107053D02*
X32025438Y-47073720D01*
X32025438Y-47073720D02*
X31958771Y-47007053D01*
X31958771Y-47007053D02*
X31925438Y-46873720D01*
X31925438Y-46873720D02*
X31925438Y-46640386D01*
X31925438Y-46640386D02*
X31958771Y-46507053D01*
X31958771Y-46507053D02*
X32025438Y-46440386D01*
X32025438Y-46440386D02*
X32092105Y-46407053D01*
X32592104Y-46407053D02*
X32825438Y-47107053D01*
X32825438Y-47107053D02*
X33058771Y-46407053D01*
X33292104Y-46740386D02*
X33525438Y-46740386D01*
X33625438Y-47107053D02*
X33292104Y-47107053D01*
X33292104Y-47107053D02*
X33292104Y-46407053D01*
X33292104Y-46407053D02*
X33625438Y-46407053D01*
X34325437Y-47107053D02*
X34092104Y-46773720D01*
X33925437Y-47107053D02*
X33925437Y-46407053D01*
X33925437Y-46407053D02*
X34192104Y-46407053D01*
X34192104Y-46407053D02*
X34258771Y-46440386D01*
X34258771Y-46440386D02*
X34292104Y-46473720D01*
X34292104Y-46473720D02*
X34325437Y-46540386D01*
X34325437Y-46540386D02*
X34325437Y-46640386D01*
X34325437Y-46640386D02*
X34292104Y-46707053D01*
X34292104Y-46707053D02*
X34258771Y-46740386D01*
X34258771Y-46740386D02*
X34192104Y-46773720D01*
X34192104Y-46773720D02*
X33925437Y-46773720D01*
X17392105Y-61207053D02*
X17458771Y-61207053D01*
X17458771Y-61207053D02*
X17525438Y-61240386D01*
X17525438Y-61240386D02*
X17558771Y-61273720D01*
X17558771Y-61273720D02*
X17592105Y-61340386D01*
X17592105Y-61340386D02*
X17625438Y-61473720D01*
X17625438Y-61473720D02*
X17625438Y-61640386D01*
X17625438Y-61640386D02*
X17592105Y-61773720D01*
X17592105Y-61773720D02*
X17558771Y-61840386D01*
X17558771Y-61840386D02*
X17525438Y-61873720D01*
X17525438Y-61873720D02*
X17458771Y-61907053D01*
X17458771Y-61907053D02*
X17392105Y-61907053D01*
X17392105Y-61907053D02*
X17325438Y-61873720D01*
X17325438Y-61873720D02*
X17292105Y-61840386D01*
X17292105Y-61840386D02*
X17258771Y-61773720D01*
X17258771Y-61773720D02*
X17225438Y-61640386D01*
X17225438Y-61640386D02*
X17225438Y-61473720D01*
X17225438Y-61473720D02*
X17258771Y-61340386D01*
X17258771Y-61340386D02*
X17292105Y-61273720D01*
X17292105Y-61273720D02*
X17325438Y-61240386D01*
X17325438Y-61240386D02*
X17392105Y-61207053D01*
X15825438Y-31673720D02*
X15925438Y-31707053D01*
X15925438Y-31707053D02*
X16092105Y-31707053D01*
X16092105Y-31707053D02*
X16158771Y-31673720D01*
X16158771Y-31673720D02*
X16192105Y-31640386D01*
X16192105Y-31640386D02*
X16225438Y-31573720D01*
X16225438Y-31573720D02*
X16225438Y-31507053D01*
X16225438Y-31507053D02*
X16192105Y-31440386D01*
X16192105Y-31440386D02*
X16158771Y-31407053D01*
X16158771Y-31407053D02*
X16092105Y-31373720D01*
X16092105Y-31373720D02*
X15958771Y-31340386D01*
X15958771Y-31340386D02*
X15892105Y-31307053D01*
X15892105Y-31307053D02*
X15858771Y-31273720D01*
X15858771Y-31273720D02*
X15825438Y-31207053D01*
X15825438Y-31207053D02*
X15825438Y-31140386D01*
X15825438Y-31140386D02*
X15858771Y-31073720D01*
X15858771Y-31073720D02*
X15892105Y-31040386D01*
X15892105Y-31040386D02*
X15958771Y-31007053D01*
X15958771Y-31007053D02*
X16125438Y-31007053D01*
X16125438Y-31007053D02*
X16225438Y-31040386D01*
X16425438Y-31007053D02*
X16825438Y-31007053D01*
X16625438Y-31707053D02*
X16625438Y-31007053D01*
X17025438Y-31507053D02*
X17358771Y-31507053D01*
X16958771Y-31707053D02*
X17192105Y-31007053D01*
X17192105Y-31007053D02*
X17425438Y-31707053D01*
X17558771Y-31007053D02*
X17958771Y-31007053D01*
X17758771Y-31707053D02*
X17758771Y-31007053D01*
X18192104Y-31007053D02*
X18192104Y-31573720D01*
X18192104Y-31573720D02*
X18225438Y-31640386D01*
X18225438Y-31640386D02*
X18258771Y-31673720D01*
X18258771Y-31673720D02*
X18325438Y-31707053D01*
X18325438Y-31707053D02*
X18458771Y-31707053D01*
X18458771Y-31707053D02*
X18525438Y-31673720D01*
X18525438Y-31673720D02*
X18558771Y-31640386D01*
X18558771Y-31640386D02*
X18592104Y-31573720D01*
X18592104Y-31573720D02*
X18592104Y-31007053D01*
X18892104Y-31673720D02*
X18992104Y-31707053D01*
X18992104Y-31707053D02*
X19158771Y-31707053D01*
X19158771Y-31707053D02*
X19225437Y-31673720D01*
X19225437Y-31673720D02*
X19258771Y-31640386D01*
X19258771Y-31640386D02*
X19292104Y-31573720D01*
X19292104Y-31573720D02*
X19292104Y-31507053D01*
X19292104Y-31507053D02*
X19258771Y-31440386D01*
X19258771Y-31440386D02*
X19225437Y-31407053D01*
X19225437Y-31407053D02*
X19158771Y-31373720D01*
X19158771Y-31373720D02*
X19025437Y-31340386D01*
X19025437Y-31340386D02*
X18958771Y-31307053D01*
X18958771Y-31307053D02*
X18925437Y-31273720D01*
X18925437Y-31273720D02*
X18892104Y-31207053D01*
X18892104Y-31207053D02*
X18892104Y-31140386D01*
X18892104Y-31140386D02*
X18925437Y-31073720D01*
X18925437Y-31073720D02*
X18958771Y-31040386D01*
X18958771Y-31040386D02*
X19025437Y-31007053D01*
X19025437Y-31007053D02*
X19192104Y-31007053D01*
X19192104Y-31007053D02*
X19292104Y-31040386D01*
X17592105Y-58207053D02*
X17258771Y-58207053D01*
X17258771Y-58207053D02*
X17225438Y-58540386D01*
X17225438Y-58540386D02*
X17258771Y-58507053D01*
X17258771Y-58507053D02*
X17325438Y-58473720D01*
X17325438Y-58473720D02*
X17492105Y-58473720D01*
X17492105Y-58473720D02*
X17558771Y-58507053D01*
X17558771Y-58507053D02*
X17592105Y-58540386D01*
X17592105Y-58540386D02*
X17625438Y-58607053D01*
X17625438Y-58607053D02*
X17625438Y-58773720D01*
X17625438Y-58773720D02*
X17592105Y-58840386D01*
X17592105Y-58840386D02*
X17558771Y-58873720D01*
X17558771Y-58873720D02*
X17492105Y-58907053D01*
X17492105Y-58907053D02*
X17325438Y-58907053D01*
X17325438Y-58907053D02*
X17258771Y-58873720D01*
X17258771Y-58873720D02*
X17225438Y-58840386D01*
X17858772Y-58440386D02*
X18025438Y-58907053D01*
X18025438Y-58907053D02*
X18192105Y-58440386D01*
D10*
X25827693Y-23072419D02*
X25256265Y-23072419D01*
X25541979Y-23072419D02*
X25541979Y-22072419D01*
X25541979Y-22072419D02*
X25446741Y-22215276D01*
X25446741Y-22215276D02*
X25351503Y-22310514D01*
X25351503Y-22310514D02*
X25256265Y-22358133D01*
X26208646Y-22167657D02*
X26256265Y-22120038D01*
X26256265Y-22120038D02*
X26351503Y-22072419D01*
X26351503Y-22072419D02*
X26589598Y-22072419D01*
X26589598Y-22072419D02*
X26684836Y-22120038D01*
X26684836Y-22120038D02*
X26732455Y-22167657D01*
X26732455Y-22167657D02*
X26780074Y-22262895D01*
X26780074Y-22262895D02*
X26780074Y-22358133D01*
X26780074Y-22358133D02*
X26732455Y-22500990D01*
X26732455Y-22500990D02*
X26161027Y-23072419D01*
X26161027Y-23072419D02*
X26780074Y-23072419D01*
X27113408Y-22405752D02*
X27351503Y-23072419D01*
X27351503Y-23072419D02*
X27589598Y-22405752D01*
D12*
X17625438Y-64907053D02*
X17225438Y-64907053D01*
X17425438Y-64907053D02*
X17425438Y-64207053D01*
X17425438Y-64207053D02*
X17358771Y-64307053D01*
X17358771Y-64307053D02*
X17292105Y-64373720D01*
X17292105Y-64373720D02*
X17225438Y-64407053D01*
X16258771Y-29240386D02*
X16225438Y-29273720D01*
X16225438Y-29273720D02*
X16125438Y-29307053D01*
X16125438Y-29307053D02*
X16058771Y-29307053D01*
X16058771Y-29307053D02*
X15958771Y-29273720D01*
X15958771Y-29273720D02*
X15892105Y-29207053D01*
X15892105Y-29207053D02*
X15858771Y-29140386D01*
X15858771Y-29140386D02*
X15825438Y-29007053D01*
X15825438Y-29007053D02*
X15825438Y-28907053D01*
X15825438Y-28907053D02*
X15858771Y-28773720D01*
X15858771Y-28773720D02*
X15892105Y-28707053D01*
X15892105Y-28707053D02*
X15958771Y-28640386D01*
X15958771Y-28640386D02*
X16058771Y-28607053D01*
X16058771Y-28607053D02*
X16125438Y-28607053D01*
X16125438Y-28607053D02*
X16225438Y-28640386D01*
X16225438Y-28640386D02*
X16258771Y-28673720D01*
X16692105Y-28607053D02*
X16825438Y-28607053D01*
X16825438Y-28607053D02*
X16892105Y-28640386D01*
X16892105Y-28640386D02*
X16958771Y-28707053D01*
X16958771Y-28707053D02*
X16992105Y-28840386D01*
X16992105Y-28840386D02*
X16992105Y-29073720D01*
X16992105Y-29073720D02*
X16958771Y-29207053D01*
X16958771Y-29207053D02*
X16892105Y-29273720D01*
X16892105Y-29273720D02*
X16825438Y-29307053D01*
X16825438Y-29307053D02*
X16692105Y-29307053D01*
X16692105Y-29307053D02*
X16625438Y-29273720D01*
X16625438Y-29273720D02*
X16558771Y-29207053D01*
X16558771Y-29207053D02*
X16525438Y-29073720D01*
X16525438Y-29073720D02*
X16525438Y-28840386D01*
X16525438Y-28840386D02*
X16558771Y-28707053D01*
X16558771Y-28707053D02*
X16625438Y-28640386D01*
X16625438Y-28640386D02*
X16692105Y-28607053D01*
X17292104Y-29307053D02*
X17292104Y-28607053D01*
X17292104Y-28607053D02*
X17525438Y-29107053D01*
X17525438Y-29107053D02*
X17758771Y-28607053D01*
X17758771Y-28607053D02*
X17758771Y-29307053D01*
X18092104Y-29307053D02*
X18092104Y-28607053D01*
X18092104Y-28607053D02*
X18325438Y-29107053D01*
X18325438Y-29107053D02*
X18558771Y-28607053D01*
X18558771Y-28607053D02*
X18558771Y-29307053D01*
X18858771Y-29273720D02*
X18958771Y-29307053D01*
X18958771Y-29307053D02*
X19125438Y-29307053D01*
X19125438Y-29307053D02*
X19192104Y-29273720D01*
X19192104Y-29273720D02*
X19225438Y-29240386D01*
X19225438Y-29240386D02*
X19258771Y-29173720D01*
X19258771Y-29173720D02*
X19258771Y-29107053D01*
X19258771Y-29107053D02*
X19225438Y-29040386D01*
X19225438Y-29040386D02*
X19192104Y-29007053D01*
X19192104Y-29007053D02*
X19125438Y-28973720D01*
X19125438Y-28973720D02*
X18992104Y-28940386D01*
X18992104Y-28940386D02*
X18925438Y-28907053D01*
X18925438Y-28907053D02*
X18892104Y-28873720D01*
X18892104Y-28873720D02*
X18858771Y-28807053D01*
X18858771Y-28807053D02*
X18858771Y-28740386D01*
X18858771Y-28740386D02*
X18892104Y-28673720D01*
X18892104Y-28673720D02*
X18925438Y-28640386D01*
X18925438Y-28640386D02*
X18992104Y-28607053D01*
X18992104Y-28607053D02*
X19158771Y-28607053D01*
X19158771Y-28607053D02*
X19258771Y-28640386D01*
X25158771Y-71607053D02*
X25025438Y-71607053D01*
X25025438Y-71607053D02*
X24958771Y-71640386D01*
X24958771Y-71640386D02*
X24925438Y-71673720D01*
X24925438Y-71673720D02*
X24858771Y-71773720D01*
X24858771Y-71773720D02*
X24825438Y-71907053D01*
X24825438Y-71907053D02*
X24825438Y-72173720D01*
X24825438Y-72173720D02*
X24858771Y-72240386D01*
X24858771Y-72240386D02*
X24892105Y-72273720D01*
X24892105Y-72273720D02*
X24958771Y-72307053D01*
X24958771Y-72307053D02*
X25092105Y-72307053D01*
X25092105Y-72307053D02*
X25158771Y-72273720D01*
X25158771Y-72273720D02*
X25192105Y-72240386D01*
X25192105Y-72240386D02*
X25225438Y-72173720D01*
X25225438Y-72173720D02*
X25225438Y-72007053D01*
X25225438Y-72007053D02*
X25192105Y-71940386D01*
X25192105Y-71940386D02*
X25158771Y-71907053D01*
X25158771Y-71907053D02*
X25092105Y-71873720D01*
X25092105Y-71873720D02*
X24958771Y-71873720D01*
X24958771Y-71873720D02*
X24892105Y-71907053D01*
X24892105Y-71907053D02*
X24858771Y-71940386D01*
X24858771Y-71940386D02*
X24825438Y-72007053D01*
X15858771Y-34107053D02*
X15858771Y-33407053D01*
X15858771Y-33407053D02*
X16125438Y-33407053D01*
X16125438Y-33407053D02*
X16192105Y-33440386D01*
X16192105Y-33440386D02*
X16225438Y-33473720D01*
X16225438Y-33473720D02*
X16258771Y-33540386D01*
X16258771Y-33540386D02*
X16258771Y-33640386D01*
X16258771Y-33640386D02*
X16225438Y-33707053D01*
X16225438Y-33707053D02*
X16192105Y-33740386D01*
X16192105Y-33740386D02*
X16125438Y-33773720D01*
X16125438Y-33773720D02*
X15858771Y-33773720D01*
X16692105Y-33407053D02*
X16825438Y-33407053D01*
X16825438Y-33407053D02*
X16892105Y-33440386D01*
X16892105Y-33440386D02*
X16958771Y-33507053D01*
X16958771Y-33507053D02*
X16992105Y-33640386D01*
X16992105Y-33640386D02*
X16992105Y-33873720D01*
X16992105Y-33873720D02*
X16958771Y-34007053D01*
X16958771Y-34007053D02*
X16892105Y-34073720D01*
X16892105Y-34073720D02*
X16825438Y-34107053D01*
X16825438Y-34107053D02*
X16692105Y-34107053D01*
X16692105Y-34107053D02*
X16625438Y-34073720D01*
X16625438Y-34073720D02*
X16558771Y-34007053D01*
X16558771Y-34007053D02*
X16525438Y-33873720D01*
X16525438Y-33873720D02*
X16525438Y-33640386D01*
X16525438Y-33640386D02*
X16558771Y-33507053D01*
X16558771Y-33507053D02*
X16625438Y-33440386D01*
X16625438Y-33440386D02*
X16692105Y-33407053D01*
X17225438Y-33407053D02*
X17392104Y-34107053D01*
X17392104Y-34107053D02*
X17525438Y-33607053D01*
X17525438Y-33607053D02*
X17658771Y-34107053D01*
X17658771Y-34107053D02*
X17825438Y-33407053D01*
X18092104Y-33740386D02*
X18325438Y-33740386D01*
X18425438Y-34107053D02*
X18092104Y-34107053D01*
X18092104Y-34107053D02*
X18092104Y-33407053D01*
X18092104Y-33407053D02*
X18425438Y-33407053D01*
X19125437Y-34107053D02*
X18892104Y-33773720D01*
X18725437Y-34107053D02*
X18725437Y-33407053D01*
X18725437Y-33407053D02*
X18992104Y-33407053D01*
X18992104Y-33407053D02*
X19058771Y-33440386D01*
X19058771Y-33440386D02*
X19092104Y-33473720D01*
X19092104Y-33473720D02*
X19125437Y-33540386D01*
X19125437Y-33540386D02*
X19125437Y-33640386D01*
X19125437Y-33640386D02*
X19092104Y-33707053D01*
X19092104Y-33707053D02*
X19058771Y-33740386D01*
X19058771Y-33740386D02*
X18992104Y-33773720D01*
X18992104Y-33773720D02*
X18725437Y-33773720D01*
X17625438Y-55240386D02*
X17558771Y-55207053D01*
X17558771Y-55207053D02*
X17458771Y-55207053D01*
X17458771Y-55207053D02*
X17358771Y-55240386D01*
X17358771Y-55240386D02*
X17292105Y-55307053D01*
X17292105Y-55307053D02*
X17258771Y-55373720D01*
X17258771Y-55373720D02*
X17225438Y-55507053D01*
X17225438Y-55507053D02*
X17225438Y-55607053D01*
X17225438Y-55607053D02*
X17258771Y-55740386D01*
X17258771Y-55740386D02*
X17292105Y-55807053D01*
X17292105Y-55807053D02*
X17358771Y-55873720D01*
X17358771Y-55873720D02*
X17458771Y-55907053D01*
X17458771Y-55907053D02*
X17525438Y-55907053D01*
X17525438Y-55907053D02*
X17625438Y-55873720D01*
X17625438Y-55873720D02*
X17658771Y-55840386D01*
X17658771Y-55840386D02*
X17658771Y-55607053D01*
X17658771Y-55607053D02*
X17525438Y-55607053D01*
X17958771Y-55907053D02*
X17958771Y-55207053D01*
X17958771Y-55207053D02*
X18358771Y-55907053D01*
X18358771Y-55907053D02*
X18358771Y-55207053D01*
X18692104Y-55907053D02*
X18692104Y-55207053D01*
X18692104Y-55207053D02*
X18858771Y-55207053D01*
X18858771Y-55207053D02*
X18958771Y-55240386D01*
X18958771Y-55240386D02*
X19025438Y-55307053D01*
X19025438Y-55307053D02*
X19058771Y-55373720D01*
X19058771Y-55373720D02*
X19092104Y-55507053D01*
X19092104Y-55507053D02*
X19092104Y-55607053D01*
X19092104Y-55607053D02*
X19058771Y-55740386D01*
X19058771Y-55740386D02*
X19025438Y-55807053D01*
X19025438Y-55807053D02*
X18958771Y-55873720D01*
X18958771Y-55873720D02*
X18858771Y-55907053D01*
X18858771Y-55907053D02*
X18692104Y-55907053D01*
D13*
X22799580Y-40766666D02*
X22847200Y-40814285D01*
X22847200Y-40814285D02*
X22894819Y-40957142D01*
X22894819Y-40957142D02*
X22894819Y-41052380D01*
X22894819Y-41052380D02*
X22847200Y-41195237D01*
X22847200Y-41195237D02*
X22751961Y-41290475D01*
X22751961Y-41290475D02*
X22656723Y-41338094D01*
X22656723Y-41338094D02*
X22466247Y-41385713D01*
X22466247Y-41385713D02*
X22323390Y-41385713D01*
X22323390Y-41385713D02*
X22132914Y-41338094D01*
X22132914Y-41338094D02*
X22037676Y-41290475D01*
X22037676Y-41290475D02*
X21942438Y-41195237D01*
X21942438Y-41195237D02*
X21894819Y-41052380D01*
X21894819Y-41052380D02*
X21894819Y-40957142D01*
X21894819Y-40957142D02*
X21942438Y-40814285D01*
X21942438Y-40814285D02*
X21990057Y-40766666D01*
X21894819Y-40433332D02*
X21894819Y-39814285D01*
X21894819Y-39814285D02*
X22275771Y-40147618D01*
X22275771Y-40147618D02*
X22275771Y-40004761D01*
X22275771Y-40004761D02*
X22323390Y-39909523D01*
X22323390Y-39909523D02*
X22371009Y-39861904D01*
X22371009Y-39861904D02*
X22466247Y-39814285D01*
X22466247Y-39814285D02*
X22704342Y-39814285D01*
X22704342Y-39814285D02*
X22799580Y-39861904D01*
X22799580Y-39861904D02*
X22847200Y-39909523D01*
X22847200Y-39909523D02*
X22894819Y-40004761D01*
X22894819Y-40004761D02*
X22894819Y-40290475D01*
X22894819Y-40290475D02*
X22847200Y-40385713D01*
X22847200Y-40385713D02*
X22799580Y-40433332D01*
X17866666Y-14531009D02*
X17533333Y-14531009D01*
X17533333Y-15054819D02*
X17533333Y-14054819D01*
X17533333Y-14054819D02*
X18009523Y-14054819D01*
X18914285Y-15054819D02*
X18342857Y-15054819D01*
X18628571Y-15054819D02*
X18628571Y-14054819D01*
X18628571Y-14054819D02*
X18533333Y-14197676D01*
X18533333Y-14197676D02*
X18438095Y-14292914D01*
X18438095Y-14292914D02*
X18342857Y-14340533D01*
X18190476Y-72656819D02*
X18190476Y-73371104D01*
X18190476Y-73371104D02*
X18142857Y-73513961D01*
X18142857Y-73513961D02*
X18047619Y-73609200D01*
X18047619Y-73609200D02*
X17904762Y-73656819D01*
X17904762Y-73656819D02*
X17809524Y-73656819D01*
X19190476Y-73656819D02*
X18619048Y-73656819D01*
X18904762Y-73656819D02*
X18904762Y-72656819D01*
X18904762Y-72656819D02*
X18809524Y-72799676D01*
X18809524Y-72799676D02*
X18714286Y-72894914D01*
X18714286Y-72894914D02*
X18619048Y-72942533D01*
X19809524Y-72656819D02*
X19904762Y-72656819D01*
X19904762Y-72656819D02*
X20000000Y-72704438D01*
X20000000Y-72704438D02*
X20047619Y-72752057D01*
X20047619Y-72752057D02*
X20095238Y-72847295D01*
X20095238Y-72847295D02*
X20142857Y-73037771D01*
X20142857Y-73037771D02*
X20142857Y-73275866D01*
X20142857Y-73275866D02*
X20095238Y-73466342D01*
X20095238Y-73466342D02*
X20047619Y-73561580D01*
X20047619Y-73561580D02*
X20000000Y-73609200D01*
X20000000Y-73609200D02*
X19904762Y-73656819D01*
X19904762Y-73656819D02*
X19809524Y-73656819D01*
X19809524Y-73656819D02*
X19714286Y-73609200D01*
X19714286Y-73609200D02*
X19666667Y-73561580D01*
X19666667Y-73561580D02*
X19619048Y-73466342D01*
X19619048Y-73466342D02*
X19571429Y-73275866D01*
X19571429Y-73275866D02*
X19571429Y-73037771D01*
X19571429Y-73037771D02*
X19619048Y-72847295D01*
X19619048Y-72847295D02*
X19666667Y-72752057D01*
X19666667Y-72752057D02*
X19714286Y-72704438D01*
X19714286Y-72704438D02*
X19809524Y-72656819D01*
X17154819Y-13466666D02*
X16678628Y-13799999D01*
X17154819Y-14038094D02*
X16154819Y-14038094D01*
X16154819Y-14038094D02*
X16154819Y-13657142D01*
X16154819Y-13657142D02*
X16202438Y-13561904D01*
X16202438Y-13561904D02*
X16250057Y-13514285D01*
X16250057Y-13514285D02*
X16345295Y-13466666D01*
X16345295Y-13466666D02*
X16488152Y-13466666D01*
X16488152Y-13466666D02*
X16583390Y-13514285D01*
X16583390Y-13514285D02*
X16631009Y-13561904D01*
X16631009Y-13561904D02*
X16678628Y-13657142D01*
X16678628Y-13657142D02*
X16678628Y-14038094D01*
X16488152Y-12609523D02*
X17154819Y-12609523D01*
X16107200Y-12847618D02*
X16821485Y-13085713D01*
X16821485Y-13085713D02*
X16821485Y-12466666D01*
X22959580Y-45366666D02*
X23007200Y-45414285D01*
X23007200Y-45414285D02*
X23054819Y-45557142D01*
X23054819Y-45557142D02*
X23054819Y-45652380D01*
X23054819Y-45652380D02*
X23007200Y-45795237D01*
X23007200Y-45795237D02*
X22911961Y-45890475D01*
X22911961Y-45890475D02*
X22816723Y-45938094D01*
X22816723Y-45938094D02*
X22626247Y-45985713D01*
X22626247Y-45985713D02*
X22483390Y-45985713D01*
X22483390Y-45985713D02*
X22292914Y-45938094D01*
X22292914Y-45938094D02*
X22197676Y-45890475D01*
X22197676Y-45890475D02*
X22102438Y-45795237D01*
X22102438Y-45795237D02*
X22054819Y-45652380D01*
X22054819Y-45652380D02*
X22054819Y-45557142D01*
X22054819Y-45557142D02*
X22102438Y-45414285D01*
X22102438Y-45414285D02*
X22150057Y-45366666D01*
X23054819Y-44890475D02*
X23054819Y-44699999D01*
X23054819Y-44699999D02*
X23007200Y-44604761D01*
X23007200Y-44604761D02*
X22959580Y-44557142D01*
X22959580Y-44557142D02*
X22816723Y-44461904D01*
X22816723Y-44461904D02*
X22626247Y-44414285D01*
X22626247Y-44414285D02*
X22245295Y-44414285D01*
X22245295Y-44414285D02*
X22150057Y-44461904D01*
X22150057Y-44461904D02*
X22102438Y-44509523D01*
X22102438Y-44509523D02*
X22054819Y-44604761D01*
X22054819Y-44604761D02*
X22054819Y-44795237D01*
X22054819Y-44795237D02*
X22102438Y-44890475D01*
X22102438Y-44890475D02*
X22150057Y-44938094D01*
X22150057Y-44938094D02*
X22245295Y-44985713D01*
X22245295Y-44985713D02*
X22483390Y-44985713D01*
X22483390Y-44985713D02*
X22578628Y-44938094D01*
X22578628Y-44938094D02*
X22626247Y-44890475D01*
X22626247Y-44890475D02*
X22673866Y-44795237D01*
X22673866Y-44795237D02*
X22673866Y-44604761D01*
X22673866Y-44604761D02*
X22626247Y-44509523D01*
X22626247Y-44509523D02*
X22578628Y-44461904D01*
X22578628Y-44461904D02*
X22483390Y-44414285D01*
X32454819Y-24966666D02*
X31978628Y-25299999D01*
X32454819Y-25538094D02*
X31454819Y-25538094D01*
X31454819Y-25538094D02*
X31454819Y-25157142D01*
X31454819Y-25157142D02*
X31502438Y-25061904D01*
X31502438Y-25061904D02*
X31550057Y-25014285D01*
X31550057Y-25014285D02*
X31645295Y-24966666D01*
X31645295Y-24966666D02*
X31788152Y-24966666D01*
X31788152Y-24966666D02*
X31883390Y-25014285D01*
X31883390Y-25014285D02*
X31931009Y-25061904D01*
X31931009Y-25061904D02*
X31978628Y-25157142D01*
X31978628Y-25157142D02*
X31978628Y-25538094D01*
X31454819Y-24109523D02*
X31454819Y-24299999D01*
X31454819Y-24299999D02*
X31502438Y-24395237D01*
X31502438Y-24395237D02*
X31550057Y-24442856D01*
X31550057Y-24442856D02*
X31692914Y-24538094D01*
X31692914Y-24538094D02*
X31883390Y-24585713D01*
X31883390Y-24585713D02*
X32264342Y-24585713D01*
X32264342Y-24585713D02*
X32359580Y-24538094D01*
X32359580Y-24538094D02*
X32407200Y-24490475D01*
X32407200Y-24490475D02*
X32454819Y-24395237D01*
X32454819Y-24395237D02*
X32454819Y-24204761D01*
X32454819Y-24204761D02*
X32407200Y-24109523D01*
X32407200Y-24109523D02*
X32359580Y-24061904D01*
X32359580Y-24061904D02*
X32264342Y-24014285D01*
X32264342Y-24014285D02*
X32026247Y-24014285D01*
X32026247Y-24014285D02*
X31931009Y-24061904D01*
X31931009Y-24061904D02*
X31883390Y-24109523D01*
X31883390Y-24109523D02*
X31835771Y-24204761D01*
X31835771Y-24204761D02*
X31835771Y-24395237D01*
X31835771Y-24395237D02*
X31883390Y-24490475D01*
X31883390Y-24490475D02*
X31931009Y-24538094D01*
X31931009Y-24538094D02*
X32026247Y-24585713D01*
X25466666Y-19454819D02*
X25466666Y-20169104D01*
X25466666Y-20169104D02*
X25419047Y-20311961D01*
X25419047Y-20311961D02*
X25323809Y-20407200D01*
X25323809Y-20407200D02*
X25180952Y-20454819D01*
X25180952Y-20454819D02*
X25085714Y-20454819D01*
X25895238Y-19550057D02*
X25942857Y-19502438D01*
X25942857Y-19502438D02*
X26038095Y-19454819D01*
X26038095Y-19454819D02*
X26276190Y-19454819D01*
X26276190Y-19454819D02*
X26371428Y-19502438D01*
X26371428Y-19502438D02*
X26419047Y-19550057D01*
X26419047Y-19550057D02*
X26466666Y-19645295D01*
X26466666Y-19645295D02*
X26466666Y-19740533D01*
X26466666Y-19740533D02*
X26419047Y-19883390D01*
X26419047Y-19883390D02*
X25847619Y-20454819D01*
X25847619Y-20454819D02*
X26466666Y-20454819D01*
X26759580Y-47966666D02*
X26807200Y-48014285D01*
X26807200Y-48014285D02*
X26854819Y-48157142D01*
X26854819Y-48157142D02*
X26854819Y-48252380D01*
X26854819Y-48252380D02*
X26807200Y-48395237D01*
X26807200Y-48395237D02*
X26711961Y-48490475D01*
X26711961Y-48490475D02*
X26616723Y-48538094D01*
X26616723Y-48538094D02*
X26426247Y-48585713D01*
X26426247Y-48585713D02*
X26283390Y-48585713D01*
X26283390Y-48585713D02*
X26092914Y-48538094D01*
X26092914Y-48538094D02*
X25997676Y-48490475D01*
X25997676Y-48490475D02*
X25902438Y-48395237D01*
X25902438Y-48395237D02*
X25854819Y-48252380D01*
X25854819Y-48252380D02*
X25854819Y-48157142D01*
X25854819Y-48157142D02*
X25902438Y-48014285D01*
X25902438Y-48014285D02*
X25950057Y-47966666D01*
X25854819Y-47633332D02*
X25854819Y-46966666D01*
X25854819Y-46966666D02*
X26854819Y-47395237D01*
X34839819Y-43436904D02*
X35649342Y-43436904D01*
X35649342Y-43436904D02*
X35744580Y-43389285D01*
X35744580Y-43389285D02*
X35792200Y-43341666D01*
X35792200Y-43341666D02*
X35839819Y-43246428D01*
X35839819Y-43246428D02*
X35839819Y-43055952D01*
X35839819Y-43055952D02*
X35792200Y-42960714D01*
X35792200Y-42960714D02*
X35744580Y-42913095D01*
X35744580Y-42913095D02*
X35649342Y-42865476D01*
X35649342Y-42865476D02*
X34839819Y-42865476D01*
X34839819Y-41913095D02*
X34839819Y-42389285D01*
X34839819Y-42389285D02*
X35316009Y-42436904D01*
X35316009Y-42436904D02*
X35268390Y-42389285D01*
X35268390Y-42389285D02*
X35220771Y-42294047D01*
X35220771Y-42294047D02*
X35220771Y-42055952D01*
X35220771Y-42055952D02*
X35268390Y-41960714D01*
X35268390Y-41960714D02*
X35316009Y-41913095D01*
X35316009Y-41913095D02*
X35411247Y-41865476D01*
X35411247Y-41865476D02*
X35649342Y-41865476D01*
X35649342Y-41865476D02*
X35744580Y-41913095D01*
X35744580Y-41913095D02*
X35792200Y-41960714D01*
X35792200Y-41960714D02*
X35839819Y-42055952D01*
X35839819Y-42055952D02*
X35839819Y-42294047D01*
X35839819Y-42294047D02*
X35792200Y-42389285D01*
X35792200Y-42389285D02*
X35744580Y-42436904D01*
X15637819Y-61808333D02*
X16352104Y-61808333D01*
X16352104Y-61808333D02*
X16494961Y-61855952D01*
X16494961Y-61855952D02*
X16590200Y-61951190D01*
X16590200Y-61951190D02*
X16637819Y-62094047D01*
X16637819Y-62094047D02*
X16637819Y-62189285D01*
X15637819Y-60903571D02*
X15637819Y-61094047D01*
X15637819Y-61094047D02*
X15685438Y-61189285D01*
X15685438Y-61189285D02*
X15733057Y-61236904D01*
X15733057Y-61236904D02*
X15875914Y-61332142D01*
X15875914Y-61332142D02*
X16066390Y-61379761D01*
X16066390Y-61379761D02*
X16447342Y-61379761D01*
X16447342Y-61379761D02*
X16542580Y-61332142D01*
X16542580Y-61332142D02*
X16590200Y-61284523D01*
X16590200Y-61284523D02*
X16637819Y-61189285D01*
X16637819Y-61189285D02*
X16637819Y-60998809D01*
X16637819Y-60998809D02*
X16590200Y-60903571D01*
X16590200Y-60903571D02*
X16542580Y-60855952D01*
X16542580Y-60855952D02*
X16447342Y-60808333D01*
X16447342Y-60808333D02*
X16209247Y-60808333D01*
X16209247Y-60808333D02*
X16114009Y-60855952D01*
X16114009Y-60855952D02*
X16066390Y-60903571D01*
X16066390Y-60903571D02*
X16018771Y-60998809D01*
X16018771Y-60998809D02*
X16018771Y-61189285D01*
X16018771Y-61189285D02*
X16066390Y-61284523D01*
X16066390Y-61284523D02*
X16114009Y-61332142D01*
X16114009Y-61332142D02*
X16209247Y-61379761D01*
X28557142Y-54254819D02*
X28223809Y-53778628D01*
X27985714Y-54254819D02*
X27985714Y-53254819D01*
X27985714Y-53254819D02*
X28366666Y-53254819D01*
X28366666Y-53254819D02*
X28461904Y-53302438D01*
X28461904Y-53302438D02*
X28509523Y-53350057D01*
X28509523Y-53350057D02*
X28557142Y-53445295D01*
X28557142Y-53445295D02*
X28557142Y-53588152D01*
X28557142Y-53588152D02*
X28509523Y-53683390D01*
X28509523Y-53683390D02*
X28461904Y-53731009D01*
X28461904Y-53731009D02*
X28366666Y-53778628D01*
X28366666Y-53778628D02*
X27985714Y-53778628D01*
X29509523Y-54254819D02*
X28938095Y-54254819D01*
X29223809Y-54254819D02*
X29223809Y-53254819D01*
X29223809Y-53254819D02*
X29128571Y-53397676D01*
X29128571Y-53397676D02*
X29033333Y-53492914D01*
X29033333Y-53492914D02*
X28938095Y-53540533D01*
X30414285Y-53254819D02*
X29938095Y-53254819D01*
X29938095Y-53254819D02*
X29890476Y-53731009D01*
X29890476Y-53731009D02*
X29938095Y-53683390D01*
X29938095Y-53683390D02*
X30033333Y-53635771D01*
X30033333Y-53635771D02*
X30271428Y-53635771D01*
X30271428Y-53635771D02*
X30366666Y-53683390D01*
X30366666Y-53683390D02*
X30414285Y-53731009D01*
X30414285Y-53731009D02*
X30461904Y-53826247D01*
X30461904Y-53826247D02*
X30461904Y-54064342D01*
X30461904Y-54064342D02*
X30414285Y-54159580D01*
X30414285Y-54159580D02*
X30366666Y-54207200D01*
X30366666Y-54207200D02*
X30271428Y-54254819D01*
X30271428Y-54254819D02*
X30033333Y-54254819D01*
X30033333Y-54254819D02*
X29938095Y-54207200D01*
X29938095Y-54207200D02*
X29890476Y-54159580D01*
X36466667Y-71407200D02*
X36609524Y-71454819D01*
X36609524Y-71454819D02*
X36847619Y-71454819D01*
X36847619Y-71454819D02*
X36942857Y-71407200D01*
X36942857Y-71407200D02*
X36990476Y-71359580D01*
X36990476Y-71359580D02*
X37038095Y-71264342D01*
X37038095Y-71264342D02*
X37038095Y-71169104D01*
X37038095Y-71169104D02*
X36990476Y-71073866D01*
X36990476Y-71073866D02*
X36942857Y-71026247D01*
X36942857Y-71026247D02*
X36847619Y-70978628D01*
X36847619Y-70978628D02*
X36657143Y-70931009D01*
X36657143Y-70931009D02*
X36561905Y-70883390D01*
X36561905Y-70883390D02*
X36514286Y-70835771D01*
X36514286Y-70835771D02*
X36466667Y-70740533D01*
X36466667Y-70740533D02*
X36466667Y-70645295D01*
X36466667Y-70645295D02*
X36514286Y-70550057D01*
X36514286Y-70550057D02*
X36561905Y-70502438D01*
X36561905Y-70502438D02*
X36657143Y-70454819D01*
X36657143Y-70454819D02*
X36895238Y-70454819D01*
X36895238Y-70454819D02*
X37038095Y-70502438D01*
X37371429Y-70454819D02*
X37609524Y-71454819D01*
X37609524Y-71454819D02*
X37800000Y-70740533D01*
X37800000Y-70740533D02*
X37990476Y-71454819D01*
X37990476Y-71454819D02*
X38228572Y-70454819D01*
X39133333Y-71454819D02*
X38561905Y-71454819D01*
X38847619Y-71454819D02*
X38847619Y-70454819D01*
X38847619Y-70454819D02*
X38752381Y-70597676D01*
X38752381Y-70597676D02*
X38657143Y-70692914D01*
X38657143Y-70692914D02*
X38561905Y-70740533D01*
X28544642Y-60854819D02*
X28211309Y-60378628D01*
X27973214Y-60854819D02*
X27973214Y-59854819D01*
X27973214Y-59854819D02*
X28354166Y-59854819D01*
X28354166Y-59854819D02*
X28449404Y-59902438D01*
X28449404Y-59902438D02*
X28497023Y-59950057D01*
X28497023Y-59950057D02*
X28544642Y-60045295D01*
X28544642Y-60045295D02*
X28544642Y-60188152D01*
X28544642Y-60188152D02*
X28497023Y-60283390D01*
X28497023Y-60283390D02*
X28449404Y-60331009D01*
X28449404Y-60331009D02*
X28354166Y-60378628D01*
X28354166Y-60378628D02*
X27973214Y-60378628D01*
X29497023Y-60854819D02*
X28925595Y-60854819D01*
X29211309Y-60854819D02*
X29211309Y-59854819D01*
X29211309Y-59854819D02*
X29116071Y-59997676D01*
X29116071Y-59997676D02*
X29020833Y-60092914D01*
X29020833Y-60092914D02*
X28925595Y-60140533D01*
X29830357Y-59854819D02*
X30497023Y-59854819D01*
X30497023Y-59854819D02*
X30068452Y-60854819D01*
X26423095Y-64079819D02*
X26423095Y-64889342D01*
X26423095Y-64889342D02*
X26470714Y-64984580D01*
X26470714Y-64984580D02*
X26518333Y-65032200D01*
X26518333Y-65032200D02*
X26613571Y-65079819D01*
X26613571Y-65079819D02*
X26804047Y-65079819D01*
X26804047Y-65079819D02*
X26899285Y-65032200D01*
X26899285Y-65032200D02*
X26946904Y-64984580D01*
X26946904Y-64984580D02*
X26994523Y-64889342D01*
X26994523Y-64889342D02*
X26994523Y-64079819D01*
X27899285Y-64079819D02*
X27708809Y-64079819D01*
X27708809Y-64079819D02*
X27613571Y-64127438D01*
X27613571Y-64127438D02*
X27565952Y-64175057D01*
X27565952Y-64175057D02*
X27470714Y-64317914D01*
X27470714Y-64317914D02*
X27423095Y-64508390D01*
X27423095Y-64508390D02*
X27423095Y-64889342D01*
X27423095Y-64889342D02*
X27470714Y-64984580D01*
X27470714Y-64984580D02*
X27518333Y-65032200D01*
X27518333Y-65032200D02*
X27613571Y-65079819D01*
X27613571Y-65079819D02*
X27804047Y-65079819D01*
X27804047Y-65079819D02*
X27899285Y-65032200D01*
X27899285Y-65032200D02*
X27946904Y-64984580D01*
X27946904Y-64984580D02*
X27994523Y-64889342D01*
X27994523Y-64889342D02*
X27994523Y-64651247D01*
X27994523Y-64651247D02*
X27946904Y-64556009D01*
X27946904Y-64556009D02*
X27899285Y-64508390D01*
X27899285Y-64508390D02*
X27804047Y-64460771D01*
X27804047Y-64460771D02*
X27613571Y-64460771D01*
X27613571Y-64460771D02*
X27518333Y-64508390D01*
X27518333Y-64508390D02*
X27470714Y-64556009D01*
X27470714Y-64556009D02*
X27423095Y-64651247D01*
X31839819Y-13841666D02*
X31363628Y-14174999D01*
X31839819Y-14413094D02*
X30839819Y-14413094D01*
X30839819Y-14413094D02*
X30839819Y-14032142D01*
X30839819Y-14032142D02*
X30887438Y-13936904D01*
X30887438Y-13936904D02*
X30935057Y-13889285D01*
X30935057Y-13889285D02*
X31030295Y-13841666D01*
X31030295Y-13841666D02*
X31173152Y-13841666D01*
X31173152Y-13841666D02*
X31268390Y-13889285D01*
X31268390Y-13889285D02*
X31316009Y-13936904D01*
X31316009Y-13936904D02*
X31363628Y-14032142D01*
X31363628Y-14032142D02*
X31363628Y-14413094D01*
X31839819Y-12889285D02*
X31839819Y-13460713D01*
X31839819Y-13174999D02*
X30839819Y-13174999D01*
X30839819Y-13174999D02*
X30982676Y-13270237D01*
X30982676Y-13270237D02*
X31077914Y-13365475D01*
X31077914Y-13365475D02*
X31125533Y-13460713D01*
X34054819Y-24966666D02*
X33578628Y-25299999D01*
X34054819Y-25538094D02*
X33054819Y-25538094D01*
X33054819Y-25538094D02*
X33054819Y-25157142D01*
X33054819Y-25157142D02*
X33102438Y-25061904D01*
X33102438Y-25061904D02*
X33150057Y-25014285D01*
X33150057Y-25014285D02*
X33245295Y-24966666D01*
X33245295Y-24966666D02*
X33388152Y-24966666D01*
X33388152Y-24966666D02*
X33483390Y-25014285D01*
X33483390Y-25014285D02*
X33531009Y-25061904D01*
X33531009Y-25061904D02*
X33578628Y-25157142D01*
X33578628Y-25157142D02*
X33578628Y-25538094D01*
X33054819Y-24061904D02*
X33054819Y-24538094D01*
X33054819Y-24538094D02*
X33531009Y-24585713D01*
X33531009Y-24585713D02*
X33483390Y-24538094D01*
X33483390Y-24538094D02*
X33435771Y-24442856D01*
X33435771Y-24442856D02*
X33435771Y-24204761D01*
X33435771Y-24204761D02*
X33483390Y-24109523D01*
X33483390Y-24109523D02*
X33531009Y-24061904D01*
X33531009Y-24061904D02*
X33626247Y-24014285D01*
X33626247Y-24014285D02*
X33864342Y-24014285D01*
X33864342Y-24014285D02*
X33959580Y-24061904D01*
X33959580Y-24061904D02*
X34007200Y-24109523D01*
X34007200Y-24109523D02*
X34054819Y-24204761D01*
X34054819Y-24204761D02*
X34054819Y-24442856D01*
X34054819Y-24442856D02*
X34007200Y-24538094D01*
X34007200Y-24538094D02*
X33959580Y-24585713D01*
X20438095Y-15054819D02*
X20438095Y-15864342D01*
X20438095Y-15864342D02*
X20485714Y-15959580D01*
X20485714Y-15959580D02*
X20533333Y-16007200D01*
X20533333Y-16007200D02*
X20628571Y-16054819D01*
X20628571Y-16054819D02*
X20819047Y-16054819D01*
X20819047Y-16054819D02*
X20914285Y-16007200D01*
X20914285Y-16007200D02*
X20961904Y-15959580D01*
X20961904Y-15959580D02*
X21009523Y-15864342D01*
X21009523Y-15864342D02*
X21009523Y-15054819D01*
X21438095Y-15150057D02*
X21485714Y-15102438D01*
X21485714Y-15102438D02*
X21580952Y-15054819D01*
X21580952Y-15054819D02*
X21819047Y-15054819D01*
X21819047Y-15054819D02*
X21914285Y-15102438D01*
X21914285Y-15102438D02*
X21961904Y-15150057D01*
X21961904Y-15150057D02*
X22009523Y-15245295D01*
X22009523Y-15245295D02*
X22009523Y-15340533D01*
X22009523Y-15340533D02*
X21961904Y-15483390D01*
X21961904Y-15483390D02*
X21390476Y-16054819D01*
X21390476Y-16054819D02*
X22009523Y-16054819D01*
X31557142Y-60824819D02*
X31223809Y-60348628D01*
X30985714Y-60824819D02*
X30985714Y-59824819D01*
X30985714Y-59824819D02*
X31366666Y-59824819D01*
X31366666Y-59824819D02*
X31461904Y-59872438D01*
X31461904Y-59872438D02*
X31509523Y-59920057D01*
X31509523Y-59920057D02*
X31557142Y-60015295D01*
X31557142Y-60015295D02*
X31557142Y-60158152D01*
X31557142Y-60158152D02*
X31509523Y-60253390D01*
X31509523Y-60253390D02*
X31461904Y-60301009D01*
X31461904Y-60301009D02*
X31366666Y-60348628D01*
X31366666Y-60348628D02*
X30985714Y-60348628D01*
X32509523Y-60824819D02*
X31938095Y-60824819D01*
X32223809Y-60824819D02*
X32223809Y-59824819D01*
X32223809Y-59824819D02*
X32128571Y-59967676D01*
X32128571Y-59967676D02*
X32033333Y-60062914D01*
X32033333Y-60062914D02*
X31938095Y-60110533D01*
X33080952Y-60253390D02*
X32985714Y-60205771D01*
X32985714Y-60205771D02*
X32938095Y-60158152D01*
X32938095Y-60158152D02*
X32890476Y-60062914D01*
X32890476Y-60062914D02*
X32890476Y-60015295D01*
X32890476Y-60015295D02*
X32938095Y-59920057D01*
X32938095Y-59920057D02*
X32985714Y-59872438D01*
X32985714Y-59872438D02*
X33080952Y-59824819D01*
X33080952Y-59824819D02*
X33271428Y-59824819D01*
X33271428Y-59824819D02*
X33366666Y-59872438D01*
X33366666Y-59872438D02*
X33414285Y-59920057D01*
X33414285Y-59920057D02*
X33461904Y-60015295D01*
X33461904Y-60015295D02*
X33461904Y-60062914D01*
X33461904Y-60062914D02*
X33414285Y-60158152D01*
X33414285Y-60158152D02*
X33366666Y-60205771D01*
X33366666Y-60205771D02*
X33271428Y-60253390D01*
X33271428Y-60253390D02*
X33080952Y-60253390D01*
X33080952Y-60253390D02*
X32985714Y-60301009D01*
X32985714Y-60301009D02*
X32938095Y-60348628D01*
X32938095Y-60348628D02*
X32890476Y-60443866D01*
X32890476Y-60443866D02*
X32890476Y-60634342D01*
X32890476Y-60634342D02*
X32938095Y-60729580D01*
X32938095Y-60729580D02*
X32985714Y-60777200D01*
X32985714Y-60777200D02*
X33080952Y-60824819D01*
X33080952Y-60824819D02*
X33271428Y-60824819D01*
X33271428Y-60824819D02*
X33366666Y-60777200D01*
X33366666Y-60777200D02*
X33414285Y-60729580D01*
X33414285Y-60729580D02*
X33461904Y-60634342D01*
X33461904Y-60634342D02*
X33461904Y-60443866D01*
X33461904Y-60443866D02*
X33414285Y-60348628D01*
X33414285Y-60348628D02*
X33366666Y-60301009D01*
X33366666Y-60301009D02*
X33271428Y-60253390D01*
X22959580Y-43366666D02*
X23007200Y-43414285D01*
X23007200Y-43414285D02*
X23054819Y-43557142D01*
X23054819Y-43557142D02*
X23054819Y-43652380D01*
X23054819Y-43652380D02*
X23007200Y-43795237D01*
X23007200Y-43795237D02*
X22911961Y-43890475D01*
X22911961Y-43890475D02*
X22816723Y-43938094D01*
X22816723Y-43938094D02*
X22626247Y-43985713D01*
X22626247Y-43985713D02*
X22483390Y-43985713D01*
X22483390Y-43985713D02*
X22292914Y-43938094D01*
X22292914Y-43938094D02*
X22197676Y-43890475D01*
X22197676Y-43890475D02*
X22102438Y-43795237D01*
X22102438Y-43795237D02*
X22054819Y-43652380D01*
X22054819Y-43652380D02*
X22054819Y-43557142D01*
X22054819Y-43557142D02*
X22102438Y-43414285D01*
X22102438Y-43414285D02*
X22150057Y-43366666D01*
X22054819Y-42509523D02*
X22054819Y-42699999D01*
X22054819Y-42699999D02*
X22102438Y-42795237D01*
X22102438Y-42795237D02*
X22150057Y-42842856D01*
X22150057Y-42842856D02*
X22292914Y-42938094D01*
X22292914Y-42938094D02*
X22483390Y-42985713D01*
X22483390Y-42985713D02*
X22864342Y-42985713D01*
X22864342Y-42985713D02*
X22959580Y-42938094D01*
X22959580Y-42938094D02*
X23007200Y-42890475D01*
X23007200Y-42890475D02*
X23054819Y-42795237D01*
X23054819Y-42795237D02*
X23054819Y-42604761D01*
X23054819Y-42604761D02*
X23007200Y-42509523D01*
X23007200Y-42509523D02*
X22959580Y-42461904D01*
X22959580Y-42461904D02*
X22864342Y-42414285D01*
X22864342Y-42414285D02*
X22626247Y-42414285D01*
X22626247Y-42414285D02*
X22531009Y-42461904D01*
X22531009Y-42461904D02*
X22483390Y-42509523D01*
X22483390Y-42509523D02*
X22435771Y-42604761D01*
X22435771Y-42604761D02*
X22435771Y-42795237D01*
X22435771Y-42795237D02*
X22483390Y-42890475D01*
X22483390Y-42890475D02*
X22531009Y-42938094D01*
X22531009Y-42938094D02*
X22626247Y-42985713D01*
X13261905Y-28284819D02*
X13261905Y-27284819D01*
X13261905Y-27284819D02*
X13500000Y-27284819D01*
X13500000Y-27284819D02*
X13642857Y-27332438D01*
X13642857Y-27332438D02*
X13738095Y-27427676D01*
X13738095Y-27427676D02*
X13785714Y-27522914D01*
X13785714Y-27522914D02*
X13833333Y-27713390D01*
X13833333Y-27713390D02*
X13833333Y-27856247D01*
X13833333Y-27856247D02*
X13785714Y-28046723D01*
X13785714Y-28046723D02*
X13738095Y-28141961D01*
X13738095Y-28141961D02*
X13642857Y-28237200D01*
X13642857Y-28237200D02*
X13500000Y-28284819D01*
X13500000Y-28284819D02*
X13261905Y-28284819D01*
X14785714Y-28284819D02*
X14214286Y-28284819D01*
X14500000Y-28284819D02*
X14500000Y-27284819D01*
X14500000Y-27284819D02*
X14404762Y-27427676D01*
X14404762Y-27427676D02*
X14309524Y-27522914D01*
X14309524Y-27522914D02*
X14214286Y-27570533D01*
X33239819Y-13841666D02*
X32763628Y-14174999D01*
X33239819Y-14413094D02*
X32239819Y-14413094D01*
X32239819Y-14413094D02*
X32239819Y-14032142D01*
X32239819Y-14032142D02*
X32287438Y-13936904D01*
X32287438Y-13936904D02*
X32335057Y-13889285D01*
X32335057Y-13889285D02*
X32430295Y-13841666D01*
X32430295Y-13841666D02*
X32573152Y-13841666D01*
X32573152Y-13841666D02*
X32668390Y-13889285D01*
X32668390Y-13889285D02*
X32716009Y-13936904D01*
X32716009Y-13936904D02*
X32763628Y-14032142D01*
X32763628Y-14032142D02*
X32763628Y-14413094D01*
X32335057Y-13460713D02*
X32287438Y-13413094D01*
X32287438Y-13413094D02*
X32239819Y-13317856D01*
X32239819Y-13317856D02*
X32239819Y-13079761D01*
X32239819Y-13079761D02*
X32287438Y-12984523D01*
X32287438Y-12984523D02*
X32335057Y-12936904D01*
X32335057Y-12936904D02*
X32430295Y-12889285D01*
X32430295Y-12889285D02*
X32525533Y-12889285D01*
X32525533Y-12889285D02*
X32668390Y-12936904D01*
X32668390Y-12936904D02*
X33239819Y-13508332D01*
X33239819Y-13508332D02*
X33239819Y-12889285D01*
X34439819Y-19636904D02*
X35249342Y-19636904D01*
X35249342Y-19636904D02*
X35344580Y-19589285D01*
X35344580Y-19589285D02*
X35392200Y-19541666D01*
X35392200Y-19541666D02*
X35439819Y-19446428D01*
X35439819Y-19446428D02*
X35439819Y-19255952D01*
X35439819Y-19255952D02*
X35392200Y-19160714D01*
X35392200Y-19160714D02*
X35344580Y-19113095D01*
X35344580Y-19113095D02*
X35249342Y-19065476D01*
X35249342Y-19065476D02*
X34439819Y-19065476D01*
X34439819Y-18684523D02*
X34439819Y-18065476D01*
X34439819Y-18065476D02*
X34820771Y-18398809D01*
X34820771Y-18398809D02*
X34820771Y-18255952D01*
X34820771Y-18255952D02*
X34868390Y-18160714D01*
X34868390Y-18160714D02*
X34916009Y-18113095D01*
X34916009Y-18113095D02*
X35011247Y-18065476D01*
X35011247Y-18065476D02*
X35249342Y-18065476D01*
X35249342Y-18065476D02*
X35344580Y-18113095D01*
X35344580Y-18113095D02*
X35392200Y-18160714D01*
X35392200Y-18160714D02*
X35439819Y-18255952D01*
X35439819Y-18255952D02*
X35439819Y-18541666D01*
X35439819Y-18541666D02*
X35392200Y-18636904D01*
X35392200Y-18636904D02*
X35344580Y-18684523D01*
X29638095Y-39254819D02*
X29638095Y-40064342D01*
X29638095Y-40064342D02*
X29685714Y-40159580D01*
X29685714Y-40159580D02*
X29733333Y-40207200D01*
X29733333Y-40207200D02*
X29828571Y-40254819D01*
X29828571Y-40254819D02*
X30019047Y-40254819D01*
X30019047Y-40254819D02*
X30114285Y-40207200D01*
X30114285Y-40207200D02*
X30161904Y-40159580D01*
X30161904Y-40159580D02*
X30209523Y-40064342D01*
X30209523Y-40064342D02*
X30209523Y-39254819D01*
X31209523Y-40254819D02*
X30638095Y-40254819D01*
X30923809Y-40254819D02*
X30923809Y-39254819D01*
X30923809Y-39254819D02*
X30828571Y-39397676D01*
X30828571Y-39397676D02*
X30733333Y-39492914D01*
X30733333Y-39492914D02*
X30638095Y-39540533D01*
X29504761Y-47950057D02*
X29409523Y-47902438D01*
X29409523Y-47902438D02*
X29314285Y-47807200D01*
X29314285Y-47807200D02*
X29171428Y-47664342D01*
X29171428Y-47664342D02*
X29076190Y-47616723D01*
X29076190Y-47616723D02*
X28980952Y-47616723D01*
X29028571Y-47854819D02*
X28933333Y-47807200D01*
X28933333Y-47807200D02*
X28838095Y-47711961D01*
X28838095Y-47711961D02*
X28790476Y-47521485D01*
X28790476Y-47521485D02*
X28790476Y-47188152D01*
X28790476Y-47188152D02*
X28838095Y-46997676D01*
X28838095Y-46997676D02*
X28933333Y-46902438D01*
X28933333Y-46902438D02*
X29028571Y-46854819D01*
X29028571Y-46854819D02*
X29219047Y-46854819D01*
X29219047Y-46854819D02*
X29314285Y-46902438D01*
X29314285Y-46902438D02*
X29409523Y-46997676D01*
X29409523Y-46997676D02*
X29457142Y-47188152D01*
X29457142Y-47188152D02*
X29457142Y-47521485D01*
X29457142Y-47521485D02*
X29409523Y-47711961D01*
X29409523Y-47711961D02*
X29314285Y-47807200D01*
X29314285Y-47807200D02*
X29219047Y-47854819D01*
X29219047Y-47854819D02*
X29028571Y-47854819D01*
X29838095Y-46950057D02*
X29885714Y-46902438D01*
X29885714Y-46902438D02*
X29980952Y-46854819D01*
X29980952Y-46854819D02*
X30219047Y-46854819D01*
X30219047Y-46854819D02*
X30314285Y-46902438D01*
X30314285Y-46902438D02*
X30361904Y-46950057D01*
X30361904Y-46950057D02*
X30409523Y-47045295D01*
X30409523Y-47045295D02*
X30409523Y-47140533D01*
X30409523Y-47140533D02*
X30361904Y-47283390D01*
X30361904Y-47283390D02*
X29790476Y-47854819D01*
X29790476Y-47854819D02*
X30409523Y-47854819D01*
X24889819Y-23641666D02*
X24889819Y-24117856D01*
X24889819Y-24117856D02*
X23889819Y-24117856D01*
X24889819Y-22784523D02*
X24889819Y-23355951D01*
X24889819Y-23070237D02*
X23889819Y-23070237D01*
X23889819Y-23070237D02*
X24032676Y-23165475D01*
X24032676Y-23165475D02*
X24127914Y-23260713D01*
X24127914Y-23260713D02*
X24175533Y-23355951D01*
X26442319Y-58642857D02*
X25966128Y-58976190D01*
X26442319Y-59214285D02*
X25442319Y-59214285D01*
X25442319Y-59214285D02*
X25442319Y-58833333D01*
X25442319Y-58833333D02*
X25489938Y-58738095D01*
X25489938Y-58738095D02*
X25537557Y-58690476D01*
X25537557Y-58690476D02*
X25632795Y-58642857D01*
X25632795Y-58642857D02*
X25775652Y-58642857D01*
X25775652Y-58642857D02*
X25870890Y-58690476D01*
X25870890Y-58690476D02*
X25918509Y-58738095D01*
X25918509Y-58738095D02*
X25966128Y-58833333D01*
X25966128Y-58833333D02*
X25966128Y-59214285D01*
X26442319Y-57690476D02*
X26442319Y-58261904D01*
X26442319Y-57976190D02*
X25442319Y-57976190D01*
X25442319Y-57976190D02*
X25585176Y-58071428D01*
X25585176Y-58071428D02*
X25680414Y-58166666D01*
X25680414Y-58166666D02*
X25728033Y-58261904D01*
X25442319Y-57357142D02*
X25442319Y-56738095D01*
X25442319Y-56738095D02*
X25823271Y-57071428D01*
X25823271Y-57071428D02*
X25823271Y-56928571D01*
X25823271Y-56928571D02*
X25870890Y-56833333D01*
X25870890Y-56833333D02*
X25918509Y-56785714D01*
X25918509Y-56785714D02*
X26013747Y-56738095D01*
X26013747Y-56738095D02*
X26251842Y-56738095D01*
X26251842Y-56738095D02*
X26347080Y-56785714D01*
X26347080Y-56785714D02*
X26394700Y-56833333D01*
X26394700Y-56833333D02*
X26442319Y-56928571D01*
X26442319Y-56928571D02*
X26442319Y-57214285D01*
X26442319Y-57214285D02*
X26394700Y-57309523D01*
X26394700Y-57309523D02*
X26347080Y-57357142D01*
X13654819Y-18066666D02*
X13178628Y-18399999D01*
X13654819Y-18638094D02*
X12654819Y-18638094D01*
X12654819Y-18638094D02*
X12654819Y-18257142D01*
X12654819Y-18257142D02*
X12702438Y-18161904D01*
X12702438Y-18161904D02*
X12750057Y-18114285D01*
X12750057Y-18114285D02*
X12845295Y-18066666D01*
X12845295Y-18066666D02*
X12988152Y-18066666D01*
X12988152Y-18066666D02*
X13083390Y-18114285D01*
X13083390Y-18114285D02*
X13131009Y-18161904D01*
X13131009Y-18161904D02*
X13178628Y-18257142D01*
X13178628Y-18257142D02*
X13178628Y-18638094D01*
X12654819Y-17733332D02*
X12654819Y-17114285D01*
X12654819Y-17114285D02*
X13035771Y-17447618D01*
X13035771Y-17447618D02*
X13035771Y-17304761D01*
X13035771Y-17304761D02*
X13083390Y-17209523D01*
X13083390Y-17209523D02*
X13131009Y-17161904D01*
X13131009Y-17161904D02*
X13226247Y-17114285D01*
X13226247Y-17114285D02*
X13464342Y-17114285D01*
X13464342Y-17114285D02*
X13559580Y-17161904D01*
X13559580Y-17161904D02*
X13607200Y-17209523D01*
X13607200Y-17209523D02*
X13654819Y-17304761D01*
X13654819Y-17304761D02*
X13654819Y-17590475D01*
X13654819Y-17590475D02*
X13607200Y-17685713D01*
X13607200Y-17685713D02*
X13559580Y-17733332D01*
X31557142Y-54224819D02*
X31223809Y-53748628D01*
X30985714Y-54224819D02*
X30985714Y-53224819D01*
X30985714Y-53224819D02*
X31366666Y-53224819D01*
X31366666Y-53224819D02*
X31461904Y-53272438D01*
X31461904Y-53272438D02*
X31509523Y-53320057D01*
X31509523Y-53320057D02*
X31557142Y-53415295D01*
X31557142Y-53415295D02*
X31557142Y-53558152D01*
X31557142Y-53558152D02*
X31509523Y-53653390D01*
X31509523Y-53653390D02*
X31461904Y-53701009D01*
X31461904Y-53701009D02*
X31366666Y-53748628D01*
X31366666Y-53748628D02*
X30985714Y-53748628D01*
X32509523Y-54224819D02*
X31938095Y-54224819D01*
X32223809Y-54224819D02*
X32223809Y-53224819D01*
X32223809Y-53224819D02*
X32128571Y-53367676D01*
X32128571Y-53367676D02*
X32033333Y-53462914D01*
X32033333Y-53462914D02*
X31938095Y-53510533D01*
X33366666Y-53224819D02*
X33176190Y-53224819D01*
X33176190Y-53224819D02*
X33080952Y-53272438D01*
X33080952Y-53272438D02*
X33033333Y-53320057D01*
X33033333Y-53320057D02*
X32938095Y-53462914D01*
X32938095Y-53462914D02*
X32890476Y-53653390D01*
X32890476Y-53653390D02*
X32890476Y-54034342D01*
X32890476Y-54034342D02*
X32938095Y-54129580D01*
X32938095Y-54129580D02*
X32985714Y-54177200D01*
X32985714Y-54177200D02*
X33080952Y-54224819D01*
X33080952Y-54224819D02*
X33271428Y-54224819D01*
X33271428Y-54224819D02*
X33366666Y-54177200D01*
X33366666Y-54177200D02*
X33414285Y-54129580D01*
X33414285Y-54129580D02*
X33461904Y-54034342D01*
X33461904Y-54034342D02*
X33461904Y-53796247D01*
X33461904Y-53796247D02*
X33414285Y-53701009D01*
X33414285Y-53701009D02*
X33366666Y-53653390D01*
X33366666Y-53653390D02*
X33271428Y-53605771D01*
X33271428Y-53605771D02*
X33080952Y-53605771D01*
X33080952Y-53605771D02*
X32985714Y-53653390D01*
X32985714Y-53653390D02*
X32938095Y-53701009D01*
X32938095Y-53701009D02*
X32890476Y-53796247D01*
X32257142Y-39459580D02*
X32209523Y-39507200D01*
X32209523Y-39507200D02*
X32066666Y-39554819D01*
X32066666Y-39554819D02*
X31971428Y-39554819D01*
X31971428Y-39554819D02*
X31828571Y-39507200D01*
X31828571Y-39507200D02*
X31733333Y-39411961D01*
X31733333Y-39411961D02*
X31685714Y-39316723D01*
X31685714Y-39316723D02*
X31638095Y-39126247D01*
X31638095Y-39126247D02*
X31638095Y-38983390D01*
X31638095Y-38983390D02*
X31685714Y-38792914D01*
X31685714Y-38792914D02*
X31733333Y-38697676D01*
X31733333Y-38697676D02*
X31828571Y-38602438D01*
X31828571Y-38602438D02*
X31971428Y-38554819D01*
X31971428Y-38554819D02*
X32066666Y-38554819D01*
X32066666Y-38554819D02*
X32209523Y-38602438D01*
X32209523Y-38602438D02*
X32257142Y-38650057D01*
X33209523Y-39554819D02*
X32638095Y-39554819D01*
X32923809Y-39554819D02*
X32923809Y-38554819D01*
X32923809Y-38554819D02*
X32828571Y-38697676D01*
X32828571Y-38697676D02*
X32733333Y-38792914D01*
X32733333Y-38792914D02*
X32638095Y-38840533D01*
X33828571Y-38554819D02*
X33923809Y-38554819D01*
X33923809Y-38554819D02*
X34019047Y-38602438D01*
X34019047Y-38602438D02*
X34066666Y-38650057D01*
X34066666Y-38650057D02*
X34114285Y-38745295D01*
X34114285Y-38745295D02*
X34161904Y-38935771D01*
X34161904Y-38935771D02*
X34161904Y-39173866D01*
X34161904Y-39173866D02*
X34114285Y-39364342D01*
X34114285Y-39364342D02*
X34066666Y-39459580D01*
X34066666Y-39459580D02*
X34019047Y-39507200D01*
X34019047Y-39507200D02*
X33923809Y-39554819D01*
X33923809Y-39554819D02*
X33828571Y-39554819D01*
X33828571Y-39554819D02*
X33733333Y-39507200D01*
X33733333Y-39507200D02*
X33685714Y-39459580D01*
X33685714Y-39459580D02*
X33638095Y-39364342D01*
X33638095Y-39364342D02*
X33590476Y-39173866D01*
X33590476Y-39173866D02*
X33590476Y-38935771D01*
X33590476Y-38935771D02*
X33638095Y-38745295D01*
X33638095Y-38745295D02*
X33685714Y-38650057D01*
X33685714Y-38650057D02*
X33733333Y-38602438D01*
X33733333Y-38602438D02*
X33828571Y-38554819D01*
X24190476Y-72656819D02*
X24190476Y-73371104D01*
X24190476Y-73371104D02*
X24142857Y-73513961D01*
X24142857Y-73513961D02*
X24047619Y-73609200D01*
X24047619Y-73609200D02*
X23904762Y-73656819D01*
X23904762Y-73656819D02*
X23809524Y-73656819D01*
X25190476Y-73656819D02*
X24619048Y-73656819D01*
X24904762Y-73656819D02*
X24904762Y-72656819D01*
X24904762Y-72656819D02*
X24809524Y-72799676D01*
X24809524Y-72799676D02*
X24714286Y-72894914D01*
X24714286Y-72894914D02*
X24619048Y-72942533D01*
X25571429Y-72752057D02*
X25619048Y-72704438D01*
X25619048Y-72704438D02*
X25714286Y-72656819D01*
X25714286Y-72656819D02*
X25952381Y-72656819D01*
X25952381Y-72656819D02*
X26047619Y-72704438D01*
X26047619Y-72704438D02*
X26095238Y-72752057D01*
X26095238Y-72752057D02*
X26142857Y-72847295D01*
X26142857Y-72847295D02*
X26142857Y-72942533D01*
X26142857Y-72942533D02*
X26095238Y-73085390D01*
X26095238Y-73085390D02*
X25523810Y-73656819D01*
X25523810Y-73656819D02*
X26142857Y-73656819D01*
X21190476Y-72656819D02*
X21190476Y-73371104D01*
X21190476Y-73371104D02*
X21142857Y-73513961D01*
X21142857Y-73513961D02*
X21047619Y-73609200D01*
X21047619Y-73609200D02*
X20904762Y-73656819D01*
X20904762Y-73656819D02*
X20809524Y-73656819D01*
X22190476Y-73656819D02*
X21619048Y-73656819D01*
X21904762Y-73656819D02*
X21904762Y-72656819D01*
X21904762Y-72656819D02*
X21809524Y-72799676D01*
X21809524Y-72799676D02*
X21714286Y-72894914D01*
X21714286Y-72894914D02*
X21619048Y-72942533D01*
X23142857Y-73656819D02*
X22571429Y-73656819D01*
X22857143Y-73656819D02*
X22857143Y-72656819D01*
X22857143Y-72656819D02*
X22761905Y-72799676D01*
X22761905Y-72799676D02*
X22666667Y-72894914D01*
X22666667Y-72894914D02*
X22571429Y-72942533D01*
X27492261Y-59750057D02*
X27397023Y-59702438D01*
X27397023Y-59702438D02*
X27301785Y-59607200D01*
X27301785Y-59607200D02*
X27158928Y-59464342D01*
X27158928Y-59464342D02*
X27063690Y-59416723D01*
X27063690Y-59416723D02*
X26968452Y-59416723D01*
X27016071Y-59654819D02*
X26920833Y-59607200D01*
X26920833Y-59607200D02*
X26825595Y-59511961D01*
X26825595Y-59511961D02*
X26777976Y-59321485D01*
X26777976Y-59321485D02*
X26777976Y-58988152D01*
X26777976Y-58988152D02*
X26825595Y-58797676D01*
X26825595Y-58797676D02*
X26920833Y-58702438D01*
X26920833Y-58702438D02*
X27016071Y-58654819D01*
X27016071Y-58654819D02*
X27206547Y-58654819D01*
X27206547Y-58654819D02*
X27301785Y-58702438D01*
X27301785Y-58702438D02*
X27397023Y-58797676D01*
X27397023Y-58797676D02*
X27444642Y-58988152D01*
X27444642Y-58988152D02*
X27444642Y-59321485D01*
X27444642Y-59321485D02*
X27397023Y-59511961D01*
X27397023Y-59511961D02*
X27301785Y-59607200D01*
X27301785Y-59607200D02*
X27206547Y-59654819D01*
X27206547Y-59654819D02*
X27016071Y-59654819D01*
X28301785Y-58988152D02*
X28301785Y-59654819D01*
X28063690Y-58607200D02*
X27825595Y-59321485D01*
X27825595Y-59321485D02*
X28444642Y-59321485D01*
X15652819Y-58733333D02*
X16367104Y-58733333D01*
X16367104Y-58733333D02*
X16509961Y-58780952D01*
X16509961Y-58780952D02*
X16605200Y-58876190D01*
X16605200Y-58876190D02*
X16652819Y-59019047D01*
X16652819Y-59019047D02*
X16652819Y-59114285D01*
X15986152Y-57828571D02*
X16652819Y-57828571D01*
X15605200Y-58066666D02*
X16319485Y-58304761D01*
X16319485Y-58304761D02*
X16319485Y-57685714D01*
X34108333Y-65929819D02*
X33775000Y-65453628D01*
X33536905Y-65929819D02*
X33536905Y-64929819D01*
X33536905Y-64929819D02*
X33917857Y-64929819D01*
X33917857Y-64929819D02*
X34013095Y-64977438D01*
X34013095Y-64977438D02*
X34060714Y-65025057D01*
X34060714Y-65025057D02*
X34108333Y-65120295D01*
X34108333Y-65120295D02*
X34108333Y-65263152D01*
X34108333Y-65263152D02*
X34060714Y-65358390D01*
X34060714Y-65358390D02*
X34013095Y-65406009D01*
X34013095Y-65406009D02*
X33917857Y-65453628D01*
X33917857Y-65453628D02*
X33536905Y-65453628D01*
X34584524Y-65929819D02*
X34775000Y-65929819D01*
X34775000Y-65929819D02*
X34870238Y-65882200D01*
X34870238Y-65882200D02*
X34917857Y-65834580D01*
X34917857Y-65834580D02*
X35013095Y-65691723D01*
X35013095Y-65691723D02*
X35060714Y-65501247D01*
X35060714Y-65501247D02*
X35060714Y-65120295D01*
X35060714Y-65120295D02*
X35013095Y-65025057D01*
X35013095Y-65025057D02*
X34965476Y-64977438D01*
X34965476Y-64977438D02*
X34870238Y-64929819D01*
X34870238Y-64929819D02*
X34679762Y-64929819D01*
X34679762Y-64929819D02*
X34584524Y-64977438D01*
X34584524Y-64977438D02*
X34536905Y-65025057D01*
X34536905Y-65025057D02*
X34489286Y-65120295D01*
X34489286Y-65120295D02*
X34489286Y-65358390D01*
X34489286Y-65358390D02*
X34536905Y-65453628D01*
X34536905Y-65453628D02*
X34584524Y-65501247D01*
X34584524Y-65501247D02*
X34679762Y-65548866D01*
X34679762Y-65548866D02*
X34870238Y-65548866D01*
X34870238Y-65548866D02*
X34965476Y-65501247D01*
X34965476Y-65501247D02*
X35013095Y-65453628D01*
X35013095Y-65453628D02*
X35060714Y-65358390D01*
X34142142Y-67129819D02*
X33808809Y-66653628D01*
X33570714Y-67129819D02*
X33570714Y-66129819D01*
X33570714Y-66129819D02*
X33951666Y-66129819D01*
X33951666Y-66129819D02*
X34046904Y-66177438D01*
X34046904Y-66177438D02*
X34094523Y-66225057D01*
X34094523Y-66225057D02*
X34142142Y-66320295D01*
X34142142Y-66320295D02*
X34142142Y-66463152D01*
X34142142Y-66463152D02*
X34094523Y-66558390D01*
X34094523Y-66558390D02*
X34046904Y-66606009D01*
X34046904Y-66606009D02*
X33951666Y-66653628D01*
X33951666Y-66653628D02*
X33570714Y-66653628D01*
X35094523Y-67129819D02*
X34523095Y-67129819D01*
X34808809Y-67129819D02*
X34808809Y-66129819D01*
X34808809Y-66129819D02*
X34713571Y-66272676D01*
X34713571Y-66272676D02*
X34618333Y-66367914D01*
X34618333Y-66367914D02*
X34523095Y-66415533D01*
X35713571Y-66129819D02*
X35808809Y-66129819D01*
X35808809Y-66129819D02*
X35904047Y-66177438D01*
X35904047Y-66177438D02*
X35951666Y-66225057D01*
X35951666Y-66225057D02*
X35999285Y-66320295D01*
X35999285Y-66320295D02*
X36046904Y-66510771D01*
X36046904Y-66510771D02*
X36046904Y-66748866D01*
X36046904Y-66748866D02*
X35999285Y-66939342D01*
X35999285Y-66939342D02*
X35951666Y-67034580D01*
X35951666Y-67034580D02*
X35904047Y-67082200D01*
X35904047Y-67082200D02*
X35808809Y-67129819D01*
X35808809Y-67129819D02*
X35713571Y-67129819D01*
X35713571Y-67129819D02*
X35618333Y-67082200D01*
X35618333Y-67082200D02*
X35570714Y-67034580D01*
X35570714Y-67034580D02*
X35523095Y-66939342D01*
X35523095Y-66939342D02*
X35475476Y-66748866D01*
X35475476Y-66748866D02*
X35475476Y-66510771D01*
X35475476Y-66510771D02*
X35523095Y-66320295D01*
X35523095Y-66320295D02*
X35570714Y-66225057D01*
X35570714Y-66225057D02*
X35618333Y-66177438D01*
X35618333Y-66177438D02*
X35713571Y-66129819D01*
X13176905Y-33084819D02*
X13176905Y-32084819D01*
X13176905Y-32084819D02*
X13415000Y-32084819D01*
X13415000Y-32084819D02*
X13557857Y-32132438D01*
X13557857Y-32132438D02*
X13653095Y-32227676D01*
X13653095Y-32227676D02*
X13700714Y-32322914D01*
X13700714Y-32322914D02*
X13748333Y-32513390D01*
X13748333Y-32513390D02*
X13748333Y-32656247D01*
X13748333Y-32656247D02*
X13700714Y-32846723D01*
X13700714Y-32846723D02*
X13653095Y-32941961D01*
X13653095Y-32941961D02*
X13557857Y-33037200D01*
X13557857Y-33037200D02*
X13415000Y-33084819D01*
X13415000Y-33084819D02*
X13176905Y-33084819D01*
X14081667Y-32084819D02*
X14700714Y-32084819D01*
X14700714Y-32084819D02*
X14367381Y-32465771D01*
X14367381Y-32465771D02*
X14510238Y-32465771D01*
X14510238Y-32465771D02*
X14605476Y-32513390D01*
X14605476Y-32513390D02*
X14653095Y-32561009D01*
X14653095Y-32561009D02*
X14700714Y-32656247D01*
X14700714Y-32656247D02*
X14700714Y-32894342D01*
X14700714Y-32894342D02*
X14653095Y-32989580D01*
X14653095Y-32989580D02*
X14605476Y-33037200D01*
X14605476Y-33037200D02*
X14510238Y-33084819D01*
X14510238Y-33084819D02*
X14224524Y-33084819D01*
X14224524Y-33084819D02*
X14129286Y-33037200D01*
X14129286Y-33037200D02*
X14081667Y-32989580D01*
X13261905Y-30684819D02*
X13261905Y-29684819D01*
X13261905Y-29684819D02*
X13500000Y-29684819D01*
X13500000Y-29684819D02*
X13642857Y-29732438D01*
X13642857Y-29732438D02*
X13738095Y-29827676D01*
X13738095Y-29827676D02*
X13785714Y-29922914D01*
X13785714Y-29922914D02*
X13833333Y-30113390D01*
X13833333Y-30113390D02*
X13833333Y-30256247D01*
X13833333Y-30256247D02*
X13785714Y-30446723D01*
X13785714Y-30446723D02*
X13738095Y-30541961D01*
X13738095Y-30541961D02*
X13642857Y-30637200D01*
X13642857Y-30637200D02*
X13500000Y-30684819D01*
X13500000Y-30684819D02*
X13261905Y-30684819D01*
X14214286Y-29780057D02*
X14261905Y-29732438D01*
X14261905Y-29732438D02*
X14357143Y-29684819D01*
X14357143Y-29684819D02*
X14595238Y-29684819D01*
X14595238Y-29684819D02*
X14690476Y-29732438D01*
X14690476Y-29732438D02*
X14738095Y-29780057D01*
X14738095Y-29780057D02*
X14785714Y-29875295D01*
X14785714Y-29875295D02*
X14785714Y-29970533D01*
X14785714Y-29970533D02*
X14738095Y-30113390D01*
X14738095Y-30113390D02*
X14166667Y-30684819D01*
X14166667Y-30684819D02*
X14785714Y-30684819D01*
X18759580Y-18766666D02*
X18807200Y-18814285D01*
X18807200Y-18814285D02*
X18854819Y-18957142D01*
X18854819Y-18957142D02*
X18854819Y-19052380D01*
X18854819Y-19052380D02*
X18807200Y-19195237D01*
X18807200Y-19195237D02*
X18711961Y-19290475D01*
X18711961Y-19290475D02*
X18616723Y-19338094D01*
X18616723Y-19338094D02*
X18426247Y-19385713D01*
X18426247Y-19385713D02*
X18283390Y-19385713D01*
X18283390Y-19385713D02*
X18092914Y-19338094D01*
X18092914Y-19338094D02*
X17997676Y-19290475D01*
X17997676Y-19290475D02*
X17902438Y-19195237D01*
X17902438Y-19195237D02*
X17854819Y-19052380D01*
X17854819Y-19052380D02*
X17854819Y-18957142D01*
X17854819Y-18957142D02*
X17902438Y-18814285D01*
X17902438Y-18814285D02*
X17950057Y-18766666D01*
X18188152Y-17909523D02*
X18854819Y-17909523D01*
X17807200Y-18147618D02*
X18521485Y-18385713D01*
X18521485Y-18385713D02*
X18521485Y-17766666D01*
X32733333Y-40614580D02*
X32685714Y-40662200D01*
X32685714Y-40662200D02*
X32542857Y-40709819D01*
X32542857Y-40709819D02*
X32447619Y-40709819D01*
X32447619Y-40709819D02*
X32304762Y-40662200D01*
X32304762Y-40662200D02*
X32209524Y-40566961D01*
X32209524Y-40566961D02*
X32161905Y-40471723D01*
X32161905Y-40471723D02*
X32114286Y-40281247D01*
X32114286Y-40281247D02*
X32114286Y-40138390D01*
X32114286Y-40138390D02*
X32161905Y-39947914D01*
X32161905Y-39947914D02*
X32209524Y-39852676D01*
X32209524Y-39852676D02*
X32304762Y-39757438D01*
X32304762Y-39757438D02*
X32447619Y-39709819D01*
X32447619Y-39709819D02*
X32542857Y-39709819D01*
X32542857Y-39709819D02*
X32685714Y-39757438D01*
X32685714Y-39757438D02*
X32733333Y-39805057D01*
X33304762Y-40138390D02*
X33209524Y-40090771D01*
X33209524Y-40090771D02*
X33161905Y-40043152D01*
X33161905Y-40043152D02*
X33114286Y-39947914D01*
X33114286Y-39947914D02*
X33114286Y-39900295D01*
X33114286Y-39900295D02*
X33161905Y-39805057D01*
X33161905Y-39805057D02*
X33209524Y-39757438D01*
X33209524Y-39757438D02*
X33304762Y-39709819D01*
X33304762Y-39709819D02*
X33495238Y-39709819D01*
X33495238Y-39709819D02*
X33590476Y-39757438D01*
X33590476Y-39757438D02*
X33638095Y-39805057D01*
X33638095Y-39805057D02*
X33685714Y-39900295D01*
X33685714Y-39900295D02*
X33685714Y-39947914D01*
X33685714Y-39947914D02*
X33638095Y-40043152D01*
X33638095Y-40043152D02*
X33590476Y-40090771D01*
X33590476Y-40090771D02*
X33495238Y-40138390D01*
X33495238Y-40138390D02*
X33304762Y-40138390D01*
X33304762Y-40138390D02*
X33209524Y-40186009D01*
X33209524Y-40186009D02*
X33161905Y-40233628D01*
X33161905Y-40233628D02*
X33114286Y-40328866D01*
X33114286Y-40328866D02*
X33114286Y-40519342D01*
X33114286Y-40519342D02*
X33161905Y-40614580D01*
X33161905Y-40614580D02*
X33209524Y-40662200D01*
X33209524Y-40662200D02*
X33304762Y-40709819D01*
X33304762Y-40709819D02*
X33495238Y-40709819D01*
X33495238Y-40709819D02*
X33590476Y-40662200D01*
X33590476Y-40662200D02*
X33638095Y-40614580D01*
X33638095Y-40614580D02*
X33685714Y-40519342D01*
X33685714Y-40519342D02*
X33685714Y-40328866D01*
X33685714Y-40328866D02*
X33638095Y-40233628D01*
X33638095Y-40233628D02*
X33590476Y-40186009D01*
X33590476Y-40186009D02*
X33495238Y-40138390D01*
X15637819Y-70808333D02*
X16352104Y-70808333D01*
X16352104Y-70808333D02*
X16494961Y-70855952D01*
X16494961Y-70855952D02*
X16590200Y-70951190D01*
X16590200Y-70951190D02*
X16637819Y-71094047D01*
X16637819Y-71094047D02*
X16637819Y-71189285D01*
X16637819Y-70284523D02*
X16637819Y-70094047D01*
X16637819Y-70094047D02*
X16590200Y-69998809D01*
X16590200Y-69998809D02*
X16542580Y-69951190D01*
X16542580Y-69951190D02*
X16399723Y-69855952D01*
X16399723Y-69855952D02*
X16209247Y-69808333D01*
X16209247Y-69808333D02*
X15828295Y-69808333D01*
X15828295Y-69808333D02*
X15733057Y-69855952D01*
X15733057Y-69855952D02*
X15685438Y-69903571D01*
X15685438Y-69903571D02*
X15637819Y-69998809D01*
X15637819Y-69998809D02*
X15637819Y-70189285D01*
X15637819Y-70189285D02*
X15685438Y-70284523D01*
X15685438Y-70284523D02*
X15733057Y-70332142D01*
X15733057Y-70332142D02*
X15828295Y-70379761D01*
X15828295Y-70379761D02*
X16066390Y-70379761D01*
X16066390Y-70379761D02*
X16161628Y-70332142D01*
X16161628Y-70332142D02*
X16209247Y-70284523D01*
X16209247Y-70284523D02*
X16256866Y-70189285D01*
X16256866Y-70189285D02*
X16256866Y-69998809D01*
X16256866Y-69998809D02*
X16209247Y-69903571D01*
X16209247Y-69903571D02*
X16161628Y-69855952D01*
X16161628Y-69855952D02*
X16066390Y-69808333D01*
X35950057Y-47095238D02*
X35902438Y-47190476D01*
X35902438Y-47190476D02*
X35807200Y-47285714D01*
X35807200Y-47285714D02*
X35664342Y-47428571D01*
X35664342Y-47428571D02*
X35616723Y-47523809D01*
X35616723Y-47523809D02*
X35616723Y-47619047D01*
X35854819Y-47571428D02*
X35807200Y-47666666D01*
X35807200Y-47666666D02*
X35711961Y-47761904D01*
X35711961Y-47761904D02*
X35521485Y-47809523D01*
X35521485Y-47809523D02*
X35188152Y-47809523D01*
X35188152Y-47809523D02*
X34997676Y-47761904D01*
X34997676Y-47761904D02*
X34902438Y-47666666D01*
X34902438Y-47666666D02*
X34854819Y-47571428D01*
X34854819Y-47571428D02*
X34854819Y-47380952D01*
X34854819Y-47380952D02*
X34902438Y-47285714D01*
X34902438Y-47285714D02*
X34997676Y-47190476D01*
X34997676Y-47190476D02*
X35188152Y-47142857D01*
X35188152Y-47142857D02*
X35521485Y-47142857D01*
X35521485Y-47142857D02*
X35711961Y-47190476D01*
X35711961Y-47190476D02*
X35807200Y-47285714D01*
X35807200Y-47285714D02*
X35854819Y-47380952D01*
X35854819Y-47380952D02*
X35854819Y-47571428D01*
X34854819Y-46809523D02*
X34854819Y-46190476D01*
X34854819Y-46190476D02*
X35235771Y-46523809D01*
X35235771Y-46523809D02*
X35235771Y-46380952D01*
X35235771Y-46380952D02*
X35283390Y-46285714D01*
X35283390Y-46285714D02*
X35331009Y-46238095D01*
X35331009Y-46238095D02*
X35426247Y-46190476D01*
X35426247Y-46190476D02*
X35664342Y-46190476D01*
X35664342Y-46190476D02*
X35759580Y-46238095D01*
X35759580Y-46238095D02*
X35807200Y-46285714D01*
X35807200Y-46285714D02*
X35854819Y-46380952D01*
X35854819Y-46380952D02*
X35854819Y-46666666D01*
X35854819Y-46666666D02*
X35807200Y-46761904D01*
X35807200Y-46761904D02*
X35759580Y-46809523D01*
X29904819Y-45411904D02*
X30714342Y-45411904D01*
X30714342Y-45411904D02*
X30809580Y-45364285D01*
X30809580Y-45364285D02*
X30857200Y-45316666D01*
X30857200Y-45316666D02*
X30904819Y-45221428D01*
X30904819Y-45221428D02*
X30904819Y-45030952D01*
X30904819Y-45030952D02*
X30857200Y-44935714D01*
X30857200Y-44935714D02*
X30809580Y-44888095D01*
X30809580Y-44888095D02*
X30714342Y-44840476D01*
X30714342Y-44840476D02*
X29904819Y-44840476D01*
X30238152Y-43935714D02*
X30904819Y-43935714D01*
X29857200Y-44173809D02*
X30571485Y-44411904D01*
X30571485Y-44411904D02*
X30571485Y-43792857D01*
X22759580Y-38766666D02*
X22807200Y-38814285D01*
X22807200Y-38814285D02*
X22854819Y-38957142D01*
X22854819Y-38957142D02*
X22854819Y-39052380D01*
X22854819Y-39052380D02*
X22807200Y-39195237D01*
X22807200Y-39195237D02*
X22711961Y-39290475D01*
X22711961Y-39290475D02*
X22616723Y-39338094D01*
X22616723Y-39338094D02*
X22426247Y-39385713D01*
X22426247Y-39385713D02*
X22283390Y-39385713D01*
X22283390Y-39385713D02*
X22092914Y-39338094D01*
X22092914Y-39338094D02*
X21997676Y-39290475D01*
X21997676Y-39290475D02*
X21902438Y-39195237D01*
X21902438Y-39195237D02*
X21854819Y-39052380D01*
X21854819Y-39052380D02*
X21854819Y-38957142D01*
X21854819Y-38957142D02*
X21902438Y-38814285D01*
X21902438Y-38814285D02*
X21950057Y-38766666D01*
X21950057Y-38385713D02*
X21902438Y-38338094D01*
X21902438Y-38338094D02*
X21854819Y-38242856D01*
X21854819Y-38242856D02*
X21854819Y-38004761D01*
X21854819Y-38004761D02*
X21902438Y-37909523D01*
X21902438Y-37909523D02*
X21950057Y-37861904D01*
X21950057Y-37861904D02*
X22045295Y-37814285D01*
X22045295Y-37814285D02*
X22140533Y-37814285D01*
X22140533Y-37814285D02*
X22283390Y-37861904D01*
X22283390Y-37861904D02*
X22854819Y-38433332D01*
X22854819Y-38433332D02*
X22854819Y-37814285D01*
X34737557Y-59495238D02*
X34689938Y-59590476D01*
X34689938Y-59590476D02*
X34594700Y-59685714D01*
X34594700Y-59685714D02*
X34451842Y-59828571D01*
X34451842Y-59828571D02*
X34404223Y-59923809D01*
X34404223Y-59923809D02*
X34404223Y-60019047D01*
X34642319Y-59971428D02*
X34594700Y-60066666D01*
X34594700Y-60066666D02*
X34499461Y-60161904D01*
X34499461Y-60161904D02*
X34308985Y-60209523D01*
X34308985Y-60209523D02*
X33975652Y-60209523D01*
X33975652Y-60209523D02*
X33785176Y-60161904D01*
X33785176Y-60161904D02*
X33689938Y-60066666D01*
X33689938Y-60066666D02*
X33642319Y-59971428D01*
X33642319Y-59971428D02*
X33642319Y-59780952D01*
X33642319Y-59780952D02*
X33689938Y-59685714D01*
X33689938Y-59685714D02*
X33785176Y-59590476D01*
X33785176Y-59590476D02*
X33975652Y-59542857D01*
X33975652Y-59542857D02*
X34308985Y-59542857D01*
X34308985Y-59542857D02*
X34499461Y-59590476D01*
X34499461Y-59590476D02*
X34594700Y-59685714D01*
X34594700Y-59685714D02*
X34642319Y-59780952D01*
X34642319Y-59780952D02*
X34642319Y-59971428D01*
X33642319Y-58638095D02*
X33642319Y-59114285D01*
X33642319Y-59114285D02*
X34118509Y-59161904D01*
X34118509Y-59161904D02*
X34070890Y-59114285D01*
X34070890Y-59114285D02*
X34023271Y-59019047D01*
X34023271Y-59019047D02*
X34023271Y-58780952D01*
X34023271Y-58780952D02*
X34070890Y-58685714D01*
X34070890Y-58685714D02*
X34118509Y-58638095D01*
X34118509Y-58638095D02*
X34213747Y-58590476D01*
X34213747Y-58590476D02*
X34451842Y-58590476D01*
X34451842Y-58590476D02*
X34547080Y-58638095D01*
X34547080Y-58638095D02*
X34594700Y-58685714D01*
X34594700Y-58685714D02*
X34642319Y-58780952D01*
X34642319Y-58780952D02*
X34642319Y-59019047D01*
X34642319Y-59019047D02*
X34594700Y-59114285D01*
X34594700Y-59114285D02*
X34547080Y-59161904D01*
X13459580Y-22566666D02*
X13507200Y-22614285D01*
X13507200Y-22614285D02*
X13554819Y-22757142D01*
X13554819Y-22757142D02*
X13554819Y-22852380D01*
X13554819Y-22852380D02*
X13507200Y-22995237D01*
X13507200Y-22995237D02*
X13411961Y-23090475D01*
X13411961Y-23090475D02*
X13316723Y-23138094D01*
X13316723Y-23138094D02*
X13126247Y-23185713D01*
X13126247Y-23185713D02*
X12983390Y-23185713D01*
X12983390Y-23185713D02*
X12792914Y-23138094D01*
X12792914Y-23138094D02*
X12697676Y-23090475D01*
X12697676Y-23090475D02*
X12602438Y-22995237D01*
X12602438Y-22995237D02*
X12554819Y-22852380D01*
X12554819Y-22852380D02*
X12554819Y-22757142D01*
X12554819Y-22757142D02*
X12602438Y-22614285D01*
X12602438Y-22614285D02*
X12650057Y-22566666D01*
X12554819Y-21661904D02*
X12554819Y-22138094D01*
X12554819Y-22138094D02*
X13031009Y-22185713D01*
X13031009Y-22185713D02*
X12983390Y-22138094D01*
X12983390Y-22138094D02*
X12935771Y-22042856D01*
X12935771Y-22042856D02*
X12935771Y-21804761D01*
X12935771Y-21804761D02*
X12983390Y-21709523D01*
X12983390Y-21709523D02*
X13031009Y-21661904D01*
X13031009Y-21661904D02*
X13126247Y-21614285D01*
X13126247Y-21614285D02*
X13364342Y-21614285D01*
X13364342Y-21614285D02*
X13459580Y-21661904D01*
X13459580Y-21661904D02*
X13507200Y-21709523D01*
X13507200Y-21709523D02*
X13554819Y-21804761D01*
X13554819Y-21804761D02*
X13554819Y-22042856D01*
X13554819Y-22042856D02*
X13507200Y-22138094D01*
X13507200Y-22138094D02*
X13459580Y-22185713D01*
X18559580Y-16646666D02*
X18607200Y-16694285D01*
X18607200Y-16694285D02*
X18654819Y-16837142D01*
X18654819Y-16837142D02*
X18654819Y-16932380D01*
X18654819Y-16932380D02*
X18607200Y-17075237D01*
X18607200Y-17075237D02*
X18511961Y-17170475D01*
X18511961Y-17170475D02*
X18416723Y-17218094D01*
X18416723Y-17218094D02*
X18226247Y-17265713D01*
X18226247Y-17265713D02*
X18083390Y-17265713D01*
X18083390Y-17265713D02*
X17892914Y-17218094D01*
X17892914Y-17218094D02*
X17797676Y-17170475D01*
X17797676Y-17170475D02*
X17702438Y-17075237D01*
X17702438Y-17075237D02*
X17654819Y-16932380D01*
X17654819Y-16932380D02*
X17654819Y-16837142D01*
X17654819Y-16837142D02*
X17702438Y-16694285D01*
X17702438Y-16694285D02*
X17750057Y-16646666D01*
X18654819Y-15694285D02*
X18654819Y-16265713D01*
X18654819Y-15979999D02*
X17654819Y-15979999D01*
X17654819Y-15979999D02*
X17797676Y-16075237D01*
X17797676Y-16075237D02*
X17892914Y-16170475D01*
X17892914Y-16170475D02*
X17940533Y-16265713D01*
X34108333Y-68329819D02*
X33775000Y-67853628D01*
X33536905Y-68329819D02*
X33536905Y-67329819D01*
X33536905Y-67329819D02*
X33917857Y-67329819D01*
X33917857Y-67329819D02*
X34013095Y-67377438D01*
X34013095Y-67377438D02*
X34060714Y-67425057D01*
X34060714Y-67425057D02*
X34108333Y-67520295D01*
X34108333Y-67520295D02*
X34108333Y-67663152D01*
X34108333Y-67663152D02*
X34060714Y-67758390D01*
X34060714Y-67758390D02*
X34013095Y-67806009D01*
X34013095Y-67806009D02*
X33917857Y-67853628D01*
X33917857Y-67853628D02*
X33536905Y-67853628D01*
X34679762Y-67758390D02*
X34584524Y-67710771D01*
X34584524Y-67710771D02*
X34536905Y-67663152D01*
X34536905Y-67663152D02*
X34489286Y-67567914D01*
X34489286Y-67567914D02*
X34489286Y-67520295D01*
X34489286Y-67520295D02*
X34536905Y-67425057D01*
X34536905Y-67425057D02*
X34584524Y-67377438D01*
X34584524Y-67377438D02*
X34679762Y-67329819D01*
X34679762Y-67329819D02*
X34870238Y-67329819D01*
X34870238Y-67329819D02*
X34965476Y-67377438D01*
X34965476Y-67377438D02*
X35013095Y-67425057D01*
X35013095Y-67425057D02*
X35060714Y-67520295D01*
X35060714Y-67520295D02*
X35060714Y-67567914D01*
X35060714Y-67567914D02*
X35013095Y-67663152D01*
X35013095Y-67663152D02*
X34965476Y-67710771D01*
X34965476Y-67710771D02*
X34870238Y-67758390D01*
X34870238Y-67758390D02*
X34679762Y-67758390D01*
X34679762Y-67758390D02*
X34584524Y-67806009D01*
X34584524Y-67806009D02*
X34536905Y-67853628D01*
X34536905Y-67853628D02*
X34489286Y-67948866D01*
X34489286Y-67948866D02*
X34489286Y-68139342D01*
X34489286Y-68139342D02*
X34536905Y-68234580D01*
X34536905Y-68234580D02*
X34584524Y-68282200D01*
X34584524Y-68282200D02*
X34679762Y-68329819D01*
X34679762Y-68329819D02*
X34870238Y-68329819D01*
X34870238Y-68329819D02*
X34965476Y-68282200D01*
X34965476Y-68282200D02*
X35013095Y-68234580D01*
X35013095Y-68234580D02*
X35060714Y-68139342D01*
X35060714Y-68139342D02*
X35060714Y-67948866D01*
X35060714Y-67948866D02*
X35013095Y-67853628D01*
X35013095Y-67853628D02*
X34965476Y-67806009D01*
X34965476Y-67806009D02*
X34870238Y-67758390D01*
X35842319Y-58642857D02*
X35366128Y-58976190D01*
X35842319Y-59214285D02*
X34842319Y-59214285D01*
X34842319Y-59214285D02*
X34842319Y-58833333D01*
X34842319Y-58833333D02*
X34889938Y-58738095D01*
X34889938Y-58738095D02*
X34937557Y-58690476D01*
X34937557Y-58690476D02*
X35032795Y-58642857D01*
X35032795Y-58642857D02*
X35175652Y-58642857D01*
X35175652Y-58642857D02*
X35270890Y-58690476D01*
X35270890Y-58690476D02*
X35318509Y-58738095D01*
X35318509Y-58738095D02*
X35366128Y-58833333D01*
X35366128Y-58833333D02*
X35366128Y-59214285D01*
X35842319Y-57690476D02*
X35842319Y-58261904D01*
X35842319Y-57976190D02*
X34842319Y-57976190D01*
X34842319Y-57976190D02*
X34985176Y-58071428D01*
X34985176Y-58071428D02*
X35080414Y-58166666D01*
X35080414Y-58166666D02*
X35128033Y-58261904D01*
X35175652Y-56833333D02*
X35842319Y-56833333D01*
X34794700Y-57071428D02*
X35508985Y-57309523D01*
X35508985Y-57309523D02*
X35508985Y-56690476D01*
X13743333Y-35454819D02*
X13410000Y-34978628D01*
X13171905Y-35454819D02*
X13171905Y-34454819D01*
X13171905Y-34454819D02*
X13552857Y-34454819D01*
X13552857Y-34454819D02*
X13648095Y-34502438D01*
X13648095Y-34502438D02*
X13695714Y-34550057D01*
X13695714Y-34550057D02*
X13743333Y-34645295D01*
X13743333Y-34645295D02*
X13743333Y-34788152D01*
X13743333Y-34788152D02*
X13695714Y-34883390D01*
X13695714Y-34883390D02*
X13648095Y-34931009D01*
X13648095Y-34931009D02*
X13552857Y-34978628D01*
X13552857Y-34978628D02*
X13171905Y-34978628D01*
X14076667Y-34454819D02*
X14743333Y-34454819D01*
X14743333Y-34454819D02*
X14314762Y-35454819D01*
X35654819Y-53222857D02*
X35178628Y-53556190D01*
X35654819Y-53794285D02*
X34654819Y-53794285D01*
X34654819Y-53794285D02*
X34654819Y-53413333D01*
X34654819Y-53413333D02*
X34702438Y-53318095D01*
X34702438Y-53318095D02*
X34750057Y-53270476D01*
X34750057Y-53270476D02*
X34845295Y-53222857D01*
X34845295Y-53222857D02*
X34988152Y-53222857D01*
X34988152Y-53222857D02*
X35083390Y-53270476D01*
X35083390Y-53270476D02*
X35131009Y-53318095D01*
X35131009Y-53318095D02*
X35178628Y-53413333D01*
X35178628Y-53413333D02*
X35178628Y-53794285D01*
X35654819Y-52270476D02*
X35654819Y-52841904D01*
X35654819Y-52556190D02*
X34654819Y-52556190D01*
X34654819Y-52556190D02*
X34797676Y-52651428D01*
X34797676Y-52651428D02*
X34892914Y-52746666D01*
X34892914Y-52746666D02*
X34940533Y-52841904D01*
X34750057Y-51889523D02*
X34702438Y-51841904D01*
X34702438Y-51841904D02*
X34654819Y-51746666D01*
X34654819Y-51746666D02*
X34654819Y-51508571D01*
X34654819Y-51508571D02*
X34702438Y-51413333D01*
X34702438Y-51413333D02*
X34750057Y-51365714D01*
X34750057Y-51365714D02*
X34845295Y-51318095D01*
X34845295Y-51318095D02*
X34940533Y-51318095D01*
X34940533Y-51318095D02*
X35083390Y-51365714D01*
X35083390Y-51365714D02*
X35654819Y-51937142D01*
X35654819Y-51937142D02*
X35654819Y-51318095D01*
X24323095Y-27127819D02*
X24894523Y-27127819D01*
X24608809Y-28127819D02*
X24608809Y-27127819D01*
X25227857Y-28127819D02*
X25227857Y-27127819D01*
X25227857Y-27127819D02*
X25608809Y-27127819D01*
X25608809Y-27127819D02*
X25704047Y-27175438D01*
X25704047Y-27175438D02*
X25751666Y-27223057D01*
X25751666Y-27223057D02*
X25799285Y-27318295D01*
X25799285Y-27318295D02*
X25799285Y-27461152D01*
X25799285Y-27461152D02*
X25751666Y-27556390D01*
X25751666Y-27556390D02*
X25704047Y-27604009D01*
X25704047Y-27604009D02*
X25608809Y-27651628D01*
X25608809Y-27651628D02*
X25227857Y-27651628D01*
X26751666Y-28127819D02*
X26180238Y-28127819D01*
X26465952Y-28127819D02*
X26465952Y-27127819D01*
X26465952Y-27127819D02*
X26370714Y-27270676D01*
X26370714Y-27270676D02*
X26275476Y-27365914D01*
X26275476Y-27365914D02*
X26180238Y-27413533D01*
X15652819Y-55733333D02*
X16367104Y-55733333D01*
X16367104Y-55733333D02*
X16509961Y-55780952D01*
X16509961Y-55780952D02*
X16605200Y-55876190D01*
X16605200Y-55876190D02*
X16652819Y-56019047D01*
X16652819Y-56019047D02*
X16652819Y-56114285D01*
X15652819Y-54780952D02*
X15652819Y-55257142D01*
X15652819Y-55257142D02*
X16129009Y-55304761D01*
X16129009Y-55304761D02*
X16081390Y-55257142D01*
X16081390Y-55257142D02*
X16033771Y-55161904D01*
X16033771Y-55161904D02*
X16033771Y-54923809D01*
X16033771Y-54923809D02*
X16081390Y-54828571D01*
X16081390Y-54828571D02*
X16129009Y-54780952D01*
X16129009Y-54780952D02*
X16224247Y-54733333D01*
X16224247Y-54733333D02*
X16462342Y-54733333D01*
X16462342Y-54733333D02*
X16557580Y-54780952D01*
X16557580Y-54780952D02*
X16605200Y-54828571D01*
X16605200Y-54828571D02*
X16652819Y-54923809D01*
X16652819Y-54923809D02*
X16652819Y-55161904D01*
X16652819Y-55161904D02*
X16605200Y-55257142D01*
X16605200Y-55257142D02*
X16557580Y-55304761D01*
X27054819Y-52442857D02*
X26578628Y-52776190D01*
X27054819Y-53014285D02*
X26054819Y-53014285D01*
X26054819Y-53014285D02*
X26054819Y-52633333D01*
X26054819Y-52633333D02*
X26102438Y-52538095D01*
X26102438Y-52538095D02*
X26150057Y-52490476D01*
X26150057Y-52490476D02*
X26245295Y-52442857D01*
X26245295Y-52442857D02*
X26388152Y-52442857D01*
X26388152Y-52442857D02*
X26483390Y-52490476D01*
X26483390Y-52490476D02*
X26531009Y-52538095D01*
X26531009Y-52538095D02*
X26578628Y-52633333D01*
X26578628Y-52633333D02*
X26578628Y-53014285D01*
X27054819Y-51490476D02*
X27054819Y-52061904D01*
X27054819Y-51776190D02*
X26054819Y-51776190D01*
X26054819Y-51776190D02*
X26197676Y-51871428D01*
X26197676Y-51871428D02*
X26292914Y-51966666D01*
X26292914Y-51966666D02*
X26340533Y-52061904D01*
X27054819Y-50538095D02*
X27054819Y-51109523D01*
X27054819Y-50823809D02*
X26054819Y-50823809D01*
X26054819Y-50823809D02*
X26197676Y-50919047D01*
X26197676Y-50919047D02*
X26292914Y-51014285D01*
X26292914Y-51014285D02*
X26340533Y-51109523D01*
X15637819Y-64808333D02*
X16352104Y-64808333D01*
X16352104Y-64808333D02*
X16494961Y-64855952D01*
X16494961Y-64855952D02*
X16590200Y-64951190D01*
X16590200Y-64951190D02*
X16637819Y-65094047D01*
X16637819Y-65094047D02*
X16637819Y-65189285D01*
X15637819Y-64427380D02*
X15637819Y-63760714D01*
X15637819Y-63760714D02*
X16637819Y-64189285D01*
X28866666Y-19454819D02*
X28866666Y-20169104D01*
X28866666Y-20169104D02*
X28819047Y-20311961D01*
X28819047Y-20311961D02*
X28723809Y-20407200D01*
X28723809Y-20407200D02*
X28580952Y-20454819D01*
X28580952Y-20454819D02*
X28485714Y-20454819D01*
X29866666Y-20454819D02*
X29295238Y-20454819D01*
X29580952Y-20454819D02*
X29580952Y-19454819D01*
X29580952Y-19454819D02*
X29485714Y-19597676D01*
X29485714Y-19597676D02*
X29390476Y-19692914D01*
X29390476Y-19692914D02*
X29295238Y-19740533D01*
X27190476Y-72656819D02*
X27190476Y-73371104D01*
X27190476Y-73371104D02*
X27142857Y-73513961D01*
X27142857Y-73513961D02*
X27047619Y-73609200D01*
X27047619Y-73609200D02*
X26904762Y-73656819D01*
X26904762Y-73656819D02*
X26809524Y-73656819D01*
X28190476Y-73656819D02*
X27619048Y-73656819D01*
X27904762Y-73656819D02*
X27904762Y-72656819D01*
X27904762Y-72656819D02*
X27809524Y-72799676D01*
X27809524Y-72799676D02*
X27714286Y-72894914D01*
X27714286Y-72894914D02*
X27619048Y-72942533D01*
X28523810Y-72656819D02*
X29142857Y-72656819D01*
X29142857Y-72656819D02*
X28809524Y-73037771D01*
X28809524Y-73037771D02*
X28952381Y-73037771D01*
X28952381Y-73037771D02*
X29047619Y-73085390D01*
X29047619Y-73085390D02*
X29095238Y-73133009D01*
X29095238Y-73133009D02*
X29142857Y-73228247D01*
X29142857Y-73228247D02*
X29142857Y-73466342D01*
X29142857Y-73466342D02*
X29095238Y-73561580D01*
X29095238Y-73561580D02*
X29047619Y-73609200D01*
X29047619Y-73609200D02*
X28952381Y-73656819D01*
X28952381Y-73656819D02*
X28666667Y-73656819D01*
X28666667Y-73656819D02*
X28571429Y-73609200D01*
X28571429Y-73609200D02*
X28523810Y-73561580D01*
X15637819Y-67808333D02*
X16352104Y-67808333D01*
X16352104Y-67808333D02*
X16494961Y-67855952D01*
X16494961Y-67855952D02*
X16590200Y-67951190D01*
X16590200Y-67951190D02*
X16637819Y-68094047D01*
X16637819Y-68094047D02*
X16637819Y-68189285D01*
X16066390Y-67189285D02*
X16018771Y-67284523D01*
X16018771Y-67284523D02*
X15971152Y-67332142D01*
X15971152Y-67332142D02*
X15875914Y-67379761D01*
X15875914Y-67379761D02*
X15828295Y-67379761D01*
X15828295Y-67379761D02*
X15733057Y-67332142D01*
X15733057Y-67332142D02*
X15685438Y-67284523D01*
X15685438Y-67284523D02*
X15637819Y-67189285D01*
X15637819Y-67189285D02*
X15637819Y-66998809D01*
X15637819Y-66998809D02*
X15685438Y-66903571D01*
X15685438Y-66903571D02*
X15733057Y-66855952D01*
X15733057Y-66855952D02*
X15828295Y-66808333D01*
X15828295Y-66808333D02*
X15875914Y-66808333D01*
X15875914Y-66808333D02*
X15971152Y-66855952D01*
X15971152Y-66855952D02*
X16018771Y-66903571D01*
X16018771Y-66903571D02*
X16066390Y-66998809D01*
X16066390Y-66998809D02*
X16066390Y-67189285D01*
X16066390Y-67189285D02*
X16114009Y-67284523D01*
X16114009Y-67284523D02*
X16161628Y-67332142D01*
X16161628Y-67332142D02*
X16256866Y-67379761D01*
X16256866Y-67379761D02*
X16447342Y-67379761D01*
X16447342Y-67379761D02*
X16542580Y-67332142D01*
X16542580Y-67332142D02*
X16590200Y-67284523D01*
X16590200Y-67284523D02*
X16637819Y-67189285D01*
X16637819Y-67189285D02*
X16637819Y-66998809D01*
X16637819Y-66998809D02*
X16590200Y-66903571D01*
X16590200Y-66903571D02*
X16542580Y-66855952D01*
X16542580Y-66855952D02*
X16447342Y-66808333D01*
X16447342Y-66808333D02*
X16256866Y-66808333D01*
X16256866Y-66808333D02*
X16161628Y-66855952D01*
X16161628Y-66855952D02*
X16114009Y-66903571D01*
X16114009Y-66903571D02*
X16066390Y-66998809D01*
D14*
%TO.C,C3*%
X23240000Y-40707836D02*
X23240000Y-40492164D01*
X23960000Y-40707836D02*
X23960000Y-40492164D01*
%TO.C,F1*%
X22002064Y-12890000D02*
X20797936Y-12890000D01*
X22002064Y-14710000D02*
X20797936Y-14710000D01*
%TO.C,J10*%
X20200000Y-75200000D02*
G75*
G02*
X17800000Y-75200000I-1200000J0D01*
G01*
X17800000Y-75200000D02*
G75*
G02*
X20200000Y-75200000I1200000J0D01*
G01*
%TO.C,R4*%
X16556359Y-17620000D02*
X16863641Y-17620000D01*
X16556359Y-18380000D02*
X16863641Y-18380000D01*
%TO.C,C9*%
X23440000Y-45092164D02*
X23440000Y-45307836D01*
X24160000Y-45092164D02*
X24160000Y-45307836D01*
%TO.C,R6*%
X32020000Y-22246359D02*
X32020000Y-22553641D01*
X32780000Y-22246359D02*
X32780000Y-22553641D01*
%TO.C,C7*%
X24640000Y-47692164D02*
X24640000Y-47907836D01*
X25360000Y-47692164D02*
X25360000Y-47907836D01*
D10*
%TO.C,U5*%
X32085000Y-41325000D02*
X32085000Y-41475000D01*
X32085000Y-41325000D02*
X32725000Y-41325000D01*
X32085000Y-44025000D02*
X32725000Y-44025000D01*
X32110000Y-43750000D02*
X32110000Y-43900000D01*
X33645000Y-41325000D02*
X34085000Y-41325000D01*
X33645000Y-44025000D02*
X34285000Y-44025000D01*
X34285000Y-43875000D02*
X34285000Y-44025000D01*
X34645000Y-41325000D02*
X34285000Y-41325000D01*
X34285000Y-40965000D01*
X34645000Y-41325000D01*
G36*
X34645000Y-41325000D02*
G01*
X34285000Y-41325000D01*
X34285000Y-40965000D01*
X34645000Y-41325000D01*
G37*
D14*
%TO.C,J6*%
X15385000Y-61475000D02*
G75*
G02*
X12985000Y-61475000I-1200000J0D01*
G01*
X12985000Y-61475000D02*
G75*
G02*
X15385000Y-61475000I1200000J0D01*
G01*
%TO.C,D5*%
X13240000Y-51000000D02*
X13240000Y-53685000D01*
X13240000Y-53685000D02*
X15160000Y-53685000D01*
X15160000Y-53685000D02*
X15160000Y-51000000D01*
%TO.C,R15*%
X29536359Y-52220000D02*
X29843641Y-52220000D01*
X29536359Y-52980000D02*
X29843641Y-52980000D01*
%TO.C,SW1*%
X32850000Y-69400000D02*
X32850000Y-73800000D01*
X34350000Y-69400000D02*
X34450000Y-69400000D01*
X34350000Y-73800000D02*
X34450000Y-73800000D01*
X35950000Y-73800000D02*
X35950000Y-69400000D01*
%TO.C,R17*%
X29433859Y-58820000D02*
X29741141Y-58820000D01*
X29433859Y-59580000D02*
X29741141Y-59580000D01*
%TO.C,U6*%
X27185000Y-65340000D02*
X24985000Y-65340000D01*
X27185000Y-65340000D02*
X29385000Y-65340000D01*
X27185000Y-70810000D02*
X24985000Y-70810000D01*
X27185000Y-70810000D02*
X29385000Y-70810000D01*
X23325000Y-65800000D02*
X22995000Y-66040000D01*
X22995000Y-65560000D01*
X23325000Y-65800000D01*
G36*
X23325000Y-65800000D02*
G01*
X22995000Y-66040000D01*
X22995000Y-65560000D01*
X23325000Y-65800000D01*
G37*
%TO.C,R1*%
X31005000Y-15521359D02*
X31005000Y-15828641D01*
X31765000Y-15521359D02*
X31765000Y-15828641D01*
%TO.C,R5*%
X33020000Y-22553641D02*
X33020000Y-22246359D01*
X33780000Y-22553641D02*
X33780000Y-22246359D01*
%TO.C,U2*%
X20440000Y-18400000D02*
X20440000Y-17600000D01*
X20440000Y-18400000D02*
X20440000Y-19200000D01*
X23560000Y-18400000D02*
X23560000Y-17600000D01*
X23560000Y-18400000D02*
X23560000Y-19200000D01*
X20490000Y-19700000D02*
X20160000Y-19940000D01*
X20160000Y-19460000D01*
X20490000Y-19700000D01*
G36*
X20490000Y-19700000D02*
G01*
X20160000Y-19940000D01*
X20160000Y-19460000D01*
X20490000Y-19700000D01*
G37*
%TO.C,R18*%
X32353641Y-58820000D02*
X32046359Y-58820000D01*
X32353641Y-59580000D02*
X32046359Y-59580000D01*
%TO.C,C6*%
X23440000Y-43092164D02*
X23440000Y-43307836D01*
X24160000Y-43092164D02*
X24160000Y-43307836D01*
D10*
%TO.C,D1*%
X12960000Y-29000000D02*
G75*
G02*
X12860000Y-29000000I-50000J0D01*
G01*
X12860000Y-29000000D02*
G75*
G02*
X12960000Y-29000000I50000J0D01*
G01*
D14*
%TO.C,R2*%
X32005000Y-15828641D02*
X32005000Y-15521359D01*
X32765000Y-15828641D02*
X32765000Y-15521359D01*
%TO.C,U3*%
X30825000Y-18875000D02*
X30825000Y-18075000D01*
X30825000Y-18875000D02*
X30825000Y-19675000D01*
X33945000Y-18875000D02*
X33945000Y-18075000D01*
X33945000Y-18875000D02*
X33945000Y-19675000D01*
X34225000Y-17815000D02*
X33895000Y-17575000D01*
X34225000Y-17335000D01*
X34225000Y-17815000D01*
G36*
X34225000Y-17815000D02*
G01*
X33895000Y-17575000D01*
X34225000Y-17335000D01*
X34225000Y-17815000D01*
G37*
%TO.C,U1*%
X25780000Y-37240000D02*
X28360000Y-37240000D01*
X28360000Y-38220000D02*
X28360000Y-37240000D01*
X28360000Y-40980000D02*
X28360000Y-41960000D01*
X28360000Y-41960000D02*
X25640000Y-41960000D01*
X25230000Y-37390000D02*
X24990000Y-37060000D01*
X25470000Y-37060000D01*
X25230000Y-37390000D01*
G36*
X25230000Y-37390000D02*
G01*
X24990000Y-37060000D01*
X25470000Y-37060000D01*
X25230000Y-37390000D01*
G37*
%TO.C,D4*%
X15440000Y-50315000D02*
X15440000Y-53000000D01*
X17360000Y-50315000D02*
X15440000Y-50315000D01*
X17360000Y-53000000D02*
X17360000Y-50315000D01*
%TO.C,Q2*%
X27502500Y-50062500D02*
X27502500Y-49412500D01*
X27502500Y-50062500D02*
X27502500Y-50712500D01*
X30622500Y-50062500D02*
X30622500Y-49412500D01*
X30622500Y-50062500D02*
X30622500Y-50712500D01*
X30902500Y-49140000D02*
X30572500Y-48900000D01*
X30902500Y-48660000D01*
X30902500Y-49140000D01*
G36*
X30902500Y-49140000D02*
G01*
X30572500Y-48900000D01*
X30902500Y-48660000D01*
X30902500Y-49140000D01*
G37*
%TO.C,L1*%
X20075000Y-22088748D02*
X20075000Y-24861252D01*
X23495000Y-22088748D02*
X23495000Y-24861252D01*
%TO.C,R13*%
X26207500Y-55356359D02*
X26207500Y-55663641D01*
X26967500Y-55356359D02*
X26967500Y-55663641D01*
%TO.C,R3*%
X14646359Y-17620000D02*
X14953641Y-17620000D01*
X14646359Y-18380000D02*
X14953641Y-18380000D01*
%TO.C,R16*%
X32353641Y-52220000D02*
X32046359Y-52220000D01*
X32353641Y-52980000D02*
X32046359Y-52980000D01*
%TO.C,C10*%
X30477164Y-41315000D02*
X30692836Y-41315000D01*
X30477164Y-42035000D02*
X30692836Y-42035000D01*
%TO.C,J12*%
X26200000Y-75200000D02*
G75*
G02*
X23800000Y-75200000I-1200000J0D01*
G01*
X23800000Y-75200000D02*
G75*
G02*
X26200000Y-75200000I1200000J0D01*
G01*
%TO.C,J11*%
X23200000Y-75200000D02*
G75*
G02*
X20800000Y-75200000I-1200000J0D01*
G01*
X20800000Y-75200000D02*
G75*
G02*
X23200000Y-75200000I1200000J0D01*
G01*
%TO.C,Q4*%
X27490000Y-56537500D02*
X27490000Y-55887500D01*
X27490000Y-56537500D02*
X27490000Y-57187500D01*
X30610000Y-56537500D02*
X30610000Y-55887500D01*
X30610000Y-56537500D02*
X30610000Y-57187500D01*
X30890000Y-55615000D02*
X30560000Y-55375000D01*
X30890000Y-55135000D01*
X30890000Y-55615000D01*
G36*
X30890000Y-55615000D02*
G01*
X30560000Y-55375000D01*
X30890000Y-55135000D01*
X30890000Y-55615000D01*
G37*
%TO.C,J4*%
X15400000Y-58400000D02*
G75*
G02*
X13000000Y-58400000I-1200000J0D01*
G01*
X13000000Y-58400000D02*
G75*
G02*
X15400000Y-58400000I1200000J0D01*
G01*
%TO.C,R9*%
X32538641Y-65095000D02*
X32231359Y-65095000D01*
X32538641Y-65855000D02*
X32231359Y-65855000D01*
%TO.C,R10*%
X32538641Y-66095000D02*
X32231359Y-66095000D01*
X32538641Y-66855000D02*
X32231359Y-66855000D01*
D10*
%TO.C,D3*%
X12875000Y-33800000D02*
G75*
G02*
X12775000Y-33800000I-50000J0D01*
G01*
X12775000Y-33800000D02*
G75*
G02*
X12875000Y-33800000I50000J0D01*
G01*
%TO.C,D2*%
X12960000Y-31400000D02*
G75*
G02*
X12860000Y-31400000I-50000J0D01*
G01*
X12860000Y-31400000D02*
G75*
G02*
X12960000Y-31400000I50000J0D01*
G01*
D14*
%TO.C,C4*%
X19040000Y-18292164D02*
X19040000Y-18507836D01*
X19760000Y-18292164D02*
X19760000Y-18507836D01*
%TO.C,C8*%
X30692836Y-42440000D02*
X30477164Y-42440000D01*
X30692836Y-43160000D02*
X30477164Y-43160000D01*
%TO.C,J9*%
X15385000Y-70475000D02*
G75*
G02*
X12985000Y-70475000I-1200000J0D01*
G01*
X12985000Y-70475000D02*
G75*
G02*
X15385000Y-70475000I1200000J0D01*
G01*
%TO.C,Q3*%
X31240000Y-50062500D02*
X31240000Y-49412500D01*
X31240000Y-50062500D02*
X31240000Y-50712500D01*
X34360000Y-50062500D02*
X34360000Y-49412500D01*
X34360000Y-50062500D02*
X34360000Y-50712500D01*
X34640000Y-49140000D02*
X34310000Y-48900000D01*
X34640000Y-48660000D01*
X34640000Y-49140000D01*
G36*
X34640000Y-49140000D02*
G01*
X34310000Y-48900000D01*
X34640000Y-48660000D01*
X34640000Y-49140000D01*
G37*
%TO.C,U4*%
X25600000Y-43050000D02*
X25600000Y-43300000D01*
X25600000Y-43050000D02*
X25850000Y-43050000D01*
X25600000Y-46250000D02*
X25600000Y-46000000D01*
X25600000Y-46250000D02*
X25850000Y-46250000D01*
X28800000Y-46250000D02*
X28550000Y-46250000D01*
X28800000Y-46250000D02*
X28800000Y-46000000D01*
X29130000Y-43290000D02*
X28800000Y-43050000D01*
X29130000Y-42810000D01*
X29130000Y-43290000D01*
G36*
X29130000Y-43290000D02*
G01*
X28800000Y-43050000D01*
X29130000Y-42810000D01*
X29130000Y-43290000D01*
G37*
%TO.C,C2*%
X23240000Y-38492164D02*
X23240000Y-38707836D01*
X23960000Y-38492164D02*
X23960000Y-38707836D01*
%TO.C,Q5*%
X31227500Y-56537500D02*
X31227500Y-55887500D01*
X31227500Y-56537500D02*
X31227500Y-57187500D01*
X34347500Y-56537500D02*
X34347500Y-55887500D01*
X34347500Y-56537500D02*
X34347500Y-57187500D01*
X34627500Y-55615000D02*
X34297500Y-55375000D01*
X34627500Y-55135000D01*
X34627500Y-55615000D01*
G36*
X34627500Y-55615000D02*
G01*
X34297500Y-55375000D01*
X34627500Y-55135000D01*
X34627500Y-55615000D01*
G37*
%TO.C,C5*%
X14040000Y-19640000D02*
X15740000Y-19640000D01*
X14040000Y-24095563D02*
X14040000Y-19640000D01*
X15104437Y-25160000D02*
X14040000Y-24095563D01*
X15104437Y-25160000D02*
X15740000Y-25160000D01*
X18495563Y-25160000D02*
X17860000Y-25160000D01*
X18495563Y-25160000D02*
X19560000Y-24095563D01*
X19560000Y-19640000D02*
X17860000Y-19640000D01*
X19560000Y-24095563D02*
X19560000Y-19640000D01*
%TO.C,C1*%
X19040000Y-16292164D02*
X19040000Y-16507836D01*
X19760000Y-16292164D02*
X19760000Y-16507836D01*
%TO.C,R8*%
X32538641Y-67495000D02*
X32231359Y-67495000D01*
X32538641Y-68255000D02*
X32231359Y-68255000D01*
%TO.C,R14*%
X34807500Y-55356359D02*
X34807500Y-55663641D01*
X35567500Y-55356359D02*
X35567500Y-55663641D01*
%TO.C,R7*%
X13756359Y-35820000D02*
X14063641Y-35820000D01*
X13756359Y-36580000D02*
X14063641Y-36580000D01*
%TO.C,R12*%
X34820000Y-49936359D02*
X34820000Y-50243641D01*
X35580000Y-49936359D02*
X35580000Y-50243641D01*
%TO.C,TP1*%
X26785000Y-25675000D02*
G75*
G02*
X24385000Y-25675000I-1200000J0D01*
G01*
X24385000Y-25675000D02*
G75*
G02*
X26785000Y-25675000I1200000J0D01*
G01*
%TO.C,J5*%
X15400000Y-55400000D02*
G75*
G02*
X13000000Y-55400000I-1200000J0D01*
G01*
X13000000Y-55400000D02*
G75*
G02*
X15400000Y-55400000I1200000J0D01*
G01*
%TO.C,R11*%
X26220000Y-50063641D02*
X26220000Y-49756359D01*
X26980000Y-50063641D02*
X26980000Y-49756359D01*
%TO.C,J7*%
X15385000Y-64475000D02*
G75*
G02*
X12985000Y-64475000I-1200000J0D01*
G01*
X12985000Y-64475000D02*
G75*
G02*
X15385000Y-64475000I1200000J0D01*
G01*
%TO.C,J13*%
X29200000Y-75200000D02*
G75*
G02*
X26800000Y-75200000I-1200000J0D01*
G01*
X26800000Y-75200000D02*
G75*
G02*
X29200000Y-75200000I1200000J0D01*
G01*
%TO.C,J8*%
X15385000Y-67475000D02*
G75*
G02*
X12985000Y-67475000I-1200000J0D01*
G01*
X12985000Y-67475000D02*
G75*
G02*
X15385000Y-67475000I1200000J0D01*
G01*
%TD*%
M02*
