%TF.GenerationSoftware,KiCad,Pcbnew,9.0.1*%
%TF.CreationDate,2025-11-12T14:17:17-05:00*%
%TF.ProjectId,Drone-Flight-Controller,44726f6e-652d-4466-9c69-6768742d436f,rev?*%
%TF.SameCoordinates,Original*%
%TF.FileFunction,Copper,L2,Bot*%
%TF.FilePolarity,Positive*%
%FSLAX46Y46*%
G04 Gerber Fmt 4.6, Leading zero omitted, Abs format (unit mm)*
G04 Created by KiCad (PCBNEW 9.0.1) date 2025-11-12 14:17:17*
%MOMM*%
%LPD*%
G01*
G04 APERTURE LIST*
%TA.AperFunction,SMDPad,CuDef*%
%ADD10R,1.000000X1.500000*%
%TD*%
%TA.AperFunction,ComponentPad*%
%ADD11R,1.700000X1.700000*%
%TD*%
%TA.AperFunction,ComponentPad*%
%ADD12C,1.700000*%
%TD*%
%TA.AperFunction,ViaPad*%
%ADD13C,0.600000*%
%TD*%
%TA.AperFunction,Conductor*%
%ADD14C,0.300000*%
%TD*%
%TA.AperFunction,Conductor*%
%ADD15C,0.200000*%
%TD*%
G04 APERTURE END LIST*
D10*
%TO.P,JP2,1,A*%
%TO.N,+5V*%
X33750000Y-19400000D03*
%TO.P,JP2,2,B*%
X35050000Y-19400000D03*
%TD*%
%TO.P,JP1,1,A*%
%TO.N,+5V*%
X35050000Y-16800000D03*
%TO.P,JP1,2,B*%
X33750000Y-16800000D03*
%TD*%
D11*
%TO.P,J3,1,3V3*%
%TO.N,+3.3V*%
X37925000Y-20475000D03*
D12*
%TO.P,J3,2,5V*%
%TO.N,+5V*%
X40465000Y-20475000D03*
%TO.P,J3,3,SDA_I2C1/GPIO02*%
%TO.N,I2C_SDA*%
X37925000Y-23015000D03*
%TO.P,J3,4,5V*%
%TO.N,+5V*%
X40465000Y-23015000D03*
%TO.P,J3,5,SCL_I2C1/GPIO03*%
%TO.N,I2C_SCL*%
X37925000Y-25555000D03*
%TO.P,J3,6,GND*%
%TO.N,GND*%
X40465000Y-25555000D03*
%TO.P,J3,7,GPCLK0/GPIO04*%
%TO.N,LED_STATUS*%
X37925000Y-28095000D03*
%TO.P,J3,8,GPIO14/UART_TXD*%
%TO.N,unconnected-(J3-GPIO14{slash}UART_TXD-Pad8)*%
X40465000Y-28095000D03*
%TO.P,J3,9,GND*%
%TO.N,GND*%
X37925000Y-30635000D03*
%TO.P,J3,10,GPIO15/UART_RXD*%
%TO.N,unconnected-(J3-GPIO15{slash}UART_RXD-Pad10)*%
X40465000Y-30635000D03*
%TO.P,J3,11,GPIO17/SPI1_~{CE1}*%
%TO.N,unconnected-(J3-GPIO17{slash}SPI1_~{CE1}-Pad11)*%
X37925000Y-33175000D03*
%TO.P,J3,12,GPIO18/SPI1_~{CE0}/PCM_CLK/PWM0*%
%TO.N,IMU_CS_HV*%
X40465000Y-33175000D03*
%TO.P,J3,13,GPIO27/SDIO_DAT3*%
%TO.N,unconnected-(J3-GPIO27{slash}SDIO_DAT3-Pad13)*%
X37925000Y-35715000D03*
%TO.P,J3,14,GND*%
%TO.N,GND*%
X40465000Y-35715000D03*
%TO.P,J3,15,GPIO22/SDIO_CLK*%
%TO.N,SWITCHED_HC_0*%
X37925000Y-38255000D03*
%TO.P,J3,16,GPIO23/SDIO_CMD*%
%TO.N,SWITCHED_HC_1*%
X40465000Y-38255000D03*
%TO.P,J3,17,3V3*%
%TO.N,+3.3V*%
X37925000Y-40795000D03*
%TO.P,J3,18,GPIO24/SDIO_DAT0*%
%TO.N,SWITCHED_HC_2*%
X40465000Y-40795000D03*
%TO.P,J3,19,MOSI_SPI0/GPIO10*%
%TO.N,BAROMETER_SDI*%
X37925000Y-43335000D03*
%TO.P,J3,20,GND*%
%TO.N,GND*%
X40465000Y-43335000D03*
%TO.P,J3,21,MISO_SPI0/GPIO09*%
%TO.N,BAROMETER_SDO*%
X37925000Y-45875000D03*
%TO.P,J3,22,GPIO25/SDIO_DAT1*%
%TO.N,unconnected-(J3-GPIO25{slash}SDIO_DAT1-Pad22)*%
X40465000Y-45875000D03*
%TO.P,J3,23,SCLK_SPI0/GPIO11*%
%TO.N,BAROMETER_SCK*%
X37925000Y-48415000D03*
%TO.P,J3,24,~{CE0}_SPI0/GPIO08*%
%TO.N,BAROMETER_CSB*%
X40465000Y-48415000D03*
%TO.P,J3,25,GND*%
%TO.N,GND*%
X37925000Y-50955000D03*
%TO.P,J3,26,~{CE1}_SPI0/GPIO07*%
%TO.N,unconnected-(J3-~{CE1}_SPI0{slash}GPIO07-Pad26)*%
X40465000Y-50955000D03*
%TO.P,J3,27,ID_SD_I2C0/GPIO00*%
%TO.N,BAROMETER_CSB*%
X37925000Y-53495000D03*
%TO.P,J3,28,ID_SC_I2C0/GPIO01*%
%TO.N,IMU_ADDR*%
X40465000Y-53495000D03*
%TO.P,J3,29,GPCLK1/GPIO05*%
%TO.N,PWM_RESET*%
X37925000Y-56035000D03*
%TO.P,J3,30,GND*%
%TO.N,GND*%
X40465000Y-56035000D03*
%TO.P,J3,31,GPCLK2/GPIO06*%
%TO.N,Net-(J3-GPCLK2{slash}GPIO06)*%
X37925000Y-58575000D03*
%TO.P,J3,32,GPIO12/PWM0*%
%TO.N,unconnected-(J3-GPIO12{slash}PWM0-Pad32)*%
X40465000Y-58575000D03*
%TO.P,J3,33,GPIO13/PWM1*%
%TO.N,unconnected-(J3-GPIO13{slash}PWM1-Pad33)*%
X37925000Y-61115000D03*
%TO.P,J3,34,GND*%
%TO.N,GND*%
X40465000Y-61115000D03*
%TO.P,J3,35,GPIO19/SPI1_MISO/PCM_FS*%
%TO.N,IMU_SDO_HV*%
X37925000Y-63655000D03*
%TO.P,J3,36,GPIO16/SPI1_~{CE2}*%
%TO.N,unconnected-(J3-GPIO16{slash}SPI1_~{CE2}-Pad36)*%
X40465000Y-63655000D03*
%TO.P,J3,37,GPIO26/SDIO_DAT2*%
%TO.N,unconnected-(J3-GPIO26{slash}SDIO_DAT2-Pad37)*%
X37925000Y-66195000D03*
%TO.P,J3,38,GPIO20/SPI1_MOSI/PCM_DIN/PWM1*%
%TO.N,IMU_SDI_HV*%
X40465000Y-66195000D03*
%TO.P,J3,39,GND*%
%TO.N,GND*%
X37925000Y-68735000D03*
%TO.P,J3,40,GPIO21/SPI1_SCLK/PCM_DOUT*%
%TO.N,IMU_SCL_HV*%
X40465000Y-68735000D03*
%TD*%
D13*
%TO.N,GND*%
X20400000Y-19200000D03*
%TO.N,+5V*%
X15000000Y-25300000D03*
X18600000Y-25300000D03*
X21700000Y-27000000D03*
X17600000Y-27000000D03*
%TO.N,GND*%
X20400000Y-20000000D03*
X29400000Y-46950000D03*
X22800000Y-37400000D03*
X18400000Y-20200000D03*
X23975735Y-46424265D03*
X31800000Y-41000000D03*
X33800000Y-14000000D03*
X24400000Y-49000000D03*
X29600000Y-41000000D03*
X33800000Y-13200000D03*
X22800000Y-41800000D03*
X33800000Y-14800000D03*
X29200000Y-15800000D03*
X15200000Y-21400000D03*
X18400000Y-21400000D03*
X15200000Y-20200000D03*
%TO.N,+3.3V*%
X33400000Y-23675000D03*
X30200000Y-51600000D03*
X15200000Y-29000000D03*
X30000000Y-47600000D03*
X30200000Y-57800000D03*
X32585000Y-23675000D03*
%TO.N,+5V*%
X23600000Y-27400000D03*
X15600000Y-27400000D03*
X19600000Y-27400000D03*
X25600000Y-27400000D03*
%TO.N,I2C_SDA*%
X28585000Y-66475000D03*
%TO.N,I2C_SCL*%
X31445000Y-22845000D03*
X34600000Y-24325000D03*
X28785000Y-67325000D03*
%TO.N,+12V*%
X31400000Y-14400000D03*
X23600000Y-19400000D03*
%TO.N,BAROMETER_SDO*%
X32400000Y-44600000D03*
%TO.N,LED_STATUS*%
X15200000Y-31400000D03*
%TO.N,IMU_SDO_HV*%
X32400000Y-63800000D03*
%TO.N,IMU_CS_HV*%
X33595380Y-45004620D03*
%TO.N,IMU_SDI_HV*%
X33600000Y-52600000D03*
%TO.N,IMU_SCL_HV*%
X30600000Y-63200000D03*
%TO.N,+1V8*%
X25800000Y-50000000D03*
X25000000Y-46600000D03*
X24810000Y-42800000D03*
%TO.N,Net-(U2-FB)*%
X22750000Y-16200000D03*
X15400000Y-19000000D03*
%TO.N,IMU_SDO_LV*%
X24625225Y-44273752D03*
X27400000Y-48800000D03*
%TO.N,IMU_SDI_LV*%
X32800000Y-48600000D03*
X29400000Y-42200000D03*
%TO.N,IMU_SCL_LV*%
X27400000Y-55200000D03*
X29800973Y-43849500D03*
%TO.N,IMU_CS_LV*%
X30150000Y-45600000D03*
X32800000Y-55600000D03*
%TD*%
D14*
%TO.N,+12V*%
X23600000Y-19400000D02*
X28099370Y-19400000D01*
X28099370Y-19400000D02*
X31400000Y-16099370D01*
X31400000Y-16099370D02*
X31400000Y-14400000D01*
%TO.N,+3.3V*%
X33400000Y-23675000D02*
X32585000Y-23675000D01*
X33400000Y-23675000D02*
X35300000Y-23675000D01*
X35300000Y-23675000D02*
X35375000Y-23600000D01*
X35375000Y-24470654D02*
X35375000Y-23025000D01*
D15*
X30200000Y-51600000D02*
X30200000Y-47800000D01*
X30200000Y-47800000D02*
X30000000Y-47600000D01*
D14*
X33400000Y-23675000D02*
X33475000Y-23675000D01*
X27400000Y-29000000D02*
X31400000Y-25000000D01*
X15200000Y-29000000D02*
X27400000Y-29000000D01*
D15*
X30200000Y-51600000D02*
X30200000Y-57800000D01*
D14*
X35375000Y-23025000D02*
X37925000Y-20475000D01*
X31400000Y-25000000D02*
X34845654Y-25000000D01*
X34845654Y-25000000D02*
X35375000Y-24470654D01*
%TO.N,I2C_SCL*%
X31445000Y-23045000D02*
X31934000Y-23534000D01*
X32854654Y-24326000D02*
X32855654Y-24325000D01*
X32315346Y-24326000D02*
X32854654Y-24326000D01*
X31445000Y-22845000D02*
X31445000Y-23045000D01*
X33130346Y-24326000D02*
X33669654Y-24326000D01*
X32855654Y-24325000D02*
X33129346Y-24325000D01*
X33129346Y-24325000D02*
X33130346Y-24326000D01*
X31934000Y-23534000D02*
X31934000Y-23944654D01*
X33670654Y-24325000D02*
X34600000Y-24325000D01*
X33669654Y-24326000D02*
X33670654Y-24325000D01*
X31934000Y-23944654D02*
X32315346Y-24326000D01*
%TO.N,BAROMETER_SDO*%
X32400000Y-45400000D02*
X32400000Y-44600000D01*
X32875000Y-45875000D02*
X32400000Y-45400000D01*
X37925000Y-45875000D02*
X32875000Y-45875000D01*
%TO.N,BAROMETER_SCK*%
X37755000Y-48875000D02*
X37860000Y-48980000D01*
%TO.N,LED_STATUS*%
X15200000Y-31400000D02*
X34620000Y-31400000D01*
X34620000Y-31400000D02*
X37925000Y-28095000D01*
D15*
%TO.N,IMU_SDO_HV*%
X32545000Y-63655000D02*
X37925000Y-63655000D01*
X32400000Y-63800000D02*
X32545000Y-63655000D01*
%TO.N,IMU_CS_HV*%
X39314000Y-34326000D02*
X40465000Y-33175000D01*
X33595380Y-38404620D02*
X37674000Y-34326000D01*
X33595380Y-45004620D02*
X33595380Y-38404620D01*
X37674000Y-34326000D02*
X39314000Y-34326000D01*
%TO.N,IMU_SDI_HV*%
X39314000Y-65044000D02*
X39314000Y-55796240D01*
X38163760Y-54646000D02*
X35646000Y-54646000D01*
X39314000Y-55796240D02*
X38163760Y-54646000D01*
X40465000Y-66195000D02*
X39314000Y-65044000D01*
X35646000Y-54646000D02*
X33600000Y-52600000D01*
%TO.N,IMU_SCL_HV*%
X34746000Y-67346000D02*
X39076000Y-67346000D01*
X39076000Y-67346000D02*
X40465000Y-68735000D01*
X30600000Y-63200000D02*
X34746000Y-67346000D01*
%TO.N,+1V8*%
X24000000Y-45600000D02*
X25000000Y-46600000D01*
X25800000Y-47400000D02*
X25800000Y-50000000D01*
X25000000Y-46600000D02*
X25800000Y-47400000D01*
X24000000Y-43610000D02*
X24000000Y-45600000D01*
X24810000Y-42800000D02*
X24000000Y-43610000D01*
D14*
%TO.N,Net-(U2-FB)*%
X22750000Y-16200000D02*
X22550000Y-16000000D01*
X22550000Y-16000000D02*
X18400000Y-16000000D01*
X18400000Y-16000000D02*
X15400000Y-19000000D01*
D15*
%TO.N,IMU_SDO_LV*%
X27400000Y-48150057D02*
X27400000Y-48800000D01*
X24800000Y-44610608D02*
X24800000Y-45550057D01*
X24800000Y-45550057D02*
X27400000Y-48150057D01*
X24625225Y-44273752D02*
X24625225Y-44435833D01*
X24625225Y-44435833D02*
X24800000Y-44610608D01*
%TO.N,IMU_SDI_LV*%
X29400000Y-42850206D02*
X29699943Y-43150149D01*
X29400000Y-42200000D02*
X29400000Y-42850206D01*
X30600000Y-43800000D02*
X30600000Y-45200000D01*
X30600000Y-45200000D02*
X32800000Y-47400000D01*
X29950149Y-43150149D02*
X30600000Y-43800000D01*
X32800000Y-47400000D02*
X32800000Y-48600000D01*
X29699943Y-43150149D02*
X29950149Y-43150149D01*
%TO.N,IMU_SCL_LV*%
X28799000Y-45800984D02*
X28799000Y-53801000D01*
X30075735Y-44124262D02*
X30075735Y-44524249D01*
X28799000Y-53801000D02*
X27400000Y-55200000D01*
X29800973Y-43849500D02*
X30075735Y-44124262D01*
X30075735Y-44524249D02*
X28799000Y-45800984D01*
%TO.N,IMU_CS_LV*%
X32200000Y-48350057D02*
X32199000Y-48351057D01*
X30150000Y-45600000D02*
X30432900Y-45600000D01*
X32200000Y-47367100D02*
X32200000Y-48350057D01*
X32200000Y-48849943D02*
X32200000Y-48901470D01*
X32199000Y-48848943D02*
X32200000Y-48849943D01*
X32800000Y-49501470D02*
X32800000Y-55600000D01*
X30432900Y-45600000D02*
X32200000Y-47367100D01*
X32200000Y-48901470D02*
X32800000Y-49501470D01*
X32199000Y-48351057D02*
X32199000Y-48848943D01*
%TD*%
%TA.AperFunction,Conductor*%
%TO.N,+5V*%
G36*
X34143039Y-15819685D02*
G01*
X34188794Y-15872489D01*
X34200000Y-15924000D01*
X34200000Y-20076000D01*
X34180315Y-20143039D01*
X34127511Y-20188794D01*
X34076000Y-20200000D01*
X33399999Y-20200000D01*
X31191378Y-22408620D01*
X31165700Y-22428324D01*
X31137691Y-22444496D01*
X31137682Y-22444502D01*
X31044502Y-22537682D01*
X31044496Y-22537691D01*
X31028324Y-22565700D01*
X31008620Y-22591378D01*
X25836319Y-27763681D01*
X25774996Y-27797166D01*
X25748638Y-27800000D01*
X14324000Y-27800000D01*
X14256961Y-27780315D01*
X14211206Y-27727511D01*
X14200000Y-27676000D01*
X14200000Y-22724000D01*
X14219685Y-22656961D01*
X14272489Y-22611206D01*
X14324000Y-22600000D01*
X19661000Y-22600000D01*
X19728039Y-22619685D01*
X19773794Y-22672489D01*
X19785000Y-22724000D01*
X19785000Y-24875000D01*
X23785000Y-24875000D01*
X23785000Y-23655161D01*
X23804685Y-23588122D01*
X23825967Y-23563066D01*
X28000000Y-19800000D01*
X28013181Y-19786819D01*
X28073536Y-19753548D01*
X28087027Y-19750500D01*
X28145514Y-19750500D01*
X28234658Y-19726614D01*
X28245282Y-19720480D01*
X28314582Y-19680470D01*
X31680470Y-16314582D01*
X31726614Y-16234658D01*
X31750500Y-16145514D01*
X31750500Y-16100862D01*
X31770185Y-16033823D01*
X31786819Y-16013181D01*
X31963681Y-15836319D01*
X32025004Y-15802834D01*
X32051362Y-15800000D01*
X34076000Y-15800000D01*
X34143039Y-15819685D01*
G37*
%TD.AperFunction*%
%TD*%
%TA.AperFunction,Conductor*%
%TO.N,+5V*%
G36*
X41543039Y-12819685D02*
G01*
X41588794Y-12872489D01*
X41600000Y-12924000D01*
X41600000Y-24476000D01*
X41580315Y-24543039D01*
X41527511Y-24588794D01*
X41476000Y-24600000D01*
X40929180Y-24600000D01*
X40881727Y-24590561D01*
X40771420Y-24544870D01*
X40771412Y-24544868D01*
X40568469Y-24504500D01*
X40568465Y-24504500D01*
X40361535Y-24504500D01*
X40361530Y-24504500D01*
X40158587Y-24544868D01*
X40158579Y-24544870D01*
X40048273Y-24590561D01*
X40000820Y-24600000D01*
X39324000Y-24600000D01*
X39256961Y-24580315D01*
X39211206Y-24527511D01*
X39200000Y-24476000D01*
X39200000Y-20200000D01*
X39099500Y-20200000D01*
X39032461Y-20180315D01*
X38986706Y-20127511D01*
X38975500Y-20076000D01*
X38975500Y-19605249D01*
X38975499Y-19605247D01*
X38963868Y-19546770D01*
X38963867Y-19546769D01*
X38919552Y-19480447D01*
X38853230Y-19436132D01*
X38853229Y-19436131D01*
X38794752Y-19424500D01*
X38794748Y-19424500D01*
X37055252Y-19424500D01*
X37055247Y-19424500D01*
X36996770Y-19436131D01*
X36996769Y-19436132D01*
X36930447Y-19480447D01*
X36886132Y-19546769D01*
X36886131Y-19546770D01*
X36874500Y-19605247D01*
X36874500Y-20076000D01*
X36854815Y-20143039D01*
X36802011Y-20188794D01*
X36750500Y-20200000D01*
X34724000Y-20200000D01*
X34656961Y-20180315D01*
X34611206Y-20127511D01*
X34600000Y-20076000D01*
X34600000Y-15475441D01*
X36899500Y-15475441D01*
X36899500Y-15724558D01*
X36899501Y-15724575D01*
X36932017Y-15971561D01*
X36996498Y-16212207D01*
X37091830Y-16442361D01*
X37091837Y-16442376D01*
X37216400Y-16658126D01*
X37368060Y-16855774D01*
X37368066Y-16855781D01*
X37544218Y-17031933D01*
X37544225Y-17031939D01*
X37741873Y-17183599D01*
X37957623Y-17308162D01*
X37957638Y-17308169D01*
X38056825Y-17349253D01*
X38187793Y-17403502D01*
X38428435Y-17467982D01*
X38675435Y-17500500D01*
X38675442Y-17500500D01*
X38924558Y-17500500D01*
X38924565Y-17500500D01*
X39171565Y-17467982D01*
X39412207Y-17403502D01*
X39642373Y-17308164D01*
X39858127Y-17183599D01*
X40055776Y-17031938D01*
X40231938Y-16855776D01*
X40383599Y-16658127D01*
X40508164Y-16442373D01*
X40603502Y-16212207D01*
X40667982Y-15971565D01*
X40700500Y-15724565D01*
X40700500Y-15475435D01*
X40667982Y-15228435D01*
X40603502Y-14987793D01*
X40508164Y-14757627D01*
X40494585Y-14734108D01*
X40383599Y-14541873D01*
X40231939Y-14344225D01*
X40231933Y-14344218D01*
X40055781Y-14168066D01*
X40055774Y-14168060D01*
X39858126Y-14016400D01*
X39642376Y-13891837D01*
X39642361Y-13891830D01*
X39412207Y-13796498D01*
X39171561Y-13732017D01*
X38924575Y-13699501D01*
X38924570Y-13699500D01*
X38924565Y-13699500D01*
X38675435Y-13699500D01*
X38675429Y-13699500D01*
X38675424Y-13699501D01*
X38428438Y-13732017D01*
X38187792Y-13796498D01*
X37957638Y-13891830D01*
X37957623Y-13891837D01*
X37741873Y-14016400D01*
X37544225Y-14168060D01*
X37544218Y-14168066D01*
X37368066Y-14344218D01*
X37368060Y-14344225D01*
X37216400Y-14541873D01*
X37091837Y-14757623D01*
X37091830Y-14757638D01*
X36996498Y-14987792D01*
X36932017Y-15228438D01*
X36899501Y-15475424D01*
X36899500Y-15475441D01*
X34600000Y-15475441D01*
X34600000Y-12924000D01*
X34619685Y-12856961D01*
X34672489Y-12811206D01*
X34724000Y-12800000D01*
X41476000Y-12800000D01*
X41543039Y-12819685D01*
G37*
%TD.AperFunction*%
%TD*%
%TA.AperFunction,Conductor*%
%TO.N,GND*%
G36*
X34377393Y-12719407D02*
G01*
X34413357Y-12768907D01*
X34414191Y-12827393D01*
X34402826Y-12866095D01*
X34402824Y-12866104D01*
X34394500Y-12924000D01*
X34394500Y-15561969D01*
X34375593Y-15620160D01*
X34326093Y-15656124D01*
X34264907Y-15656124D01*
X34247170Y-15648371D01*
X34200935Y-15622509D01*
X34133904Y-15602826D01*
X34133895Y-15602824D01*
X34087684Y-15596180D01*
X34076000Y-15594500D01*
X32051362Y-15594500D01*
X32051343Y-15594500D01*
X32029405Y-15595677D01*
X32029398Y-15595677D01*
X32029393Y-15595678D01*
X32020894Y-15596591D01*
X32003038Y-15598511D01*
X32003033Y-15598512D01*
X31926519Y-15622470D01*
X31896944Y-15638619D01*
X31836810Y-15649911D01*
X31781523Y-15623701D01*
X31752201Y-15570000D01*
X31750500Y-15551728D01*
X31750500Y-14798321D01*
X31769407Y-14740130D01*
X31779490Y-14728323D01*
X31800500Y-14707314D01*
X31866392Y-14593186D01*
X31900500Y-14465892D01*
X31900500Y-14334108D01*
X31866392Y-14206814D01*
X31866390Y-14206811D01*
X31866390Y-14206809D01*
X31800503Y-14092690D01*
X31800501Y-14092688D01*
X31800500Y-14092686D01*
X31707314Y-13999500D01*
X31707311Y-13999498D01*
X31707309Y-13999496D01*
X31593189Y-13933609D01*
X31593191Y-13933609D01*
X31543799Y-13920375D01*
X31465892Y-13899500D01*
X31334108Y-13899500D01*
X31256200Y-13920375D01*
X31206809Y-13933609D01*
X31092690Y-13999496D01*
X30999496Y-14092690D01*
X30933609Y-14206809D01*
X30933608Y-14206814D01*
X30899500Y-14334108D01*
X30899500Y-14465892D01*
X30919858Y-14541869D01*
X30933609Y-14593190D01*
X30999496Y-14707309D01*
X30999498Y-14707311D01*
X30999500Y-14707314D01*
X31020505Y-14728319D01*
X31048281Y-14782834D01*
X31049500Y-14798321D01*
X31049500Y-15913180D01*
X31030593Y-15971371D01*
X31020504Y-15983184D01*
X27983184Y-19020504D01*
X27928667Y-19048281D01*
X27913180Y-19049500D01*
X23998321Y-19049500D01*
X23940130Y-19030593D01*
X23928323Y-19020509D01*
X23907314Y-18999500D01*
X23907311Y-18999498D01*
X23907309Y-18999496D01*
X23793189Y-18933609D01*
X23793191Y-18933609D01*
X23743799Y-18920375D01*
X23665892Y-18899500D01*
X23534108Y-18899500D01*
X23456200Y-18920375D01*
X23406809Y-18933609D01*
X23292690Y-18999496D01*
X23199496Y-19092690D01*
X23133609Y-19206809D01*
X23133608Y-19206814D01*
X23099500Y-19334108D01*
X23099500Y-19465892D01*
X23108773Y-19500500D01*
X23133609Y-19593190D01*
X23199496Y-19707309D01*
X23199498Y-19707311D01*
X23199500Y-19707314D01*
X23292686Y-19800500D01*
X23292688Y-19800501D01*
X23292690Y-19800503D01*
X23406810Y-19866390D01*
X23406808Y-19866390D01*
X23406812Y-19866391D01*
X23406814Y-19866392D01*
X23534108Y-19900500D01*
X23534110Y-19900500D01*
X23665890Y-19900500D01*
X23665892Y-19900500D01*
X23793186Y-19866392D01*
X23793188Y-19866390D01*
X23793190Y-19866390D01*
X23907309Y-19800503D01*
X23907309Y-19800502D01*
X23907314Y-19800500D01*
X23928319Y-19779494D01*
X23982834Y-19751719D01*
X23998321Y-19750500D01*
X27490342Y-19750500D01*
X27548533Y-19769407D01*
X27584497Y-19818907D01*
X27584497Y-19880093D01*
X27556632Y-19923030D01*
X23688357Y-23410442D01*
X23669342Y-23430027D01*
X23669342Y-23430028D01*
X23648058Y-23455086D01*
X23648055Y-23455089D01*
X23607513Y-23530216D01*
X23607506Y-23530233D01*
X23587826Y-23597256D01*
X23587824Y-23597265D01*
X23579500Y-23655161D01*
X23579500Y-24570500D01*
X23560593Y-24628691D01*
X23511093Y-24664655D01*
X23480500Y-24669500D01*
X20089500Y-24669500D01*
X20031309Y-24650593D01*
X19995345Y-24601093D01*
X19990500Y-24570500D01*
X19990500Y-22724005D01*
X19990500Y-22724000D01*
X19985803Y-22680316D01*
X19974597Y-22628805D01*
X19972110Y-22618627D01*
X19929100Y-22537915D01*
X19883345Y-22485111D01*
X19865754Y-22467157D01*
X19865753Y-22467156D01*
X19865752Y-22467155D01*
X19865750Y-22467153D01*
X19785941Y-22422511D01*
X19785937Y-22422509D01*
X19718904Y-22402826D01*
X19718895Y-22402824D01*
X19672684Y-22396180D01*
X19661000Y-22394500D01*
X14324000Y-22394500D01*
X14292797Y-22397855D01*
X14280314Y-22399197D01*
X14228800Y-22410404D01*
X14218628Y-22412889D01*
X14137914Y-22455900D01*
X14085113Y-22501653D01*
X14085098Y-22501667D01*
X14067155Y-22519247D01*
X14067153Y-22519249D01*
X14022511Y-22599058D01*
X14022509Y-22599062D01*
X14002826Y-22666095D01*
X14002824Y-22666104D01*
X14000781Y-22680314D01*
X13994500Y-22724000D01*
X13994500Y-27676000D01*
X13998526Y-27713443D01*
X13999197Y-27719685D01*
X14010404Y-27771199D01*
X14012889Y-27781371D01*
X14012889Y-27781372D01*
X14012890Y-27781373D01*
X14055900Y-27862085D01*
X14101655Y-27914889D01*
X14101667Y-27914901D01*
X14119247Y-27932844D01*
X14119249Y-27932846D01*
X14199058Y-27977488D01*
X14199062Y-27977490D01*
X14266095Y-27997173D01*
X14266102Y-27997175D01*
X14324000Y-28005500D01*
X14324001Y-28005500D01*
X25748620Y-28005500D01*
X25748638Y-28005500D01*
X25770607Y-28004322D01*
X25796965Y-28001488D01*
X25873482Y-27977529D01*
X25934805Y-27944044D01*
X25981629Y-27908991D01*
X30841195Y-23049421D01*
X30895710Y-23021646D01*
X30956142Y-23031217D01*
X30996933Y-23069927D01*
X31044496Y-23152309D01*
X31044498Y-23152311D01*
X31044500Y-23152314D01*
X31137686Y-23245500D01*
X31155103Y-23255555D01*
X31175605Y-23271287D01*
X31554503Y-23650184D01*
X31582281Y-23704701D01*
X31583500Y-23720188D01*
X31583500Y-23990797D01*
X31597897Y-24044530D01*
X31601843Y-24059255D01*
X31607386Y-24079942D01*
X31653530Y-24159866D01*
X31974162Y-24480498D01*
X32001938Y-24535013D01*
X31992367Y-24595445D01*
X31949102Y-24638710D01*
X31904157Y-24649500D01*
X31353856Y-24649500D01*
X31279215Y-24669500D01*
X31279214Y-24669499D01*
X31264711Y-24673386D01*
X31184790Y-24719529D01*
X27283814Y-28620504D01*
X27229297Y-28648281D01*
X27213810Y-28649500D01*
X15598321Y-28649500D01*
X15540130Y-28630593D01*
X15528323Y-28620509D01*
X15507314Y-28599500D01*
X15507311Y-28599498D01*
X15507309Y-28599496D01*
X15393189Y-28533609D01*
X15393191Y-28533609D01*
X15343799Y-28520375D01*
X15265892Y-28499500D01*
X15134108Y-28499500D01*
X15056200Y-28520375D01*
X15006809Y-28533609D01*
X14892690Y-28599496D01*
X14799496Y-28692690D01*
X14733609Y-28806809D01*
X14733608Y-28806814D01*
X14699500Y-28934108D01*
X14699500Y-29065892D01*
X14720831Y-29145500D01*
X14733609Y-29193190D01*
X14799496Y-29307309D01*
X14799498Y-29307311D01*
X14799500Y-29307314D01*
X14892686Y-29400500D01*
X14892688Y-29400501D01*
X14892690Y-29400503D01*
X15006810Y-29466390D01*
X15006808Y-29466390D01*
X15006812Y-29466391D01*
X15006814Y-29466392D01*
X15134108Y-29500500D01*
X15134110Y-29500500D01*
X15265890Y-29500500D01*
X15265892Y-29500500D01*
X15393186Y-29466392D01*
X15393188Y-29466390D01*
X15393190Y-29466390D01*
X15507309Y-29400503D01*
X15507309Y-29400502D01*
X15507314Y-29400500D01*
X15528319Y-29379494D01*
X15582834Y-29351719D01*
X15598321Y-29350500D01*
X27446142Y-29350500D01*
X27446144Y-29350500D01*
X27535288Y-29326614D01*
X27545912Y-29320480D01*
X27615212Y-29280470D01*
X31444148Y-25451532D01*
X36874500Y-25451532D01*
X36874500Y-25658467D01*
X36914869Y-25861418D01*
X36994058Y-26052597D01*
X36994059Y-26052598D01*
X37109023Y-26224655D01*
X37255345Y-26370977D01*
X37427402Y-26485941D01*
X37618580Y-26565130D01*
X37821535Y-26605500D01*
X37821536Y-26605500D01*
X38028464Y-26605500D01*
X38028465Y-26605500D01*
X38231420Y-26565130D01*
X38422598Y-26485941D01*
X38594655Y-26370977D01*
X38740977Y-26224655D01*
X38855941Y-26052598D01*
X38935130Y-25861420D01*
X38975500Y-25658465D01*
X38975500Y-25451535D01*
X38935130Y-25248580D01*
X38855941Y-25057402D01*
X38740977Y-24885345D01*
X38594655Y-24739023D01*
X38594651Y-24739020D01*
X38422597Y-24624058D01*
X38231418Y-24544869D01*
X38028467Y-24504500D01*
X38028465Y-24504500D01*
X37821535Y-24504500D01*
X37821532Y-24504500D01*
X37618581Y-24544869D01*
X37427402Y-24624058D01*
X37255348Y-24739020D01*
X37109020Y-24885348D01*
X36994058Y-25057402D01*
X36914869Y-25248581D01*
X36874500Y-25451532D01*
X31444148Y-25451532D01*
X31516185Y-25379495D01*
X31570702Y-25351719D01*
X31586189Y-25350500D01*
X34891796Y-25350500D01*
X34891798Y-25350500D01*
X34980942Y-25326614D01*
X35060866Y-25280470D01*
X35655469Y-24685866D01*
X35701614Y-24605942D01*
X35704427Y-24595445D01*
X35711001Y-24570912D01*
X35720619Y-24535013D01*
X35725500Y-24516798D01*
X35725500Y-23211190D01*
X35744407Y-23152999D01*
X35754496Y-23141186D01*
X37341186Y-21554496D01*
X37395703Y-21526719D01*
X37411190Y-21525500D01*
X38794747Y-21525500D01*
X38794748Y-21525500D01*
X38853231Y-21513867D01*
X38853234Y-21513864D01*
X38857615Y-21512051D01*
X38918612Y-21507251D01*
X38970781Y-21539220D01*
X38994195Y-21595748D01*
X38994500Y-21603515D01*
X38994500Y-22398410D01*
X38975593Y-22456601D01*
X38926093Y-22492565D01*
X38864907Y-22492565D01*
X38815407Y-22456601D01*
X38813184Y-22453411D01*
X38740979Y-22345348D01*
X38740977Y-22345345D01*
X38594655Y-22199023D01*
X38422598Y-22084059D01*
X38422599Y-22084059D01*
X38422597Y-22084058D01*
X38231418Y-22004869D01*
X38028467Y-21964500D01*
X38028465Y-21964500D01*
X37821535Y-21964500D01*
X37821532Y-21964500D01*
X37618581Y-22004869D01*
X37427402Y-22084058D01*
X37255348Y-22199020D01*
X37109020Y-22345348D01*
X36994058Y-22517402D01*
X36914869Y-22708581D01*
X36874500Y-22911532D01*
X36874500Y-23118467D01*
X36914869Y-23321418D01*
X36994058Y-23512597D01*
X37085990Y-23650184D01*
X37109023Y-23684655D01*
X37255345Y-23830977D01*
X37427402Y-23945941D01*
X37618580Y-24025130D01*
X37821535Y-24065500D01*
X37821536Y-24065500D01*
X38028464Y-24065500D01*
X38028465Y-24065500D01*
X38231420Y-24025130D01*
X38422598Y-23945941D01*
X38594655Y-23830977D01*
X38740977Y-23684655D01*
X38813185Y-23576587D01*
X38861234Y-23538708D01*
X38922372Y-23536306D01*
X38973246Y-23570298D01*
X38994424Y-23627702D01*
X38994500Y-23631589D01*
X38994500Y-24476000D01*
X38999197Y-24519684D01*
X39010341Y-24570912D01*
X39010404Y-24571199D01*
X39012889Y-24581371D01*
X39012889Y-24581372D01*
X39012890Y-24581373D01*
X39055900Y-24662085D01*
X39101655Y-24714889D01*
X39101667Y-24714901D01*
X39119247Y-24732844D01*
X39119249Y-24732846D01*
X39199058Y-24777488D01*
X39199062Y-24777490D01*
X39248863Y-24792113D01*
X39266102Y-24797175D01*
X39324000Y-24805500D01*
X39324001Y-24805500D01*
X40000818Y-24805500D01*
X40000820Y-24805500D01*
X40040911Y-24801551D01*
X40088364Y-24792112D01*
X40126916Y-24780418D01*
X40209518Y-24746201D01*
X40228082Y-24740569D01*
X40333863Y-24719529D01*
X40372208Y-24711902D01*
X40391521Y-24710000D01*
X40538478Y-24710000D01*
X40557791Y-24711901D01*
X40701920Y-24740571D01*
X40720478Y-24746201D01*
X40803085Y-24780418D01*
X40803095Y-24780421D01*
X40841632Y-24792111D01*
X40841634Y-24792111D01*
X40841636Y-24792112D01*
X40889089Y-24801551D01*
X40929180Y-24805500D01*
X40929182Y-24805500D01*
X41475995Y-24805500D01*
X41476000Y-24805500D01*
X41519684Y-24800803D01*
X41571195Y-24789597D01*
X41571202Y-24789595D01*
X41571217Y-24789592D01*
X41576995Y-24788180D01*
X41638011Y-24792730D01*
X41684699Y-24832276D01*
X41699500Y-24884349D01*
X41699500Y-27911399D01*
X41680593Y-27969590D01*
X41631093Y-28005554D01*
X41569907Y-28005554D01*
X41520407Y-27969590D01*
X41503402Y-27930713D01*
X41475130Y-27788581D01*
X41472144Y-27781373D01*
X41395941Y-27597402D01*
X41280977Y-27425345D01*
X41134655Y-27279023D01*
X40962598Y-27164059D01*
X40962599Y-27164059D01*
X40962597Y-27164058D01*
X40771418Y-27084869D01*
X40568467Y-27044500D01*
X40568465Y-27044500D01*
X40361535Y-27044500D01*
X40361532Y-27044500D01*
X40158581Y-27084869D01*
X39967402Y-27164058D01*
X39795348Y-27279020D01*
X39649020Y-27425348D01*
X39534058Y-27597402D01*
X39454869Y-27788581D01*
X39414500Y-27991532D01*
X39414500Y-28198467D01*
X39454869Y-28401418D01*
X39534058Y-28592597D01*
X39552705Y-28620504D01*
X39649023Y-28764655D01*
X39795345Y-28910977D01*
X39967402Y-29025941D01*
X40158580Y-29105130D01*
X40361535Y-29145500D01*
X40361536Y-29145500D01*
X40568464Y-29145500D01*
X40568465Y-29145500D01*
X40771420Y-29105130D01*
X40962598Y-29025941D01*
X41134655Y-28910977D01*
X41280977Y-28764655D01*
X41395941Y-28592598D01*
X41475130Y-28401420D01*
X41503402Y-28259285D01*
X41533299Y-28205902D01*
X41588864Y-28180286D01*
X41648873Y-28192223D01*
X41690406Y-28237153D01*
X41699500Y-28278600D01*
X41699500Y-30451399D01*
X41680593Y-30509590D01*
X41631093Y-30545554D01*
X41569907Y-30545554D01*
X41520407Y-30509590D01*
X41503402Y-30470713D01*
X41475130Y-30328581D01*
X41395941Y-30137402D01*
X41280979Y-29965348D01*
X41280977Y-29965345D01*
X41134655Y-29819023D01*
X40962598Y-29704059D01*
X40962599Y-29704059D01*
X40962597Y-29704058D01*
X40771418Y-29624869D01*
X40568467Y-29584500D01*
X40568465Y-29584500D01*
X40361535Y-29584500D01*
X40361532Y-29584500D01*
X40158581Y-29624869D01*
X39967402Y-29704058D01*
X39795348Y-29819020D01*
X39649020Y-29965348D01*
X39534058Y-30137402D01*
X39454869Y-30328581D01*
X39414500Y-30531532D01*
X39414500Y-30738467D01*
X39454869Y-30941418D01*
X39534058Y-31132597D01*
X39534059Y-31132598D01*
X39649023Y-31304655D01*
X39795345Y-31450977D01*
X39967402Y-31565941D01*
X40158580Y-31645130D01*
X40361535Y-31685500D01*
X40361536Y-31685500D01*
X40568464Y-31685500D01*
X40568465Y-31685500D01*
X40771420Y-31645130D01*
X40962598Y-31565941D01*
X41134655Y-31450977D01*
X41280977Y-31304655D01*
X41395941Y-31132598D01*
X41475130Y-30941420D01*
X41503402Y-30799285D01*
X41533299Y-30745902D01*
X41588864Y-30720286D01*
X41648873Y-30732223D01*
X41690406Y-30777153D01*
X41699500Y-30818600D01*
X41699500Y-32991399D01*
X41680593Y-33049590D01*
X41631093Y-33085554D01*
X41569907Y-33085554D01*
X41520407Y-33049590D01*
X41503402Y-33010713D01*
X41475130Y-32868581D01*
X41395941Y-32677402D01*
X41280979Y-32505348D01*
X41280977Y-32505345D01*
X41134655Y-32359023D01*
X40962598Y-32244059D01*
X40962599Y-32244059D01*
X40962597Y-32244058D01*
X40771418Y-32164869D01*
X40568467Y-32124500D01*
X40568465Y-32124500D01*
X40361535Y-32124500D01*
X40361532Y-32124500D01*
X40158581Y-32164869D01*
X39967402Y-32244058D01*
X39795348Y-32359020D01*
X39649020Y-32505348D01*
X39534058Y-32677402D01*
X39454869Y-32868581D01*
X39414500Y-33071532D01*
X39414500Y-33278467D01*
X39454869Y-33481418D01*
X39511196Y-33617402D01*
X39515997Y-33678399D01*
X39489736Y-33725291D01*
X39218526Y-33996503D01*
X39164009Y-34024281D01*
X39148522Y-34025500D01*
X38799139Y-34025500D01*
X38740948Y-34006593D01*
X38704984Y-33957093D01*
X38704984Y-33895907D01*
X38729133Y-33856498D01*
X38740977Y-33844655D01*
X38855941Y-33672598D01*
X38935130Y-33481420D01*
X38975500Y-33278465D01*
X38975500Y-33071535D01*
X38935130Y-32868580D01*
X38855941Y-32677402D01*
X38740977Y-32505345D01*
X38594655Y-32359023D01*
X38422598Y-32244059D01*
X38422599Y-32244059D01*
X38422597Y-32244058D01*
X38231418Y-32164869D01*
X38028467Y-32124500D01*
X38028465Y-32124500D01*
X37821535Y-32124500D01*
X37821532Y-32124500D01*
X37618581Y-32164869D01*
X37427402Y-32244058D01*
X37255348Y-32359020D01*
X37109020Y-32505348D01*
X36994058Y-32677402D01*
X36914869Y-32868581D01*
X36874500Y-33071532D01*
X36874500Y-33278467D01*
X36914869Y-33481418D01*
X36994058Y-33672597D01*
X36994059Y-33672598D01*
X37109023Y-33844655D01*
X37255345Y-33990977D01*
X37352087Y-34055618D01*
X37389967Y-34103667D01*
X37392369Y-34164805D01*
X37367090Y-34207937D01*
X33410869Y-38164160D01*
X33410868Y-38164159D01*
X33354919Y-38220109D01*
X33315360Y-38288627D01*
X33315358Y-38288631D01*
X33294880Y-38365055D01*
X33294880Y-44556299D01*
X33275973Y-44614490D01*
X33265889Y-44626296D01*
X33226296Y-44665890D01*
X33194877Y-44697309D01*
X33194876Y-44697310D01*
X33128989Y-44811429D01*
X33114670Y-44864869D01*
X33094880Y-44938728D01*
X33094880Y-45070512D01*
X33124959Y-45182771D01*
X33128989Y-45197810D01*
X33194876Y-45311929D01*
X33194878Y-45311931D01*
X33194880Y-45311934D01*
X33238444Y-45355498D01*
X33248967Y-45376151D01*
X33262594Y-45394907D01*
X33262594Y-45402896D01*
X33266220Y-45410013D01*
X33262594Y-45432907D01*
X33262594Y-45456093D01*
X33257898Y-45462555D01*
X33256649Y-45470445D01*
X33240257Y-45486836D01*
X33226630Y-45505593D01*
X33219032Y-45508061D01*
X33213384Y-45513710D01*
X33168439Y-45524500D01*
X33061190Y-45524500D01*
X33002999Y-45505593D01*
X32991186Y-45495504D01*
X32779496Y-45283814D01*
X32751719Y-45229297D01*
X32750500Y-45213810D01*
X32750500Y-44998321D01*
X32769407Y-44940130D01*
X32779490Y-44928323D01*
X32800500Y-44907314D01*
X32844876Y-44830453D01*
X32866390Y-44793190D01*
X32866390Y-44793188D01*
X32866392Y-44793186D01*
X32900500Y-44665892D01*
X32900500Y-44534108D01*
X32866392Y-44406814D01*
X32866390Y-44406811D01*
X32866390Y-44406809D01*
X32800503Y-44292690D01*
X32800501Y-44292688D01*
X32800500Y-44292686D01*
X32707314Y-44199500D01*
X32707311Y-44199498D01*
X32707309Y-44199496D01*
X32593189Y-44133609D01*
X32593191Y-44133609D01*
X32543799Y-44120375D01*
X32465892Y-44099500D01*
X32334108Y-44099500D01*
X32256200Y-44120375D01*
X32206809Y-44133609D01*
X32092690Y-44199496D01*
X31999496Y-44292690D01*
X31933609Y-44406809D01*
X31933608Y-44406814D01*
X31899500Y-44534108D01*
X31899500Y-44665892D01*
X31920064Y-44742637D01*
X31933609Y-44793190D01*
X31999496Y-44907309D01*
X31999498Y-44907311D01*
X31999500Y-44907314D01*
X32020505Y-44928319D01*
X32048281Y-44982834D01*
X32049500Y-44998321D01*
X32049500Y-45446144D01*
X32054120Y-45463386D01*
X32064065Y-45500501D01*
X32073384Y-45535284D01*
X32073385Y-45535287D01*
X32073386Y-45535288D01*
X32119530Y-45615212D01*
X32659787Y-46155469D01*
X32659789Y-46155470D01*
X32659791Y-46155472D01*
X32739708Y-46201612D01*
X32739706Y-46201612D01*
X32739710Y-46201613D01*
X32739712Y-46201614D01*
X32828856Y-46225500D01*
X36866979Y-46225500D01*
X36925170Y-46244407D01*
X36958443Y-46286614D01*
X36994058Y-46372597D01*
X37109020Y-46544651D01*
X37109023Y-46544655D01*
X37255345Y-46690977D01*
X37427402Y-46805941D01*
X37618580Y-46885130D01*
X37821535Y-46925500D01*
X37821536Y-46925500D01*
X38028464Y-46925500D01*
X38028465Y-46925500D01*
X38231420Y-46885130D01*
X38422598Y-46805941D01*
X38594655Y-46690977D01*
X38740977Y-46544655D01*
X38855941Y-46372598D01*
X38935130Y-46181420D01*
X38975500Y-45978465D01*
X38975500Y-45771535D01*
X38935130Y-45568580D01*
X38855941Y-45377402D01*
X38740977Y-45205345D01*
X38594655Y-45059023D01*
X38557985Y-45034521D01*
X38422597Y-44944058D01*
X38231418Y-44864869D01*
X38028467Y-44824500D01*
X38028465Y-44824500D01*
X37821535Y-44824500D01*
X37821532Y-44824500D01*
X37618581Y-44864869D01*
X37427402Y-44944058D01*
X37255348Y-45059020D01*
X37109020Y-45205348D01*
X36994058Y-45377402D01*
X36958443Y-45463386D01*
X36918706Y-45509911D01*
X36866979Y-45524500D01*
X34022321Y-45524500D01*
X33964130Y-45505593D01*
X33928166Y-45456093D01*
X33928166Y-45394907D01*
X33952315Y-45355498D01*
X33995880Y-45311934D01*
X34057418Y-45205348D01*
X34061770Y-45197810D01*
X34061770Y-45197808D01*
X34061772Y-45197806D01*
X34095880Y-45070512D01*
X34095880Y-44938728D01*
X34061772Y-44811434D01*
X34061770Y-44811431D01*
X34061770Y-44811429D01*
X33995883Y-44697310D01*
X33995881Y-44697308D01*
X33995880Y-44697306D01*
X33924874Y-44626300D01*
X33897099Y-44571786D01*
X33895880Y-44556299D01*
X33895880Y-43231532D01*
X36874500Y-43231532D01*
X36874500Y-43438467D01*
X36914869Y-43641418D01*
X36994058Y-43832597D01*
X37083487Y-43966438D01*
X37109023Y-44004655D01*
X37255345Y-44150977D01*
X37427402Y-44265941D01*
X37618580Y-44345130D01*
X37821535Y-44385500D01*
X37821536Y-44385500D01*
X38028464Y-44385500D01*
X38028465Y-44385500D01*
X38231420Y-44345130D01*
X38422598Y-44265941D01*
X38594655Y-44150977D01*
X38740977Y-44004655D01*
X38855941Y-43832598D01*
X38935130Y-43641420D01*
X38975500Y-43438465D01*
X38975500Y-43231535D01*
X38935130Y-43028580D01*
X38855941Y-42837402D01*
X38740977Y-42665345D01*
X38594655Y-42519023D01*
X38594651Y-42519020D01*
X38422597Y-42404058D01*
X38231418Y-42324869D01*
X38028467Y-42284500D01*
X38028465Y-42284500D01*
X37821535Y-42284500D01*
X37821532Y-42284500D01*
X37618581Y-42324869D01*
X37427402Y-42404058D01*
X37255348Y-42519020D01*
X37109020Y-42665348D01*
X36994058Y-42837402D01*
X36944122Y-42957958D01*
X36914870Y-43028580D01*
X36874500Y-43231532D01*
X33895880Y-43231532D01*
X33895880Y-40691532D01*
X36874500Y-40691532D01*
X36874500Y-40898467D01*
X36914869Y-41101418D01*
X36994058Y-41292597D01*
X36994059Y-41292598D01*
X37109023Y-41464655D01*
X37255345Y-41610977D01*
X37427402Y-41725941D01*
X37618580Y-41805130D01*
X37821535Y-41845500D01*
X37821536Y-41845500D01*
X38028464Y-41845500D01*
X38028465Y-41845500D01*
X38231420Y-41805130D01*
X38422598Y-41725941D01*
X38594655Y-41610977D01*
X38740977Y-41464655D01*
X38855941Y-41292598D01*
X38935130Y-41101420D01*
X38975500Y-40898465D01*
X38975500Y-40691535D01*
X38935130Y-40488580D01*
X38855941Y-40297402D01*
X38740977Y-40125345D01*
X38594655Y-39979023D01*
X38422598Y-39864059D01*
X38422599Y-39864059D01*
X38422597Y-39864058D01*
X38231418Y-39784869D01*
X38028467Y-39744500D01*
X38028465Y-39744500D01*
X37821535Y-39744500D01*
X37821532Y-39744500D01*
X37618581Y-39784869D01*
X37427402Y-39864058D01*
X37255348Y-39979020D01*
X37109020Y-40125348D01*
X36994058Y-40297402D01*
X36914869Y-40488581D01*
X36874500Y-40691532D01*
X33895880Y-40691532D01*
X33895880Y-38570098D01*
X33914787Y-38511907D01*
X33924870Y-38500100D01*
X34273438Y-38151532D01*
X36874500Y-38151532D01*
X36874500Y-38358467D01*
X36914869Y-38561418D01*
X36994058Y-38752597D01*
X36994059Y-38752598D01*
X37109023Y-38924655D01*
X37255345Y-39070977D01*
X37427402Y-39185941D01*
X37618580Y-39265130D01*
X37821535Y-39305500D01*
X37821536Y-39305500D01*
X38028464Y-39305500D01*
X38028465Y-39305500D01*
X38231420Y-39265130D01*
X38422598Y-39185941D01*
X38594655Y-39070977D01*
X38740977Y-38924655D01*
X38855941Y-38752598D01*
X38935130Y-38561420D01*
X38975500Y-38358465D01*
X38975500Y-38151535D01*
X38935130Y-37948580D01*
X38855941Y-37757402D01*
X38740977Y-37585345D01*
X38594655Y-37439023D01*
X38422598Y-37324059D01*
X38422599Y-37324059D01*
X38422597Y-37324058D01*
X38231418Y-37244869D01*
X38028467Y-37204500D01*
X38028465Y-37204500D01*
X37821535Y-37204500D01*
X37821532Y-37204500D01*
X37618581Y-37244869D01*
X37427402Y-37324058D01*
X37255348Y-37439020D01*
X37109020Y-37585348D01*
X36994058Y-37757402D01*
X36914869Y-37948581D01*
X36874500Y-38151532D01*
X34273438Y-38151532D01*
X36705496Y-35719473D01*
X36760013Y-35691697D01*
X36820445Y-35701268D01*
X36863710Y-35744533D01*
X36874500Y-35789478D01*
X36874500Y-35818467D01*
X36914869Y-36021418D01*
X36994058Y-36212597D01*
X36994059Y-36212598D01*
X37109023Y-36384655D01*
X37255345Y-36530977D01*
X37427402Y-36645941D01*
X37618580Y-36725130D01*
X37821535Y-36765500D01*
X37821536Y-36765500D01*
X38028464Y-36765500D01*
X38028465Y-36765500D01*
X38231420Y-36725130D01*
X38422598Y-36645941D01*
X38594655Y-36530977D01*
X38740977Y-36384655D01*
X38855941Y-36212598D01*
X38935130Y-36021420D01*
X38975500Y-35818465D01*
X38975500Y-35611535D01*
X38935130Y-35408580D01*
X38855941Y-35217402D01*
X38740977Y-35045345D01*
X38594655Y-34899023D01*
X38458152Y-34807815D01*
X38420273Y-34759766D01*
X38417871Y-34698628D01*
X38451863Y-34647754D01*
X38509267Y-34626576D01*
X38513154Y-34626500D01*
X39353563Y-34626500D01*
X39353563Y-34626499D01*
X39429989Y-34606021D01*
X39498511Y-34566460D01*
X39526485Y-34538485D01*
X39554461Y-34510511D01*
X39839471Y-34225499D01*
X39914708Y-34150261D01*
X39969223Y-34122485D01*
X40022591Y-34128801D01*
X40158580Y-34185130D01*
X40361535Y-34225500D01*
X40361536Y-34225500D01*
X40568464Y-34225500D01*
X40568465Y-34225500D01*
X40771420Y-34185130D01*
X40962598Y-34105941D01*
X41134655Y-33990977D01*
X41280977Y-33844655D01*
X41395941Y-33672598D01*
X41475130Y-33481420D01*
X41503402Y-33339285D01*
X41533299Y-33285902D01*
X41588864Y-33260286D01*
X41648873Y-33272223D01*
X41690406Y-33317153D01*
X41699500Y-33358600D01*
X41699500Y-38071399D01*
X41680593Y-38129590D01*
X41631093Y-38165554D01*
X41569907Y-38165554D01*
X41520407Y-38129590D01*
X41503402Y-38090713D01*
X41475130Y-37948581D01*
X41395941Y-37757402D01*
X41280979Y-37585348D01*
X41280977Y-37585345D01*
X41134655Y-37439023D01*
X40962598Y-37324059D01*
X40962599Y-37324059D01*
X40962597Y-37324058D01*
X40771418Y-37244869D01*
X40568467Y-37204500D01*
X40568465Y-37204500D01*
X40361535Y-37204500D01*
X40361532Y-37204500D01*
X40158581Y-37244869D01*
X39967402Y-37324058D01*
X39795348Y-37439020D01*
X39649020Y-37585348D01*
X39534058Y-37757402D01*
X39454869Y-37948581D01*
X39414500Y-38151532D01*
X39414500Y-38358467D01*
X39454869Y-38561418D01*
X39534058Y-38752597D01*
X39534059Y-38752598D01*
X39649023Y-38924655D01*
X39795345Y-39070977D01*
X39967402Y-39185941D01*
X40158580Y-39265130D01*
X40361535Y-39305500D01*
X40361536Y-39305500D01*
X40568464Y-39305500D01*
X40568465Y-39305500D01*
X40771420Y-39265130D01*
X40962598Y-39185941D01*
X41134655Y-39070977D01*
X41280977Y-38924655D01*
X41395941Y-38752598D01*
X41475130Y-38561420D01*
X41503402Y-38419285D01*
X41533299Y-38365902D01*
X41588864Y-38340286D01*
X41648873Y-38352223D01*
X41690406Y-38397153D01*
X41699500Y-38438600D01*
X41699500Y-40611399D01*
X41680593Y-40669590D01*
X41631093Y-40705554D01*
X41569907Y-40705554D01*
X41520407Y-40669590D01*
X41503402Y-40630713D01*
X41475130Y-40488581D01*
X41395941Y-40297402D01*
X41280979Y-40125348D01*
X41280977Y-40125345D01*
X41134655Y-39979023D01*
X40962598Y-39864059D01*
X40962599Y-39864059D01*
X40962597Y-39864058D01*
X40771418Y-39784869D01*
X40568467Y-39744500D01*
X40568465Y-39744500D01*
X40361535Y-39744500D01*
X40361532Y-39744500D01*
X40158581Y-39784869D01*
X39967402Y-39864058D01*
X39795348Y-39979020D01*
X39649020Y-40125348D01*
X39534058Y-40297402D01*
X39454869Y-40488581D01*
X39414500Y-40691532D01*
X39414500Y-40898467D01*
X39454869Y-41101418D01*
X39534058Y-41292597D01*
X39534059Y-41292598D01*
X39649023Y-41464655D01*
X39795345Y-41610977D01*
X39967402Y-41725941D01*
X40158580Y-41805130D01*
X40361535Y-41845500D01*
X40361536Y-41845500D01*
X40568464Y-41845500D01*
X40568465Y-41845500D01*
X40771420Y-41805130D01*
X40962598Y-41725941D01*
X41134655Y-41610977D01*
X41280977Y-41464655D01*
X41395941Y-41292598D01*
X41475130Y-41101420D01*
X41503402Y-40959285D01*
X41533299Y-40905902D01*
X41588864Y-40880286D01*
X41648873Y-40892223D01*
X41690406Y-40937153D01*
X41699500Y-40978600D01*
X41699500Y-45691399D01*
X41680593Y-45749590D01*
X41631093Y-45785554D01*
X41569907Y-45785554D01*
X41520407Y-45749590D01*
X41503402Y-45710713D01*
X41490364Y-45645167D01*
X41475130Y-45568580D01*
X41395941Y-45377402D01*
X41280977Y-45205345D01*
X41134655Y-45059023D01*
X41097985Y-45034521D01*
X40962597Y-44944058D01*
X40771418Y-44864869D01*
X40568467Y-44824500D01*
X40568465Y-44824500D01*
X40361535Y-44824500D01*
X40361532Y-44824500D01*
X40158581Y-44864869D01*
X39967402Y-44944058D01*
X39795348Y-45059020D01*
X39649020Y-45205348D01*
X39534058Y-45377402D01*
X39454869Y-45568581D01*
X39414500Y-45771532D01*
X39414500Y-45978467D01*
X39454869Y-46181418D01*
X39534058Y-46372597D01*
X39649020Y-46544651D01*
X39649023Y-46544655D01*
X39795345Y-46690977D01*
X39967402Y-46805941D01*
X40158580Y-46885130D01*
X40361535Y-46925500D01*
X40361536Y-46925500D01*
X40568464Y-46925500D01*
X40568465Y-46925500D01*
X40771420Y-46885130D01*
X40962598Y-46805941D01*
X41134655Y-46690977D01*
X41280977Y-46544655D01*
X41395941Y-46372598D01*
X41475130Y-46181420D01*
X41503402Y-46039285D01*
X41533299Y-45985902D01*
X41588864Y-45960286D01*
X41648873Y-45972223D01*
X41690406Y-46017153D01*
X41699500Y-46058600D01*
X41699500Y-48231399D01*
X41680593Y-48289590D01*
X41631093Y-48325554D01*
X41569907Y-48325554D01*
X41520407Y-48289590D01*
X41503402Y-48250713D01*
X41475130Y-48108581D01*
X41473599Y-48104886D01*
X41395941Y-47917402D01*
X41280977Y-47745345D01*
X41134655Y-47599023D01*
X41084453Y-47565479D01*
X40962597Y-47484058D01*
X40771418Y-47404869D01*
X40568467Y-47364500D01*
X40568465Y-47364500D01*
X40361535Y-47364500D01*
X40361532Y-47364500D01*
X40158581Y-47404869D01*
X39967402Y-47484058D01*
X39795348Y-47599020D01*
X39649020Y-47745348D01*
X39534058Y-47917402D01*
X39454869Y-48108581D01*
X39414500Y-48311532D01*
X39414500Y-48518467D01*
X39454869Y-48721418D01*
X39534058Y-48912597D01*
X39649020Y-49084651D01*
X39649023Y-49084655D01*
X39795345Y-49230977D01*
X39967402Y-49345941D01*
X40158580Y-49425130D01*
X40361535Y-49465500D01*
X40361536Y-49465500D01*
X40568464Y-49465500D01*
X40568465Y-49465500D01*
X40771420Y-49425130D01*
X40962598Y-49345941D01*
X41134655Y-49230977D01*
X41280977Y-49084655D01*
X41395941Y-48912598D01*
X41475130Y-48721420D01*
X41503402Y-48579285D01*
X41533299Y-48525902D01*
X41588864Y-48500286D01*
X41648873Y-48512223D01*
X41690406Y-48557153D01*
X41699500Y-48598600D01*
X41699500Y-50771399D01*
X41680593Y-50829590D01*
X41631093Y-50865554D01*
X41569907Y-50865554D01*
X41520407Y-50829590D01*
X41503402Y-50790713D01*
X41475130Y-50648581D01*
X41395941Y-50457402D01*
X41280979Y-50285348D01*
X41280977Y-50285345D01*
X41134655Y-50139023D01*
X40962598Y-50024059D01*
X40962599Y-50024059D01*
X40962597Y-50024058D01*
X40771418Y-49944869D01*
X40568467Y-49904500D01*
X40568465Y-49904500D01*
X40361535Y-49904500D01*
X40361532Y-49904500D01*
X40158581Y-49944869D01*
X39967402Y-50024058D01*
X39795348Y-50139020D01*
X39649020Y-50285348D01*
X39534058Y-50457402D01*
X39454869Y-50648581D01*
X39414500Y-50851532D01*
X39414500Y-51058467D01*
X39454869Y-51261418D01*
X39534058Y-51452597D01*
X39649020Y-51624651D01*
X39649023Y-51624655D01*
X39795345Y-51770977D01*
X39967402Y-51885941D01*
X40158580Y-51965130D01*
X40361535Y-52005500D01*
X40361536Y-52005500D01*
X40568464Y-52005500D01*
X40568465Y-52005500D01*
X40771420Y-51965130D01*
X40962598Y-51885941D01*
X41134655Y-51770977D01*
X41280977Y-51624655D01*
X41395941Y-51452598D01*
X41475130Y-51261420D01*
X41503402Y-51119285D01*
X41533299Y-51065902D01*
X41588864Y-51040286D01*
X41648873Y-51052223D01*
X41690406Y-51097153D01*
X41699500Y-51138600D01*
X41699500Y-53311399D01*
X41680593Y-53369590D01*
X41631093Y-53405554D01*
X41569907Y-53405554D01*
X41520407Y-53369590D01*
X41503402Y-53330713D01*
X41475130Y-53188581D01*
X41395941Y-52997402D01*
X41280979Y-52825348D01*
X41280977Y-52825345D01*
X41134655Y-52679023D01*
X41134651Y-52679020D01*
X40962597Y-52564058D01*
X40771418Y-52484869D01*
X40568467Y-52444500D01*
X40568465Y-52444500D01*
X40361535Y-52444500D01*
X40361532Y-52444500D01*
X40158581Y-52484869D01*
X39967402Y-52564058D01*
X39795348Y-52679020D01*
X39649020Y-52825348D01*
X39534058Y-52997402D01*
X39454869Y-53188581D01*
X39414500Y-53391532D01*
X39414500Y-53598467D01*
X39454869Y-53801418D01*
X39534058Y-53992597D01*
X39534059Y-53992598D01*
X39649023Y-54164655D01*
X39795345Y-54310977D01*
X39967402Y-54425941D01*
X40158580Y-54505130D01*
X40361535Y-54545500D01*
X40361536Y-54545500D01*
X40568464Y-54545500D01*
X40568465Y-54545500D01*
X40771420Y-54505130D01*
X40962598Y-54425941D01*
X41134655Y-54310977D01*
X41280977Y-54164655D01*
X41395941Y-53992598D01*
X41475130Y-53801420D01*
X41503402Y-53659285D01*
X41533299Y-53605902D01*
X41588864Y-53580286D01*
X41648873Y-53592223D01*
X41690406Y-53637153D01*
X41699500Y-53678600D01*
X41699500Y-58391399D01*
X41680593Y-58449590D01*
X41631093Y-58485554D01*
X41569907Y-58485554D01*
X41520407Y-58449590D01*
X41503402Y-58410713D01*
X41475130Y-58268581D01*
X41474223Y-58266392D01*
X41395941Y-58077402D01*
X41280977Y-57905345D01*
X41134655Y-57759023D01*
X41134651Y-57759020D01*
X40962597Y-57644058D01*
X40771418Y-57564869D01*
X40568467Y-57524500D01*
X40568465Y-57524500D01*
X40361535Y-57524500D01*
X40361532Y-57524500D01*
X40158581Y-57564869D01*
X39967402Y-57644058D01*
X39795344Y-57759023D01*
X39783501Y-57770866D01*
X39728984Y-57798642D01*
X39668552Y-57789068D01*
X39625289Y-57745802D01*
X39614500Y-57700860D01*
X39614500Y-55756677D01*
X39614499Y-55756675D01*
X39594021Y-55680251D01*
X39594019Y-55680247D01*
X39554460Y-55611729D01*
X39498511Y-55555779D01*
X39498511Y-55555780D01*
X38475571Y-54532840D01*
X38447794Y-54478323D01*
X38457365Y-54417891D01*
X38490573Y-54380521D01*
X38594655Y-54310977D01*
X38740977Y-54164655D01*
X38855941Y-53992598D01*
X38935130Y-53801420D01*
X38975500Y-53598465D01*
X38975500Y-53391535D01*
X38935130Y-53188580D01*
X38855941Y-52997402D01*
X38740977Y-52825345D01*
X38594655Y-52679023D01*
X38594651Y-52679020D01*
X38422597Y-52564058D01*
X38231418Y-52484869D01*
X38028467Y-52444500D01*
X38028465Y-52444500D01*
X37821535Y-52444500D01*
X37821532Y-52444500D01*
X37618581Y-52484869D01*
X37427402Y-52564058D01*
X37255348Y-52679020D01*
X37109020Y-52825348D01*
X36994058Y-52997402D01*
X36914869Y-53188581D01*
X36874500Y-53391532D01*
X36874500Y-53598467D01*
X36914869Y-53801418D01*
X36994058Y-53992597D01*
X36994059Y-53992598D01*
X37109023Y-54164655D01*
X37120866Y-54176498D01*
X37148642Y-54231013D01*
X37139071Y-54291445D01*
X37095806Y-54334710D01*
X37050861Y-54345500D01*
X35811479Y-54345500D01*
X35753288Y-54326593D01*
X35741475Y-54316504D01*
X34129496Y-52704525D01*
X34101719Y-52650008D01*
X34100500Y-52634521D01*
X34100500Y-52534109D01*
X34100500Y-52534108D01*
X34066392Y-52406814D01*
X34066390Y-52406811D01*
X34066390Y-52406809D01*
X34000503Y-52292690D01*
X34000501Y-52292688D01*
X34000500Y-52292686D01*
X33907314Y-52199500D01*
X33907311Y-52199498D01*
X33907309Y-52199496D01*
X33793189Y-52133609D01*
X33793191Y-52133609D01*
X33743799Y-52120375D01*
X33665892Y-52099500D01*
X33534108Y-52099500D01*
X33456200Y-52120375D01*
X33406809Y-52133609D01*
X33292690Y-52199496D01*
X33292689Y-52199497D01*
X33292686Y-52199499D01*
X33292686Y-52199500D01*
X33269501Y-52222684D01*
X33214987Y-52250460D01*
X33154555Y-52240889D01*
X33111290Y-52197624D01*
X33100500Y-52152679D01*
X33100500Y-49461907D01*
X33100499Y-49461905D01*
X33080021Y-49385481D01*
X33080019Y-49385477D01*
X33040460Y-49316959D01*
X32984511Y-49261009D01*
X32984511Y-49261010D01*
X32954103Y-49230602D01*
X32926326Y-49176085D01*
X32935897Y-49115653D01*
X32979162Y-49072388D01*
X32987349Y-49069249D01*
X32987194Y-49068874D01*
X32993180Y-49066393D01*
X32993186Y-49066392D01*
X33107314Y-49000500D01*
X33200500Y-48907314D01*
X33211359Y-48888506D01*
X33266390Y-48793190D01*
X33266390Y-48793188D01*
X33266392Y-48793186D01*
X33300500Y-48665892D01*
X33300500Y-48534108D01*
X33266392Y-48406814D01*
X33266390Y-48406811D01*
X33266390Y-48406809D01*
X33240844Y-48362563D01*
X33240842Y-48362561D01*
X33211381Y-48311532D01*
X36874500Y-48311532D01*
X36874500Y-48518467D01*
X36914869Y-48721418D01*
X36994058Y-48912597D01*
X37109020Y-49084651D01*
X37109023Y-49084655D01*
X37255345Y-49230977D01*
X37427402Y-49345941D01*
X37618580Y-49425130D01*
X37821535Y-49465500D01*
X37821536Y-49465500D01*
X38028464Y-49465500D01*
X38028465Y-49465500D01*
X38231420Y-49425130D01*
X38422598Y-49345941D01*
X38594655Y-49230977D01*
X38740977Y-49084655D01*
X38855941Y-48912598D01*
X38935130Y-48721420D01*
X38975500Y-48518465D01*
X38975500Y-48311535D01*
X38935130Y-48108580D01*
X38855941Y-47917402D01*
X38740977Y-47745345D01*
X38594655Y-47599023D01*
X38544453Y-47565479D01*
X38422597Y-47484058D01*
X38231418Y-47404869D01*
X38028467Y-47364500D01*
X38028465Y-47364500D01*
X37821535Y-47364500D01*
X37821532Y-47364500D01*
X37618581Y-47404869D01*
X37427402Y-47484058D01*
X37255348Y-47599020D01*
X37109020Y-47745348D01*
X36994058Y-47917402D01*
X36914869Y-48108581D01*
X36874500Y-48311532D01*
X33211381Y-48311532D01*
X33200500Y-48292686D01*
X33125533Y-48217719D01*
X33122047Y-48213340D01*
X33113189Y-48189678D01*
X33101719Y-48167166D01*
X33100908Y-48156873D01*
X33100596Y-48156038D01*
X33100788Y-48155343D01*
X33100500Y-48151679D01*
X33100500Y-47360437D01*
X33100499Y-47360435D01*
X33082345Y-47292686D01*
X33080021Y-47284011D01*
X33040460Y-47215489D01*
X33024467Y-47199496D01*
X32984511Y-47159539D01*
X32984511Y-47159540D01*
X30929496Y-45104525D01*
X30901719Y-45050008D01*
X30900500Y-45034521D01*
X30900500Y-43760437D01*
X30900499Y-43760435D01*
X30896323Y-43744852D01*
X30880021Y-43684011D01*
X30864027Y-43656309D01*
X30840460Y-43615489D01*
X30784511Y-43559539D01*
X30784511Y-43559540D01*
X30134660Y-42909689D01*
X30134657Y-42909687D01*
X30066141Y-42870129D01*
X30066137Y-42870127D01*
X29989713Y-42849649D01*
X29989711Y-42849649D01*
X29865422Y-42849649D01*
X29857824Y-42847180D01*
X29849935Y-42848430D01*
X29829279Y-42837905D01*
X29807231Y-42830742D01*
X29795418Y-42820653D01*
X29729496Y-42754731D01*
X29701719Y-42700214D01*
X29700500Y-42684727D01*
X29700500Y-42648321D01*
X29719407Y-42590130D01*
X29729490Y-42578323D01*
X29800500Y-42507314D01*
X29808946Y-42492686D01*
X29866390Y-42393190D01*
X29866390Y-42393188D01*
X29866392Y-42393186D01*
X29900500Y-42265892D01*
X29900500Y-42134108D01*
X29866392Y-42006814D01*
X29866390Y-42006811D01*
X29866390Y-42006809D01*
X29800503Y-41892690D01*
X29800501Y-41892688D01*
X29800500Y-41892686D01*
X29707314Y-41799500D01*
X29707311Y-41799498D01*
X29707309Y-41799496D01*
X29593189Y-41733609D01*
X29593191Y-41733609D01*
X29543799Y-41720375D01*
X29465892Y-41699500D01*
X29334108Y-41699500D01*
X29256200Y-41720375D01*
X29206809Y-41733609D01*
X29092690Y-41799496D01*
X28999496Y-41892690D01*
X28933609Y-42006809D01*
X28933608Y-42006814D01*
X28899500Y-42134108D01*
X28899500Y-42265892D01*
X28915303Y-42324869D01*
X28933609Y-42393190D01*
X28999496Y-42507309D01*
X28999498Y-42507311D01*
X28999500Y-42507314D01*
X29070505Y-42578319D01*
X29098281Y-42632834D01*
X29099500Y-42648321D01*
X29099500Y-42889770D01*
X29119978Y-42966193D01*
X29155996Y-43028579D01*
X29159536Y-43034711D01*
X29159538Y-43034713D01*
X29159540Y-43034717D01*
X29159543Y-43034720D01*
X29459482Y-43334660D01*
X29459483Y-43334660D01*
X29463737Y-43338914D01*
X29491514Y-43393431D01*
X29481943Y-43453863D01*
X29463737Y-43478921D01*
X29400473Y-43542185D01*
X29400469Y-43542190D01*
X29334582Y-43656309D01*
X29326693Y-43685751D01*
X29300473Y-43783608D01*
X29300473Y-43915392D01*
X29314151Y-43966438D01*
X29334582Y-44042690D01*
X29400469Y-44156809D01*
X29400471Y-44156811D01*
X29400473Y-44156814D01*
X29493659Y-44250000D01*
X29493661Y-44250001D01*
X29493663Y-44250003D01*
X29607783Y-44315890D01*
X29607784Y-44315891D01*
X29607786Y-44315891D01*
X29607787Y-44315892D01*
X29640377Y-44324624D01*
X29691690Y-44357945D01*
X29713618Y-44415066D01*
X29697784Y-44474167D01*
X29684758Y-44490254D01*
X28614489Y-45560524D01*
X28614488Y-45560523D01*
X28558539Y-45616473D01*
X28518980Y-45684991D01*
X28518978Y-45684995D01*
X28498500Y-45761420D01*
X28498500Y-53635520D01*
X28479593Y-53693711D01*
X28469504Y-53705524D01*
X27504524Y-54670504D01*
X27450007Y-54698281D01*
X27434520Y-54699500D01*
X27334108Y-54699500D01*
X27256200Y-54720375D01*
X27206809Y-54733609D01*
X27092690Y-54799496D01*
X26999496Y-54892690D01*
X26933609Y-55006809D01*
X26928770Y-55024870D01*
X26899500Y-55134108D01*
X26899500Y-55265892D01*
X26926148Y-55365345D01*
X26933609Y-55393190D01*
X26999496Y-55507309D01*
X26999498Y-55507311D01*
X26999500Y-55507314D01*
X27092686Y-55600500D01*
X27092688Y-55600501D01*
X27092690Y-55600503D01*
X27206810Y-55666390D01*
X27206808Y-55666390D01*
X27206812Y-55666391D01*
X27206814Y-55666392D01*
X27334108Y-55700500D01*
X27334110Y-55700500D01*
X27465890Y-55700500D01*
X27465892Y-55700500D01*
X27593186Y-55666392D01*
X27593188Y-55666390D01*
X27593190Y-55666390D01*
X27707309Y-55600503D01*
X27707309Y-55600502D01*
X27707314Y-55600500D01*
X27800500Y-55507314D01*
X27866392Y-55393186D01*
X27900500Y-55265892D01*
X27900500Y-55165478D01*
X27919407Y-55107287D01*
X27929496Y-55095474D01*
X28354466Y-54670504D01*
X29039460Y-53985511D01*
X29079022Y-53916988D01*
X29099500Y-53840562D01*
X29099500Y-53761438D01*
X29099500Y-47534108D01*
X29499500Y-47534108D01*
X29499500Y-47665892D01*
X29519034Y-47738793D01*
X29533609Y-47793190D01*
X29599496Y-47907309D01*
X29599498Y-47907311D01*
X29599500Y-47907314D01*
X29692686Y-48000500D01*
X29806814Y-48066392D01*
X29826120Y-48071564D01*
X29877435Y-48104886D01*
X29899364Y-48162007D01*
X29899500Y-48167192D01*
X29899500Y-51151679D01*
X29880593Y-51209870D01*
X29870509Y-51221676D01*
X29830768Y-51261418D01*
X29799497Y-51292689D01*
X29799496Y-51292690D01*
X29733609Y-51406809D01*
X29721340Y-51452598D01*
X29699500Y-51534108D01*
X29699500Y-51665892D01*
X29727657Y-51770977D01*
X29733609Y-51793190D01*
X29799496Y-51907309D01*
X29799498Y-51907311D01*
X29799500Y-51907314D01*
X29870505Y-51978319D01*
X29898281Y-52032834D01*
X29899500Y-52048321D01*
X29899500Y-57351679D01*
X29880593Y-57409870D01*
X29870509Y-57421676D01*
X29799500Y-57492686D01*
X29799497Y-57492689D01*
X29799496Y-57492690D01*
X29733609Y-57606809D01*
X29723628Y-57644059D01*
X29699500Y-57734108D01*
X29699500Y-57865892D01*
X29710072Y-57905348D01*
X29733609Y-57993190D01*
X29799496Y-58107309D01*
X29799498Y-58107311D01*
X29799500Y-58107314D01*
X29892686Y-58200500D01*
X29892688Y-58200501D01*
X29892690Y-58200503D01*
X30006810Y-58266390D01*
X30006808Y-58266390D01*
X30006812Y-58266391D01*
X30006814Y-58266392D01*
X30134108Y-58300500D01*
X30134110Y-58300500D01*
X30265890Y-58300500D01*
X30265892Y-58300500D01*
X30393186Y-58266392D01*
X30393188Y-58266390D01*
X30393190Y-58266390D01*
X30507309Y-58200503D01*
X30507309Y-58200502D01*
X30507314Y-58200500D01*
X30600500Y-58107314D01*
X30600503Y-58107309D01*
X30666390Y-57993190D01*
X30666390Y-57993188D01*
X30666392Y-57993186D01*
X30700500Y-57865892D01*
X30700500Y-57734108D01*
X30666392Y-57606814D01*
X30666390Y-57606811D01*
X30666390Y-57606809D01*
X30600503Y-57492690D01*
X30600501Y-57492688D01*
X30600500Y-57492686D01*
X30529494Y-57421680D01*
X30501719Y-57367166D01*
X30500500Y-57351679D01*
X30500500Y-52048321D01*
X30519407Y-51990130D01*
X30529490Y-51978323D01*
X30600500Y-51907314D01*
X30666392Y-51793186D01*
X30700500Y-51665892D01*
X30700500Y-51534108D01*
X30666392Y-51406814D01*
X30666390Y-51406811D01*
X30666390Y-51406809D01*
X30600503Y-51292690D01*
X30600501Y-51292688D01*
X30600500Y-51292686D01*
X30529494Y-51221680D01*
X30501719Y-51167166D01*
X30500500Y-51151679D01*
X30500500Y-47760439D01*
X30500499Y-47760433D01*
X30496458Y-47745351D01*
X30496458Y-47745352D01*
X30494700Y-47738793D01*
X30494699Y-47687540D01*
X30500500Y-47665892D01*
X30500500Y-47534108D01*
X30466392Y-47406814D01*
X30466390Y-47406811D01*
X30466390Y-47406809D01*
X30400503Y-47292690D01*
X30400501Y-47292688D01*
X30400500Y-47292686D01*
X30307314Y-47199500D01*
X30307311Y-47199498D01*
X30307309Y-47199496D01*
X30193189Y-47133609D01*
X30193191Y-47133609D01*
X30140187Y-47119407D01*
X30065892Y-47099500D01*
X29934108Y-47099500D01*
X29859813Y-47119407D01*
X29806809Y-47133609D01*
X29692690Y-47199496D01*
X29599496Y-47292690D01*
X29533609Y-47406809D01*
X29520336Y-47456345D01*
X29499500Y-47534108D01*
X29099500Y-47534108D01*
X29099500Y-45966463D01*
X29118407Y-45908272D01*
X29128496Y-45896459D01*
X29480496Y-45544459D01*
X29535013Y-45516682D01*
X29595445Y-45526253D01*
X29638710Y-45569518D01*
X29649500Y-45614463D01*
X29649500Y-45665892D01*
X29677806Y-45771532D01*
X29683609Y-45793190D01*
X29749496Y-45907309D01*
X29749498Y-45907311D01*
X29749500Y-45907314D01*
X29842686Y-46000500D01*
X29842688Y-46000501D01*
X29842690Y-46000503D01*
X29956810Y-46066390D01*
X29956808Y-46066390D01*
X29956812Y-46066391D01*
X29956814Y-46066392D01*
X30084108Y-46100500D01*
X30084110Y-46100500D01*
X30215890Y-46100500D01*
X30215892Y-46100500D01*
X30343186Y-46066392D01*
X30360531Y-46056377D01*
X30420376Y-46043654D01*
X30476273Y-46068537D01*
X30480037Y-46072108D01*
X31870504Y-47462575D01*
X31898281Y-47517092D01*
X31899500Y-47532579D01*
X31899500Y-48297410D01*
X31898653Y-48310332D01*
X31898500Y-48311494D01*
X31898500Y-48888506D01*
X31898652Y-48889660D01*
X31899500Y-48902588D01*
X31899500Y-48941034D01*
X31919977Y-49017455D01*
X31919979Y-49017459D01*
X31956099Y-49080021D01*
X31959540Y-49085981D01*
X32470505Y-49596946D01*
X32498281Y-49651461D01*
X32499500Y-49666948D01*
X32499500Y-55151679D01*
X32480593Y-55209870D01*
X32470509Y-55221676D01*
X32426296Y-55265890D01*
X32399497Y-55292689D01*
X32399496Y-55292690D01*
X32333609Y-55406809D01*
X32333608Y-55406814D01*
X32299500Y-55534108D01*
X32299500Y-55665892D01*
X32323825Y-55756675D01*
X32333609Y-55793190D01*
X32399496Y-55907309D01*
X32399498Y-55907311D01*
X32399500Y-55907314D01*
X32492686Y-56000500D01*
X32492688Y-56000501D01*
X32492690Y-56000503D01*
X32606810Y-56066390D01*
X32606808Y-56066390D01*
X32606812Y-56066391D01*
X32606814Y-56066392D01*
X32734108Y-56100500D01*
X32734110Y-56100500D01*
X32865890Y-56100500D01*
X32865892Y-56100500D01*
X32993186Y-56066392D01*
X32993188Y-56066390D01*
X32993190Y-56066390D01*
X33107309Y-56000503D01*
X33107309Y-56000502D01*
X33107314Y-56000500D01*
X33200500Y-55907314D01*
X33200503Y-55907309D01*
X33266390Y-55793190D01*
X33266390Y-55793188D01*
X33266392Y-55793186D01*
X33300500Y-55665892D01*
X33300500Y-55534108D01*
X33266392Y-55406814D01*
X33266390Y-55406811D01*
X33266390Y-55406809D01*
X33200503Y-55292690D01*
X33200501Y-55292688D01*
X33200500Y-55292686D01*
X33129494Y-55221680D01*
X33101719Y-55167166D01*
X33100500Y-55151679D01*
X33100500Y-53047321D01*
X33119407Y-52989130D01*
X33168907Y-52953166D01*
X33230093Y-52953166D01*
X33269501Y-52977315D01*
X33292686Y-53000500D01*
X33292688Y-53000501D01*
X33292690Y-53000503D01*
X33406810Y-53066390D01*
X33406808Y-53066390D01*
X33406812Y-53066391D01*
X33406814Y-53066392D01*
X33534108Y-53100500D01*
X33534110Y-53100500D01*
X33634521Y-53100500D01*
X33692712Y-53119407D01*
X33704525Y-53129496D01*
X35405540Y-54830511D01*
X35405539Y-54830511D01*
X35461489Y-54886460D01*
X35530007Y-54926019D01*
X35530011Y-54926021D01*
X35606435Y-54946499D01*
X35606437Y-54946500D01*
X35606438Y-54946500D01*
X35685562Y-54946500D01*
X37336846Y-54946500D01*
X37395037Y-54965407D01*
X37431001Y-55014907D01*
X37431001Y-55076093D01*
X37395037Y-55125593D01*
X37391847Y-55127816D01*
X37255348Y-55219020D01*
X37109020Y-55365348D01*
X36994058Y-55537402D01*
X36914869Y-55728581D01*
X36874500Y-55931532D01*
X36874500Y-56138467D01*
X36914869Y-56341418D01*
X36994058Y-56532597D01*
X36994059Y-56532598D01*
X37109023Y-56704655D01*
X37255345Y-56850977D01*
X37427402Y-56965941D01*
X37618580Y-57045130D01*
X37821535Y-57085500D01*
X37821536Y-57085500D01*
X38028464Y-57085500D01*
X38028465Y-57085500D01*
X38231420Y-57045130D01*
X38422598Y-56965941D01*
X38594655Y-56850977D01*
X38740977Y-56704655D01*
X38832184Y-56568152D01*
X38880234Y-56530273D01*
X38941372Y-56527871D01*
X38992246Y-56561863D01*
X39013424Y-56619267D01*
X39013500Y-56623154D01*
X39013500Y-57986845D01*
X38994593Y-58045036D01*
X38945093Y-58081000D01*
X38883907Y-58081000D01*
X38834407Y-58045036D01*
X38832184Y-58041846D01*
X38740979Y-57905348D01*
X38740977Y-57905345D01*
X38594655Y-57759023D01*
X38594651Y-57759020D01*
X38422597Y-57644058D01*
X38231418Y-57564869D01*
X38028467Y-57524500D01*
X38028465Y-57524500D01*
X37821535Y-57524500D01*
X37821532Y-57524500D01*
X37618581Y-57564869D01*
X37427402Y-57644058D01*
X37255348Y-57759020D01*
X37109020Y-57905348D01*
X36994058Y-58077402D01*
X36914869Y-58268581D01*
X36874500Y-58471532D01*
X36874500Y-58678467D01*
X36914869Y-58881418D01*
X36994058Y-59072597D01*
X37109020Y-59244651D01*
X37109023Y-59244655D01*
X37255345Y-59390977D01*
X37427402Y-59505941D01*
X37618580Y-59585130D01*
X37821535Y-59625500D01*
X37821536Y-59625500D01*
X38028464Y-59625500D01*
X38028465Y-59625500D01*
X38231420Y-59585130D01*
X38422598Y-59505941D01*
X38594655Y-59390977D01*
X38740977Y-59244655D01*
X38832184Y-59108152D01*
X38880234Y-59070273D01*
X38941372Y-59067871D01*
X38992246Y-59101863D01*
X39013424Y-59159267D01*
X39013500Y-59163154D01*
X39013500Y-60526845D01*
X38994593Y-60585036D01*
X38945093Y-60621000D01*
X38883907Y-60621000D01*
X38834407Y-60585036D01*
X38832184Y-60581846D01*
X38740979Y-60445348D01*
X38740977Y-60445345D01*
X38594655Y-60299023D01*
X38422598Y-60184059D01*
X38422599Y-60184059D01*
X38422597Y-60184058D01*
X38231418Y-60104869D01*
X38028467Y-60064500D01*
X38028465Y-60064500D01*
X37821535Y-60064500D01*
X37821532Y-60064500D01*
X37618581Y-60104869D01*
X37427402Y-60184058D01*
X37255348Y-60299020D01*
X37109020Y-60445348D01*
X36994058Y-60617402D01*
X36914869Y-60808581D01*
X36874500Y-61011532D01*
X36874500Y-61218467D01*
X36914869Y-61421418D01*
X36994058Y-61612597D01*
X36994059Y-61612598D01*
X37109023Y-61784655D01*
X37255345Y-61930977D01*
X37427402Y-62045941D01*
X37618580Y-62125130D01*
X37821535Y-62165500D01*
X37821536Y-62165500D01*
X38028464Y-62165500D01*
X38028465Y-62165500D01*
X38231420Y-62125130D01*
X38422598Y-62045941D01*
X38594655Y-61930977D01*
X38740977Y-61784655D01*
X38832184Y-61648152D01*
X38880234Y-61610273D01*
X38941372Y-61607871D01*
X38992246Y-61641863D01*
X39013424Y-61699267D01*
X39013500Y-61703154D01*
X39013500Y-63066845D01*
X38994593Y-63125036D01*
X38945093Y-63161000D01*
X38883907Y-63161000D01*
X38834407Y-63125036D01*
X38832184Y-63121846D01*
X38740979Y-62985348D01*
X38740977Y-62985345D01*
X38594655Y-62839023D01*
X38594651Y-62839020D01*
X38422597Y-62724058D01*
X38231418Y-62644869D01*
X38028467Y-62604500D01*
X38028465Y-62604500D01*
X37821535Y-62604500D01*
X37821532Y-62604500D01*
X37618581Y-62644869D01*
X37427402Y-62724058D01*
X37255348Y-62839020D01*
X37109020Y-62985348D01*
X36994058Y-63157402D01*
X36937732Y-63293386D01*
X36897995Y-63339912D01*
X36846268Y-63354500D01*
X32655899Y-63354500D01*
X32606400Y-63341237D01*
X32593187Y-63333608D01*
X32550754Y-63322238D01*
X32465892Y-63299500D01*
X32334108Y-63299500D01*
X32256200Y-63320375D01*
X32206809Y-63333609D01*
X32092690Y-63399496D01*
X31999496Y-63492690D01*
X31933609Y-63606809D01*
X31899500Y-63734109D01*
X31899500Y-63835521D01*
X31880593Y-63893712D01*
X31831093Y-63929676D01*
X31769907Y-63929676D01*
X31730496Y-63905525D01*
X31129496Y-63304525D01*
X31101719Y-63250008D01*
X31100500Y-63234521D01*
X31100500Y-63134109D01*
X31074483Y-63037012D01*
X31066392Y-63006814D01*
X31066390Y-63006811D01*
X31066390Y-63006809D01*
X31000503Y-62892690D01*
X31000501Y-62892688D01*
X31000500Y-62892686D01*
X30907314Y-62799500D01*
X30907311Y-62799498D01*
X30907309Y-62799496D01*
X30793189Y-62733609D01*
X30793191Y-62733609D01*
X30743799Y-62720375D01*
X30665892Y-62699500D01*
X30534108Y-62699500D01*
X30456200Y-62720375D01*
X30406809Y-62733609D01*
X30292690Y-62799496D01*
X30199496Y-62892690D01*
X30133609Y-63006809D01*
X30117523Y-63066845D01*
X30099500Y-63134108D01*
X30099500Y-63265892D01*
X30121656Y-63348580D01*
X30133609Y-63393190D01*
X30199496Y-63507309D01*
X30199498Y-63507311D01*
X30199500Y-63507314D01*
X30292686Y-63600500D01*
X30292688Y-63600501D01*
X30292690Y-63600503D01*
X30406810Y-63666390D01*
X30406808Y-63666390D01*
X30406812Y-63666391D01*
X30406814Y-63666392D01*
X30534108Y-63700500D01*
X30534110Y-63700500D01*
X30634521Y-63700500D01*
X30692712Y-63719407D01*
X30704525Y-63729496D01*
X34505540Y-67530511D01*
X34505539Y-67530511D01*
X34561489Y-67586460D01*
X34630007Y-67626019D01*
X34630011Y-67626021D01*
X34706435Y-67646499D01*
X34706437Y-67646500D01*
X34706438Y-67646500D01*
X34785562Y-67646500D01*
X38910521Y-67646500D01*
X38968712Y-67665407D01*
X38980525Y-67675496D01*
X39489736Y-68184707D01*
X39517513Y-68239224D01*
X39511196Y-68292596D01*
X39454870Y-68428578D01*
X39454870Y-68428580D01*
X39414500Y-68631532D01*
X39414500Y-68838467D01*
X39454869Y-69041418D01*
X39534058Y-69232597D01*
X39534059Y-69232598D01*
X39649023Y-69404655D01*
X39795345Y-69550977D01*
X39967402Y-69665941D01*
X40158580Y-69745130D01*
X40361535Y-69785500D01*
X40361536Y-69785500D01*
X40568464Y-69785500D01*
X40568465Y-69785500D01*
X40771420Y-69745130D01*
X40962598Y-69665941D01*
X41134655Y-69550977D01*
X41280977Y-69404655D01*
X41395941Y-69232598D01*
X41475130Y-69041420D01*
X41503402Y-68899285D01*
X41533299Y-68845902D01*
X41588864Y-68820286D01*
X41648873Y-68832223D01*
X41690406Y-68877153D01*
X41699500Y-68918600D01*
X41699500Y-76600500D01*
X41680593Y-76658691D01*
X41631093Y-76694655D01*
X41600500Y-76699500D01*
X12799500Y-76699500D01*
X12741309Y-76680593D01*
X12705345Y-76631093D01*
X12700500Y-76600500D01*
X12700500Y-73675433D01*
X13699500Y-73675433D01*
X13699500Y-73924566D01*
X13732017Y-74171557D01*
X13732017Y-74171562D01*
X13796496Y-74412199D01*
X13796500Y-74412212D01*
X13891832Y-74642365D01*
X13891834Y-74642369D01*
X13891836Y-74642373D01*
X13922318Y-74695169D01*
X14016403Y-74858130D01*
X14168056Y-75055769D01*
X14168058Y-75055771D01*
X14168062Y-75055776D01*
X14344224Y-75231938D01*
X14344228Y-75231941D01*
X14344230Y-75231943D01*
X14541869Y-75383596D01*
X14541873Y-75383599D01*
X14757627Y-75508164D01*
X14987793Y-75603502D01*
X15228435Y-75667982D01*
X15475435Y-75700500D01*
X15475436Y-75700500D01*
X15724564Y-75700500D01*
X15724565Y-75700500D01*
X15971565Y-75667982D01*
X16212207Y-75603502D01*
X16442373Y-75508164D01*
X16658127Y-75383599D01*
X16855776Y-75231938D01*
X17031938Y-75055776D01*
X17183599Y-74858127D01*
X17308164Y-74642373D01*
X17403502Y-74412207D01*
X17467982Y-74171565D01*
X17500500Y-73924565D01*
X17500500Y-73675435D01*
X17500500Y-73675433D01*
X36899500Y-73675433D01*
X36899500Y-73924566D01*
X36932017Y-74171557D01*
X36932017Y-74171562D01*
X36996496Y-74412199D01*
X36996500Y-74412212D01*
X37091832Y-74642365D01*
X37091834Y-74642369D01*
X37091836Y-74642373D01*
X37122318Y-74695169D01*
X37216403Y-74858130D01*
X37368056Y-75055769D01*
X37368058Y-75055771D01*
X37368062Y-75055776D01*
X37544224Y-75231938D01*
X37544228Y-75231941D01*
X37544230Y-75231943D01*
X37741869Y-75383596D01*
X37741873Y-75383599D01*
X37957627Y-75508164D01*
X38187793Y-75603502D01*
X38428435Y-75667982D01*
X38675435Y-75700500D01*
X38675436Y-75700500D01*
X38924564Y-75700500D01*
X38924565Y-75700500D01*
X39171565Y-75667982D01*
X39412207Y-75603502D01*
X39642373Y-75508164D01*
X39858127Y-75383599D01*
X40055776Y-75231938D01*
X40231938Y-75055776D01*
X40383599Y-74858127D01*
X40508164Y-74642373D01*
X40603502Y-74412207D01*
X40667982Y-74171565D01*
X40700500Y-73924565D01*
X40700500Y-73675435D01*
X40667982Y-73428435D01*
X40603502Y-73187793D01*
X40508164Y-72957627D01*
X40383599Y-72741873D01*
X40231938Y-72544224D01*
X40055776Y-72368062D01*
X40055771Y-72368058D01*
X40055769Y-72368056D01*
X39858130Y-72216403D01*
X39858127Y-72216401D01*
X39642373Y-72091836D01*
X39642369Y-72091834D01*
X39642365Y-72091832D01*
X39412212Y-71996500D01*
X39412211Y-71996499D01*
X39412207Y-71996498D01*
X39171565Y-71932018D01*
X39171562Y-71932017D01*
X39171560Y-71932017D01*
X38924566Y-71899500D01*
X38924565Y-71899500D01*
X38675435Y-71899500D01*
X38675433Y-71899500D01*
X38428442Y-71932017D01*
X38428437Y-71932017D01*
X38187800Y-71996496D01*
X38187787Y-71996500D01*
X37957634Y-72091832D01*
X37741869Y-72216403D01*
X37544230Y-72368056D01*
X37368056Y-72544230D01*
X37216403Y-72741869D01*
X37091832Y-72957634D01*
X36996500Y-73187787D01*
X36996496Y-73187800D01*
X36932017Y-73428437D01*
X36932017Y-73428442D01*
X36899500Y-73675433D01*
X17500500Y-73675433D01*
X17467982Y-73428435D01*
X17403502Y-73187793D01*
X17308164Y-72957627D01*
X17183599Y-72741873D01*
X17031938Y-72544224D01*
X16855776Y-72368062D01*
X16855771Y-72368058D01*
X16855769Y-72368056D01*
X16658130Y-72216403D01*
X16658127Y-72216401D01*
X16442373Y-72091836D01*
X16442369Y-72091834D01*
X16442365Y-72091832D01*
X16212212Y-71996500D01*
X16212211Y-71996499D01*
X16212207Y-71996498D01*
X15971565Y-71932018D01*
X15971562Y-71932017D01*
X15971560Y-71932017D01*
X15724566Y-71899500D01*
X15724565Y-71899500D01*
X15475435Y-71899500D01*
X15475433Y-71899500D01*
X15228442Y-71932017D01*
X15228437Y-71932017D01*
X14987800Y-71996496D01*
X14987787Y-71996500D01*
X14757634Y-72091832D01*
X14541869Y-72216403D01*
X14344230Y-72368056D01*
X14168056Y-72544230D01*
X14016403Y-72741869D01*
X13891832Y-72957634D01*
X13796500Y-73187787D01*
X13796496Y-73187800D01*
X13732017Y-73428437D01*
X13732017Y-73428442D01*
X13699500Y-73675433D01*
X12700500Y-73675433D01*
X12700500Y-66409108D01*
X28084500Y-66409108D01*
X28084500Y-66540892D01*
X28114579Y-66653151D01*
X28118609Y-66668190D01*
X28184496Y-66782309D01*
X28184498Y-66782311D01*
X28184500Y-66782314D01*
X28277686Y-66875500D01*
X28277688Y-66875501D01*
X28277690Y-66875503D01*
X28333628Y-66907799D01*
X28374569Y-66953268D01*
X28380965Y-67014118D01*
X28369864Y-67043035D01*
X28318609Y-67131809D01*
X28318608Y-67131814D01*
X28284500Y-67259108D01*
X28284500Y-67390892D01*
X28314579Y-67503151D01*
X28318609Y-67518190D01*
X28384496Y-67632309D01*
X28384498Y-67632311D01*
X28384500Y-67632314D01*
X28477686Y-67725500D01*
X28477688Y-67725501D01*
X28477690Y-67725503D01*
X28591810Y-67791390D01*
X28591808Y-67791390D01*
X28591812Y-67791391D01*
X28591814Y-67791392D01*
X28719108Y-67825500D01*
X28719110Y-67825500D01*
X28850890Y-67825500D01*
X28850892Y-67825500D01*
X28978186Y-67791392D01*
X28978188Y-67791390D01*
X28978190Y-67791390D01*
X29092309Y-67725503D01*
X29092309Y-67725502D01*
X29092314Y-67725500D01*
X29185500Y-67632314D01*
X29189133Y-67626021D01*
X29251390Y-67518190D01*
X29251390Y-67518188D01*
X29251392Y-67518186D01*
X29285500Y-67390892D01*
X29285500Y-67259108D01*
X29251392Y-67131814D01*
X29251390Y-67131811D01*
X29251390Y-67131809D01*
X29185503Y-67017690D01*
X29185501Y-67017688D01*
X29185500Y-67017686D01*
X29092314Y-66924500D01*
X29092311Y-66924498D01*
X29092309Y-66924496D01*
X29036372Y-66892201D01*
X28995431Y-66846732D01*
X28989035Y-66785882D01*
X29000136Y-66756965D01*
X29051390Y-66668190D01*
X29051390Y-66668188D01*
X29051392Y-66668186D01*
X29085500Y-66540892D01*
X29085500Y-66409108D01*
X29051392Y-66281814D01*
X29051390Y-66281811D01*
X29051390Y-66281809D01*
X28985503Y-66167690D01*
X28985501Y-66167688D01*
X28985500Y-66167686D01*
X28892314Y-66074500D01*
X28892311Y-66074498D01*
X28892309Y-66074496D01*
X28778189Y-66008609D01*
X28778191Y-66008609D01*
X28728799Y-65995375D01*
X28650892Y-65974500D01*
X28519108Y-65974500D01*
X28441200Y-65995375D01*
X28391809Y-66008609D01*
X28277690Y-66074496D01*
X28184496Y-66167690D01*
X28118609Y-66281809D01*
X28103780Y-66337153D01*
X28084500Y-66409108D01*
X12700500Y-66409108D01*
X12700500Y-43570435D01*
X23699500Y-43570435D01*
X23699500Y-45639564D01*
X23711673Y-45684991D01*
X23719979Y-45715989D01*
X23746210Y-45761422D01*
X23746211Y-45761424D01*
X23759537Y-45784507D01*
X23759538Y-45784508D01*
X23759540Y-45784511D01*
X24470505Y-46495476D01*
X24498281Y-46549991D01*
X24499500Y-46565478D01*
X24499500Y-46665892D01*
X24506222Y-46690979D01*
X24533609Y-46793190D01*
X24599496Y-46907309D01*
X24599498Y-46907311D01*
X24599500Y-46907314D01*
X24692686Y-47000500D01*
X24692688Y-47000501D01*
X24692690Y-47000503D01*
X24806810Y-47066390D01*
X24806808Y-47066390D01*
X24806812Y-47066391D01*
X24806814Y-47066392D01*
X24934108Y-47100500D01*
X24934110Y-47100500D01*
X25034521Y-47100500D01*
X25092712Y-47119407D01*
X25104525Y-47129496D01*
X25470504Y-47495475D01*
X25498281Y-47549992D01*
X25499500Y-47565479D01*
X25499500Y-49551679D01*
X25480593Y-49609870D01*
X25470509Y-49621676D01*
X25425238Y-49666948D01*
X25399497Y-49692689D01*
X25399496Y-49692690D01*
X25333609Y-49806809D01*
X25333608Y-49806814D01*
X25299500Y-49934108D01*
X25299500Y-50065892D01*
X25319095Y-50139023D01*
X25333609Y-50193190D01*
X25399496Y-50307309D01*
X25399498Y-50307311D01*
X25399500Y-50307314D01*
X25492686Y-50400500D01*
X25492688Y-50400501D01*
X25492690Y-50400503D01*
X25606810Y-50466390D01*
X25606808Y-50466390D01*
X25606812Y-50466391D01*
X25606814Y-50466392D01*
X25734108Y-50500500D01*
X25734110Y-50500500D01*
X25865890Y-50500500D01*
X25865892Y-50500500D01*
X25993186Y-50466392D01*
X25993188Y-50466390D01*
X25993190Y-50466390D01*
X26107309Y-50400503D01*
X26107309Y-50400502D01*
X26107314Y-50400500D01*
X26200500Y-50307314D01*
X26266392Y-50193186D01*
X26300500Y-50065892D01*
X26300500Y-49934108D01*
X26266392Y-49806814D01*
X26266390Y-49806811D01*
X26266390Y-49806809D01*
X26200503Y-49692690D01*
X26200501Y-49692688D01*
X26200500Y-49692686D01*
X26129494Y-49621680D01*
X26101719Y-49567166D01*
X26100500Y-49551679D01*
X26100500Y-47514536D01*
X26119407Y-47456345D01*
X26168907Y-47420381D01*
X26230093Y-47420381D01*
X26269504Y-47444532D01*
X27070504Y-48245532D01*
X27074130Y-48252649D01*
X27080593Y-48257345D01*
X27087756Y-48279393D01*
X27098281Y-48300049D01*
X27099500Y-48315536D01*
X27099500Y-48351679D01*
X27080593Y-48409870D01*
X27070509Y-48421676D01*
X26999500Y-48492686D01*
X26999497Y-48492689D01*
X26999496Y-48492690D01*
X26933609Y-48606809D01*
X26933608Y-48606814D01*
X26899500Y-48734108D01*
X26899500Y-48865892D01*
X26912015Y-48912598D01*
X26933609Y-48993190D01*
X26999496Y-49107309D01*
X26999498Y-49107311D01*
X26999500Y-49107314D01*
X27092686Y-49200500D01*
X27092688Y-49200501D01*
X27092690Y-49200503D01*
X27206810Y-49266390D01*
X27206808Y-49266390D01*
X27206812Y-49266391D01*
X27206814Y-49266392D01*
X27334108Y-49300500D01*
X27334110Y-49300500D01*
X27465890Y-49300500D01*
X27465892Y-49300500D01*
X27593186Y-49266392D01*
X27593188Y-49266390D01*
X27593190Y-49266390D01*
X27707309Y-49200503D01*
X27707309Y-49200502D01*
X27707314Y-49200500D01*
X27800500Y-49107314D01*
X27822477Y-49069249D01*
X27866390Y-48993190D01*
X27866390Y-48993188D01*
X27866392Y-48993186D01*
X27900500Y-48865892D01*
X27900500Y-48734108D01*
X27866392Y-48606814D01*
X27866390Y-48606811D01*
X27866390Y-48606809D01*
X27800503Y-48492690D01*
X27800501Y-48492688D01*
X27800500Y-48492686D01*
X27729494Y-48421680D01*
X27701719Y-48367166D01*
X27700500Y-48351679D01*
X27700500Y-48110494D01*
X27700499Y-48110492D01*
X27680021Y-48034068D01*
X27680019Y-48034064D01*
X27640460Y-47965546D01*
X27584511Y-47909596D01*
X27584511Y-47909597D01*
X25129496Y-45454582D01*
X25101719Y-45400065D01*
X25100500Y-45384578D01*
X25100500Y-44571045D01*
X25100499Y-44571043D01*
X25088770Y-44527270D01*
X25091579Y-44473646D01*
X25089937Y-44473206D01*
X25091616Y-44466939D01*
X25091617Y-44466938D01*
X25125725Y-44339644D01*
X25125725Y-44207860D01*
X25091617Y-44080566D01*
X25091615Y-44080563D01*
X25091615Y-44080561D01*
X25025728Y-43966442D01*
X25025726Y-43966440D01*
X25025725Y-43966438D01*
X24932539Y-43873252D01*
X24932536Y-43873250D01*
X24932534Y-43873248D01*
X24818414Y-43807361D01*
X24818416Y-43807361D01*
X24769024Y-43794127D01*
X24691117Y-43773252D01*
X24559333Y-43773252D01*
X24523738Y-43782789D01*
X24520684Y-43783608D01*
X24509666Y-43786560D01*
X24448565Y-43783357D01*
X24401015Y-43744852D01*
X24385180Y-43685751D01*
X24407107Y-43628630D01*
X24414024Y-43620946D01*
X24705475Y-43329494D01*
X24759990Y-43301719D01*
X24775477Y-43300500D01*
X24875890Y-43300500D01*
X24875892Y-43300500D01*
X25003186Y-43266392D01*
X25003188Y-43266390D01*
X25003190Y-43266390D01*
X25117309Y-43200503D01*
X25117309Y-43200502D01*
X25117314Y-43200500D01*
X25210500Y-43107314D01*
X25210503Y-43107309D01*
X25276390Y-42993190D01*
X25276390Y-42993188D01*
X25276392Y-42993186D01*
X25310500Y-42865892D01*
X25310500Y-42734108D01*
X25276392Y-42606814D01*
X25276390Y-42606811D01*
X25276390Y-42606809D01*
X25210503Y-42492690D01*
X25210501Y-42492688D01*
X25210500Y-42492686D01*
X25117314Y-42399500D01*
X25117311Y-42399498D01*
X25117309Y-42399496D01*
X25003189Y-42333609D01*
X25003191Y-42333609D01*
X24953799Y-42320375D01*
X24875892Y-42299500D01*
X24744108Y-42299500D01*
X24666200Y-42320375D01*
X24616809Y-42333609D01*
X24502690Y-42399496D01*
X24409496Y-42492690D01*
X24343609Y-42606809D01*
X24343608Y-42606814D01*
X24322732Y-42684727D01*
X24309500Y-42734109D01*
X24309500Y-42834520D01*
X24290593Y-42892711D01*
X24280504Y-42904523D01*
X23815489Y-43369539D01*
X23759539Y-43425489D01*
X23719980Y-43494007D01*
X23719978Y-43494011D01*
X23699500Y-43570435D01*
X12700500Y-43570435D01*
X12700500Y-31334108D01*
X14699500Y-31334108D01*
X14699500Y-31465892D01*
X14726308Y-31565941D01*
X14733609Y-31593190D01*
X14799496Y-31707309D01*
X14799498Y-31707311D01*
X14799500Y-31707314D01*
X14892686Y-31800500D01*
X14892688Y-31800501D01*
X14892690Y-31800503D01*
X15006810Y-31866390D01*
X15006808Y-31866390D01*
X15006812Y-31866391D01*
X15006814Y-31866392D01*
X15134108Y-31900500D01*
X15134110Y-31900500D01*
X15265890Y-31900500D01*
X15265892Y-31900500D01*
X15393186Y-31866392D01*
X15393188Y-31866390D01*
X15393190Y-31866390D01*
X15507309Y-31800503D01*
X15507309Y-31800502D01*
X15507314Y-31800500D01*
X15528319Y-31779494D01*
X15582834Y-31751719D01*
X15598321Y-31750500D01*
X34666142Y-31750500D01*
X34666144Y-31750500D01*
X34755288Y-31726614D01*
X34765912Y-31720480D01*
X34835212Y-31680470D01*
X37424708Y-29090972D01*
X37479223Y-29063197D01*
X37532596Y-29069514D01*
X37574833Y-29087009D01*
X37618580Y-29105130D01*
X37821535Y-29145500D01*
X37821536Y-29145500D01*
X38028464Y-29145500D01*
X38028465Y-29145500D01*
X38231420Y-29105130D01*
X38422598Y-29025941D01*
X38594655Y-28910977D01*
X38740977Y-28764655D01*
X38855941Y-28592598D01*
X38935130Y-28401420D01*
X38975500Y-28198465D01*
X38975500Y-27991535D01*
X38935130Y-27788580D01*
X38855941Y-27597402D01*
X38740977Y-27425345D01*
X38594655Y-27279023D01*
X38422598Y-27164059D01*
X38422599Y-27164059D01*
X38422597Y-27164058D01*
X38231418Y-27084869D01*
X38028467Y-27044500D01*
X38028465Y-27044500D01*
X37821535Y-27044500D01*
X37821532Y-27044500D01*
X37618581Y-27084869D01*
X37427402Y-27164058D01*
X37255348Y-27279020D01*
X37109020Y-27425348D01*
X36994058Y-27597402D01*
X36914869Y-27788581D01*
X36874500Y-27991532D01*
X36874500Y-28198467D01*
X36914869Y-28401418D01*
X36950485Y-28487401D01*
X36955286Y-28548398D01*
X36929025Y-28595291D01*
X34503814Y-31020504D01*
X34449297Y-31048281D01*
X34433810Y-31049500D01*
X15598321Y-31049500D01*
X15540130Y-31030593D01*
X15528323Y-31020509D01*
X15507314Y-30999500D01*
X15507311Y-30999498D01*
X15507309Y-30999496D01*
X15393189Y-30933609D01*
X15393191Y-30933609D01*
X15343799Y-30920375D01*
X15265892Y-30899500D01*
X15134108Y-30899500D01*
X15056200Y-30920375D01*
X15006809Y-30933609D01*
X14892690Y-30999496D01*
X14799496Y-31092690D01*
X14733609Y-31206809D01*
X14733608Y-31206814D01*
X14699500Y-31334108D01*
X12700500Y-31334108D01*
X12700500Y-15475433D01*
X13699500Y-15475433D01*
X13699500Y-15724566D01*
X13704018Y-15758880D01*
X13731992Y-15971371D01*
X13732017Y-15971557D01*
X13732017Y-15971562D01*
X13796496Y-16212199D01*
X13796500Y-16212212D01*
X13891832Y-16442365D01*
X13891834Y-16442369D01*
X13891836Y-16442373D01*
X13983132Y-16600503D01*
X14016403Y-16658130D01*
X14168056Y-16855769D01*
X14168058Y-16855771D01*
X14168062Y-16855776D01*
X14344224Y-17031938D01*
X14344228Y-17031941D01*
X14344230Y-17031943D01*
X14541869Y-17183596D01*
X14541873Y-17183599D01*
X14757627Y-17308164D01*
X14987793Y-17403502D01*
X15228435Y-17467982D01*
X15475435Y-17500500D01*
X15475436Y-17500500D01*
X15724564Y-17500500D01*
X15724565Y-17500500D01*
X15971565Y-17467982D01*
X16212207Y-17403502D01*
X16245072Y-17389888D01*
X16306066Y-17385087D01*
X16358236Y-17417055D01*
X16381652Y-17473583D01*
X16367369Y-17533078D01*
X16352961Y-17551356D01*
X15433814Y-18470504D01*
X15379297Y-18498281D01*
X15363810Y-18499500D01*
X15334108Y-18499500D01*
X15256200Y-18520375D01*
X15206809Y-18533609D01*
X15092690Y-18599496D01*
X14999496Y-18692690D01*
X14933609Y-18806809D01*
X14933608Y-18806814D01*
X14899500Y-18934108D01*
X14899500Y-19065892D01*
X14929579Y-19178151D01*
X14933609Y-19193190D01*
X14999496Y-19307309D01*
X14999498Y-19307311D01*
X14999500Y-19307314D01*
X15092686Y-19400500D01*
X15092688Y-19400501D01*
X15092690Y-19400503D01*
X15206810Y-19466390D01*
X15206808Y-19466390D01*
X15206812Y-19466391D01*
X15206814Y-19466392D01*
X15334108Y-19500500D01*
X15334110Y-19500500D01*
X15465890Y-19500500D01*
X15465892Y-19500500D01*
X15593186Y-19466392D01*
X15593188Y-19466390D01*
X15593190Y-19466390D01*
X15707309Y-19400503D01*
X15707309Y-19400502D01*
X15707314Y-19400500D01*
X15800500Y-19307314D01*
X15866392Y-19193186D01*
X15900500Y-19065892D01*
X15900500Y-19036190D01*
X15919407Y-18977999D01*
X15929496Y-18966186D01*
X18516186Y-16379496D01*
X18570703Y-16351719D01*
X18586190Y-16350500D01*
X22201805Y-16350500D01*
X22259996Y-16369407D01*
X22287541Y-16400000D01*
X22349496Y-16507309D01*
X22349498Y-16507311D01*
X22349500Y-16507314D01*
X22442686Y-16600500D01*
X22442688Y-16600501D01*
X22442690Y-16600503D01*
X22556810Y-16666390D01*
X22556808Y-16666390D01*
X22556812Y-16666391D01*
X22556814Y-16666392D01*
X22684108Y-16700500D01*
X22684110Y-16700500D01*
X22815890Y-16700500D01*
X22815892Y-16700500D01*
X22943186Y-16666392D01*
X22943188Y-16666390D01*
X22943190Y-16666390D01*
X23057309Y-16600503D01*
X23057309Y-16600502D01*
X23057314Y-16600500D01*
X23150500Y-16507314D01*
X23157512Y-16495169D01*
X23216390Y-16393190D01*
X23216390Y-16393188D01*
X23216392Y-16393186D01*
X23250500Y-16265892D01*
X23250500Y-16134108D01*
X23216392Y-16006814D01*
X23216390Y-16006811D01*
X23216390Y-16006809D01*
X23150503Y-15892690D01*
X23150501Y-15892688D01*
X23150500Y-15892686D01*
X23057314Y-15799500D01*
X23057311Y-15799498D01*
X23057309Y-15799496D01*
X22943189Y-15733609D01*
X22943191Y-15733609D01*
X22890646Y-15719530D01*
X22815892Y-15699500D01*
X22815890Y-15699500D01*
X22757046Y-15699500D01*
X22707547Y-15686237D01*
X22685289Y-15673386D01*
X22655573Y-15665424D01*
X22596144Y-15649500D01*
X18353856Y-15649500D01*
X18329762Y-15655956D01*
X18287958Y-15667157D01*
X18287957Y-15667156D01*
X18264714Y-15673385D01*
X18264712Y-15673385D01*
X18264712Y-15673386D01*
X18239112Y-15688166D01*
X18184788Y-15719530D01*
X17551356Y-16352962D01*
X17496839Y-16380739D01*
X17436407Y-16371168D01*
X17393142Y-16327903D01*
X17383571Y-16267471D01*
X17389886Y-16245078D01*
X17403502Y-16212207D01*
X17467982Y-15971565D01*
X17500500Y-15724565D01*
X17500500Y-15475435D01*
X17467982Y-15228435D01*
X17403502Y-14987793D01*
X17308164Y-14757627D01*
X17183599Y-14541873D01*
X17125297Y-14465892D01*
X17031943Y-14344230D01*
X17031941Y-14344228D01*
X17031938Y-14344224D01*
X16855776Y-14168062D01*
X16855771Y-14168058D01*
X16855769Y-14168056D01*
X16658130Y-14016403D01*
X16628853Y-13999500D01*
X16442373Y-13891836D01*
X16442369Y-13891834D01*
X16442365Y-13891832D01*
X16212212Y-13796500D01*
X16212211Y-13796499D01*
X16212207Y-13796498D01*
X15971565Y-13732018D01*
X15971562Y-13732017D01*
X15971560Y-13732017D01*
X15724566Y-13699500D01*
X15724565Y-13699500D01*
X15475435Y-13699500D01*
X15475433Y-13699500D01*
X15228442Y-13732017D01*
X15228437Y-13732017D01*
X14987800Y-13796496D01*
X14987787Y-13796500D01*
X14757634Y-13891832D01*
X14757627Y-13891835D01*
X14757627Y-13891836D01*
X14732152Y-13906543D01*
X14541869Y-14016403D01*
X14344230Y-14168056D01*
X14168056Y-14344230D01*
X14016403Y-14541869D01*
X13891832Y-14757634D01*
X13796500Y-14987787D01*
X13796496Y-14987800D01*
X13732017Y-15228437D01*
X13732017Y-15228442D01*
X13699500Y-15475433D01*
X12700500Y-15475433D01*
X12700500Y-12799500D01*
X12719407Y-12741309D01*
X12768907Y-12705345D01*
X12799500Y-12700500D01*
X34319202Y-12700500D01*
X34377393Y-12719407D01*
G37*
%TD.AperFunction*%
%TA.AperFunction,Conductor*%
G36*
X41648873Y-58672223D02*
G01*
X41690406Y-58717153D01*
X41699500Y-58758600D01*
X41699500Y-63471399D01*
X41680593Y-63529590D01*
X41631093Y-63565554D01*
X41569907Y-63565554D01*
X41520407Y-63529590D01*
X41503402Y-63490713D01*
X41490364Y-63425167D01*
X41475130Y-63348580D01*
X41395941Y-63157402D01*
X41280977Y-62985345D01*
X41134655Y-62839023D01*
X41134651Y-62839020D01*
X40962597Y-62724058D01*
X40771418Y-62644869D01*
X40568467Y-62604500D01*
X40568465Y-62604500D01*
X40361535Y-62604500D01*
X40361532Y-62604500D01*
X40158581Y-62644869D01*
X39967402Y-62724058D01*
X39795344Y-62839023D01*
X39783501Y-62850866D01*
X39728984Y-62878642D01*
X39668552Y-62869068D01*
X39625289Y-62825802D01*
X39614500Y-62780860D01*
X39614500Y-59449139D01*
X39633407Y-59390948D01*
X39682907Y-59354984D01*
X39744093Y-59354984D01*
X39783501Y-59379133D01*
X39795345Y-59390977D01*
X39967402Y-59505941D01*
X40158580Y-59585130D01*
X40361535Y-59625500D01*
X40361536Y-59625500D01*
X40568464Y-59625500D01*
X40568465Y-59625500D01*
X40771420Y-59585130D01*
X40962598Y-59505941D01*
X41134655Y-59390977D01*
X41280977Y-59244655D01*
X41395941Y-59072598D01*
X41475130Y-58881420D01*
X41503402Y-58739285D01*
X41533299Y-58685902D01*
X41588864Y-58660286D01*
X41648873Y-58672223D01*
G37*
%TD.AperFunction*%
%TD*%
M02*
