%TF.GenerationSoftware,KiCad,Pcbnew,9.0.1*%
<<<<<<< Updated upstream
%TF.CreationDate,2025-10-26T21:15:44-04:00*%
=======
%TF.CreationDate,2025-10-26T21:35:25-04:00*%
>>>>>>> Stashed changes
%TF.ProjectId,Drone-Flight-Controller,44726f6e-652d-4466-9c69-6768742d436f,rev?*%
%TF.SameCoordinates,Original*%
%TF.FileFunction,Legend,Top*%
%TF.FilePolarity,Positive*%
%FSLAX46Y46*%
G04 Gerber Fmt 4.6, Leading zero omitted, Abs format (unit mm)*
<<<<<<< Updated upstream
G04 Created by KiCad (PCBNEW 9.0.1) date 2025-10-26 21:15:44*
=======
G04 Created by KiCad (PCBNEW 9.0.1) date 2025-10-26 21:35:25*
>>>>>>> Stashed changes
%MOMM*%
%LPD*%
G01*
G04 APERTURE LIST*
%ADD10C,0.100000*%
%ADD11C,0.150000*%
<<<<<<< Updated upstream
%ADD12C,0.125000*%
%ADD13C,0.120000*%
G04 APERTURE END LIST*
D10*
X60899122Y-33100276D02*
X60899122Y-33433609D01*
X60684836Y-33100276D02*
X60684836Y-33362180D01*
X60684836Y-33362180D02*
X60708646Y-33409800D01*
X60708646Y-33409800D02*
X60756265Y-33433609D01*
X60756265Y-33433609D02*
X60827693Y-33433609D01*
X60827693Y-33433609D02*
X60875312Y-33409800D01*
X60875312Y-33409800D02*
X60899122Y-33385990D01*
X61422931Y-33385990D02*
X61399122Y-33409800D01*
X61399122Y-33409800D02*
X61327693Y-33433609D01*
X61327693Y-33433609D02*
X61280074Y-33433609D01*
X61280074Y-33433609D02*
X61208646Y-33409800D01*
X61208646Y-33409800D02*
X61161027Y-33362180D01*
X61161027Y-33362180D02*
X61137217Y-33314561D01*
X61137217Y-33314561D02*
X61113408Y-33219323D01*
X61113408Y-33219323D02*
X61113408Y-33147895D01*
X61113408Y-33147895D02*
X61137217Y-33052657D01*
X61137217Y-33052657D02*
X61161027Y-33005038D01*
X61161027Y-33005038D02*
X61208646Y-32957419D01*
X61208646Y-32957419D02*
X61280074Y-32933609D01*
X61280074Y-32933609D02*
X61327693Y-32933609D01*
X61327693Y-32933609D02*
X61399122Y-32957419D01*
X61399122Y-32957419D02*
X61422931Y-32981228D01*
X61994360Y-33409800D02*
X62041979Y-33433609D01*
X62041979Y-33433609D02*
X62137217Y-33433609D01*
X62137217Y-33433609D02*
X62184836Y-33409800D01*
X62184836Y-33409800D02*
X62208645Y-33362180D01*
X62208645Y-33362180D02*
X62208645Y-33338371D01*
X62208645Y-33338371D02*
X62184836Y-33290752D01*
X62184836Y-33290752D02*
X62137217Y-33266942D01*
X62137217Y-33266942D02*
X62065788Y-33266942D01*
X62065788Y-33266942D02*
X62018169Y-33243133D01*
X62018169Y-33243133D02*
X61994360Y-33195514D01*
X61994360Y-33195514D02*
X61994360Y-33171704D01*
X61994360Y-33171704D02*
X62018169Y-33124085D01*
X62018169Y-33124085D02*
X62065788Y-33100276D01*
X62065788Y-33100276D02*
X62137217Y-33100276D01*
X62137217Y-33100276D02*
X62184836Y-33124085D01*
X62351503Y-33100276D02*
X62541979Y-33100276D01*
X62422931Y-32933609D02*
X62422931Y-33362180D01*
X62422931Y-33362180D02*
X62446741Y-33409800D01*
X62446741Y-33409800D02*
X62494360Y-33433609D01*
X62494360Y-33433609D02*
X62541979Y-33433609D01*
X62922931Y-33433609D02*
X62922931Y-33171704D01*
X62922931Y-33171704D02*
X62899121Y-33124085D01*
X62899121Y-33124085D02*
X62851502Y-33100276D01*
X62851502Y-33100276D02*
X62756264Y-33100276D01*
X62756264Y-33100276D02*
X62708645Y-33124085D01*
X62922931Y-33409800D02*
X62875312Y-33433609D01*
X62875312Y-33433609D02*
X62756264Y-33433609D01*
X62756264Y-33433609D02*
X62708645Y-33409800D01*
X62708645Y-33409800D02*
X62684836Y-33362180D01*
X62684836Y-33362180D02*
X62684836Y-33314561D01*
X62684836Y-33314561D02*
X62708645Y-33266942D01*
X62708645Y-33266942D02*
X62756264Y-33243133D01*
X62756264Y-33243133D02*
X62875312Y-33243133D01*
X62875312Y-33243133D02*
X62922931Y-33219323D01*
X63089598Y-33100276D02*
X63280074Y-33100276D01*
X63161026Y-32933609D02*
X63161026Y-33362180D01*
X63161026Y-33362180D02*
X63184836Y-33409800D01*
X63184836Y-33409800D02*
X63232455Y-33433609D01*
X63232455Y-33433609D02*
X63280074Y-33433609D01*
X63661026Y-33100276D02*
X63661026Y-33433609D01*
X63446740Y-33100276D02*
X63446740Y-33362180D01*
X63446740Y-33362180D02*
X63470550Y-33409800D01*
X63470550Y-33409800D02*
X63518169Y-33433609D01*
X63518169Y-33433609D02*
X63589597Y-33433609D01*
X63589597Y-33433609D02*
X63637216Y-33409800D01*
X63637216Y-33409800D02*
X63661026Y-33385990D01*
X63875312Y-33409800D02*
X63922931Y-33433609D01*
X63922931Y-33433609D02*
X64018169Y-33433609D01*
X64018169Y-33433609D02*
X64065788Y-33409800D01*
X64065788Y-33409800D02*
X64089597Y-33362180D01*
X64089597Y-33362180D02*
X64089597Y-33338371D01*
X64089597Y-33338371D02*
X64065788Y-33290752D01*
X64065788Y-33290752D02*
X64018169Y-33266942D01*
X64018169Y-33266942D02*
X63946740Y-33266942D01*
X63946740Y-33266942D02*
X63899121Y-33243133D01*
X63899121Y-33243133D02*
X63875312Y-33195514D01*
X63875312Y-33195514D02*
X63875312Y-33171704D01*
X63875312Y-33171704D02*
X63899121Y-33124085D01*
X63899121Y-33124085D02*
X63946740Y-33100276D01*
X63946740Y-33100276D02*
X64018169Y-33100276D01*
X64018169Y-33100276D02*
X64065788Y-33124085D01*
X60922931Y-33933609D02*
X60684836Y-33933609D01*
X60684836Y-33933609D02*
X60661027Y-34171704D01*
X60661027Y-34171704D02*
X60684836Y-34147895D01*
X60684836Y-34147895D02*
X60732455Y-34124085D01*
X60732455Y-34124085D02*
X60851503Y-34124085D01*
X60851503Y-34124085D02*
X60899122Y-34147895D01*
X60899122Y-34147895D02*
X60922931Y-34171704D01*
X60922931Y-34171704D02*
X60946741Y-34219323D01*
X60946741Y-34219323D02*
X60946741Y-34338371D01*
X60946741Y-34338371D02*
X60922931Y-34385990D01*
X60922931Y-34385990D02*
X60899122Y-34409800D01*
X60899122Y-34409800D02*
X60851503Y-34433609D01*
X60851503Y-34433609D02*
X60732455Y-34433609D01*
X60732455Y-34433609D02*
X60684836Y-34409800D01*
X60684836Y-34409800D02*
X60661027Y-34385990D01*
X61113407Y-34100276D02*
X61232455Y-34433609D01*
X61232455Y-34433609D02*
X61351502Y-34100276D01*
X61994359Y-34433609D02*
X61946740Y-34409800D01*
X61946740Y-34409800D02*
X61922930Y-34385990D01*
X61922930Y-34385990D02*
X61899121Y-34338371D01*
X61899121Y-34338371D02*
X61899121Y-34195514D01*
X61899121Y-34195514D02*
X61922930Y-34147895D01*
X61922930Y-34147895D02*
X61946740Y-34124085D01*
X61946740Y-34124085D02*
X61994359Y-34100276D01*
X61994359Y-34100276D02*
X62065787Y-34100276D01*
X62065787Y-34100276D02*
X62113406Y-34124085D01*
X62113406Y-34124085D02*
X62137216Y-34147895D01*
X62137216Y-34147895D02*
X62161025Y-34195514D01*
X62161025Y-34195514D02*
X62161025Y-34338371D01*
X62161025Y-34338371D02*
X62137216Y-34385990D01*
X62137216Y-34385990D02*
X62113406Y-34409800D01*
X62113406Y-34409800D02*
X62065787Y-34433609D01*
X62065787Y-34433609D02*
X61994359Y-34433609D01*
X62375311Y-34433609D02*
X62375311Y-33933609D01*
X62422930Y-34243133D02*
X62565787Y-34433609D01*
X62565787Y-34100276D02*
X62375311Y-34290752D01*
X60637217Y-34933609D02*
X60946741Y-34933609D01*
X60946741Y-34933609D02*
X60780074Y-35124085D01*
X60780074Y-35124085D02*
X60851503Y-35124085D01*
X60851503Y-35124085D02*
X60899122Y-35147895D01*
X60899122Y-35147895D02*
X60922931Y-35171704D01*
X60922931Y-35171704D02*
X60946741Y-35219323D01*
X60946741Y-35219323D02*
X60946741Y-35338371D01*
X60946741Y-35338371D02*
X60922931Y-35385990D01*
X60922931Y-35385990D02*
X60899122Y-35409800D01*
X60899122Y-35409800D02*
X60851503Y-35433609D01*
X60851503Y-35433609D02*
X60708646Y-35433609D01*
X60708646Y-35433609D02*
X60661027Y-35409800D01*
X60661027Y-35409800D02*
X60637217Y-35385990D01*
X61161026Y-35385990D02*
X61184836Y-35409800D01*
X61184836Y-35409800D02*
X61161026Y-35433609D01*
X61161026Y-35433609D02*
X61137217Y-35409800D01*
X61137217Y-35409800D02*
X61161026Y-35385990D01*
X61161026Y-35385990D02*
X61161026Y-35433609D01*
X61351502Y-34933609D02*
X61661026Y-34933609D01*
X61661026Y-34933609D02*
X61494359Y-35124085D01*
X61494359Y-35124085D02*
X61565788Y-35124085D01*
X61565788Y-35124085D02*
X61613407Y-35147895D01*
X61613407Y-35147895D02*
X61637216Y-35171704D01*
X61637216Y-35171704D02*
X61661026Y-35219323D01*
X61661026Y-35219323D02*
X61661026Y-35338371D01*
X61661026Y-35338371D02*
X61637216Y-35385990D01*
X61637216Y-35385990D02*
X61613407Y-35409800D01*
X61613407Y-35409800D02*
X61565788Y-35433609D01*
X61565788Y-35433609D02*
X61422931Y-35433609D01*
X61422931Y-35433609D02*
X61375312Y-35409800D01*
X61375312Y-35409800D02*
X61351502Y-35385990D01*
X61827692Y-35100276D02*
X61946740Y-35433609D01*
X61946740Y-35433609D02*
X62065787Y-35100276D01*
X62708644Y-35433609D02*
X62661025Y-35409800D01*
X62661025Y-35409800D02*
X62637215Y-35385990D01*
X62637215Y-35385990D02*
X62613406Y-35338371D01*
X62613406Y-35338371D02*
X62613406Y-35195514D01*
X62613406Y-35195514D02*
X62637215Y-35147895D01*
X62637215Y-35147895D02*
X62661025Y-35124085D01*
X62661025Y-35124085D02*
X62708644Y-35100276D01*
X62708644Y-35100276D02*
X62780072Y-35100276D01*
X62780072Y-35100276D02*
X62827691Y-35124085D01*
X62827691Y-35124085D02*
X62851501Y-35147895D01*
X62851501Y-35147895D02*
X62875310Y-35195514D01*
X62875310Y-35195514D02*
X62875310Y-35338371D01*
X62875310Y-35338371D02*
X62851501Y-35385990D01*
X62851501Y-35385990D02*
X62827691Y-35409800D01*
X62827691Y-35409800D02*
X62780072Y-35433609D01*
X62780072Y-35433609D02*
X62708644Y-35433609D01*
X63089596Y-35433609D02*
X63089596Y-34933609D01*
X63137215Y-35243133D02*
X63280072Y-35433609D01*
X63280072Y-35100276D02*
X63089596Y-35290752D01*
X21603884Y-57179180D02*
X21756265Y-57179180D01*
X21661027Y-57045847D02*
X21661027Y-57388704D01*
X21661027Y-57388704D02*
X21680074Y-57426800D01*
X21680074Y-57426800D02*
X21718169Y-57445847D01*
X21718169Y-57445847D02*
X21756265Y-57445847D01*
X21889598Y-57445847D02*
X21889598Y-57045847D01*
X22061026Y-57445847D02*
X22061026Y-57236323D01*
X22061026Y-57236323D02*
X22041979Y-57198228D01*
X22041979Y-57198228D02*
X22003883Y-57179180D01*
X22003883Y-57179180D02*
X21946740Y-57179180D01*
X21946740Y-57179180D02*
X21908645Y-57198228D01*
X21908645Y-57198228D02*
X21889598Y-57217276D01*
X22251503Y-57445847D02*
X22251503Y-57179180D01*
X22251503Y-57045847D02*
X22232455Y-57064895D01*
X22232455Y-57064895D02*
X22251503Y-57083942D01*
X22251503Y-57083942D02*
X22270550Y-57064895D01*
X22270550Y-57064895D02*
X22251503Y-57045847D01*
X22251503Y-57045847D02*
X22251503Y-57083942D01*
X22422931Y-57426800D02*
X22461026Y-57445847D01*
X22461026Y-57445847D02*
X22537217Y-57445847D01*
X22537217Y-57445847D02*
X22575312Y-57426800D01*
X22575312Y-57426800D02*
X22594360Y-57388704D01*
X22594360Y-57388704D02*
X22594360Y-57369657D01*
X22594360Y-57369657D02*
X22575312Y-57331561D01*
X22575312Y-57331561D02*
X22537217Y-57312514D01*
X22537217Y-57312514D02*
X22480074Y-57312514D01*
X22480074Y-57312514D02*
X22441979Y-57293466D01*
X22441979Y-57293466D02*
X22422931Y-57255371D01*
X22422931Y-57255371D02*
X22422931Y-57236323D01*
X22422931Y-57236323D02*
X22441979Y-57198228D01*
X22441979Y-57198228D02*
X22480074Y-57179180D01*
X22480074Y-57179180D02*
X22537217Y-57179180D01*
X22537217Y-57179180D02*
X22575312Y-57198228D01*
X23032455Y-57179180D02*
X23241979Y-57179180D01*
X23241979Y-57179180D02*
X23032455Y-57445847D01*
X23032455Y-57445847D02*
X23241979Y-57445847D01*
X23451503Y-57445847D02*
X23413408Y-57426800D01*
X23413408Y-57426800D02*
X23394361Y-57407752D01*
X23394361Y-57407752D02*
X23375313Y-57369657D01*
X23375313Y-57369657D02*
X23375313Y-57255371D01*
X23375313Y-57255371D02*
X23394361Y-57217276D01*
X23394361Y-57217276D02*
X23413408Y-57198228D01*
X23413408Y-57198228D02*
X23451503Y-57179180D01*
X23451503Y-57179180D02*
X23508646Y-57179180D01*
X23508646Y-57179180D02*
X23546742Y-57198228D01*
X23546742Y-57198228D02*
X23565789Y-57217276D01*
X23565789Y-57217276D02*
X23584837Y-57255371D01*
X23584837Y-57255371D02*
X23584837Y-57369657D01*
X23584837Y-57369657D02*
X23565789Y-57407752D01*
X23565789Y-57407752D02*
X23546742Y-57426800D01*
X23546742Y-57426800D02*
X23508646Y-57445847D01*
X23508646Y-57445847D02*
X23451503Y-57445847D01*
X23756266Y-57179180D02*
X23756266Y-57445847D01*
X23756266Y-57217276D02*
X23775313Y-57198228D01*
X23775313Y-57198228D02*
X23813408Y-57179180D01*
X23813408Y-57179180D02*
X23870551Y-57179180D01*
X23870551Y-57179180D02*
X23908647Y-57198228D01*
X23908647Y-57198228D02*
X23927694Y-57236323D01*
X23927694Y-57236323D02*
X23927694Y-57445847D01*
X24270552Y-57426800D02*
X24232456Y-57445847D01*
X24232456Y-57445847D02*
X24156266Y-57445847D01*
X24156266Y-57445847D02*
X24118171Y-57426800D01*
X24118171Y-57426800D02*
X24099123Y-57388704D01*
X24099123Y-57388704D02*
X24099123Y-57236323D01*
X24099123Y-57236323D02*
X24118171Y-57198228D01*
X24118171Y-57198228D02*
X24156266Y-57179180D01*
X24156266Y-57179180D02*
X24232456Y-57179180D01*
X24232456Y-57179180D02*
X24270552Y-57198228D01*
X24270552Y-57198228D02*
X24289599Y-57236323D01*
X24289599Y-57236323D02*
X24289599Y-57274419D01*
X24289599Y-57274419D02*
X24099123Y-57312514D01*
X24765790Y-57445847D02*
X24765790Y-57179180D01*
X24765790Y-57045847D02*
X24746742Y-57064895D01*
X24746742Y-57064895D02*
X24765790Y-57083942D01*
X24765790Y-57083942D02*
X24784837Y-57064895D01*
X24784837Y-57064895D02*
X24765790Y-57045847D01*
X24765790Y-57045847D02*
X24765790Y-57083942D01*
X24937218Y-57426800D02*
X24975313Y-57445847D01*
X24975313Y-57445847D02*
X25051504Y-57445847D01*
X25051504Y-57445847D02*
X25089599Y-57426800D01*
X25089599Y-57426800D02*
X25108647Y-57388704D01*
X25108647Y-57388704D02*
X25108647Y-57369657D01*
X25108647Y-57369657D02*
X25089599Y-57331561D01*
X25089599Y-57331561D02*
X25051504Y-57312514D01*
X25051504Y-57312514D02*
X24994361Y-57312514D01*
X24994361Y-57312514D02*
X24956266Y-57293466D01*
X24956266Y-57293466D02*
X24937218Y-57255371D01*
X24937218Y-57255371D02*
X24937218Y-57236323D01*
X24937218Y-57236323D02*
X24956266Y-57198228D01*
X24956266Y-57198228D02*
X24994361Y-57179180D01*
X24994361Y-57179180D02*
X25051504Y-57179180D01*
X25051504Y-57179180D02*
X25089599Y-57198228D01*
X25546742Y-57045847D02*
X25794361Y-57045847D01*
X25794361Y-57045847D02*
X25661028Y-57198228D01*
X25661028Y-57198228D02*
X25718171Y-57198228D01*
X25718171Y-57198228D02*
X25756266Y-57217276D01*
X25756266Y-57217276D02*
X25775314Y-57236323D01*
X25775314Y-57236323D02*
X25794361Y-57274419D01*
X25794361Y-57274419D02*
X25794361Y-57369657D01*
X25794361Y-57369657D02*
X25775314Y-57407752D01*
X25775314Y-57407752D02*
X25756266Y-57426800D01*
X25756266Y-57426800D02*
X25718171Y-57445847D01*
X25718171Y-57445847D02*
X25603885Y-57445847D01*
X25603885Y-57445847D02*
X25565790Y-57426800D01*
X25565790Y-57426800D02*
X25546742Y-57407752D01*
X25965790Y-57407752D02*
X25984837Y-57426800D01*
X25984837Y-57426800D02*
X25965790Y-57445847D01*
X25965790Y-57445847D02*
X25946742Y-57426800D01*
X25946742Y-57426800D02*
X25965790Y-57407752D01*
X25965790Y-57407752D02*
X25965790Y-57445847D01*
X26118170Y-57045847D02*
X26365789Y-57045847D01*
X26365789Y-57045847D02*
X26232456Y-57198228D01*
X26232456Y-57198228D02*
X26289599Y-57198228D01*
X26289599Y-57198228D02*
X26327694Y-57217276D01*
X26327694Y-57217276D02*
X26346742Y-57236323D01*
X26346742Y-57236323D02*
X26365789Y-57274419D01*
X26365789Y-57274419D02*
X26365789Y-57369657D01*
X26365789Y-57369657D02*
X26346742Y-57407752D01*
X26346742Y-57407752D02*
X26327694Y-57426800D01*
X26327694Y-57426800D02*
X26289599Y-57445847D01*
X26289599Y-57445847D02*
X26175313Y-57445847D01*
X26175313Y-57445847D02*
X26137218Y-57426800D01*
X26137218Y-57426800D02*
X26118170Y-57407752D01*
X26499122Y-57179180D02*
X26594360Y-57445847D01*
X26594360Y-57445847D02*
X26689599Y-57179180D01*
D11*
X55836779Y-69878922D02*
X56598684Y-69878922D01*
X56217731Y-70259875D02*
X56217731Y-69497970D01*
X57312969Y-70593208D02*
X57312969Y-69164636D01*
X58027255Y-69878922D02*
X58789160Y-69878922D01*
X56360588Y-71869819D02*
X55789160Y-71869819D01*
X56074874Y-71869819D02*
X56074874Y-70869819D01*
X56074874Y-70869819D02*
X55979636Y-71012676D01*
X55979636Y-71012676D02*
X55884398Y-71107914D01*
X55884398Y-71107914D02*
X55789160Y-71155533D01*
X56741541Y-70965057D02*
X56789160Y-70917438D01*
X56789160Y-70917438D02*
X56884398Y-70869819D01*
X56884398Y-70869819D02*
X57122493Y-70869819D01*
X57122493Y-70869819D02*
X57217731Y-70917438D01*
X57217731Y-70917438D02*
X57265350Y-70965057D01*
X57265350Y-70965057D02*
X57312969Y-71060295D01*
X57312969Y-71060295D02*
X57312969Y-71155533D01*
X57312969Y-71155533D02*
X57265350Y-71298390D01*
X57265350Y-71298390D02*
X56693922Y-71869819D01*
X56693922Y-71869819D02*
X57312969Y-71869819D01*
X57646303Y-71203152D02*
X57884398Y-71869819D01*
X57884398Y-71869819D02*
X58122493Y-71203152D01*
X59265351Y-71869819D02*
X59265351Y-71203152D01*
X59265351Y-70869819D02*
X59217732Y-70917438D01*
X59217732Y-70917438D02*
X59265351Y-70965057D01*
X59265351Y-70965057D02*
X59312970Y-70917438D01*
X59312970Y-70917438D02*
X59265351Y-70869819D01*
X59265351Y-70869819D02*
X59265351Y-70965057D01*
X59741541Y-71203152D02*
X59741541Y-71869819D01*
X59741541Y-71298390D02*
X59789160Y-71250771D01*
X59789160Y-71250771D02*
X59884398Y-71203152D01*
X59884398Y-71203152D02*
X60027255Y-71203152D01*
X60027255Y-71203152D02*
X60122493Y-71250771D01*
X60122493Y-71250771D02*
X60170112Y-71346009D01*
X60170112Y-71346009D02*
X60170112Y-71869819D01*
D10*
X27338972Y-44554152D02*
X27338972Y-44820819D01*
X27338972Y-44954152D02*
X27358020Y-44935104D01*
X27358020Y-44935104D02*
X27338972Y-44916057D01*
X27338972Y-44916057D02*
X27319925Y-44935104D01*
X27319925Y-44935104D02*
X27338972Y-44954152D01*
X27338972Y-44954152D02*
X27338972Y-44916057D01*
X27148496Y-44554152D02*
X27148496Y-44820819D01*
X27148496Y-44782723D02*
X27129449Y-44801771D01*
X27129449Y-44801771D02*
X27091354Y-44820819D01*
X27091354Y-44820819D02*
X27034211Y-44820819D01*
X27034211Y-44820819D02*
X26996115Y-44801771D01*
X26996115Y-44801771D02*
X26977068Y-44763676D01*
X26977068Y-44763676D02*
X26977068Y-44554152D01*
X26977068Y-44763676D02*
X26958020Y-44801771D01*
X26958020Y-44801771D02*
X26919925Y-44820819D01*
X26919925Y-44820819D02*
X26862782Y-44820819D01*
X26862782Y-44820819D02*
X26824687Y-44801771D01*
X26824687Y-44801771D02*
X26805639Y-44763676D01*
X26805639Y-44763676D02*
X26805639Y-44554152D01*
X26443735Y-44820819D02*
X26443735Y-44554152D01*
X26615163Y-44820819D02*
X26615163Y-44611295D01*
X26615163Y-44611295D02*
X26596116Y-44573200D01*
X26596116Y-44573200D02*
X26558021Y-44554152D01*
X26558021Y-44554152D02*
X26500878Y-44554152D01*
X26500878Y-44554152D02*
X26462782Y-44573200D01*
X26462782Y-44573200D02*
X26443735Y-44592247D01*
D11*
X64261905Y-34454819D02*
X64261905Y-33454819D01*
X64261905Y-33454819D02*
X64500000Y-33454819D01*
X64500000Y-33454819D02*
X64642857Y-33502438D01*
X64642857Y-33502438D02*
X64738095Y-33597676D01*
X64738095Y-33597676D02*
X64785714Y-33692914D01*
X64785714Y-33692914D02*
X64833333Y-33883390D01*
X64833333Y-33883390D02*
X64833333Y-34026247D01*
X64833333Y-34026247D02*
X64785714Y-34216723D01*
X64785714Y-34216723D02*
X64738095Y-34311961D01*
X64738095Y-34311961D02*
X64642857Y-34407200D01*
X64642857Y-34407200D02*
X64500000Y-34454819D01*
X64500000Y-34454819D02*
X64261905Y-34454819D01*
X65214286Y-33550057D02*
X65261905Y-33502438D01*
X65261905Y-33502438D02*
X65357143Y-33454819D01*
X65357143Y-33454819D02*
X65595238Y-33454819D01*
X65595238Y-33454819D02*
X65690476Y-33502438D01*
X65690476Y-33502438D02*
X65738095Y-33550057D01*
X65738095Y-33550057D02*
X65785714Y-33645295D01*
X65785714Y-33645295D02*
X65785714Y-33740533D01*
X65785714Y-33740533D02*
X65738095Y-33883390D01*
X65738095Y-33883390D02*
X65166667Y-34454819D01*
X65166667Y-34454819D02*
X65785714Y-34454819D01*
X64261905Y-32954819D02*
X64261905Y-31954819D01*
X64261905Y-31954819D02*
X64500000Y-31954819D01*
X64500000Y-31954819D02*
X64642857Y-32002438D01*
X64642857Y-32002438D02*
X64738095Y-32097676D01*
X64738095Y-32097676D02*
X64785714Y-32192914D01*
X64785714Y-32192914D02*
X64833333Y-32383390D01*
X64833333Y-32383390D02*
X64833333Y-32526247D01*
X64833333Y-32526247D02*
X64785714Y-32716723D01*
X64785714Y-32716723D02*
X64738095Y-32811961D01*
X64738095Y-32811961D02*
X64642857Y-32907200D01*
X64642857Y-32907200D02*
X64500000Y-32954819D01*
X64500000Y-32954819D02*
X64261905Y-32954819D01*
X65166667Y-31954819D02*
X65785714Y-31954819D01*
X65785714Y-31954819D02*
X65452381Y-32335771D01*
X65452381Y-32335771D02*
X65595238Y-32335771D01*
X65595238Y-32335771D02*
X65690476Y-32383390D01*
X65690476Y-32383390D02*
X65738095Y-32431009D01*
X65738095Y-32431009D02*
X65785714Y-32526247D01*
X65785714Y-32526247D02*
X65785714Y-32764342D01*
X65785714Y-32764342D02*
X65738095Y-32859580D01*
X65738095Y-32859580D02*
X65690476Y-32907200D01*
X65690476Y-32907200D02*
X65595238Y-32954819D01*
X65595238Y-32954819D02*
X65309524Y-32954819D01*
X65309524Y-32954819D02*
X65214286Y-32907200D01*
X65214286Y-32907200D02*
X65166667Y-32859580D01*
X64261905Y-35954819D02*
X64261905Y-34954819D01*
X64261905Y-34954819D02*
X64500000Y-34954819D01*
X64500000Y-34954819D02*
X64642857Y-35002438D01*
X64642857Y-35002438D02*
X64738095Y-35097676D01*
X64738095Y-35097676D02*
X64785714Y-35192914D01*
X64785714Y-35192914D02*
X64833333Y-35383390D01*
X64833333Y-35383390D02*
X64833333Y-35526247D01*
X64833333Y-35526247D02*
X64785714Y-35716723D01*
X64785714Y-35716723D02*
X64738095Y-35811961D01*
X64738095Y-35811961D02*
X64642857Y-35907200D01*
X64642857Y-35907200D02*
X64500000Y-35954819D01*
X64500000Y-35954819D02*
X64261905Y-35954819D01*
X65785714Y-35954819D02*
X65214286Y-35954819D01*
X65500000Y-35954819D02*
X65500000Y-34954819D01*
X65500000Y-34954819D02*
X65404762Y-35097676D01*
X65404762Y-35097676D02*
X65309524Y-35192914D01*
X65309524Y-35192914D02*
X65214286Y-35240533D01*
X44261905Y-32454819D02*
X44833333Y-32454819D01*
X44547619Y-33454819D02*
X44547619Y-32454819D01*
X45166667Y-33454819D02*
X45166667Y-32454819D01*
X45166667Y-32454819D02*
X45547619Y-32454819D01*
X45547619Y-32454819D02*
X45642857Y-32502438D01*
X45642857Y-32502438D02*
X45690476Y-32550057D01*
X45690476Y-32550057D02*
X45738095Y-32645295D01*
X45738095Y-32645295D02*
X45738095Y-32788152D01*
X45738095Y-32788152D02*
X45690476Y-32883390D01*
X45690476Y-32883390D02*
X45642857Y-32931009D01*
X45642857Y-32931009D02*
X45547619Y-32978628D01*
X45547619Y-32978628D02*
X45166667Y-32978628D01*
X46690476Y-33454819D02*
X46119048Y-33454819D01*
X46404762Y-33454819D02*
X46404762Y-32454819D01*
X46404762Y-32454819D02*
X46309524Y-32597676D01*
X46309524Y-32597676D02*
X46214286Y-32692914D01*
X46214286Y-32692914D02*
X46119048Y-32740533D01*
X47023810Y-32454819D02*
X47642857Y-32454819D01*
X47642857Y-32454819D02*
X47309524Y-32835771D01*
X47309524Y-32835771D02*
X47452381Y-32835771D01*
X47452381Y-32835771D02*
X47547619Y-32883390D01*
X47547619Y-32883390D02*
X47595238Y-32931009D01*
X47595238Y-32931009D02*
X47642857Y-33026247D01*
X47642857Y-33026247D02*
X47642857Y-33264342D01*
X47642857Y-33264342D02*
X47595238Y-33359580D01*
X47595238Y-33359580D02*
X47547619Y-33407200D01*
X47547619Y-33407200D02*
X47452381Y-33454819D01*
X47452381Y-33454819D02*
X47166667Y-33454819D01*
X47166667Y-33454819D02*
X47071429Y-33407200D01*
X47071429Y-33407200D02*
X47023810Y-33359580D01*
X47761905Y-32506819D02*
X48333333Y-32506819D01*
X48047619Y-33506819D02*
X48047619Y-32506819D01*
X48666667Y-33506819D02*
X48666667Y-32506819D01*
X48666667Y-32506819D02*
X49047619Y-32506819D01*
X49047619Y-32506819D02*
X49142857Y-32554438D01*
X49142857Y-32554438D02*
X49190476Y-32602057D01*
X49190476Y-32602057D02*
X49238095Y-32697295D01*
X49238095Y-32697295D02*
X49238095Y-32840152D01*
X49238095Y-32840152D02*
X49190476Y-32935390D01*
X49190476Y-32935390D02*
X49142857Y-32983009D01*
X49142857Y-32983009D02*
X49047619Y-33030628D01*
X49047619Y-33030628D02*
X48666667Y-33030628D01*
X50190476Y-33506819D02*
X49619048Y-33506819D01*
X49904762Y-33506819D02*
X49904762Y-32506819D01*
X49904762Y-32506819D02*
X49809524Y-32649676D01*
X49809524Y-32649676D02*
X49714286Y-32744914D01*
X49714286Y-32744914D02*
X49619048Y-32792533D01*
X50571429Y-32602057D02*
X50619048Y-32554438D01*
X50619048Y-32554438D02*
X50714286Y-32506819D01*
X50714286Y-32506819D02*
X50952381Y-32506819D01*
X50952381Y-32506819D02*
X51047619Y-32554438D01*
X51047619Y-32554438D02*
X51095238Y-32602057D01*
X51095238Y-32602057D02*
X51142857Y-32697295D01*
X51142857Y-32697295D02*
X51142857Y-32792533D01*
X51142857Y-32792533D02*
X51095238Y-32935390D01*
X51095238Y-32935390D02*
X50523810Y-33506819D01*
X50523810Y-33506819D02*
X51142857Y-33506819D01*
X31954819Y-44238094D02*
X31954819Y-43666666D01*
X32954819Y-43952380D02*
X31954819Y-43952380D01*
X32954819Y-43333332D02*
X31954819Y-43333332D01*
X31954819Y-43333332D02*
X31954819Y-42952380D01*
X31954819Y-42952380D02*
X32002438Y-42857142D01*
X32002438Y-42857142D02*
X32050057Y-42809523D01*
X32050057Y-42809523D02*
X32145295Y-42761904D01*
X32145295Y-42761904D02*
X32288152Y-42761904D01*
X32288152Y-42761904D02*
X32383390Y-42809523D01*
X32383390Y-42809523D02*
X32431009Y-42857142D01*
X32431009Y-42857142D02*
X32478628Y-42952380D01*
X32478628Y-42952380D02*
X32478628Y-43333332D01*
X32954819Y-41809523D02*
X32954819Y-42380951D01*
X32954819Y-42095237D02*
X31954819Y-42095237D01*
X31954819Y-42095237D02*
X32097676Y-42190475D01*
X32097676Y-42190475D02*
X32192914Y-42285713D01*
X32192914Y-42285713D02*
X32240533Y-42380951D01*
X32954819Y-40857142D02*
X32954819Y-41428570D01*
X32954819Y-41142856D02*
X31954819Y-41142856D01*
X31954819Y-41142856D02*
X32097676Y-41238094D01*
X32097676Y-41238094D02*
X32192914Y-41333332D01*
X32192914Y-41333332D02*
X32240533Y-41428570D01*
X29506819Y-49238094D02*
X29506819Y-48666666D01*
X30506819Y-48952380D02*
X29506819Y-48952380D01*
X30506819Y-48333332D02*
X29506819Y-48333332D01*
X29506819Y-48333332D02*
X29506819Y-47952380D01*
X29506819Y-47952380D02*
X29554438Y-47857142D01*
X29554438Y-47857142D02*
X29602057Y-47809523D01*
X29602057Y-47809523D02*
X29697295Y-47761904D01*
X29697295Y-47761904D02*
X29840152Y-47761904D01*
X29840152Y-47761904D02*
X29935390Y-47809523D01*
X29935390Y-47809523D02*
X29983009Y-47857142D01*
X29983009Y-47857142D02*
X30030628Y-47952380D01*
X30030628Y-47952380D02*
X30030628Y-48333332D01*
X30506819Y-46809523D02*
X30506819Y-47380951D01*
X30506819Y-47095237D02*
X29506819Y-47095237D01*
X29506819Y-47095237D02*
X29649676Y-47190475D01*
X29649676Y-47190475D02*
X29744914Y-47285713D01*
X29744914Y-47285713D02*
X29792533Y-47380951D01*
X29506819Y-46190475D02*
X29506819Y-46095237D01*
X29506819Y-46095237D02*
X29554438Y-45999999D01*
X29554438Y-45999999D02*
X29602057Y-45952380D01*
X29602057Y-45952380D02*
X29697295Y-45904761D01*
X29697295Y-45904761D02*
X29887771Y-45857142D01*
X29887771Y-45857142D02*
X30125866Y-45857142D01*
X30125866Y-45857142D02*
X30316342Y-45904761D01*
X30316342Y-45904761D02*
X30411580Y-45952380D01*
X30411580Y-45952380D02*
X30459200Y-45999999D01*
X30459200Y-45999999D02*
X30506819Y-46095237D01*
X30506819Y-46095237D02*
X30506819Y-46190475D01*
X30506819Y-46190475D02*
X30459200Y-46285713D01*
X30459200Y-46285713D02*
X30411580Y-46333332D01*
X30411580Y-46333332D02*
X30316342Y-46380951D01*
X30316342Y-46380951D02*
X30125866Y-46428570D01*
X30125866Y-46428570D02*
X29887771Y-46428570D01*
X29887771Y-46428570D02*
X29697295Y-46380951D01*
X29697295Y-46380951D02*
X29602057Y-46333332D01*
X29602057Y-46333332D02*
X29554438Y-46285713D01*
X29554438Y-46285713D02*
X29506819Y-46190475D01*
X31506819Y-46761904D02*
X31506819Y-46190476D01*
X32506819Y-46476190D02*
X31506819Y-46476190D01*
X32506819Y-45857142D02*
X31506819Y-45857142D01*
X31506819Y-45857142D02*
X31506819Y-45476190D01*
X31506819Y-45476190D02*
X31554438Y-45380952D01*
X31554438Y-45380952D02*
X31602057Y-45333333D01*
X31602057Y-45333333D02*
X31697295Y-45285714D01*
X31697295Y-45285714D02*
X31840152Y-45285714D01*
X31840152Y-45285714D02*
X31935390Y-45333333D01*
X31935390Y-45333333D02*
X31983009Y-45380952D01*
X31983009Y-45380952D02*
X32030628Y-45476190D01*
X32030628Y-45476190D02*
X32030628Y-45857142D01*
X32506819Y-44809523D02*
X32506819Y-44619047D01*
X32506819Y-44619047D02*
X32459200Y-44523809D01*
X32459200Y-44523809D02*
X32411580Y-44476190D01*
X32411580Y-44476190D02*
X32268723Y-44380952D01*
X32268723Y-44380952D02*
X32078247Y-44333333D01*
X32078247Y-44333333D02*
X31697295Y-44333333D01*
X31697295Y-44333333D02*
X31602057Y-44380952D01*
X31602057Y-44380952D02*
X31554438Y-44428571D01*
X31554438Y-44428571D02*
X31506819Y-44523809D01*
X31506819Y-44523809D02*
X31506819Y-44714285D01*
X31506819Y-44714285D02*
X31554438Y-44809523D01*
X31554438Y-44809523D02*
X31602057Y-44857142D01*
X31602057Y-44857142D02*
X31697295Y-44904761D01*
X31697295Y-44904761D02*
X31935390Y-44904761D01*
X31935390Y-44904761D02*
X32030628Y-44857142D01*
X32030628Y-44857142D02*
X32078247Y-44809523D01*
X32078247Y-44809523D02*
X32125866Y-44714285D01*
X32125866Y-44714285D02*
X32125866Y-44523809D01*
X32125866Y-44523809D02*
X32078247Y-44428571D01*
X32078247Y-44428571D02*
X32030628Y-44380952D01*
X32030628Y-44380952D02*
X31935390Y-44333333D01*
X33738095Y-47954819D02*
X34309523Y-47954819D01*
X34023809Y-48954819D02*
X34023809Y-47954819D01*
X34642857Y-48954819D02*
X34642857Y-47954819D01*
X34642857Y-47954819D02*
X35023809Y-47954819D01*
X35023809Y-47954819D02*
X35119047Y-48002438D01*
X35119047Y-48002438D02*
X35166666Y-48050057D01*
X35166666Y-48050057D02*
X35214285Y-48145295D01*
X35214285Y-48145295D02*
X35214285Y-48288152D01*
X35214285Y-48288152D02*
X35166666Y-48383390D01*
X35166666Y-48383390D02*
X35119047Y-48431009D01*
X35119047Y-48431009D02*
X35023809Y-48478628D01*
X35023809Y-48478628D02*
X34642857Y-48478628D01*
X35785714Y-48383390D02*
X35690476Y-48335771D01*
X35690476Y-48335771D02*
X35642857Y-48288152D01*
X35642857Y-48288152D02*
X35595238Y-48192914D01*
X35595238Y-48192914D02*
X35595238Y-48145295D01*
X35595238Y-48145295D02*
X35642857Y-48050057D01*
X35642857Y-48050057D02*
X35690476Y-48002438D01*
X35690476Y-48002438D02*
X35785714Y-47954819D01*
X35785714Y-47954819D02*
X35976190Y-47954819D01*
X35976190Y-47954819D02*
X36071428Y-48002438D01*
X36071428Y-48002438D02*
X36119047Y-48050057D01*
X36119047Y-48050057D02*
X36166666Y-48145295D01*
X36166666Y-48145295D02*
X36166666Y-48192914D01*
X36166666Y-48192914D02*
X36119047Y-48288152D01*
X36119047Y-48288152D02*
X36071428Y-48335771D01*
X36071428Y-48335771D02*
X35976190Y-48383390D01*
X35976190Y-48383390D02*
X35785714Y-48383390D01*
X35785714Y-48383390D02*
X35690476Y-48431009D01*
X35690476Y-48431009D02*
X35642857Y-48478628D01*
X35642857Y-48478628D02*
X35595238Y-48573866D01*
X35595238Y-48573866D02*
X35595238Y-48764342D01*
X35595238Y-48764342D02*
X35642857Y-48859580D01*
X35642857Y-48859580D02*
X35690476Y-48907200D01*
X35690476Y-48907200D02*
X35785714Y-48954819D01*
X35785714Y-48954819D02*
X35976190Y-48954819D01*
X35976190Y-48954819D02*
X36071428Y-48907200D01*
X36071428Y-48907200D02*
X36119047Y-48859580D01*
X36119047Y-48859580D02*
X36166666Y-48764342D01*
X36166666Y-48764342D02*
X36166666Y-48573866D01*
X36166666Y-48573866D02*
X36119047Y-48478628D01*
X36119047Y-48478628D02*
X36071428Y-48431009D01*
X36071428Y-48431009D02*
X35976190Y-48383390D01*
X36738095Y-47954819D02*
X37309523Y-47954819D01*
X37023809Y-48954819D02*
X37023809Y-47954819D01*
X37642857Y-48954819D02*
X37642857Y-47954819D01*
X37642857Y-47954819D02*
X38023809Y-47954819D01*
X38023809Y-47954819D02*
X38119047Y-48002438D01*
X38119047Y-48002438D02*
X38166666Y-48050057D01*
X38166666Y-48050057D02*
X38214285Y-48145295D01*
X38214285Y-48145295D02*
X38214285Y-48288152D01*
X38214285Y-48288152D02*
X38166666Y-48383390D01*
X38166666Y-48383390D02*
X38119047Y-48431009D01*
X38119047Y-48431009D02*
X38023809Y-48478628D01*
X38023809Y-48478628D02*
X37642857Y-48478628D01*
X38547619Y-47954819D02*
X39214285Y-47954819D01*
X39214285Y-47954819D02*
X38785714Y-48954819D01*
X48238095Y-38954819D02*
X48809523Y-38954819D01*
X48523809Y-39954819D02*
X48523809Y-38954819D01*
X49142857Y-39954819D02*
X49142857Y-38954819D01*
X49142857Y-38954819D02*
X49523809Y-38954819D01*
X49523809Y-38954819D02*
X49619047Y-39002438D01*
X49619047Y-39002438D02*
X49666666Y-39050057D01*
X49666666Y-39050057D02*
X49714285Y-39145295D01*
X49714285Y-39145295D02*
X49714285Y-39288152D01*
X49714285Y-39288152D02*
X49666666Y-39383390D01*
X49666666Y-39383390D02*
X49619047Y-39431009D01*
X49619047Y-39431009D02*
X49523809Y-39478628D01*
X49523809Y-39478628D02*
X49142857Y-39478628D01*
X50571428Y-38954819D02*
X50380952Y-38954819D01*
X50380952Y-38954819D02*
X50285714Y-39002438D01*
X50285714Y-39002438D02*
X50238095Y-39050057D01*
X50238095Y-39050057D02*
X50142857Y-39192914D01*
X50142857Y-39192914D02*
X50095238Y-39383390D01*
X50095238Y-39383390D02*
X50095238Y-39764342D01*
X50095238Y-39764342D02*
X50142857Y-39859580D01*
X50142857Y-39859580D02*
X50190476Y-39907200D01*
X50190476Y-39907200D02*
X50285714Y-39954819D01*
X50285714Y-39954819D02*
X50476190Y-39954819D01*
X50476190Y-39954819D02*
X50571428Y-39907200D01*
X50571428Y-39907200D02*
X50619047Y-39859580D01*
X50619047Y-39859580D02*
X50666666Y-39764342D01*
X50666666Y-39764342D02*
X50666666Y-39526247D01*
X50666666Y-39526247D02*
X50619047Y-39431009D01*
X50619047Y-39431009D02*
X50571428Y-39383390D01*
X50571428Y-39383390D02*
X50476190Y-39335771D01*
X50476190Y-39335771D02*
X50285714Y-39335771D01*
X50285714Y-39335771D02*
X50190476Y-39383390D01*
X50190476Y-39383390D02*
X50142857Y-39431009D01*
X50142857Y-39431009D02*
X50095238Y-39526247D01*
X33454819Y-43761904D02*
X33454819Y-43190476D01*
X34454819Y-43476190D02*
X33454819Y-43476190D01*
X34454819Y-42857142D02*
X33454819Y-42857142D01*
X33454819Y-42857142D02*
X33454819Y-42476190D01*
X33454819Y-42476190D02*
X33502438Y-42380952D01*
X33502438Y-42380952D02*
X33550057Y-42333333D01*
X33550057Y-42333333D02*
X33645295Y-42285714D01*
X33645295Y-42285714D02*
X33788152Y-42285714D01*
X33788152Y-42285714D02*
X33883390Y-42333333D01*
X33883390Y-42333333D02*
X33931009Y-42380952D01*
X33931009Y-42380952D02*
X33978628Y-42476190D01*
X33978628Y-42476190D02*
X33978628Y-42857142D01*
X33454819Y-41380952D02*
X33454819Y-41857142D01*
X33454819Y-41857142D02*
X33931009Y-41904761D01*
X33931009Y-41904761D02*
X33883390Y-41857142D01*
X33883390Y-41857142D02*
X33835771Y-41761904D01*
X33835771Y-41761904D02*
X33835771Y-41523809D01*
X33835771Y-41523809D02*
X33883390Y-41428571D01*
X33883390Y-41428571D02*
X33931009Y-41380952D01*
X33931009Y-41380952D02*
X34026247Y-41333333D01*
X34026247Y-41333333D02*
X34264342Y-41333333D01*
X34264342Y-41333333D02*
X34359580Y-41380952D01*
X34359580Y-41380952D02*
X34407200Y-41428571D01*
X34407200Y-41428571D02*
X34454819Y-41523809D01*
X34454819Y-41523809D02*
X34454819Y-41761904D01*
X34454819Y-41761904D02*
X34407200Y-41857142D01*
X34407200Y-41857142D02*
X34359580Y-41904761D01*
X30506819Y-41261904D02*
X30506819Y-40690476D01*
X31506819Y-40976190D02*
X30506819Y-40976190D01*
X31506819Y-40357142D02*
X30506819Y-40357142D01*
X30506819Y-40357142D02*
X30506819Y-39976190D01*
X30506819Y-39976190D02*
X30554438Y-39880952D01*
X30554438Y-39880952D02*
X30602057Y-39833333D01*
X30602057Y-39833333D02*
X30697295Y-39785714D01*
X30697295Y-39785714D02*
X30840152Y-39785714D01*
X30840152Y-39785714D02*
X30935390Y-39833333D01*
X30935390Y-39833333D02*
X30983009Y-39880952D01*
X30983009Y-39880952D02*
X31030628Y-39976190D01*
X31030628Y-39976190D02*
X31030628Y-40357142D01*
X30840152Y-38928571D02*
X31506819Y-38928571D01*
X30459200Y-39166666D02*
X31173485Y-39404761D01*
X31173485Y-39404761D02*
X31173485Y-38785714D01*
X30738095Y-35954819D02*
X31309523Y-35954819D01*
X31023809Y-36954819D02*
X31023809Y-35954819D01*
X31642857Y-36954819D02*
X31642857Y-35954819D01*
X31642857Y-35954819D02*
X32023809Y-35954819D01*
X32023809Y-35954819D02*
X32119047Y-36002438D01*
X32119047Y-36002438D02*
X32166666Y-36050057D01*
X32166666Y-36050057D02*
X32214285Y-36145295D01*
X32214285Y-36145295D02*
X32214285Y-36288152D01*
X32214285Y-36288152D02*
X32166666Y-36383390D01*
X32166666Y-36383390D02*
X32119047Y-36431009D01*
X32119047Y-36431009D02*
X32023809Y-36478628D01*
X32023809Y-36478628D02*
X31642857Y-36478628D01*
X32547619Y-35954819D02*
X33166666Y-35954819D01*
X33166666Y-35954819D02*
X32833333Y-36335771D01*
X32833333Y-36335771D02*
X32976190Y-36335771D01*
X32976190Y-36335771D02*
X33071428Y-36383390D01*
X33071428Y-36383390D02*
X33119047Y-36431009D01*
X33119047Y-36431009D02*
X33166666Y-36526247D01*
X33166666Y-36526247D02*
X33166666Y-36764342D01*
X33166666Y-36764342D02*
X33119047Y-36859580D01*
X33119047Y-36859580D02*
X33071428Y-36907200D01*
X33071428Y-36907200D02*
X32976190Y-36954819D01*
X32976190Y-36954819D02*
X32690476Y-36954819D01*
X32690476Y-36954819D02*
X32595238Y-36907200D01*
X32595238Y-36907200D02*
X32547619Y-36859580D01*
X44238095Y-43506819D02*
X44809523Y-43506819D01*
X44523809Y-44506819D02*
X44523809Y-43506819D01*
X45142857Y-44506819D02*
X45142857Y-43506819D01*
X45142857Y-43506819D02*
X45523809Y-43506819D01*
X45523809Y-43506819D02*
X45619047Y-43554438D01*
X45619047Y-43554438D02*
X45666666Y-43602057D01*
X45666666Y-43602057D02*
X45714285Y-43697295D01*
X45714285Y-43697295D02*
X45714285Y-43840152D01*
X45714285Y-43840152D02*
X45666666Y-43935390D01*
X45666666Y-43935390D02*
X45619047Y-43983009D01*
X45619047Y-43983009D02*
X45523809Y-44030628D01*
X45523809Y-44030628D02*
X45142857Y-44030628D01*
X46095238Y-43602057D02*
X46142857Y-43554438D01*
X46142857Y-43554438D02*
X46238095Y-43506819D01*
X46238095Y-43506819D02*
X46476190Y-43506819D01*
X46476190Y-43506819D02*
X46571428Y-43554438D01*
X46571428Y-43554438D02*
X46619047Y-43602057D01*
X46619047Y-43602057D02*
X46666666Y-43697295D01*
X46666666Y-43697295D02*
X46666666Y-43792533D01*
X46666666Y-43792533D02*
X46619047Y-43935390D01*
X46619047Y-43935390D02*
X46047619Y-44506819D01*
X46047619Y-44506819D02*
X46666666Y-44506819D01*
X45857142Y-55369580D02*
X45809523Y-55417200D01*
X45809523Y-55417200D02*
X45666666Y-55464819D01*
X45666666Y-55464819D02*
X45571428Y-55464819D01*
X45571428Y-55464819D02*
X45428571Y-55417200D01*
X45428571Y-55417200D02*
X45333333Y-55321961D01*
X45333333Y-55321961D02*
X45285714Y-55226723D01*
X45285714Y-55226723D02*
X45238095Y-55036247D01*
X45238095Y-55036247D02*
X45238095Y-54893390D01*
X45238095Y-54893390D02*
X45285714Y-54702914D01*
X45285714Y-54702914D02*
X45333333Y-54607676D01*
X45333333Y-54607676D02*
X45428571Y-54512438D01*
X45428571Y-54512438D02*
X45571428Y-54464819D01*
X45571428Y-54464819D02*
X45666666Y-54464819D01*
X45666666Y-54464819D02*
X45809523Y-54512438D01*
X45809523Y-54512438D02*
X45857142Y-54560057D01*
X46809523Y-55464819D02*
X46238095Y-55464819D01*
X46523809Y-55464819D02*
X46523809Y-54464819D01*
X46523809Y-54464819D02*
X46428571Y-54607676D01*
X46428571Y-54607676D02*
X46333333Y-54702914D01*
X46333333Y-54702914D02*
X46238095Y-54750533D01*
X47428571Y-54464819D02*
X47523809Y-54464819D01*
X47523809Y-54464819D02*
X47619047Y-54512438D01*
X47619047Y-54512438D02*
X47666666Y-54560057D01*
X47666666Y-54560057D02*
X47714285Y-54655295D01*
X47714285Y-54655295D02*
X47761904Y-54845771D01*
X47761904Y-54845771D02*
X47761904Y-55083866D01*
X47761904Y-55083866D02*
X47714285Y-55274342D01*
X47714285Y-55274342D02*
X47666666Y-55369580D01*
X47666666Y-55369580D02*
X47619047Y-55417200D01*
X47619047Y-55417200D02*
X47523809Y-55464819D01*
X47523809Y-55464819D02*
X47428571Y-55464819D01*
X47428571Y-55464819D02*
X47333333Y-55417200D01*
X47333333Y-55417200D02*
X47285714Y-55369580D01*
X47285714Y-55369580D02*
X47238095Y-55274342D01*
X47238095Y-55274342D02*
X47190476Y-55083866D01*
X47190476Y-55083866D02*
X47190476Y-54845771D01*
X47190476Y-54845771D02*
X47238095Y-54655295D01*
X47238095Y-54655295D02*
X47285714Y-54560057D01*
X47285714Y-54560057D02*
X47333333Y-54512438D01*
X47333333Y-54512438D02*
X47428571Y-54464819D01*
X21857142Y-46699580D02*
X21809523Y-46747200D01*
X21809523Y-46747200D02*
X21666666Y-46794819D01*
X21666666Y-46794819D02*
X21571428Y-46794819D01*
X21571428Y-46794819D02*
X21428571Y-46747200D01*
X21428571Y-46747200D02*
X21333333Y-46651961D01*
X21333333Y-46651961D02*
X21285714Y-46556723D01*
X21285714Y-46556723D02*
X21238095Y-46366247D01*
X21238095Y-46366247D02*
X21238095Y-46223390D01*
X21238095Y-46223390D02*
X21285714Y-46032914D01*
X21285714Y-46032914D02*
X21333333Y-45937676D01*
X21333333Y-45937676D02*
X21428571Y-45842438D01*
X21428571Y-45842438D02*
X21571428Y-45794819D01*
X21571428Y-45794819D02*
X21666666Y-45794819D01*
X21666666Y-45794819D02*
X21809523Y-45842438D01*
X21809523Y-45842438D02*
X21857142Y-45890057D01*
X22238095Y-45890057D02*
X22285714Y-45842438D01*
X22285714Y-45842438D02*
X22380952Y-45794819D01*
X22380952Y-45794819D02*
X22619047Y-45794819D01*
X22619047Y-45794819D02*
X22714285Y-45842438D01*
X22714285Y-45842438D02*
X22761904Y-45890057D01*
X22761904Y-45890057D02*
X22809523Y-45985295D01*
X22809523Y-45985295D02*
X22809523Y-46080533D01*
X22809523Y-46080533D02*
X22761904Y-46223390D01*
X22761904Y-46223390D02*
X22190476Y-46794819D01*
X22190476Y-46794819D02*
X22809523Y-46794819D01*
X23142857Y-45794819D02*
X23761904Y-45794819D01*
X23761904Y-45794819D02*
X23428571Y-46175771D01*
X23428571Y-46175771D02*
X23571428Y-46175771D01*
X23571428Y-46175771D02*
X23666666Y-46223390D01*
X23666666Y-46223390D02*
X23714285Y-46271009D01*
X23714285Y-46271009D02*
X23761904Y-46366247D01*
X23761904Y-46366247D02*
X23761904Y-46604342D01*
X23761904Y-46604342D02*
X23714285Y-46699580D01*
X23714285Y-46699580D02*
X23666666Y-46747200D01*
X23666666Y-46747200D02*
X23571428Y-46794819D01*
X23571428Y-46794819D02*
X23285714Y-46794819D01*
X23285714Y-46794819D02*
X23190476Y-46747200D01*
X23190476Y-46747200D02*
X23142857Y-46699580D01*
X22199580Y-50142857D02*
X22247200Y-50190476D01*
X22247200Y-50190476D02*
X22294819Y-50333333D01*
X22294819Y-50333333D02*
X22294819Y-50428571D01*
X22294819Y-50428571D02*
X22247200Y-50571428D01*
X22247200Y-50571428D02*
X22151961Y-50666666D01*
X22151961Y-50666666D02*
X22056723Y-50714285D01*
X22056723Y-50714285D02*
X21866247Y-50761904D01*
X21866247Y-50761904D02*
X21723390Y-50761904D01*
X21723390Y-50761904D02*
X21532914Y-50714285D01*
X21532914Y-50714285D02*
X21437676Y-50666666D01*
X21437676Y-50666666D02*
X21342438Y-50571428D01*
X21342438Y-50571428D02*
X21294819Y-50428571D01*
X21294819Y-50428571D02*
X21294819Y-50333333D01*
X21294819Y-50333333D02*
X21342438Y-50190476D01*
X21342438Y-50190476D02*
X21390057Y-50142857D01*
X21390057Y-49761904D02*
X21342438Y-49714285D01*
X21342438Y-49714285D02*
X21294819Y-49619047D01*
X21294819Y-49619047D02*
X21294819Y-49380952D01*
X21294819Y-49380952D02*
X21342438Y-49285714D01*
X21342438Y-49285714D02*
X21390057Y-49238095D01*
X21390057Y-49238095D02*
X21485295Y-49190476D01*
X21485295Y-49190476D02*
X21580533Y-49190476D01*
X21580533Y-49190476D02*
X21723390Y-49238095D01*
X21723390Y-49238095D02*
X22294819Y-49809523D01*
X22294819Y-49809523D02*
X22294819Y-49190476D01*
X21390057Y-48809523D02*
X21342438Y-48761904D01*
X21342438Y-48761904D02*
X21294819Y-48666666D01*
X21294819Y-48666666D02*
X21294819Y-48428571D01*
X21294819Y-48428571D02*
X21342438Y-48333333D01*
X21342438Y-48333333D02*
X21390057Y-48285714D01*
X21390057Y-48285714D02*
X21485295Y-48238095D01*
X21485295Y-48238095D02*
X21580533Y-48238095D01*
X21580533Y-48238095D02*
X21723390Y-48285714D01*
X21723390Y-48285714D02*
X22294819Y-48857142D01*
X22294819Y-48857142D02*
X22294819Y-48238095D01*
X53833333Y-56859580D02*
X53785714Y-56907200D01*
X53785714Y-56907200D02*
X53642857Y-56954819D01*
X53642857Y-56954819D02*
X53547619Y-56954819D01*
X53547619Y-56954819D02*
X53404762Y-56907200D01*
X53404762Y-56907200D02*
X53309524Y-56811961D01*
X53309524Y-56811961D02*
X53261905Y-56716723D01*
X53261905Y-56716723D02*
X53214286Y-56526247D01*
X53214286Y-56526247D02*
X53214286Y-56383390D01*
X53214286Y-56383390D02*
X53261905Y-56192914D01*
X53261905Y-56192914D02*
X53309524Y-56097676D01*
X53309524Y-56097676D02*
X53404762Y-56002438D01*
X53404762Y-56002438D02*
X53547619Y-55954819D01*
X53547619Y-55954819D02*
X53642857Y-55954819D01*
X53642857Y-55954819D02*
X53785714Y-56002438D01*
X53785714Y-56002438D02*
X53833333Y-56050057D01*
X54166667Y-55954819D02*
X54833333Y-55954819D01*
X54833333Y-55954819D02*
X54404762Y-56954819D01*
X52333333Y-63359580D02*
X52285714Y-63407200D01*
X52285714Y-63407200D02*
X52142857Y-63454819D01*
X52142857Y-63454819D02*
X52047619Y-63454819D01*
X52047619Y-63454819D02*
X51904762Y-63407200D01*
X51904762Y-63407200D02*
X51809524Y-63311961D01*
X51809524Y-63311961D02*
X51761905Y-63216723D01*
X51761905Y-63216723D02*
X51714286Y-63026247D01*
X51714286Y-63026247D02*
X51714286Y-62883390D01*
X51714286Y-62883390D02*
X51761905Y-62692914D01*
X51761905Y-62692914D02*
X51809524Y-62597676D01*
X51809524Y-62597676D02*
X51904762Y-62502438D01*
X51904762Y-62502438D02*
X52047619Y-62454819D01*
X52047619Y-62454819D02*
X52142857Y-62454819D01*
X52142857Y-62454819D02*
X52285714Y-62502438D01*
X52285714Y-62502438D02*
X52333333Y-62550057D01*
X52714286Y-62550057D02*
X52761905Y-62502438D01*
X52761905Y-62502438D02*
X52857143Y-62454819D01*
X52857143Y-62454819D02*
X53095238Y-62454819D01*
X53095238Y-62454819D02*
X53190476Y-62502438D01*
X53190476Y-62502438D02*
X53238095Y-62550057D01*
X53238095Y-62550057D02*
X53285714Y-62645295D01*
X53285714Y-62645295D02*
X53285714Y-62740533D01*
X53285714Y-62740533D02*
X53238095Y-62883390D01*
X53238095Y-62883390D02*
X52666667Y-63454819D01*
X52666667Y-63454819D02*
X53285714Y-63454819D01*
X31833333Y-51954819D02*
X31500000Y-51478628D01*
X31261905Y-51954819D02*
X31261905Y-50954819D01*
X31261905Y-50954819D02*
X31642857Y-50954819D01*
X31642857Y-50954819D02*
X31738095Y-51002438D01*
X31738095Y-51002438D02*
X31785714Y-51050057D01*
X31785714Y-51050057D02*
X31833333Y-51145295D01*
X31833333Y-51145295D02*
X31833333Y-51288152D01*
X31833333Y-51288152D02*
X31785714Y-51383390D01*
X31785714Y-51383390D02*
X31738095Y-51431009D01*
X31738095Y-51431009D02*
X31642857Y-51478628D01*
X31642857Y-51478628D02*
X31261905Y-51478628D01*
X32166667Y-50954819D02*
X32833333Y-50954819D01*
X32833333Y-50954819D02*
X32404762Y-51954819D01*
X31833333Y-50454819D02*
X31500000Y-49978628D01*
X31261905Y-50454819D02*
X31261905Y-49454819D01*
X31261905Y-49454819D02*
X31642857Y-49454819D01*
X31642857Y-49454819D02*
X31738095Y-49502438D01*
X31738095Y-49502438D02*
X31785714Y-49550057D01*
X31785714Y-49550057D02*
X31833333Y-49645295D01*
X31833333Y-49645295D02*
X31833333Y-49788152D01*
X31833333Y-49788152D02*
X31785714Y-49883390D01*
X31785714Y-49883390D02*
X31738095Y-49931009D01*
X31738095Y-49931009D02*
X31642857Y-49978628D01*
X31642857Y-49978628D02*
X31261905Y-49978628D01*
X32690476Y-49454819D02*
X32500000Y-49454819D01*
X32500000Y-49454819D02*
X32404762Y-49502438D01*
X32404762Y-49502438D02*
X32357143Y-49550057D01*
X32357143Y-49550057D02*
X32261905Y-49692914D01*
X32261905Y-49692914D02*
X32214286Y-49883390D01*
X32214286Y-49883390D02*
X32214286Y-50264342D01*
X32214286Y-50264342D02*
X32261905Y-50359580D01*
X32261905Y-50359580D02*
X32309524Y-50407200D01*
X32309524Y-50407200D02*
X32404762Y-50454819D01*
X32404762Y-50454819D02*
X32595238Y-50454819D01*
X32595238Y-50454819D02*
X32690476Y-50407200D01*
X32690476Y-50407200D02*
X32738095Y-50359580D01*
X32738095Y-50359580D02*
X32785714Y-50264342D01*
X32785714Y-50264342D02*
X32785714Y-50026247D01*
X32785714Y-50026247D02*
X32738095Y-49931009D01*
X32738095Y-49931009D02*
X32690476Y-49883390D01*
X32690476Y-49883390D02*
X32595238Y-49835771D01*
X32595238Y-49835771D02*
X32404762Y-49835771D01*
X32404762Y-49835771D02*
X32309524Y-49883390D01*
X32309524Y-49883390D02*
X32261905Y-49931009D01*
X32261905Y-49931009D02*
X32214286Y-50026247D01*
X30523333Y-57454819D02*
X30190000Y-56978628D01*
X29951905Y-57454819D02*
X29951905Y-56454819D01*
X29951905Y-56454819D02*
X30332857Y-56454819D01*
X30332857Y-56454819D02*
X30428095Y-56502438D01*
X30428095Y-56502438D02*
X30475714Y-56550057D01*
X30475714Y-56550057D02*
X30523333Y-56645295D01*
X30523333Y-56645295D02*
X30523333Y-56788152D01*
X30523333Y-56788152D02*
X30475714Y-56883390D01*
X30475714Y-56883390D02*
X30428095Y-56931009D01*
X30428095Y-56931009D02*
X30332857Y-56978628D01*
X30332857Y-56978628D02*
X29951905Y-56978628D01*
X31428095Y-56454819D02*
X30951905Y-56454819D01*
X30951905Y-56454819D02*
X30904286Y-56931009D01*
X30904286Y-56931009D02*
X30951905Y-56883390D01*
X30951905Y-56883390D02*
X31047143Y-56835771D01*
X31047143Y-56835771D02*
X31285238Y-56835771D01*
X31285238Y-56835771D02*
X31380476Y-56883390D01*
X31380476Y-56883390D02*
X31428095Y-56931009D01*
X31428095Y-56931009D02*
X31475714Y-57026247D01*
X31475714Y-57026247D02*
X31475714Y-57264342D01*
X31475714Y-57264342D02*
X31428095Y-57359580D01*
X31428095Y-57359580D02*
X31380476Y-57407200D01*
X31380476Y-57407200D02*
X31285238Y-57454819D01*
X31285238Y-57454819D02*
X31047143Y-57454819D01*
X31047143Y-57454819D02*
X30951905Y-57407200D01*
X30951905Y-57407200D02*
X30904286Y-57359580D01*
X30523333Y-58954819D02*
X30190000Y-58478628D01*
X29951905Y-58954819D02*
X29951905Y-57954819D01*
X29951905Y-57954819D02*
X30332857Y-57954819D01*
X30332857Y-57954819D02*
X30428095Y-58002438D01*
X30428095Y-58002438D02*
X30475714Y-58050057D01*
X30475714Y-58050057D02*
X30523333Y-58145295D01*
X30523333Y-58145295D02*
X30523333Y-58288152D01*
X30523333Y-58288152D02*
X30475714Y-58383390D01*
X30475714Y-58383390D02*
X30428095Y-58431009D01*
X30428095Y-58431009D02*
X30332857Y-58478628D01*
X30332857Y-58478628D02*
X29951905Y-58478628D01*
X31380476Y-58288152D02*
X31380476Y-58954819D01*
X31142381Y-57907200D02*
X30904286Y-58621485D01*
X30904286Y-58621485D02*
X31523333Y-58621485D01*
X57454819Y-57666666D02*
X56978628Y-57999999D01*
X57454819Y-58238094D02*
X56454819Y-58238094D01*
X56454819Y-58238094D02*
X56454819Y-57857142D01*
X56454819Y-57857142D02*
X56502438Y-57761904D01*
X56502438Y-57761904D02*
X56550057Y-57714285D01*
X56550057Y-57714285D02*
X56645295Y-57666666D01*
X56645295Y-57666666D02*
X56788152Y-57666666D01*
X56788152Y-57666666D02*
X56883390Y-57714285D01*
X56883390Y-57714285D02*
X56931009Y-57761904D01*
X56931009Y-57761904D02*
X56978628Y-57857142D01*
X56978628Y-57857142D02*
X56978628Y-58238094D01*
X56454819Y-57333332D02*
X56454819Y-56714285D01*
X56454819Y-56714285D02*
X56835771Y-57047618D01*
X56835771Y-57047618D02*
X56835771Y-56904761D01*
X56835771Y-56904761D02*
X56883390Y-56809523D01*
X56883390Y-56809523D02*
X56931009Y-56761904D01*
X56931009Y-56761904D02*
X57026247Y-56714285D01*
X57026247Y-56714285D02*
X57264342Y-56714285D01*
X57264342Y-56714285D02*
X57359580Y-56761904D01*
X57359580Y-56761904D02*
X57407200Y-56809523D01*
X57407200Y-56809523D02*
X57454819Y-56904761D01*
X57454819Y-56904761D02*
X57454819Y-57190475D01*
X57454819Y-57190475D02*
X57407200Y-57285713D01*
X57407200Y-57285713D02*
X57359580Y-57333332D01*
X56454819Y-57656666D02*
X55978628Y-57989999D01*
X56454819Y-58228094D02*
X55454819Y-58228094D01*
X55454819Y-58228094D02*
X55454819Y-57847142D01*
X55454819Y-57847142D02*
X55502438Y-57751904D01*
X55502438Y-57751904D02*
X55550057Y-57704285D01*
X55550057Y-57704285D02*
X55645295Y-57656666D01*
X55645295Y-57656666D02*
X55788152Y-57656666D01*
X55788152Y-57656666D02*
X55883390Y-57704285D01*
X55883390Y-57704285D02*
X55931009Y-57751904D01*
X55931009Y-57751904D02*
X55978628Y-57847142D01*
X55978628Y-57847142D02*
X55978628Y-58228094D01*
X55550057Y-57275713D02*
X55502438Y-57228094D01*
X55502438Y-57228094D02*
X55454819Y-57132856D01*
X55454819Y-57132856D02*
X55454819Y-56894761D01*
X55454819Y-56894761D02*
X55502438Y-56799523D01*
X55502438Y-56799523D02*
X55550057Y-56751904D01*
X55550057Y-56751904D02*
X55645295Y-56704285D01*
X55645295Y-56704285D02*
X55740533Y-56704285D01*
X55740533Y-56704285D02*
X55883390Y-56751904D01*
X55883390Y-56751904D02*
X56454819Y-57323332D01*
X56454819Y-57323332D02*
X56454819Y-56704285D01*
X20377142Y-42519580D02*
X20329523Y-42567200D01*
X20329523Y-42567200D02*
X20186666Y-42614819D01*
X20186666Y-42614819D02*
X20091428Y-42614819D01*
X20091428Y-42614819D02*
X19948571Y-42567200D01*
X19948571Y-42567200D02*
X19853333Y-42471961D01*
X19853333Y-42471961D02*
X19805714Y-42376723D01*
X19805714Y-42376723D02*
X19758095Y-42186247D01*
X19758095Y-42186247D02*
X19758095Y-42043390D01*
X19758095Y-42043390D02*
X19805714Y-41852914D01*
X19805714Y-41852914D02*
X19853333Y-41757676D01*
X19853333Y-41757676D02*
X19948571Y-41662438D01*
X19948571Y-41662438D02*
X20091428Y-41614819D01*
X20091428Y-41614819D02*
X20186666Y-41614819D01*
X20186666Y-41614819D02*
X20329523Y-41662438D01*
X20329523Y-41662438D02*
X20377142Y-41710057D01*
X20758095Y-41710057D02*
X20805714Y-41662438D01*
X20805714Y-41662438D02*
X20900952Y-41614819D01*
X20900952Y-41614819D02*
X21139047Y-41614819D01*
X21139047Y-41614819D02*
X21234285Y-41662438D01*
X21234285Y-41662438D02*
X21281904Y-41710057D01*
X21281904Y-41710057D02*
X21329523Y-41805295D01*
X21329523Y-41805295D02*
X21329523Y-41900533D01*
X21329523Y-41900533D02*
X21281904Y-42043390D01*
X21281904Y-42043390D02*
X20710476Y-42614819D01*
X20710476Y-42614819D02*
X21329523Y-42614819D01*
X22281904Y-42614819D02*
X21710476Y-42614819D01*
X21996190Y-42614819D02*
X21996190Y-41614819D01*
X21996190Y-41614819D02*
X21900952Y-41757676D01*
X21900952Y-41757676D02*
X21805714Y-41852914D01*
X21805714Y-41852914D02*
X21710476Y-41900533D01*
X25357142Y-37859580D02*
X25309523Y-37907200D01*
X25309523Y-37907200D02*
X25166666Y-37954819D01*
X25166666Y-37954819D02*
X25071428Y-37954819D01*
X25071428Y-37954819D02*
X24928571Y-37907200D01*
X24928571Y-37907200D02*
X24833333Y-37811961D01*
X24833333Y-37811961D02*
X24785714Y-37716723D01*
X24785714Y-37716723D02*
X24738095Y-37526247D01*
X24738095Y-37526247D02*
X24738095Y-37383390D01*
X24738095Y-37383390D02*
X24785714Y-37192914D01*
X24785714Y-37192914D02*
X24833333Y-37097676D01*
X24833333Y-37097676D02*
X24928571Y-37002438D01*
X24928571Y-37002438D02*
X25071428Y-36954819D01*
X25071428Y-36954819D02*
X25166666Y-36954819D01*
X25166666Y-36954819D02*
X25309523Y-37002438D01*
X25309523Y-37002438D02*
X25357142Y-37050057D01*
X26309523Y-37954819D02*
X25738095Y-37954819D01*
X26023809Y-37954819D02*
X26023809Y-36954819D01*
X26023809Y-36954819D02*
X25928571Y-37097676D01*
X25928571Y-37097676D02*
X25833333Y-37192914D01*
X25833333Y-37192914D02*
X25738095Y-37240533D01*
X26785714Y-37954819D02*
X26976190Y-37954819D01*
X26976190Y-37954819D02*
X27071428Y-37907200D01*
X27071428Y-37907200D02*
X27119047Y-37859580D01*
X27119047Y-37859580D02*
X27214285Y-37716723D01*
X27214285Y-37716723D02*
X27261904Y-37526247D01*
X27261904Y-37526247D02*
X27261904Y-37145295D01*
X27261904Y-37145295D02*
X27214285Y-37050057D01*
X27214285Y-37050057D02*
X27166666Y-37002438D01*
X27166666Y-37002438D02*
X27071428Y-36954819D01*
X27071428Y-36954819D02*
X26880952Y-36954819D01*
X26880952Y-36954819D02*
X26785714Y-37002438D01*
X26785714Y-37002438D02*
X26738095Y-37050057D01*
X26738095Y-37050057D02*
X26690476Y-37145295D01*
X26690476Y-37145295D02*
X26690476Y-37383390D01*
X26690476Y-37383390D02*
X26738095Y-37478628D01*
X26738095Y-37478628D02*
X26785714Y-37526247D01*
X26785714Y-37526247D02*
X26880952Y-37573866D01*
X26880952Y-37573866D02*
X27071428Y-37573866D01*
X27071428Y-37573866D02*
X27166666Y-37526247D01*
X27166666Y-37526247D02*
X27214285Y-37478628D01*
X27214285Y-37478628D02*
X27261904Y-37383390D01*
X22357142Y-37859580D02*
X22309523Y-37907200D01*
X22309523Y-37907200D02*
X22166666Y-37954819D01*
X22166666Y-37954819D02*
X22071428Y-37954819D01*
X22071428Y-37954819D02*
X21928571Y-37907200D01*
X21928571Y-37907200D02*
X21833333Y-37811961D01*
X21833333Y-37811961D02*
X21785714Y-37716723D01*
X21785714Y-37716723D02*
X21738095Y-37526247D01*
X21738095Y-37526247D02*
X21738095Y-37383390D01*
X21738095Y-37383390D02*
X21785714Y-37192914D01*
X21785714Y-37192914D02*
X21833333Y-37097676D01*
X21833333Y-37097676D02*
X21928571Y-37002438D01*
X21928571Y-37002438D02*
X22071428Y-36954819D01*
X22071428Y-36954819D02*
X22166666Y-36954819D01*
X22166666Y-36954819D02*
X22309523Y-37002438D01*
X22309523Y-37002438D02*
X22357142Y-37050057D01*
X23309523Y-37954819D02*
X22738095Y-37954819D01*
X23023809Y-37954819D02*
X23023809Y-36954819D01*
X23023809Y-36954819D02*
X22928571Y-37097676D01*
X22928571Y-37097676D02*
X22833333Y-37192914D01*
X22833333Y-37192914D02*
X22738095Y-37240533D01*
X23880952Y-37383390D02*
X23785714Y-37335771D01*
X23785714Y-37335771D02*
X23738095Y-37288152D01*
X23738095Y-37288152D02*
X23690476Y-37192914D01*
X23690476Y-37192914D02*
X23690476Y-37145295D01*
X23690476Y-37145295D02*
X23738095Y-37050057D01*
X23738095Y-37050057D02*
X23785714Y-37002438D01*
X23785714Y-37002438D02*
X23880952Y-36954819D01*
X23880952Y-36954819D02*
X24071428Y-36954819D01*
X24071428Y-36954819D02*
X24166666Y-37002438D01*
X24166666Y-37002438D02*
X24214285Y-37050057D01*
X24214285Y-37050057D02*
X24261904Y-37145295D01*
X24261904Y-37145295D02*
X24261904Y-37192914D01*
X24261904Y-37192914D02*
X24214285Y-37288152D01*
X24214285Y-37288152D02*
X24166666Y-37335771D01*
X24166666Y-37335771D02*
X24071428Y-37383390D01*
X24071428Y-37383390D02*
X23880952Y-37383390D01*
X23880952Y-37383390D02*
X23785714Y-37431009D01*
X23785714Y-37431009D02*
X23738095Y-37478628D01*
X23738095Y-37478628D02*
X23690476Y-37573866D01*
X23690476Y-37573866D02*
X23690476Y-37764342D01*
X23690476Y-37764342D02*
X23738095Y-37859580D01*
X23738095Y-37859580D02*
X23785714Y-37907200D01*
X23785714Y-37907200D02*
X23880952Y-37954819D01*
X23880952Y-37954819D02*
X24071428Y-37954819D01*
X24071428Y-37954819D02*
X24166666Y-37907200D01*
X24166666Y-37907200D02*
X24214285Y-37859580D01*
X24214285Y-37859580D02*
X24261904Y-37764342D01*
X24261904Y-37764342D02*
X24261904Y-37573866D01*
X24261904Y-37573866D02*
X24214285Y-37478628D01*
X24214285Y-37478628D02*
X24166666Y-37431009D01*
X24166666Y-37431009D02*
X24071428Y-37383390D01*
X28357142Y-39859580D02*
X28309523Y-39907200D01*
X28309523Y-39907200D02*
X28166666Y-39954819D01*
X28166666Y-39954819D02*
X28071428Y-39954819D01*
X28071428Y-39954819D02*
X27928571Y-39907200D01*
X27928571Y-39907200D02*
X27833333Y-39811961D01*
X27833333Y-39811961D02*
X27785714Y-39716723D01*
X27785714Y-39716723D02*
X27738095Y-39526247D01*
X27738095Y-39526247D02*
X27738095Y-39383390D01*
X27738095Y-39383390D02*
X27785714Y-39192914D01*
X27785714Y-39192914D02*
X27833333Y-39097676D01*
X27833333Y-39097676D02*
X27928571Y-39002438D01*
X27928571Y-39002438D02*
X28071428Y-38954819D01*
X28071428Y-38954819D02*
X28166666Y-38954819D01*
X28166666Y-38954819D02*
X28309523Y-39002438D01*
X28309523Y-39002438D02*
X28357142Y-39050057D01*
X28738095Y-39050057D02*
X28785714Y-39002438D01*
X28785714Y-39002438D02*
X28880952Y-38954819D01*
X28880952Y-38954819D02*
X29119047Y-38954819D01*
X29119047Y-38954819D02*
X29214285Y-39002438D01*
X29214285Y-39002438D02*
X29261904Y-39050057D01*
X29261904Y-39050057D02*
X29309523Y-39145295D01*
X29309523Y-39145295D02*
X29309523Y-39240533D01*
X29309523Y-39240533D02*
X29261904Y-39383390D01*
X29261904Y-39383390D02*
X28690476Y-39954819D01*
X28690476Y-39954819D02*
X29309523Y-39954819D01*
X29928571Y-38954819D02*
X30023809Y-38954819D01*
X30023809Y-38954819D02*
X30119047Y-39002438D01*
X30119047Y-39002438D02*
X30166666Y-39050057D01*
X30166666Y-39050057D02*
X30214285Y-39145295D01*
X30214285Y-39145295D02*
X30261904Y-39335771D01*
X30261904Y-39335771D02*
X30261904Y-39573866D01*
X30261904Y-39573866D02*
X30214285Y-39764342D01*
X30214285Y-39764342D02*
X30166666Y-39859580D01*
X30166666Y-39859580D02*
X30119047Y-39907200D01*
X30119047Y-39907200D02*
X30023809Y-39954819D01*
X30023809Y-39954819D02*
X29928571Y-39954819D01*
X29928571Y-39954819D02*
X29833333Y-39907200D01*
X29833333Y-39907200D02*
X29785714Y-39859580D01*
X29785714Y-39859580D02*
X29738095Y-39764342D01*
X29738095Y-39764342D02*
X29690476Y-39573866D01*
X29690476Y-39573866D02*
X29690476Y-39335771D01*
X29690476Y-39335771D02*
X29738095Y-39145295D01*
X29738095Y-39145295D02*
X29785714Y-39050057D01*
X29785714Y-39050057D02*
X29833333Y-39002438D01*
X29833333Y-39002438D02*
X29928571Y-38954819D01*
X28357142Y-44359580D02*
X28309523Y-44407200D01*
X28309523Y-44407200D02*
X28166666Y-44454819D01*
X28166666Y-44454819D02*
X28071428Y-44454819D01*
X28071428Y-44454819D02*
X27928571Y-44407200D01*
X27928571Y-44407200D02*
X27833333Y-44311961D01*
X27833333Y-44311961D02*
X27785714Y-44216723D01*
X27785714Y-44216723D02*
X27738095Y-44026247D01*
X27738095Y-44026247D02*
X27738095Y-43883390D01*
X27738095Y-43883390D02*
X27785714Y-43692914D01*
X27785714Y-43692914D02*
X27833333Y-43597676D01*
X27833333Y-43597676D02*
X27928571Y-43502438D01*
X27928571Y-43502438D02*
X28071428Y-43454819D01*
X28071428Y-43454819D02*
X28166666Y-43454819D01*
X28166666Y-43454819D02*
X28309523Y-43502438D01*
X28309523Y-43502438D02*
X28357142Y-43550057D01*
X29309523Y-44454819D02*
X28738095Y-44454819D01*
X29023809Y-44454819D02*
X29023809Y-43454819D01*
X29023809Y-43454819D02*
X28928571Y-43597676D01*
X28928571Y-43597676D02*
X28833333Y-43692914D01*
X28833333Y-43692914D02*
X28738095Y-43740533D01*
X29642857Y-43454819D02*
X30309523Y-43454819D01*
X30309523Y-43454819D02*
X29880952Y-44454819D01*
X44504819Y-41699404D02*
X45314342Y-41699404D01*
X45314342Y-41699404D02*
X45409580Y-41651785D01*
X45409580Y-41651785D02*
X45457200Y-41604166D01*
X45457200Y-41604166D02*
X45504819Y-41508928D01*
X45504819Y-41508928D02*
X45504819Y-41318452D01*
X45504819Y-41318452D02*
X45457200Y-41223214D01*
X45457200Y-41223214D02*
X45409580Y-41175595D01*
X45409580Y-41175595D02*
X45314342Y-41127976D01*
X45314342Y-41127976D02*
X44504819Y-41127976D01*
X44504819Y-40747023D02*
X44504819Y-40127976D01*
X44504819Y-40127976D02*
X44885771Y-40461309D01*
X44885771Y-40461309D02*
X44885771Y-40318452D01*
X44885771Y-40318452D02*
X44933390Y-40223214D01*
X44933390Y-40223214D02*
X44981009Y-40175595D01*
X44981009Y-40175595D02*
X45076247Y-40127976D01*
X45076247Y-40127976D02*
X45314342Y-40127976D01*
X45314342Y-40127976D02*
X45409580Y-40175595D01*
X45409580Y-40175595D02*
X45457200Y-40223214D01*
X45457200Y-40223214D02*
X45504819Y-40318452D01*
X45504819Y-40318452D02*
X45504819Y-40604166D01*
X45504819Y-40604166D02*
X45457200Y-40699404D01*
X45457200Y-40699404D02*
X45409580Y-40747023D01*
X20896666Y-65234819D02*
X20896666Y-65949104D01*
X20896666Y-65949104D02*
X20849047Y-66091961D01*
X20849047Y-66091961D02*
X20753809Y-66187200D01*
X20753809Y-66187200D02*
X20610952Y-66234819D01*
X20610952Y-66234819D02*
X20515714Y-66234819D01*
X21277619Y-65234819D02*
X21944285Y-65234819D01*
X21944285Y-65234819D02*
X21515714Y-66234819D01*
X46083333Y-63924819D02*
X45607143Y-63924819D01*
X45607143Y-63924819D02*
X45607143Y-62924819D01*
X46940476Y-63924819D02*
X46369048Y-63924819D01*
X46654762Y-63924819D02*
X46654762Y-62924819D01*
X46654762Y-62924819D02*
X46559524Y-63067676D01*
X46559524Y-63067676D02*
X46464286Y-63162914D01*
X46464286Y-63162914D02*
X46369048Y-63210533D01*
X59734819Y-69873333D02*
X60449104Y-69873333D01*
X60449104Y-69873333D02*
X60591961Y-69920952D01*
X60591961Y-69920952D02*
X60687200Y-70016190D01*
X60687200Y-70016190D02*
X60734819Y-70159047D01*
X60734819Y-70159047D02*
X60734819Y-70254285D01*
X59734819Y-69492380D02*
X59734819Y-68873333D01*
X59734819Y-68873333D02*
X60115771Y-69206666D01*
X60115771Y-69206666D02*
X60115771Y-69063809D01*
X60115771Y-69063809D02*
X60163390Y-68968571D01*
X60163390Y-68968571D02*
X60211009Y-68920952D01*
X60211009Y-68920952D02*
X60306247Y-68873333D01*
X60306247Y-68873333D02*
X60544342Y-68873333D01*
X60544342Y-68873333D02*
X60639580Y-68920952D01*
X60639580Y-68920952D02*
X60687200Y-68968571D01*
X60687200Y-68968571D02*
X60734819Y-69063809D01*
X60734819Y-69063809D02*
X60734819Y-69349523D01*
X60734819Y-69349523D02*
X60687200Y-69444761D01*
X60687200Y-69444761D02*
X60639580Y-69492380D01*
X44554819Y-50261904D02*
X45364342Y-50261904D01*
X45364342Y-50261904D02*
X45459580Y-50214285D01*
X45459580Y-50214285D02*
X45507200Y-50166666D01*
X45507200Y-50166666D02*
X45554819Y-50071428D01*
X45554819Y-50071428D02*
X45554819Y-49880952D01*
X45554819Y-49880952D02*
X45507200Y-49785714D01*
X45507200Y-49785714D02*
X45459580Y-49738095D01*
X45459580Y-49738095D02*
X45364342Y-49690476D01*
X45364342Y-49690476D02*
X44554819Y-49690476D01*
X44888152Y-48785714D02*
X45554819Y-48785714D01*
X44507200Y-49023809D02*
X45221485Y-49261904D01*
X45221485Y-49261904D02*
X45221485Y-48642857D01*
X48238095Y-56954819D02*
X48238095Y-57764342D01*
X48238095Y-57764342D02*
X48285714Y-57859580D01*
X48285714Y-57859580D02*
X48333333Y-57907200D01*
X48333333Y-57907200D02*
X48428571Y-57954819D01*
X48428571Y-57954819D02*
X48619047Y-57954819D01*
X48619047Y-57954819D02*
X48714285Y-57907200D01*
X48714285Y-57907200D02*
X48761904Y-57859580D01*
X48761904Y-57859580D02*
X48809523Y-57764342D01*
X48809523Y-57764342D02*
X48809523Y-56954819D01*
X49809523Y-57954819D02*
X49238095Y-57954819D01*
X49523809Y-57954819D02*
X49523809Y-56954819D01*
X49523809Y-56954819D02*
X49428571Y-57097676D01*
X49428571Y-57097676D02*
X49333333Y-57192914D01*
X49333333Y-57192914D02*
X49238095Y-57240533D01*
X17833333Y-33704819D02*
X17500000Y-33228628D01*
X17261905Y-33704819D02*
X17261905Y-32704819D01*
X17261905Y-32704819D02*
X17642857Y-32704819D01*
X17642857Y-32704819D02*
X17738095Y-32752438D01*
X17738095Y-32752438D02*
X17785714Y-32800057D01*
X17785714Y-32800057D02*
X17833333Y-32895295D01*
X17833333Y-32895295D02*
X17833333Y-33038152D01*
X17833333Y-33038152D02*
X17785714Y-33133390D01*
X17785714Y-33133390D02*
X17738095Y-33181009D01*
X17738095Y-33181009D02*
X17642857Y-33228628D01*
X17642857Y-33228628D02*
X17261905Y-33228628D01*
X18309524Y-33704819D02*
X18500000Y-33704819D01*
X18500000Y-33704819D02*
X18595238Y-33657200D01*
X18595238Y-33657200D02*
X18642857Y-33609580D01*
X18642857Y-33609580D02*
X18738095Y-33466723D01*
X18738095Y-33466723D02*
X18785714Y-33276247D01*
X18785714Y-33276247D02*
X18785714Y-32895295D01*
X18785714Y-32895295D02*
X18738095Y-32800057D01*
X18738095Y-32800057D02*
X18690476Y-32752438D01*
X18690476Y-32752438D02*
X18595238Y-32704819D01*
X18595238Y-32704819D02*
X18404762Y-32704819D01*
X18404762Y-32704819D02*
X18309524Y-32752438D01*
X18309524Y-32752438D02*
X18261905Y-32800057D01*
X18261905Y-32800057D02*
X18214286Y-32895295D01*
X18214286Y-32895295D02*
X18214286Y-33133390D01*
X18214286Y-33133390D02*
X18261905Y-33228628D01*
X18261905Y-33228628D02*
X18309524Y-33276247D01*
X18309524Y-33276247D02*
X18404762Y-33323866D01*
X18404762Y-33323866D02*
X18595238Y-33323866D01*
X18595238Y-33323866D02*
X18690476Y-33276247D01*
X18690476Y-33276247D02*
X18738095Y-33228628D01*
X18738095Y-33228628D02*
X18785714Y-33133390D01*
X59734819Y-60293333D02*
X60449104Y-60293333D01*
X60449104Y-60293333D02*
X60591961Y-60340952D01*
X60591961Y-60340952D02*
X60687200Y-60436190D01*
X60687200Y-60436190D02*
X60734819Y-60579047D01*
X60734819Y-60579047D02*
X60734819Y-60674285D01*
X60068152Y-59388571D02*
X60734819Y-59388571D01*
X59687200Y-59626666D02*
X60401485Y-59864761D01*
X60401485Y-59864761D02*
X60401485Y-59245714D01*
X50690476Y-43789819D02*
X50690476Y-44504104D01*
X50690476Y-44504104D02*
X50642857Y-44646961D01*
X50642857Y-44646961D02*
X50547619Y-44742200D01*
X50547619Y-44742200D02*
X50404762Y-44789819D01*
X50404762Y-44789819D02*
X50309524Y-44789819D01*
X51690476Y-44789819D02*
X51119048Y-44789819D01*
X51404762Y-44789819D02*
X51404762Y-43789819D01*
X51404762Y-43789819D02*
X51309524Y-43932676D01*
X51309524Y-43932676D02*
X51214286Y-44027914D01*
X51214286Y-44027914D02*
X51119048Y-44075533D01*
X52309524Y-43789819D02*
X52404762Y-43789819D01*
X52404762Y-43789819D02*
X52500000Y-43837438D01*
X52500000Y-43837438D02*
X52547619Y-43885057D01*
X52547619Y-43885057D02*
X52595238Y-43980295D01*
X52595238Y-43980295D02*
X52642857Y-44170771D01*
X52642857Y-44170771D02*
X52642857Y-44408866D01*
X52642857Y-44408866D02*
X52595238Y-44599342D01*
X52595238Y-44599342D02*
X52547619Y-44694580D01*
X52547619Y-44694580D02*
X52500000Y-44742200D01*
X52500000Y-44742200D02*
X52404762Y-44789819D01*
X52404762Y-44789819D02*
X52309524Y-44789819D01*
X52309524Y-44789819D02*
X52214286Y-44742200D01*
X52214286Y-44742200D02*
X52166667Y-44694580D01*
X52166667Y-44694580D02*
X52119048Y-44599342D01*
X52119048Y-44599342D02*
X52071429Y-44408866D01*
X52071429Y-44408866D02*
X52071429Y-44170771D01*
X52071429Y-44170771D02*
X52119048Y-43980295D01*
X52119048Y-43980295D02*
X52166667Y-43885057D01*
X52166667Y-43885057D02*
X52214286Y-43837438D01*
X52214286Y-43837438D02*
X52309524Y-43789819D01*
X41833333Y-49159580D02*
X41785714Y-49207200D01*
X41785714Y-49207200D02*
X41642857Y-49254819D01*
X41642857Y-49254819D02*
X41547619Y-49254819D01*
X41547619Y-49254819D02*
X41404762Y-49207200D01*
X41404762Y-49207200D02*
X41309524Y-49111961D01*
X41309524Y-49111961D02*
X41261905Y-49016723D01*
X41261905Y-49016723D02*
X41214286Y-48826247D01*
X41214286Y-48826247D02*
X41214286Y-48683390D01*
X41214286Y-48683390D02*
X41261905Y-48492914D01*
X41261905Y-48492914D02*
X41309524Y-48397676D01*
X41309524Y-48397676D02*
X41404762Y-48302438D01*
X41404762Y-48302438D02*
X41547619Y-48254819D01*
X41547619Y-48254819D02*
X41642857Y-48254819D01*
X41642857Y-48254819D02*
X41785714Y-48302438D01*
X41785714Y-48302438D02*
X41833333Y-48350057D01*
X42690476Y-48254819D02*
X42500000Y-48254819D01*
X42500000Y-48254819D02*
X42404762Y-48302438D01*
X42404762Y-48302438D02*
X42357143Y-48350057D01*
X42357143Y-48350057D02*
X42261905Y-48492914D01*
X42261905Y-48492914D02*
X42214286Y-48683390D01*
X42214286Y-48683390D02*
X42214286Y-49064342D01*
X42214286Y-49064342D02*
X42261905Y-49159580D01*
X42261905Y-49159580D02*
X42309524Y-49207200D01*
X42309524Y-49207200D02*
X42404762Y-49254819D01*
X42404762Y-49254819D02*
X42595238Y-49254819D01*
X42595238Y-49254819D02*
X42690476Y-49207200D01*
X42690476Y-49207200D02*
X42738095Y-49159580D01*
X42738095Y-49159580D02*
X42785714Y-49064342D01*
X42785714Y-49064342D02*
X42785714Y-48826247D01*
X42785714Y-48826247D02*
X42738095Y-48731009D01*
X42738095Y-48731009D02*
X42690476Y-48683390D01*
X42690476Y-48683390D02*
X42595238Y-48635771D01*
X42595238Y-48635771D02*
X42404762Y-48635771D01*
X42404762Y-48635771D02*
X42309524Y-48683390D01*
X42309524Y-48683390D02*
X42261905Y-48731009D01*
X42261905Y-48731009D02*
X42214286Y-48826247D01*
X41623809Y-35578628D02*
X41623809Y-36054819D01*
X41290476Y-35054819D02*
X41623809Y-35578628D01*
X41623809Y-35578628D02*
X41957142Y-35054819D01*
X42814285Y-36054819D02*
X42242857Y-36054819D01*
X42528571Y-36054819D02*
X42528571Y-35054819D01*
X42528571Y-35054819D02*
X42433333Y-35197676D01*
X42433333Y-35197676D02*
X42338095Y-35292914D01*
X42338095Y-35292914D02*
X42242857Y-35340533D01*
X24204819Y-46261904D02*
X25014342Y-46261904D01*
X25014342Y-46261904D02*
X25109580Y-46214285D01*
X25109580Y-46214285D02*
X25157200Y-46166666D01*
X25157200Y-46166666D02*
X25204819Y-46071428D01*
X25204819Y-46071428D02*
X25204819Y-45880952D01*
X25204819Y-45880952D02*
X25157200Y-45785714D01*
X25157200Y-45785714D02*
X25109580Y-45738095D01*
X25109580Y-45738095D02*
X25014342Y-45690476D01*
X25014342Y-45690476D02*
X24204819Y-45690476D01*
X24204819Y-44785714D02*
X24204819Y-44976190D01*
X24204819Y-44976190D02*
X24252438Y-45071428D01*
X24252438Y-45071428D02*
X24300057Y-45119047D01*
X24300057Y-45119047D02*
X24442914Y-45214285D01*
X24442914Y-45214285D02*
X24633390Y-45261904D01*
X24633390Y-45261904D02*
X25014342Y-45261904D01*
X25014342Y-45261904D02*
X25109580Y-45214285D01*
X25109580Y-45214285D02*
X25157200Y-45166666D01*
X25157200Y-45166666D02*
X25204819Y-45071428D01*
X25204819Y-45071428D02*
X25204819Y-44880952D01*
X25204819Y-44880952D02*
X25157200Y-44785714D01*
X25157200Y-44785714D02*
X25109580Y-44738095D01*
X25109580Y-44738095D02*
X25014342Y-44690476D01*
X25014342Y-44690476D02*
X24776247Y-44690476D01*
X24776247Y-44690476D02*
X24681009Y-44738095D01*
X24681009Y-44738095D02*
X24633390Y-44785714D01*
X24633390Y-44785714D02*
X24585771Y-44880952D01*
X24585771Y-44880952D02*
X24585771Y-45071428D01*
X24585771Y-45071428D02*
X24633390Y-45166666D01*
X24633390Y-45166666D02*
X24681009Y-45214285D01*
X24681009Y-45214285D02*
X24776247Y-45261904D01*
X24054819Y-54761904D02*
X24864342Y-54761904D01*
X24864342Y-54761904D02*
X24959580Y-54714285D01*
X24959580Y-54714285D02*
X25007200Y-54666666D01*
X25007200Y-54666666D02*
X25054819Y-54571428D01*
X25054819Y-54571428D02*
X25054819Y-54380952D01*
X25054819Y-54380952D02*
X25007200Y-54285714D01*
X25007200Y-54285714D02*
X24959580Y-54238095D01*
X24959580Y-54238095D02*
X24864342Y-54190476D01*
X24864342Y-54190476D02*
X24054819Y-54190476D01*
X24054819Y-53238095D02*
X24054819Y-53714285D01*
X24054819Y-53714285D02*
X24531009Y-53761904D01*
X24531009Y-53761904D02*
X24483390Y-53714285D01*
X24483390Y-53714285D02*
X24435771Y-53619047D01*
X24435771Y-53619047D02*
X24435771Y-53380952D01*
X24435771Y-53380952D02*
X24483390Y-53285714D01*
X24483390Y-53285714D02*
X24531009Y-53238095D01*
X24531009Y-53238095D02*
X24626247Y-53190476D01*
X24626247Y-53190476D02*
X24864342Y-53190476D01*
X24864342Y-53190476D02*
X24959580Y-53238095D01*
X24959580Y-53238095D02*
X25007200Y-53285714D01*
X25007200Y-53285714D02*
X25054819Y-53380952D01*
X25054819Y-53380952D02*
X25054819Y-53619047D01*
X25054819Y-53619047D02*
X25007200Y-53714285D01*
X25007200Y-53714285D02*
X24959580Y-53761904D01*
X40166666Y-61454819D02*
X40166666Y-62169104D01*
X40166666Y-62169104D02*
X40119047Y-62311961D01*
X40119047Y-62311961D02*
X40023809Y-62407200D01*
X40023809Y-62407200D02*
X39880952Y-62454819D01*
X39880952Y-62454819D02*
X39785714Y-62454819D01*
X40595238Y-61550057D02*
X40642857Y-61502438D01*
X40642857Y-61502438D02*
X40738095Y-61454819D01*
X40738095Y-61454819D02*
X40976190Y-61454819D01*
X40976190Y-61454819D02*
X41071428Y-61502438D01*
X41071428Y-61502438D02*
X41119047Y-61550057D01*
X41119047Y-61550057D02*
X41166666Y-61645295D01*
X41166666Y-61645295D02*
X41166666Y-61740533D01*
X41166666Y-61740533D02*
X41119047Y-61883390D01*
X41119047Y-61883390D02*
X40547619Y-62454819D01*
X40547619Y-62454819D02*
X41166666Y-62454819D01*
X47377142Y-38359580D02*
X47329523Y-38407200D01*
X47329523Y-38407200D02*
X47186666Y-38454819D01*
X47186666Y-38454819D02*
X47091428Y-38454819D01*
X47091428Y-38454819D02*
X46948571Y-38407200D01*
X46948571Y-38407200D02*
X46853333Y-38311961D01*
X46853333Y-38311961D02*
X46805714Y-38216723D01*
X46805714Y-38216723D02*
X46758095Y-38026247D01*
X46758095Y-38026247D02*
X46758095Y-37883390D01*
X46758095Y-37883390D02*
X46805714Y-37692914D01*
X46805714Y-37692914D02*
X46853333Y-37597676D01*
X46853333Y-37597676D02*
X46948571Y-37502438D01*
X46948571Y-37502438D02*
X47091428Y-37454819D01*
X47091428Y-37454819D02*
X47186666Y-37454819D01*
X47186666Y-37454819D02*
X47329523Y-37502438D01*
X47329523Y-37502438D02*
X47377142Y-37550057D01*
X48329523Y-38454819D02*
X47758095Y-38454819D01*
X48043809Y-38454819D02*
X48043809Y-37454819D01*
X48043809Y-37454819D02*
X47948571Y-37597676D01*
X47948571Y-37597676D02*
X47853333Y-37692914D01*
X47853333Y-37692914D02*
X47758095Y-37740533D01*
X49281904Y-38454819D02*
X48710476Y-38454819D01*
X48996190Y-38454819D02*
X48996190Y-37454819D01*
X48996190Y-37454819D02*
X48900952Y-37597676D01*
X48900952Y-37597676D02*
X48805714Y-37692914D01*
X48805714Y-37692914D02*
X48710476Y-37740533D01*
X17833333Y-35954819D02*
X17500000Y-35478628D01*
X17261905Y-35954819D02*
X17261905Y-34954819D01*
X17261905Y-34954819D02*
X17642857Y-34954819D01*
X17642857Y-34954819D02*
X17738095Y-35002438D01*
X17738095Y-35002438D02*
X17785714Y-35050057D01*
X17785714Y-35050057D02*
X17833333Y-35145295D01*
X17833333Y-35145295D02*
X17833333Y-35288152D01*
X17833333Y-35288152D02*
X17785714Y-35383390D01*
X17785714Y-35383390D02*
X17738095Y-35431009D01*
X17738095Y-35431009D02*
X17642857Y-35478628D01*
X17642857Y-35478628D02*
X17261905Y-35478628D01*
X18404762Y-35383390D02*
X18309524Y-35335771D01*
X18309524Y-35335771D02*
X18261905Y-35288152D01*
X18261905Y-35288152D02*
X18214286Y-35192914D01*
X18214286Y-35192914D02*
X18214286Y-35145295D01*
X18214286Y-35145295D02*
X18261905Y-35050057D01*
X18261905Y-35050057D02*
X18309524Y-35002438D01*
X18309524Y-35002438D02*
X18404762Y-34954819D01*
X18404762Y-34954819D02*
X18595238Y-34954819D01*
X18595238Y-34954819D02*
X18690476Y-35002438D01*
X18690476Y-35002438D02*
X18738095Y-35050057D01*
X18738095Y-35050057D02*
X18785714Y-35145295D01*
X18785714Y-35145295D02*
X18785714Y-35192914D01*
X18785714Y-35192914D02*
X18738095Y-35288152D01*
X18738095Y-35288152D02*
X18690476Y-35335771D01*
X18690476Y-35335771D02*
X18595238Y-35383390D01*
X18595238Y-35383390D02*
X18404762Y-35383390D01*
X18404762Y-35383390D02*
X18309524Y-35431009D01*
X18309524Y-35431009D02*
X18261905Y-35478628D01*
X18261905Y-35478628D02*
X18214286Y-35573866D01*
X18214286Y-35573866D02*
X18214286Y-35764342D01*
X18214286Y-35764342D02*
X18261905Y-35859580D01*
X18261905Y-35859580D02*
X18309524Y-35907200D01*
X18309524Y-35907200D02*
X18404762Y-35954819D01*
X18404762Y-35954819D02*
X18595238Y-35954819D01*
X18595238Y-35954819D02*
X18690476Y-35907200D01*
X18690476Y-35907200D02*
X18738095Y-35859580D01*
X18738095Y-35859580D02*
X18785714Y-35764342D01*
X18785714Y-35764342D02*
X18785714Y-35573866D01*
X18785714Y-35573866D02*
X18738095Y-35478628D01*
X18738095Y-35478628D02*
X18690476Y-35431009D01*
X18690476Y-35431009D02*
X18595238Y-35383390D01*
X38054819Y-34206666D02*
X37578628Y-34539999D01*
X38054819Y-34778094D02*
X37054819Y-34778094D01*
X37054819Y-34778094D02*
X37054819Y-34397142D01*
X37054819Y-34397142D02*
X37102438Y-34301904D01*
X37102438Y-34301904D02*
X37150057Y-34254285D01*
X37150057Y-34254285D02*
X37245295Y-34206666D01*
X37245295Y-34206666D02*
X37388152Y-34206666D01*
X37388152Y-34206666D02*
X37483390Y-34254285D01*
X37483390Y-34254285D02*
X37531009Y-34301904D01*
X37531009Y-34301904D02*
X37578628Y-34397142D01*
X37578628Y-34397142D02*
X37578628Y-34778094D01*
X38054819Y-33254285D02*
X38054819Y-33825713D01*
X38054819Y-33539999D02*
X37054819Y-33539999D01*
X37054819Y-33539999D02*
X37197676Y-33635237D01*
X37197676Y-33635237D02*
X37292914Y-33730475D01*
X37292914Y-33730475D02*
X37340533Y-33825713D01*
X40488095Y-53956819D02*
X41059523Y-53956819D01*
X40773809Y-54956819D02*
X40773809Y-53956819D01*
X41392857Y-54956819D02*
X41392857Y-53956819D01*
X41392857Y-53956819D02*
X41773809Y-53956819D01*
X41773809Y-53956819D02*
X41869047Y-54004438D01*
X41869047Y-54004438D02*
X41916666Y-54052057D01*
X41916666Y-54052057D02*
X41964285Y-54147295D01*
X41964285Y-54147295D02*
X41964285Y-54290152D01*
X41964285Y-54290152D02*
X41916666Y-54385390D01*
X41916666Y-54385390D02*
X41869047Y-54433009D01*
X41869047Y-54433009D02*
X41773809Y-54480628D01*
X41773809Y-54480628D02*
X41392857Y-54480628D01*
X42916666Y-54956819D02*
X42345238Y-54956819D01*
X42630952Y-54956819D02*
X42630952Y-53956819D01*
X42630952Y-53956819D02*
X42535714Y-54099676D01*
X42535714Y-54099676D02*
X42440476Y-54194914D01*
X42440476Y-54194914D02*
X42345238Y-54242533D01*
X34284819Y-35666666D02*
X34284819Y-36142856D01*
X34284819Y-36142856D02*
X33284819Y-36142856D01*
X33380057Y-35380951D02*
X33332438Y-35333332D01*
X33332438Y-35333332D02*
X33284819Y-35238094D01*
X33284819Y-35238094D02*
X33284819Y-34999999D01*
X33284819Y-34999999D02*
X33332438Y-34904761D01*
X33332438Y-34904761D02*
X33380057Y-34857142D01*
X33380057Y-34857142D02*
X33475295Y-34809523D01*
X33475295Y-34809523D02*
X33570533Y-34809523D01*
X33570533Y-34809523D02*
X33713390Y-34857142D01*
X33713390Y-34857142D02*
X34284819Y-35428570D01*
X34284819Y-35428570D02*
X34284819Y-34809523D01*
X34199580Y-33627857D02*
X34247200Y-33675476D01*
X34247200Y-33675476D02*
X34294819Y-33818333D01*
X34294819Y-33818333D02*
X34294819Y-33913571D01*
X34294819Y-33913571D02*
X34247200Y-34056428D01*
X34247200Y-34056428D02*
X34151961Y-34151666D01*
X34151961Y-34151666D02*
X34056723Y-34199285D01*
X34056723Y-34199285D02*
X33866247Y-34246904D01*
X33866247Y-34246904D02*
X33723390Y-34246904D01*
X33723390Y-34246904D02*
X33532914Y-34199285D01*
X33532914Y-34199285D02*
X33437676Y-34151666D01*
X33437676Y-34151666D02*
X33342438Y-34056428D01*
X33342438Y-34056428D02*
X33294819Y-33913571D01*
X33294819Y-33913571D02*
X33294819Y-33818333D01*
X33294819Y-33818333D02*
X33342438Y-33675476D01*
X33342438Y-33675476D02*
X33390057Y-33627857D01*
X34294819Y-32675476D02*
X34294819Y-33246904D01*
X34294819Y-32961190D02*
X33294819Y-32961190D01*
X33294819Y-32961190D02*
X33437676Y-33056428D01*
X33437676Y-33056428D02*
X33532914Y-33151666D01*
X33532914Y-33151666D02*
X33580533Y-33246904D01*
X33294819Y-31770714D02*
X33294819Y-32246904D01*
X33294819Y-32246904D02*
X33771009Y-32294523D01*
X33771009Y-32294523D02*
X33723390Y-32246904D01*
X33723390Y-32246904D02*
X33675771Y-32151666D01*
X33675771Y-32151666D02*
X33675771Y-31913571D01*
X33675771Y-31913571D02*
X33723390Y-31818333D01*
X33723390Y-31818333D02*
X33771009Y-31770714D01*
X33771009Y-31770714D02*
X33866247Y-31723095D01*
X33866247Y-31723095D02*
X34104342Y-31723095D01*
X34104342Y-31723095D02*
X34199580Y-31770714D01*
X34199580Y-31770714D02*
X34247200Y-31818333D01*
X34247200Y-31818333D02*
X34294819Y-31913571D01*
X34294819Y-31913571D02*
X34294819Y-32151666D01*
X34294819Y-32151666D02*
X34247200Y-32246904D01*
X34247200Y-32246904D02*
X34199580Y-32294523D01*
X34333333Y-64859580D02*
X34285714Y-64907200D01*
X34285714Y-64907200D02*
X34142857Y-64954819D01*
X34142857Y-64954819D02*
X34047619Y-64954819D01*
X34047619Y-64954819D02*
X33904762Y-64907200D01*
X33904762Y-64907200D02*
X33809524Y-64811961D01*
X33809524Y-64811961D02*
X33761905Y-64716723D01*
X33761905Y-64716723D02*
X33714286Y-64526247D01*
X33714286Y-64526247D02*
X33714286Y-64383390D01*
X33714286Y-64383390D02*
X33761905Y-64192914D01*
X33761905Y-64192914D02*
X33809524Y-64097676D01*
X33809524Y-64097676D02*
X33904762Y-64002438D01*
X33904762Y-64002438D02*
X34047619Y-63954819D01*
X34047619Y-63954819D02*
X34142857Y-63954819D01*
X34142857Y-63954819D02*
X34285714Y-64002438D01*
X34285714Y-64002438D02*
X34333333Y-64050057D01*
X35190476Y-64288152D02*
X35190476Y-64954819D01*
X34952381Y-63907200D02*
X34714286Y-64621485D01*
X34714286Y-64621485D02*
X35333333Y-64621485D01*
X59734819Y-50838333D02*
X60449104Y-50838333D01*
X60449104Y-50838333D02*
X60591961Y-50885952D01*
X60591961Y-50885952D02*
X60687200Y-50981190D01*
X60687200Y-50981190D02*
X60734819Y-51124047D01*
X60734819Y-51124047D02*
X60734819Y-51219285D01*
X59734819Y-49885952D02*
X59734819Y-50362142D01*
X59734819Y-50362142D02*
X60211009Y-50409761D01*
X60211009Y-50409761D02*
X60163390Y-50362142D01*
X60163390Y-50362142D02*
X60115771Y-50266904D01*
X60115771Y-50266904D02*
X60115771Y-50028809D01*
X60115771Y-50028809D02*
X60163390Y-49933571D01*
X60163390Y-49933571D02*
X60211009Y-49885952D01*
X60211009Y-49885952D02*
X60306247Y-49838333D01*
X60306247Y-49838333D02*
X60544342Y-49838333D01*
X60544342Y-49838333D02*
X60639580Y-49885952D01*
X60639580Y-49885952D02*
X60687200Y-49933571D01*
X60687200Y-49933571D02*
X60734819Y-50028809D01*
X60734819Y-50028809D02*
X60734819Y-50266904D01*
X60734819Y-50266904D02*
X60687200Y-50362142D01*
X60687200Y-50362142D02*
X60639580Y-50409761D01*
X53666666Y-65204819D02*
X53666666Y-65919104D01*
X53666666Y-65919104D02*
X53619047Y-66061961D01*
X53619047Y-66061961D02*
X53523809Y-66157200D01*
X53523809Y-66157200D02*
X53380952Y-66204819D01*
X53380952Y-66204819D02*
X53285714Y-66204819D01*
X54666666Y-66204819D02*
X54095238Y-66204819D01*
X54380952Y-66204819D02*
X54380952Y-65204819D01*
X54380952Y-65204819D02*
X54285714Y-65347676D01*
X54285714Y-65347676D02*
X54190476Y-65442914D01*
X54190476Y-65442914D02*
X54095238Y-65490533D01*
X59734819Y-41333333D02*
X60449104Y-41333333D01*
X60449104Y-41333333D02*
X60591961Y-41380952D01*
X60591961Y-41380952D02*
X60687200Y-41476190D01*
X60687200Y-41476190D02*
X60734819Y-41619047D01*
X60734819Y-41619047D02*
X60734819Y-41714285D01*
X59734819Y-40428571D02*
X59734819Y-40619047D01*
X59734819Y-40619047D02*
X59782438Y-40714285D01*
X59782438Y-40714285D02*
X59830057Y-40761904D01*
X59830057Y-40761904D02*
X59972914Y-40857142D01*
X59972914Y-40857142D02*
X60163390Y-40904761D01*
X60163390Y-40904761D02*
X60544342Y-40904761D01*
X60544342Y-40904761D02*
X60639580Y-40857142D01*
X60639580Y-40857142D02*
X60687200Y-40809523D01*
X60687200Y-40809523D02*
X60734819Y-40714285D01*
X60734819Y-40714285D02*
X60734819Y-40523809D01*
X60734819Y-40523809D02*
X60687200Y-40428571D01*
X60687200Y-40428571D02*
X60639580Y-40380952D01*
X60639580Y-40380952D02*
X60544342Y-40333333D01*
X60544342Y-40333333D02*
X60306247Y-40333333D01*
X60306247Y-40333333D02*
X60211009Y-40380952D01*
X60211009Y-40380952D02*
X60163390Y-40428571D01*
X60163390Y-40428571D02*
X60115771Y-40523809D01*
X60115771Y-40523809D02*
X60115771Y-40714285D01*
X60115771Y-40714285D02*
X60163390Y-40809523D01*
X60163390Y-40809523D02*
X60211009Y-40857142D01*
X60211009Y-40857142D02*
X60306247Y-40904761D01*
X30454819Y-56261904D02*
X31264342Y-56261904D01*
X31264342Y-56261904D02*
X31359580Y-56214285D01*
X31359580Y-56214285D02*
X31407200Y-56166666D01*
X31407200Y-56166666D02*
X31454819Y-56071428D01*
X31454819Y-56071428D02*
X31454819Y-55880952D01*
X31454819Y-55880952D02*
X31407200Y-55785714D01*
X31407200Y-55785714D02*
X31359580Y-55738095D01*
X31359580Y-55738095D02*
X31264342Y-55690476D01*
X31264342Y-55690476D02*
X30454819Y-55690476D01*
X30550057Y-55261904D02*
X30502438Y-55214285D01*
X30502438Y-55214285D02*
X30454819Y-55119047D01*
X30454819Y-55119047D02*
X30454819Y-54880952D01*
X30454819Y-54880952D02*
X30502438Y-54785714D01*
X30502438Y-54785714D02*
X30550057Y-54738095D01*
X30550057Y-54738095D02*
X30645295Y-54690476D01*
X30645295Y-54690476D02*
X30740533Y-54690476D01*
X30740533Y-54690476D02*
X30883390Y-54738095D01*
X30883390Y-54738095D02*
X31454819Y-55309523D01*
X31454819Y-55309523D02*
X31454819Y-54690476D01*
X37959580Y-32206666D02*
X38007200Y-32254285D01*
X38007200Y-32254285D02*
X38054819Y-32397142D01*
X38054819Y-32397142D02*
X38054819Y-32492380D01*
X38054819Y-32492380D02*
X38007200Y-32635237D01*
X38007200Y-32635237D02*
X37911961Y-32730475D01*
X37911961Y-32730475D02*
X37816723Y-32778094D01*
X37816723Y-32778094D02*
X37626247Y-32825713D01*
X37626247Y-32825713D02*
X37483390Y-32825713D01*
X37483390Y-32825713D02*
X37292914Y-32778094D01*
X37292914Y-32778094D02*
X37197676Y-32730475D01*
X37197676Y-32730475D02*
X37102438Y-32635237D01*
X37102438Y-32635237D02*
X37054819Y-32492380D01*
X37054819Y-32492380D02*
X37054819Y-32397142D01*
X37054819Y-32397142D02*
X37102438Y-32254285D01*
X37102438Y-32254285D02*
X37150057Y-32206666D01*
X37054819Y-31873332D02*
X37054819Y-31254285D01*
X37054819Y-31254285D02*
X37435771Y-31587618D01*
X37435771Y-31587618D02*
X37435771Y-31444761D01*
X37435771Y-31444761D02*
X37483390Y-31349523D01*
X37483390Y-31349523D02*
X37531009Y-31301904D01*
X37531009Y-31301904D02*
X37626247Y-31254285D01*
X37626247Y-31254285D02*
X37864342Y-31254285D01*
X37864342Y-31254285D02*
X37959580Y-31301904D01*
X37959580Y-31301904D02*
X38007200Y-31349523D01*
X38007200Y-31349523D02*
X38054819Y-31444761D01*
X38054819Y-31444761D02*
X38054819Y-31730475D01*
X38054819Y-31730475D02*
X38007200Y-31825713D01*
X38007200Y-31825713D02*
X37959580Y-31873332D01*
D12*
X36177190Y-32821428D02*
X36201000Y-32845237D01*
X36201000Y-32845237D02*
X36224809Y-32916666D01*
X36224809Y-32916666D02*
X36224809Y-32964285D01*
X36224809Y-32964285D02*
X36201000Y-33035713D01*
X36201000Y-33035713D02*
X36153380Y-33083332D01*
X36153380Y-33083332D02*
X36105761Y-33107142D01*
X36105761Y-33107142D02*
X36010523Y-33130951D01*
X36010523Y-33130951D02*
X35939095Y-33130951D01*
X35939095Y-33130951D02*
X35843857Y-33107142D01*
X35843857Y-33107142D02*
X35796238Y-33083332D01*
X35796238Y-33083332D02*
X35748619Y-33035713D01*
X35748619Y-33035713D02*
X35724809Y-32964285D01*
X35724809Y-32964285D02*
X35724809Y-32916666D01*
X35724809Y-32916666D02*
X35748619Y-32845237D01*
X35748619Y-32845237D02*
X35772428Y-32821428D01*
X36224809Y-32345237D02*
X36224809Y-32630951D01*
X36224809Y-32488094D02*
X35724809Y-32488094D01*
X35724809Y-32488094D02*
X35796238Y-32535713D01*
X35796238Y-32535713D02*
X35843857Y-32583332D01*
X35843857Y-32583332D02*
X35867666Y-32630951D01*
X35724809Y-31916666D02*
X35724809Y-32011904D01*
X35724809Y-32011904D02*
X35748619Y-32059523D01*
X35748619Y-32059523D02*
X35772428Y-32083333D01*
X35772428Y-32083333D02*
X35843857Y-32130952D01*
X35843857Y-32130952D02*
X35939095Y-32154761D01*
X35939095Y-32154761D02*
X36129571Y-32154761D01*
X36129571Y-32154761D02*
X36177190Y-32130952D01*
X36177190Y-32130952D02*
X36201000Y-32107142D01*
X36201000Y-32107142D02*
X36224809Y-32059523D01*
X36224809Y-32059523D02*
X36224809Y-31964285D01*
X36224809Y-31964285D02*
X36201000Y-31916666D01*
X36201000Y-31916666D02*
X36177190Y-31892857D01*
X36177190Y-31892857D02*
X36129571Y-31869047D01*
X36129571Y-31869047D02*
X36010523Y-31869047D01*
X36010523Y-31869047D02*
X35962904Y-31892857D01*
X35962904Y-31892857D02*
X35939095Y-31916666D01*
X35939095Y-31916666D02*
X35915285Y-31964285D01*
X35915285Y-31964285D02*
X35915285Y-32059523D01*
X35915285Y-32059523D02*
X35939095Y-32107142D01*
X35939095Y-32107142D02*
X35962904Y-32130952D01*
X35962904Y-32130952D02*
X36010523Y-32154761D01*
D11*
X26954819Y-49966904D02*
X27764342Y-49966904D01*
X27764342Y-49966904D02*
X27859580Y-49919285D01*
X27859580Y-49919285D02*
X27907200Y-49871666D01*
X27907200Y-49871666D02*
X27954819Y-49776428D01*
X27954819Y-49776428D02*
X27954819Y-49585952D01*
X27954819Y-49585952D02*
X27907200Y-49490714D01*
X27907200Y-49490714D02*
X27859580Y-49443095D01*
X27859580Y-49443095D02*
X27764342Y-49395476D01*
X27764342Y-49395476D02*
X26954819Y-49395476D01*
X26954819Y-49014523D02*
X26954819Y-48347857D01*
X26954819Y-48347857D02*
X27954819Y-48776428D01*
X47333333Y-31859580D02*
X47285714Y-31907200D01*
X47285714Y-31907200D02*
X47142857Y-31954819D01*
X47142857Y-31954819D02*
X47047619Y-31954819D01*
X47047619Y-31954819D02*
X46904762Y-31907200D01*
X46904762Y-31907200D02*
X46809524Y-31811961D01*
X46809524Y-31811961D02*
X46761905Y-31716723D01*
X46761905Y-31716723D02*
X46714286Y-31526247D01*
X46714286Y-31526247D02*
X46714286Y-31383390D01*
X46714286Y-31383390D02*
X46761905Y-31192914D01*
X46761905Y-31192914D02*
X46809524Y-31097676D01*
X46809524Y-31097676D02*
X46904762Y-31002438D01*
X46904762Y-31002438D02*
X47047619Y-30954819D01*
X47047619Y-30954819D02*
X47142857Y-30954819D01*
X47142857Y-30954819D02*
X47285714Y-31002438D01*
X47285714Y-31002438D02*
X47333333Y-31050057D01*
X48285714Y-31954819D02*
X47714286Y-31954819D01*
X48000000Y-31954819D02*
X48000000Y-30954819D01*
X48000000Y-30954819D02*
X47904762Y-31097676D01*
X47904762Y-31097676D02*
X47809524Y-31192914D01*
X47809524Y-31192914D02*
X47714286Y-31240533D01*
X47333333Y-36859580D02*
X47285714Y-36907200D01*
X47285714Y-36907200D02*
X47142857Y-36954819D01*
X47142857Y-36954819D02*
X47047619Y-36954819D01*
X47047619Y-36954819D02*
X46904762Y-36907200D01*
X46904762Y-36907200D02*
X46809524Y-36811961D01*
X46809524Y-36811961D02*
X46761905Y-36716723D01*
X46761905Y-36716723D02*
X46714286Y-36526247D01*
X46714286Y-36526247D02*
X46714286Y-36383390D01*
X46714286Y-36383390D02*
X46761905Y-36192914D01*
X46761905Y-36192914D02*
X46809524Y-36097676D01*
X46809524Y-36097676D02*
X46904762Y-36002438D01*
X46904762Y-36002438D02*
X47047619Y-35954819D01*
X47047619Y-35954819D02*
X47142857Y-35954819D01*
X47142857Y-35954819D02*
X47285714Y-36002438D01*
X47285714Y-36002438D02*
X47333333Y-36050057D01*
X47809524Y-36954819D02*
X48000000Y-36954819D01*
X48000000Y-36954819D02*
X48095238Y-36907200D01*
X48095238Y-36907200D02*
X48142857Y-36859580D01*
X48142857Y-36859580D02*
X48238095Y-36716723D01*
X48238095Y-36716723D02*
X48285714Y-36526247D01*
X48285714Y-36526247D02*
X48285714Y-36145295D01*
X48285714Y-36145295D02*
X48238095Y-36050057D01*
X48238095Y-36050057D02*
X48190476Y-36002438D01*
X48190476Y-36002438D02*
X48095238Y-35954819D01*
X48095238Y-35954819D02*
X47904762Y-35954819D01*
X47904762Y-35954819D02*
X47809524Y-36002438D01*
X47809524Y-36002438D02*
X47761905Y-36050057D01*
X47761905Y-36050057D02*
X47714286Y-36145295D01*
X47714286Y-36145295D02*
X47714286Y-36383390D01*
X47714286Y-36383390D02*
X47761905Y-36478628D01*
X47761905Y-36478628D02*
X47809524Y-36526247D01*
X47809524Y-36526247D02*
X47904762Y-36573866D01*
X47904762Y-36573866D02*
X48095238Y-36573866D01*
X48095238Y-36573866D02*
X48190476Y-36526247D01*
X48190476Y-36526247D02*
X48238095Y-36478628D01*
X48238095Y-36478628D02*
X48285714Y-36383390D01*
X29161666Y-65234819D02*
X29161666Y-65949104D01*
X29161666Y-65949104D02*
X29114047Y-66091961D01*
X29114047Y-66091961D02*
X29018809Y-66187200D01*
X29018809Y-66187200D02*
X28875952Y-66234819D01*
X28875952Y-66234819D02*
X28780714Y-66234819D01*
X29780714Y-65663390D02*
X29685476Y-65615771D01*
X29685476Y-65615771D02*
X29637857Y-65568152D01*
X29637857Y-65568152D02*
X29590238Y-65472914D01*
X29590238Y-65472914D02*
X29590238Y-65425295D01*
X29590238Y-65425295D02*
X29637857Y-65330057D01*
X29637857Y-65330057D02*
X29685476Y-65282438D01*
X29685476Y-65282438D02*
X29780714Y-65234819D01*
X29780714Y-65234819D02*
X29971190Y-65234819D01*
X29971190Y-65234819D02*
X30066428Y-65282438D01*
X30066428Y-65282438D02*
X30114047Y-65330057D01*
X30114047Y-65330057D02*
X30161666Y-65425295D01*
X30161666Y-65425295D02*
X30161666Y-65472914D01*
X30161666Y-65472914D02*
X30114047Y-65568152D01*
X30114047Y-65568152D02*
X30066428Y-65615771D01*
X30066428Y-65615771D02*
X29971190Y-65663390D01*
X29971190Y-65663390D02*
X29780714Y-65663390D01*
X29780714Y-65663390D02*
X29685476Y-65711009D01*
X29685476Y-65711009D02*
X29637857Y-65758628D01*
X29637857Y-65758628D02*
X29590238Y-65853866D01*
X29590238Y-65853866D02*
X29590238Y-66044342D01*
X29590238Y-66044342D02*
X29637857Y-66139580D01*
X29637857Y-66139580D02*
X29685476Y-66187200D01*
X29685476Y-66187200D02*
X29780714Y-66234819D01*
X29780714Y-66234819D02*
X29971190Y-66234819D01*
X29971190Y-66234819D02*
X30066428Y-66187200D01*
X30066428Y-66187200D02*
X30114047Y-66139580D01*
X30114047Y-66139580D02*
X30161666Y-66044342D01*
X30161666Y-66044342D02*
X30161666Y-65853866D01*
X30161666Y-65853866D02*
X30114047Y-65758628D01*
X30114047Y-65758628D02*
X30066428Y-65711009D01*
X30066428Y-65711009D02*
X29971190Y-65663390D01*
D10*
%TO.C,D2*%
X68140000Y-34000000D02*
G75*
G02*
X68040000Y-34000000I-50000J0D01*
G01*
X68040000Y-34000000D02*
G75*
G02*
X68140000Y-34000000I50000J0D01*
G01*
%TO.C,D3*%
X68140000Y-33000000D02*
G75*
G02*
X68040000Y-33000000I-50000J0D01*
G01*
X68040000Y-33000000D02*
G75*
G02*
X68140000Y-33000000I50000J0D01*
G01*
%TO.C,D1*%
X68140000Y-35000000D02*
G75*
G02*
X68040000Y-35000000I-50000J0D01*
G01*
X68040000Y-35000000D02*
G75*
G02*
X68140000Y-35000000I50000J0D01*
G01*
D13*
%TO.C,TP13*%
X48200000Y-34500000D02*
G75*
G02*
X46800000Y-34500000I-700000J0D01*
G01*
X46800000Y-34500000D02*
G75*
G02*
X48200000Y-34500000I700000J0D01*
G01*
%TO.C,TP12*%
X50200000Y-34500000D02*
G75*
G02*
X48800000Y-34500000I-700000J0D01*
G01*
X48800000Y-34500000D02*
G75*
G02*
X50200000Y-34500000I700000J0D01*
G01*
%TO.C,TP11*%
X31700000Y-42000000D02*
G75*
G02*
X30300000Y-42000000I-700000J0D01*
G01*
X30300000Y-42000000D02*
G75*
G02*
X31700000Y-42000000I700000J0D01*
G01*
%TO.C,TP10*%
X32200000Y-47500000D02*
G75*
G02*
X30800000Y-47500000I-700000J0D01*
G01*
X30800000Y-47500000D02*
G75*
G02*
X32200000Y-47500000I700000J0D01*
G01*
%TO.C,TP9*%
X34200000Y-47000000D02*
G75*
G02*
X32800000Y-47000000I-700000J0D01*
G01*
X32800000Y-47000000D02*
G75*
G02*
X34200000Y-47000000I700000J0D01*
G01*
%TO.C,TP8*%
X36200000Y-46500000D02*
G75*
G02*
X34800000Y-46500000I-700000J0D01*
G01*
X34800000Y-46500000D02*
G75*
G02*
X36200000Y-46500000I700000J0D01*
G01*
%TO.C,TP7*%
X38200000Y-46500000D02*
G75*
G02*
X36800000Y-46500000I-700000J0D01*
G01*
X36800000Y-46500000D02*
G75*
G02*
X38200000Y-46500000I700000J0D01*
G01*
%TO.C,TP6*%
X47700000Y-39500000D02*
G75*
G02*
X46300000Y-39500000I-700000J0D01*
G01*
X46300000Y-39500000D02*
G75*
G02*
X47700000Y-39500000I700000J0D01*
G01*
%TO.C,TP5*%
X34700000Y-45000000D02*
G75*
G02*
X33300000Y-45000000I-700000J0D01*
G01*
X33300000Y-45000000D02*
G75*
G02*
X34700000Y-45000000I700000J0D01*
G01*
%TO.C,TP4*%
X33200000Y-40000000D02*
G75*
G02*
X31800000Y-40000000I-700000J0D01*
G01*
X31800000Y-40000000D02*
G75*
G02*
X33200000Y-40000000I700000J0D01*
G01*
%TO.C,TP3*%
X33200000Y-38000000D02*
G75*
G02*
X31800000Y-38000000I-700000J0D01*
G01*
X31800000Y-38000000D02*
G75*
G02*
X33200000Y-38000000I700000J0D01*
G01*
%TO.C,TP2*%
X46200000Y-45500000D02*
G75*
G02*
X44800000Y-45500000I-700000J0D01*
G01*
X44800000Y-45500000D02*
G75*
G02*
X46200000Y-45500000I700000J0D01*
G01*
%TO.C,C23*%
X22392164Y-47140000D02*
X22607836Y-47140000D01*
X22392164Y-47860000D02*
X22607836Y-47860000D01*
%TO.C,C22*%
X22640000Y-49607836D02*
X22640000Y-49392164D01*
X23360000Y-49607836D02*
X23360000Y-49392164D01*
%TO.C,C7*%
X52107836Y-56860000D02*
X51892164Y-56860000D01*
X52107836Y-56140000D02*
X51892164Y-56140000D01*
%TO.C,C2*%
X52392164Y-61140000D02*
X52607836Y-61140000D01*
X52392164Y-61860000D02*
X52607836Y-61860000D01*
%TO.C,R7*%
X30143641Y-51880000D02*
X29836359Y-51880000D01*
X30143641Y-51120000D02*
X29836359Y-51120000D01*
%TO.C,R6*%
X30153641Y-50880000D02*
X29846359Y-50880000D01*
X30153641Y-50120000D02*
X29846359Y-50120000D01*
%TO.C,R5*%
X28346359Y-56620000D02*
X28653641Y-56620000D01*
X28346359Y-57380000D02*
X28653641Y-57380000D01*
%TO.C,R4*%
X28653641Y-58380000D02*
X28346359Y-58380000D01*
X28653641Y-57620000D02*
X28346359Y-57620000D01*
%TO.C,R3*%
X56620000Y-59663641D02*
X56620000Y-59356359D01*
X57380000Y-59663641D02*
X57380000Y-59356359D01*
%TO.C,R2*%
X56380000Y-59346359D02*
X56380000Y-59653641D01*
X55620000Y-59346359D02*
X55620000Y-59653641D01*
%TO.C,C21*%
X21127836Y-41360000D02*
X20912164Y-41360000D01*
X21127836Y-40640000D02*
X20912164Y-40640000D01*
%TO.C,C19*%
X25872164Y-38140000D02*
X26087836Y-38140000D01*
X25872164Y-38860000D02*
X26087836Y-38860000D01*
%TO.C,C18*%
X23107836Y-38860000D02*
X22892164Y-38860000D01*
X23107836Y-38140000D02*
X22892164Y-38140000D01*
%TO.C,C20*%
X29127836Y-41860000D02*
X28912164Y-41860000D01*
X29127836Y-41140000D02*
X28912164Y-41140000D01*
%TO.C,C17*%
X28892164Y-42140000D02*
X29107836Y-42140000D01*
X28892164Y-42860000D02*
X29107836Y-42860000D01*
%TO.C,U3*%
X43385000Y-37327500D02*
X43620000Y-37327500D01*
X36640000Y-37327500D02*
X37115000Y-37327500D01*
X43860000Y-37802500D02*
X43860000Y-37627500D01*
X36640000Y-37802500D02*
X36640000Y-37327500D01*
X43860000Y-44072500D02*
X43860000Y-44547500D01*
X36640000Y-44072500D02*
X36640000Y-44547500D01*
X43860000Y-44547500D02*
X43385000Y-44547500D01*
X36640000Y-44547500D02*
X37115000Y-44547500D01*
X44190000Y-37567500D02*
X43860000Y-37327500D01*
X44190000Y-37087500D01*
X44190000Y-37567500D01*
G36*
X44190000Y-37567500D02*
G01*
X43860000Y-37327500D01*
X44190000Y-37087500D01*
X44190000Y-37567500D01*
G37*
%TO.C,J7*%
X24140000Y-66780000D02*
X24140000Y-73520000D01*
X20260000Y-73520000D02*
X24140000Y-73520000D01*
X18320000Y-73520000D02*
X19660000Y-73520000D01*
X18320000Y-72600000D02*
X24140000Y-72600000D01*
X18320000Y-71600000D02*
X24140000Y-71600000D01*
X18320000Y-68500000D02*
X24140000Y-68500000D01*
X18320000Y-66780000D02*
X24140000Y-66780000D01*
X18320000Y-66780000D02*
X18320000Y-73520000D01*
X20400000Y-74130000D02*
X19520000Y-74130000D01*
X19960000Y-73520000D01*
X20400000Y-74130000D01*
G36*
X20400000Y-74130000D02*
G01*
X19520000Y-74130000D01*
X19960000Y-73520000D01*
X20400000Y-74130000D01*
G37*
%TO.C,L1*%
X47636252Y-59110000D02*
X44863748Y-59110000D01*
X47636252Y-62530000D02*
X44863748Y-62530000D01*
%TO.C,J3*%
X61280000Y-65360000D02*
X68020000Y-65360000D01*
X61280000Y-73720000D02*
X61280000Y-65360000D01*
X61280000Y-73720000D02*
X68020000Y-73720000D01*
X63000000Y-73720000D02*
X63000000Y-65360000D01*
X66100000Y-73720000D02*
X66100000Y-65360000D01*
X67100000Y-73720000D02*
X67100000Y-65360000D01*
X68020000Y-71780000D02*
X68020000Y-65360000D01*
X68020000Y-73720000D02*
X68020000Y-72380000D01*
X68630000Y-72520000D02*
X68020000Y-72080000D01*
X68630000Y-71640000D01*
X68630000Y-72520000D01*
G36*
X68630000Y-72520000D02*
G01*
X68020000Y-72080000D01*
X68630000Y-71640000D01*
X68630000Y-72520000D01*
G37*
%TO.C,U4*%
X45940000Y-49500000D02*
X45940000Y-50300000D01*
X45940000Y-49500000D02*
X45940000Y-48700000D01*
X49060000Y-49500000D02*
X49060000Y-50300000D01*
X49060000Y-49500000D02*
X49060000Y-48700000D01*
X45990000Y-50800000D02*
X45660000Y-51040000D01*
X45660000Y-50560000D01*
X45990000Y-50800000D01*
G36*
X45990000Y-50800000D02*
G01*
X45660000Y-51040000D01*
X45660000Y-50560000D01*
X45990000Y-50800000D01*
G37*
%TO.C,U1*%
X52250000Y-57510000D02*
X51450000Y-57510000D01*
X52250000Y-57510000D02*
X53050000Y-57510000D01*
X52250000Y-60630000D02*
X51450000Y-60630000D01*
X52250000Y-60630000D02*
X53050000Y-60630000D01*
X50950000Y-57560000D02*
X50710000Y-57230000D01*
X51190000Y-57230000D01*
X50950000Y-57560000D01*
G36*
X50950000Y-57560000D02*
G01*
X50710000Y-57230000D01*
X51190000Y-57230000D01*
X50950000Y-57560000D01*
G37*
%TO.C,R9*%
X21130000Y-33000000D02*
X22080000Y-33000000D01*
X22080000Y-32080000D02*
X22080000Y-33920000D01*
X22080000Y-33920000D02*
X25920000Y-33920000D01*
X25920000Y-32080000D02*
X22080000Y-32080000D01*
X25920000Y-33920000D02*
X25920000Y-32080000D01*
X26870000Y-33000000D02*
X25920000Y-33000000D01*
%TO.C,J4*%
X61280000Y-55780000D02*
X68020000Y-55780000D01*
X61280000Y-64140000D02*
X61280000Y-55780000D01*
X61280000Y-64140000D02*
X68020000Y-64140000D01*
X63000000Y-64140000D02*
X63000000Y-55780000D01*
X66100000Y-64140000D02*
X66100000Y-55780000D01*
X67100000Y-64140000D02*
X67100000Y-55780000D01*
X68020000Y-62200000D02*
X68020000Y-55780000D01*
X68020000Y-64140000D02*
X68020000Y-62800000D01*
X68630000Y-62940000D02*
X68020000Y-62500000D01*
X68630000Y-62060000D01*
X68630000Y-62940000D01*
G36*
X68630000Y-62940000D02*
G01*
X68020000Y-62500000D01*
X68630000Y-62060000D01*
X68630000Y-62940000D01*
G37*
%TO.C,J10*%
X49595000Y-42905000D02*
X49595000Y-42270000D01*
X50230000Y-42905000D02*
X49595000Y-42905000D01*
%TO.C,C6*%
X39625000Y-50065000D02*
X40000000Y-50065000D01*
X39812500Y-49877500D02*
X39812500Y-50252500D01*
X40429437Y-50440000D02*
X41129437Y-49740000D01*
X40429437Y-52560000D02*
X41129437Y-53260000D01*
X41129437Y-49740000D02*
X43760000Y-49740000D01*
X41129437Y-53260000D02*
X43760000Y-53260000D01*
X43760000Y-49740000D02*
X43760000Y-50440000D01*
X43760000Y-53260000D02*
X43760000Y-52560000D01*
%TO.C,Y1*%
X44100000Y-31500000D02*
X40100000Y-31500000D01*
X44100000Y-34800000D02*
X44100000Y-31500000D01*
%TO.C,U6*%
X22850000Y-39600000D02*
X22850000Y-40125000D01*
X22850000Y-39600000D02*
X23375000Y-39600000D01*
X22850000Y-43375000D02*
X22850000Y-43600000D01*
X23315000Y-43900000D02*
X23090000Y-43900000D01*
X27150000Y-39600000D02*
X26625000Y-39600000D01*
X27150000Y-39600000D02*
X27150000Y-40125000D01*
X27150000Y-43900000D02*
X26625000Y-43900000D01*
X27150000Y-43900000D02*
X27150000Y-43375000D01*
X22850000Y-43900000D02*
X22520000Y-44140000D01*
X22520000Y-43660000D01*
X22850000Y-43900000D01*
G36*
X22850000Y-43900000D02*
G01*
X22520000Y-44140000D01*
X22520000Y-43660000D01*
X22850000Y-43900000D01*
G37*
%TO.C,U5*%
X25440000Y-54000000D02*
X25440000Y-53200000D01*
X25440000Y-54000000D02*
X25440000Y-54800000D01*
X28560000Y-54000000D02*
X28560000Y-53200000D01*
X28560000Y-54000000D02*
X28560000Y-54800000D01*
X25490000Y-55300000D02*
X25160000Y-55540000D01*
X25160000Y-55060000D01*
X25490000Y-55300000D01*
G36*
X25490000Y-55300000D02*
G01*
X25160000Y-55540000D01*
X25160000Y-55060000D01*
X25490000Y-55300000D01*
G37*
%TO.C,J2*%
X37590000Y-69665000D02*
X37590000Y-66435000D01*
X37590000Y-73835000D02*
X37590000Y-71885000D01*
X38310000Y-64515000D02*
X39390000Y-64515000D01*
X39390000Y-64515000D02*
X39390000Y-64085000D01*
X43610000Y-64515000D02*
X44690000Y-64515000D01*
X45410000Y-69665000D02*
X45410000Y-66435000D01*
X45410000Y-73835000D02*
X37590000Y-73835000D01*
X45410000Y-73835000D02*
X45410000Y-71885000D01*
%TO.C,C11*%
X45392164Y-37640000D02*
X45607836Y-37640000D01*
X45392164Y-38360000D02*
X45607836Y-38360000D01*
%TO.C,R8*%
X21130000Y-35500000D02*
X22080000Y-35500000D01*
X22080000Y-34580000D02*
X22080000Y-36420000D01*
X22080000Y-36420000D02*
X25920000Y-36420000D01*
X25920000Y-34580000D02*
X22080000Y-34580000D01*
X25920000Y-36420000D02*
X25920000Y-34580000D01*
X26870000Y-35500000D02*
X25920000Y-35500000D01*
%TO.C,R1*%
X38720000Y-34193641D02*
X38720000Y-33886359D01*
X39480000Y-34193641D02*
X39480000Y-33886359D01*
%TO.C,TP1*%
X42950000Y-56500000D02*
G75*
G02*
X40550000Y-56500000I-1200000J0D01*
G01*
X40550000Y-56500000D02*
G75*
G02*
X42950000Y-56500000I1200000J0D01*
G01*
%TO.C,C15*%
X34640000Y-33092836D02*
X34640000Y-32877164D01*
X35360000Y-33092836D02*
X35360000Y-32877164D01*
%TO.C,C4*%
X34240000Y-60240000D02*
X34240000Y-60940000D01*
X34240000Y-63760000D02*
X34240000Y-63060000D01*
X36870563Y-60240000D02*
X34240000Y-60240000D01*
X36870563Y-63760000D02*
X34240000Y-63760000D01*
X37570563Y-60940000D02*
X36870563Y-60240000D01*
X37570563Y-63060000D02*
X36870563Y-63760000D01*
X38187500Y-63622500D02*
X38187500Y-63247500D01*
X38375000Y-63435000D02*
X38000000Y-63435000D01*
%TO.C,J5*%
X61280000Y-46325000D02*
X68020000Y-46325000D01*
X61280000Y-54685000D02*
X61280000Y-46325000D01*
X61280000Y-54685000D02*
X68020000Y-54685000D01*
X63000000Y-54685000D02*
X63000000Y-46325000D01*
X66100000Y-54685000D02*
X66100000Y-46325000D01*
X67100000Y-54685000D02*
X67100000Y-46325000D01*
X68020000Y-52745000D02*
X68020000Y-46325000D01*
X68020000Y-54685000D02*
X68020000Y-53345000D01*
X68630000Y-53485000D02*
X68020000Y-53045000D01*
X68630000Y-52605000D01*
X68630000Y-53485000D01*
G36*
X68630000Y-53485000D02*
G01*
X68020000Y-53045000D01*
X68630000Y-52605000D01*
X68630000Y-53485000D01*
G37*
%TO.C,J1*%
X49335000Y-66817500D02*
X49335000Y-73557500D01*
X49335000Y-66817500D02*
X55155000Y-66817500D01*
X49335000Y-68537500D02*
X55155000Y-68537500D01*
X49335000Y-71637500D02*
X55155000Y-71637500D01*
X49335000Y-72637500D02*
X55155000Y-72637500D01*
X49335000Y-73557500D02*
X50675000Y-73557500D01*
X51275000Y-73557500D02*
X55155000Y-73557500D01*
X55155000Y-66817500D02*
X55155000Y-73557500D01*
X51415000Y-74167500D02*
X50535000Y-74167500D01*
X50975000Y-73557500D01*
X51415000Y-74167500D01*
G36*
X51415000Y-74167500D02*
G01*
X50535000Y-74167500D01*
X50975000Y-73557500D01*
X51415000Y-74167500D01*
G37*
%TO.C,J6*%
X61280000Y-36820000D02*
X68020000Y-36820000D01*
X61280000Y-45180000D02*
X61280000Y-36820000D01*
X61280000Y-45180000D02*
X68020000Y-45180000D01*
X63000000Y-45180000D02*
X63000000Y-36820000D01*
X66100000Y-45180000D02*
X66100000Y-36820000D01*
X67100000Y-45180000D02*
X67100000Y-36820000D01*
X68020000Y-43240000D02*
X68020000Y-36820000D01*
X68020000Y-45180000D02*
X68020000Y-43840000D01*
X68630000Y-43980000D02*
X68020000Y-43540000D01*
X68630000Y-43100000D01*
X68630000Y-43980000D01*
G36*
X68630000Y-43980000D02*
G01*
X68020000Y-43540000D01*
X68630000Y-43100000D01*
X68630000Y-43980000D01*
G37*
%TO.C,U2*%
X32090000Y-53590000D02*
X33350000Y-53590000D01*
X32090000Y-57350000D02*
X32090000Y-53590000D01*
X38910000Y-53590000D02*
X37650000Y-53590000D01*
X38910000Y-57350000D02*
X38910000Y-53590000D01*
X32190000Y-58630000D02*
X31860000Y-58870000D01*
X31860000Y-58390000D01*
X32190000Y-58630000D01*
G36*
X32190000Y-58630000D02*
G01*
X31860000Y-58870000D01*
X31860000Y-58390000D01*
X32190000Y-58630000D01*
G37*
%TO.C,C3*%
X38740000Y-32127836D02*
X38740000Y-31912164D01*
X39460000Y-32127836D02*
X39460000Y-31912164D01*
%TO.C,C16*%
X35640000Y-34107836D02*
X35640000Y-33892164D01*
X36360000Y-34107836D02*
X36360000Y-33892164D01*
D10*
%TO.C,U7*%
X23900000Y-47855000D02*
X23900000Y-48005000D01*
X23900000Y-47855000D02*
X24540000Y-47855000D01*
X23900000Y-50555000D02*
X24540000Y-50555000D01*
X23925000Y-50280000D02*
X23925000Y-50430000D01*
X25460000Y-47855000D02*
X25900000Y-47855000D01*
X25460000Y-50555000D02*
X26100000Y-50555000D01*
X26100000Y-50405000D02*
X26100000Y-50555000D01*
X26460000Y-47855000D02*
X26100000Y-47855000D01*
X26100000Y-47495000D01*
X26460000Y-47855000D01*
G36*
X26460000Y-47855000D02*
G01*
X26100000Y-47855000D01*
X26100000Y-47495000D01*
X26460000Y-47855000D01*
G37*
D13*
%TO.C,C1*%
X45372164Y-32360000D02*
X45587836Y-32360000D01*
X45372164Y-31640000D02*
X45587836Y-31640000D01*
%TO.C,C9*%
X45392164Y-36640000D02*
X45607836Y-36640000D01*
X45392164Y-37360000D02*
X45607836Y-37360000D01*
%TO.C,J8*%
X25315000Y-66780000D02*
X25315000Y-73520000D01*
X25315000Y-66780000D02*
X33675000Y-66780000D01*
X25315000Y-68500000D02*
X33675000Y-68500000D01*
X25315000Y-71600000D02*
X33675000Y-71600000D01*
X25315000Y-72600000D02*
X33675000Y-72600000D01*
X25315000Y-73520000D02*
X26655000Y-73520000D01*
X27255000Y-73520000D02*
X33675000Y-73520000D01*
X33675000Y-66780000D02*
X33675000Y-73520000D01*
X27395000Y-74130000D02*
X26515000Y-74130000D01*
X26955000Y-73520000D01*
X27395000Y-74130000D01*
G36*
X27395000Y-74130000D02*
G01*
X26515000Y-74130000D01*
X26955000Y-73520000D01*
X27395000Y-74130000D01*
G37*
=======
%ADD12C,0.300000*%
%ADD13C,0.120000*%
G04 APERTURE END LIST*
D10*
X61122419Y-41946115D02*
X60122419Y-41946115D01*
X60122419Y-41946115D02*
X60122419Y-41565163D01*
X60122419Y-41565163D02*
X60170038Y-41469925D01*
X60170038Y-41469925D02*
X60217657Y-41422306D01*
X60217657Y-41422306D02*
X60312895Y-41374687D01*
X60312895Y-41374687D02*
X60455752Y-41374687D01*
X60455752Y-41374687D02*
X60550990Y-41422306D01*
X60550990Y-41422306D02*
X60598609Y-41469925D01*
X60598609Y-41469925D02*
X60646228Y-41565163D01*
X60646228Y-41565163D02*
X60646228Y-41946115D01*
X60122419Y-41041353D02*
X61122419Y-40803258D01*
X61122419Y-40803258D02*
X60408133Y-40612782D01*
X60408133Y-40612782D02*
X61122419Y-40422306D01*
X61122419Y-40422306D02*
X60122419Y-40184211D01*
X61122419Y-39803258D02*
X60122419Y-39803258D01*
X60122419Y-39803258D02*
X60836704Y-39469925D01*
X60836704Y-39469925D02*
X60122419Y-39136592D01*
X60122419Y-39136592D02*
X61122419Y-39136592D01*
X61122419Y-37374687D02*
X61122419Y-37946115D01*
X61122419Y-37660401D02*
X60122419Y-37660401D01*
X60122419Y-37660401D02*
X60265276Y-37755639D01*
X60265276Y-37755639D02*
X60360514Y-37850877D01*
X60360514Y-37850877D02*
X60408133Y-37946115D01*
D11*
X60417438Y-32139411D02*
X60369819Y-32234649D01*
X60369819Y-32234649D02*
X60369819Y-32377506D01*
X60369819Y-32377506D02*
X60417438Y-32520363D01*
X60417438Y-32520363D02*
X60512676Y-32615601D01*
X60512676Y-32615601D02*
X60607914Y-32663220D01*
X60607914Y-32663220D02*
X60798390Y-32710839D01*
X60798390Y-32710839D02*
X60941247Y-32710839D01*
X60941247Y-32710839D02*
X61131723Y-32663220D01*
X61131723Y-32663220D02*
X61226961Y-32615601D01*
X61226961Y-32615601D02*
X61322200Y-32520363D01*
X61322200Y-32520363D02*
X61369819Y-32377506D01*
X61369819Y-32377506D02*
X61369819Y-32282268D01*
X61369819Y-32282268D02*
X61322200Y-32139411D01*
X61322200Y-32139411D02*
X61274580Y-32091792D01*
X61274580Y-32091792D02*
X60941247Y-32091792D01*
X60941247Y-32091792D02*
X60941247Y-32282268D01*
X61369819Y-31663220D02*
X60369819Y-31663220D01*
X60369819Y-31663220D02*
X61369819Y-31091792D01*
X61369819Y-31091792D02*
X60369819Y-31091792D01*
X61369819Y-30615601D02*
X60369819Y-30615601D01*
X60369819Y-30615601D02*
X60369819Y-30377506D01*
X60369819Y-30377506D02*
X60417438Y-30234649D01*
X60417438Y-30234649D02*
X60512676Y-30139411D01*
X60512676Y-30139411D02*
X60607914Y-30091792D01*
X60607914Y-30091792D02*
X60798390Y-30044173D01*
X60798390Y-30044173D02*
X60941247Y-30044173D01*
X60941247Y-30044173D02*
X61131723Y-30091792D01*
X61131723Y-30091792D02*
X61226961Y-30139411D01*
X61226961Y-30139411D02*
X61322200Y-30234649D01*
X61322200Y-30234649D02*
X61369819Y-30377506D01*
X61369819Y-30377506D02*
X61369819Y-30615601D01*
X61703152Y-29377506D02*
X60274580Y-29377506D01*
X60369819Y-28187030D02*
X60369819Y-28663220D01*
X60369819Y-28663220D02*
X60846009Y-28710839D01*
X60846009Y-28710839D02*
X60798390Y-28663220D01*
X60798390Y-28663220D02*
X60750771Y-28567982D01*
X60750771Y-28567982D02*
X60750771Y-28329887D01*
X60750771Y-28329887D02*
X60798390Y-28234649D01*
X60798390Y-28234649D02*
X60846009Y-28187030D01*
X60846009Y-28187030D02*
X60941247Y-28139411D01*
X60941247Y-28139411D02*
X61179342Y-28139411D01*
X61179342Y-28139411D02*
X61274580Y-28187030D01*
X61274580Y-28187030D02*
X61322200Y-28234649D01*
X61322200Y-28234649D02*
X61369819Y-28329887D01*
X61369819Y-28329887D02*
X61369819Y-28567982D01*
X61369819Y-28567982D02*
X61322200Y-28663220D01*
X61322200Y-28663220D02*
X61274580Y-28710839D01*
X60703152Y-27806077D02*
X61369819Y-27567982D01*
X61369819Y-27567982D02*
X60703152Y-27329887D01*
X61703152Y-26710839D02*
X60274580Y-26710839D01*
X61369819Y-25996553D02*
X60369819Y-25996553D01*
X60369819Y-25996553D02*
X60369819Y-25615601D01*
X60369819Y-25615601D02*
X60417438Y-25520363D01*
X60417438Y-25520363D02*
X60465057Y-25472744D01*
X60465057Y-25472744D02*
X60560295Y-25425125D01*
X60560295Y-25425125D02*
X60703152Y-25425125D01*
X60703152Y-25425125D02*
X60798390Y-25472744D01*
X60798390Y-25472744D02*
X60846009Y-25520363D01*
X60846009Y-25520363D02*
X60893628Y-25615601D01*
X60893628Y-25615601D02*
X60893628Y-25996553D01*
X60369819Y-25091791D02*
X61369819Y-24853696D01*
X61369819Y-24853696D02*
X60655533Y-24663220D01*
X60655533Y-24663220D02*
X61369819Y-24472744D01*
X61369819Y-24472744D02*
X60369819Y-24234649D01*
X61369819Y-23853696D02*
X60369819Y-23853696D01*
X60369819Y-23853696D02*
X61084104Y-23520363D01*
X61084104Y-23520363D02*
X60369819Y-23187030D01*
X60369819Y-23187030D02*
X61369819Y-23187030D01*
X51336779Y-15615035D02*
X52098684Y-15615035D01*
X52812969Y-16329321D02*
X52812969Y-14900749D01*
X53527255Y-15615035D02*
X54289160Y-15615035D01*
X53908207Y-15995988D02*
X53908207Y-15234083D01*
X51812969Y-16605932D02*
X51336779Y-16605932D01*
X51336779Y-16605932D02*
X51289160Y-17082122D01*
X51289160Y-17082122D02*
X51336779Y-17034503D01*
X51336779Y-17034503D02*
X51432017Y-16986884D01*
X51432017Y-16986884D02*
X51670112Y-16986884D01*
X51670112Y-16986884D02*
X51765350Y-17034503D01*
X51765350Y-17034503D02*
X51812969Y-17082122D01*
X51812969Y-17082122D02*
X51860588Y-17177360D01*
X51860588Y-17177360D02*
X51860588Y-17415455D01*
X51860588Y-17415455D02*
X51812969Y-17510693D01*
X51812969Y-17510693D02*
X51765350Y-17558313D01*
X51765350Y-17558313D02*
X51670112Y-17605932D01*
X51670112Y-17605932D02*
X51432017Y-17605932D01*
X51432017Y-17605932D02*
X51336779Y-17558313D01*
X51336779Y-17558313D02*
X51289160Y-17510693D01*
X52193922Y-16939265D02*
X52432017Y-17605932D01*
X52432017Y-17605932D02*
X52670112Y-16939265D01*
X53717732Y-16605932D02*
X54336779Y-16605932D01*
X54336779Y-16605932D02*
X54003446Y-16986884D01*
X54003446Y-16986884D02*
X54146303Y-16986884D01*
X54146303Y-16986884D02*
X54241541Y-17034503D01*
X54241541Y-17034503D02*
X54289160Y-17082122D01*
X54289160Y-17082122D02*
X54336779Y-17177360D01*
X54336779Y-17177360D02*
X54336779Y-17415455D01*
X54336779Y-17415455D02*
X54289160Y-17510693D01*
X54289160Y-17510693D02*
X54241541Y-17558313D01*
X54241541Y-17558313D02*
X54146303Y-17605932D01*
X54146303Y-17605932D02*
X53860589Y-17605932D01*
X53860589Y-17605932D02*
X53765351Y-17558313D01*
X53765351Y-17558313D02*
X53717732Y-17510693D01*
X55193922Y-17605932D02*
X55193922Y-17082122D01*
X55193922Y-17082122D02*
X55146303Y-16986884D01*
X55146303Y-16986884D02*
X55051065Y-16939265D01*
X55051065Y-16939265D02*
X54860589Y-16939265D01*
X54860589Y-16939265D02*
X54765351Y-16986884D01*
X55193922Y-17558313D02*
X55098684Y-17605932D01*
X55098684Y-17605932D02*
X54860589Y-17605932D01*
X54860589Y-17605932D02*
X54765351Y-17558313D01*
X54765351Y-17558313D02*
X54717732Y-17463074D01*
X54717732Y-17463074D02*
X54717732Y-17367836D01*
X54717732Y-17367836D02*
X54765351Y-17272598D01*
X54765351Y-17272598D02*
X54860589Y-17224979D01*
X54860589Y-17224979D02*
X55098684Y-17224979D01*
X55098684Y-17224979D02*
X55193922Y-17177360D01*
X51479636Y-19215876D02*
X51384398Y-19168257D01*
X51384398Y-19168257D02*
X51336779Y-19120637D01*
X51336779Y-19120637D02*
X51289160Y-19025399D01*
X51289160Y-19025399D02*
X51289160Y-18739685D01*
X51289160Y-18739685D02*
X51336779Y-18644447D01*
X51336779Y-18644447D02*
X51384398Y-18596828D01*
X51384398Y-18596828D02*
X51479636Y-18549209D01*
X51479636Y-18549209D02*
X51622493Y-18549209D01*
X51622493Y-18549209D02*
X51717731Y-18596828D01*
X51717731Y-18596828D02*
X51765350Y-18644447D01*
X51765350Y-18644447D02*
X51812969Y-18739685D01*
X51812969Y-18739685D02*
X51812969Y-19025399D01*
X51812969Y-19025399D02*
X51765350Y-19120637D01*
X51765350Y-19120637D02*
X51717731Y-19168257D01*
X51717731Y-19168257D02*
X51622493Y-19215876D01*
X51622493Y-19215876D02*
X51479636Y-19215876D01*
X52670112Y-18549209D02*
X52670112Y-19215876D01*
X52241541Y-18549209D02*
X52241541Y-19073018D01*
X52241541Y-19073018D02*
X52289160Y-19168257D01*
X52289160Y-19168257D02*
X52384398Y-19215876D01*
X52384398Y-19215876D02*
X52527255Y-19215876D01*
X52527255Y-19215876D02*
X52622493Y-19168257D01*
X52622493Y-19168257D02*
X52670112Y-19120637D01*
X53003446Y-18549209D02*
X53384398Y-18549209D01*
X53146303Y-18215876D02*
X53146303Y-19073018D01*
X53146303Y-19073018D02*
X53193922Y-19168257D01*
X53193922Y-19168257D02*
X53289160Y-19215876D01*
X53289160Y-19215876D02*
X53384398Y-19215876D01*
X53836779Y-69628922D02*
X54598684Y-69628922D01*
X54217731Y-70009875D02*
X54217731Y-69247970D01*
X55312969Y-70343208D02*
X55312969Y-68914636D01*
X56027255Y-69628922D02*
X56789160Y-69628922D01*
X54360588Y-71619819D02*
X53789160Y-71619819D01*
X54074874Y-71619819D02*
X54074874Y-70619819D01*
X54074874Y-70619819D02*
X53979636Y-70762676D01*
X53979636Y-70762676D02*
X53884398Y-70857914D01*
X53884398Y-70857914D02*
X53789160Y-70905533D01*
X54741541Y-70715057D02*
X54789160Y-70667438D01*
X54789160Y-70667438D02*
X54884398Y-70619819D01*
X54884398Y-70619819D02*
X55122493Y-70619819D01*
X55122493Y-70619819D02*
X55217731Y-70667438D01*
X55217731Y-70667438D02*
X55265350Y-70715057D01*
X55265350Y-70715057D02*
X55312969Y-70810295D01*
X55312969Y-70810295D02*
X55312969Y-70905533D01*
X55312969Y-70905533D02*
X55265350Y-71048390D01*
X55265350Y-71048390D02*
X54693922Y-71619819D01*
X54693922Y-71619819D02*
X55312969Y-71619819D01*
X55646303Y-70953152D02*
X55884398Y-71619819D01*
X55884398Y-71619819D02*
X56122493Y-70953152D01*
X57265351Y-71619819D02*
X57265351Y-70953152D01*
X57265351Y-70619819D02*
X57217732Y-70667438D01*
X57217732Y-70667438D02*
X57265351Y-70715057D01*
X57265351Y-70715057D02*
X57312970Y-70667438D01*
X57312970Y-70667438D02*
X57265351Y-70619819D01*
X57265351Y-70619819D02*
X57265351Y-70715057D01*
X57741541Y-70953152D02*
X57741541Y-71619819D01*
X57741541Y-71048390D02*
X57789160Y-71000771D01*
X57789160Y-71000771D02*
X57884398Y-70953152D01*
X57884398Y-70953152D02*
X58027255Y-70953152D01*
X58027255Y-70953152D02*
X58122493Y-71000771D01*
X58122493Y-71000771D02*
X58170112Y-71096009D01*
X58170112Y-71096009D02*
X58170112Y-71619819D01*
D10*
X60122419Y-73838972D02*
X60122419Y-73267544D01*
X61122419Y-73553258D02*
X60122419Y-73553258D01*
X61122419Y-72934210D02*
X60122419Y-72934210D01*
X60598609Y-72934210D02*
X60598609Y-72362782D01*
X61122419Y-72362782D02*
X60122419Y-72362782D01*
X61122419Y-71315163D02*
X60646228Y-71648496D01*
X61122419Y-71886591D02*
X60122419Y-71886591D01*
X60122419Y-71886591D02*
X60122419Y-71505639D01*
X60122419Y-71505639D02*
X60170038Y-71410401D01*
X60170038Y-71410401D02*
X60217657Y-71362782D01*
X60217657Y-71362782D02*
X60312895Y-71315163D01*
X60312895Y-71315163D02*
X60455752Y-71315163D01*
X60455752Y-71315163D02*
X60550990Y-71362782D01*
X60550990Y-71362782D02*
X60598609Y-71410401D01*
X60598609Y-71410401D02*
X60646228Y-71505639D01*
X60646228Y-71505639D02*
X60646228Y-71886591D01*
X61455752Y-70648496D02*
X60027180Y-70648496D01*
X60646228Y-69743734D02*
X61122419Y-69743734D01*
X60122419Y-70077067D02*
X60646228Y-69743734D01*
X60646228Y-69743734D02*
X60122419Y-69410401D01*
X60836704Y-69124686D02*
X60836704Y-68648496D01*
X61122419Y-69219924D02*
X60122419Y-68886591D01*
X60122419Y-68886591D02*
X61122419Y-68553258D01*
X60122419Y-68315162D02*
X61122419Y-68077067D01*
X61122419Y-68077067D02*
X60408133Y-67886591D01*
X60408133Y-67886591D02*
X61122419Y-67696115D01*
X61122419Y-67696115D02*
X60122419Y-67458020D01*
X61455752Y-66838972D02*
X60027180Y-66838972D01*
X61122419Y-66124686D02*
X60122419Y-66124686D01*
X60122419Y-66124686D02*
X60122419Y-65743734D01*
X60122419Y-65743734D02*
X60170038Y-65648496D01*
X60170038Y-65648496D02*
X60217657Y-65600877D01*
X60217657Y-65600877D02*
X60312895Y-65553258D01*
X60312895Y-65553258D02*
X60455752Y-65553258D01*
X60455752Y-65553258D02*
X60550990Y-65600877D01*
X60550990Y-65600877D02*
X60598609Y-65648496D01*
X60598609Y-65648496D02*
X60646228Y-65743734D01*
X60646228Y-65743734D02*
X60646228Y-66124686D01*
X61122419Y-65124686D02*
X60122419Y-65124686D01*
X60122419Y-64791353D02*
X60122419Y-64219925D01*
X61122419Y-64505639D02*
X60122419Y-64505639D01*
X61455752Y-63648496D02*
X60027180Y-63648496D01*
X61122419Y-62362782D02*
X60646228Y-62696115D01*
X61122419Y-62934210D02*
X60122419Y-62934210D01*
X60122419Y-62934210D02*
X60122419Y-62553258D01*
X60122419Y-62553258D02*
X60170038Y-62458020D01*
X60170038Y-62458020D02*
X60217657Y-62410401D01*
X60217657Y-62410401D02*
X60312895Y-62362782D01*
X60312895Y-62362782D02*
X60455752Y-62362782D01*
X60455752Y-62362782D02*
X60550990Y-62410401D01*
X60550990Y-62410401D02*
X60598609Y-62458020D01*
X60598609Y-62458020D02*
X60646228Y-62553258D01*
X60646228Y-62553258D02*
X60646228Y-62934210D01*
X60122419Y-61743734D02*
X60122419Y-61553258D01*
X60122419Y-61553258D02*
X60170038Y-61458020D01*
X60170038Y-61458020D02*
X60265276Y-61362782D01*
X60265276Y-61362782D02*
X60455752Y-61315163D01*
X60455752Y-61315163D02*
X60789085Y-61315163D01*
X60789085Y-61315163D02*
X60979561Y-61362782D01*
X60979561Y-61362782D02*
X61074800Y-61458020D01*
X61074800Y-61458020D02*
X61122419Y-61553258D01*
X61122419Y-61553258D02*
X61122419Y-61743734D01*
X61122419Y-61743734D02*
X61074800Y-61838972D01*
X61074800Y-61838972D02*
X60979561Y-61934210D01*
X60979561Y-61934210D02*
X60789085Y-61981829D01*
X60789085Y-61981829D02*
X60455752Y-61981829D01*
X60455752Y-61981829D02*
X60265276Y-61934210D01*
X60265276Y-61934210D02*
X60170038Y-61838972D01*
X60170038Y-61838972D02*
X60122419Y-61743734D01*
X61122419Y-60410401D02*
X61122419Y-60886591D01*
X61122419Y-60886591D02*
X60122419Y-60886591D01*
X52232455Y-49955752D02*
X52232455Y-50622419D01*
X51803884Y-49955752D02*
X51803884Y-50479561D01*
X51803884Y-50479561D02*
X51851503Y-50574800D01*
X51851503Y-50574800D02*
X51946741Y-50622419D01*
X51946741Y-50622419D02*
X52089598Y-50622419D01*
X52089598Y-50622419D02*
X52184836Y-50574800D01*
X52184836Y-50574800D02*
X52232455Y-50527180D01*
X53280074Y-50527180D02*
X53232455Y-50574800D01*
X53232455Y-50574800D02*
X53089598Y-50622419D01*
X53089598Y-50622419D02*
X52994360Y-50622419D01*
X52994360Y-50622419D02*
X52851503Y-50574800D01*
X52851503Y-50574800D02*
X52756265Y-50479561D01*
X52756265Y-50479561D02*
X52708646Y-50384323D01*
X52708646Y-50384323D02*
X52661027Y-50193847D01*
X52661027Y-50193847D02*
X52661027Y-50050990D01*
X52661027Y-50050990D02*
X52708646Y-49860514D01*
X52708646Y-49860514D02*
X52756265Y-49765276D01*
X52756265Y-49765276D02*
X52851503Y-49670038D01*
X52851503Y-49670038D02*
X52994360Y-49622419D01*
X52994360Y-49622419D02*
X53089598Y-49622419D01*
X53089598Y-49622419D02*
X53232455Y-49670038D01*
X53232455Y-49670038D02*
X53280074Y-49717657D01*
X54422932Y-50574800D02*
X54565789Y-50622419D01*
X54565789Y-50622419D02*
X54803884Y-50622419D01*
X54803884Y-50622419D02*
X54899122Y-50574800D01*
X54899122Y-50574800D02*
X54946741Y-50527180D01*
X54946741Y-50527180D02*
X54994360Y-50431942D01*
X54994360Y-50431942D02*
X54994360Y-50336704D01*
X54994360Y-50336704D02*
X54946741Y-50241466D01*
X54946741Y-50241466D02*
X54899122Y-50193847D01*
X54899122Y-50193847D02*
X54803884Y-50146228D01*
X54803884Y-50146228D02*
X54613408Y-50098609D01*
X54613408Y-50098609D02*
X54518170Y-50050990D01*
X54518170Y-50050990D02*
X54470551Y-50003371D01*
X54470551Y-50003371D02*
X54422932Y-49908133D01*
X54422932Y-49908133D02*
X54422932Y-49812895D01*
X54422932Y-49812895D02*
X54470551Y-49717657D01*
X54470551Y-49717657D02*
X54518170Y-49670038D01*
X54518170Y-49670038D02*
X54613408Y-49622419D01*
X54613408Y-49622419D02*
X54851503Y-49622419D01*
X54851503Y-49622419D02*
X54994360Y-49670038D01*
X55280075Y-49955752D02*
X55661027Y-49955752D01*
X55422932Y-49622419D02*
X55422932Y-50479561D01*
X55422932Y-50479561D02*
X55470551Y-50574800D01*
X55470551Y-50574800D02*
X55565789Y-50622419D01*
X55565789Y-50622419D02*
X55661027Y-50622419D01*
X56422932Y-50622419D02*
X56422932Y-50098609D01*
X56422932Y-50098609D02*
X56375313Y-50003371D01*
X56375313Y-50003371D02*
X56280075Y-49955752D01*
X56280075Y-49955752D02*
X56089599Y-49955752D01*
X56089599Y-49955752D02*
X55994361Y-50003371D01*
X56422932Y-50574800D02*
X56327694Y-50622419D01*
X56327694Y-50622419D02*
X56089599Y-50622419D01*
X56089599Y-50622419D02*
X55994361Y-50574800D01*
X55994361Y-50574800D02*
X55946742Y-50479561D01*
X55946742Y-50479561D02*
X55946742Y-50384323D01*
X55946742Y-50384323D02*
X55994361Y-50289085D01*
X55994361Y-50289085D02*
X56089599Y-50241466D01*
X56089599Y-50241466D02*
X56327694Y-50241466D01*
X56327694Y-50241466D02*
X56422932Y-50193847D01*
X56756266Y-49955752D02*
X57137218Y-49955752D01*
X56899123Y-49622419D02*
X56899123Y-50479561D01*
X56899123Y-50479561D02*
X56946742Y-50574800D01*
X56946742Y-50574800D02*
X57041980Y-50622419D01*
X57041980Y-50622419D02*
X57137218Y-50622419D01*
X57899123Y-49955752D02*
X57899123Y-50622419D01*
X57470552Y-49955752D02*
X57470552Y-50479561D01*
X57470552Y-50479561D02*
X57518171Y-50574800D01*
X57518171Y-50574800D02*
X57613409Y-50622419D01*
X57613409Y-50622419D02*
X57756266Y-50622419D01*
X57756266Y-50622419D02*
X57851504Y-50574800D01*
X57851504Y-50574800D02*
X57899123Y-50527180D01*
X58327695Y-50574800D02*
X58422933Y-50622419D01*
X58422933Y-50622419D02*
X58613409Y-50622419D01*
X58613409Y-50622419D02*
X58708647Y-50574800D01*
X58708647Y-50574800D02*
X58756266Y-50479561D01*
X58756266Y-50479561D02*
X58756266Y-50431942D01*
X58756266Y-50431942D02*
X58708647Y-50336704D01*
X58708647Y-50336704D02*
X58613409Y-50289085D01*
X58613409Y-50289085D02*
X58470552Y-50289085D01*
X58470552Y-50289085D02*
X58375314Y-50241466D01*
X58375314Y-50241466D02*
X58327695Y-50146228D01*
X58327695Y-50146228D02*
X58327695Y-50098609D01*
X58327695Y-50098609D02*
X58375314Y-50003371D01*
X58375314Y-50003371D02*
X58470552Y-49955752D01*
X58470552Y-49955752D02*
X58613409Y-49955752D01*
X58613409Y-49955752D02*
X58708647Y-50003371D01*
X62622419Y-24446115D02*
X61622419Y-24446115D01*
X61622419Y-24446115D02*
X61622419Y-24065163D01*
X61622419Y-24065163D02*
X61670038Y-23969925D01*
X61670038Y-23969925D02*
X61717657Y-23922306D01*
X61717657Y-23922306D02*
X61812895Y-23874687D01*
X61812895Y-23874687D02*
X61955752Y-23874687D01*
X61955752Y-23874687D02*
X62050990Y-23922306D01*
X62050990Y-23922306D02*
X62098609Y-23969925D01*
X62098609Y-23969925D02*
X62146228Y-24065163D01*
X62146228Y-24065163D02*
X62146228Y-24446115D01*
X61622419Y-23541353D02*
X62622419Y-23303258D01*
X62622419Y-23303258D02*
X61908133Y-23112782D01*
X61908133Y-23112782D02*
X62622419Y-22922306D01*
X62622419Y-22922306D02*
X61622419Y-22684211D01*
X62622419Y-22303258D02*
X61622419Y-22303258D01*
X61622419Y-22303258D02*
X62336704Y-21969925D01*
X62336704Y-21969925D02*
X61622419Y-21636592D01*
X61622419Y-21636592D02*
X62622419Y-21636592D01*
X61622419Y-20493734D02*
X61622419Y-19874687D01*
X61622419Y-19874687D02*
X62003371Y-20208020D01*
X62003371Y-20208020D02*
X62003371Y-20065163D01*
X62003371Y-20065163D02*
X62050990Y-19969925D01*
X62050990Y-19969925D02*
X62098609Y-19922306D01*
X62098609Y-19922306D02*
X62193847Y-19874687D01*
X62193847Y-19874687D02*
X62431942Y-19874687D01*
X62431942Y-19874687D02*
X62527180Y-19922306D01*
X62527180Y-19922306D02*
X62574800Y-19969925D01*
X62574800Y-19969925D02*
X62622419Y-20065163D01*
X62622419Y-20065163D02*
X62622419Y-20350877D01*
X62622419Y-20350877D02*
X62574800Y-20446115D01*
X62574800Y-20446115D02*
X62527180Y-20493734D01*
X60170038Y-59422306D02*
X60122419Y-59517544D01*
X60122419Y-59517544D02*
X60122419Y-59660401D01*
X60122419Y-59660401D02*
X60170038Y-59803258D01*
X60170038Y-59803258D02*
X60265276Y-59898496D01*
X60265276Y-59898496D02*
X60360514Y-59946115D01*
X60360514Y-59946115D02*
X60550990Y-59993734D01*
X60550990Y-59993734D02*
X60693847Y-59993734D01*
X60693847Y-59993734D02*
X60884323Y-59946115D01*
X60884323Y-59946115D02*
X60979561Y-59898496D01*
X60979561Y-59898496D02*
X61074800Y-59803258D01*
X61074800Y-59803258D02*
X61122419Y-59660401D01*
X61122419Y-59660401D02*
X61122419Y-59565163D01*
X61122419Y-59565163D02*
X61074800Y-59422306D01*
X61074800Y-59422306D02*
X61027180Y-59374687D01*
X61027180Y-59374687D02*
X60693847Y-59374687D01*
X60693847Y-59374687D02*
X60693847Y-59565163D01*
X61122419Y-58946115D02*
X60122419Y-58946115D01*
X60122419Y-58946115D02*
X61122419Y-58374687D01*
X61122419Y-58374687D02*
X60122419Y-58374687D01*
X61122419Y-57898496D02*
X60122419Y-57898496D01*
X60122419Y-57898496D02*
X60122419Y-57660401D01*
X60122419Y-57660401D02*
X60170038Y-57517544D01*
X60170038Y-57517544D02*
X60265276Y-57422306D01*
X60265276Y-57422306D02*
X60360514Y-57374687D01*
X60360514Y-57374687D02*
X60550990Y-57327068D01*
X60550990Y-57327068D02*
X60693847Y-57327068D01*
X60693847Y-57327068D02*
X60884323Y-57374687D01*
X60884323Y-57374687D02*
X60979561Y-57422306D01*
X60979561Y-57422306D02*
X61074800Y-57517544D01*
X61074800Y-57517544D02*
X61122419Y-57660401D01*
X61122419Y-57660401D02*
X61122419Y-57898496D01*
X61455752Y-56660401D02*
X60027180Y-56660401D01*
X60122419Y-56088972D02*
X60122419Y-55517544D01*
X61122419Y-55803258D02*
X60122419Y-55803258D01*
X60122419Y-55279448D02*
X61122419Y-54612782D01*
X60122419Y-54612782D02*
X61122419Y-55279448D01*
X61455752Y-53993734D02*
X60027180Y-53993734D01*
X61122419Y-52708020D02*
X60646228Y-53041353D01*
X61122419Y-53279448D02*
X60122419Y-53279448D01*
X60122419Y-53279448D02*
X60122419Y-52898496D01*
X60122419Y-52898496D02*
X60170038Y-52803258D01*
X60170038Y-52803258D02*
X60217657Y-52755639D01*
X60217657Y-52755639D02*
X60312895Y-52708020D01*
X60312895Y-52708020D02*
X60455752Y-52708020D01*
X60455752Y-52708020D02*
X60550990Y-52755639D01*
X60550990Y-52755639D02*
X60598609Y-52803258D01*
X60598609Y-52803258D02*
X60646228Y-52898496D01*
X60646228Y-52898496D02*
X60646228Y-53279448D01*
X60122419Y-52374686D02*
X61122419Y-51708020D01*
X60122419Y-51708020D02*
X61122419Y-52374686D01*
X61122419Y-51196115D02*
X60122419Y-51196115D01*
X60122419Y-51196115D02*
X60122419Y-50815163D01*
X60122419Y-50815163D02*
X60170038Y-50719925D01*
X60170038Y-50719925D02*
X60217657Y-50672306D01*
X60217657Y-50672306D02*
X60312895Y-50624687D01*
X60312895Y-50624687D02*
X60455752Y-50624687D01*
X60455752Y-50624687D02*
X60550990Y-50672306D01*
X60550990Y-50672306D02*
X60598609Y-50719925D01*
X60598609Y-50719925D02*
X60646228Y-50815163D01*
X60646228Y-50815163D02*
X60646228Y-51196115D01*
X60122419Y-50291353D02*
X61122419Y-50053258D01*
X61122419Y-50053258D02*
X60408133Y-49862782D01*
X60408133Y-49862782D02*
X61122419Y-49672306D01*
X61122419Y-49672306D02*
X60122419Y-49434211D01*
X61122419Y-49053258D02*
X60122419Y-49053258D01*
X60122419Y-49053258D02*
X60836704Y-48719925D01*
X60836704Y-48719925D02*
X60122419Y-48386592D01*
X60122419Y-48386592D02*
X61122419Y-48386592D01*
X60122419Y-46958020D02*
X60122419Y-46862782D01*
X60122419Y-46862782D02*
X60170038Y-46767544D01*
X60170038Y-46767544D02*
X60217657Y-46719925D01*
X60217657Y-46719925D02*
X60312895Y-46672306D01*
X60312895Y-46672306D02*
X60503371Y-46624687D01*
X60503371Y-46624687D02*
X60741466Y-46624687D01*
X60741466Y-46624687D02*
X60931942Y-46672306D01*
X60931942Y-46672306D02*
X61027180Y-46719925D01*
X61027180Y-46719925D02*
X61074800Y-46767544D01*
X61074800Y-46767544D02*
X61122419Y-46862782D01*
X61122419Y-46862782D02*
X61122419Y-46958020D01*
X61122419Y-46958020D02*
X61074800Y-47053258D01*
X61074800Y-47053258D02*
X61027180Y-47100877D01*
X61027180Y-47100877D02*
X60931942Y-47148496D01*
X60931942Y-47148496D02*
X60741466Y-47196115D01*
X60741466Y-47196115D02*
X60503371Y-47196115D01*
X60503371Y-47196115D02*
X60312895Y-47148496D01*
X60312895Y-47148496D02*
X60217657Y-47100877D01*
X60217657Y-47100877D02*
X60170038Y-47053258D01*
X60170038Y-47053258D02*
X60122419Y-46958020D01*
X39661027Y-30195847D02*
X39661027Y-29929180D01*
X39661027Y-29795847D02*
X39641979Y-29814895D01*
X39641979Y-29814895D02*
X39661027Y-29833942D01*
X39661027Y-29833942D02*
X39680074Y-29814895D01*
X39680074Y-29814895D02*
X39661027Y-29795847D01*
X39661027Y-29795847D02*
X39661027Y-29833942D01*
X39851503Y-30195847D02*
X39851503Y-29929180D01*
X39851503Y-29967276D02*
X39870550Y-29948228D01*
X39870550Y-29948228D02*
X39908645Y-29929180D01*
X39908645Y-29929180D02*
X39965788Y-29929180D01*
X39965788Y-29929180D02*
X40003884Y-29948228D01*
X40003884Y-29948228D02*
X40022931Y-29986323D01*
X40022931Y-29986323D02*
X40022931Y-30195847D01*
X40022931Y-29986323D02*
X40041979Y-29948228D01*
X40041979Y-29948228D02*
X40080074Y-29929180D01*
X40080074Y-29929180D02*
X40137217Y-29929180D01*
X40137217Y-29929180D02*
X40175312Y-29948228D01*
X40175312Y-29948228D02*
X40194360Y-29986323D01*
X40194360Y-29986323D02*
X40194360Y-30195847D01*
X40556264Y-29929180D02*
X40556264Y-30195847D01*
X40384836Y-29929180D02*
X40384836Y-30138704D01*
X40384836Y-30138704D02*
X40403883Y-30176800D01*
X40403883Y-30176800D02*
X40441978Y-30195847D01*
X40441978Y-30195847D02*
X40499121Y-30195847D01*
X40499121Y-30195847D02*
X40537217Y-30176800D01*
X40537217Y-30176800D02*
X40556264Y-30157752D01*
D12*
X35054510Y-65050828D02*
X35054510Y-64050828D01*
X35054510Y-64336542D02*
X35125939Y-64193685D01*
X35125939Y-64193685D02*
X35197368Y-64122257D01*
X35197368Y-64122257D02*
X35340225Y-64050828D01*
X35340225Y-64050828D02*
X35483082Y-64050828D01*
X36554510Y-64979400D02*
X36411653Y-65050828D01*
X36411653Y-65050828D02*
X36125939Y-65050828D01*
X36125939Y-65050828D02*
X35983081Y-64979400D01*
X35983081Y-64979400D02*
X35911653Y-64836542D01*
X35911653Y-64836542D02*
X35911653Y-64265114D01*
X35911653Y-64265114D02*
X35983081Y-64122257D01*
X35983081Y-64122257D02*
X36125939Y-64050828D01*
X36125939Y-64050828D02*
X36411653Y-64050828D01*
X36411653Y-64050828D02*
X36554510Y-64122257D01*
X36554510Y-64122257D02*
X36625939Y-64265114D01*
X36625939Y-64265114D02*
X36625939Y-64407971D01*
X36625939Y-64407971D02*
X35911653Y-64550828D01*
X37197367Y-64979400D02*
X37340224Y-65050828D01*
X37340224Y-65050828D02*
X37625938Y-65050828D01*
X37625938Y-65050828D02*
X37768795Y-64979400D01*
X37768795Y-64979400D02*
X37840224Y-64836542D01*
X37840224Y-64836542D02*
X37840224Y-64765114D01*
X37840224Y-64765114D02*
X37768795Y-64622257D01*
X37768795Y-64622257D02*
X37625938Y-64550828D01*
X37625938Y-64550828D02*
X37411653Y-64550828D01*
X37411653Y-64550828D02*
X37268795Y-64479400D01*
X37268795Y-64479400D02*
X37197367Y-64336542D01*
X37197367Y-64336542D02*
X37197367Y-64265114D01*
X37197367Y-64265114D02*
X37268795Y-64122257D01*
X37268795Y-64122257D02*
X37411653Y-64050828D01*
X37411653Y-64050828D02*
X37625938Y-64050828D01*
X37625938Y-64050828D02*
X37768795Y-64122257D01*
X39054510Y-64979400D02*
X38911653Y-65050828D01*
X38911653Y-65050828D02*
X38625939Y-65050828D01*
X38625939Y-65050828D02*
X38483081Y-64979400D01*
X38483081Y-64979400D02*
X38411653Y-64836542D01*
X38411653Y-64836542D02*
X38411653Y-64265114D01*
X38411653Y-64265114D02*
X38483081Y-64122257D01*
X38483081Y-64122257D02*
X38625939Y-64050828D01*
X38625939Y-64050828D02*
X38911653Y-64050828D01*
X38911653Y-64050828D02*
X39054510Y-64122257D01*
X39054510Y-64122257D02*
X39125939Y-64265114D01*
X39125939Y-64265114D02*
X39125939Y-64407971D01*
X39125939Y-64407971D02*
X38411653Y-64550828D01*
X39554510Y-64050828D02*
X40125938Y-64050828D01*
X39768795Y-63550828D02*
X39768795Y-64836542D01*
X39768795Y-64836542D02*
X39840224Y-64979400D01*
X39840224Y-64979400D02*
X39983081Y-65050828D01*
X39983081Y-65050828D02*
X40125938Y-65050828D01*
D10*
X53303884Y-40372419D02*
X53303884Y-39372419D01*
X53303884Y-39372419D02*
X53684836Y-39372419D01*
X53684836Y-39372419D02*
X53780074Y-39420038D01*
X53780074Y-39420038D02*
X53827693Y-39467657D01*
X53827693Y-39467657D02*
X53875312Y-39562895D01*
X53875312Y-39562895D02*
X53875312Y-39705752D01*
X53875312Y-39705752D02*
X53827693Y-39800990D01*
X53827693Y-39800990D02*
X53780074Y-39848609D01*
X53780074Y-39848609D02*
X53684836Y-39896228D01*
X53684836Y-39896228D02*
X53303884Y-39896228D01*
X54446741Y-40372419D02*
X54351503Y-40324800D01*
X54351503Y-40324800D02*
X54303884Y-40277180D01*
X54303884Y-40277180D02*
X54256265Y-40181942D01*
X54256265Y-40181942D02*
X54256265Y-39896228D01*
X54256265Y-39896228D02*
X54303884Y-39800990D01*
X54303884Y-39800990D02*
X54351503Y-39753371D01*
X54351503Y-39753371D02*
X54446741Y-39705752D01*
X54446741Y-39705752D02*
X54589598Y-39705752D01*
X54589598Y-39705752D02*
X54684836Y-39753371D01*
X54684836Y-39753371D02*
X54732455Y-39800990D01*
X54732455Y-39800990D02*
X54780074Y-39896228D01*
X54780074Y-39896228D02*
X54780074Y-40181942D01*
X54780074Y-40181942D02*
X54732455Y-40277180D01*
X54732455Y-40277180D02*
X54684836Y-40324800D01*
X54684836Y-40324800D02*
X54589598Y-40372419D01*
X54589598Y-40372419D02*
X54446741Y-40372419D01*
X55113408Y-39705752D02*
X55303884Y-40372419D01*
X55303884Y-40372419D02*
X55494360Y-39896228D01*
X55494360Y-39896228D02*
X55684836Y-40372419D01*
X55684836Y-40372419D02*
X55875312Y-39705752D01*
X56637217Y-40324800D02*
X56541979Y-40372419D01*
X56541979Y-40372419D02*
X56351503Y-40372419D01*
X56351503Y-40372419D02*
X56256265Y-40324800D01*
X56256265Y-40324800D02*
X56208646Y-40229561D01*
X56208646Y-40229561D02*
X56208646Y-39848609D01*
X56208646Y-39848609D02*
X56256265Y-39753371D01*
X56256265Y-39753371D02*
X56351503Y-39705752D01*
X56351503Y-39705752D02*
X56541979Y-39705752D01*
X56541979Y-39705752D02*
X56637217Y-39753371D01*
X56637217Y-39753371D02*
X56684836Y-39848609D01*
X56684836Y-39848609D02*
X56684836Y-39943847D01*
X56684836Y-39943847D02*
X56208646Y-40039085D01*
X57113408Y-40372419D02*
X57113408Y-39705752D01*
X57113408Y-39896228D02*
X57161027Y-39800990D01*
X57161027Y-39800990D02*
X57208646Y-39753371D01*
X57208646Y-39753371D02*
X57303884Y-39705752D01*
X57303884Y-39705752D02*
X57399122Y-39705752D01*
X59872419Y-32696115D02*
X58872419Y-32696115D01*
X58872419Y-32696115D02*
X58872419Y-32315163D01*
X58872419Y-32315163D02*
X58920038Y-32219925D01*
X58920038Y-32219925D02*
X58967657Y-32172306D01*
X58967657Y-32172306D02*
X59062895Y-32124687D01*
X59062895Y-32124687D02*
X59205752Y-32124687D01*
X59205752Y-32124687D02*
X59300990Y-32172306D01*
X59300990Y-32172306D02*
X59348609Y-32219925D01*
X59348609Y-32219925D02*
X59396228Y-32315163D01*
X59396228Y-32315163D02*
X59396228Y-32696115D01*
X58872419Y-31791353D02*
X59872419Y-31553258D01*
X59872419Y-31553258D02*
X59158133Y-31362782D01*
X59158133Y-31362782D02*
X59872419Y-31172306D01*
X59872419Y-31172306D02*
X58872419Y-30934211D01*
X59872419Y-30553258D02*
X58872419Y-30553258D01*
X58872419Y-30553258D02*
X59586704Y-30219925D01*
X59586704Y-30219925D02*
X58872419Y-29886592D01*
X58872419Y-29886592D02*
X59872419Y-29886592D01*
X58967657Y-28696115D02*
X58920038Y-28648496D01*
X58920038Y-28648496D02*
X58872419Y-28553258D01*
X58872419Y-28553258D02*
X58872419Y-28315163D01*
X58872419Y-28315163D02*
X58920038Y-28219925D01*
X58920038Y-28219925D02*
X58967657Y-28172306D01*
X58967657Y-28172306D02*
X59062895Y-28124687D01*
X59062895Y-28124687D02*
X59158133Y-28124687D01*
X59158133Y-28124687D02*
X59300990Y-28172306D01*
X59300990Y-28172306D02*
X59872419Y-28743734D01*
X59872419Y-28743734D02*
X59872419Y-28124687D01*
D11*
X49488095Y-14774819D02*
X49488095Y-15584342D01*
X49488095Y-15584342D02*
X49535714Y-15679580D01*
X49535714Y-15679580D02*
X49583333Y-15727200D01*
X49583333Y-15727200D02*
X49678571Y-15774819D01*
X49678571Y-15774819D02*
X49869047Y-15774819D01*
X49869047Y-15774819D02*
X49964285Y-15727200D01*
X49964285Y-15727200D02*
X50011904Y-15679580D01*
X50011904Y-15679580D02*
X50059523Y-15584342D01*
X50059523Y-15584342D02*
X50059523Y-14774819D01*
X50488095Y-14870057D02*
X50535714Y-14822438D01*
X50535714Y-14822438D02*
X50630952Y-14774819D01*
X50630952Y-14774819D02*
X50869047Y-14774819D01*
X50869047Y-14774819D02*
X50964285Y-14822438D01*
X50964285Y-14822438D02*
X51011904Y-14870057D01*
X51011904Y-14870057D02*
X51059523Y-14965295D01*
X51059523Y-14965295D02*
X51059523Y-15060533D01*
X51059523Y-15060533D02*
X51011904Y-15203390D01*
X51011904Y-15203390D02*
X50440476Y-15774819D01*
X50440476Y-15774819D02*
X51059523Y-15774819D01*
X32166666Y-62154819D02*
X32166666Y-62869104D01*
X32166666Y-62869104D02*
X32119047Y-63011961D01*
X32119047Y-63011961D02*
X32023809Y-63107200D01*
X32023809Y-63107200D02*
X31880952Y-63154819D01*
X31880952Y-63154819D02*
X31785714Y-63154819D01*
X32642857Y-63154819D02*
X32642857Y-62154819D01*
X32642857Y-62154819D02*
X33023809Y-62154819D01*
X33023809Y-62154819D02*
X33119047Y-62202438D01*
X33119047Y-62202438D02*
X33166666Y-62250057D01*
X33166666Y-62250057D02*
X33214285Y-62345295D01*
X33214285Y-62345295D02*
X33214285Y-62488152D01*
X33214285Y-62488152D02*
X33166666Y-62583390D01*
X33166666Y-62583390D02*
X33119047Y-62631009D01*
X33119047Y-62631009D02*
X33023809Y-62678628D01*
X33023809Y-62678628D02*
X32642857Y-62678628D01*
X34166666Y-63154819D02*
X33595238Y-63154819D01*
X33880952Y-63154819D02*
X33880952Y-62154819D01*
X33880952Y-62154819D02*
X33785714Y-62297676D01*
X33785714Y-62297676D02*
X33690476Y-62392914D01*
X33690476Y-62392914D02*
X33595238Y-62440533D01*
X50107142Y-34109580D02*
X50059523Y-34157200D01*
X50059523Y-34157200D02*
X49916666Y-34204819D01*
X49916666Y-34204819D02*
X49821428Y-34204819D01*
X49821428Y-34204819D02*
X49678571Y-34157200D01*
X49678571Y-34157200D02*
X49583333Y-34061961D01*
X49583333Y-34061961D02*
X49535714Y-33966723D01*
X49535714Y-33966723D02*
X49488095Y-33776247D01*
X49488095Y-33776247D02*
X49488095Y-33633390D01*
X49488095Y-33633390D02*
X49535714Y-33442914D01*
X49535714Y-33442914D02*
X49583333Y-33347676D01*
X49583333Y-33347676D02*
X49678571Y-33252438D01*
X49678571Y-33252438D02*
X49821428Y-33204819D01*
X49821428Y-33204819D02*
X49916666Y-33204819D01*
X49916666Y-33204819D02*
X50059523Y-33252438D01*
X50059523Y-33252438D02*
X50107142Y-33300057D01*
X51059523Y-34204819D02*
X50488095Y-34204819D01*
X50773809Y-34204819D02*
X50773809Y-33204819D01*
X50773809Y-33204819D02*
X50678571Y-33347676D01*
X50678571Y-33347676D02*
X50583333Y-33442914D01*
X50583333Y-33442914D02*
X50488095Y-33490533D01*
X51678571Y-33204819D02*
X51773809Y-33204819D01*
X51773809Y-33204819D02*
X51869047Y-33252438D01*
X51869047Y-33252438D02*
X51916666Y-33300057D01*
X51916666Y-33300057D02*
X51964285Y-33395295D01*
X51964285Y-33395295D02*
X52011904Y-33585771D01*
X52011904Y-33585771D02*
X52011904Y-33823866D01*
X52011904Y-33823866D02*
X51964285Y-34014342D01*
X51964285Y-34014342D02*
X51916666Y-34109580D01*
X51916666Y-34109580D02*
X51869047Y-34157200D01*
X51869047Y-34157200D02*
X51773809Y-34204819D01*
X51773809Y-34204819D02*
X51678571Y-34204819D01*
X51678571Y-34204819D02*
X51583333Y-34157200D01*
X51583333Y-34157200D02*
X51535714Y-34109580D01*
X51535714Y-34109580D02*
X51488095Y-34014342D01*
X51488095Y-34014342D02*
X51440476Y-33823866D01*
X51440476Y-33823866D02*
X51440476Y-33585771D01*
X51440476Y-33585771D02*
X51488095Y-33395295D01*
X51488095Y-33395295D02*
X51535714Y-33300057D01*
X51535714Y-33300057D02*
X51583333Y-33252438D01*
X51583333Y-33252438D02*
X51678571Y-33204819D01*
X33083809Y-71728628D02*
X33083809Y-72204819D01*
X32750476Y-71204819D02*
X33083809Y-71728628D01*
X33083809Y-71728628D02*
X33417142Y-71204819D01*
X34274285Y-72204819D02*
X33702857Y-72204819D01*
X33988571Y-72204819D02*
X33988571Y-71204819D01*
X33988571Y-71204819D02*
X33893333Y-71347676D01*
X33893333Y-71347676D02*
X33798095Y-71442914D01*
X33798095Y-71442914D02*
X33702857Y-71490533D01*
X61767319Y-19153333D02*
X62481604Y-19153333D01*
X62481604Y-19153333D02*
X62624461Y-19200952D01*
X62624461Y-19200952D02*
X62719700Y-19296190D01*
X62719700Y-19296190D02*
X62767319Y-19439047D01*
X62767319Y-19439047D02*
X62767319Y-19534285D01*
X61767319Y-18200952D02*
X61767319Y-18677142D01*
X61767319Y-18677142D02*
X62243509Y-18724761D01*
X62243509Y-18724761D02*
X62195890Y-18677142D01*
X62195890Y-18677142D02*
X62148271Y-18581904D01*
X62148271Y-18581904D02*
X62148271Y-18343809D01*
X62148271Y-18343809D02*
X62195890Y-18248571D01*
X62195890Y-18248571D02*
X62243509Y-18200952D01*
X62243509Y-18200952D02*
X62338747Y-18153333D01*
X62338747Y-18153333D02*
X62576842Y-18153333D01*
X62576842Y-18153333D02*
X62672080Y-18200952D01*
X62672080Y-18200952D02*
X62719700Y-18248571D01*
X62719700Y-18248571D02*
X62767319Y-18343809D01*
X62767319Y-18343809D02*
X62767319Y-18581904D01*
X62767319Y-18581904D02*
X62719700Y-18677142D01*
X62719700Y-18677142D02*
X62672080Y-18724761D01*
X18833333Y-67359580D02*
X18785714Y-67407200D01*
X18785714Y-67407200D02*
X18642857Y-67454819D01*
X18642857Y-67454819D02*
X18547619Y-67454819D01*
X18547619Y-67454819D02*
X18404762Y-67407200D01*
X18404762Y-67407200D02*
X18309524Y-67311961D01*
X18309524Y-67311961D02*
X18261905Y-67216723D01*
X18261905Y-67216723D02*
X18214286Y-67026247D01*
X18214286Y-67026247D02*
X18214286Y-66883390D01*
X18214286Y-66883390D02*
X18261905Y-66692914D01*
X18261905Y-66692914D02*
X18309524Y-66597676D01*
X18309524Y-66597676D02*
X18404762Y-66502438D01*
X18404762Y-66502438D02*
X18547619Y-66454819D01*
X18547619Y-66454819D02*
X18642857Y-66454819D01*
X18642857Y-66454819D02*
X18785714Y-66502438D01*
X18785714Y-66502438D02*
X18833333Y-66550057D01*
X19214286Y-66550057D02*
X19261905Y-66502438D01*
X19261905Y-66502438D02*
X19357143Y-66454819D01*
X19357143Y-66454819D02*
X19595238Y-66454819D01*
X19595238Y-66454819D02*
X19690476Y-66502438D01*
X19690476Y-66502438D02*
X19738095Y-66550057D01*
X19738095Y-66550057D02*
X19785714Y-66645295D01*
X19785714Y-66645295D02*
X19785714Y-66740533D01*
X19785714Y-66740533D02*
X19738095Y-66883390D01*
X19738095Y-66883390D02*
X19166667Y-67454819D01*
X19166667Y-67454819D02*
X19785714Y-67454819D01*
X44083333Y-63674819D02*
X43607143Y-63674819D01*
X43607143Y-63674819D02*
X43607143Y-62674819D01*
X44940476Y-63674819D02*
X44369048Y-63674819D01*
X44654762Y-63674819D02*
X44654762Y-62674819D01*
X44654762Y-62674819D02*
X44559524Y-62817676D01*
X44559524Y-62817676D02*
X44464286Y-62912914D01*
X44464286Y-62912914D02*
X44369048Y-62960533D01*
X39583333Y-41859580D02*
X39535714Y-41907200D01*
X39535714Y-41907200D02*
X39392857Y-41954819D01*
X39392857Y-41954819D02*
X39297619Y-41954819D01*
X39297619Y-41954819D02*
X39154762Y-41907200D01*
X39154762Y-41907200D02*
X39059524Y-41811961D01*
X39059524Y-41811961D02*
X39011905Y-41716723D01*
X39011905Y-41716723D02*
X38964286Y-41526247D01*
X38964286Y-41526247D02*
X38964286Y-41383390D01*
X38964286Y-41383390D02*
X39011905Y-41192914D01*
X39011905Y-41192914D02*
X39059524Y-41097676D01*
X39059524Y-41097676D02*
X39154762Y-41002438D01*
X39154762Y-41002438D02*
X39297619Y-40954819D01*
X39297619Y-40954819D02*
X39392857Y-40954819D01*
X39392857Y-40954819D02*
X39535714Y-41002438D01*
X39535714Y-41002438D02*
X39583333Y-41050057D01*
X40154762Y-41383390D02*
X40059524Y-41335771D01*
X40059524Y-41335771D02*
X40011905Y-41288152D01*
X40011905Y-41288152D02*
X39964286Y-41192914D01*
X39964286Y-41192914D02*
X39964286Y-41145295D01*
X39964286Y-41145295D02*
X40011905Y-41050057D01*
X40011905Y-41050057D02*
X40059524Y-41002438D01*
X40059524Y-41002438D02*
X40154762Y-40954819D01*
X40154762Y-40954819D02*
X40345238Y-40954819D01*
X40345238Y-40954819D02*
X40440476Y-41002438D01*
X40440476Y-41002438D02*
X40488095Y-41050057D01*
X40488095Y-41050057D02*
X40535714Y-41145295D01*
X40535714Y-41145295D02*
X40535714Y-41192914D01*
X40535714Y-41192914D02*
X40488095Y-41288152D01*
X40488095Y-41288152D02*
X40440476Y-41335771D01*
X40440476Y-41335771D02*
X40345238Y-41383390D01*
X40345238Y-41383390D02*
X40154762Y-41383390D01*
X40154762Y-41383390D02*
X40059524Y-41431009D01*
X40059524Y-41431009D02*
X40011905Y-41478628D01*
X40011905Y-41478628D02*
X39964286Y-41573866D01*
X39964286Y-41573866D02*
X39964286Y-41764342D01*
X39964286Y-41764342D02*
X40011905Y-41859580D01*
X40011905Y-41859580D02*
X40059524Y-41907200D01*
X40059524Y-41907200D02*
X40154762Y-41954819D01*
X40154762Y-41954819D02*
X40345238Y-41954819D01*
X40345238Y-41954819D02*
X40440476Y-41907200D01*
X40440476Y-41907200D02*
X40488095Y-41859580D01*
X40488095Y-41859580D02*
X40535714Y-41764342D01*
X40535714Y-41764342D02*
X40535714Y-41573866D01*
X40535714Y-41573866D02*
X40488095Y-41478628D01*
X40488095Y-41478628D02*
X40440476Y-41431009D01*
X40440476Y-41431009D02*
X40345238Y-41383390D01*
X31393333Y-67954819D02*
X31060000Y-67478628D01*
X30821905Y-67954819D02*
X30821905Y-66954819D01*
X30821905Y-66954819D02*
X31202857Y-66954819D01*
X31202857Y-66954819D02*
X31298095Y-67002438D01*
X31298095Y-67002438D02*
X31345714Y-67050057D01*
X31345714Y-67050057D02*
X31393333Y-67145295D01*
X31393333Y-67145295D02*
X31393333Y-67288152D01*
X31393333Y-67288152D02*
X31345714Y-67383390D01*
X31345714Y-67383390D02*
X31298095Y-67431009D01*
X31298095Y-67431009D02*
X31202857Y-67478628D01*
X31202857Y-67478628D02*
X30821905Y-67478628D01*
X31726667Y-66954819D02*
X32345714Y-66954819D01*
X32345714Y-66954819D02*
X32012381Y-67335771D01*
X32012381Y-67335771D02*
X32155238Y-67335771D01*
X32155238Y-67335771D02*
X32250476Y-67383390D01*
X32250476Y-67383390D02*
X32298095Y-67431009D01*
X32298095Y-67431009D02*
X32345714Y-67526247D01*
X32345714Y-67526247D02*
X32345714Y-67764342D01*
X32345714Y-67764342D02*
X32298095Y-67859580D01*
X32298095Y-67859580D02*
X32250476Y-67907200D01*
X32250476Y-67907200D02*
X32155238Y-67954819D01*
X32155238Y-67954819D02*
X31869524Y-67954819D01*
X31869524Y-67954819D02*
X31774286Y-67907200D01*
X31774286Y-67907200D02*
X31726667Y-67859580D01*
X46333333Y-64679580D02*
X46285714Y-64727200D01*
X46285714Y-64727200D02*
X46142857Y-64774819D01*
X46142857Y-64774819D02*
X46047619Y-64774819D01*
X46047619Y-64774819D02*
X45904762Y-64727200D01*
X45904762Y-64727200D02*
X45809524Y-64631961D01*
X45809524Y-64631961D02*
X45761905Y-64536723D01*
X45761905Y-64536723D02*
X45714286Y-64346247D01*
X45714286Y-64346247D02*
X45714286Y-64203390D01*
X45714286Y-64203390D02*
X45761905Y-64012914D01*
X45761905Y-64012914D02*
X45809524Y-63917676D01*
X45809524Y-63917676D02*
X45904762Y-63822438D01*
X45904762Y-63822438D02*
X46047619Y-63774819D01*
X46047619Y-63774819D02*
X46142857Y-63774819D01*
X46142857Y-63774819D02*
X46285714Y-63822438D01*
X46285714Y-63822438D02*
X46333333Y-63870057D01*
X47285714Y-64774819D02*
X46714286Y-64774819D01*
X47000000Y-64774819D02*
X47000000Y-63774819D01*
X47000000Y-63774819D02*
X46904762Y-63917676D01*
X46904762Y-63917676D02*
X46809524Y-64012914D01*
X46809524Y-64012914D02*
X46714286Y-64060533D01*
X49488095Y-55874819D02*
X49488095Y-56684342D01*
X49488095Y-56684342D02*
X49535714Y-56779580D01*
X49535714Y-56779580D02*
X49583333Y-56827200D01*
X49583333Y-56827200D02*
X49678571Y-56874819D01*
X49678571Y-56874819D02*
X49869047Y-56874819D01*
X49869047Y-56874819D02*
X49964285Y-56827200D01*
X49964285Y-56827200D02*
X50011904Y-56779580D01*
X50011904Y-56779580D02*
X50059523Y-56684342D01*
X50059523Y-56684342D02*
X50059523Y-55874819D01*
X51059523Y-56874819D02*
X50488095Y-56874819D01*
X50773809Y-56874819D02*
X50773809Y-55874819D01*
X50773809Y-55874819D02*
X50678571Y-56017676D01*
X50678571Y-56017676D02*
X50583333Y-56112914D01*
X50583333Y-56112914D02*
X50488095Y-56160533D01*
X47333333Y-45704819D02*
X47000000Y-45228628D01*
X46761905Y-45704819D02*
X46761905Y-44704819D01*
X46761905Y-44704819D02*
X47142857Y-44704819D01*
X47142857Y-44704819D02*
X47238095Y-44752438D01*
X47238095Y-44752438D02*
X47285714Y-44800057D01*
X47285714Y-44800057D02*
X47333333Y-44895295D01*
X47333333Y-44895295D02*
X47333333Y-45038152D01*
X47333333Y-45038152D02*
X47285714Y-45133390D01*
X47285714Y-45133390D02*
X47238095Y-45181009D01*
X47238095Y-45181009D02*
X47142857Y-45228628D01*
X47142857Y-45228628D02*
X46761905Y-45228628D01*
X48238095Y-44704819D02*
X47761905Y-44704819D01*
X47761905Y-44704819D02*
X47714286Y-45181009D01*
X47714286Y-45181009D02*
X47761905Y-45133390D01*
X47761905Y-45133390D02*
X47857143Y-45085771D01*
X47857143Y-45085771D02*
X48095238Y-45085771D01*
X48095238Y-45085771D02*
X48190476Y-45133390D01*
X48190476Y-45133390D02*
X48238095Y-45181009D01*
X48238095Y-45181009D02*
X48285714Y-45276247D01*
X48285714Y-45276247D02*
X48285714Y-45514342D01*
X48285714Y-45514342D02*
X48238095Y-45609580D01*
X48238095Y-45609580D02*
X48190476Y-45657200D01*
X48190476Y-45657200D02*
X48095238Y-45704819D01*
X48095238Y-45704819D02*
X47857143Y-45704819D01*
X47857143Y-45704819D02*
X47761905Y-45657200D01*
X47761905Y-45657200D02*
X47714286Y-45609580D01*
X33583333Y-34609580D02*
X33535714Y-34657200D01*
X33535714Y-34657200D02*
X33392857Y-34704819D01*
X33392857Y-34704819D02*
X33297619Y-34704819D01*
X33297619Y-34704819D02*
X33154762Y-34657200D01*
X33154762Y-34657200D02*
X33059524Y-34561961D01*
X33059524Y-34561961D02*
X33011905Y-34466723D01*
X33011905Y-34466723D02*
X32964286Y-34276247D01*
X32964286Y-34276247D02*
X32964286Y-34133390D01*
X32964286Y-34133390D02*
X33011905Y-33942914D01*
X33011905Y-33942914D02*
X33059524Y-33847676D01*
X33059524Y-33847676D02*
X33154762Y-33752438D01*
X33154762Y-33752438D02*
X33297619Y-33704819D01*
X33297619Y-33704819D02*
X33392857Y-33704819D01*
X33392857Y-33704819D02*
X33535714Y-33752438D01*
X33535714Y-33752438D02*
X33583333Y-33800057D01*
X34059524Y-34704819D02*
X34250000Y-34704819D01*
X34250000Y-34704819D02*
X34345238Y-34657200D01*
X34345238Y-34657200D02*
X34392857Y-34609580D01*
X34392857Y-34609580D02*
X34488095Y-34466723D01*
X34488095Y-34466723D02*
X34535714Y-34276247D01*
X34535714Y-34276247D02*
X34535714Y-33895295D01*
X34535714Y-33895295D02*
X34488095Y-33800057D01*
X34488095Y-33800057D02*
X34440476Y-33752438D01*
X34440476Y-33752438D02*
X34345238Y-33704819D01*
X34345238Y-33704819D02*
X34154762Y-33704819D01*
X34154762Y-33704819D02*
X34059524Y-33752438D01*
X34059524Y-33752438D02*
X34011905Y-33800057D01*
X34011905Y-33800057D02*
X33964286Y-33895295D01*
X33964286Y-33895295D02*
X33964286Y-34133390D01*
X33964286Y-34133390D02*
X34011905Y-34228628D01*
X34011905Y-34228628D02*
X34059524Y-34276247D01*
X34059524Y-34276247D02*
X34154762Y-34323866D01*
X34154762Y-34323866D02*
X34345238Y-34323866D01*
X34345238Y-34323866D02*
X34440476Y-34276247D01*
X34440476Y-34276247D02*
X34488095Y-34228628D01*
X34488095Y-34228628D02*
X34535714Y-34133390D01*
X61734819Y-57153333D02*
X62449104Y-57153333D01*
X62449104Y-57153333D02*
X62591961Y-57200952D01*
X62591961Y-57200952D02*
X62687200Y-57296190D01*
X62687200Y-57296190D02*
X62734819Y-57439047D01*
X62734819Y-57439047D02*
X62734819Y-57534285D01*
X61734819Y-56772380D02*
X61734819Y-56105714D01*
X61734819Y-56105714D02*
X62734819Y-56534285D01*
X59204819Y-58916666D02*
X58728628Y-59249999D01*
X59204819Y-59488094D02*
X58204819Y-59488094D01*
X58204819Y-59488094D02*
X58204819Y-59107142D01*
X58204819Y-59107142D02*
X58252438Y-59011904D01*
X58252438Y-59011904D02*
X58300057Y-58964285D01*
X58300057Y-58964285D02*
X58395295Y-58916666D01*
X58395295Y-58916666D02*
X58538152Y-58916666D01*
X58538152Y-58916666D02*
X58633390Y-58964285D01*
X58633390Y-58964285D02*
X58681009Y-59011904D01*
X58681009Y-59011904D02*
X58728628Y-59107142D01*
X58728628Y-59107142D02*
X58728628Y-59488094D01*
X59204819Y-57964285D02*
X59204819Y-58535713D01*
X59204819Y-58249999D02*
X58204819Y-58249999D01*
X58204819Y-58249999D02*
X58347676Y-58345237D01*
X58347676Y-58345237D02*
X58442914Y-58440475D01*
X58442914Y-58440475D02*
X58490533Y-58535713D01*
X41704819Y-30011904D02*
X42514342Y-30011904D01*
X42514342Y-30011904D02*
X42609580Y-29964285D01*
X42609580Y-29964285D02*
X42657200Y-29916666D01*
X42657200Y-29916666D02*
X42704819Y-29821428D01*
X42704819Y-29821428D02*
X42704819Y-29630952D01*
X42704819Y-29630952D02*
X42657200Y-29535714D01*
X42657200Y-29535714D02*
X42609580Y-29488095D01*
X42609580Y-29488095D02*
X42514342Y-29440476D01*
X42514342Y-29440476D02*
X41704819Y-29440476D01*
X42038152Y-28535714D02*
X42704819Y-28535714D01*
X41657200Y-28773809D02*
X42371485Y-29011904D01*
X42371485Y-29011904D02*
X42371485Y-28392857D01*
X49107142Y-28359580D02*
X49059523Y-28407200D01*
X49059523Y-28407200D02*
X48916666Y-28454819D01*
X48916666Y-28454819D02*
X48821428Y-28454819D01*
X48821428Y-28454819D02*
X48678571Y-28407200D01*
X48678571Y-28407200D02*
X48583333Y-28311961D01*
X48583333Y-28311961D02*
X48535714Y-28216723D01*
X48535714Y-28216723D02*
X48488095Y-28026247D01*
X48488095Y-28026247D02*
X48488095Y-27883390D01*
X48488095Y-27883390D02*
X48535714Y-27692914D01*
X48535714Y-27692914D02*
X48583333Y-27597676D01*
X48583333Y-27597676D02*
X48678571Y-27502438D01*
X48678571Y-27502438D02*
X48821428Y-27454819D01*
X48821428Y-27454819D02*
X48916666Y-27454819D01*
X48916666Y-27454819D02*
X49059523Y-27502438D01*
X49059523Y-27502438D02*
X49107142Y-27550057D01*
X50059523Y-28454819D02*
X49488095Y-28454819D01*
X49773809Y-28454819D02*
X49773809Y-27454819D01*
X49773809Y-27454819D02*
X49678571Y-27597676D01*
X49678571Y-27597676D02*
X49583333Y-27692914D01*
X49583333Y-27692914D02*
X49488095Y-27740533D01*
X50440476Y-27550057D02*
X50488095Y-27502438D01*
X50488095Y-27502438D02*
X50583333Y-27454819D01*
X50583333Y-27454819D02*
X50821428Y-27454819D01*
X50821428Y-27454819D02*
X50916666Y-27502438D01*
X50916666Y-27502438D02*
X50964285Y-27550057D01*
X50964285Y-27550057D02*
X51011904Y-27645295D01*
X51011904Y-27645295D02*
X51011904Y-27740533D01*
X51011904Y-27740533D02*
X50964285Y-27883390D01*
X50964285Y-27883390D02*
X50392857Y-28454819D01*
X50392857Y-28454819D02*
X51011904Y-28454819D01*
X53454819Y-63916666D02*
X52978628Y-64249999D01*
X53454819Y-64488094D02*
X52454819Y-64488094D01*
X52454819Y-64488094D02*
X52454819Y-64107142D01*
X52454819Y-64107142D02*
X52502438Y-64011904D01*
X52502438Y-64011904D02*
X52550057Y-63964285D01*
X52550057Y-63964285D02*
X52645295Y-63916666D01*
X52645295Y-63916666D02*
X52788152Y-63916666D01*
X52788152Y-63916666D02*
X52883390Y-63964285D01*
X52883390Y-63964285D02*
X52931009Y-64011904D01*
X52931009Y-64011904D02*
X52978628Y-64107142D01*
X52978628Y-64107142D02*
X52978628Y-64488094D01*
X52550057Y-63535713D02*
X52502438Y-63488094D01*
X52502438Y-63488094D02*
X52454819Y-63392856D01*
X52454819Y-63392856D02*
X52454819Y-63154761D01*
X52454819Y-63154761D02*
X52502438Y-63059523D01*
X52502438Y-63059523D02*
X52550057Y-63011904D01*
X52550057Y-63011904D02*
X52645295Y-62964285D01*
X52645295Y-62964285D02*
X52740533Y-62964285D01*
X52740533Y-62964285D02*
X52883390Y-63011904D01*
X52883390Y-63011904D02*
X53454819Y-63583332D01*
X53454819Y-63583332D02*
X53454819Y-62964285D01*
X47333333Y-43704819D02*
X47000000Y-43228628D01*
X46761905Y-43704819D02*
X46761905Y-42704819D01*
X46761905Y-42704819D02*
X47142857Y-42704819D01*
X47142857Y-42704819D02*
X47238095Y-42752438D01*
X47238095Y-42752438D02*
X47285714Y-42800057D01*
X47285714Y-42800057D02*
X47333333Y-42895295D01*
X47333333Y-42895295D02*
X47333333Y-43038152D01*
X47333333Y-43038152D02*
X47285714Y-43133390D01*
X47285714Y-43133390D02*
X47238095Y-43181009D01*
X47238095Y-43181009D02*
X47142857Y-43228628D01*
X47142857Y-43228628D02*
X46761905Y-43228628D01*
X48190476Y-43038152D02*
X48190476Y-43704819D01*
X47952381Y-42657200D02*
X47714286Y-43371485D01*
X47714286Y-43371485D02*
X48333333Y-43371485D01*
X38488095Y-53526819D02*
X39059523Y-53526819D01*
X38773809Y-54526819D02*
X38773809Y-53526819D01*
X39392857Y-54526819D02*
X39392857Y-53526819D01*
X39392857Y-53526819D02*
X39773809Y-53526819D01*
X39773809Y-53526819D02*
X39869047Y-53574438D01*
X39869047Y-53574438D02*
X39916666Y-53622057D01*
X39916666Y-53622057D02*
X39964285Y-53717295D01*
X39964285Y-53717295D02*
X39964285Y-53860152D01*
X39964285Y-53860152D02*
X39916666Y-53955390D01*
X39916666Y-53955390D02*
X39869047Y-54003009D01*
X39869047Y-54003009D02*
X39773809Y-54050628D01*
X39773809Y-54050628D02*
X39392857Y-54050628D01*
X40916666Y-54526819D02*
X40345238Y-54526819D01*
X40630952Y-54526819D02*
X40630952Y-53526819D01*
X40630952Y-53526819D02*
X40535714Y-53669676D01*
X40535714Y-53669676D02*
X40440476Y-53764914D01*
X40440476Y-53764914D02*
X40345238Y-53812533D01*
X61767319Y-47613333D02*
X62481604Y-47613333D01*
X62481604Y-47613333D02*
X62624461Y-47660952D01*
X62624461Y-47660952D02*
X62719700Y-47756190D01*
X62719700Y-47756190D02*
X62767319Y-47899047D01*
X62767319Y-47899047D02*
X62767319Y-47994285D01*
X61862557Y-47184761D02*
X61814938Y-47137142D01*
X61814938Y-47137142D02*
X61767319Y-47041904D01*
X61767319Y-47041904D02*
X61767319Y-46803809D01*
X61767319Y-46803809D02*
X61814938Y-46708571D01*
X61814938Y-46708571D02*
X61862557Y-46660952D01*
X61862557Y-46660952D02*
X61957795Y-46613333D01*
X61957795Y-46613333D02*
X62053033Y-46613333D01*
X62053033Y-46613333D02*
X62195890Y-46660952D01*
X62195890Y-46660952D02*
X62767319Y-47232380D01*
X62767319Y-47232380D02*
X62767319Y-46613333D01*
X50971905Y-49204819D02*
X50971905Y-48204819D01*
X50971905Y-48204819D02*
X51210000Y-48204819D01*
X51210000Y-48204819D02*
X51352857Y-48252438D01*
X51352857Y-48252438D02*
X51448095Y-48347676D01*
X51448095Y-48347676D02*
X51495714Y-48442914D01*
X51495714Y-48442914D02*
X51543333Y-48633390D01*
X51543333Y-48633390D02*
X51543333Y-48776247D01*
X51543333Y-48776247D02*
X51495714Y-48966723D01*
X51495714Y-48966723D02*
X51448095Y-49061961D01*
X51448095Y-49061961D02*
X51352857Y-49157200D01*
X51352857Y-49157200D02*
X51210000Y-49204819D01*
X51210000Y-49204819D02*
X50971905Y-49204819D01*
X52495714Y-49204819D02*
X51924286Y-49204819D01*
X52210000Y-49204819D02*
X52210000Y-48204819D01*
X52210000Y-48204819D02*
X52114762Y-48347676D01*
X52114762Y-48347676D02*
X52019524Y-48442914D01*
X52019524Y-48442914D02*
X51924286Y-48490533D01*
X36833333Y-17359580D02*
X36785714Y-17407200D01*
X36785714Y-17407200D02*
X36642857Y-17454819D01*
X36642857Y-17454819D02*
X36547619Y-17454819D01*
X36547619Y-17454819D02*
X36404762Y-17407200D01*
X36404762Y-17407200D02*
X36309524Y-17311961D01*
X36309524Y-17311961D02*
X36261905Y-17216723D01*
X36261905Y-17216723D02*
X36214286Y-17026247D01*
X36214286Y-17026247D02*
X36214286Y-16883390D01*
X36214286Y-16883390D02*
X36261905Y-16692914D01*
X36261905Y-16692914D02*
X36309524Y-16597676D01*
X36309524Y-16597676D02*
X36404762Y-16502438D01*
X36404762Y-16502438D02*
X36547619Y-16454819D01*
X36547619Y-16454819D02*
X36642857Y-16454819D01*
X36642857Y-16454819D02*
X36785714Y-16502438D01*
X36785714Y-16502438D02*
X36833333Y-16550057D01*
X37166667Y-16454819D02*
X37785714Y-16454819D01*
X37785714Y-16454819D02*
X37452381Y-16835771D01*
X37452381Y-16835771D02*
X37595238Y-16835771D01*
X37595238Y-16835771D02*
X37690476Y-16883390D01*
X37690476Y-16883390D02*
X37738095Y-16931009D01*
X37738095Y-16931009D02*
X37785714Y-17026247D01*
X37785714Y-17026247D02*
X37785714Y-17264342D01*
X37785714Y-17264342D02*
X37738095Y-17359580D01*
X37738095Y-17359580D02*
X37690476Y-17407200D01*
X37690476Y-17407200D02*
X37595238Y-17454819D01*
X37595238Y-17454819D02*
X37309524Y-17454819D01*
X37309524Y-17454819D02*
X37214286Y-17407200D01*
X37214286Y-17407200D02*
X37166667Y-17359580D01*
X44583333Y-41859580D02*
X44535714Y-41907200D01*
X44535714Y-41907200D02*
X44392857Y-41954819D01*
X44392857Y-41954819D02*
X44297619Y-41954819D01*
X44297619Y-41954819D02*
X44154762Y-41907200D01*
X44154762Y-41907200D02*
X44059524Y-41811961D01*
X44059524Y-41811961D02*
X44011905Y-41716723D01*
X44011905Y-41716723D02*
X43964286Y-41526247D01*
X43964286Y-41526247D02*
X43964286Y-41383390D01*
X43964286Y-41383390D02*
X44011905Y-41192914D01*
X44011905Y-41192914D02*
X44059524Y-41097676D01*
X44059524Y-41097676D02*
X44154762Y-41002438D01*
X44154762Y-41002438D02*
X44297619Y-40954819D01*
X44297619Y-40954819D02*
X44392857Y-40954819D01*
X44392857Y-40954819D02*
X44535714Y-41002438D01*
X44535714Y-41002438D02*
X44583333Y-41050057D01*
X44916667Y-40954819D02*
X45583333Y-40954819D01*
X45583333Y-40954819D02*
X45154762Y-41954819D01*
X61767319Y-28613333D02*
X62481604Y-28613333D01*
X62481604Y-28613333D02*
X62624461Y-28660952D01*
X62624461Y-28660952D02*
X62719700Y-28756190D01*
X62719700Y-28756190D02*
X62767319Y-28899047D01*
X62767319Y-28899047D02*
X62767319Y-28994285D01*
X62100652Y-27708571D02*
X62767319Y-27708571D01*
X61719700Y-27946666D02*
X62433985Y-28184761D01*
X62433985Y-28184761D02*
X62433985Y-27565714D01*
X51666666Y-64954819D02*
X51666666Y-65669104D01*
X51666666Y-65669104D02*
X51619047Y-65811961D01*
X51619047Y-65811961D02*
X51523809Y-65907200D01*
X51523809Y-65907200D02*
X51380952Y-65954819D01*
X51380952Y-65954819D02*
X51285714Y-65954819D01*
X52666666Y-65954819D02*
X52095238Y-65954819D01*
X52380952Y-65954819D02*
X52380952Y-64954819D01*
X52380952Y-64954819D02*
X52285714Y-65097676D01*
X52285714Y-65097676D02*
X52190476Y-65192914D01*
X52190476Y-65192914D02*
X52095238Y-65240533D01*
X45107142Y-20359580D02*
X45059523Y-20407200D01*
X45059523Y-20407200D02*
X44916666Y-20454819D01*
X44916666Y-20454819D02*
X44821428Y-20454819D01*
X44821428Y-20454819D02*
X44678571Y-20407200D01*
X44678571Y-20407200D02*
X44583333Y-20311961D01*
X44583333Y-20311961D02*
X44535714Y-20216723D01*
X44535714Y-20216723D02*
X44488095Y-20026247D01*
X44488095Y-20026247D02*
X44488095Y-19883390D01*
X44488095Y-19883390D02*
X44535714Y-19692914D01*
X44535714Y-19692914D02*
X44583333Y-19597676D01*
X44583333Y-19597676D02*
X44678571Y-19502438D01*
X44678571Y-19502438D02*
X44821428Y-19454819D01*
X44821428Y-19454819D02*
X44916666Y-19454819D01*
X44916666Y-19454819D02*
X45059523Y-19502438D01*
X45059523Y-19502438D02*
X45107142Y-19550057D01*
X46059523Y-20454819D02*
X45488095Y-20454819D01*
X45773809Y-20454819D02*
X45773809Y-19454819D01*
X45773809Y-19454819D02*
X45678571Y-19597676D01*
X45678571Y-19597676D02*
X45583333Y-19692914D01*
X45583333Y-19692914D02*
X45488095Y-19740533D01*
X47011904Y-20454819D02*
X46440476Y-20454819D01*
X46726190Y-20454819D02*
X46726190Y-19454819D01*
X46726190Y-19454819D02*
X46630952Y-19597676D01*
X46630952Y-19597676D02*
X46535714Y-19692914D01*
X46535714Y-19692914D02*
X46440476Y-19740533D01*
X38354819Y-26306904D02*
X39164342Y-26306904D01*
X39164342Y-26306904D02*
X39259580Y-26259285D01*
X39259580Y-26259285D02*
X39307200Y-26211666D01*
X39307200Y-26211666D02*
X39354819Y-26116428D01*
X39354819Y-26116428D02*
X39354819Y-25925952D01*
X39354819Y-25925952D02*
X39307200Y-25830714D01*
X39307200Y-25830714D02*
X39259580Y-25783095D01*
X39259580Y-25783095D02*
X39164342Y-25735476D01*
X39164342Y-25735476D02*
X38354819Y-25735476D01*
X38354819Y-24783095D02*
X38354819Y-25259285D01*
X38354819Y-25259285D02*
X38831009Y-25306904D01*
X38831009Y-25306904D02*
X38783390Y-25259285D01*
X38783390Y-25259285D02*
X38735771Y-25164047D01*
X38735771Y-25164047D02*
X38735771Y-24925952D01*
X38735771Y-24925952D02*
X38783390Y-24830714D01*
X38783390Y-24830714D02*
X38831009Y-24783095D01*
X38831009Y-24783095D02*
X38926247Y-24735476D01*
X38926247Y-24735476D02*
X39164342Y-24735476D01*
X39164342Y-24735476D02*
X39259580Y-24783095D01*
X39259580Y-24783095D02*
X39307200Y-24830714D01*
X39307200Y-24830714D02*
X39354819Y-24925952D01*
X39354819Y-24925952D02*
X39354819Y-25164047D01*
X39354819Y-25164047D02*
X39307200Y-25259285D01*
X39307200Y-25259285D02*
X39259580Y-25306904D01*
X61767319Y-67843333D02*
X62481604Y-67843333D01*
X62481604Y-67843333D02*
X62624461Y-67890952D01*
X62624461Y-67890952D02*
X62719700Y-67986190D01*
X62719700Y-67986190D02*
X62767319Y-68129047D01*
X62767319Y-68129047D02*
X62767319Y-68224285D01*
X62195890Y-67224285D02*
X62148271Y-67319523D01*
X62148271Y-67319523D02*
X62100652Y-67367142D01*
X62100652Y-67367142D02*
X62005414Y-67414761D01*
X62005414Y-67414761D02*
X61957795Y-67414761D01*
X61957795Y-67414761D02*
X61862557Y-67367142D01*
X61862557Y-67367142D02*
X61814938Y-67319523D01*
X61814938Y-67319523D02*
X61767319Y-67224285D01*
X61767319Y-67224285D02*
X61767319Y-67033809D01*
X61767319Y-67033809D02*
X61814938Y-66938571D01*
X61814938Y-66938571D02*
X61862557Y-66890952D01*
X61862557Y-66890952D02*
X61957795Y-66843333D01*
X61957795Y-66843333D02*
X62005414Y-66843333D01*
X62005414Y-66843333D02*
X62100652Y-66890952D01*
X62100652Y-66890952D02*
X62148271Y-66938571D01*
X62148271Y-66938571D02*
X62195890Y-67033809D01*
X62195890Y-67033809D02*
X62195890Y-67224285D01*
X62195890Y-67224285D02*
X62243509Y-67319523D01*
X62243509Y-67319523D02*
X62291128Y-67367142D01*
X62291128Y-67367142D02*
X62386366Y-67414761D01*
X62386366Y-67414761D02*
X62576842Y-67414761D01*
X62576842Y-67414761D02*
X62672080Y-67367142D01*
X62672080Y-67367142D02*
X62719700Y-67319523D01*
X62719700Y-67319523D02*
X62767319Y-67224285D01*
X62767319Y-67224285D02*
X62767319Y-67033809D01*
X62767319Y-67033809D02*
X62719700Y-66938571D01*
X62719700Y-66938571D02*
X62672080Y-66890952D01*
X62672080Y-66890952D02*
X62576842Y-66843333D01*
X62576842Y-66843333D02*
X62386366Y-66843333D01*
X62386366Y-66843333D02*
X62291128Y-66890952D01*
X62291128Y-66890952D02*
X62243509Y-66938571D01*
X62243509Y-66938571D02*
X62195890Y-67033809D01*
X58146666Y-21954819D02*
X58146666Y-22669104D01*
X58146666Y-22669104D02*
X58099047Y-22811961D01*
X58099047Y-22811961D02*
X58003809Y-22907200D01*
X58003809Y-22907200D02*
X57860952Y-22954819D01*
X57860952Y-22954819D02*
X57765714Y-22954819D01*
X59051428Y-21954819D02*
X58860952Y-21954819D01*
X58860952Y-21954819D02*
X58765714Y-22002438D01*
X58765714Y-22002438D02*
X58718095Y-22050057D01*
X58718095Y-22050057D02*
X58622857Y-22192914D01*
X58622857Y-22192914D02*
X58575238Y-22383390D01*
X58575238Y-22383390D02*
X58575238Y-22764342D01*
X58575238Y-22764342D02*
X58622857Y-22859580D01*
X58622857Y-22859580D02*
X58670476Y-22907200D01*
X58670476Y-22907200D02*
X58765714Y-22954819D01*
X58765714Y-22954819D02*
X58956190Y-22954819D01*
X58956190Y-22954819D02*
X59051428Y-22907200D01*
X59051428Y-22907200D02*
X59099047Y-22859580D01*
X59099047Y-22859580D02*
X59146666Y-22764342D01*
X59146666Y-22764342D02*
X59146666Y-22526247D01*
X59146666Y-22526247D02*
X59099047Y-22431009D01*
X59099047Y-22431009D02*
X59051428Y-22383390D01*
X59051428Y-22383390D02*
X58956190Y-22335771D01*
X58956190Y-22335771D02*
X58765714Y-22335771D01*
X58765714Y-22335771D02*
X58670476Y-22383390D01*
X58670476Y-22383390D02*
X58622857Y-22431009D01*
X58622857Y-22431009D02*
X58575238Y-22526247D01*
X50971905Y-44704819D02*
X50971905Y-43704819D01*
X50971905Y-43704819D02*
X51210000Y-43704819D01*
X51210000Y-43704819D02*
X51352857Y-43752438D01*
X51352857Y-43752438D02*
X51448095Y-43847676D01*
X51448095Y-43847676D02*
X51495714Y-43942914D01*
X51495714Y-43942914D02*
X51543333Y-44133390D01*
X51543333Y-44133390D02*
X51543333Y-44276247D01*
X51543333Y-44276247D02*
X51495714Y-44466723D01*
X51495714Y-44466723D02*
X51448095Y-44561961D01*
X51448095Y-44561961D02*
X51352857Y-44657200D01*
X51352857Y-44657200D02*
X51210000Y-44704819D01*
X51210000Y-44704819D02*
X50971905Y-44704819D01*
X51924286Y-43800057D02*
X51971905Y-43752438D01*
X51971905Y-43752438D02*
X52067143Y-43704819D01*
X52067143Y-43704819D02*
X52305238Y-43704819D01*
X52305238Y-43704819D02*
X52400476Y-43752438D01*
X52400476Y-43752438D02*
X52448095Y-43800057D01*
X52448095Y-43800057D02*
X52495714Y-43895295D01*
X52495714Y-43895295D02*
X52495714Y-43990533D01*
X52495714Y-43990533D02*
X52448095Y-44133390D01*
X52448095Y-44133390D02*
X51876667Y-44704819D01*
X51876667Y-44704819D02*
X52495714Y-44704819D01*
X33583333Y-29859580D02*
X33535714Y-29907200D01*
X33535714Y-29907200D02*
X33392857Y-29954819D01*
X33392857Y-29954819D02*
X33297619Y-29954819D01*
X33297619Y-29954819D02*
X33154762Y-29907200D01*
X33154762Y-29907200D02*
X33059524Y-29811961D01*
X33059524Y-29811961D02*
X33011905Y-29716723D01*
X33011905Y-29716723D02*
X32964286Y-29526247D01*
X32964286Y-29526247D02*
X32964286Y-29383390D01*
X32964286Y-29383390D02*
X33011905Y-29192914D01*
X33011905Y-29192914D02*
X33059524Y-29097676D01*
X33059524Y-29097676D02*
X33154762Y-29002438D01*
X33154762Y-29002438D02*
X33297619Y-28954819D01*
X33297619Y-28954819D02*
X33392857Y-28954819D01*
X33392857Y-28954819D02*
X33535714Y-29002438D01*
X33535714Y-29002438D02*
X33583333Y-29050057D01*
X34440476Y-28954819D02*
X34250000Y-28954819D01*
X34250000Y-28954819D02*
X34154762Y-29002438D01*
X34154762Y-29002438D02*
X34107143Y-29050057D01*
X34107143Y-29050057D02*
X34011905Y-29192914D01*
X34011905Y-29192914D02*
X33964286Y-29383390D01*
X33964286Y-29383390D02*
X33964286Y-29764342D01*
X33964286Y-29764342D02*
X34011905Y-29859580D01*
X34011905Y-29859580D02*
X34059524Y-29907200D01*
X34059524Y-29907200D02*
X34154762Y-29954819D01*
X34154762Y-29954819D02*
X34345238Y-29954819D01*
X34345238Y-29954819D02*
X34440476Y-29907200D01*
X34440476Y-29907200D02*
X34488095Y-29859580D01*
X34488095Y-29859580D02*
X34535714Y-29764342D01*
X34535714Y-29764342D02*
X34535714Y-29526247D01*
X34535714Y-29526247D02*
X34488095Y-29431009D01*
X34488095Y-29431009D02*
X34440476Y-29383390D01*
X34440476Y-29383390D02*
X34345238Y-29335771D01*
X34345238Y-29335771D02*
X34154762Y-29335771D01*
X34154762Y-29335771D02*
X34059524Y-29383390D01*
X34059524Y-29383390D02*
X34011905Y-29431009D01*
X34011905Y-29431009D02*
X33964286Y-29526247D01*
X61767319Y-38153333D02*
X62481604Y-38153333D01*
X62481604Y-38153333D02*
X62624461Y-38200952D01*
X62624461Y-38200952D02*
X62719700Y-38296190D01*
X62719700Y-38296190D02*
X62767319Y-38439047D01*
X62767319Y-38439047D02*
X62767319Y-38534285D01*
X61767319Y-37772380D02*
X61767319Y-37153333D01*
X61767319Y-37153333D02*
X62148271Y-37486666D01*
X62148271Y-37486666D02*
X62148271Y-37343809D01*
X62148271Y-37343809D02*
X62195890Y-37248571D01*
X62195890Y-37248571D02*
X62243509Y-37200952D01*
X62243509Y-37200952D02*
X62338747Y-37153333D01*
X62338747Y-37153333D02*
X62576842Y-37153333D01*
X62576842Y-37153333D02*
X62672080Y-37200952D01*
X62672080Y-37200952D02*
X62719700Y-37248571D01*
X62719700Y-37248571D02*
X62767319Y-37343809D01*
X62767319Y-37343809D02*
X62767319Y-37629523D01*
X62767319Y-37629523D02*
X62719700Y-37724761D01*
X62719700Y-37724761D02*
X62672080Y-37772380D01*
X31738095Y-21704819D02*
X31738095Y-22514342D01*
X31738095Y-22514342D02*
X31785714Y-22609580D01*
X31785714Y-22609580D02*
X31833333Y-22657200D01*
X31833333Y-22657200D02*
X31928571Y-22704819D01*
X31928571Y-22704819D02*
X32119047Y-22704819D01*
X32119047Y-22704819D02*
X32214285Y-22657200D01*
X32214285Y-22657200D02*
X32261904Y-22609580D01*
X32261904Y-22609580D02*
X32309523Y-22514342D01*
X32309523Y-22514342D02*
X32309523Y-21704819D01*
X32690476Y-21704819D02*
X33309523Y-21704819D01*
X33309523Y-21704819D02*
X32976190Y-22085771D01*
X32976190Y-22085771D02*
X33119047Y-22085771D01*
X33119047Y-22085771D02*
X33214285Y-22133390D01*
X33214285Y-22133390D02*
X33261904Y-22181009D01*
X33261904Y-22181009D02*
X33309523Y-22276247D01*
X33309523Y-22276247D02*
X33309523Y-22514342D01*
X33309523Y-22514342D02*
X33261904Y-22609580D01*
X33261904Y-22609580D02*
X33214285Y-22657200D01*
X33214285Y-22657200D02*
X33119047Y-22704819D01*
X33119047Y-22704819D02*
X32833333Y-22704819D01*
X32833333Y-22704819D02*
X32738095Y-22657200D01*
X32738095Y-22657200D02*
X32690476Y-22609580D01*
X54609580Y-52486666D02*
X54657200Y-52534285D01*
X54657200Y-52534285D02*
X54704819Y-52677142D01*
X54704819Y-52677142D02*
X54704819Y-52772380D01*
X54704819Y-52772380D02*
X54657200Y-52915237D01*
X54657200Y-52915237D02*
X54561961Y-53010475D01*
X54561961Y-53010475D02*
X54466723Y-53058094D01*
X54466723Y-53058094D02*
X54276247Y-53105713D01*
X54276247Y-53105713D02*
X54133390Y-53105713D01*
X54133390Y-53105713D02*
X53942914Y-53058094D01*
X53942914Y-53058094D02*
X53847676Y-53010475D01*
X53847676Y-53010475D02*
X53752438Y-52915237D01*
X53752438Y-52915237D02*
X53704819Y-52772380D01*
X53704819Y-52772380D02*
X53704819Y-52677142D01*
X53704819Y-52677142D02*
X53752438Y-52534285D01*
X53752438Y-52534285D02*
X53800057Y-52486666D01*
X54038152Y-51629523D02*
X54704819Y-51629523D01*
X53657200Y-51867618D02*
X54371485Y-52105713D01*
X54371485Y-52105713D02*
X54371485Y-51486666D01*
X44083333Y-53179580D02*
X44035714Y-53227200D01*
X44035714Y-53227200D02*
X43892857Y-53274819D01*
X43892857Y-53274819D02*
X43797619Y-53274819D01*
X43797619Y-53274819D02*
X43654762Y-53227200D01*
X43654762Y-53227200D02*
X43559524Y-53131961D01*
X43559524Y-53131961D02*
X43511905Y-53036723D01*
X43511905Y-53036723D02*
X43464286Y-52846247D01*
X43464286Y-52846247D02*
X43464286Y-52703390D01*
X43464286Y-52703390D02*
X43511905Y-52512914D01*
X43511905Y-52512914D02*
X43559524Y-52417676D01*
X43559524Y-52417676D02*
X43654762Y-52322438D01*
X43654762Y-52322438D02*
X43797619Y-52274819D01*
X43797619Y-52274819D02*
X43892857Y-52274819D01*
X43892857Y-52274819D02*
X44035714Y-52322438D01*
X44035714Y-52322438D02*
X44083333Y-52370057D01*
X44988095Y-52274819D02*
X44511905Y-52274819D01*
X44511905Y-52274819D02*
X44464286Y-52751009D01*
X44464286Y-52751009D02*
X44511905Y-52703390D01*
X44511905Y-52703390D02*
X44607143Y-52655771D01*
X44607143Y-52655771D02*
X44845238Y-52655771D01*
X44845238Y-52655771D02*
X44940476Y-52703390D01*
X44940476Y-52703390D02*
X44988095Y-52751009D01*
X44988095Y-52751009D02*
X45035714Y-52846247D01*
X45035714Y-52846247D02*
X45035714Y-53084342D01*
X45035714Y-53084342D02*
X44988095Y-53179580D01*
X44988095Y-53179580D02*
X44940476Y-53227200D01*
X44940476Y-53227200D02*
X44845238Y-53274819D01*
X44845238Y-53274819D02*
X44607143Y-53274819D01*
X44607143Y-53274819D02*
X44511905Y-53227200D01*
X44511905Y-53227200D02*
X44464286Y-53179580D01*
D13*
%TO.C,U2*%
X38840000Y-14550000D02*
X38840000Y-19191000D01*
X38840000Y-14550000D02*
X49080000Y-14550000D01*
X38840000Y-16060000D02*
X49080000Y-16060000D01*
X38840000Y-19191000D02*
X49080000Y-19191000D01*
X42110000Y-14550000D02*
X42110000Y-16060000D01*
X45811000Y-14550000D02*
X45811000Y-16060000D01*
X49080000Y-14550000D02*
X49080000Y-19191000D01*
%TO.C,JP1*%
X31600000Y-64800000D02*
X31600000Y-64200000D01*
X32300000Y-63500000D02*
X33700000Y-63500000D01*
X33700000Y-65500000D02*
X32300000Y-65500000D01*
X34400000Y-64200000D02*
X34400000Y-64800000D01*
X31600000Y-64200000D02*
G75*
G02*
X32300000Y-63500000I699999J1D01*
G01*
X32300000Y-65500000D02*
G75*
G02*
X31600000Y-64800000I-1J699999D01*
G01*
X33700000Y-63500000D02*
G75*
G02*
X34400000Y-64200000I0J-700000D01*
G01*
X34400000Y-64800000D02*
G75*
G02*
X33700000Y-65500000I-700000J0D01*
G01*
%TO.C,C10*%
X49120000Y-33750000D02*
G75*
G02*
X44880000Y-33750000I-2120000J0D01*
G01*
X44880000Y-33750000D02*
G75*
G02*
X49120000Y-33750000I2120000J0D01*
G01*
%TO.C,Y1*%
X19660000Y-74050000D02*
X32260000Y-74050000D01*
X32260000Y-68950000D02*
X19660000Y-68950000D01*
X32260000Y-74050000D02*
X32260000Y-68950000D01*
%TO.C,J5*%
X63312500Y-14640000D02*
X70052500Y-14640000D01*
X63312500Y-23000000D02*
X63312500Y-14640000D01*
X63312500Y-23000000D02*
X70052500Y-23000000D01*
X65032500Y-23000000D02*
X65032500Y-14640000D01*
X68132500Y-23000000D02*
X68132500Y-14640000D01*
X69132500Y-23000000D02*
X69132500Y-14640000D01*
X70052500Y-21060000D02*
X70052500Y-14640000D01*
X70052500Y-23000000D02*
X70052500Y-21660000D01*
X70662500Y-21800000D02*
X70052500Y-21360000D01*
X70662500Y-20920000D01*
X70662500Y-21800000D01*
G36*
X70662500Y-21800000D02*
G01*
X70052500Y-21360000D01*
X70662500Y-20920000D01*
X70662500Y-21800000D01*
G37*
%TO.C,C2*%
X18120000Y-68500000D02*
G75*
G02*
X13880000Y-68500000I-2120000J0D01*
G01*
X13880000Y-68500000D02*
G75*
G02*
X18120000Y-68500000I2120000J0D01*
G01*
%TO.C,L1*%
X45636252Y-58860000D02*
X42863748Y-58860000D01*
X45636252Y-62280000D02*
X42863748Y-62280000D01*
%TO.C,C8*%
X42120000Y-38250000D02*
G75*
G02*
X37880000Y-38250000I-2120000J0D01*
G01*
X37880000Y-38250000D02*
G75*
G02*
X42120000Y-38250000I2120000J0D01*
G01*
%TO.C,R3*%
X22690000Y-67500000D02*
X23640000Y-67500000D01*
X23640000Y-66580000D02*
X23640000Y-68420000D01*
X23640000Y-68420000D02*
X27480000Y-68420000D01*
X27480000Y-66580000D02*
X23640000Y-66580000D01*
X27480000Y-68420000D02*
X27480000Y-66580000D01*
X28430000Y-67500000D02*
X27480000Y-67500000D01*
%TO.C,C1*%
X51870000Y-63070000D02*
G75*
G02*
X47630000Y-63070000I-2120000J0D01*
G01*
X47630000Y-63070000D02*
G75*
G02*
X51870000Y-63070000I2120000J0D01*
G01*
%TO.C,U1*%
X50250000Y-57260000D02*
X49450000Y-57260000D01*
X50250000Y-57260000D02*
X51050000Y-57260000D01*
X50250000Y-60380000D02*
X49450000Y-60380000D01*
X50250000Y-60380000D02*
X51050000Y-60380000D01*
X48950000Y-57310000D02*
X48710000Y-56980000D01*
X49190000Y-56980000D01*
X48950000Y-57310000D01*
G36*
X48950000Y-57310000D02*
G01*
X48710000Y-56980000D01*
X49190000Y-56980000D01*
X48950000Y-57310000D01*
G37*
%TO.C,R5*%
X38630000Y-45500000D02*
X39580000Y-45500000D01*
X39580000Y-44580000D02*
X39580000Y-46420000D01*
X39580000Y-46420000D02*
X43420000Y-46420000D01*
X43420000Y-44580000D02*
X39580000Y-44580000D01*
X43420000Y-46420000D02*
X43420000Y-44580000D01*
X44370000Y-45500000D02*
X43420000Y-45500000D01*
%TO.C,C9*%
X39120000Y-34250000D02*
G75*
G02*
X34880000Y-34250000I-2120000J0D01*
G01*
X34880000Y-34250000D02*
G75*
G02*
X39120000Y-34250000I2120000J0D01*
G01*
%TO.C,J7*%
X63280000Y-52640000D02*
X70020000Y-52640000D01*
X63280000Y-61000000D02*
X63280000Y-52640000D01*
X63280000Y-61000000D02*
X70020000Y-61000000D01*
X65000000Y-61000000D02*
X65000000Y-52640000D01*
X68100000Y-61000000D02*
X68100000Y-52640000D01*
X69100000Y-61000000D02*
X69100000Y-52640000D01*
X70020000Y-59060000D02*
X70020000Y-52640000D01*
X70020000Y-61000000D02*
X70020000Y-59660000D01*
X70630000Y-59800000D02*
X70020000Y-59360000D01*
X70630000Y-58920000D01*
X70630000Y-59800000D01*
G36*
X70630000Y-59800000D02*
G01*
X70020000Y-59360000D01*
X70630000Y-58920000D01*
X70630000Y-59800000D01*
G37*
%TO.C,R1*%
X56080000Y-60900000D02*
X56080000Y-64740000D01*
X56080000Y-64740000D02*
X57920000Y-64740000D01*
X57000000Y-59950000D02*
X57000000Y-60900000D01*
X57000000Y-65690000D02*
X57000000Y-64740000D01*
X57920000Y-60900000D02*
X56080000Y-60900000D01*
X57920000Y-64740000D02*
X57920000Y-60900000D01*
%TO.C,U4*%
X39850000Y-30850000D02*
X39850000Y-31375000D01*
X39850000Y-30850000D02*
X40375000Y-30850000D01*
X39850000Y-35150000D02*
X39850000Y-34625000D01*
X39850000Y-35150000D02*
X40375000Y-35150000D01*
X43685000Y-30850000D02*
X43910000Y-30850000D01*
X44150000Y-31375000D02*
X44150000Y-31150000D01*
X44150000Y-35150000D02*
X43625000Y-35150000D01*
X44150000Y-35150000D02*
X44150000Y-34625000D01*
X44480000Y-31090000D02*
X44150000Y-30850000D01*
X44480000Y-30610000D01*
X44480000Y-31090000D01*
G36*
X44480000Y-31090000D02*
G01*
X44150000Y-30850000D01*
X44480000Y-30610000D01*
X44480000Y-31090000D01*
G37*
%TO.C,C12*%
X47870000Y-28000000D02*
G75*
G02*
X43630000Y-28000000I-2120000J0D01*
G01*
X43630000Y-28000000D02*
G75*
G02*
X47870000Y-28000000I2120000J0D01*
G01*
%TO.C,R2*%
X53830000Y-60900000D02*
X53830000Y-64740000D01*
X53830000Y-64740000D02*
X55670000Y-64740000D01*
X54750000Y-59950000D02*
X54750000Y-60900000D01*
X54750000Y-65690000D02*
X54750000Y-64740000D01*
X55670000Y-60900000D02*
X53830000Y-60900000D01*
X55670000Y-64740000D02*
X55670000Y-60900000D01*
%TO.C,R4*%
X38630000Y-43250000D02*
X39580000Y-43250000D01*
X39580000Y-42330000D02*
X39580000Y-44170000D01*
X39580000Y-44170000D02*
X43420000Y-44170000D01*
X43420000Y-42330000D02*
X39580000Y-42330000D01*
X43420000Y-44170000D02*
X43420000Y-42330000D01*
X44370000Y-43250000D02*
X43420000Y-43250000D01*
%TO.C,TP1*%
X40950000Y-56070000D02*
G75*
G02*
X38550000Y-56070000I-1200000J0D01*
G01*
X38550000Y-56070000D02*
G75*
G02*
X40950000Y-56070000I1200000J0D01*
G01*
%TO.C,J2*%
X63312500Y-43100000D02*
X70052500Y-43100000D01*
X63312500Y-51460000D02*
X63312500Y-43100000D01*
X63312500Y-51460000D02*
X70052500Y-51460000D01*
X65032500Y-51460000D02*
X65032500Y-43100000D01*
X68132500Y-51460000D02*
X68132500Y-43100000D01*
X69132500Y-51460000D02*
X69132500Y-43100000D01*
X70052500Y-49520000D02*
X70052500Y-43100000D01*
X70052500Y-51460000D02*
X70052500Y-50120000D01*
X70662500Y-50260000D02*
X70052500Y-49820000D01*
X70662500Y-49380000D01*
X70662500Y-50260000D01*
G36*
X70662500Y-50260000D02*
G01*
X70052500Y-49820000D01*
X70662500Y-49380000D01*
X70662500Y-50260000D01*
G37*
%TO.C,D1*%
X56790000Y-46170000D02*
X56790000Y-46014000D01*
X56790000Y-48486000D02*
X56790000Y-48330000D01*
X53558603Y-46169939D02*
G75*
G02*
X56790000Y-46014484I1671397J-1080061D01*
G01*
X54189090Y-46169951D02*
G75*
G02*
X56270961Y-46170000I1040910J-1080049D01*
G01*
X56270961Y-48330000D02*
G75*
G02*
X54189090Y-48330049I-1040961J1080000D01*
G01*
X56790000Y-48485516D02*
G75*
G02*
X53558603Y-48330061I-1560000J1235516D01*
G01*
%TO.C,C3*%
X35870000Y-16750000D02*
G75*
G02*
X31630000Y-16750000I-2120000J0D01*
G01*
X31630000Y-16750000D02*
G75*
G02*
X35870000Y-16750000I2120000J0D01*
G01*
%TO.C,C7*%
X46870000Y-38250000D02*
G75*
G02*
X42630000Y-38250000I-2120000J0D01*
G01*
X42630000Y-38250000D02*
G75*
G02*
X46870000Y-38250000I2120000J0D01*
G01*
%TO.C,J4*%
X63312500Y-24100000D02*
X70052500Y-24100000D01*
X63312500Y-32460000D02*
X63312500Y-24100000D01*
X63312500Y-32460000D02*
X70052500Y-32460000D01*
X65032500Y-32460000D02*
X65032500Y-24100000D01*
X68132500Y-32460000D02*
X68132500Y-24100000D01*
X69132500Y-32460000D02*
X69132500Y-24100000D01*
X70052500Y-30520000D02*
X70052500Y-24100000D01*
X70052500Y-32460000D02*
X70052500Y-31120000D01*
X70662500Y-31260000D02*
X70052500Y-30820000D01*
X70662500Y-30380000D01*
X70662500Y-31260000D01*
G36*
X70662500Y-31260000D02*
G01*
X70052500Y-30820000D01*
X70662500Y-30380000D01*
X70662500Y-31260000D01*
G37*
%TO.C,J1*%
X47335000Y-66567500D02*
X47335000Y-73307500D01*
X47335000Y-66567500D02*
X53155000Y-66567500D01*
X47335000Y-68287500D02*
X53155000Y-68287500D01*
X47335000Y-71387500D02*
X53155000Y-71387500D01*
X47335000Y-72387500D02*
X53155000Y-72387500D01*
X47335000Y-73307500D02*
X48675000Y-73307500D01*
X49275000Y-73307500D02*
X53155000Y-73307500D01*
X53155000Y-66567500D02*
X53155000Y-73307500D01*
X49415000Y-73917500D02*
X48535000Y-73917500D01*
X48975000Y-73307500D01*
X49415000Y-73917500D01*
G36*
X49415000Y-73917500D02*
G01*
X48535000Y-73917500D01*
X48975000Y-73307500D01*
X49415000Y-73917500D01*
G37*
%TO.C,C11*%
X47870000Y-23250000D02*
G75*
G02*
X43630000Y-23250000I-2120000J0D01*
G01*
X43630000Y-23250000D02*
G75*
G02*
X47870000Y-23250000I2120000J0D01*
G01*
D10*
%TO.C,U5*%
X40900000Y-24345000D02*
X40900000Y-24195000D01*
X41540000Y-24195000D02*
X40900000Y-24195000D01*
X41540000Y-26895000D02*
X41100000Y-26895000D01*
X43075000Y-24470000D02*
X43075000Y-24320000D01*
X43100000Y-24195000D02*
X42460000Y-24195000D01*
X43100000Y-26895000D02*
X42460000Y-26895000D01*
X43100000Y-26895000D02*
X43100000Y-26745000D01*
X40900000Y-27255000D02*
X40540000Y-26895000D01*
X40900000Y-26895000D01*
X40900000Y-27255000D01*
G36*
X40900000Y-27255000D02*
G01*
X40540000Y-26895000D01*
X40900000Y-26895000D01*
X40900000Y-27255000D01*
G37*
D13*
%TO.C,J8*%
X63312500Y-62060000D02*
X70052500Y-62060000D01*
X63312500Y-72960000D02*
X63312500Y-62060000D01*
X63312500Y-72960000D02*
X70052500Y-72960000D01*
X65032500Y-72960000D02*
X65032500Y-62060000D01*
X68132500Y-72960000D02*
X68132500Y-62060000D01*
X69132500Y-72960000D02*
X69132500Y-62060000D01*
X70052500Y-71020000D02*
X70052500Y-62060000D01*
X70052500Y-72960000D02*
X70052500Y-71620000D01*
X70662500Y-71760000D02*
X70052500Y-71320000D01*
X70662500Y-70880000D01*
X70662500Y-71760000D01*
G36*
X70662500Y-71760000D02*
G01*
X70052500Y-71320000D01*
X70662500Y-70880000D01*
X70662500Y-71760000D01*
G37*
%TO.C,J6*%
X55570000Y-21500000D02*
X55570000Y-14760000D01*
X59450000Y-14760000D02*
X55570000Y-14760000D01*
X61390000Y-14760000D02*
X60050000Y-14760000D01*
X61390000Y-15680000D02*
X55570000Y-15680000D01*
X61390000Y-16680000D02*
X55570000Y-16680000D01*
X61390000Y-19780000D02*
X55570000Y-19780000D01*
X61390000Y-21500000D02*
X55570000Y-21500000D01*
X61390000Y-21500000D02*
X61390000Y-14760000D01*
X59750000Y-14760000D02*
X59310000Y-14150000D01*
X60190000Y-14150000D01*
X59750000Y-14760000D01*
G36*
X59750000Y-14760000D02*
G01*
X59310000Y-14150000D01*
X60190000Y-14150000D01*
X59750000Y-14760000D01*
G37*
%TO.C,D2*%
X56790000Y-41670000D02*
X56790000Y-41514000D01*
X56790000Y-43986000D02*
X56790000Y-43830000D01*
X53558603Y-41669939D02*
G75*
G02*
X56790000Y-41514484I1671397J-1080061D01*
G01*
X54189090Y-41669951D02*
G75*
G02*
X56270961Y-41670000I1040910J-1080049D01*
G01*
X56270961Y-43830000D02*
G75*
G02*
X54189090Y-43830049I-1040961J1080000D01*
G01*
X56790000Y-43985516D02*
G75*
G02*
X53558603Y-43830061I-1560000J1235516D01*
G01*
%TO.C,C6*%
X39120000Y-29500000D02*
G75*
G02*
X34880000Y-29500000I-2120000J0D01*
G01*
X34880000Y-29500000D02*
G75*
G02*
X39120000Y-29500000I2120000J0D01*
G01*
%TO.C,J3*%
X63312500Y-33640000D02*
X70052500Y-33640000D01*
X63312500Y-42000000D02*
X63312500Y-33640000D01*
X63312500Y-42000000D02*
X70052500Y-42000000D01*
X65032500Y-42000000D02*
X65032500Y-33640000D01*
X68132500Y-42000000D02*
X68132500Y-33640000D01*
X69132500Y-42000000D02*
X69132500Y-33640000D01*
X70052500Y-40060000D02*
X70052500Y-33640000D01*
X70052500Y-42000000D02*
X70052500Y-40660000D01*
X70662500Y-40800000D02*
X70052500Y-40360000D01*
X70662500Y-39920000D01*
X70662500Y-40800000D01*
G36*
X70662500Y-40800000D02*
G01*
X70052500Y-40360000D01*
X70662500Y-39920000D01*
X70662500Y-40800000D01*
G37*
%TO.C,U3*%
X16170000Y-14680000D02*
X16170000Y-65600000D01*
X16170000Y-65600000D02*
X21630000Y-65600000D01*
X23630000Y-65600000D02*
X29090000Y-65600000D01*
X29090000Y-14680000D02*
X16170000Y-14680000D01*
X29090000Y-65600000D02*
X29090000Y-14680000D01*
X21630000Y-65600000D02*
G75*
G02*
X23630000Y-65600000I1000000J0D01*
G01*
%TO.C,C4*%
X56370000Y-55570000D02*
G75*
G02*
X52130000Y-55570000I-2120000J0D01*
G01*
X52130000Y-55570000D02*
G75*
G02*
X56370000Y-55570000I2120000J0D01*
G01*
%TO.C,C5*%
X46370000Y-56070000D02*
G75*
G02*
X42130000Y-56070000I-2120000J0D01*
G01*
X42130000Y-56070000D02*
G75*
G02*
X46370000Y-56070000I2120000J0D01*
G01*
>>>>>>> Stashed changes
%TD*%
M02*
