M48
; DRILL file {KiCad 9.0.1} date 2025-10-26T21:15:53-0400
; FORMAT={-:-/ absolute / metric / decimal}
; #@! TF.CreationDate,2025-10-26T21:15:53-04:00
; #@! TF.GenerationSoftware,Kicad,Pcbnew,9.0.1
; #@! TF.FileFunction,Plated,1,4,PTH
FMAT,2
METRIC
; #@! TA.AperFunction,Plated,PTH,ViaDrill
T1C0.300
; #@! TA.AperFunction,Plated,PTH,ComponentDrill
T2C0.700
; #@! TA.AperFunction,Plated,PTH,ComponentDrill
T3C1.200
%
G90
G05
T1
X18.0Y-32.0
X19.0Y-47.0
X19.0Y-58.0
X20.5Y-40.0
X21.0Y-47.5
X21.5Y-38.5
X24.5Y-38.5
X24.979Y-48.478
X25.0Y-50.0
X27.0Y-54.025
X29.5Y-40.5
X29.5Y-43.5
X29.5Y-56.0
X30.5Y-64.0
X31.0Y-42.0
X31.35Y-51.5
X31.35Y-53.512
X32.0Y-32.5
X32.5Y-38.15
X32.5Y-40.0
X33.2Y-58.65
X34.0Y-45.0
X34.5Y-62.0
X35.0Y-37.0
X35.497Y-43.462
X35.5Y-42.52
X35.559Y-44.26
X36.0Y-38.0
X36.0Y-49.85
X36.5Y-37.0
X36.75Y-47.75
X37.15Y-36.434
X37.598Y-39.301
X37.695Y-42.538
X37.9Y-41.004
X38.0Y-40.21
X38.0Y-41.798
X38.5Y-36.5
X39.9Y-65.225
X40.0Y-59.0
X40.0Y-60.5
X40.0Y-62.0
X40.0Y-63.5
X40.25Y-40.938
X41.0Y-59.75
X41.0Y-61.25
X41.687Y-36.236
X41.75Y-59.0
X41.75Y-60.5
X41.75Y-62.0
X41.751Y-63.05
X42.352Y-63.651
X42.499Y-43.487
X42.5Y-46.5
X42.5Y-59.75
X42.5Y-61.25
X42.52Y-45.5
X42.849Y-41.393
X42.885Y-36.59
X42.892Y-40.558
X43.0Y-59.0
X43.0Y-62.0
X43.1Y-65.225
X43.48Y-45.5
X43.5Y-48.5
X44.199Y-54.699
X44.358Y-44.656
X44.582Y-40.982
X44.801Y-55.301
X44.887Y-37.198
X45.0Y-39.0
X45.003Y-39.809
X45.495Y-43.664
X46.0Y-36.0
X46.0Y-40.5
X46.0Y-42.837
X47.371Y-44.815
X47.5Y-32.0
X47.5Y-48.362
X47.5Y-50.637
X47.969Y-41.968
X48.5Y-56.5
X49.0Y-42.85
X49.0Y-54.5
X49.5Y-34.5
X50.0Y-40.15
X50.0Y-46.5
X51.112Y-58.12
X52.0Y-62.5
X52.5Y-34.5
X52.5Y-39.5
X54.5Y-33.0
X54.5Y-34.0
X54.5Y-35.0
X55.0Y-51.5
X55.0Y-59.0
X56.5Y-58.0
X57.5Y-45.5
X58.0Y-58.0
X59.35Y-56.5
X60.0Y-37.5
X62.5Y-49.5
T2
X20.19Y-33.0
X20.19Y-35.5
X27.81Y-33.0
X27.81Y-35.5
T3
X19.96Y-70.0
X22.5Y-70.0
X26.955Y-70.0
X29.495Y-70.0
X32.035Y-70.0
X50.975Y-70.037
X53.515Y-70.037
X64.5Y-38.46
X64.5Y-41.0
X64.5Y-43.54
X64.5Y-47.965
X64.5Y-50.505
X64.5Y-53.045
X64.5Y-57.42
X64.5Y-59.96
X64.5Y-62.5
X64.5Y-67.0
X64.5Y-69.54
X64.5Y-72.08
M30
