%TF.GenerationSoftware,KiCad,Pcbnew,9.0.1*%
%TF.CreationDate,2025-11-14T14:34:28-05:00*%
%TF.ProjectId,Drone-Flight-Controller,44726f6e-652d-4466-9c69-6768742d436f,rev?*%
%TF.SameCoordinates,Original*%
%TF.FileFunction,Soldermask,Top*%
%TF.FilePolarity,Negative*%
%FSLAX46Y46*%
G04 Gerber Fmt 4.6, Leading zero omitted, Abs format (unit mm)*
G04 Created by KiCad (PCBNEW 9.0.1) date 2025-11-14 14:34:28*
%MOMM*%
%LPD*%
G01*
G04 APERTURE LIST*
G04 Aperture macros list*
%AMRoundRect*
0 Rectangle with rounded corners*
0 $1 Rounding radius*
0 $2 $3 $4 $5 $6 $7 $8 $9 X,Y pos of 4 corners*
0 Add a 4 corners polygon primitive as box body*
4,1,4,$2,$3,$4,$5,$6,$7,$8,$9,$2,$3,0*
0 Add four circle primitives for the rounded corners*
1,1,$1+$1,$2,$3*
1,1,$1+$1,$4,$5*
1,1,$1+$1,$6,$7*
1,1,$1+$1,$8,$9*
0 Add four rect primitives between the rounded corners*
20,1,$1+$1,$2,$3,$4,$5,0*
20,1,$1+$1,$4,$5,$6,$7,0*
20,1,$1+$1,$6,$7,$8,$9,0*
20,1,$1+$1,$8,$9,$2,$3,0*%
%AMFreePoly0*
4,1,9,3.862500,-0.866500,0.737500,-0.866500,0.737500,-0.450000,-0.737500,-0.450000,-0.737500,0.450000,0.737500,0.450000,0.737500,0.866500,3.862500,0.866500,3.862500,-0.866500,3.862500,-0.866500,$1*%
G04 Aperture macros list end*
%ADD10RoundRect,0.087500X-0.125000X-0.087500X0.125000X-0.087500X0.125000X0.087500X-0.125000X0.087500X0*%
%ADD11RoundRect,0.087500X-0.087500X-0.125000X0.087500X-0.125000X0.087500X0.125000X-0.087500X0.125000X0*%
%ADD12RoundRect,0.218750X-0.218750X-0.256250X0.218750X-0.256250X0.218750X0.256250X-0.218750X0.256250X0*%
%ADD13RoundRect,0.135000X-0.135000X-0.185000X0.135000X-0.185000X0.135000X0.185000X-0.135000X0.185000X0*%
%ADD14RoundRect,0.250000X1.075000X0.550000X-1.075000X0.550000X-1.075000X-0.550000X1.075000X-0.550000X0*%
%ADD15RoundRect,0.140000X0.170000X-0.140000X0.170000X0.140000X-0.170000X0.140000X-0.170000X-0.140000X0*%
%ADD16RoundRect,0.250000X0.375000X0.625000X-0.375000X0.625000X-0.375000X-0.625000X0.375000X-0.625000X0*%
%ADD17C,2.000000*%
%ADD18RoundRect,0.140000X-0.170000X0.140000X-0.170000X-0.140000X0.170000X-0.140000X0.170000X0.140000X0*%
%ADD19RoundRect,0.135000X-0.185000X0.135000X-0.185000X-0.135000X0.185000X-0.135000X0.185000X0.135000X0*%
%ADD20R,3.000000X5.835000*%
%ADD21R,1.000000X0.900000*%
%ADD22RoundRect,0.135000X0.185000X-0.135000X0.185000X0.135000X-0.185000X0.135000X-0.185000X-0.135000X0*%
%ADD23RoundRect,0.150000X0.150000X-0.512500X0.150000X0.512500X-0.150000X0.512500X-0.150000X-0.512500X0*%
%ADD24RoundRect,0.135000X0.135000X0.185000X-0.135000X0.185000X-0.135000X-0.185000X0.135000X-0.185000X0*%
%ADD25RoundRect,0.150000X-0.150000X0.512500X-0.150000X-0.512500X0.150000X-0.512500X0.150000X0.512500X0*%
%ADD26RoundRect,0.225000X-0.425000X-0.225000X0.425000X-0.225000X0.425000X0.225000X-0.425000X0.225000X0*%
%ADD27FreePoly0,0.000000*%
%ADD28RoundRect,0.150000X-0.150000X0.587500X-0.150000X-0.587500X0.150000X-0.587500X0.150000X0.587500X0*%
%ADD29RoundRect,0.250000X-1.450000X0.312500X-1.450000X-0.312500X1.450000X-0.312500X1.450000X0.312500X0*%
%ADD30RoundRect,0.140000X-0.140000X-0.170000X0.140000X-0.170000X0.140000X0.170000X-0.140000X0.170000X0*%
%ADD31RoundRect,0.140000X0.140000X0.170000X-0.140000X0.170000X-0.140000X-0.170000X0.140000X-0.170000X0*%
%ADD32RoundRect,0.050000X-0.050000X0.225000X-0.050000X-0.225000X0.050000X-0.225000X0.050000X0.225000X0*%
%ADD33RoundRect,0.050000X-0.225000X-0.050000X0.225000X-0.050000X0.225000X0.050000X-0.225000X0.050000X0*%
%ADD34RoundRect,0.250000X0.550000X-1.137500X0.550000X1.137500X-0.550000X1.137500X-0.550000X-1.137500X0*%
%ADD35R,1.700000X1.700000*%
%ADD36C,1.700000*%
%ADD37RoundRect,0.100000X-0.637500X-0.100000X0.637500X-0.100000X0.637500X0.100000X-0.637500X0.100000X0*%
G04 APERTURE END LIST*
D10*
%TO.C,U7*%
X32837500Y-42050000D03*
X32837500Y-42550000D03*
D11*
X33100000Y-43062500D03*
X33600000Y-43062500D03*
X34100000Y-43062500D03*
D10*
X34362500Y-42550000D03*
X34362500Y-42050000D03*
D11*
X34100000Y-41537500D03*
X33600000Y-41537500D03*
X33100000Y-41537500D03*
%TD*%
D12*
%TO.C,D2*%
X13425000Y-32000000D03*
X15000000Y-32000000D03*
%TD*%
%TO.C,D1*%
X13425000Y-29000000D03*
X15000000Y-29000000D03*
%TD*%
D13*
%TO.C,R19*%
X13190000Y-33400000D03*
X14210000Y-33400000D03*
%TD*%
%TO.C,R7*%
X13190000Y-30400000D03*
X14210000Y-30400000D03*
%TD*%
D14*
%TO.C,C1*%
X17475000Y-14900000D03*
X14125000Y-14900000D03*
%TD*%
D15*
%TO.C,C3*%
X23600000Y-41080000D03*
X23600000Y-40120000D03*
%TD*%
D16*
%TO.C,F1*%
X22800000Y-13800000D03*
X20000000Y-13800000D03*
%TD*%
D17*
%TO.C,J10*%
X19000000Y-75200000D03*
%TD*%
D13*
%TO.C,R4*%
X16200000Y-18000000D03*
X17220000Y-18000000D03*
%TD*%
D18*
%TO.C,C9*%
X23800000Y-44720000D03*
X23800000Y-45680000D03*
%TD*%
D19*
%TO.C,R6*%
X32400000Y-21890000D03*
X32400000Y-22910000D03*
%TD*%
D20*
%TO.C,J2*%
X25700000Y-15800000D03*
%TD*%
D18*
%TO.C,C7*%
X25000000Y-47320000D03*
X25000000Y-48280000D03*
%TD*%
D17*
%TO.C,J6*%
X14185000Y-61475000D03*
%TD*%
D13*
%TO.C,R15*%
X29180000Y-52600000D03*
X30200000Y-52600000D03*
%TD*%
D21*
%TO.C,SW1*%
X35200000Y-69550000D03*
X35200000Y-73650000D03*
X33600000Y-69550000D03*
X33600000Y-73650000D03*
%TD*%
D13*
%TO.C,R17*%
X29077500Y-59200000D03*
X30097500Y-59200000D03*
%TD*%
D19*
%TO.C,R1*%
X31385000Y-15165000D03*
X31385000Y-16185000D03*
%TD*%
D22*
%TO.C,R5*%
X33400000Y-22910000D03*
X33400000Y-21890000D03*
%TD*%
D23*
%TO.C,U2*%
X21050000Y-19537500D03*
X22000000Y-19537500D03*
X22950000Y-19537500D03*
X22950000Y-17262500D03*
X22000000Y-17262500D03*
X21050000Y-17262500D03*
%TD*%
D24*
%TO.C,R18*%
X32710000Y-59200000D03*
X31690000Y-59200000D03*
%TD*%
D18*
%TO.C,C6*%
X23800000Y-42720000D03*
X23800000Y-43680000D03*
%TD*%
D22*
%TO.C,R2*%
X32385000Y-16185000D03*
X32385000Y-15165000D03*
%TD*%
D25*
%TO.C,U3*%
X33335000Y-17737500D03*
X32385000Y-17737500D03*
X31435000Y-17737500D03*
X31435000Y-20012500D03*
X32385000Y-20012500D03*
X33335000Y-20012500D03*
%TD*%
D26*
%TO.C,U1*%
X25050000Y-38100000D03*
D27*
X25137500Y-39600000D03*
D26*
X25050000Y-41100000D03*
%TD*%
D28*
%TO.C,Q2*%
X30012500Y-49125000D03*
X28112500Y-49125000D03*
X29062500Y-51000000D03*
%TD*%
D29*
%TO.C,L1*%
X21785000Y-21337500D03*
X21785000Y-25612500D03*
%TD*%
D19*
%TO.C,R13*%
X26587500Y-55000000D03*
X26587500Y-56020000D03*
%TD*%
D13*
%TO.C,R3*%
X14290000Y-18000000D03*
X15310000Y-18000000D03*
%TD*%
D24*
%TO.C,R16*%
X32710000Y-52600000D03*
X31690000Y-52600000D03*
%TD*%
D30*
%TO.C,C10*%
X30820000Y-42700000D03*
X31780000Y-42700000D03*
%TD*%
D17*
%TO.C,J12*%
X25000000Y-75200000D03*
%TD*%
%TO.C,J11*%
X22000000Y-75200000D03*
%TD*%
D28*
%TO.C,Q4*%
X30000000Y-55600000D03*
X28100000Y-55600000D03*
X29050000Y-57475000D03*
%TD*%
D17*
%TO.C,J4*%
X14200000Y-58400000D03*
%TD*%
D24*
%TO.C,R9*%
X32895000Y-65475000D03*
X31875000Y-65475000D03*
%TD*%
%TO.C,R10*%
X32895000Y-66475000D03*
X31875000Y-66475000D03*
%TD*%
D18*
%TO.C,C4*%
X19400000Y-17920000D03*
X19400000Y-18880000D03*
%TD*%
D31*
%TO.C,C8*%
X31780000Y-41700000D03*
X30820000Y-41700000D03*
%TD*%
D17*
%TO.C,J9*%
X14185000Y-70475000D03*
%TD*%
D28*
%TO.C,Q3*%
X33750000Y-49125000D03*
X31850000Y-49125000D03*
X32800000Y-51000000D03*
%TD*%
D32*
%TO.C,U4*%
X28200000Y-43150000D03*
X27800000Y-43150000D03*
X27400000Y-43150000D03*
X27000000Y-43150000D03*
X26600000Y-43150000D03*
X26200000Y-43150000D03*
D33*
X25700000Y-43650000D03*
X25700000Y-44050000D03*
X25700000Y-44450000D03*
X25700000Y-44850000D03*
X25700000Y-45250000D03*
X25700000Y-45650000D03*
D32*
X26200000Y-46150000D03*
X26600000Y-46150000D03*
X27000000Y-46150000D03*
X27400000Y-46150000D03*
X27800000Y-46150000D03*
X28200000Y-46150000D03*
D33*
X28700000Y-45650000D03*
X28700000Y-45250000D03*
X28700000Y-44850000D03*
X28700000Y-44450000D03*
X28700000Y-44050000D03*
X28700000Y-43650000D03*
%TD*%
D18*
%TO.C,C2*%
X23600000Y-38120000D03*
X23600000Y-39080000D03*
%TD*%
D28*
%TO.C,Q5*%
X33737500Y-55600000D03*
X31837500Y-55600000D03*
X32787500Y-57475000D03*
%TD*%
D34*
%TO.C,C5*%
X16800000Y-24462500D03*
X16800000Y-20337500D03*
%TD*%
D24*
%TO.C,R8*%
X32895000Y-67875000D03*
X31875000Y-67875000D03*
%TD*%
D19*
%TO.C,R14*%
X35187500Y-55000000D03*
X35187500Y-56020000D03*
%TD*%
%TO.C,R12*%
X35200000Y-49580000D03*
X35200000Y-50600000D03*
%TD*%
D17*
%TO.C,TP1*%
X25585000Y-25675000D03*
%TD*%
%TO.C,J5*%
X14200000Y-55400000D03*
%TD*%
D22*
%TO.C,R11*%
X26600000Y-50420000D03*
X26600000Y-49400000D03*
%TD*%
D17*
%TO.C,J7*%
X14185000Y-64475000D03*
%TD*%
D20*
%TO.C,J1*%
X29200000Y-15800000D03*
%TD*%
D17*
%TO.C,J13*%
X28000000Y-75200000D03*
%TD*%
%TO.C,J8*%
X14185000Y-67475000D03*
%TD*%
D35*
%TO.C,J3*%
X37925000Y-20475000D03*
D36*
X40465000Y-20475000D03*
X37925000Y-23015000D03*
X40465000Y-23015000D03*
X37925000Y-25555000D03*
X40465000Y-25555000D03*
X37925000Y-28095000D03*
X40465000Y-28095000D03*
X37925000Y-30635000D03*
X40465000Y-30635000D03*
X37925000Y-33175000D03*
X40465000Y-33175000D03*
X37925000Y-35715000D03*
X40465000Y-35715000D03*
X37925000Y-38255000D03*
X40465000Y-38255000D03*
X37925000Y-40795000D03*
X40465000Y-40795000D03*
X37925000Y-43335000D03*
X40465000Y-43335000D03*
X37925000Y-45875000D03*
X40465000Y-45875000D03*
X37925000Y-48415000D03*
X40465000Y-48415000D03*
X37925000Y-50955000D03*
X40465000Y-50955000D03*
X37925000Y-53495000D03*
X40465000Y-53495000D03*
X37925000Y-56035000D03*
X40465000Y-56035000D03*
X37925000Y-58575000D03*
X40465000Y-58575000D03*
X37925000Y-61115000D03*
X40465000Y-61115000D03*
X37925000Y-63655000D03*
X40465000Y-63655000D03*
X37925000Y-66195000D03*
X40465000Y-66195000D03*
X37925000Y-68735000D03*
X40465000Y-68735000D03*
%TD*%
D37*
%TO.C,U6*%
X24322500Y-65800000D03*
X24322500Y-66450000D03*
X24322500Y-67100000D03*
X24322500Y-67750000D03*
X24322500Y-68400000D03*
X24322500Y-69050000D03*
X24322500Y-69700000D03*
X24322500Y-70350000D03*
X30047500Y-70350000D03*
X30047500Y-69700000D03*
X30047500Y-69050000D03*
X30047500Y-68400000D03*
X30047500Y-67750000D03*
X30047500Y-67100000D03*
X30047500Y-66450000D03*
X30047500Y-65800000D03*
%TD*%
M02*
