%TF.GenerationSoftware,KiCad,Pcbnew,9.0.1*%
<<<<<<< Updated upstream
%TF.CreationDate,2025-10-26T21:15:44-04:00*%
=======
%TF.CreationDate,2025-10-26T21:35:25-04:00*%
>>>>>>> Stashed changes
%TF.ProjectId,Drone-Flight-Controller,44726f6e-652d-4466-9c69-6768742d436f,rev?*%
%TF.SameCoordinates,Original*%
%TF.FileFunction,Copper,L4,Bot*%
%TF.FilePolarity,Positive*%
%FSLAX46Y46*%
G04 Gerber Fmt 4.6, Leading zero omitted, Abs format (unit mm)*
<<<<<<< Updated upstream
G04 Created by KiCad (PCBNEW 9.0.1) date 2025-10-26 21:15:44*
=======
G04 Created by KiCad (PCBNEW 9.0.1) date 2025-10-26 21:35:25*
>>>>>>> Stashed changes
%MOMM*%
%LPD*%
G01*
G04 APERTURE LIST*
G04 Aperture macros list*
%AMRoundRect*
0 Rectangle with rounded corners*
0 $1 Rounding radius*
0 $2 $3 $4 $5 $6 $7 $8 $9 X,Y pos of 4 corners*
0 Add a 4 corners polygon primitive as box body*
4,1,4,$2,$3,$4,$5,$6,$7,$8,$9,$2,$3,0*
0 Add four circle primitives for the rounded corners*
1,1,$1+$1,$2,$3*
1,1,$1+$1,$4,$5*
1,1,$1+$1,$6,$7*
1,1,$1+$1,$8,$9*
0 Add four rect primitives between the rounded corners*
20,1,$1+$1,$2,$3,$4,$5,0*
20,1,$1+$1,$4,$5,$6,$7,0*
20,1,$1+$1,$6,$7,$8,$9,0*
20,1,$1+$1,$8,$9,$2,$3,0*%
G04 Aperture macros list end*
<<<<<<< Updated upstream
%TA.AperFunction,SMDPad,CuDef*%
%ADD10RoundRect,0.135000X0.135000X0.185000X-0.135000X0.185000X-0.135000X-0.185000X0.135000X-0.185000X0*%
%TD*%
%TA.AperFunction,ComponentPad*%
%ADD11RoundRect,0.250000X-0.750000X-0.750000X0.750000X-0.750000X0.750000X0.750000X-0.750000X0.750000X0*%
%TD*%
%TA.AperFunction,ComponentPad*%
%ADD12C,2.000000*%
=======
%TA.AperFunction,ComponentPad*%
%ADD10R,1.905000X2.000000*%
%TD*%
%TA.AperFunction,ComponentPad*%
%ADD11O,1.905000X2.000000*%
%TD*%
%TA.AperFunction,ComponentPad*%
%ADD12C,1.200000*%
>>>>>>> Stashed changes
%TD*%
%TA.AperFunction,ComponentPad*%
%ADD13RoundRect,0.250000X0.750000X-0.750000X0.750000X0.750000X-0.750000X0.750000X-0.750000X-0.750000X0*%
%TD*%
%TA.AperFunction,ComponentPad*%
<<<<<<< Updated upstream
%ADD14C,1.400000*%
%TD*%
%TA.AperFunction,ComponentPad*%
%ADD15O,1.400000X1.400000*%
%TD*%
%TA.AperFunction,SMDPad,CuDef*%
%ADD16RoundRect,0.140000X0.170000X-0.140000X0.170000X0.140000X-0.170000X0.140000X-0.170000X-0.140000X0*%
%TD*%
%TA.AperFunction,SMDPad,CuDef*%
%ADD17RoundRect,0.225000X-0.225000X-0.250000X0.225000X-0.250000X0.225000X0.250000X-0.225000X0.250000X0*%
%TD*%
%TA.AperFunction,SMDPad,CuDef*%
%ADD18RoundRect,0.140000X0.140000X0.170000X-0.140000X0.170000X-0.140000X-0.170000X0.140000X-0.170000X0*%
%TD*%
%TA.AperFunction,ViaPad*%
%ADD19C,0.600000*%
%TD*%
%TA.AperFunction,Conductor*%
%ADD20C,0.300000*%
%TD*%
%TA.AperFunction,Conductor*%
%ADD21C,0.200000*%
%TD*%
G04 APERTURE END LIST*
D10*
%TO.P,R10,1*%
%TO.N,+3.3V*%
X45500000Y-41000000D03*
%TO.P,R10,2*%
%TO.N,BOOT0*%
X44480000Y-41000000D03*
%TD*%
D11*
%TO.P,J7,1,Pin_1*%
%TO.N,+5V*%
X19960000Y-70000000D03*
D12*
%TO.P,J7,2,Pin_2*%
%TO.N,GND*%
X22500000Y-70000000D03*
%TD*%
D13*
%TO.P,J3,1,Pin_1*%
%TO.N,GND*%
X64500000Y-72080000D03*
D12*
%TO.P,J3,2,Pin_2*%
%TO.N,+5V*%
X64500000Y-69540000D03*
%TO.P,J3,3,Pin_3*%
%TO.N,PWM_0*%
X64500000Y-67000000D03*
%TD*%
D14*
%TO.P,R9,1*%
%TO.N,+3.3V*%
X27810000Y-33000000D03*
D15*
%TO.P,R9,2*%
%TO.N,IMU_SDA*%
X20190000Y-33000000D03*
%TD*%
D13*
%TO.P,J4,1,Pin_1*%
%TO.N,GND*%
X64500000Y-62500000D03*
D12*
%TO.P,J4,2,Pin_2*%
%TO.N,+5V*%
X64500000Y-59960000D03*
%TO.P,J4,3,Pin_3*%
%TO.N,PWM_1*%
X64500000Y-57420000D03*
%TD*%
D14*
%TO.P,R8,1*%
%TO.N,+3.3V*%
X27810000Y-35500000D03*
D15*
%TO.P,R8,2*%
%TO.N,IMU_SCL*%
X20190000Y-35500000D03*
=======
%ADD14C,2.000000*%
%TD*%
%TA.AperFunction,ComponentPad*%
%ADD15C,1.400000*%
%TD*%
%TA.AperFunction,ComponentPad*%
%ADD16O,1.400000X1.400000*%
%TD*%
%TA.AperFunction,ComponentPad*%
%ADD17R,1.800000X1.800000*%
%TD*%
%TA.AperFunction,ComponentPad*%
%ADD18C,1.800000*%
%TD*%
%TA.AperFunction,ComponentPad*%
%ADD19RoundRect,0.250000X-0.750000X-0.750000X0.750000X-0.750000X0.750000X0.750000X-0.750000X0.750000X0*%
%TD*%
%TA.AperFunction,ComponentPad*%
%ADD20RoundRect,0.250000X0.750000X0.750000X-0.750000X0.750000X-0.750000X-0.750000X0.750000X-0.750000X0*%
%TD*%
%TA.AperFunction,ComponentPad*%
%ADD21RoundRect,0.250000X0.550000X0.550000X-0.550000X0.550000X-0.550000X-0.550000X0.550000X-0.550000X0*%
%TD*%
%TA.AperFunction,ComponentPad*%
%ADD22C,1.600000*%
%TD*%
%TA.AperFunction,ViaPad*%
%ADD23C,0.600000*%
%TD*%
%TA.AperFunction,Conductor*%
%ADD24C,0.300000*%
%TD*%
%TA.AperFunction,Conductor*%
%ADD25C,0.200000*%
%TD*%
G04 APERTURE END LIST*
D10*
%TO.P,U2,1,VI*%
%TO.N,+5V*%
X41420000Y-17820000D03*
D11*
%TO.P,U2,2,GND*%
%TO.N,GND*%
X43960000Y-17820000D03*
%TO.P,U2,3,VO*%
%TO.N,+3.3V*%
X46500000Y-17820000D03*
%TD*%
D12*
%TO.P,C10,1*%
%TO.N,Net-(U4-CPOUT)*%
X46250000Y-33750000D03*
%TO.P,C10,2*%
%TO.N,GND*%
X47750000Y-33750000D03*
>>>>>>> Stashed changes
%TD*%
D13*
%TO.P,J5,1,Pin_1*%
%TO.N,GND*%
<<<<<<< Updated upstream
X64500000Y-53045000D03*
D12*
%TO.P,J5,2,Pin_2*%
%TO.N,+5V*%
X64500000Y-50505000D03*
%TO.P,J5,3,Pin_3*%
%TO.N,PWM_2*%
X64500000Y-47965000D03*
%TD*%
D11*
%TO.P,J1,1,Pin_1*%
%TO.N,+12V*%
X50975000Y-70037500D03*
D12*
%TO.P,J1,2,Pin_2*%
%TO.N,GND*%
X53515000Y-70037500D03*
%TD*%
D13*
%TO.P,J6,1,Pin_1*%
%TO.N,GND*%
X64500000Y-43540000D03*
D12*
%TO.P,J6,2,Pin_2*%
%TO.N,+5V*%
X64500000Y-41000000D03*
%TO.P,J6,3,Pin_3*%
%TO.N,PWM_3*%
X64500000Y-38460000D03*
%TD*%
D11*
%TO.P,J8,1,Pin_1*%
%TO.N,GND*%
X26955000Y-70000000D03*
D12*
%TO.P,J8,2,Pin_2*%
%TO.N,UART_RX*%
X29495000Y-70000000D03*
%TO.P,J8,3,Pin_3*%
%TO.N,UART_TX*%
X32035000Y-70000000D03*
%TD*%
D16*
%TO.P,C5,1*%
%TO.N,GND*%
X35500000Y-43480000D03*
%TO.P,C5,2*%
%TO.N,Net-(U3-VCAP1)*%
X35500000Y-42520000D03*
%TD*%
D17*
%TO.P,C8,1*%
%TO.N,+3.3V*%
X45000000Y-45500000D03*
%TO.P,C8,2*%
%TO.N,GND*%
X46550000Y-45500000D03*
%TD*%
D18*
%TO.P,C14,1*%
%TO.N,+3.3V*%
X43480000Y-45500000D03*
%TO.P,C14,2*%
%TO.N,GND*%
X42520000Y-45500000D03*
%TD*%
D19*
%TO.N,GND*%
X40250000Y-40937500D03*
X62500000Y-49500000D03*
X60000000Y-37500000D03*
X32000000Y-32500000D03*
X18000000Y-32000000D03*
X19000000Y-47000000D03*
X19000000Y-58000000D03*
X30500000Y-64000000D03*
X55000000Y-51500000D03*
X58000000Y-58000000D03*
X48500000Y-56500000D03*
X49000000Y-54500000D03*
X50000000Y-46500000D03*
X57500000Y-45500000D03*
X52500000Y-34500000D03*
X47500000Y-32000000D03*
X56500000Y-58000000D03*
%TO.N,PWM_1*%
X59350000Y-56500000D03*
%TO.N,+3.3V*%
X54500000Y-35000000D03*
%TO.N,+5V*%
X54500000Y-34000000D03*
%TO.N,LED_STATUS*%
X41687238Y-36236500D03*
X54500000Y-33000000D03*
%TO.N,+3.3V*%
X46000000Y-40500000D03*
%TO.N,BOOT0*%
X44582210Y-40982448D03*
%TO.N,GND*%
X35497067Y-43462424D03*
%TO.N,Net-(U3-PC13)*%
X49500000Y-34500000D03*
X42884658Y-36589685D03*
%TO.N,Net-(U3-PB0)*%
X32500000Y-38150000D03*
X37999998Y-40210418D03*
%TO.N,Net-(U3-PB1)*%
X37899899Y-41004133D03*
X32500000Y-40000000D03*
%TO.N,Net-(U3-PB10)*%
X31000000Y-42000000D03*
X37695175Y-42537500D03*
%TO.N,Net-(U3-PB2)*%
X38000001Y-41797848D03*
X34000000Y-45000000D03*
%TO.N,Net-(U3-PA15)*%
X42498968Y-43487500D03*
X44358398Y-44656414D03*
%TO.N,+3.3V*%
X31350000Y-51500000D03*
X31350000Y-53512500D03*
%TO.N,+12V*%
X52000000Y-62500000D03*
X55000000Y-59000000D03*
%TO.N,+3.3V*%
X35559329Y-44260000D03*
X35000000Y-37000000D03*
X44886779Y-37198000D03*
%TO.N,GND*%
X47370607Y-44815403D03*
%TO.N,+3.3V*%
X43500000Y-48500000D03*
%TO.N,SWCLK*%
X47969184Y-41968072D03*
%TO.N,SWDIO*%
X50000000Y-40150000D03*
%TO.N,GND*%
X29500000Y-56000000D03*
%TO.N,BATVOLTAGE_SCL*%
X36750000Y-47750000D03*
X36000000Y-49850000D03*
%TO.N,GND*%
X21000000Y-47500000D03*
%TO.N,BAROMETER_SCK*%
X25000000Y-50000000D03*
X37597521Y-39300999D03*
%TO.N,GND*%
X47500000Y-50637500D03*
%TO.N,+5V*%
X47500000Y-48362500D03*
%TO.N,USB_CONN_D-*%
X41751021Y-63050008D03*
%TO.N,USB_CONN_D+*%
X42352063Y-63651050D03*
%TO.N,USB_CONN_D-*%
X44199479Y-54699479D03*
%TO.N,USB_CONN_D+*%
X44800521Y-55300521D03*
%TO.N,UART_RX*%
X42891886Y-40558147D03*
%TO.N,UART_TX*%
X42848644Y-41393272D03*
%TO.N,GND*%
X51112500Y-58120000D03*
X34500000Y-62000000D03*
X33200000Y-58650000D03*
X20500000Y-40000000D03*
X29500000Y-40500000D03*
X29500000Y-43500000D03*
X24500000Y-38500000D03*
X21500000Y-38500000D03*
%TO.N,IMU_SCL*%
X45002764Y-39809031D03*
%TO.N,IMU_SDA*%
X45000000Y-39000000D03*
%TO.N,SWDIO*%
X42500000Y-46500000D03*
%TO.N,SWO*%
X46000000Y-42837500D03*
X52500000Y-39500000D03*
%TO.N,SWCLK*%
X45495020Y-43664403D03*
%TO.N,GND*%
X46000000Y-36000000D03*
%TO.N,+5V*%
X39900000Y-65225000D03*
%TO.N,GND*%
X43100000Y-65225000D03*
%TO.N,PWM_3*%
X36000000Y-38000000D03*
%TO.N,PWM_2*%
X36500000Y-37000000D03*
%TO.N,PWM_1*%
X37150000Y-36434313D03*
%TO.N,PWM_0*%
X38500000Y-36500000D03*
%TO.N,GND*%
X27000000Y-54025000D03*
X42520000Y-45500000D03*
X24978500Y-48478500D03*
%TO.N,+3.3V*%
X43480000Y-45500000D03*
%TO.N,+5V*%
X42500000Y-59750000D03*
X41750000Y-60500000D03*
X41000000Y-59750000D03*
X40000000Y-60500000D03*
X41750000Y-59000000D03*
X40000000Y-62000000D03*
X40000000Y-63500000D03*
X43000000Y-62000000D03*
X41750000Y-62000000D03*
X42500000Y-61250000D03*
X43000000Y-59000000D03*
X40000000Y-59000000D03*
X41000000Y-61250000D03*
%TO.N,Net-(U3-VCAP1)*%
X35500000Y-42520000D03*
%TO.N,+3.3V*%
X49000000Y-42850000D03*
%TD*%
D20*
%TO.N,PWM_1*%
X59500000Y-56350000D02*
X59350000Y-56500000D01*
X59500000Y-42000000D02*
X59500000Y-56350000D01*
X59500000Y-39917040D02*
X59500000Y-42000000D01*
X57931960Y-38349000D02*
X58291480Y-38708520D01*
X58291480Y-38708520D02*
X59500000Y-39917040D01*
X56000000Y-38349000D02*
X57931960Y-38349000D01*
%TO.N,PWM_0*%
X60000000Y-62500000D02*
X64500000Y-67000000D01*
X58139480Y-37848000D02*
X60000000Y-39708520D01*
X60000000Y-39708520D02*
X60000000Y-62500000D01*
X38500000Y-36500000D02*
X39848000Y-37848000D01*
X39848000Y-37848000D02*
X58139480Y-37848000D01*
%TO.N,PWM_2*%
X62965000Y-47965000D02*
X64500000Y-47965000D01*
X60500000Y-45500000D02*
X62965000Y-47965000D01*
X60500000Y-39500000D02*
X60500000Y-45500000D01*
X57965000Y-36965000D02*
X60500000Y-39500000D01*
X45965000Y-36965000D02*
X57965000Y-36965000D01*
X42270654Y-35500000D02*
X42271654Y-35501000D01*
X42271654Y-35501000D02*
X44501000Y-35501000D01*
X41728346Y-35501000D02*
X41729346Y-35500000D01*
X44501000Y-35501000D02*
X45965000Y-36965000D01*
X36747193Y-35501000D02*
X41728346Y-35501000D01*
X36500000Y-35748193D02*
X36747193Y-35501000D01*
X41729346Y-35500000D02*
X42270654Y-35500000D01*
X36500000Y-37000000D02*
X36500000Y-35748193D01*
%TO.N,PWM_3*%
X46000000Y-35000000D02*
X47464000Y-36464000D01*
X35849000Y-35690673D02*
X36539673Y-35000000D01*
X47464000Y-36464000D02*
X62504000Y-36464000D01*
X35849000Y-37849000D02*
X35849000Y-35690673D01*
X62504000Y-36464000D02*
X64500000Y-38460000D01*
X36000000Y-38000000D02*
X35849000Y-37849000D01*
X36539673Y-35000000D02*
X46000000Y-35000000D01*
%TO.N,PWM_1*%
X39064687Y-38349000D02*
X56000000Y-38349000D01*
D21*
%TO.N,+3.3V*%
X45500000Y-41000000D02*
X46000000Y-40500000D01*
%TO.N,GND*%
X35500000Y-43465357D02*
X35497067Y-43462424D01*
X35500000Y-43480000D02*
X35500000Y-43465357D01*
D20*
%TO.N,BAROMETER_SCK*%
X35347000Y-39653000D02*
X25000000Y-50000000D01*
X36837695Y-39500000D02*
X36684694Y-39653000D01*
X37398520Y-39500000D02*
X36837695Y-39500000D01*
X37597521Y-39300999D02*
X37398520Y-39500000D01*
X36684694Y-39653000D02*
X35347000Y-39653000D01*
%TO.N,IMU_SCL*%
X22190000Y-37500000D02*
X20190000Y-35500000D01*
X33791478Y-37500000D02*
X22190000Y-37500000D01*
X35292477Y-39001000D02*
X33791478Y-37500000D01*
X35371826Y-39001000D02*
X35292477Y-39001000D01*
X35522825Y-39152000D02*
X35371826Y-39001000D01*
X38649645Y-39351000D02*
X37798645Y-38500000D01*
X44430346Y-39351000D02*
X38649645Y-39351000D01*
X36477174Y-39152000D02*
X35522825Y-39152000D01*
X44730346Y-39651000D02*
X44430346Y-39351000D01*
X37798645Y-38500000D02*
X37129174Y-38500000D01*
X44844733Y-39651000D02*
X44730346Y-39651000D01*
X37129174Y-38500000D02*
X36477174Y-39152000D01*
X45002764Y-39809031D02*
X44844733Y-39651000D01*
%TO.N,IMU_SDA*%
X20190000Y-33690000D02*
X20190000Y-33000000D01*
X23499000Y-36999000D02*
X20190000Y-33690000D01*
X33998998Y-36999000D02*
X23499000Y-36999000D01*
X35499998Y-38500000D02*
X33998998Y-36999000D01*
X35579346Y-38500000D02*
X35499998Y-38500000D01*
X35730346Y-38651000D02*
X35579346Y-38500000D01*
X36269654Y-38651000D02*
X35730346Y-38651000D01*
X36920654Y-38000000D02*
X36269654Y-38651000D01*
X38007166Y-38000000D02*
X36920654Y-38000000D01*
X45000000Y-39000000D02*
X44850000Y-38850000D01*
X44850000Y-38850000D02*
X38857166Y-38850000D01*
X38857166Y-38850000D02*
X38007166Y-38000000D01*
D21*
%TO.N,Net-(U3-PB2)*%
X34500000Y-44500000D02*
X34000000Y-45000000D01*
X34500000Y-42500000D02*
X34500000Y-44500000D01*
X37310665Y-41687500D02*
X37079165Y-41919000D01*
X37955567Y-41687500D02*
X37310665Y-41687500D01*
X38000001Y-41731934D02*
X37955567Y-41687500D01*
X35081000Y-41919000D02*
X34500000Y-42500000D01*
X38000001Y-41797848D02*
X38000001Y-41731934D01*
X37079165Y-41919000D02*
X35081000Y-41919000D01*
D20*
%TO.N,BATVOLTAGE_SCL*%
X36750000Y-47750000D02*
X36000000Y-48500000D01*
X36000000Y-48500000D02*
X36000000Y-49850000D01*
%TO.N,Net-(U3-PA15)*%
X42498968Y-43487500D02*
X43189484Y-43487500D01*
X43189484Y-43487500D02*
X44358398Y-44656414D01*
%TO.N,+3.3V*%
X31350000Y-51500000D02*
X31350000Y-53512500D01*
%TO.N,+12V*%
X55000000Y-59500000D02*
X52000000Y-62500000D01*
X55000000Y-59000000D02*
X55000000Y-59500000D01*
%TO.N,GND*%
X46686010Y-45500000D02*
X47370607Y-44815403D01*
X46550000Y-45500000D02*
X46686010Y-45500000D01*
%TO.N,SWDIO*%
X50000000Y-40150000D02*
X50000000Y-43345822D01*
X50000000Y-43345822D02*
X46845822Y-46500000D01*
X46845822Y-46500000D02*
X42500000Y-46500000D01*
D21*
%TO.N,USB_CONN_D-*%
X43775000Y-61308872D02*
X43775000Y-55406801D01*
X43601000Y-62248943D02*
X43601000Y-61482872D01*
X43248943Y-62601000D02*
X43601000Y-62248943D01*
X42482872Y-62601000D02*
X43248943Y-62601000D01*
X42033864Y-63050008D02*
X42482872Y-62601000D01*
%TO.N,USB_CONN_D+*%
X44225000Y-61495270D02*
X44225000Y-55593199D01*
X44050980Y-62435331D02*
X44050980Y-61669290D01*
%TO.N,USB_CONN_D-*%
X43601000Y-61482872D02*
X43775000Y-61308872D01*
%TO.N,USB_CONN_D+*%
X43435331Y-63050980D02*
X44050980Y-62435331D01*
X42669290Y-63050980D02*
X43435331Y-63050980D01*
%TO.N,USB_CONN_D-*%
X41751021Y-63050008D02*
X42033864Y-63050008D01*
%TO.N,USB_CONN_D+*%
X42352063Y-63368207D02*
X42669290Y-63050980D01*
X44050980Y-61669290D02*
X44225000Y-61495270D01*
X42352063Y-63651050D02*
X42352063Y-63368207D01*
D20*
%TO.N,UART_RX*%
X32000000Y-67212500D02*
X29495000Y-69717500D01*
X38292479Y-42999000D02*
X32000000Y-49291480D01*
X40792480Y-42999000D02*
X38292479Y-42999000D01*
X42197644Y-41593836D02*
X40792480Y-42999000D01*
X42197644Y-41123618D02*
X42197644Y-41593836D01*
X42578990Y-40742272D02*
X42197644Y-41123618D01*
X42891886Y-40742272D02*
X42578990Y-40742272D01*
X32000000Y-49291480D02*
X32000000Y-67212500D01*
X42891886Y-40558147D02*
X42891886Y-40742272D01*
%TO.N,UART_TX*%
X38500000Y-43500000D02*
X41000000Y-43500000D01*
X42848644Y-41651356D02*
X42848644Y-41393272D01*
X32500000Y-49500000D02*
X38500000Y-43500000D01*
X41000000Y-43500000D02*
X42848644Y-41651356D01*
X32035000Y-69717500D02*
X32500000Y-69252500D01*
X32500000Y-69252500D02*
X32500000Y-49500000D01*
%TO.N,PWM_1*%
X37150000Y-36434313D02*
X39064687Y-38349000D01*
%TO.N,SWO*%
X46000000Y-42618920D02*
X49118920Y-39500000D01*
X49118920Y-39500000D02*
X52500000Y-39500000D01*
X46000000Y-42837500D02*
X46000000Y-42618920D01*
%TO.N,SWCLK*%
X48063700Y-41936300D02*
X46335597Y-43664403D01*
X46335597Y-43664403D02*
X45495020Y-43664403D01*
%TO.N,+3.3V*%
X43480000Y-45500000D02*
X45000000Y-45500000D01*
D21*
%TO.N,USB_CONN_D-*%
X44199479Y-54982322D02*
X43775000Y-55406801D01*
X44199479Y-54699479D02*
X44199479Y-54982322D01*
%TO.N,USB_CONN_D+*%
X44517678Y-55300521D02*
X44225000Y-55593199D01*
X44800521Y-55300521D02*
X44517678Y-55300521D01*
D20*
%TO.N,+3.3V*%
X49000000Y-42850000D02*
X47684597Y-44165403D01*
X47684597Y-44165403D02*
X46334597Y-44165403D01*
X46334597Y-44165403D02*
X45000000Y-45500000D01*
=======
X66532500Y-21360000D03*
D14*
%TO.P,J5,2,Pin_2*%
%TO.N,+5V*%
X66532500Y-18820000D03*
%TO.P,J5,3,Pin_3*%
%TO.N,PWM_3*%
X66532500Y-16280000D03*
%TD*%
D12*
%TO.P,C2,1*%
%TO.N,Net-(U3-AREF)*%
X15250000Y-68500000D03*
%TO.P,C2,2*%
%TO.N,GND*%
X16750000Y-68500000D03*
%TD*%
%TO.P,C8,1*%
%TO.N,GND*%
X39250000Y-38250000D03*
%TO.P,C8,2*%
%TO.N,+3.3V*%
X40750000Y-38250000D03*
%TD*%
D15*
%TO.P,R3,1*%
%TO.N,Net-(U3-XTAL1{slash}PB6)*%
X21750000Y-67500000D03*
D16*
%TO.P,R3,2*%
%TO.N,Net-(U3-XTAL2{slash}PB7)*%
X29370000Y-67500000D03*
%TD*%
D12*
%TO.P,C1,1*%
%TO.N,+12V*%
X49000000Y-63070000D03*
%TO.P,C1,2*%
%TO.N,GND*%
X50500000Y-63070000D03*
%TD*%
D15*
%TO.P,R5,1*%
%TO.N,+3.3V*%
X37690000Y-45500000D03*
D16*
%TO.P,R5,2*%
%TO.N,IMU_SDA*%
X45310000Y-45500000D03*
%TD*%
D12*
%TO.P,C9,1*%
%TO.N,GND*%
X36250000Y-34250000D03*
%TO.P,C9,2*%
%TO.N,Net-(U4-REGOUT)*%
X37750000Y-34250000D03*
%TD*%
D13*
%TO.P,J7,1,Pin_1*%
%TO.N,GND*%
X66500000Y-59360000D03*
D14*
%TO.P,J7,2,Pin_2*%
%TO.N,UART_TX*%
X66500000Y-56820000D03*
%TO.P,J7,3,Pin_3*%
%TO.N,UART_RX*%
X66500000Y-54280000D03*
%TD*%
D15*
%TO.P,R1,1*%
%TO.N,+5V*%
X57000000Y-59010000D03*
D16*
%TO.P,R1,2*%
%TO.N,Net-(U1-FB)*%
X57000000Y-66630000D03*
%TD*%
D12*
%TO.P,C12,1*%
%TO.N,GND*%
X46500000Y-28000000D03*
%TO.P,C12,2*%
%TO.N,+3.3V*%
X45000000Y-28000000D03*
%TD*%
D15*
%TO.P,R2,1*%
%TO.N,Net-(U1-FB)*%
X54750000Y-66630000D03*
D16*
%TO.P,R2,2*%
%TO.N,GND*%
X54750000Y-59010000D03*
%TD*%
D15*
%TO.P,R4,1*%
%TO.N,+3.3V*%
X37690000Y-43250000D03*
D16*
%TO.P,R4,2*%
%TO.N,IMU_SCL*%
X45310000Y-43250000D03*
%TD*%
D13*
%TO.P,J2,1,Pin_1*%
%TO.N,GND*%
X66532500Y-49820000D03*
D14*
%TO.P,J2,2,Pin_2*%
%TO.N,+5V*%
X66532500Y-47280000D03*
%TO.P,J2,3,Pin_3*%
%TO.N,PWM_0*%
X66532500Y-44740000D03*
%TD*%
D17*
%TO.P,D1,1,K*%
%TO.N,GND*%
X56500000Y-47250000D03*
D18*
%TO.P,D1,2,A*%
%TO.N,Net-(D1-A)*%
X53960000Y-47250000D03*
%TD*%
D12*
%TO.P,C3,1*%
%TO.N,+5V*%
X33000000Y-16750000D03*
%TO.P,C3,2*%
%TO.N,GND*%
X34500000Y-16750000D03*
%TD*%
%TO.P,C7,1*%
%TO.N,Net-(U4-GND)*%
X45500000Y-38250000D03*
%TO.P,C7,2*%
%TO.N,GND*%
X44000000Y-38250000D03*
%TD*%
D13*
%TO.P,J4,1,Pin_1*%
%TO.N,GND*%
X66532500Y-30820000D03*
D14*
%TO.P,J4,2,Pin_2*%
%TO.N,+5V*%
X66532500Y-28280000D03*
%TO.P,J4,3,Pin_3*%
%TO.N,PWM_2*%
X66532500Y-25740000D03*
%TD*%
D19*
%TO.P,J1,1,Pin_1*%
%TO.N,+12V*%
X48975000Y-69787500D03*
D14*
%TO.P,J1,2,Pin_2*%
%TO.N,GND*%
X51515000Y-69787500D03*
%TD*%
D12*
%TO.P,C11,1*%
%TO.N,+3.3V*%
X45000000Y-23250000D03*
%TO.P,C11,2*%
%TO.N,GND*%
X46500000Y-23250000D03*
%TD*%
D13*
%TO.P,J8,1,Pin_1*%
%TO.N,CONTROLLER_THROTTLE*%
X66532500Y-71320000D03*
D14*
%TO.P,J8,2,Pin_2*%
%TO.N,CONTROLLER_YAW*%
X66532500Y-68780000D03*
%TO.P,J8,3,Pin_3*%
%TO.N,CONTROLLER_PITCH*%
X66532500Y-66240000D03*
%TO.P,J8,4,Pin_4*%
%TO.N,CONTROLLER_ROLL*%
X66532500Y-63700000D03*
%TD*%
D20*
%TO.P,J6,1,Pin_1*%
%TO.N,+5V*%
X59750000Y-18280000D03*
D14*
%TO.P,J6,2,Pin_2*%
%TO.N,GND*%
X57210000Y-18280000D03*
%TD*%
D17*
%TO.P,D2,1,K*%
%TO.N,GND*%
X56500000Y-42750000D03*
D18*
%TO.P,D2,2,A*%
%TO.N,+3.3V*%
X53960000Y-42750000D03*
%TD*%
D12*
%TO.P,C6,1*%
%TO.N,+3.3V*%
X37750000Y-29500000D03*
%TO.P,C6,2*%
%TO.N,GND*%
X36250000Y-29500000D03*
%TD*%
D13*
%TO.P,J3,1,Pin_1*%
%TO.N,GND*%
X66532500Y-40360000D03*
D14*
%TO.P,J3,2,Pin_2*%
%TO.N,+5V*%
X66532500Y-37820000D03*
%TO.P,J3,3,Pin_3*%
%TO.N,PWM_1*%
X66532500Y-35280000D03*
%TD*%
D21*
%TO.P,U3,1,~{RESET}/PC6*%
%TO.N,Net-(JP1-A)*%
X30250000Y-64270000D03*
D22*
%TO.P,U3,2,PD0*%
%TO.N,CONTROLLER_ROLL*%
X30250000Y-61730000D03*
%TO.P,U3,3,PD1*%
%TO.N,CONTROLLER_PITCH*%
X30250000Y-59190000D03*
%TO.P,U3,4,PD2*%
%TO.N,CONTROLLER_YAW*%
X30250000Y-56650000D03*
%TO.P,U3,5,PD3*%
%TO.N,CONTROLLER_THROTTLE*%
X30250000Y-54110000D03*
%TO.P,U3,6,PD4*%
%TO.N,PWM_0*%
X30250000Y-51570000D03*
%TO.P,U3,7,VCC*%
%TO.N,+5V*%
X30250000Y-49030000D03*
%TO.P,U3,8,GND*%
%TO.N,GND*%
X30250000Y-46490000D03*
%TO.P,U3,9,XTAL1/PB6*%
%TO.N,Net-(U3-XTAL1{slash}PB6)*%
X30250000Y-43950000D03*
%TO.P,U3,10,XTAL2/PB7*%
%TO.N,Net-(U3-XTAL2{slash}PB7)*%
X30250000Y-41410000D03*
%TO.P,U3,11,PD5*%
%TO.N,PWM_1*%
X30250000Y-38870000D03*
%TO.P,U3,12,PD6*%
%TO.N,PWM_2*%
X30250000Y-36330000D03*
%TO.P,U3,13,PD7*%
%TO.N,PWM_3*%
X30250000Y-33790000D03*
%TO.P,U3,14,PB0*%
%TO.N,UART_TX*%
X30250000Y-31250000D03*
%TO.P,U3,15,PB1*%
%TO.N,UART_RX*%
X30250000Y-28710000D03*
%TO.P,U3,16,PB2*%
%TO.N,BAROMETER_CSB*%
X30250000Y-26170000D03*
%TO.P,U3,17,PB3*%
%TO.N,BAROMETER_SDO*%
X30250000Y-23630000D03*
%TO.P,U3,18,PB4*%
%TO.N,BAROMETER_SDI*%
X30250000Y-21090000D03*
%TO.P,U3,19,PB5*%
%TO.N,BAROMETER_SCK*%
X30250000Y-18550000D03*
%TO.P,U3,20,AVCC*%
%TO.N,+5V*%
X30250000Y-16010000D03*
%TO.P,U3,21,AREF*%
%TO.N,Net-(U3-AREF)*%
X15010000Y-16010000D03*
%TO.P,U3,22,GND*%
%TO.N,GND*%
X15010000Y-18550000D03*
%TO.P,U3,23,PC0*%
%TO.N,unconnected-(U3-PC0-Pad23)*%
X15010000Y-21090000D03*
%TO.P,U3,24,PC1*%
%TO.N,unconnected-(U3-PC1-Pad24)*%
X15010000Y-23630000D03*
%TO.P,U3,25,PC2*%
%TO.N,Net-(D1-A)*%
X15010000Y-26170000D03*
%TO.P,U3,26,PC3*%
%TO.N,unconnected-(U3-PC3-Pad26)*%
X15010000Y-28710000D03*
%TO.P,U3,27,PC4*%
%TO.N,IMU_SDA*%
X15010000Y-31250000D03*
%TO.P,U3,28,PC5*%
%TO.N,IMU_SCL*%
X15010000Y-33790000D03*
%TO.P,U3,29*%
%TO.N,N/C*%
X15010000Y-36330000D03*
%TO.P,U3,30*%
X15010000Y-38870000D03*
%TO.P,U3,31*%
X15010000Y-41410000D03*
%TO.P,U3,32*%
X15010000Y-43950000D03*
%TO.P,U3,33*%
X15010000Y-46490000D03*
%TO.P,U3,34*%
X15010000Y-49030000D03*
%TO.P,U3,35*%
X15010000Y-51570000D03*
%TO.P,U3,36*%
X15010000Y-54110000D03*
%TO.P,U3,37*%
X15010000Y-56650000D03*
%TO.P,U3,38*%
X15010000Y-59190000D03*
%TO.P,U3,39*%
X15010000Y-61730000D03*
%TO.P,U3,40*%
X15010000Y-64270000D03*
%TD*%
D12*
%TO.P,C4,1*%
%TO.N,Net-(U1-CB)*%
X54250000Y-56320000D03*
%TO.P,C4,2*%
%TO.N,Net-(U1-SW)*%
X54250000Y-54820000D03*
%TD*%
%TO.P,C5,1*%
%TO.N,+5V*%
X43500000Y-56070000D03*
%TO.P,C5,2*%
%TO.N,GND*%
X45000000Y-56070000D03*
%TD*%
D23*
%TO.N,GND*%
X17250000Y-21250000D03*
X20250000Y-36250000D03*
X20250000Y-61750000D03*
X24250000Y-46500000D03*
X24250000Y-41500000D03*
X20250000Y-21250000D03*
X24250000Y-56750000D03*
X24250000Y-61750000D03*
X27750000Y-16000000D03*
X16750000Y-41500000D03*
X20250000Y-16000000D03*
X17250000Y-16000000D03*
X20250000Y-46500000D03*
X27750000Y-21250000D03*
X16750000Y-36250000D03*
X20250000Y-51500000D03*
X24250000Y-26250000D03*
X16750000Y-61750000D03*
X20250000Y-41500000D03*
X24250000Y-21250000D03*
X16750000Y-46500000D03*
X24250000Y-51500000D03*
X24250000Y-16000000D03*
X16750000Y-56750000D03*
X20250000Y-56750000D03*
X20250000Y-26250000D03*
X27750000Y-26250000D03*
X17250000Y-26250000D03*
X16750000Y-51500000D03*
X42021500Y-26271500D03*
%TO.N,+3.3V*%
X47500000Y-41250000D03*
%TO.N,+5V*%
X38250000Y-58750000D03*
X40500000Y-59500000D03*
X39750000Y-60250000D03*
X36750000Y-58750000D03*
X39000000Y-59500000D03*
X37500000Y-59500000D03*
X39750000Y-58750000D03*
X41000000Y-61750000D03*
X39750000Y-61750000D03*
X38250000Y-60250000D03*
X40500000Y-61000000D03*
X41000000Y-58750000D03*
X39000000Y-61000000D03*
%TO.N,Net-(U1-SW)*%
X47500000Y-58820000D03*
%TO.N,IMU_SDA*%
X45000000Y-31250000D03*
%TO.N,IMU_SCL*%
X45000000Y-32250000D03*
%TO.N,+12V*%
X52750000Y-58750000D03*
%TO.N,BAROMETER_SDI*%
X40250000Y-25300003D03*
%TO.N,BAROMETER_SCK*%
X40250000Y-24500000D03*
%TO.N,Net-(D1-A)*%
X22000000Y-36250000D03*
%TD*%
D24*
%TO.N,+3.3V*%
X53960000Y-42750000D02*
X49000000Y-42750000D01*
X49000000Y-42750000D02*
X47500000Y-41250000D01*
D25*
%TO.N,Net-(U1-SW)*%
X47500000Y-56320000D02*
X47500000Y-58820000D01*
X54000000Y-54820000D02*
X49000000Y-54820000D01*
X49000000Y-54820000D02*
X47500000Y-56320000D01*
D24*
%TO.N,IMU_SDA*%
X45000000Y-31250000D02*
X43849000Y-32401000D01*
X43849000Y-32401000D02*
X16161000Y-32401000D01*
X16161000Y-32401000D02*
X15010000Y-31250000D01*
%TO.N,IMU_SCL*%
X44348000Y-32902000D02*
X45000000Y-32250000D01*
X34348000Y-32902000D02*
X44348000Y-32902000D01*
X32309000Y-34941000D02*
X34348000Y-32902000D01*
X15010000Y-33790000D02*
X16161000Y-34941000D01*
X16161000Y-34941000D02*
X32309000Y-34941000D01*
%TO.N,+12V*%
X52750000Y-58750000D02*
X52750000Y-59320000D01*
X52750000Y-59320000D02*
X49000000Y-63070000D01*
%TO.N,UART_RX*%
X30250000Y-28710000D02*
X32040000Y-30500000D01*
X48250000Y-29500000D02*
X65181500Y-46431500D01*
X39094918Y-29500000D02*
X48250000Y-29500000D01*
X32040000Y-30500000D02*
X38094918Y-30500000D01*
X38094918Y-30500000D02*
X39094918Y-29500000D01*
X65181500Y-46431500D02*
X65181500Y-52961500D01*
X65181500Y-52961500D02*
X66500000Y-54280000D01*
%TO.N,UART_TX*%
X30250000Y-31250000D02*
X38053438Y-31250000D01*
X64500000Y-46750000D02*
X64500000Y-54820000D01*
X47849000Y-30099000D02*
X64500000Y-46750000D01*
X38053438Y-31250000D02*
X39204438Y-30099000D01*
X39204438Y-30099000D02*
X47849000Y-30099000D01*
X64500000Y-54820000D02*
X66500000Y-56820000D01*
%TO.N,BAROMETER_SDI*%
X40050003Y-25300003D02*
X35840000Y-21090000D01*
X40250000Y-25300003D02*
X40050003Y-25300003D01*
X35840000Y-21090000D02*
X30250000Y-21090000D01*
%TO.N,BAROMETER_SCK*%
X40250000Y-24500000D02*
X34300000Y-18550000D01*
X34300000Y-18550000D02*
X30250000Y-18550000D01*
%TO.N,Net-(U3-XTAL1{slash}PB6)*%
X27250000Y-46950000D02*
X30250000Y-43950000D01*
X21750000Y-67500000D02*
X27250000Y-62000000D01*
X27250000Y-62000000D02*
X27250000Y-46950000D01*
%TO.N,Net-(D1-A)*%
X30488760Y-42561000D02*
X28311000Y-42561000D01*
X53960000Y-47250000D02*
X35177760Y-47250000D01*
X28311000Y-42561000D02*
X22000000Y-36250000D01*
X35177760Y-47250000D02*
X30488760Y-42561000D01*
>>>>>>> Stashed changes
%TD*%
%TA.AperFunction,Conductor*%
%TO.N,GND*%
G36*
<<<<<<< Updated upstream
X47377650Y-44835588D02*
G01*
X47423405Y-44888392D01*
X47433349Y-44957550D01*
X47404324Y-45021106D01*
X47398292Y-45027584D01*
X46612695Y-45813181D01*
X46551372Y-45846666D01*
X46525014Y-45849500D01*
X46074500Y-45849500D01*
X46065814Y-45846949D01*
X46056854Y-45848238D01*
X46032815Y-45837259D01*
X46007461Y-45829815D01*
X46001533Y-45822973D01*
X45993298Y-45819213D01*
X45979010Y-45796980D01*
X45961706Y-45777011D01*
X45959418Y-45766496D01*
X45955523Y-45760435D01*
X45950500Y-45725501D01*
X45950499Y-45520808D01*
X45970183Y-45453768D01*
X45986813Y-45433131D01*
X46567723Y-44852222D01*
X46629046Y-44818737D01*
X46655404Y-44815903D01*
X47310611Y-44815903D01*
X47377650Y-44835588D01*
=======
X65779719Y-14770185D02*
G01*
X65825474Y-14822989D01*
X65835418Y-14892147D01*
X65806393Y-14955703D01*
X65768975Y-14984985D01*
X65746066Y-14996657D01*
X65637050Y-15075862D01*
X65554990Y-15135483D01*
X65554988Y-15135485D01*
X65554987Y-15135485D01*
X65387985Y-15302487D01*
X65387985Y-15302488D01*
X65387983Y-15302490D01*
X65328362Y-15384550D01*
X65249157Y-15493566D01*
X65141933Y-15704003D01*
X65068946Y-15928631D01*
X65032000Y-16161902D01*
X65032000Y-16398097D01*
X65068946Y-16631368D01*
X65141933Y-16855996D01*
X65220893Y-17010962D01*
X65249157Y-17066433D01*
X65387983Y-17257510D01*
X65554990Y-17424517D01*
X65589627Y-17449683D01*
X65632292Y-17505013D01*
X65638271Y-17574626D01*
X65605665Y-17636421D01*
X65589630Y-17650315D01*
X65578852Y-17658146D01*
X65554988Y-17675484D01*
X65387985Y-17842487D01*
X65387985Y-17842488D01*
X65387983Y-17842490D01*
X65360865Y-17879815D01*
X65249157Y-18033566D01*
X65141933Y-18244003D01*
X65068946Y-18468631D01*
X65032000Y-18701902D01*
X65032000Y-18938097D01*
X65068946Y-19171368D01*
X65141933Y-19395996D01*
X65194242Y-19498657D01*
X65249157Y-19606433D01*
X65387983Y-19797510D01*
X65554990Y-19964517D01*
X65746067Y-20103343D01*
X65845491Y-20154002D01*
X65956503Y-20210566D01*
X65956505Y-20210566D01*
X65956508Y-20210568D01*
X66076912Y-20249689D01*
X66181131Y-20283553D01*
X66414403Y-20320500D01*
X66414408Y-20320500D01*
X66650597Y-20320500D01*
X66883868Y-20283553D01*
X66935077Y-20266914D01*
X67108492Y-20210568D01*
X67318933Y-20103343D01*
X67510010Y-19964517D01*
X67677017Y-19797510D01*
X67815843Y-19606433D01*
X67923068Y-19395992D01*
X67996053Y-19171368D01*
X68005738Y-19110217D01*
X68033000Y-18938097D01*
X68033000Y-18701902D01*
X67996053Y-18468631D01*
X67962189Y-18364412D01*
X67923068Y-18244008D01*
X67923066Y-18244005D01*
X67923066Y-18244003D01*
X67821529Y-18044727D01*
X67815843Y-18033567D01*
X67677017Y-17842490D01*
X67510010Y-17675483D01*
X67475372Y-17650317D01*
X67432707Y-17594989D01*
X67426728Y-17525375D01*
X67459333Y-17463580D01*
X67475373Y-17449682D01*
X67510010Y-17424517D01*
X67677017Y-17257510D01*
X67815843Y-17066433D01*
X67923068Y-16855992D01*
X67996053Y-16631368D01*
X68004559Y-16577664D01*
X68033000Y-16398097D01*
X68033000Y-16161902D01*
X67996053Y-15928631D01*
X67931555Y-15730128D01*
X67923068Y-15704008D01*
X67923066Y-15704005D01*
X67923066Y-15704003D01*
X67815842Y-15493566D01*
X67677017Y-15302490D01*
X67510010Y-15135483D01*
X67318933Y-14996657D01*
X67296024Y-14984984D01*
X67245229Y-14937011D01*
X67228434Y-14869190D01*
X67250971Y-14803055D01*
X67305686Y-14759603D01*
X67352320Y-14750500D01*
X69375500Y-14750500D01*
X69442539Y-14770185D01*
X69488294Y-14822989D01*
X69499500Y-14874500D01*
X69499500Y-73375500D01*
X69479815Y-73442539D01*
X69427011Y-73488294D01*
X69375500Y-73499500D01*
X14124500Y-73499500D01*
X14057461Y-73479815D01*
X14011706Y-73427011D01*
X14000500Y-73375500D01*
X14000500Y-69864962D01*
X33595557Y-69864962D01*
X33595557Y-70135037D01*
X33625791Y-70403379D01*
X33625794Y-70403397D01*
X33685887Y-70666683D01*
X33685891Y-70666695D01*
X33775081Y-70921583D01*
X33775090Y-70921605D01*
X33892255Y-71164901D01*
X33892259Y-71164907D01*
X34035940Y-71393575D01*
X34204321Y-71604717D01*
X34395283Y-71795679D01*
X34606425Y-71964060D01*
X34835093Y-72107741D01*
X34835098Y-72107744D01*
X35078394Y-72224909D01*
X35078403Y-72224912D01*
X35078410Y-72224916D01*
X35078416Y-72224918D01*
X35333304Y-72314108D01*
X35333316Y-72314112D01*
X35596606Y-72374206D01*
X35596612Y-72374206D01*
X35596620Y-72374208D01*
X35775514Y-72394364D01*
X35864963Y-72404442D01*
X35864966Y-72404443D01*
X35864969Y-72404443D01*
X36135034Y-72404443D01*
X36135035Y-72404442D01*
X36272181Y-72388989D01*
X36403379Y-72374208D01*
X36403384Y-72374207D01*
X36403394Y-72374206D01*
X36666684Y-72314112D01*
X36921590Y-72224916D01*
X36925991Y-72222797D01*
X37164901Y-72107744D01*
X37164901Y-72107743D01*
X37164907Y-72107741D01*
X37393575Y-71964060D01*
X37604717Y-71795679D01*
X37795679Y-71604717D01*
X37964060Y-71393575D01*
X38107741Y-71164907D01*
X38224916Y-70921590D01*
X38314112Y-70666684D01*
X38374206Y-70403394D01*
X38404443Y-70135031D01*
X38404443Y-69864969D01*
X38392336Y-69757516D01*
X38374208Y-69596620D01*
X38374205Y-69596602D01*
X38343694Y-69462926D01*
X38314112Y-69333316D01*
X38224916Y-69078410D01*
X38181128Y-68987483D01*
X47474500Y-68987483D01*
X47474500Y-70587501D01*
X47474501Y-70587518D01*
X47485000Y-70690296D01*
X47485001Y-70690299D01*
X47540185Y-70856831D01*
X47540186Y-70856834D01*
X47632288Y-71006156D01*
X47756344Y-71130212D01*
X47905666Y-71222314D01*
X48072203Y-71277499D01*
X48174991Y-71288000D01*
X49775008Y-71287999D01*
X49877797Y-71277499D01*
X50044334Y-71222314D01*
X50193656Y-71130212D01*
X50317712Y-71006156D01*
X50409814Y-70856834D01*
X50464999Y-70690297D01*
X50475500Y-70587509D01*
X50475499Y-68987492D01*
X50464999Y-68884703D01*
X50409814Y-68718166D01*
X50317712Y-68568844D01*
X50193656Y-68444788D01*
X50044334Y-68352686D01*
X49877797Y-68297501D01*
X49877795Y-68297500D01*
X49775010Y-68287000D01*
X48174998Y-68287000D01*
X48174981Y-68287001D01*
X48072203Y-68297500D01*
X48072200Y-68297501D01*
X47905668Y-68352685D01*
X47905663Y-68352687D01*
X47756342Y-68444789D01*
X47632289Y-68568842D01*
X47540187Y-68718163D01*
X47540186Y-68718166D01*
X47485001Y-68884703D01*
X47485001Y-68884704D01*
X47485000Y-68884704D01*
X47474500Y-68987483D01*
X38181128Y-68987483D01*
X38154399Y-68931980D01*
X38107744Y-68835098D01*
X38087807Y-68803368D01*
X37964060Y-68606425D01*
X37795679Y-68395283D01*
X37604717Y-68204321D01*
X37393575Y-68035940D01*
X37164907Y-67892259D01*
X37164908Y-67892259D01*
X37164901Y-67892255D01*
X36921605Y-67775090D01*
X36921583Y-67775081D01*
X36666695Y-67685891D01*
X36666683Y-67685887D01*
X36403397Y-67625794D01*
X36403379Y-67625791D01*
X36135037Y-67595557D01*
X36135031Y-67595557D01*
X35864969Y-67595557D01*
X35864962Y-67595557D01*
X35596620Y-67625791D01*
X35596602Y-67625794D01*
X35333316Y-67685887D01*
X35333304Y-67685891D01*
X35078416Y-67775081D01*
X35078394Y-67775090D01*
X34835098Y-67892255D01*
X34606426Y-68035939D01*
X34395283Y-68204320D01*
X34204320Y-68395283D01*
X34035939Y-68606426D01*
X33892255Y-68835098D01*
X33775090Y-69078394D01*
X33775081Y-69078416D01*
X33685891Y-69333304D01*
X33685887Y-69333316D01*
X33625794Y-69596602D01*
X33625791Y-69596620D01*
X33595557Y-69864962D01*
X14000500Y-69864962D01*
X14000500Y-68988274D01*
X14020185Y-68921235D01*
X14072989Y-68875480D01*
X14142147Y-68865536D01*
X14205703Y-68894561D01*
X14234985Y-68931980D01*
X14308766Y-69076786D01*
X14317304Y-69088537D01*
X14410586Y-69216928D01*
X14533072Y-69339414D01*
X14673212Y-69441232D01*
X14827555Y-69519873D01*
X14992299Y-69573402D01*
X15163389Y-69600500D01*
X15163390Y-69600500D01*
X15336610Y-69600500D01*
X15336611Y-69600500D01*
X15507701Y-69573402D01*
X15672445Y-69519873D01*
X15826788Y-69441232D01*
X15966928Y-69339414D01*
X16089414Y-69216928D01*
X16191232Y-69076788D01*
X16269873Y-68922445D01*
X16323402Y-68757701D01*
X16350500Y-68586611D01*
X16350500Y-68413389D01*
X16323402Y-68242299D01*
X16269873Y-68077555D01*
X16191232Y-67923212D01*
X16089414Y-67783072D01*
X15966928Y-67660586D01*
X15826788Y-67558768D01*
X15672445Y-67480127D01*
X15507701Y-67426598D01*
X15507699Y-67426597D01*
X15507698Y-67426597D01*
X15374576Y-67405513D01*
X15336611Y-67399500D01*
X15163389Y-67399500D01*
X15125424Y-67405513D01*
X14992302Y-67426597D01*
X14827552Y-67480128D01*
X14673211Y-67558768D01*
X14622576Y-67595557D01*
X14533072Y-67660586D01*
X14533070Y-67660588D01*
X14533069Y-67660588D01*
X14410588Y-67783069D01*
X14410588Y-67783070D01*
X14410586Y-67783072D01*
X14366859Y-67843256D01*
X14308768Y-67923211D01*
X14234985Y-68068020D01*
X14187011Y-68118816D01*
X14119190Y-68135611D01*
X14053055Y-68113074D01*
X14009603Y-68058359D01*
X14000500Y-68011725D01*
X14000500Y-65387426D01*
X14020185Y-65320387D01*
X14072989Y-65274632D01*
X14142147Y-65264688D01*
X14197385Y-65287108D01*
X14316347Y-65373537D01*
X14328390Y-65382287D01*
X14421051Y-65429500D01*
X14510776Y-65475218D01*
X14510778Y-65475218D01*
X14510781Y-65475220D01*
X14601856Y-65504812D01*
X14705465Y-65538477D01*
X14806557Y-65554488D01*
X14907648Y-65570500D01*
X14907649Y-65570500D01*
X15112351Y-65570500D01*
X15112352Y-65570500D01*
X15314534Y-65538477D01*
X15509219Y-65475220D01*
X15691610Y-65382287D01*
X15820482Y-65288657D01*
X15857213Y-65261971D01*
X15857215Y-65261968D01*
X15857219Y-65261966D01*
X16001966Y-65117219D01*
X16001968Y-65117215D01*
X16001971Y-65117213D01*
X16106892Y-64972799D01*
X16122287Y-64951610D01*
X16215220Y-64769219D01*
X16278477Y-64574534D01*
X16310500Y-64372352D01*
X16310500Y-64167648D01*
X16306660Y-64143402D01*
X16278477Y-63965465D01*
X16220467Y-63786930D01*
X16215220Y-63770781D01*
X16215218Y-63770778D01*
X16215218Y-63770776D01*
X16163865Y-63669991D01*
X16122287Y-63588390D01*
X16073138Y-63520741D01*
X16001971Y-63422786D01*
X15857213Y-63278028D01*
X15691614Y-63157715D01*
X15681522Y-63152573D01*
X15598917Y-63110483D01*
X15548123Y-63062511D01*
X15531328Y-62994690D01*
X15553865Y-62928555D01*
X15598917Y-62889516D01*
X15691610Y-62842287D01*
X15791539Y-62769685D01*
X15857213Y-62721971D01*
X15857215Y-62721968D01*
X15857219Y-62721966D01*
X16001966Y-62577219D01*
X16001968Y-62577215D01*
X16001971Y-62577213D01*
X16087573Y-62459390D01*
X16122287Y-62411610D01*
X16212872Y-62233827D01*
X16215218Y-62229223D01*
X16215218Y-62229222D01*
X16215220Y-62229219D01*
X16278477Y-62034534D01*
X16310500Y-61832352D01*
X16310500Y-61627648D01*
X16278477Y-61425466D01*
X16263439Y-61379185D01*
X16249127Y-61335137D01*
X16215220Y-61230781D01*
X16215218Y-61230778D01*
X16215218Y-61230776D01*
X16181503Y-61164607D01*
X16122287Y-61048390D01*
X16092954Y-61008016D01*
X16001971Y-60882786D01*
X15857213Y-60738028D01*
X15691614Y-60617715D01*
X15681522Y-60612573D01*
X15598917Y-60570483D01*
X15548123Y-60522511D01*
X15531328Y-60454690D01*
X15553865Y-60388555D01*
X15598917Y-60349516D01*
X15691610Y-60302287D01*
X15736414Y-60269735D01*
X15857213Y-60181971D01*
X15857215Y-60181968D01*
X15857219Y-60181966D01*
X16001966Y-60037219D01*
X16001968Y-60037215D01*
X16001971Y-60037213D01*
X16116783Y-59879185D01*
X16122287Y-59871610D01*
X16215220Y-59689219D01*
X16278477Y-59494534D01*
X16310500Y-59292352D01*
X16310500Y-59087648D01*
X16302744Y-59038680D01*
X16278477Y-58885465D01*
X16231588Y-58741158D01*
X16215220Y-58690781D01*
X16215218Y-58690778D01*
X16215218Y-58690776D01*
X16181503Y-58624607D01*
X16122287Y-58508390D01*
X16093562Y-58468853D01*
X16001971Y-58342786D01*
X15857213Y-58198028D01*
X15691614Y-58077715D01*
X15618789Y-58040609D01*
X15598917Y-58030483D01*
X15548123Y-57982511D01*
X15531328Y-57914690D01*
X15553865Y-57848555D01*
X15598917Y-57809516D01*
X15691610Y-57762287D01*
X15839786Y-57654632D01*
X15857213Y-57641971D01*
X15857215Y-57641968D01*
X15857219Y-57641966D01*
X16001966Y-57497219D01*
X16001968Y-57497215D01*
X16001971Y-57497213D01*
X16077393Y-57393402D01*
X16122287Y-57331610D01*
X16215220Y-57149219D01*
X16278477Y-56954534D01*
X16310500Y-56752352D01*
X16310500Y-56547648D01*
X16288162Y-56406611D01*
X16278477Y-56345465D01*
X16215218Y-56150776D01*
X16181503Y-56084607D01*
X16122287Y-55968390D01*
X16070821Y-55897552D01*
X16001971Y-55802786D01*
X15857213Y-55658028D01*
X15691614Y-55537715D01*
X15667395Y-55525375D01*
X15598917Y-55490483D01*
X15548123Y-55442511D01*
X15531328Y-55374690D01*
X15553865Y-55308555D01*
X15598917Y-55269516D01*
X15691610Y-55222287D01*
X15776809Y-55160387D01*
X15857213Y-55101971D01*
X15857215Y-55101968D01*
X15857219Y-55101966D01*
X16001966Y-54957219D01*
X16001968Y-54957215D01*
X16001971Y-54957213D01*
X16075511Y-54855992D01*
X16122287Y-54791610D01*
X16215220Y-54609219D01*
X16278477Y-54414534D01*
X16310500Y-54212352D01*
X16310500Y-54007648D01*
X16278477Y-53805466D01*
X16276742Y-53800127D01*
X16215218Y-53610776D01*
X16155496Y-53493567D01*
X16122287Y-53428390D01*
X16114556Y-53417749D01*
X16001971Y-53262786D01*
X15857213Y-53118028D01*
X15691614Y-52997715D01*
X15681522Y-52992573D01*
X15598917Y-52950483D01*
X15548123Y-52902511D01*
X15531328Y-52834690D01*
X15553865Y-52768555D01*
X15598917Y-52729516D01*
X15691610Y-52682287D01*
X15839786Y-52574632D01*
X15857213Y-52561971D01*
X15857215Y-52561968D01*
X15857219Y-52561966D01*
X16001966Y-52417219D01*
X16001968Y-52417215D01*
X16001971Y-52417213D01*
X16054732Y-52344590D01*
X16122287Y-52251610D01*
X16215220Y-52069219D01*
X16278477Y-51874534D01*
X16310500Y-51672352D01*
X16310500Y-51467648D01*
X16278477Y-51265466D01*
X16215220Y-51070781D01*
X16215218Y-51070778D01*
X16215218Y-51070776D01*
X16181503Y-51004607D01*
X16122287Y-50888390D01*
X16114556Y-50877749D01*
X16001971Y-50722786D01*
X15857213Y-50578028D01*
X15691614Y-50457715D01*
X15681522Y-50452573D01*
X15598917Y-50410483D01*
X15548123Y-50362511D01*
X15531328Y-50294690D01*
X15553865Y-50228555D01*
X15598917Y-50189516D01*
X15691610Y-50142287D01*
X15839786Y-50034632D01*
X15857213Y-50021971D01*
X15857215Y-50021968D01*
X15857219Y-50021966D01*
X16001966Y-49877219D01*
X16001968Y-49877215D01*
X16001971Y-49877213D01*
X16054732Y-49804590D01*
X16122287Y-49711610D01*
X16215220Y-49529219D01*
X16278477Y-49334534D01*
X16310500Y-49132352D01*
X16310500Y-48927648D01*
X16278477Y-48725466D01*
X16215220Y-48530781D01*
X16215218Y-48530778D01*
X16215218Y-48530776D01*
X16172945Y-48447812D01*
X16122287Y-48348390D01*
X16100384Y-48318243D01*
X16001971Y-48182786D01*
X15857213Y-48038028D01*
X15691614Y-47917715D01*
X15681522Y-47912573D01*
X15598917Y-47870483D01*
X15548123Y-47822511D01*
X15531328Y-47754690D01*
X15553865Y-47688555D01*
X15598917Y-47649516D01*
X15691610Y-47602287D01*
X15839786Y-47494632D01*
X15857213Y-47481971D01*
X15857215Y-47481968D01*
X15857219Y-47481966D01*
X16001966Y-47337219D01*
X16001968Y-47337215D01*
X16001971Y-47337213D01*
X16087532Y-47219446D01*
X16122287Y-47171610D01*
X16215220Y-46989219D01*
X16278477Y-46794534D01*
X16310500Y-46592352D01*
X16310500Y-46387648D01*
X16293779Y-46282075D01*
X16278477Y-46185465D01*
X16223684Y-46016831D01*
X16215220Y-45990781D01*
X16215218Y-45990778D01*
X16215218Y-45990776D01*
X16173898Y-45909682D01*
X16122287Y-45808390D01*
X16102473Y-45781118D01*
X16001971Y-45642786D01*
X15857213Y-45498028D01*
X15691614Y-45377715D01*
X15681522Y-45372573D01*
X15598917Y-45330483D01*
X15548123Y-45282511D01*
X15531328Y-45214690D01*
X15553865Y-45148555D01*
X15598917Y-45109516D01*
X15691610Y-45062287D01*
X15839786Y-44954632D01*
X15857213Y-44941971D01*
X15857215Y-44941968D01*
X15857219Y-44941966D01*
X16001966Y-44797219D01*
X16001968Y-44797215D01*
X16001971Y-44797213D01*
X16054732Y-44724590D01*
X16122287Y-44631610D01*
X16215220Y-44449219D01*
X16278477Y-44254534D01*
X16310500Y-44052352D01*
X16310500Y-43847648D01*
X16281153Y-43662363D01*
X16278477Y-43645465D01*
X16226022Y-43484026D01*
X16215220Y-43450781D01*
X16215218Y-43450778D01*
X16215218Y-43450776D01*
X16165473Y-43353147D01*
X16122287Y-43268390D01*
X16112756Y-43255271D01*
X16001971Y-43102786D01*
X15857213Y-42958028D01*
X15691614Y-42837715D01*
X15681522Y-42832573D01*
X15598917Y-42790483D01*
X15548123Y-42742511D01*
X15531328Y-42674690D01*
X15553865Y-42608555D01*
X15598917Y-42569516D01*
X15691610Y-42522287D01*
X15766431Y-42467927D01*
X15857213Y-42401971D01*
X15857215Y-42401968D01*
X15857219Y-42401966D01*
X16001966Y-42257219D01*
X16001968Y-42257215D01*
X16001971Y-42257213D01*
X16054732Y-42184590D01*
X16122287Y-42091610D01*
X16215220Y-41909219D01*
X16278477Y-41714534D01*
X16310500Y-41512352D01*
X16310500Y-41307648D01*
X16288881Y-41171153D01*
X16278477Y-41105465D01*
X16215218Y-40910776D01*
X16181503Y-40844607D01*
X16122287Y-40728390D01*
X16114556Y-40717749D01*
X16001971Y-40562786D01*
X15857213Y-40418028D01*
X15691614Y-40297715D01*
X15681522Y-40292573D01*
X15598917Y-40250483D01*
X15548123Y-40202511D01*
X15531328Y-40134690D01*
X15553865Y-40068555D01*
X15598917Y-40029516D01*
X15691610Y-39982287D01*
X15839786Y-39874632D01*
X15857213Y-39861971D01*
X15857215Y-39861968D01*
X15857219Y-39861966D01*
X16001966Y-39717219D01*
X16001968Y-39717215D01*
X16001971Y-39717213D01*
X16054732Y-39644590D01*
X16122287Y-39551610D01*
X16215220Y-39369219D01*
X16278477Y-39174534D01*
X16310500Y-38972352D01*
X16310500Y-38767648D01*
X16278477Y-38565466D01*
X16215220Y-38370781D01*
X16215218Y-38370778D01*
X16215218Y-38370776D01*
X16181503Y-38304607D01*
X16122287Y-38188390D01*
X16104123Y-38163389D01*
X16001971Y-38022786D01*
X15857213Y-37878028D01*
X15691614Y-37757715D01*
X15681522Y-37752573D01*
X15598917Y-37710483D01*
X15548123Y-37662511D01*
X15531328Y-37594690D01*
X15553865Y-37528555D01*
X15598917Y-37489516D01*
X15691610Y-37442287D01*
X15839786Y-37334632D01*
X15857213Y-37321971D01*
X15857215Y-37321968D01*
X15857219Y-37321966D01*
X16001966Y-37177219D01*
X16001968Y-37177215D01*
X16001971Y-37177213D01*
X16082033Y-37067015D01*
X16122287Y-37011610D01*
X16215220Y-36829219D01*
X16278477Y-36634534D01*
X16310500Y-36432352D01*
X16310500Y-36227648D01*
X16278477Y-36025466D01*
X16275563Y-36016499D01*
X16228230Y-35870821D01*
X16215220Y-35830781D01*
X16215218Y-35830778D01*
X16215218Y-35830776D01*
X16185165Y-35771795D01*
X16172269Y-35703126D01*
X16198545Y-35638386D01*
X16255651Y-35598128D01*
X16295650Y-35591500D01*
X21245254Y-35591500D01*
X21312293Y-35611185D01*
X21358048Y-35663989D01*
X21367992Y-35733147D01*
X21348356Y-35784391D01*
X21290609Y-35870814D01*
X21290602Y-35870827D01*
X21230264Y-36016498D01*
X21230261Y-36016510D01*
X21199500Y-36171153D01*
X21199500Y-36328846D01*
X21230261Y-36483489D01*
X21230264Y-36483501D01*
X21290602Y-36629172D01*
X21290609Y-36629185D01*
X21378210Y-36760288D01*
X21378213Y-36760292D01*
X21489707Y-36871786D01*
X21489711Y-36871789D01*
X21620814Y-36959390D01*
X21620827Y-36959397D01*
X21708230Y-36995599D01*
X21766503Y-37019737D01*
X21805125Y-37027419D01*
X21833578Y-37033079D01*
X21895489Y-37065463D01*
X21897068Y-37067015D01*
X27896326Y-43066273D01*
X27896329Y-43066275D01*
X27896331Y-43066277D01*
X28002873Y-43137465D01*
X28121256Y-43186501D01*
X28121260Y-43186501D01*
X28121261Y-43186502D01*
X28246928Y-43211500D01*
X28246931Y-43211500D01*
X28964350Y-43211500D01*
X29031389Y-43231185D01*
X29077144Y-43283989D01*
X29087088Y-43353147D01*
X29074835Y-43391795D01*
X29044781Y-43450776D01*
X28981522Y-43645465D01*
X28949500Y-43847648D01*
X28949500Y-44052351D01*
X28977654Y-44230111D01*
X28968699Y-44299405D01*
X28942862Y-44337190D01*
X26744726Y-46535326D01*
X26693131Y-46612546D01*
X26693129Y-46612548D01*
X26673539Y-46641864D01*
X26673533Y-46641875D01*
X26624499Y-46760255D01*
X26624497Y-46760261D01*
X26599500Y-46885928D01*
X26599500Y-61679191D01*
X26579815Y-61746230D01*
X26563181Y-61766872D01*
X22049787Y-66280265D01*
X21988464Y-66313750D01*
X21942708Y-66315057D01*
X21844486Y-66299500D01*
X21844481Y-66299500D01*
X21655519Y-66299500D01*
X21655514Y-66299500D01*
X21468881Y-66329059D01*
X21289163Y-66387454D01*
X21120800Y-66473240D01*
X21035090Y-66535513D01*
X20967927Y-66584310D01*
X20967925Y-66584312D01*
X20967924Y-66584312D01*
X20834312Y-66717924D01*
X20834312Y-66717925D01*
X20834310Y-66717927D01*
X20829545Y-66724486D01*
X20723240Y-66870800D01*
X20637454Y-67039163D01*
X20579059Y-67218881D01*
X20549500Y-67405513D01*
X20549500Y-67594486D01*
X20579059Y-67781118D01*
X20637454Y-67960836D01*
X20696926Y-68077555D01*
X20723240Y-68129199D01*
X20834310Y-68282073D01*
X20967927Y-68415690D01*
X21120801Y-68526760D01*
X21200347Y-68567290D01*
X21289163Y-68612545D01*
X21289165Y-68612545D01*
X21289168Y-68612547D01*
X21359299Y-68635334D01*
X21468881Y-68670940D01*
X21655514Y-68700500D01*
X21655519Y-68700500D01*
X21844486Y-68700500D01*
X22031118Y-68670940D01*
X22058934Y-68661902D01*
X22210832Y-68612547D01*
X22379199Y-68526760D01*
X22532073Y-68415690D01*
X22665690Y-68282073D01*
X22776760Y-68129199D01*
X22862547Y-67960832D01*
X22920940Y-67781118D01*
X22927049Y-67742545D01*
X22950500Y-67594486D01*
X22950500Y-67409986D01*
X22950500Y-67405519D01*
X22950499Y-67405513D01*
X28169500Y-67405513D01*
X28169500Y-67594486D01*
X28199059Y-67781118D01*
X28257454Y-67960836D01*
X28316926Y-68077555D01*
X28343240Y-68129199D01*
X28454310Y-68282073D01*
X28587927Y-68415690D01*
X28740801Y-68526760D01*
X28820347Y-68567290D01*
X28909163Y-68612545D01*
X28909165Y-68612545D01*
X28909168Y-68612547D01*
X28979299Y-68635334D01*
X29088881Y-68670940D01*
X29275514Y-68700500D01*
X29275519Y-68700500D01*
X29464486Y-68700500D01*
X29651118Y-68670940D01*
X29678934Y-68661902D01*
X29830832Y-68612547D01*
X29999199Y-68526760D01*
X30152073Y-68415690D01*
X30285690Y-68282073D01*
X30396760Y-68129199D01*
X30482547Y-67960832D01*
X30540940Y-67781118D01*
X30547049Y-67742545D01*
X30570500Y-67594486D01*
X30570500Y-67405513D01*
X30540940Y-67218881D01*
X30482545Y-67039163D01*
X30396759Y-66870800D01*
X30285690Y-66717927D01*
X30152073Y-66584310D01*
X30084910Y-66535513D01*
X53549500Y-66535513D01*
X53549500Y-66724486D01*
X53579059Y-66911118D01*
X53637454Y-67090836D01*
X53712437Y-67237997D01*
X53723240Y-67259199D01*
X53834310Y-67412073D01*
X53967927Y-67545690D01*
X54120801Y-67656760D01*
X54177966Y-67685887D01*
X54289163Y-67742545D01*
X54289165Y-67742545D01*
X54289168Y-67742547D01*
X54385497Y-67773846D01*
X54468881Y-67800940D01*
X54655514Y-67830500D01*
X54655519Y-67830500D01*
X54844486Y-67830500D01*
X55031118Y-67800940D01*
X55210832Y-67742547D01*
X55379199Y-67656760D01*
X55532073Y-67545690D01*
X55665690Y-67412073D01*
X55774682Y-67262058D01*
X55830012Y-67219394D01*
X55899626Y-67213415D01*
X55961421Y-67246021D01*
X55975317Y-67262058D01*
X56084310Y-67412073D01*
X56217927Y-67545690D01*
X56370801Y-67656760D01*
X56427966Y-67685887D01*
X56539163Y-67742545D01*
X56539165Y-67742545D01*
X56539168Y-67742547D01*
X56635497Y-67773846D01*
X56718881Y-67800940D01*
X56905514Y-67830500D01*
X56905519Y-67830500D01*
X57094486Y-67830500D01*
X57281118Y-67800940D01*
X57460832Y-67742547D01*
X57629199Y-67656760D01*
X57782073Y-67545690D01*
X57915690Y-67412073D01*
X58026760Y-67259199D01*
X58112547Y-67090832D01*
X58170940Y-66911118D01*
X58200500Y-66724486D01*
X58200500Y-66535513D01*
X58170940Y-66348881D01*
X58112545Y-66169163D01*
X58067290Y-66080347D01*
X58026760Y-66000801D01*
X57915690Y-65847927D01*
X57782073Y-65714310D01*
X57629199Y-65603240D01*
X57460836Y-65517454D01*
X57281118Y-65459059D01*
X57094486Y-65429500D01*
X57094481Y-65429500D01*
X56905519Y-65429500D01*
X56905514Y-65429500D01*
X56718881Y-65459059D01*
X56539163Y-65517454D01*
X56370800Y-65603240D01*
X56287168Y-65664003D01*
X56217927Y-65714310D01*
X56217925Y-65714312D01*
X56217924Y-65714312D01*
X56084311Y-65847925D01*
X55975318Y-65997940D01*
X55919987Y-66040605D01*
X55850374Y-66046584D01*
X55788579Y-66013978D01*
X55774682Y-65997940D01*
X55695263Y-65888631D01*
X55665690Y-65847927D01*
X55532073Y-65714310D01*
X55379199Y-65603240D01*
X55210836Y-65517454D01*
X55031118Y-65459059D01*
X54844486Y-65429500D01*
X54844481Y-65429500D01*
X54655519Y-65429500D01*
X54655514Y-65429500D01*
X54468881Y-65459059D01*
X54289163Y-65517454D01*
X54120800Y-65603240D01*
X54037168Y-65664003D01*
X53967927Y-65714310D01*
X53967925Y-65714312D01*
X53967924Y-65714312D01*
X53834312Y-65847924D01*
X53834312Y-65847925D01*
X53834310Y-65847927D01*
X53804737Y-65888631D01*
X53723240Y-66000800D01*
X53637454Y-66169163D01*
X53579059Y-66348881D01*
X53549500Y-66535513D01*
X30084910Y-66535513D01*
X29999199Y-66473240D01*
X29830836Y-66387454D01*
X29651118Y-66329059D01*
X29464486Y-66299500D01*
X29464481Y-66299500D01*
X29275519Y-66299500D01*
X29275514Y-66299500D01*
X29088881Y-66329059D01*
X28909163Y-66387454D01*
X28740800Y-66473240D01*
X28655090Y-66535513D01*
X28587927Y-66584310D01*
X28587925Y-66584312D01*
X28587924Y-66584312D01*
X28454312Y-66717924D01*
X28454312Y-66717925D01*
X28454310Y-66717927D01*
X28449545Y-66724486D01*
X28343240Y-66870800D01*
X28257454Y-67039163D01*
X28199059Y-67218881D01*
X28169500Y-67405513D01*
X22950499Y-67405513D01*
X22934859Y-67306770D01*
X22934814Y-67306470D01*
X22939464Y-67272282D01*
X22943895Y-67237997D01*
X22944186Y-67237570D01*
X22944232Y-67237238D01*
X22945148Y-67236164D01*
X22969730Y-67200214D01*
X27755277Y-62414669D01*
X27826466Y-62308126D01*
X27875501Y-62189743D01*
X27900500Y-62064069D01*
X27900500Y-61935931D01*
X27900500Y-48927648D01*
X28949500Y-48927648D01*
X28949500Y-49132351D01*
X28981522Y-49334534D01*
X29044781Y-49529223D01*
X29137715Y-49711613D01*
X29258028Y-49877213D01*
X29402786Y-50021971D01*
X29557749Y-50134556D01*
X29568390Y-50142287D01*
X29659840Y-50188883D01*
X29661080Y-50189515D01*
X29711876Y-50237490D01*
X29728671Y-50305311D01*
X29706134Y-50371446D01*
X29661080Y-50410485D01*
X29568386Y-50457715D01*
X29402786Y-50578028D01*
X29258028Y-50722786D01*
X29137715Y-50888386D01*
X29044781Y-51070776D01*
X28981522Y-51265465D01*
X28949500Y-51467648D01*
X28949500Y-51672351D01*
X28981522Y-51874534D01*
X29044781Y-52069223D01*
X29137715Y-52251613D01*
X29258028Y-52417213D01*
X29402786Y-52561971D01*
X29547418Y-52667050D01*
X29568390Y-52682287D01*
X29658839Y-52728373D01*
X29661080Y-52729515D01*
X29711876Y-52777490D01*
X29728671Y-52845311D01*
X29706134Y-52911446D01*
X29661080Y-52950485D01*
X29568386Y-52997715D01*
X29402786Y-53118028D01*
X29258028Y-53262786D01*
X29137715Y-53428386D01*
X29044781Y-53610776D01*
X28981522Y-53805465D01*
X28949500Y-54007648D01*
X28949500Y-54212351D01*
X28981522Y-54414534D01*
X29044781Y-54609223D01*
X29137715Y-54791613D01*
X29258028Y-54957213D01*
X29402786Y-55101971D01*
X29557749Y-55214556D01*
X29568390Y-55222287D01*
X29637519Y-55257510D01*
X29661080Y-55269515D01*
X29711876Y-55317490D01*
X29728671Y-55385311D01*
X29706134Y-55451446D01*
X29661080Y-55490485D01*
X29568386Y-55537715D01*
X29402786Y-55658028D01*
X29258028Y-55802786D01*
X29137715Y-55968386D01*
X29044781Y-56150776D01*
X28981522Y-56345465D01*
X28949500Y-56547648D01*
X28949500Y-56752351D01*
X28981522Y-56954534D01*
X29044781Y-57149223D01*
X29137715Y-57331613D01*
X29258028Y-57497213D01*
X29402786Y-57641971D01*
X29557749Y-57754556D01*
X29568390Y-57762287D01*
X29637519Y-57797510D01*
X29661080Y-57809515D01*
X29711876Y-57857490D01*
X29728671Y-57925311D01*
X29706134Y-57991446D01*
X29661080Y-58030485D01*
X29568386Y-58077715D01*
X29402786Y-58198028D01*
X29258028Y-58342786D01*
X29137715Y-58508386D01*
X29044781Y-58690776D01*
X28981522Y-58885465D01*
X28949500Y-59087648D01*
X28949500Y-59292351D01*
X28981522Y-59494534D01*
X29044781Y-59689223D01*
X29137715Y-59871613D01*
X29258028Y-60037213D01*
X29402786Y-60181971D01*
X29550154Y-60289038D01*
X29568390Y-60302287D01*
X29659840Y-60348883D01*
X29661080Y-60349515D01*
X29711876Y-60397490D01*
X29728671Y-60465311D01*
X29706134Y-60531446D01*
X29661080Y-60570485D01*
X29568386Y-60617715D01*
X29402786Y-60738028D01*
X29258028Y-60882786D01*
X29137715Y-61048386D01*
X29044781Y-61230776D01*
X28981522Y-61425465D01*
X28949500Y-61627648D01*
X28949500Y-61832351D01*
X28981522Y-62034534D01*
X29044781Y-62229223D01*
X29137715Y-62411613D01*
X29258028Y-62577213D01*
X29258034Y-62577219D01*
X29402781Y-62721966D01*
X29496452Y-62790021D01*
X29539117Y-62845350D01*
X29545096Y-62914963D01*
X29512491Y-62976759D01*
X29462571Y-63008045D01*
X29380666Y-63035186D01*
X29380663Y-63035187D01*
X29231342Y-63127289D01*
X29107289Y-63251342D01*
X29015187Y-63400663D01*
X29015186Y-63400666D01*
X28960001Y-63567203D01*
X28960001Y-63567204D01*
X28960000Y-63567204D01*
X28949500Y-63669983D01*
X28949500Y-64870001D01*
X28949501Y-64870018D01*
X28960000Y-64972796D01*
X28960001Y-64972799D01*
X29000656Y-65095485D01*
X29015186Y-65139334D01*
X29107288Y-65288656D01*
X29231344Y-65412712D01*
X29380666Y-65504814D01*
X29547203Y-65559999D01*
X29649991Y-65570500D01*
X30850008Y-65570499D01*
X30952797Y-65559999D01*
X31119334Y-65504814D01*
X31268656Y-65412712D01*
X31392712Y-65288656D01*
X31484814Y-65139334D01*
X31539999Y-64972797D01*
X31550500Y-64870009D01*
X31550499Y-63669992D01*
X31539999Y-63567203D01*
X31484814Y-63400666D01*
X31392712Y-63251344D01*
X31268656Y-63127288D01*
X31119334Y-63035186D01*
X31037427Y-63008044D01*
X30979984Y-62968272D01*
X30953161Y-62903756D01*
X30965476Y-62834980D01*
X31003547Y-62790021D01*
X31085905Y-62730185D01*
X31097215Y-62721969D01*
X31097215Y-62721968D01*
X31097219Y-62721966D01*
X31241966Y-62577219D01*
X31241968Y-62577215D01*
X31241971Y-62577213D01*
X31327573Y-62459390D01*
X31362287Y-62411610D01*
X31452872Y-62233827D01*
X31455218Y-62229223D01*
X31455218Y-62229222D01*
X31455220Y-62229219D01*
X31518477Y-62034534D01*
X31550500Y-61832352D01*
X31550500Y-61627648D01*
X31518477Y-61425466D01*
X31503439Y-61379185D01*
X31489127Y-61335137D01*
X31455220Y-61230781D01*
X31455218Y-61230778D01*
X31455218Y-61230776D01*
X31421503Y-61164607D01*
X31362287Y-61048390D01*
X31332954Y-61008016D01*
X31241971Y-60882786D01*
X31097213Y-60738028D01*
X30931614Y-60617715D01*
X30921522Y-60612573D01*
X30838917Y-60570483D01*
X30788123Y-60522511D01*
X30771328Y-60454690D01*
X30793865Y-60388555D01*
X30838917Y-60349516D01*
X30931610Y-60302287D01*
X30976414Y-60269735D01*
X31097213Y-60181971D01*
X31097215Y-60181968D01*
X31097219Y-60181966D01*
X31241966Y-60037219D01*
X31241968Y-60037215D01*
X31241971Y-60037213D01*
X31356783Y-59879185D01*
X31362287Y-59871610D01*
X31455220Y-59689219D01*
X31518477Y-59494534D01*
X31550500Y-59292352D01*
X31550500Y-59087648D01*
X31518477Y-58885466D01*
X31518476Y-58885462D01*
X31518476Y-58885461D01*
X31459315Y-58703384D01*
X31459314Y-58703382D01*
X31455220Y-58690780D01*
X31445219Y-58671153D01*
X35949500Y-58671153D01*
X35949500Y-58828846D01*
X35980261Y-58983489D01*
X35980264Y-58983501D01*
X36040602Y-59129172D01*
X36040609Y-59129185D01*
X36128210Y-59260288D01*
X36128213Y-59260292D01*
X36239707Y-59371786D01*
X36239711Y-59371789D01*
X36370814Y-59459390D01*
X36370827Y-59459397D01*
X36516498Y-59519735D01*
X36516503Y-59519737D01*
X36612367Y-59538805D01*
X36613535Y-59539038D01*
X36675446Y-59571422D01*
X36710020Y-59632138D01*
X36710961Y-59636463D01*
X36730261Y-59733491D01*
X36730264Y-59733501D01*
X36790602Y-59879172D01*
X36790609Y-59879185D01*
X36878210Y-60010288D01*
X36878213Y-60010292D01*
X36989707Y-60121786D01*
X36989711Y-60121789D01*
X37120814Y-60209390D01*
X37120827Y-60209397D01*
X37195645Y-60240387D01*
X37266503Y-60269737D01*
X37362367Y-60288805D01*
X37363535Y-60289038D01*
X37425446Y-60321422D01*
X37460020Y-60382138D01*
X37460961Y-60386463D01*
X37480261Y-60483491D01*
X37480264Y-60483501D01*
X37540602Y-60629172D01*
X37540609Y-60629185D01*
X37628210Y-60760288D01*
X37628213Y-60760292D01*
X37739707Y-60871786D01*
X37739711Y-60871789D01*
X37870814Y-60959390D01*
X37870827Y-60959397D01*
X38016498Y-61019735D01*
X38016503Y-61019737D01*
X38112367Y-61038805D01*
X38113535Y-61039038D01*
X38175446Y-61071422D01*
X38210020Y-61132138D01*
X38210961Y-61136463D01*
X38230261Y-61233491D01*
X38230264Y-61233501D01*
X38290602Y-61379172D01*
X38290609Y-61379185D01*
X38378210Y-61510288D01*
X38378213Y-61510292D01*
X38489707Y-61621786D01*
X38489711Y-61621789D01*
X38620814Y-61709390D01*
X38620827Y-61709397D01*
X38759586Y-61766872D01*
X38766503Y-61769737D01*
X38862367Y-61788805D01*
X38863535Y-61789038D01*
X38925446Y-61821422D01*
X38960020Y-61882138D01*
X38960961Y-61886463D01*
X38980261Y-61983491D01*
X38980264Y-61983501D01*
X39040602Y-62129172D01*
X39040609Y-62129185D01*
X39128210Y-62260288D01*
X39128213Y-62260292D01*
X39239707Y-62371786D01*
X39239711Y-62371789D01*
X39370814Y-62459390D01*
X39370827Y-62459397D01*
X39516498Y-62519735D01*
X39516503Y-62519737D01*
X39671153Y-62550499D01*
X39671156Y-62550500D01*
X39671158Y-62550500D01*
X39828844Y-62550500D01*
X39828845Y-62550499D01*
X39983497Y-62519737D01*
X40129179Y-62459394D01*
X40260289Y-62371789D01*
X40260292Y-62371786D01*
X40287319Y-62344760D01*
X40348642Y-62311275D01*
X40418334Y-62316259D01*
X40462681Y-62344760D01*
X40489707Y-62371786D01*
X40489711Y-62371789D01*
X40620814Y-62459390D01*
X40620827Y-62459397D01*
X40766498Y-62519735D01*
X40766503Y-62519737D01*
X40921153Y-62550499D01*
X40921156Y-62550500D01*
X40921158Y-62550500D01*
X41078844Y-62550500D01*
X41078845Y-62550499D01*
X41233497Y-62519737D01*
X41379179Y-62459394D01*
X41510289Y-62371789D01*
X41621789Y-62260289D01*
X41709394Y-62129179D01*
X41769737Y-61983497D01*
X41800500Y-61828842D01*
X41800500Y-61671158D01*
X41800500Y-61671155D01*
X41800499Y-61671153D01*
X41769738Y-61516510D01*
X41769737Y-61516503D01*
X41732028Y-61425465D01*
X41709397Y-61370827D01*
X41709390Y-61370814D01*
X41621789Y-61239711D01*
X41621786Y-61239707D01*
X41510292Y-61128213D01*
X41510288Y-61128210D01*
X41379185Y-61040609D01*
X41379169Y-61040601D01*
X41377038Y-61039718D01*
X41376094Y-61038957D01*
X41373809Y-61037736D01*
X41374040Y-61037302D01*
X41322638Y-60995873D01*
X41300579Y-60929577D01*
X41300500Y-60925161D01*
X41300500Y-60921155D01*
X41300499Y-60921153D01*
X41269738Y-60766510D01*
X41269737Y-60766503D01*
X41257945Y-60738034D01*
X41209397Y-60620827D01*
X41209390Y-60620814D01*
X41121789Y-60489711D01*
X41121786Y-60489707D01*
X41010292Y-60378213D01*
X41010284Y-60378207D01*
X40972712Y-60353102D01*
X40927906Y-60299490D01*
X40919199Y-60230165D01*
X40949353Y-60167138D01*
X40972712Y-60146898D01*
X40999279Y-60129145D01*
X41010289Y-60121789D01*
X41121789Y-60010289D01*
X41209394Y-59879179D01*
X41269737Y-59733497D01*
X41300500Y-59578842D01*
X41300500Y-59574837D01*
X41301093Y-59572814D01*
X41301097Y-59572782D01*
X41301103Y-59572782D01*
X41320185Y-59507798D01*
X41372989Y-59462043D01*
X41376986Y-59460302D01*
X41379179Y-59459394D01*
X41510289Y-59371789D01*
X41621789Y-59260289D01*
X41709394Y-59129179D01*
X41769737Y-58983497D01*
X41800500Y-58828842D01*
X41800500Y-58671158D01*
X41800500Y-58671155D01*
X41800499Y-58671153D01*
X41769737Y-58516503D01*
X41713528Y-58380801D01*
X41709397Y-58370827D01*
X41709390Y-58370814D01*
X41640377Y-58267529D01*
X41628664Y-58250000D01*
X43000000Y-58250000D01*
X43000000Y-62750000D01*
X47791280Y-62750000D01*
X47858319Y-62769685D01*
X47904074Y-62822489D01*
X47914018Y-62891647D01*
X47913753Y-62893397D01*
X47899500Y-62983388D01*
X47899500Y-63156610D01*
X47918731Y-63278034D01*
X47926598Y-63327701D01*
X47980127Y-63492445D01*
X48058768Y-63646788D01*
X48160586Y-63786928D01*
X48283072Y-63909414D01*
X48423212Y-64011232D01*
X48577555Y-64089873D01*
X48742299Y-64143402D01*
X48913389Y-64170500D01*
X48913390Y-64170500D01*
X49086610Y-64170500D01*
X49086611Y-64170500D01*
X49257701Y-64143402D01*
X49422445Y-64089873D01*
X49576788Y-64011232D01*
X49716928Y-63909414D01*
X49839414Y-63786928D01*
X49941232Y-63646788D01*
X49974293Y-63581902D01*
X65032000Y-63581902D01*
X65032000Y-63818097D01*
X65068946Y-64051368D01*
X65141933Y-64275996D01*
X65249157Y-64486433D01*
X65387983Y-64677510D01*
X65554990Y-64844517D01*
X65589627Y-64869683D01*
X65632292Y-64925013D01*
X65638271Y-64994626D01*
X65605665Y-65056421D01*
X65589630Y-65070315D01*
X65571865Y-65083222D01*
X65554988Y-65095484D01*
X65387985Y-65262487D01*
X65387985Y-65262488D01*
X65387983Y-65262490D01*
X65368972Y-65288657D01*
X65249157Y-65453566D01*
X65141933Y-65664003D01*
X65068946Y-65888631D01*
X65032000Y-66121902D01*
X65032000Y-66358097D01*
X65068946Y-66591368D01*
X65141933Y-66815996D01*
X65190401Y-66911118D01*
X65249157Y-67026433D01*
X65387983Y-67217510D01*
X65554990Y-67384517D01*
X65589627Y-67409683D01*
X65632292Y-67465013D01*
X65638271Y-67534626D01*
X65605665Y-67596421D01*
X65589630Y-67610315D01*
X65571865Y-67623222D01*
X65554988Y-67635484D01*
X65387985Y-67802487D01*
X65387985Y-67802488D01*
X65387983Y-67802490D01*
X65328362Y-67884550D01*
X65249157Y-67993566D01*
X65141933Y-68204003D01*
X65068946Y-68428631D01*
X65032000Y-68661902D01*
X65032000Y-68898097D01*
X65068946Y-69131368D01*
X65141933Y-69355996D01*
X65249157Y-69566433D01*
X65387983Y-69757510D01*
X65387989Y-69757516D01*
X65391147Y-69761214D01*
X65389364Y-69762736D01*
X65418226Y-69815591D01*
X65413242Y-69885283D01*
X65371370Y-69941216D01*
X65362158Y-69947487D01*
X65313844Y-69977287D01*
X65189789Y-70101342D01*
X65097687Y-70250663D01*
X65097686Y-70250666D01*
X65042501Y-70417203D01*
X65042501Y-70417204D01*
X65042500Y-70417204D01*
X65032000Y-70519983D01*
X65032000Y-72120001D01*
X65032001Y-72120018D01*
X65042500Y-72222796D01*
X65042501Y-72222799D01*
X65097685Y-72389331D01*
X65097687Y-72389336D01*
X65107005Y-72404443D01*
X65189788Y-72538656D01*
X65313844Y-72662712D01*
X65463166Y-72754814D01*
X65629703Y-72809999D01*
X65732491Y-72820500D01*
X67332508Y-72820499D01*
X67435297Y-72809999D01*
X67601834Y-72754814D01*
X67751156Y-72662712D01*
X67875212Y-72538656D01*
X67967314Y-72389334D01*
X68022499Y-72222797D01*
X68033000Y-72120009D01*
X68032999Y-70519992D01*
X68022499Y-70417203D01*
X67967314Y-70250666D01*
X67875212Y-70101344D01*
X67751156Y-69977288D01*
X67751155Y-69977287D01*
X67702842Y-69947487D01*
X67656118Y-69895539D01*
X67644897Y-69826576D01*
X67672741Y-69762494D01*
X67673881Y-69761249D01*
X67673848Y-69761221D01*
X67677011Y-69757516D01*
X67677011Y-69757515D01*
X67677017Y-69757510D01*
X67815843Y-69566433D01*
X67923068Y-69355992D01*
X67996053Y-69131368D01*
X68004698Y-69076786D01*
X68033000Y-68898097D01*
X68033000Y-68661902D01*
X67996053Y-68428631D01*
X67950034Y-68287000D01*
X67923068Y-68204008D01*
X67923066Y-68204005D01*
X67923066Y-68204003D01*
X67837433Y-68035940D01*
X67815843Y-67993567D01*
X67677017Y-67802490D01*
X67510010Y-67635483D01*
X67475372Y-67610317D01*
X67432707Y-67554989D01*
X67426728Y-67485375D01*
X67459333Y-67423580D01*
X67475373Y-67409682D01*
X67481103Y-67405519D01*
X67510010Y-67384517D01*
X67677017Y-67217510D01*
X67815843Y-67026433D01*
X67923068Y-66815992D01*
X67996053Y-66591368D01*
X68004899Y-66535519D01*
X68033000Y-66358097D01*
X68033000Y-66121902D01*
X67996053Y-65888631D01*
X67923066Y-65664003D01*
X67848395Y-65517454D01*
X67815843Y-65453567D01*
X67677017Y-65262490D01*
X67510010Y-65095483D01*
X67506709Y-65093085D01*
X67475373Y-65070318D01*
X67432707Y-65014989D01*
X67426728Y-64945375D01*
X67459333Y-64883580D01*
X67475373Y-64869682D01*
X67510010Y-64844517D01*
X67677017Y-64677510D01*
X67815843Y-64486433D01*
X67923068Y-64275992D01*
X67996053Y-64051368D01*
X68002410Y-64011231D01*
X68033000Y-63818097D01*
X68033000Y-63581902D01*
X67996053Y-63348631D01*
X67924134Y-63127289D01*
X67923068Y-63124008D01*
X67923066Y-63124005D01*
X67923066Y-63124003D01*
X67851419Y-62983389D01*
X67815843Y-62913567D01*
X67677017Y-62722490D01*
X67510010Y-62555483D01*
X67318933Y-62416657D01*
X67230875Y-62371789D01*
X67108496Y-62309433D01*
X66883868Y-62236446D01*
X66650597Y-62199500D01*
X66650592Y-62199500D01*
X66414408Y-62199500D01*
X66414403Y-62199500D01*
X66181131Y-62236446D01*
X65956503Y-62309433D01*
X65746066Y-62416657D01*
X65637050Y-62495862D01*
X65554990Y-62555483D01*
X65554988Y-62555485D01*
X65554987Y-62555485D01*
X65387985Y-62722487D01*
X65387985Y-62722488D01*
X65387983Y-62722490D01*
X65328362Y-62804550D01*
X65249157Y-62913566D01*
X65141933Y-63124003D01*
X65068946Y-63348631D01*
X65032000Y-63581902D01*
X49974293Y-63581902D01*
X50019873Y-63492445D01*
X50073402Y-63327701D01*
X50100500Y-63156611D01*
X50100500Y-62983389D01*
X50097538Y-62964691D01*
X50106491Y-62895403D01*
X50132327Y-62857617D01*
X53255277Y-59734669D01*
X53326465Y-59628127D01*
X53375501Y-59509744D01*
X53400500Y-59384069D01*
X53400500Y-59254935D01*
X53420185Y-59187896D01*
X53421366Y-59186090D01*
X53459394Y-59129179D01*
X53519737Y-58983497D01*
X53533260Y-58915513D01*
X55799500Y-58915513D01*
X55799500Y-59104486D01*
X55829059Y-59291118D01*
X55887454Y-59470836D01*
X55969642Y-59632138D01*
X55973240Y-59639199D01*
X56084310Y-59792073D01*
X56217927Y-59925690D01*
X56370801Y-60036760D01*
X56450347Y-60077290D01*
X56539163Y-60122545D01*
X56539165Y-60122545D01*
X56539168Y-60122547D01*
X56614112Y-60146898D01*
X56718881Y-60180940D01*
X56905514Y-60210500D01*
X56905519Y-60210500D01*
X57094486Y-60210500D01*
X57281118Y-60180940D01*
X57460832Y-60122547D01*
X57629199Y-60036760D01*
X57782073Y-59925690D01*
X57915690Y-59792073D01*
X58026760Y-59639199D01*
X58112547Y-59470832D01*
X58170940Y-59291118D01*
X58176671Y-59254935D01*
X58200500Y-59104486D01*
X58200500Y-58915513D01*
X58170940Y-58728881D01*
X58143846Y-58645497D01*
X58112547Y-58549168D01*
X58112545Y-58549165D01*
X58112545Y-58549163D01*
X58026759Y-58380800D01*
X57999140Y-58342786D01*
X57915690Y-58227927D01*
X57782073Y-58094310D01*
X57629199Y-57983240D01*
X57592447Y-57964514D01*
X57460836Y-57897454D01*
X57281118Y-57839059D01*
X57094486Y-57809500D01*
X57094481Y-57809500D01*
X56905519Y-57809500D01*
X56905514Y-57809500D01*
X56718881Y-57839059D01*
X56539163Y-57897454D01*
X56370800Y-57983240D01*
X56359506Y-57991446D01*
X56217927Y-58094310D01*
X56217925Y-58094312D01*
X56217924Y-58094312D01*
X56084312Y-58227924D01*
X56084312Y-58227925D01*
X56084310Y-58227927D01*
X56048446Y-58277289D01*
X55973240Y-58380800D01*
X55887454Y-58549163D01*
X55829059Y-58728881D01*
X55799500Y-58915513D01*
X53533260Y-58915513D01*
X53539238Y-58885461D01*
X53550500Y-58828844D01*
X53550500Y-58671155D01*
X53550499Y-58671153D01*
X53519737Y-58516503D01*
X53463528Y-58380801D01*
X53459397Y-58370827D01*
X53459390Y-58370814D01*
X53371789Y-58239711D01*
X53371786Y-58239707D01*
X53260292Y-58128213D01*
X53260288Y-58128210D01*
X53129185Y-58040609D01*
X53129172Y-58040602D01*
X52983501Y-57980264D01*
X52983489Y-57980261D01*
X52828845Y-57949500D01*
X52828842Y-57949500D01*
X52671158Y-57949500D01*
X52671155Y-57949500D01*
X52516510Y-57980261D01*
X52516498Y-57980264D01*
X52370827Y-58040602D01*
X52370814Y-58040609D01*
X52239711Y-58128210D01*
X52239707Y-58128213D01*
X52128213Y-58239707D01*
X52128210Y-58239711D01*
X52040609Y-58370814D01*
X52040602Y-58370827D01*
X51980264Y-58516498D01*
X51980261Y-58516510D01*
X51949500Y-58671153D01*
X51949500Y-58828846D01*
X51980261Y-58983494D01*
X52003120Y-59038680D01*
X52010588Y-59108150D01*
X51979312Y-59170629D01*
X51976239Y-59173813D01*
X49212384Y-61937668D01*
X49151061Y-61971153D01*
X49105306Y-61972460D01*
X49086617Y-61969500D01*
X49086611Y-61969500D01*
X48913389Y-61969500D01*
X48873728Y-61975781D01*
X48742302Y-61996597D01*
X48577549Y-62050129D01*
X48430294Y-62125159D01*
X48361625Y-62138055D01*
X48296885Y-62111778D01*
X48256628Y-62054672D01*
X48250000Y-62014674D01*
X48250000Y-59125811D01*
X48259439Y-59078358D01*
X48269737Y-59053497D01*
X48300500Y-58898842D01*
X48300500Y-58741158D01*
X48300500Y-58741155D01*
X48300499Y-58741153D01*
X48269739Y-58586511D01*
X48269738Y-58586510D01*
X48269737Y-58586503D01*
X48259437Y-58561636D01*
X48250000Y-58514189D01*
X48250000Y-58250000D01*
X48224500Y-58250000D01*
X48157461Y-58230315D01*
X48111706Y-58177511D01*
X48100500Y-58126000D01*
X48100500Y-56620097D01*
X48120185Y-56553058D01*
X48136819Y-56532416D01*
X49212416Y-55456819D01*
X49273739Y-55423334D01*
X49300097Y-55420500D01*
X53262815Y-55420500D01*
X53268064Y-55422041D01*
X53273427Y-55420955D01*
X53301234Y-55431781D01*
X53329854Y-55440185D01*
X53334787Y-55444844D01*
X53338536Y-55446304D01*
X53363133Y-55471615D01*
X53381659Y-55497114D01*
X53405139Y-55562920D01*
X53389313Y-55630974D01*
X53381660Y-55642884D01*
X53308767Y-55743212D01*
X53230128Y-55897552D01*
X53176597Y-56062302D01*
X53149500Y-56233389D01*
X53149500Y-56406610D01*
X53169425Y-56532416D01*
X53176598Y-56577701D01*
X53230127Y-56742445D01*
X53308768Y-56896788D01*
X53410586Y-57036928D01*
X53533072Y-57159414D01*
X53673212Y-57261232D01*
X53827555Y-57339873D01*
X53992299Y-57393402D01*
X54163389Y-57420500D01*
X54163390Y-57420500D01*
X54336610Y-57420500D01*
X54336611Y-57420500D01*
X54507701Y-57393402D01*
X54672445Y-57339873D01*
X54826788Y-57261232D01*
X54966928Y-57159414D01*
X55089414Y-57036928D01*
X55191232Y-56896788D01*
X55269873Y-56742445D01*
X55323402Y-56577701D01*
X55350500Y-56406611D01*
X55350500Y-56233389D01*
X55323402Y-56062299D01*
X55269873Y-55897555D01*
X55191232Y-55743212D01*
X55118339Y-55642884D01*
X55094860Y-55577080D01*
X55110685Y-55509026D01*
X55118334Y-55497121D01*
X55191232Y-55396788D01*
X55269873Y-55242445D01*
X55323402Y-55077701D01*
X55350500Y-54906611D01*
X55350500Y-54733389D01*
X55323402Y-54562299D01*
X55269873Y-54397555D01*
X55191232Y-54243212D01*
X55089414Y-54103072D01*
X54966928Y-53980586D01*
X54826788Y-53878768D01*
X54672447Y-53800128D01*
X54672446Y-53800127D01*
X54672445Y-53800127D01*
X54507701Y-53746598D01*
X54507699Y-53746597D01*
X54507698Y-53746597D01*
X54376271Y-53725781D01*
X54336611Y-53719500D01*
X54163389Y-53719500D01*
X54123728Y-53725781D01*
X53992302Y-53746597D01*
X53827552Y-53800128D01*
X53673211Y-53878768D01*
X53604582Y-53928631D01*
X53533072Y-53980586D01*
X53533070Y-53980588D01*
X53533069Y-53980588D01*
X53410588Y-54103069D01*
X53410588Y-54103070D01*
X53410586Y-54103072D01*
X53363133Y-54168386D01*
X53307803Y-54211051D01*
X53262815Y-54219500D01*
X48920940Y-54219500D01*
X48880019Y-54230464D01*
X48880019Y-54230465D01*
X48842751Y-54240451D01*
X48768214Y-54260423D01*
X48768209Y-54260426D01*
X48631290Y-54339475D01*
X48631282Y-54339481D01*
X47019479Y-55951284D01*
X47009606Y-55968386D01*
X46996459Y-55991158D01*
X46940423Y-56088215D01*
X46899499Y-56240943D01*
X46899499Y-56240945D01*
X46899499Y-56409046D01*
X46899500Y-56409059D01*
X46899500Y-58126000D01*
X46879815Y-58193039D01*
X46827011Y-58238794D01*
X46775500Y-58250000D01*
X43000000Y-58250000D01*
X41628664Y-58250000D01*
X41621789Y-58239711D01*
X41621786Y-58239707D01*
X41510292Y-58128213D01*
X41510288Y-58128210D01*
X41379185Y-58040609D01*
X41379172Y-58040602D01*
X41233501Y-57980264D01*
X41233489Y-57980261D01*
X41078845Y-57949500D01*
X41078842Y-57949500D01*
X40921158Y-57949500D01*
X40921155Y-57949500D01*
X40766510Y-57980261D01*
X40766498Y-57980264D01*
X40620827Y-58040602D01*
X40620814Y-58040609D01*
X40489711Y-58128210D01*
X40489707Y-58128213D01*
X40462681Y-58155240D01*
X40401358Y-58188725D01*
X40331666Y-58183741D01*
X40287319Y-58155240D01*
X40260292Y-58128213D01*
X40260288Y-58128210D01*
X40129185Y-58040609D01*
X40129172Y-58040602D01*
X39983501Y-57980264D01*
X39983489Y-57980261D01*
X39828845Y-57949500D01*
X39828842Y-57949500D01*
X39671158Y-57949500D01*
X39671155Y-57949500D01*
X39516510Y-57980261D01*
X39516498Y-57980264D01*
X39370827Y-58040602D01*
X39370814Y-58040609D01*
X39239711Y-58128210D01*
X39239707Y-58128213D01*
X39128213Y-58239707D01*
X39103102Y-58277289D01*
X39049489Y-58322093D01*
X38980164Y-58330800D01*
X38917137Y-58300645D01*
X38896898Y-58277289D01*
X38878664Y-58250000D01*
X38871789Y-58239711D01*
X38871788Y-58239710D01*
X38871786Y-58239707D01*
X38760292Y-58128213D01*
X38760288Y-58128210D01*
X38629185Y-58040609D01*
X38629172Y-58040602D01*
X38483501Y-57980264D01*
X38483489Y-57980261D01*
X38328845Y-57949500D01*
X38328842Y-57949500D01*
X38171158Y-57949500D01*
X38171155Y-57949500D01*
X38016510Y-57980261D01*
X38016498Y-57980264D01*
X37870827Y-58040602D01*
X37870814Y-58040609D01*
X37739711Y-58128210D01*
X37739707Y-58128213D01*
X37628213Y-58239707D01*
X37603102Y-58277289D01*
X37549489Y-58322093D01*
X37480164Y-58330800D01*
X37417137Y-58300645D01*
X37396898Y-58277289D01*
X37378664Y-58250000D01*
X37371789Y-58239711D01*
X37371788Y-58239710D01*
X37371786Y-58239707D01*
X37260292Y-58128213D01*
X37260288Y-58128210D01*
X37129185Y-58040609D01*
X37129172Y-58040602D01*
X36983501Y-57980264D01*
X36983489Y-57980261D01*
X36828845Y-57949500D01*
X36828842Y-57949500D01*
X36671158Y-57949500D01*
X36671155Y-57949500D01*
X36516510Y-57980261D01*
X36516498Y-57980264D01*
X36370827Y-58040602D01*
X36370814Y-58040609D01*
X36239711Y-58128210D01*
X36239707Y-58128213D01*
X36128213Y-58239707D01*
X36128210Y-58239711D01*
X36040609Y-58370814D01*
X36040602Y-58370827D01*
X35980264Y-58516498D01*
X35980261Y-58516510D01*
X35949500Y-58671153D01*
X31445219Y-58671153D01*
X31423037Y-58627620D01*
X31362287Y-58508390D01*
X31333562Y-58468853D01*
X31241971Y-58342786D01*
X31097213Y-58198028D01*
X30931614Y-58077715D01*
X30858789Y-58040609D01*
X30838917Y-58030483D01*
X30788123Y-57982511D01*
X30771328Y-57914690D01*
X30793865Y-57848555D01*
X30838917Y-57809516D01*
X30931610Y-57762287D01*
X31079786Y-57654632D01*
X31097213Y-57641971D01*
X31097215Y-57641968D01*
X31097219Y-57641966D01*
X31241966Y-57497219D01*
X31241968Y-57497215D01*
X31241971Y-57497213D01*
X31317393Y-57393402D01*
X31362287Y-57331610D01*
X31455220Y-57149219D01*
X31518477Y-56954534D01*
X31550500Y-56752352D01*
X31550500Y-56547648D01*
X31528162Y-56406611D01*
X31518477Y-56345465D01*
X31455218Y-56150776D01*
X31396131Y-56034812D01*
X31373888Y-55991159D01*
X31369929Y-55983389D01*
X42399500Y-55983389D01*
X42399500Y-56156610D01*
X42413341Y-56244003D01*
X42426598Y-56327701D01*
X42480127Y-56492445D01*
X42558768Y-56646788D01*
X42660586Y-56786928D01*
X42783072Y-56909414D01*
X42923212Y-57011232D01*
X43077555Y-57089873D01*
X43242299Y-57143402D01*
X43413389Y-57170500D01*
X43413390Y-57170500D01*
X43586610Y-57170500D01*
X43586611Y-57170500D01*
X43757701Y-57143402D01*
X43922445Y-57089873D01*
X44076788Y-57011232D01*
X44216928Y-56909414D01*
X44339414Y-56786928D01*
X44441232Y-56646788D01*
X44519873Y-56492445D01*
X44573402Y-56327701D01*
X44600500Y-56156611D01*
X44600500Y-55983389D01*
X44573402Y-55812299D01*
X44519873Y-55647555D01*
X44441232Y-55493212D01*
X44339414Y-55353072D01*
X44216928Y-55230586D01*
X44076788Y-55128768D01*
X44024186Y-55101966D01*
X43922447Y-55050128D01*
X43922446Y-55050127D01*
X43922445Y-55050127D01*
X43757701Y-54996598D01*
X43757699Y-54996597D01*
X43757698Y-54996597D01*
X43626271Y-54975781D01*
X43586611Y-54969500D01*
X43413389Y-54969500D01*
X43373728Y-54975781D01*
X43242302Y-54996597D01*
X43077552Y-55050128D01*
X42923211Y-55128768D01*
X42879692Y-55160387D01*
X42783072Y-55230586D01*
X42783070Y-55230588D01*
X42783069Y-55230588D01*
X42660588Y-55353069D01*
X42660588Y-55353070D01*
X42660586Y-55353072D01*
X42616859Y-55413256D01*
X42558768Y-55493211D01*
X42480128Y-55647552D01*
X42480127Y-55647554D01*
X42480127Y-55647555D01*
X42476724Y-55658028D01*
X42426597Y-55812302D01*
X42399500Y-55983389D01*
X31369929Y-55983389D01*
X31362287Y-55968390D01*
X31310821Y-55897552D01*
X31241971Y-55802786D01*
X31097213Y-55658028D01*
X30931614Y-55537715D01*
X30907395Y-55525375D01*
X30838917Y-55490483D01*
X30788123Y-55442511D01*
X30771328Y-55374690D01*
X30793865Y-55308555D01*
X30838917Y-55269516D01*
X30931610Y-55222287D01*
X31016809Y-55160387D01*
X31097213Y-55101971D01*
X31097215Y-55101968D01*
X31097219Y-55101966D01*
X31241966Y-54957219D01*
X31241968Y-54957215D01*
X31241971Y-54957213D01*
X31315511Y-54855992D01*
X31362287Y-54791610D01*
X31455220Y-54609219D01*
X31518477Y-54414534D01*
X31550500Y-54212352D01*
X31550500Y-54007648D01*
X31518477Y-53805466D01*
X31516742Y-53800127D01*
X31455218Y-53610776D01*
X31395496Y-53493567D01*
X31362287Y-53428390D01*
X31354556Y-53417749D01*
X31241971Y-53262786D01*
X31097213Y-53118028D01*
X30931614Y-52997715D01*
X30921522Y-52992573D01*
X30838917Y-52950483D01*
X30788123Y-52902511D01*
X30771328Y-52834690D01*
X30793865Y-52768555D01*
X30838917Y-52729516D01*
X30931610Y-52682287D01*
X31079786Y-52574632D01*
X31097213Y-52561971D01*
X31097215Y-52561968D01*
X31097219Y-52561966D01*
X31241966Y-52417219D01*
X31241968Y-52417215D01*
X31241971Y-52417213D01*
X31294732Y-52344590D01*
X31362287Y-52251610D01*
X31455220Y-52069219D01*
X31518477Y-51874534D01*
X31550500Y-51672352D01*
X31550500Y-51467648D01*
X31518477Y-51265466D01*
X31455220Y-51070781D01*
X31455218Y-51070778D01*
X31455218Y-51070776D01*
X31421503Y-51004607D01*
X31362287Y-50888390D01*
X31354556Y-50877749D01*
X31241971Y-50722786D01*
X31097213Y-50578028D01*
X30931614Y-50457715D01*
X30921522Y-50452573D01*
X30838917Y-50410483D01*
X30788123Y-50362511D01*
X30771328Y-50294690D01*
X30793865Y-50228555D01*
X30838917Y-50189516D01*
X30931610Y-50142287D01*
X31079786Y-50034632D01*
X31097213Y-50021971D01*
X31097215Y-50021968D01*
X31097219Y-50021966D01*
X31241966Y-49877219D01*
X31241968Y-49877215D01*
X31241971Y-49877213D01*
X31294732Y-49804590D01*
X31362287Y-49711610D01*
X31455220Y-49529219D01*
X31518477Y-49334534D01*
X31550500Y-49132352D01*
X31550500Y-48927648D01*
X31518477Y-48725466D01*
X31455220Y-48530781D01*
X31455218Y-48530778D01*
X31455218Y-48530776D01*
X31412945Y-48447812D01*
X31362287Y-48348390D01*
X31340384Y-48318243D01*
X31241971Y-48182786D01*
X31097213Y-48038028D01*
X30931613Y-47917715D01*
X30931612Y-47917714D01*
X30931610Y-47917713D01*
X30874653Y-47888691D01*
X30749223Y-47824781D01*
X30554534Y-47761522D01*
X30379995Y-47733878D01*
X30352352Y-47729500D01*
X30147648Y-47729500D01*
X30123329Y-47733351D01*
X29945465Y-47761522D01*
X29750776Y-47824781D01*
X29568386Y-47917715D01*
X29402786Y-48038028D01*
X29258028Y-48182786D01*
X29137715Y-48348386D01*
X29044781Y-48530776D01*
X28981522Y-48725465D01*
X28949500Y-48927648D01*
X27900500Y-48927648D01*
X27900500Y-47270807D01*
X27920185Y-47203768D01*
X27936814Y-47183131D01*
X29862809Y-45257135D01*
X29924130Y-45223652D01*
X29969886Y-45222345D01*
X29988613Y-45225311D01*
X30147648Y-45250500D01*
X30147649Y-45250500D01*
X30352351Y-45250500D01*
X30352352Y-45250500D01*
X30554534Y-45218477D01*
X30749219Y-45155220D01*
X30931610Y-45062287D01*
X31079786Y-44954632D01*
X31097213Y-44941971D01*
X31097215Y-44941968D01*
X31097219Y-44941966D01*
X31241966Y-44797219D01*
X31241968Y-44797215D01*
X31241971Y-44797213D01*
X31362286Y-44631612D01*
X31367233Y-44621902D01*
X31378348Y-44600087D01*
X31426320Y-44549292D01*
X31494140Y-44532495D01*
X31560276Y-44555031D01*
X31576514Y-44568700D01*
X34763084Y-47755271D01*
X34763087Y-47755274D01*
X34763090Y-47755276D01*
X34867111Y-47824780D01*
X34867114Y-47824782D01*
X34867113Y-47824782D01*
X34868372Y-47825622D01*
X34869633Y-47826465D01*
X34988016Y-47875501D01*
X34988020Y-47875501D01*
X34988021Y-47875502D01*
X35113688Y-47900500D01*
X35113691Y-47900500D01*
X52643641Y-47900500D01*
X52710680Y-47920185D01*
X52754126Y-47968205D01*
X52762187Y-47984026D01*
X52891752Y-48162358D01*
X52891756Y-48162363D01*
X53047636Y-48318243D01*
X53047641Y-48318247D01*
X53089130Y-48348390D01*
X53225978Y-48447815D01*
X53354375Y-48513237D01*
X53422393Y-48547895D01*
X53422396Y-48547896D01*
X53527221Y-48581955D01*
X53632049Y-48616015D01*
X53849778Y-48650500D01*
X53849779Y-48650500D01*
X54070221Y-48650500D01*
X54070222Y-48650500D01*
X54287951Y-48616015D01*
X54497606Y-48547895D01*
X54694022Y-48447815D01*
X54872365Y-48318242D01*
X55028242Y-48162365D01*
X55157815Y-47984022D01*
X55257895Y-47787606D01*
X55326015Y-47577951D01*
X55360500Y-47360222D01*
X55360500Y-47139778D01*
X55326015Y-46922049D01*
X55291955Y-46817221D01*
X55257896Y-46712396D01*
X55257895Y-46712393D01*
X55191756Y-46582591D01*
X55157815Y-46515978D01*
X55084952Y-46415690D01*
X55028247Y-46337641D01*
X55028243Y-46337636D01*
X54872363Y-46181756D01*
X54872358Y-46181752D01*
X54694025Y-46052187D01*
X54694024Y-46052186D01*
X54694022Y-46052185D01*
X54611230Y-46010000D01*
X54497606Y-45952104D01*
X54497603Y-45952103D01*
X54287952Y-45883985D01*
X54179086Y-45866742D01*
X54070222Y-45849500D01*
X53849778Y-45849500D01*
X53777201Y-45860995D01*
X53632047Y-45883985D01*
X53422396Y-45952103D01*
X53422393Y-45952104D01*
X53225974Y-46052187D01*
X53047641Y-46181752D01*
X53047636Y-46181756D01*
X52891756Y-46337636D01*
X52891752Y-46337641D01*
X52762187Y-46515973D01*
X52754126Y-46531795D01*
X52706152Y-46582591D01*
X52643641Y-46599500D01*
X46207625Y-46599500D01*
X46140586Y-46579815D01*
X46094831Y-46527011D01*
X46084887Y-46457853D01*
X46113912Y-46394297D01*
X46119944Y-46387819D01*
X46170128Y-46337635D01*
X46225690Y-46282073D01*
X46336760Y-46129199D01*
X46422547Y-45960832D01*
X46480940Y-45781118D01*
X46491014Y-45717511D01*
X46510500Y-45594486D01*
X46510500Y-45405513D01*
X46480940Y-45218881D01*
X46435801Y-45079959D01*
X46422547Y-45039168D01*
X46422545Y-45039165D01*
X46422545Y-45039163D01*
X46336759Y-44870800D01*
X46327526Y-44858092D01*
X46225690Y-44717927D01*
X46092073Y-44584310D01*
X45942058Y-44475317D01*
X45899394Y-44419988D01*
X45893415Y-44350374D01*
X45926021Y-44288579D01*
X45942059Y-44274682D01*
X45969790Y-44254534D01*
X46092073Y-44165690D01*
X46225690Y-44032073D01*
X46336760Y-43879199D01*
X46422547Y-43710832D01*
X46480940Y-43531118D01*
X46488399Y-43484022D01*
X46510500Y-43344486D01*
X46510500Y-43155513D01*
X46480940Y-42968881D01*
X46438321Y-42837715D01*
X46422547Y-42789168D01*
X46422545Y-42789165D01*
X46422545Y-42789163D01*
X46336759Y-42620800D01*
X46332705Y-42615220D01*
X46225690Y-42467927D01*
X46092073Y-42334310D01*
X45939199Y-42223240D01*
X45770836Y-42137454D01*
X45591118Y-42079059D01*
X45404486Y-42049500D01*
X45404481Y-42049500D01*
X45215519Y-42049500D01*
X45215514Y-42049500D01*
X45028881Y-42079059D01*
X44849163Y-42137454D01*
X44680800Y-42223240D01*
X44634041Y-42257213D01*
X44527927Y-42334310D01*
X44527925Y-42334312D01*
X44527924Y-42334312D01*
X44394312Y-42467924D01*
X44394312Y-42467925D01*
X44394310Y-42467927D01*
X44354817Y-42522284D01*
X44283240Y-42620800D01*
X44197454Y-42789163D01*
X44139059Y-42968881D01*
X44109500Y-43155513D01*
X44109500Y-43344486D01*
X44139059Y-43531118D01*
X44197454Y-43710836D01*
X44267164Y-43847648D01*
X44283240Y-43879199D01*
X44394310Y-44032073D01*
X44527927Y-44165690D01*
X44596573Y-44215564D01*
X44677940Y-44274682D01*
X44720605Y-44330013D01*
X44726584Y-44399626D01*
X44693978Y-44461421D01*
X44677940Y-44475318D01*
X44527925Y-44584311D01*
X44394312Y-44717924D01*
X44394312Y-44717925D01*
X44394310Y-44717927D01*
X44354235Y-44773085D01*
X44283240Y-44870800D01*
X44197454Y-45039163D01*
X44139059Y-45218881D01*
X44109500Y-45405513D01*
X44109500Y-45594486D01*
X44139059Y-45781118D01*
X44197454Y-45960836D01*
X44245428Y-46054989D01*
X44283240Y-46129199D01*
X44394310Y-46282073D01*
X44394312Y-46282075D01*
X44500056Y-46387819D01*
X44533541Y-46449142D01*
X44528557Y-46518834D01*
X44486685Y-46574767D01*
X44421221Y-46599184D01*
X44412375Y-46599500D01*
X38587625Y-46599500D01*
X38520586Y-46579815D01*
X38474831Y-46527011D01*
X38464887Y-46457853D01*
X38493912Y-46394297D01*
X38499944Y-46387819D01*
X38550128Y-46337635D01*
X38605690Y-46282073D01*
X38716760Y-46129199D01*
X38802547Y-45960832D01*
X38860940Y-45781118D01*
X38871014Y-45717511D01*
X38890500Y-45594486D01*
X38890500Y-45405513D01*
X38860940Y-45218881D01*
X38815801Y-45079959D01*
X38802547Y-45039168D01*
X38802545Y-45039165D01*
X38802545Y-45039163D01*
X38716759Y-44870800D01*
X38707526Y-44858092D01*
X38605690Y-44717927D01*
X38472073Y-44584310D01*
X38322058Y-44475317D01*
X38279394Y-44419988D01*
X38273415Y-44350374D01*
X38306021Y-44288579D01*
X38322059Y-44274682D01*
X38349790Y-44254534D01*
X38472073Y-44165690D01*
X38605690Y-44032073D01*
X38716760Y-43879199D01*
X38802547Y-43710832D01*
X38860940Y-43531118D01*
X38868399Y-43484022D01*
X38890500Y-43344486D01*
X38890500Y-43155513D01*
X38860940Y-42968881D01*
X38818321Y-42837715D01*
X38802547Y-42789168D01*
X38802545Y-42789165D01*
X38802545Y-42789163D01*
X38716759Y-42620800D01*
X38712705Y-42615220D01*
X38605690Y-42467927D01*
X38472073Y-42334310D01*
X38319199Y-42223240D01*
X38150836Y-42137454D01*
X37971118Y-42079059D01*
X37784486Y-42049500D01*
X37784481Y-42049500D01*
X37595519Y-42049500D01*
X37595514Y-42049500D01*
X37408881Y-42079059D01*
X37229163Y-42137454D01*
X37060800Y-42223240D01*
X37014041Y-42257213D01*
X36907927Y-42334310D01*
X36907925Y-42334312D01*
X36907924Y-42334312D01*
X36774312Y-42467924D01*
X36774312Y-42467925D01*
X36774310Y-42467927D01*
X36734817Y-42522284D01*
X36663240Y-42620800D01*
X36577454Y-42789163D01*
X36519059Y-42968881D01*
X36489500Y-43155513D01*
X36489500Y-43344486D01*
X36519059Y-43531118D01*
X36577454Y-43710836D01*
X36647164Y-43847648D01*
X36663240Y-43879199D01*
X36774310Y-44032073D01*
X36907927Y-44165690D01*
X36976573Y-44215564D01*
X37057940Y-44274682D01*
X37100605Y-44330013D01*
X37106584Y-44399626D01*
X37073978Y-44461421D01*
X37057940Y-44475318D01*
X36907925Y-44584311D01*
X36774312Y-44717924D01*
X36774312Y-44717925D01*
X36774310Y-44717927D01*
X36734235Y-44773085D01*
X36663240Y-44870800D01*
X36577454Y-45039163D01*
X36519059Y-45218881D01*
X36489500Y-45405513D01*
X36489500Y-45594486D01*
X36519059Y-45781118D01*
X36577454Y-45960836D01*
X36625428Y-46054989D01*
X36663240Y-46129199D01*
X36774310Y-46282073D01*
X36774312Y-46282075D01*
X36880056Y-46387819D01*
X36913541Y-46449142D01*
X36908557Y-46518834D01*
X36866685Y-46574767D01*
X36801221Y-46599184D01*
X36792375Y-46599500D01*
X35498568Y-46599500D01*
X35431529Y-46579815D01*
X35410887Y-46563181D01*
X31259185Y-42411479D01*
X31225700Y-42350156D01*
X31230684Y-42280464D01*
X31246548Y-42250913D01*
X31288139Y-42193666D01*
X31362287Y-42091610D01*
X31455220Y-41909219D01*
X31518477Y-41714534D01*
X31550500Y-41512352D01*
X31550500Y-41307648D01*
X31528881Y-41171153D01*
X46699500Y-41171153D01*
X46699500Y-41328846D01*
X46730261Y-41483489D01*
X46730264Y-41483501D01*
X46790602Y-41629172D01*
X46790609Y-41629185D01*
X46878210Y-41760288D01*
X46878213Y-41760292D01*
X46989707Y-41871786D01*
X46989711Y-41871789D01*
X47120814Y-41959390D01*
X47120827Y-41959397D01*
X47208230Y-41995599D01*
X47266503Y-42019737D01*
X47333580Y-42033079D01*
X47395488Y-42065461D01*
X47397068Y-42067014D01*
X48585324Y-43255271D01*
X48585327Y-43255274D01*
X48585330Y-43255276D01*
X48633716Y-43287606D01*
X48691873Y-43326465D01*
X48810256Y-43375501D01*
X48810260Y-43375501D01*
X48810261Y-43375502D01*
X48935928Y-43400500D01*
X48935931Y-43400500D01*
X52643641Y-43400500D01*
X52710680Y-43420185D01*
X52754126Y-43468205D01*
X52762187Y-43484026D01*
X52891752Y-43662358D01*
X52891756Y-43662363D01*
X53047636Y-43818243D01*
X53047641Y-43818247D01*
X53203192Y-43931260D01*
X53225978Y-43947815D01*
X53354375Y-44013237D01*
X53422393Y-44047895D01*
X53422396Y-44047896D01*
X53436111Y-44052352D01*
X53632049Y-44116015D01*
X53849778Y-44150500D01*
X53849779Y-44150500D01*
X54070221Y-44150500D01*
X54070222Y-44150500D01*
X54287951Y-44116015D01*
X54497606Y-44047895D01*
X54694022Y-43947815D01*
X54872365Y-43818242D01*
X55028242Y-43662365D01*
X55157815Y-43484022D01*
X55257895Y-43287606D01*
X55326015Y-43077951D01*
X55360500Y-42860222D01*
X55360500Y-42639778D01*
X55326015Y-42422049D01*
X55280012Y-42280464D01*
X55257896Y-42212396D01*
X55257895Y-42212393D01*
X55196353Y-42091613D01*
X55157815Y-42015978D01*
X55116702Y-41959390D01*
X55028247Y-41837641D01*
X55028243Y-41837636D01*
X54872363Y-41681756D01*
X54872358Y-41681752D01*
X54694025Y-41552187D01*
X54694024Y-41552186D01*
X54694022Y-41552185D01*
X54615844Y-41512351D01*
X54497606Y-41452104D01*
X54497603Y-41452103D01*
X54287952Y-41383985D01*
X54179086Y-41366742D01*
X54070222Y-41349500D01*
X53849778Y-41349500D01*
X53777201Y-41360995D01*
X53632047Y-41383985D01*
X53422396Y-41452103D01*
X53422393Y-41452104D01*
X53225974Y-41552187D01*
X53047641Y-41681752D01*
X53047636Y-41681756D01*
X52891756Y-41837636D01*
X52891752Y-41837641D01*
X52762187Y-42015973D01*
X52754126Y-42031795D01*
X52706152Y-42082591D01*
X52643641Y-42099500D01*
X49320808Y-42099500D01*
X49253769Y-42079815D01*
X49233127Y-42063181D01*
X48317015Y-41147069D01*
X48283530Y-41085746D01*
X48283093Y-41083652D01*
X48269737Y-41016503D01*
X48225944Y-40910776D01*
X48209397Y-40870827D01*
X48209390Y-40870814D01*
X48121789Y-40739711D01*
X48121786Y-40739707D01*
X48010292Y-40628213D01*
X48010288Y-40628210D01*
X47879185Y-40540609D01*
X47879172Y-40540602D01*
X47733501Y-40480264D01*
X47733489Y-40480261D01*
X47578845Y-40449500D01*
X47578842Y-40449500D01*
X47421158Y-40449500D01*
X47421155Y-40449500D01*
X47266510Y-40480261D01*
X47266498Y-40480264D01*
X47120827Y-40540602D01*
X47120814Y-40540609D01*
X46989711Y-40628210D01*
X46989707Y-40628213D01*
X46878213Y-40739707D01*
X46878210Y-40739711D01*
X46790609Y-40870814D01*
X46790602Y-40870827D01*
X46730264Y-41016498D01*
X46730261Y-41016510D01*
X46699500Y-41171153D01*
X31528881Y-41171153D01*
X31518477Y-41105466D01*
X31455220Y-40910781D01*
X31455218Y-40910778D01*
X31455218Y-40910776D01*
X31421503Y-40844607D01*
X31362287Y-40728390D01*
X31354556Y-40717749D01*
X31241971Y-40562786D01*
X31097213Y-40418028D01*
X30931614Y-40297715D01*
X30921522Y-40292573D01*
X30838917Y-40250483D01*
X30788123Y-40202511D01*
X30771328Y-40134690D01*
X30793865Y-40068555D01*
X30838917Y-40029516D01*
X30931610Y-39982287D01*
X31079786Y-39874632D01*
X31097213Y-39861971D01*
X31097215Y-39861968D01*
X31097219Y-39861966D01*
X31241966Y-39717219D01*
X31241968Y-39717215D01*
X31241971Y-39717213D01*
X31294732Y-39644590D01*
X31362287Y-39551610D01*
X31455220Y-39369219D01*
X31518477Y-39174534D01*
X31550500Y-38972352D01*
X31550500Y-38767648D01*
X31518477Y-38565466D01*
X31455220Y-38370781D01*
X31455218Y-38370778D01*
X31455218Y-38370776D01*
X31375750Y-38214812D01*
X31375749Y-38214810D01*
X31362286Y-38188388D01*
X31344123Y-38163389D01*
X39649500Y-38163389D01*
X39649500Y-38336611D01*
X39676598Y-38507701D01*
X39730127Y-38672445D01*
X39808768Y-38826788D01*
X39910586Y-38966928D01*
X40033072Y-39089414D01*
X40173212Y-39191232D01*
X40327555Y-39269873D01*
X40492299Y-39323402D01*
X40663389Y-39350500D01*
X40663390Y-39350500D01*
X40836610Y-39350500D01*
X40836611Y-39350500D01*
X41007701Y-39323402D01*
X41172445Y-39269873D01*
X41326788Y-39191232D01*
X41466928Y-39089414D01*
X41589414Y-38966928D01*
X41691232Y-38826788D01*
X41769873Y-38672445D01*
X41823402Y-38507701D01*
X41850500Y-38336611D01*
X41850500Y-38163389D01*
X44399500Y-38163389D01*
X44399500Y-38336611D01*
X44426598Y-38507701D01*
X44480127Y-38672445D01*
X44558768Y-38826788D01*
X44660586Y-38966928D01*
X44783072Y-39089414D01*
X44923212Y-39191232D01*
X45077555Y-39269873D01*
X45242299Y-39323402D01*
X45413389Y-39350500D01*
X45413390Y-39350500D01*
X45586610Y-39350500D01*
X45586611Y-39350500D01*
X45757701Y-39323402D01*
X45922445Y-39269873D01*
X46076788Y-39191232D01*
X46216928Y-39089414D01*
X46339414Y-38966928D01*
X46441232Y-38826788D01*
X46519873Y-38672445D01*
X46573402Y-38507701D01*
X46600500Y-38336611D01*
X46600500Y-38163389D01*
X46573402Y-37992299D01*
X46519873Y-37827555D01*
X46441232Y-37673212D01*
X46339414Y-37533072D01*
X46216928Y-37410586D01*
X46076788Y-37308768D01*
X45922445Y-37230127D01*
X45757701Y-37176598D01*
X45757699Y-37176597D01*
X45757698Y-37176597D01*
X45626271Y-37155781D01*
X45586611Y-37149500D01*
X45413389Y-37149500D01*
X45373728Y-37155781D01*
X45242302Y-37176597D01*
X45077552Y-37230128D01*
X44923211Y-37308768D01*
X44843256Y-37366859D01*
X44783072Y-37410586D01*
X44783070Y-37410588D01*
X44783069Y-37410588D01*
X44660588Y-37533069D01*
X44660588Y-37533070D01*
X44660586Y-37533072D01*
X44616859Y-37593256D01*
X44558768Y-37673211D01*
X44480128Y-37827552D01*
X44426597Y-37992302D01*
X44399500Y-38163389D01*
X41850500Y-38163389D01*
X41823402Y-37992299D01*
X41769873Y-37827555D01*
X41691232Y-37673212D01*
X41589414Y-37533072D01*
X41466928Y-37410586D01*
X41326788Y-37308768D01*
X41172445Y-37230127D01*
X41007701Y-37176598D01*
X41007699Y-37176597D01*
X41007698Y-37176597D01*
X40876271Y-37155781D01*
X40836611Y-37149500D01*
X40663389Y-37149500D01*
X40623728Y-37155781D01*
X40492302Y-37176597D01*
X40327552Y-37230128D01*
X40173211Y-37308768D01*
X40093256Y-37366859D01*
X40033072Y-37410586D01*
X40033070Y-37410588D01*
X40033069Y-37410588D01*
X39910588Y-37533069D01*
X39910588Y-37533070D01*
X39910586Y-37533072D01*
X39866859Y-37593256D01*
X39808768Y-37673211D01*
X39730128Y-37827552D01*
X39676597Y-37992302D01*
X39649500Y-38163389D01*
X31344123Y-38163389D01*
X31241971Y-38022786D01*
X31097213Y-37878028D01*
X30931614Y-37757715D01*
X30921522Y-37752573D01*
X30838917Y-37710483D01*
X30788123Y-37662511D01*
X30771328Y-37594690D01*
X30793865Y-37528555D01*
X30838917Y-37489516D01*
X30931610Y-37442287D01*
X31079786Y-37334632D01*
X31097213Y-37321971D01*
X31097215Y-37321968D01*
X31097219Y-37321966D01*
X31241966Y-37177219D01*
X31241968Y-37177215D01*
X31241971Y-37177213D01*
X31322033Y-37067015D01*
X31362287Y-37011610D01*
X31455220Y-36829219D01*
X31518477Y-36634534D01*
X31550500Y-36432352D01*
X31550500Y-36227648D01*
X31518477Y-36025466D01*
X31515563Y-36016499D01*
X31468230Y-35870821D01*
X31455220Y-35830781D01*
X31455218Y-35830778D01*
X31455218Y-35830776D01*
X31425165Y-35771795D01*
X31412269Y-35703126D01*
X31438545Y-35638386D01*
X31495651Y-35598128D01*
X31535650Y-35591500D01*
X32373071Y-35591500D01*
X32457615Y-35574682D01*
X32498744Y-35566501D01*
X32617127Y-35517465D01*
X32723669Y-35446277D01*
X34581127Y-33588819D01*
X34642450Y-33555334D01*
X34668808Y-33552500D01*
X36667924Y-33552500D01*
X36734963Y-33572185D01*
X36780718Y-33624989D01*
X36790662Y-33694147D01*
X36778409Y-33732794D01*
X36730129Y-33827549D01*
X36676597Y-33992302D01*
X36649500Y-34163389D01*
X36649500Y-34336610D01*
X36670140Y-34466930D01*
X36676598Y-34507701D01*
X36730127Y-34672445D01*
X36808768Y-34826788D01*
X36910586Y-34966928D01*
X37033072Y-35089414D01*
X37173212Y-35191232D01*
X37327555Y-35269873D01*
X37492299Y-35323402D01*
X37663389Y-35350500D01*
X37663390Y-35350500D01*
X37836610Y-35350500D01*
X37836611Y-35350500D01*
X38007701Y-35323402D01*
X38172445Y-35269873D01*
X38326788Y-35191232D01*
X38466928Y-35089414D01*
X38589414Y-34966928D01*
X38691232Y-34826788D01*
X38769873Y-34672445D01*
X38823402Y-34507701D01*
X38850500Y-34336611D01*
X38850500Y-34163389D01*
X38823402Y-33992299D01*
X38769873Y-33827555D01*
X38745388Y-33779500D01*
X38721591Y-33732794D01*
X38708695Y-33664125D01*
X38734972Y-33599385D01*
X38792078Y-33559128D01*
X38832076Y-33552500D01*
X44412071Y-33552500D01*
X44496615Y-33535682D01*
X44537744Y-33527501D01*
X44656127Y-33478465D01*
X44762669Y-33407277D01*
X45079328Y-33090616D01*
X45140647Y-33057134D01*
X45210339Y-33062118D01*
X45266273Y-33103989D01*
X45290690Y-33169453D01*
X45277491Y-33234594D01*
X45230129Y-33327549D01*
X45176597Y-33492302D01*
X45149500Y-33663389D01*
X45149500Y-33836610D01*
X45174848Y-33996657D01*
X45176598Y-34007701D01*
X45222461Y-34148853D01*
X45230128Y-34172447D01*
X45296386Y-34302487D01*
X45308768Y-34326788D01*
X45410586Y-34466928D01*
X45533072Y-34589414D01*
X45673212Y-34691232D01*
X45827555Y-34769873D01*
X45992299Y-34823402D01*
X46163389Y-34850500D01*
X46163390Y-34850500D01*
X46336610Y-34850500D01*
X46336611Y-34850500D01*
X46507701Y-34823402D01*
X46672445Y-34769873D01*
X46826788Y-34691232D01*
X46966928Y-34589414D01*
X47089414Y-34466928D01*
X47191232Y-34326788D01*
X47269873Y-34172445D01*
X47323402Y-34007701D01*
X47350500Y-33836611D01*
X47350500Y-33663389D01*
X47323402Y-33492299D01*
X47269873Y-33327555D01*
X47191232Y-33173212D01*
X47089414Y-33033072D01*
X46966928Y-32910586D01*
X46826788Y-32808768D01*
X46672445Y-32730127D01*
X46507701Y-32676598D01*
X46507699Y-32676597D01*
X46507698Y-32676597D01*
X46376271Y-32655781D01*
X46336611Y-32649500D01*
X46163389Y-32649500D01*
X46131192Y-32654599D01*
X45992301Y-32676597D01*
X45992297Y-32676598D01*
X45898511Y-32707071D01*
X45828670Y-32709066D01*
X45768838Y-32672985D01*
X45738010Y-32610284D01*
X45745632Y-32541690D01*
X45769737Y-32483497D01*
X45800500Y-32328842D01*
X45800500Y-32171158D01*
X45800500Y-32171155D01*
X45800499Y-32171153D01*
X45769737Y-32016503D01*
X45709394Y-31870821D01*
X45674694Y-31818889D01*
X45653816Y-31752215D01*
X45672300Y-31684835D01*
X45674676Y-31681136D01*
X45709394Y-31629179D01*
X45769737Y-31483497D01*
X45800500Y-31328842D01*
X45800500Y-31171158D01*
X45800500Y-31171155D01*
X45800499Y-31171153D01*
X45769737Y-31016503D01*
X45740313Y-30945466D01*
X45730159Y-30920952D01*
X45722690Y-30851483D01*
X45753965Y-30789004D01*
X45814054Y-30753352D01*
X45844720Y-30749500D01*
X47528192Y-30749500D01*
X47595231Y-30769185D01*
X47615873Y-30785819D01*
X63813181Y-46983127D01*
X63846666Y-47044450D01*
X63849500Y-47070808D01*
X63849500Y-54884069D01*
X63864051Y-54957219D01*
X63874499Y-55009744D01*
X63923535Y-55128127D01*
X63994723Y-55234669D01*
X63994726Y-55234673D01*
X63994727Y-55234674D01*
X65029859Y-56269804D01*
X65063344Y-56331127D01*
X65060110Y-56395801D01*
X65036446Y-56468632D01*
X64999500Y-56701902D01*
X64999500Y-56938097D01*
X65036446Y-57171368D01*
X65109433Y-57395996D01*
X65216657Y-57606433D01*
X65355483Y-57797510D01*
X65522490Y-57964517D01*
X65713567Y-58103343D01*
X65766746Y-58130439D01*
X65924003Y-58210566D01*
X65924005Y-58210566D01*
X65924008Y-58210568D01*
X66013701Y-58239711D01*
X66148631Y-58283553D01*
X66381903Y-58320500D01*
X66381908Y-58320500D01*
X66618097Y-58320500D01*
X66851368Y-58283553D01*
X67075992Y-58210568D01*
X67286433Y-58103343D01*
X67477510Y-57964517D01*
X67644517Y-57797510D01*
X67783343Y-57606433D01*
X67890568Y-57395992D01*
X67963553Y-57171368D01*
X67967982Y-57143402D01*
X68000500Y-56938097D01*
X68000500Y-56701902D01*
X67963553Y-56468631D01*
X67918875Y-56331127D01*
X67890568Y-56244008D01*
X67890566Y-56244005D01*
X67890566Y-56244003D01*
X67834002Y-56132991D01*
X67783343Y-56033567D01*
X67644517Y-55842490D01*
X67477510Y-55675483D01*
X67442872Y-55650317D01*
X67400207Y-55594989D01*
X67394228Y-55525375D01*
X67426833Y-55463580D01*
X67442873Y-55449682D01*
X67477510Y-55424517D01*
X67644517Y-55257510D01*
X67783343Y-55066433D01*
X67890568Y-54855992D01*
X67963553Y-54631368D01*
X67974492Y-54562302D01*
X68000500Y-54398097D01*
X68000500Y-54161902D01*
X67963553Y-53928631D01*
X67904406Y-53746597D01*
X67890568Y-53704008D01*
X67890566Y-53704005D01*
X67890566Y-53704003D01*
X67783342Y-53493566D01*
X67644517Y-53302490D01*
X67477510Y-53135483D01*
X67286433Y-52996657D01*
X67278418Y-52992573D01*
X67075996Y-52889433D01*
X66851368Y-52816446D01*
X66618097Y-52779500D01*
X66618092Y-52779500D01*
X66381908Y-52779500D01*
X66381903Y-52779500D01*
X66148628Y-52816447D01*
X66075803Y-52840109D01*
X66060591Y-52840543D01*
X66046332Y-52845862D01*
X66026376Y-52841520D01*
X66005962Y-52842104D01*
X65991875Y-52834015D01*
X65978059Y-52831010D01*
X65949805Y-52809859D01*
X65868319Y-52728373D01*
X65834834Y-52667050D01*
X65832000Y-52640692D01*
X65832000Y-48800784D01*
X65851685Y-48733745D01*
X65904489Y-48687990D01*
X65973647Y-48678046D01*
X65994312Y-48682851D01*
X66113959Y-48721727D01*
X66181131Y-48743553D01*
X66414403Y-48780500D01*
X66414408Y-48780500D01*
X66650597Y-48780500D01*
X66883868Y-48743553D01*
X66914054Y-48733745D01*
X67108492Y-48670568D01*
X67318933Y-48563343D01*
X67510010Y-48424517D01*
X67677017Y-48257510D01*
X67815843Y-48066433D01*
X67923068Y-47855992D01*
X67996053Y-47631368D01*
X68000659Y-47602287D01*
X68033000Y-47398097D01*
X68033000Y-47161902D01*
X67996053Y-46928631D01*
X67925793Y-46712396D01*
X67923068Y-46704008D01*
X67923066Y-46704005D01*
X67923066Y-46704003D01*
X67861203Y-46582591D01*
X67815843Y-46493567D01*
X67677017Y-46302490D01*
X67510010Y-46135483D01*
X67475372Y-46110317D01*
X67432707Y-46054989D01*
X67426728Y-45985375D01*
X67459333Y-45923580D01*
X67475373Y-45909682D01*
X67510010Y-45884517D01*
X67677017Y-45717510D01*
X67815843Y-45526433D01*
X67923068Y-45315992D01*
X67996053Y-45091368D01*
X68000659Y-45062287D01*
X68033000Y-44858097D01*
X68033000Y-44621902D01*
X67996053Y-44388631D01*
X67944546Y-44230111D01*
X67923068Y-44164008D01*
X67923066Y-44164005D01*
X67923066Y-44164003D01*
X67815842Y-43953566D01*
X67811664Y-43947815D01*
X67677017Y-43762490D01*
X67510010Y-43595483D01*
X67318933Y-43456657D01*
X67247353Y-43420185D01*
X67108496Y-43349433D01*
X66883868Y-43276446D01*
X66650597Y-43239500D01*
X66650592Y-43239500D01*
X66414408Y-43239500D01*
X66414403Y-43239500D01*
X66181131Y-43276446D01*
X65956503Y-43349433D01*
X65746066Y-43456657D01*
X65637050Y-43535862D01*
X65554990Y-43595483D01*
X65554988Y-43595485D01*
X65554987Y-43595485D01*
X65387985Y-43762487D01*
X65387985Y-43762488D01*
X65387983Y-43762490D01*
X65347477Y-43818242D01*
X65249157Y-43953566D01*
X65141933Y-44164003D01*
X65068946Y-44388631D01*
X65032000Y-44621902D01*
X65032000Y-44858097D01*
X65067139Y-45079959D01*
X65058184Y-45149253D01*
X65013188Y-45202705D01*
X64946436Y-45223344D01*
X64879123Y-45204619D01*
X64856985Y-45187038D01*
X54831849Y-35161902D01*
X65032000Y-35161902D01*
X65032000Y-35398097D01*
X65068946Y-35631368D01*
X65141933Y-35855996D01*
X65223714Y-36016498D01*
X65249157Y-36066433D01*
X65387983Y-36257510D01*
X65554990Y-36424517D01*
X65589627Y-36449683D01*
X65632292Y-36505013D01*
X65638271Y-36574626D01*
X65605665Y-36636421D01*
X65589630Y-36650315D01*
X65571865Y-36663222D01*
X65554988Y-36675484D01*
X65387985Y-36842487D01*
X65387985Y-36842488D01*
X65387983Y-36842490D01*
X65366698Y-36871786D01*
X65249157Y-37033566D01*
X65141933Y-37244003D01*
X65068946Y-37468631D01*
X65032000Y-37701902D01*
X65032000Y-37938097D01*
X65068946Y-38171368D01*
X65141933Y-38395996D01*
X65228283Y-38565465D01*
X65249157Y-38606433D01*
X65387983Y-38797510D01*
X65554990Y-38964517D01*
X65746067Y-39103343D01*
X65845491Y-39154002D01*
X65956503Y-39210566D01*
X65956505Y-39210566D01*
X65956508Y-39210568D01*
X66076912Y-39249689D01*
X66181131Y-39283553D01*
X66414403Y-39320500D01*
X66414408Y-39320500D01*
X66650597Y-39320500D01*
X66883868Y-39283553D01*
X67108492Y-39210568D01*
X67318933Y-39103343D01*
X67510010Y-38964517D01*
X67677017Y-38797510D01*
X67815843Y-38606433D01*
X67923068Y-38395992D01*
X67996053Y-38171368D01*
X67997317Y-38163389D01*
X68033000Y-37938097D01*
X68033000Y-37701902D01*
X67996053Y-37468631D01*
X67952514Y-37334632D01*
X67923068Y-37244008D01*
X67923066Y-37244005D01*
X67923066Y-37244003D01*
X67866502Y-37132991D01*
X67815843Y-37033567D01*
X67677017Y-36842490D01*
X67510010Y-36675483D01*
X67475372Y-36650317D01*
X67432707Y-36594989D01*
X67426728Y-36525375D01*
X67459333Y-36463580D01*
X67475373Y-36449682D01*
X67510010Y-36424517D01*
X67677017Y-36257510D01*
X67815843Y-36066433D01*
X67923068Y-35855992D01*
X67996053Y-35631368D01*
X68002245Y-35592275D01*
X68033000Y-35398097D01*
X68033000Y-35161902D01*
X67996053Y-34928631D01*
X67952514Y-34794632D01*
X67923068Y-34704008D01*
X67923066Y-34704005D01*
X67923066Y-34704003D01*
X67864678Y-34589411D01*
X67815843Y-34493567D01*
X67677017Y-34302490D01*
X67510010Y-34135483D01*
X67318933Y-33996657D01*
X67310380Y-33992299D01*
X67108496Y-33889433D01*
X66883868Y-33816446D01*
X66650597Y-33779500D01*
X66650592Y-33779500D01*
X66414408Y-33779500D01*
X66414403Y-33779500D01*
X66181131Y-33816446D01*
X65956503Y-33889433D01*
X65746066Y-33996657D01*
X65644965Y-34070112D01*
X65554990Y-34135483D01*
X65554988Y-34135485D01*
X65554987Y-34135485D01*
X65387985Y-34302487D01*
X65387985Y-34302488D01*
X65387983Y-34302490D01*
X65363193Y-34336611D01*
X65249157Y-34493566D01*
X65141933Y-34704003D01*
X65068946Y-34928631D01*
X65032000Y-35161902D01*
X54831849Y-35161902D01*
X48664673Y-28994726D01*
X48657768Y-28990112D01*
X48558127Y-28923535D01*
X48557347Y-28923212D01*
X48439744Y-28874499D01*
X48439738Y-28874497D01*
X48314071Y-28849500D01*
X48314069Y-28849500D01*
X45986459Y-28849500D01*
X45919420Y-28829815D01*
X45873665Y-28777011D01*
X45863721Y-28707853D01*
X45886141Y-28652615D01*
X45918811Y-28607648D01*
X45941232Y-28576788D01*
X46019873Y-28422445D01*
X46073402Y-28257701D01*
X46100500Y-28086611D01*
X46100500Y-27913389D01*
X46073402Y-27742299D01*
X46019873Y-27577555D01*
X45941232Y-27423212D01*
X45839414Y-27283072D01*
X45716928Y-27160586D01*
X45576788Y-27058768D01*
X45422445Y-26980127D01*
X45257701Y-26926598D01*
X45257699Y-26926597D01*
X45257698Y-26926597D01*
X45126271Y-26905781D01*
X45086611Y-26899500D01*
X44913389Y-26899500D01*
X44873728Y-26905781D01*
X44742302Y-26926597D01*
X44577552Y-26980128D01*
X44423211Y-27058768D01*
X44371387Y-27096421D01*
X44283072Y-27160586D01*
X44283070Y-27160588D01*
X44283069Y-27160588D01*
X44160588Y-27283069D01*
X44160588Y-27283070D01*
X44160586Y-27283072D01*
X44146478Y-27302490D01*
X44058768Y-27423211D01*
X43980128Y-27577552D01*
X43926597Y-27742302D01*
X43899500Y-27913389D01*
X43899500Y-28086610D01*
X43919166Y-28210781D01*
X43926598Y-28257701D01*
X43980127Y-28422445D01*
X44049586Y-28558768D01*
X44058770Y-28576791D01*
X44113859Y-28652615D01*
X44137339Y-28718421D01*
X44121514Y-28786475D01*
X44071408Y-28835170D01*
X44013541Y-28849500D01*
X39030847Y-28849500D01*
X38905179Y-28874497D01*
X38905169Y-28874500D01*
X38856140Y-28894809D01*
X38856137Y-28894811D01*
X38803828Y-28916477D01*
X38734358Y-28923944D01*
X38671880Y-28892668D01*
X38656059Y-28874801D01*
X38589414Y-28783072D01*
X38466928Y-28660586D01*
X38326788Y-28558768D01*
X38172445Y-28480127D01*
X38007701Y-28426598D01*
X38007699Y-28426597D01*
X38007698Y-28426597D01*
X37874279Y-28405466D01*
X37836611Y-28399500D01*
X37663389Y-28399500D01*
X37625721Y-28405466D01*
X37492302Y-28426597D01*
X37327552Y-28480128D01*
X37173211Y-28558768D01*
X37105935Y-28607648D01*
X37033072Y-28660586D01*
X37033070Y-28660588D01*
X37033069Y-28660588D01*
X36910588Y-28783069D01*
X36910588Y-28783070D01*
X36910586Y-28783072D01*
X36869651Y-28839414D01*
X36808768Y-28923211D01*
X36730128Y-29077552D01*
X36676597Y-29242302D01*
X36649500Y-29413389D01*
X36649500Y-29586611D01*
X36649499Y-29586611D01*
X36668425Y-29706103D01*
X36659470Y-29775396D01*
X36614474Y-29828848D01*
X36547722Y-29849487D01*
X36545952Y-29849500D01*
X32360808Y-29849500D01*
X32293769Y-29829815D01*
X32273127Y-29813181D01*
X31557137Y-29097191D01*
X31523652Y-29035868D01*
X31522345Y-28990112D01*
X31534008Y-28916477D01*
X31550500Y-28812352D01*
X31550500Y-28607648D01*
X31542758Y-28558768D01*
X31518477Y-28405465D01*
X31455218Y-28210776D01*
X31391952Y-28086611D01*
X31362287Y-28028390D01*
X31354556Y-28017749D01*
X31241971Y-27862786D01*
X31097213Y-27718028D01*
X30931614Y-27597715D01*
X30921522Y-27592573D01*
X30838917Y-27550483D01*
X30788123Y-27502511D01*
X30771328Y-27434690D01*
X30793865Y-27368555D01*
X30838917Y-27329516D01*
X30931610Y-27282287D01*
X31079786Y-27174632D01*
X31097213Y-27161971D01*
X31097215Y-27161968D01*
X31097219Y-27161966D01*
X31241966Y-27017219D01*
X31241968Y-27017215D01*
X31241971Y-27017213D01*
X31309998Y-26923580D01*
X31362287Y-26851610D01*
X31455220Y-26669219D01*
X31518477Y-26474534D01*
X31550500Y-26272352D01*
X31550500Y-26067648D01*
X31518477Y-25865466D01*
X31455220Y-25670781D01*
X31455218Y-25670778D01*
X31455218Y-25670776D01*
X31403657Y-25569584D01*
X31362287Y-25488390D01*
X31354556Y-25477749D01*
X31241971Y-25322786D01*
X31097213Y-25178028D01*
X30931614Y-25057715D01*
X30921522Y-25052573D01*
X30838917Y-25010483D01*
X30788123Y-24962511D01*
X30771328Y-24894690D01*
X30793865Y-24828555D01*
X30838917Y-24789516D01*
X30931610Y-24742287D01*
X31079786Y-24634632D01*
X31097213Y-24621971D01*
X31097215Y-24621968D01*
X31097219Y-24621966D01*
X31241966Y-24477219D01*
X31241968Y-24477215D01*
X31241971Y-24477213D01*
X31334807Y-24349433D01*
X31362287Y-24311610D01*
X31455220Y-24129219D01*
X31518477Y-23934534D01*
X31550500Y-23732352D01*
X31550500Y-23527648D01*
X31542147Y-23474909D01*
X31518477Y-23325465D01*
X31455218Y-23130776D01*
X31384661Y-22992302D01*
X31362287Y-22948390D01*
X31354556Y-22937749D01*
X31241971Y-22782786D01*
X31097213Y-22638028D01*
X30931614Y-22517715D01*
X30921522Y-22512573D01*
X30838917Y-22470483D01*
X30788123Y-22422511D01*
X30771328Y-22354690D01*
X30793865Y-22288555D01*
X30838917Y-22249516D01*
X30931610Y-22202287D01*
X30966970Y-22176597D01*
X31097213Y-22081971D01*
X31097215Y-22081968D01*
X31097219Y-22081966D01*
X31241966Y-21937219D01*
X31347753Y-21791613D01*
X31403082Y-21748949D01*
X31448071Y-21740500D01*
X35519192Y-21740500D01*
X35586231Y-21760185D01*
X35606873Y-21776819D01*
X39595137Y-25765083D01*
X39610558Y-25783873D01*
X39628210Y-25810291D01*
X39628213Y-25810295D01*
X39739707Y-25921789D01*
X39739711Y-25921792D01*
X39870814Y-26009393D01*
X39870827Y-26009400D01*
X40011452Y-26067648D01*
X40016503Y-26069740D01*
X40125234Y-26091368D01*
X40171153Y-26100502D01*
X40171156Y-26100503D01*
X40171158Y-26100503D01*
X40328844Y-26100503D01*
X40328845Y-26100502D01*
X40483497Y-26069740D01*
X40629179Y-26009397D01*
X40760289Y-25921792D01*
X40871789Y-25810292D01*
X40959394Y-25679182D01*
X40962876Y-25670776D01*
X40983120Y-25621902D01*
X65032000Y-25621902D01*
X65032000Y-25858097D01*
X65068946Y-26091368D01*
X65141933Y-26315996D01*
X65222713Y-26474534D01*
X65249157Y-26526433D01*
X65387983Y-26717510D01*
X65554990Y-26884517D01*
X65589627Y-26909683D01*
X65632292Y-26965013D01*
X65638271Y-27034626D01*
X65605665Y-27096421D01*
X65589630Y-27110315D01*
X65571865Y-27123222D01*
X65554988Y-27135484D01*
X65387985Y-27302487D01*
X65387985Y-27302488D01*
X65387983Y-27302490D01*
X65368348Y-27329515D01*
X65249157Y-27493566D01*
X65141933Y-27704003D01*
X65068946Y-27928631D01*
X65032000Y-28161902D01*
X65032000Y-28398097D01*
X65068946Y-28631368D01*
X65141933Y-28855996D01*
X65212619Y-28994723D01*
X65249157Y-29066433D01*
X65387983Y-29257510D01*
X65554990Y-29424517D01*
X65746067Y-29563343D01*
X65845491Y-29614002D01*
X65956503Y-29670566D01*
X65956505Y-29670566D01*
X65956508Y-29670568D01*
X66053141Y-29701966D01*
X66181131Y-29743553D01*
X66414403Y-29780500D01*
X66414408Y-29780500D01*
X66650597Y-29780500D01*
X66883868Y-29743553D01*
X66972877Y-29714632D01*
X67108492Y-29670568D01*
X67318933Y-29563343D01*
X67510010Y-29424517D01*
X67677017Y-29257510D01*
X67815843Y-29066433D01*
X67923068Y-28855992D01*
X67996053Y-28631368D01*
X68020007Y-28480128D01*
X68033000Y-28398097D01*
X68033000Y-28161902D01*
X67996053Y-27928631D01*
X67962189Y-27824412D01*
X67923068Y-27704008D01*
X67923066Y-27704005D01*
X67923066Y-27704003D01*
X67844844Y-27550485D01*
X67815843Y-27493567D01*
X67677017Y-27302490D01*
X67510010Y-27135483D01*
X67475372Y-27110317D01*
X67432707Y-27054989D01*
X67426728Y-26985375D01*
X67459333Y-26923580D01*
X67475373Y-26909682D01*
X67510010Y-26884517D01*
X67677017Y-26717510D01*
X67815843Y-26526433D01*
X67923068Y-26315992D01*
X67996053Y-26091368D01*
X67999810Y-26067648D01*
X68033000Y-25858097D01*
X68033000Y-25621902D01*
X67996053Y-25388631D01*
X67941637Y-25221158D01*
X67923068Y-25164008D01*
X67923066Y-25164005D01*
X67923066Y-25164003D01*
X67844844Y-25010485D01*
X67815843Y-24953567D01*
X67677017Y-24762490D01*
X67510010Y-24595483D01*
X67318933Y-24456657D01*
X67311923Y-24453085D01*
X67108496Y-24349433D01*
X66883868Y-24276446D01*
X66650597Y-24239500D01*
X66650592Y-24239500D01*
X66414408Y-24239500D01*
X66414403Y-24239500D01*
X66181131Y-24276446D01*
X65956503Y-24349433D01*
X65746066Y-24456657D01*
X65637050Y-24535862D01*
X65554990Y-24595483D01*
X65554988Y-24595485D01*
X65554987Y-24595485D01*
X65387985Y-24762487D01*
X65387985Y-24762488D01*
X65387983Y-24762490D01*
X65368348Y-24789515D01*
X65249157Y-24953566D01*
X65141933Y-25164003D01*
X65068946Y-25388631D01*
X65032000Y-25621902D01*
X40983120Y-25621902D01*
X41004791Y-25569584D01*
X41019735Y-25533504D01*
X41019737Y-25533500D01*
X41050500Y-25378845D01*
X41050500Y-25221161D01*
X41050500Y-25221158D01*
X41050499Y-25221156D01*
X41039130Y-25164003D01*
X41019737Y-25066506D01*
X40970423Y-24947452D01*
X40962955Y-24877984D01*
X40970421Y-24852554D01*
X41019737Y-24733497D01*
X41050500Y-24578842D01*
X41050500Y-24421158D01*
X41050500Y-24421155D01*
X41050499Y-24421153D01*
X41021715Y-24276447D01*
X41019737Y-24266503D01*
X40988559Y-24191231D01*
X40959397Y-24120827D01*
X40959390Y-24120814D01*
X40871789Y-23989711D01*
X40871786Y-23989707D01*
X40760292Y-23878213D01*
X40760288Y-23878210D01*
X40629185Y-23790609D01*
X40629172Y-23790602D01*
X40483501Y-23730264D01*
X40483489Y-23730261D01*
X40416420Y-23716920D01*
X40354509Y-23684535D01*
X40352930Y-23682984D01*
X39833335Y-23163389D01*
X43899500Y-23163389D01*
X43899500Y-23336610D01*
X43921405Y-23474918D01*
X43926598Y-23507701D01*
X43980127Y-23672445D01*
X44058768Y-23826788D01*
X44160586Y-23966928D01*
X44283072Y-24089414D01*
X44423212Y-24191232D01*
X44577555Y-24269873D01*
X44742299Y-24323402D01*
X44913389Y-24350500D01*
X44913390Y-24350500D01*
X45086610Y-24350500D01*
X45086611Y-24350500D01*
X45257701Y-24323402D01*
X45422445Y-24269873D01*
X45576788Y-24191232D01*
X45716928Y-24089414D01*
X45839414Y-23966928D01*
X45941232Y-23826788D01*
X46019873Y-23672445D01*
X46073402Y-23507701D01*
X46100500Y-23336611D01*
X46100500Y-23163389D01*
X46073402Y-22992299D01*
X46019873Y-22827555D01*
X45941232Y-22673212D01*
X45839414Y-22533072D01*
X45716928Y-22410586D01*
X45576788Y-22308768D01*
X45422445Y-22230127D01*
X45257701Y-22176598D01*
X45257699Y-22176597D01*
X45257698Y-22176597D01*
X45126271Y-22155781D01*
X45086611Y-22149500D01*
X44913389Y-22149500D01*
X44873728Y-22155781D01*
X44742302Y-22176597D01*
X44577552Y-22230128D01*
X44423211Y-22308768D01*
X44360006Y-22354690D01*
X44283072Y-22410586D01*
X44283070Y-22410588D01*
X44283069Y-22410588D01*
X44160588Y-22533069D01*
X44160588Y-22533070D01*
X44160586Y-22533072D01*
X44150749Y-22546612D01*
X44058768Y-22673211D01*
X43980128Y-22827552D01*
X43926597Y-22992302D01*
X43899500Y-23163389D01*
X39833335Y-23163389D01*
X37869117Y-21199171D01*
X37784908Y-21114962D01*
X48595557Y-21114962D01*
X48595557Y-21385037D01*
X48625791Y-21653379D01*
X48625794Y-21653397D01*
X48685887Y-21916683D01*
X48685891Y-21916695D01*
X48775081Y-22171583D01*
X48775090Y-22171605D01*
X48892255Y-22414901D01*
X48902651Y-22431446D01*
X49035940Y-22643575D01*
X49059575Y-22673212D01*
X49182657Y-22827552D01*
X49204321Y-22854717D01*
X49395283Y-23045679D01*
X49606425Y-23214060D01*
X49801463Y-23336610D01*
X49835098Y-23357744D01*
X50078394Y-23474909D01*
X50078403Y-23474912D01*
X50078410Y-23474916D01*
X50078416Y-23474918D01*
X50333304Y-23564108D01*
X50333316Y-23564112D01*
X50596606Y-23624206D01*
X50596612Y-23624206D01*
X50596620Y-23624208D01*
X50775514Y-23644364D01*
X50864963Y-23654442D01*
X50864966Y-23654443D01*
X50864969Y-23654443D01*
X51135034Y-23654443D01*
X51135035Y-23654442D01*
X51272181Y-23638989D01*
X51403379Y-23624208D01*
X51403384Y-23624207D01*
X51403394Y-23624206D01*
X51666684Y-23564112D01*
X51921590Y-23474916D01*
X52164907Y-23357741D01*
X52393575Y-23214060D01*
X52604717Y-23045679D01*
X52795679Y-22854717D01*
X52964060Y-22643575D01*
X53107741Y-22414907D01*
X53168589Y-22288555D01*
X53224909Y-22171605D01*
X53224910Y-22171601D01*
X53224916Y-22171590D01*
X53314112Y-21916684D01*
X53374206Y-21653394D01*
X53404443Y-21385031D01*
X53404443Y-21114969D01*
X53394364Y-21025514D01*
X53374208Y-20846620D01*
X53374205Y-20846602D01*
X53343694Y-20712926D01*
X53314112Y-20583316D01*
X53224916Y-20328410D01*
X53224912Y-20328403D01*
X53224909Y-20328394D01*
X53107744Y-20085098D01*
X53104883Y-20080545D01*
X52964060Y-19856425D01*
X52795679Y-19645283D01*
X52604717Y-19454321D01*
X52393575Y-19285940D01*
X52164907Y-19142259D01*
X52164908Y-19142259D01*
X52164901Y-19142255D01*
X51921605Y-19025090D01*
X51921583Y-19025081D01*
X51666695Y-18935891D01*
X51666683Y-18935887D01*
X51403397Y-18875794D01*
X51403379Y-18875791D01*
X51135037Y-18845557D01*
X51135031Y-18845557D01*
X50864969Y-18845557D01*
X50864962Y-18845557D01*
X50596620Y-18875791D01*
X50596602Y-18875794D01*
X50333316Y-18935887D01*
X50333304Y-18935891D01*
X50078416Y-19025081D01*
X50078394Y-19025090D01*
X49835098Y-19142255D01*
X49606426Y-19285939D01*
X49395283Y-19454320D01*
X49204320Y-19645283D01*
X49035939Y-19856426D01*
X48892255Y-20085098D01*
X48775090Y-20328394D01*
X48775081Y-20328416D01*
X48685891Y-20583304D01*
X48685887Y-20583316D01*
X48625794Y-20846602D01*
X48625791Y-20846620D01*
X48595557Y-21114962D01*
X37784908Y-21114962D01*
X34714674Y-18044727D01*
X34714673Y-18044726D01*
X34714669Y-18044723D01*
X34608127Y-17973535D01*
X34489744Y-17924499D01*
X34489742Y-17924498D01*
X34489741Y-17924498D01*
X34484551Y-17923466D01*
X34484546Y-17923465D01*
X34364071Y-17899500D01*
X34364069Y-17899500D01*
X33671765Y-17899500D01*
X33604726Y-17879815D01*
X33558971Y-17827011D01*
X33549027Y-17757853D01*
X33578052Y-17694297D01*
X33598879Y-17675182D01*
X33633101Y-17650318D01*
X33716928Y-17589414D01*
X33839414Y-17466928D01*
X33941232Y-17326788D01*
X34019873Y-17172445D01*
X34073402Y-17007701D01*
X34100500Y-16836611D01*
X34100500Y-16772135D01*
X39967000Y-16772135D01*
X39967000Y-18867870D01*
X39967001Y-18867876D01*
X39973408Y-18927483D01*
X40023702Y-19062328D01*
X40023706Y-19062335D01*
X40109952Y-19177544D01*
X40109955Y-19177547D01*
X40225164Y-19263793D01*
X40225171Y-19263797D01*
X40360017Y-19314091D01*
X40360016Y-19314091D01*
X40366944Y-19314835D01*
X40419627Y-19320500D01*
X42420372Y-19320499D01*
X42479983Y-19314091D01*
X42614831Y-19263796D01*
X42730046Y-19177546D01*
X42816296Y-19062331D01*
X42866591Y-18927483D01*
X42873000Y-18867873D01*
X42872999Y-17658146D01*
X45047000Y-17658146D01*
X45047000Y-17981854D01*
X45055191Y-18033567D01*
X45082778Y-18207746D01*
X45082778Y-18207749D01*
X45153450Y-18425255D01*
X45175552Y-18468632D01*
X45257283Y-18629038D01*
X45391714Y-18814066D01*
X45553434Y-18975786D01*
X45738462Y-19110217D01*
X45915653Y-19200500D01*
X45942244Y-19214049D01*
X46159751Y-19284721D01*
X46159752Y-19284721D01*
X46159755Y-19284722D01*
X46385646Y-19320500D01*
X46385647Y-19320500D01*
X46614353Y-19320500D01*
X46614354Y-19320500D01*
X46840245Y-19284722D01*
X46840248Y-19284721D01*
X46840249Y-19284721D01*
X47057755Y-19214049D01*
X47057755Y-19214048D01*
X47057758Y-19214048D01*
X47261538Y-19110217D01*
X47446566Y-18975786D01*
X47608286Y-18814066D01*
X47742717Y-18629038D01*
X47846548Y-18425258D01*
X47904966Y-18245465D01*
X47917221Y-18207749D01*
X47917221Y-18207748D01*
X47917222Y-18207745D01*
X47953000Y-17981854D01*
X47953000Y-17658146D01*
X47924781Y-17479983D01*
X58249500Y-17479983D01*
X58249500Y-19080001D01*
X58249501Y-19080018D01*
X58260000Y-19182796D01*
X58260001Y-19182797D01*
X58315185Y-19349331D01*
X58315187Y-19349336D01*
X58350069Y-19405888D01*
X58407288Y-19498656D01*
X58531344Y-19622712D01*
X58680666Y-19714814D01*
X58847203Y-19769999D01*
X58949991Y-19780500D01*
X60550008Y-19780499D01*
X60652797Y-19769999D01*
X60819334Y-19714814D01*
X60968656Y-19622712D01*
X61092712Y-19498656D01*
X61184814Y-19349334D01*
X61239999Y-19182797D01*
X61250500Y-19080009D01*
X61250499Y-17479992D01*
X61249164Y-17466928D01*
X61239999Y-17377203D01*
X61239998Y-17377200D01*
X61209549Y-17285311D01*
X61184814Y-17210666D01*
X61092712Y-17061344D01*
X60968656Y-16937288D01*
X60836860Y-16855996D01*
X60819336Y-16845187D01*
X60819331Y-16845185D01*
X60793453Y-16836610D01*
X60652797Y-16790001D01*
X60652795Y-16790000D01*
X60550010Y-16779500D01*
X58949998Y-16779500D01*
X58949981Y-16779501D01*
X58847203Y-16790000D01*
X58847200Y-16790001D01*
X58680668Y-16845185D01*
X58680663Y-16845187D01*
X58531342Y-16937289D01*
X58407289Y-17061342D01*
X58315187Y-17210663D01*
X58315185Y-17210668D01*
X58292716Y-17278477D01*
X58260001Y-17377203D01*
X58260001Y-17377204D01*
X58260000Y-17377204D01*
X58249500Y-17479983D01*
X47924781Y-17479983D01*
X47917222Y-17432255D01*
X47917221Y-17432251D01*
X47917221Y-17432250D01*
X47846549Y-17214744D01*
X47799438Y-17122284D01*
X47742717Y-17010962D01*
X47608286Y-16825934D01*
X47446566Y-16664214D01*
X47261538Y-16529783D01*
X47221179Y-16509219D01*
X47057755Y-16425950D01*
X46840248Y-16355278D01*
X46654812Y-16325908D01*
X46614354Y-16319500D01*
X46385646Y-16319500D01*
X46310349Y-16331426D01*
X46159753Y-16355278D01*
X46159750Y-16355278D01*
X45942244Y-16425950D01*
X45738461Y-16529783D01*
X45672550Y-16577671D01*
X45553434Y-16664214D01*
X45553432Y-16664216D01*
X45553431Y-16664216D01*
X45391716Y-16825931D01*
X45391716Y-16825932D01*
X45391714Y-16825934D01*
X45368984Y-16857219D01*
X45257283Y-17010961D01*
X45153450Y-17214744D01*
X45082778Y-17432250D01*
X45082778Y-17432253D01*
X45057886Y-17589414D01*
X45047000Y-17658146D01*
X42872999Y-17658146D01*
X42872999Y-16772128D01*
X42866591Y-16712517D01*
X42858794Y-16691613D01*
X42816297Y-16577671D01*
X42816293Y-16577664D01*
X42730047Y-16462455D01*
X42730044Y-16462452D01*
X42614835Y-16376206D01*
X42614828Y-16376202D01*
X42479982Y-16325908D01*
X42479983Y-16325908D01*
X42420383Y-16319501D01*
X42420381Y-16319500D01*
X42420373Y-16319500D01*
X42420364Y-16319500D01*
X40419629Y-16319500D01*
X40419623Y-16319501D01*
X40360016Y-16325908D01*
X40225171Y-16376202D01*
X40225164Y-16376206D01*
X40109955Y-16462452D01*
X40109952Y-16462455D01*
X40023706Y-16577664D01*
X40023702Y-16577671D01*
X39973408Y-16712517D01*
X39967001Y-16772116D01*
X39967001Y-16772123D01*
X39967000Y-16772135D01*
X34100500Y-16772135D01*
X34100500Y-16663389D01*
X34073402Y-16492299D01*
X34019873Y-16327555D01*
X33941232Y-16173212D01*
X33839414Y-16033072D01*
X33716928Y-15910586D01*
X33576788Y-15808768D01*
X33422445Y-15730127D01*
X33257701Y-15676598D01*
X33257699Y-15676597D01*
X33257698Y-15676597D01*
X33126271Y-15655781D01*
X33086611Y-15649500D01*
X32913389Y-15649500D01*
X32873728Y-15655781D01*
X32742302Y-15676597D01*
X32577552Y-15730128D01*
X32423211Y-15808768D01*
X32343256Y-15866859D01*
X32283072Y-15910586D01*
X32283070Y-15910588D01*
X32283069Y-15910588D01*
X32160588Y-16033069D01*
X32160588Y-16033070D01*
X32160586Y-16033072D01*
X32116859Y-16093256D01*
X32058768Y-16173211D01*
X31980128Y-16327552D01*
X31926597Y-16492302D01*
X31899500Y-16663389D01*
X31899500Y-16836610D01*
X31926120Y-17004688D01*
X31926598Y-17007701D01*
X31980127Y-17172445D01*
X32058768Y-17326788D01*
X32160586Y-17466928D01*
X32283072Y-17589414D01*
X32366899Y-17650318D01*
X32401121Y-17675182D01*
X32443786Y-17730513D01*
X32449765Y-17800126D01*
X32417159Y-17861921D01*
X32356320Y-17896278D01*
X32328235Y-17899500D01*
X31448071Y-17899500D01*
X31381032Y-17879815D01*
X31347754Y-17848386D01*
X31241966Y-17702781D01*
X31097219Y-17558034D01*
X31097213Y-17558028D01*
X30931614Y-17437715D01*
X30905711Y-17424517D01*
X30838917Y-17390483D01*
X30788123Y-17342511D01*
X30771328Y-17274690D01*
X30793865Y-17208555D01*
X30838917Y-17169516D01*
X30931610Y-17122287D01*
X31015492Y-17061344D01*
X31097213Y-17001971D01*
X31097215Y-17001968D01*
X31097219Y-17001966D01*
X31241966Y-16857219D01*
X31241968Y-16857215D01*
X31241971Y-16857213D01*
X31347097Y-16712517D01*
X31362287Y-16691610D01*
X31455220Y-16509219D01*
X31518477Y-16314534D01*
X31550500Y-16112352D01*
X31550500Y-15907648D01*
X31518477Y-15705466D01*
X31518003Y-15704008D01*
X31455218Y-15510776D01*
X31421503Y-15444607D01*
X31362287Y-15328390D01*
X31343468Y-15302487D01*
X31241971Y-15162786D01*
X31097213Y-15018028D01*
X31037738Y-14974818D01*
X30995072Y-14919489D01*
X30989093Y-14849875D01*
X31021698Y-14788080D01*
X31082537Y-14753723D01*
X31110623Y-14750500D01*
X65712680Y-14750500D01*
X65779719Y-14770185D01*
>>>>>>> Stashed changes
G37*
%TD.AperFunction*%
%TA.AperFunction,Conductor*%
G36*
<<<<<<< Updated upstream
X36840686Y-42539185D02*
G01*
X36886441Y-42591989D01*
X36895264Y-42619308D01*
X36925436Y-42770991D01*
X36925439Y-42771001D01*
X36985777Y-42916672D01*
X36985784Y-42916685D01*
X37073385Y-43047788D01*
X37073388Y-43047792D01*
X37110882Y-43085285D01*
X37144368Y-43146607D01*
X37139384Y-43216299D01*
X37110883Y-43260648D01*
X36464272Y-43907259D01*
X36402949Y-43940744D01*
X36333257Y-43935760D01*
X36277324Y-43893888D01*
X36272194Y-43885828D01*
X36272108Y-43885886D01*
X36181118Y-43749711D01*
X36181115Y-43749707D01*
X36069621Y-43638213D01*
X36069617Y-43638210D01*
X35938514Y-43550609D01*
X35938501Y-43550602D01*
X35836727Y-43508447D01*
X35782323Y-43464607D01*
X35760258Y-43398313D01*
X35777537Y-43330613D01*
X35828674Y-43283002D01*
X35849574Y-43274812D01*
X35926395Y-43252494D01*
X36065687Y-43170117D01*
X36180117Y-43055687D01*
X36262494Y-42916395D01*
X36307643Y-42760993D01*
X36310500Y-42724690D01*
X36310500Y-42643500D01*
X36330185Y-42576461D01*
X36382989Y-42530706D01*
X36434500Y-42519500D01*
X36773647Y-42519500D01*
X36840686Y-42539185D01*
G37*
%TD.AperFunction*%
%TA.AperFunction,Conductor*%
G36*
X42101997Y-40010757D02*
G01*
X42133828Y-40018909D01*
X42135356Y-40020553D01*
X42137508Y-40021185D01*
X42159014Y-40046004D01*
X42181397Y-40070084D01*
X42181793Y-40072293D01*
X42183263Y-40073989D01*
X42187938Y-40106508D01*
X42193748Y-40138853D01*
X42193006Y-40141749D01*
X42193207Y-40143147D01*
X42190645Y-40150966D01*
X42184992Y-40173044D01*
X42182599Y-40178807D01*
X42182492Y-40178968D01*
X42164264Y-40222971D01*
X42163709Y-40224310D01*
X42136867Y-40264447D01*
X41692368Y-40708946D01*
X41647898Y-40775502D01*
X41621179Y-40815490D01*
X41572143Y-40933873D01*
X41572141Y-40933879D01*
X41547144Y-41059546D01*
X41547144Y-41273028D01*
X41527459Y-41340067D01*
X41510825Y-41360709D01*
X40559353Y-42312181D01*
X40498030Y-42345666D01*
X40471672Y-42348500D01*
X38823948Y-42348500D01*
X38756909Y-42328815D01*
X38711154Y-42276011D01*
X38701210Y-42206853D01*
X38709387Y-42177048D01*
X38755373Y-42066026D01*
X38769738Y-42031345D01*
X38800501Y-41876690D01*
X38800501Y-41719006D01*
X38800501Y-41719003D01*
X38800500Y-41719001D01*
X38794956Y-41691130D01*
X38769738Y-41564351D01*
X38741106Y-41495227D01*
X38709398Y-41418675D01*
X38709394Y-41418668D01*
X38682363Y-41378213D01*
X38675381Y-41367764D01*
X38654504Y-41301088D01*
X38663924Y-41251419D01*
X38669636Y-41237630D01*
X38700399Y-41082975D01*
X38700399Y-40925291D01*
X38700399Y-40925288D01*
X38700398Y-40925286D01*
X38693220Y-40889200D01*
X38669636Y-40770636D01*
X38663920Y-40756838D01*
X38656453Y-40687370D01*
X38675382Y-40640496D01*
X38675746Y-40639951D01*
X38709392Y-40589597D01*
X38769735Y-40443915D01*
X38800498Y-40289260D01*
X38800498Y-40131576D01*
X38800498Y-40125500D01*
X38820183Y-40058461D01*
X38872987Y-40012706D01*
X38924498Y-40001500D01*
X42070469Y-40001500D01*
X42101997Y-40010757D01*
G37*
%TD.AperFunction*%
%TA.AperFunction,Conductor*%
G36*
X67942539Y-31270185D02*
G01*
X67988294Y-31322989D01*
X67999500Y-31374500D01*
X67999500Y-73375500D01*
X67979815Y-73442539D01*
X67927011Y-73488294D01*
X67875500Y-73499500D01*
X17624500Y-73499500D01*
X17557461Y-73479815D01*
X17511706Y-73427011D01*
X17500500Y-73375500D01*
X17500500Y-69199983D01*
X18459500Y-69199983D01*
X18459500Y-70800001D01*
X18459501Y-70800018D01*
X18470000Y-70902796D01*
X18470001Y-70902799D01*
X18494759Y-70977512D01*
X18525186Y-71069334D01*
X18617288Y-71218656D01*
X18741344Y-71342712D01*
X18890666Y-71434814D01*
X19057203Y-71489999D01*
X19159991Y-71500500D01*
X20760008Y-71500499D01*
X20862797Y-71489999D01*
X21029334Y-71434814D01*
X21178656Y-71342712D01*
X21302712Y-71218656D01*
X21394814Y-71069334D01*
X21449999Y-70902797D01*
X21460500Y-70800009D01*
X21460499Y-69199992D01*
X21459338Y-69188631D01*
X21449999Y-69097203D01*
X21449998Y-69097200D01*
X21394814Y-68930666D01*
X21302712Y-68781344D01*
X21178656Y-68657288D01*
X21029334Y-68565186D01*
X20862797Y-68510001D01*
X20862795Y-68510000D01*
X20760010Y-68499500D01*
X19159998Y-68499500D01*
X19159981Y-68499501D01*
X19057203Y-68510000D01*
X19057200Y-68510001D01*
X18890668Y-68565185D01*
X18890663Y-68565187D01*
X18741342Y-68657289D01*
X18617289Y-68781342D01*
X18525187Y-68930663D01*
X18525185Y-68930668D01*
X18512761Y-68968163D01*
X18470001Y-69097203D01*
X18470001Y-69097204D01*
X18470000Y-69097204D01*
X18459500Y-69199983D01*
X17500500Y-69199983D01*
X17500500Y-62381902D01*
X23499500Y-62381902D01*
X23499500Y-62618097D01*
X23536446Y-62851368D01*
X23609433Y-63075996D01*
X23677405Y-63209397D01*
X23716657Y-63286433D01*
X23855483Y-63477510D01*
X24022490Y-63644517D01*
X24213567Y-63783343D01*
X24285010Y-63819745D01*
X24424003Y-63890566D01*
X24424005Y-63890566D01*
X24424008Y-63890568D01*
X24544412Y-63929689D01*
X24648631Y-63963553D01*
X24881903Y-64000500D01*
X24881908Y-64000500D01*
X25118097Y-64000500D01*
X25351368Y-63963553D01*
X25575992Y-63890568D01*
X25786433Y-63783343D01*
X25977510Y-63644517D01*
X26144517Y-63477510D01*
X26283343Y-63286433D01*
X26390568Y-63075992D01*
X26463553Y-62851368D01*
X26473177Y-62790606D01*
X26500500Y-62618097D01*
X26500500Y-62381902D01*
X26463553Y-62148631D01*
X26390566Y-61924003D01*
X26310315Y-61766503D01*
X26283343Y-61713567D01*
X26144517Y-61522490D01*
X25977510Y-61355483D01*
X25786433Y-61216657D01*
X25754745Y-61200511D01*
X25575996Y-61109433D01*
X25351368Y-61036446D01*
X25118097Y-60999500D01*
X25118092Y-60999500D01*
X24881908Y-60999500D01*
X24881903Y-60999500D01*
X24648631Y-61036446D01*
X24424003Y-61109433D01*
X24213566Y-61216657D01*
X24111785Y-61290606D01*
X24022490Y-61355483D01*
X24022488Y-61355485D01*
X24022487Y-61355485D01*
X23855485Y-61522487D01*
X23855485Y-61522488D01*
X23855483Y-61522490D01*
X23806265Y-61590233D01*
X23716657Y-61713566D01*
X23609433Y-61924003D01*
X23536446Y-62148631D01*
X23499500Y-62381902D01*
X17500500Y-62381902D01*
X17500500Y-39921153D01*
X31699500Y-39921153D01*
X31699500Y-40078846D01*
X31730261Y-40233489D01*
X31730264Y-40233501D01*
X31790602Y-40379172D01*
X31790609Y-40379185D01*
X31878210Y-40510288D01*
X31878213Y-40510292D01*
X31989707Y-40621786D01*
X31989711Y-40621789D01*
X32120814Y-40709390D01*
X32120827Y-40709397D01*
X32235364Y-40756839D01*
X32266503Y-40769737D01*
X32421153Y-40800499D01*
X32421156Y-40800500D01*
X32421158Y-40800500D01*
X32578844Y-40800500D01*
X32578845Y-40800499D01*
X32733497Y-40769737D01*
X32879179Y-40709394D01*
X33010289Y-40621789D01*
X33121789Y-40510289D01*
X33209394Y-40379179D01*
X33269737Y-40233497D01*
X33300500Y-40078842D01*
X33300500Y-39921158D01*
X33300500Y-39921155D01*
X33300499Y-39921153D01*
X33287437Y-39855485D01*
X33269737Y-39766503D01*
X33269735Y-39766498D01*
X33209397Y-39620827D01*
X33209390Y-39620814D01*
X33121789Y-39489711D01*
X33121786Y-39489707D01*
X33010292Y-39378213D01*
X33010288Y-39378210D01*
X32879185Y-39290609D01*
X32879172Y-39290602D01*
X32733501Y-39230264D01*
X32733489Y-39230261D01*
X32578845Y-39199500D01*
X32578842Y-39199500D01*
X32421158Y-39199500D01*
X32421155Y-39199500D01*
X32266510Y-39230261D01*
X32266498Y-39230264D01*
X32120827Y-39290602D01*
X32120814Y-39290609D01*
X31989711Y-39378210D01*
X31989707Y-39378213D01*
X31878213Y-39489707D01*
X31878210Y-39489711D01*
X31790609Y-39620814D01*
X31790602Y-39620827D01*
X31730264Y-39766498D01*
X31730261Y-39766510D01*
X31699500Y-39921153D01*
X17500500Y-39921153D01*
X17500500Y-32905513D01*
X18989500Y-32905513D01*
X18989500Y-33094486D01*
X19019059Y-33281118D01*
X19077454Y-33460836D01*
X19132512Y-33568892D01*
X19163240Y-33629199D01*
X19274310Y-33782073D01*
X19407927Y-33915690D01*
X19509802Y-33989707D01*
X19560802Y-34026761D01*
X19601773Y-34047636D01*
X19640932Y-34067588D01*
X19673176Y-34091258D01*
X19681294Y-34099538D01*
X19684723Y-34104669D01*
X19766930Y-34186876D01*
X19767333Y-34187287D01*
X19783490Y-34217581D01*
X19799959Y-34247742D01*
X19799913Y-34248375D01*
X19800213Y-34248937D01*
X19797422Y-34283207D01*
X19794975Y-34317434D01*
X19794594Y-34317942D01*
X19794543Y-34318576D01*
X19773676Y-34345886D01*
X19753104Y-34373368D01*
X19752350Y-34373797D01*
X19752123Y-34374095D01*
X19751315Y-34374387D01*
X19733229Y-34384692D01*
X19733509Y-34385241D01*
X19560800Y-34473240D01*
X19520188Y-34502747D01*
X19407927Y-34584310D01*
X19407925Y-34584312D01*
X19407924Y-34584312D01*
X19274312Y-34717924D01*
X19274312Y-34717925D01*
X19274310Y-34717927D01*
X19262998Y-34733497D01*
X19163240Y-34870800D01*
X19077454Y-35039163D01*
X19019059Y-35218881D01*
X18989500Y-35405513D01*
X18989500Y-35594486D01*
X19019059Y-35781118D01*
X19077454Y-35960836D01*
X19135879Y-36075500D01*
X19163240Y-36129199D01*
X19274310Y-36282073D01*
X19407927Y-36415690D01*
X19560801Y-36526760D01*
X19595139Y-36544256D01*
X19729163Y-36612545D01*
X19729165Y-36612545D01*
X19729168Y-36612547D01*
X19825497Y-36643846D01*
X19908881Y-36670940D01*
X20095514Y-36700500D01*
X20095519Y-36700500D01*
X20284479Y-36700500D01*
X20284481Y-36700500D01*
X20382711Y-36684941D01*
X20452001Y-36693895D01*
X20489788Y-36719733D01*
X21684724Y-37914669D01*
X21733592Y-37963537D01*
X21775332Y-38005277D01*
X21881866Y-38076461D01*
X21881872Y-38076464D01*
X21881873Y-38076465D01*
X22000256Y-38125501D01*
X22000260Y-38125501D01*
X22000261Y-38125502D01*
X22125928Y-38150500D01*
X22125931Y-38150500D01*
X31582152Y-38150500D01*
X31649191Y-38170185D01*
X31694946Y-38222989D01*
X31703769Y-38250308D01*
X31730261Y-38383491D01*
X31730264Y-38383501D01*
X31790602Y-38529172D01*
X31790609Y-38529185D01*
X31878210Y-38660288D01*
X31878213Y-38660292D01*
X31989707Y-38771786D01*
X31989711Y-38771789D01*
X32120814Y-38859390D01*
X32120827Y-38859397D01*
X32266498Y-38919735D01*
X32266503Y-38919737D01*
X32421153Y-38950499D01*
X32421156Y-38950500D01*
X32421158Y-38950500D01*
X32578844Y-38950500D01*
X32578845Y-38950499D01*
X32733497Y-38919737D01*
X32879179Y-38859394D01*
X33010289Y-38771789D01*
X33121789Y-38660289D01*
X33209394Y-38529179D01*
X33269737Y-38383497D01*
X33278011Y-38341902D01*
X33296231Y-38250308D01*
X33310945Y-38222177D01*
X33324135Y-38193297D01*
X33327024Y-38191440D01*
X33328616Y-38188397D01*
X33356208Y-38172684D01*
X33382913Y-38155523D01*
X33387506Y-38154862D01*
X33389332Y-38153823D01*
X33417848Y-38150500D01*
X33470670Y-38150500D01*
X33537709Y-38170185D01*
X33558350Y-38186818D01*
X34638112Y-39266581D01*
X34671596Y-39327902D01*
X34666612Y-39397594D01*
X34638111Y-39441941D01*
X32012181Y-42067872D01*
X31950858Y-42101357D01*
X31881166Y-42096373D01*
X31825233Y-42054501D01*
X31800816Y-41989037D01*
X31800500Y-41980191D01*
X31800500Y-41921155D01*
X31800499Y-41921153D01*
X31794896Y-41892987D01*
X31769737Y-41766503D01*
X31751174Y-41721688D01*
X31709397Y-41620827D01*
X31709390Y-41620814D01*
X31621789Y-41489711D01*
X31621786Y-41489707D01*
X31510292Y-41378213D01*
X31510288Y-41378210D01*
X31379185Y-41290609D01*
X31379172Y-41290602D01*
X31233501Y-41230264D01*
X31233489Y-41230261D01*
X31078845Y-41199500D01*
X31078842Y-41199500D01*
X30921158Y-41199500D01*
X30921155Y-41199500D01*
X30766510Y-41230261D01*
X30766498Y-41230264D01*
X30620827Y-41290602D01*
X30620814Y-41290609D01*
X30489711Y-41378210D01*
X30489707Y-41378213D01*
X30378213Y-41489707D01*
X30378210Y-41489711D01*
X30290609Y-41620814D01*
X30290602Y-41620827D01*
X30230264Y-41766498D01*
X30230261Y-41766510D01*
X30199500Y-41921153D01*
X30199500Y-42078846D01*
X30230261Y-42233489D01*
X30230264Y-42233501D01*
X30290602Y-42379172D01*
X30290609Y-42379185D01*
X30378210Y-42510288D01*
X30378213Y-42510292D01*
X30489707Y-42621786D01*
X30489711Y-42621789D01*
X30620814Y-42709390D01*
X30620827Y-42709397D01*
X30766129Y-42769582D01*
X30766503Y-42769737D01*
X30921153Y-42800499D01*
X30921156Y-42800500D01*
X30980191Y-42800500D01*
X31047230Y-42820185D01*
X31092985Y-42872989D01*
X31102929Y-42942147D01*
X31073904Y-43005703D01*
X31067872Y-43012181D01*
X24897068Y-49182984D01*
X24835745Y-49216469D01*
X24833579Y-49216920D01*
X24766508Y-49230261D01*
X24766498Y-49230264D01*
X24620827Y-49290602D01*
X24620814Y-49290609D01*
X24489711Y-49378210D01*
X24489707Y-49378213D01*
X24378213Y-49489707D01*
X24378210Y-49489711D01*
X24290609Y-49620814D01*
X24290602Y-49620827D01*
X24230264Y-49766498D01*
X24230261Y-49766510D01*
X24199500Y-49921153D01*
X24199500Y-50078846D01*
X24230261Y-50233489D01*
X24230264Y-50233501D01*
X24290602Y-50379172D01*
X24290609Y-50379185D01*
X24378210Y-50510288D01*
X24378213Y-50510292D01*
X24489707Y-50621786D01*
X24489711Y-50621789D01*
X24620814Y-50709390D01*
X24620827Y-50709397D01*
X24766498Y-50769735D01*
X24766503Y-50769737D01*
X24921153Y-50800499D01*
X24921156Y-50800500D01*
X24921158Y-50800500D01*
X25078844Y-50800500D01*
X25078845Y-50800499D01*
X25233497Y-50769737D01*
X25379179Y-50709394D01*
X25510289Y-50621789D01*
X25621789Y-50510289D01*
X25709394Y-50379179D01*
X25769737Y-50233497D01*
X25783079Y-50166416D01*
X25815463Y-50104509D01*
X25816959Y-50102985D01*
X33718862Y-42201083D01*
X33780184Y-42167599D01*
X33849876Y-42172583D01*
X33905809Y-42214455D01*
X33930226Y-42279919D01*
X33926317Y-42320858D01*
X33899499Y-42420943D01*
X33899499Y-42589046D01*
X33899500Y-42589059D01*
X33899500Y-44102044D01*
X33879815Y-44169083D01*
X33827011Y-44214838D01*
X33799691Y-44223661D01*
X33766510Y-44230261D01*
X33766498Y-44230264D01*
X33620827Y-44290602D01*
X33620814Y-44290609D01*
X33489711Y-44378210D01*
X33489707Y-44378213D01*
X33378213Y-44489707D01*
X33378210Y-44489711D01*
X33290609Y-44620814D01*
X33290602Y-44620827D01*
X33230264Y-44766498D01*
X33230261Y-44766510D01*
X33199500Y-44921153D01*
X33199500Y-45078846D01*
X33230261Y-45233489D01*
X33230264Y-45233501D01*
X33290602Y-45379172D01*
X33290609Y-45379185D01*
X33378210Y-45510288D01*
X33378213Y-45510292D01*
X33489707Y-45621786D01*
X33489711Y-45621789D01*
X33620814Y-45709390D01*
X33620827Y-45709397D01*
X33758678Y-45766496D01*
X33766503Y-45769737D01*
X33903462Y-45796980D01*
X33921153Y-45800499D01*
X33921156Y-45800500D01*
X33921158Y-45800500D01*
X34078844Y-45800500D01*
X34078845Y-45800499D01*
X34233497Y-45769737D01*
X34286287Y-45747870D01*
X34355752Y-45740402D01*
X34418232Y-45771676D01*
X34453885Y-45831765D01*
X34451392Y-45901590D01*
X34421418Y-45950113D01*
X31494725Y-48876808D01*
X31494724Y-48876809D01*
X31473820Y-48908095D01*
X31453194Y-48938965D01*
X31438364Y-48961159D01*
X31423535Y-48983352D01*
X31423533Y-48983355D01*
X31374499Y-49101735D01*
X31374497Y-49101741D01*
X31349500Y-49227408D01*
X31349500Y-50582152D01*
X31329815Y-50649191D01*
X31277011Y-50694946D01*
X31249692Y-50703769D01*
X31116508Y-50730261D01*
X31116498Y-50730264D01*
X30970827Y-50790602D01*
X30970814Y-50790609D01*
X30839711Y-50878210D01*
X30839707Y-50878213D01*
X30728213Y-50989707D01*
X30728210Y-50989711D01*
X30640609Y-51120814D01*
X30640602Y-51120827D01*
X30580264Y-51266498D01*
X30580261Y-51266510D01*
X30549500Y-51421153D01*
X30549500Y-51578846D01*
X30580261Y-51733489D01*
X30580264Y-51733501D01*
X30640602Y-51879172D01*
X30640606Y-51879179D01*
X30678602Y-51936044D01*
X30699480Y-52002721D01*
X30699500Y-52004935D01*
X30699500Y-53007564D01*
X30679815Y-53074603D01*
X30678603Y-53076454D01*
X30640608Y-53133317D01*
X30640602Y-53133328D01*
X30580264Y-53278998D01*
X30580261Y-53279010D01*
X30549500Y-53433653D01*
X30549500Y-53591346D01*
X30580261Y-53745989D01*
X30580264Y-53746001D01*
X30640602Y-53891672D01*
X30640609Y-53891685D01*
X30728210Y-54022788D01*
X30728213Y-54022792D01*
X30839707Y-54134286D01*
X30839711Y-54134289D01*
X30970814Y-54221890D01*
X30970827Y-54221897D01*
X31116498Y-54282235D01*
X31116503Y-54282237D01*
X31226987Y-54304213D01*
X31249691Y-54308730D01*
X31311602Y-54341115D01*
X31346176Y-54401830D01*
X31349500Y-54430347D01*
X31349500Y-66891691D01*
X31329815Y-66958730D01*
X31313181Y-66979372D01*
X29813123Y-68479429D01*
X29751800Y-68512914D01*
X29706045Y-68514221D01*
X29613098Y-68499500D01*
X29613092Y-68499500D01*
X29376908Y-68499500D01*
X29376903Y-68499500D01*
X29143631Y-68536446D01*
X28919003Y-68609433D01*
X28708566Y-68716657D01*
X28619536Y-68781342D01*
X28517490Y-68855483D01*
X28517488Y-68855485D01*
X28517487Y-68855485D01*
X28350485Y-69022487D01*
X28350485Y-69022488D01*
X28350483Y-69022490D01*
X28296203Y-69097200D01*
X28211657Y-69213566D01*
X28104433Y-69424003D01*
X28031446Y-69648631D01*
X27994500Y-69881902D01*
X27994500Y-70118097D01*
X28031446Y-70351368D01*
X28104433Y-70575996D01*
X28159728Y-70684517D01*
X28211657Y-70786433D01*
X28350483Y-70977510D01*
X28517490Y-71144517D01*
X28708567Y-71283343D01*
X28807991Y-71334002D01*
X28919003Y-71390566D01*
X28919005Y-71390566D01*
X28919008Y-71390568D01*
X29039412Y-71429689D01*
X29143631Y-71463553D01*
X29376903Y-71500500D01*
X29376908Y-71500500D01*
X29613097Y-71500500D01*
X29846368Y-71463553D01*
X30070992Y-71390568D01*
X30281433Y-71283343D01*
X30472510Y-71144517D01*
X30639517Y-70977510D01*
X30664682Y-70942872D01*
X30720011Y-70900207D01*
X30789625Y-70894228D01*
X30851420Y-70926833D01*
X30865315Y-70942870D01*
X30890483Y-70977510D01*
X31057490Y-71144517D01*
X31248567Y-71283343D01*
X31347991Y-71334002D01*
X31459003Y-71390566D01*
X31459005Y-71390566D01*
X31459008Y-71390568D01*
X31579412Y-71429689D01*
X31683631Y-71463553D01*
X31916903Y-71500500D01*
X31916908Y-71500500D01*
X32153097Y-71500500D01*
X32386368Y-71463553D01*
X32610992Y-71390568D01*
X32821433Y-71283343D01*
X33012510Y-71144517D01*
X33179517Y-70977510D01*
X33318343Y-70786433D01*
X33425568Y-70575992D01*
X33498553Y-70351368D01*
X33502502Y-70326433D01*
X33535500Y-70118097D01*
X33535500Y-69881902D01*
X33498553Y-69648631D01*
X33425566Y-69424003D01*
X33357608Y-69290629D01*
X33330533Y-69237491D01*
X33330529Y-69237483D01*
X49474500Y-69237483D01*
X49474500Y-70837501D01*
X49474501Y-70837518D01*
X49485000Y-70940296D01*
X49485001Y-70940299D01*
X49505962Y-71003553D01*
X49540186Y-71106834D01*
X49632288Y-71256156D01*
X49756344Y-71380212D01*
X49905666Y-71472314D01*
X50072203Y-71527499D01*
X50174991Y-71538000D01*
X51775008Y-71537999D01*
X51877797Y-71527499D01*
X52044334Y-71472314D01*
X52193656Y-71380212D01*
X52317712Y-71256156D01*
X52409814Y-71106834D01*
X52464999Y-70940297D01*
X52475500Y-70837509D01*
X52475499Y-69237492D01*
X52464999Y-69134703D01*
X52409814Y-68968166D01*
X52317712Y-68818844D01*
X52193656Y-68694788D01*
X52044334Y-68602686D01*
X51877797Y-68547501D01*
X51877795Y-68547500D01*
X51775010Y-68537000D01*
X50174998Y-68537000D01*
X50174981Y-68537001D01*
X50072203Y-68547500D01*
X50072200Y-68547501D01*
X49905668Y-68602685D01*
X49905663Y-68602687D01*
X49756342Y-68694789D01*
X49632289Y-68818842D01*
X49540187Y-68968163D01*
X49540186Y-68968166D01*
X49485001Y-69134703D01*
X49485001Y-69134704D01*
X49485000Y-69134704D01*
X49474500Y-69237483D01*
X33330529Y-69237483D01*
X33318343Y-69213567D01*
X33179517Y-69022490D01*
X33179514Y-69022487D01*
X33176653Y-69018549D01*
X33177726Y-69017769D01*
X33151637Y-68959522D01*
X33150500Y-68942769D01*
X33150500Y-67998920D01*
X38549499Y-67998920D01*
X38578340Y-68143907D01*
X38578343Y-68143917D01*
X38634912Y-68280488D01*
X38634919Y-68280501D01*
X38717048Y-68403415D01*
X38717051Y-68403419D01*
X38821580Y-68507948D01*
X38821584Y-68507951D01*
X38944498Y-68590080D01*
X38944511Y-68590087D01*
X39081082Y-68646656D01*
X39081087Y-68646658D01*
X39081091Y-68646658D01*
X39081092Y-68646659D01*
X39226079Y-68675500D01*
X39226082Y-68675500D01*
X39373920Y-68675500D01*
X39471462Y-68656096D01*
X39518913Y-68646658D01*
X39655495Y-68590084D01*
X39778416Y-68507951D01*
X39882951Y-68403416D01*
X39965084Y-68280495D01*
X40021658Y-68143913D01*
X40050500Y-67998920D01*
X42949499Y-67998920D01*
X42978340Y-68143907D01*
X42978343Y-68143917D01*
X43034912Y-68280488D01*
X43034919Y-68280501D01*
X43117048Y-68403415D01*
X43117051Y-68403419D01*
X43221580Y-68507948D01*
X43221584Y-68507951D01*
X43344498Y-68590080D01*
X43344511Y-68590087D01*
X43481082Y-68646656D01*
X43481087Y-68646658D01*
X43481091Y-68646658D01*
X43481092Y-68646659D01*
X43626079Y-68675500D01*
X43626082Y-68675500D01*
X43773920Y-68675500D01*
X43871462Y-68656096D01*
X43918913Y-68646658D01*
X44055495Y-68590084D01*
X44178416Y-68507951D01*
X44282951Y-68403416D01*
X44365084Y-68280495D01*
X44421658Y-68143913D01*
X44450500Y-67998918D01*
X44450500Y-67851082D01*
X44450500Y-67851079D01*
X44421659Y-67706092D01*
X44421658Y-67706091D01*
X44421658Y-67706087D01*
X44367771Y-67575992D01*
X44365087Y-67569511D01*
X44365080Y-67569498D01*
X44282951Y-67446584D01*
X44282948Y-67446580D01*
X44178419Y-67342051D01*
X44178415Y-67342048D01*
X44055501Y-67259919D01*
X44055488Y-67259912D01*
X43918917Y-67203343D01*
X43918907Y-67203340D01*
X43773920Y-67174500D01*
X43773918Y-67174500D01*
X43626082Y-67174500D01*
X43626080Y-67174500D01*
X43481092Y-67203340D01*
X43481082Y-67203343D01*
X43344511Y-67259912D01*
X43344498Y-67259919D01*
X43221584Y-67342048D01*
X43221580Y-67342051D01*
X43117051Y-67446580D01*
X43117048Y-67446584D01*
X43034919Y-67569498D01*
X43034912Y-67569511D01*
X42978343Y-67706082D01*
X42978340Y-67706092D01*
X42949500Y-67851079D01*
X42949500Y-67851082D01*
X42949500Y-67998918D01*
X42949500Y-67998920D01*
X42949499Y-67998920D01*
X40050500Y-67998920D01*
X40050500Y-67998918D01*
X40050500Y-67851082D01*
X40050500Y-67851079D01*
X40021659Y-67706092D01*
X40021658Y-67706091D01*
X40021658Y-67706087D01*
X39967771Y-67575992D01*
X39965087Y-67569511D01*
X39965080Y-67569498D01*
X39882951Y-67446584D01*
X39882948Y-67446580D01*
X39778419Y-67342051D01*
X39778415Y-67342048D01*
X39655501Y-67259919D01*
X39655488Y-67259912D01*
X39518917Y-67203343D01*
X39518907Y-67203340D01*
X39373920Y-67174500D01*
X39373918Y-67174500D01*
X39226082Y-67174500D01*
X39226080Y-67174500D01*
X39081092Y-67203340D01*
X39081082Y-67203343D01*
X38944511Y-67259912D01*
X38944498Y-67259919D01*
X38821584Y-67342048D01*
X38821580Y-67342051D01*
X38717051Y-67446580D01*
X38717048Y-67446584D01*
X38634919Y-67569498D01*
X38634912Y-67569511D01*
X38578343Y-67706082D01*
X38578340Y-67706092D01*
X38549500Y-67851079D01*
X38549500Y-67851082D01*
X38549500Y-67998918D01*
X38549500Y-67998920D01*
X38549499Y-67998920D01*
X33150500Y-67998920D01*
X33150500Y-65146153D01*
X39099500Y-65146153D01*
X39099500Y-65303846D01*
X39130261Y-65458489D01*
X39130264Y-65458501D01*
X39190602Y-65604172D01*
X39190609Y-65604185D01*
X39278210Y-65735288D01*
X39278213Y-65735292D01*
X39389707Y-65846786D01*
X39389711Y-65846789D01*
X39520814Y-65934390D01*
X39520827Y-65934397D01*
X39666498Y-65994735D01*
X39666503Y-65994737D01*
X39806011Y-66022487D01*
X39821153Y-66025499D01*
X39821156Y-66025500D01*
X39821158Y-66025500D01*
X39978844Y-66025500D01*
X39978845Y-66025499D01*
X40133497Y-65994737D01*
X40279179Y-65934394D01*
X40410289Y-65846789D01*
X40521789Y-65735289D01*
X40609394Y-65604179D01*
X40669737Y-65458497D01*
X40700500Y-65303842D01*
X40700500Y-65146158D01*
X40700500Y-65146155D01*
X40700499Y-65146153D01*
X40669738Y-64991510D01*
X40669737Y-64991503D01*
X40669735Y-64991498D01*
X40609397Y-64845827D01*
X40609390Y-64845814D01*
X40521789Y-64714711D01*
X40521786Y-64714707D01*
X40410292Y-64603213D01*
X40410288Y-64603210D01*
X40279185Y-64515609D01*
X40279176Y-64515604D01*
X40236122Y-64497771D01*
X40181719Y-64453930D01*
X40159654Y-64387636D01*
X40176933Y-64319936D01*
X40228070Y-64272326D01*
X40236116Y-64268652D01*
X40286926Y-64247606D01*
X40379173Y-64209397D01*
X40379176Y-64209395D01*
X40379179Y-64209394D01*
X40510289Y-64121789D01*
X40621789Y-64010289D01*
X40709394Y-63879179D01*
X40769737Y-63733497D01*
X40800500Y-63578842D01*
X40800500Y-63470445D01*
X40820185Y-63403406D01*
X40872989Y-63357651D01*
X40942147Y-63347707D01*
X41005703Y-63376732D01*
X41039062Y-63422994D01*
X41041626Y-63429186D01*
X41041630Y-63429193D01*
X41129231Y-63560296D01*
X41129234Y-63560300D01*
X41240728Y-63671794D01*
X41240732Y-63671797D01*
X41371835Y-63759398D01*
X41371848Y-63759405D01*
X41515892Y-63819069D01*
X41570296Y-63862909D01*
X41583001Y-63886178D01*
X41642665Y-64030222D01*
X41642672Y-64030235D01*
X41730273Y-64161338D01*
X41730276Y-64161342D01*
X41841770Y-64272836D01*
X41841774Y-64272839D01*
X41972877Y-64360440D01*
X41972890Y-64360447D01*
X42118561Y-64420785D01*
X42118566Y-64420787D01*
X42273216Y-64451549D01*
X42273219Y-64451550D01*
X42273221Y-64451550D01*
X42430907Y-64451550D01*
X42430908Y-64451549D01*
X42585560Y-64420787D01*
X42731242Y-64360444D01*
X42862352Y-64272839D01*
X42973852Y-64161339D01*
X43061457Y-64030229D01*
X43121800Y-63884547D01*
X43126255Y-63862146D01*
X43148308Y-63751288D01*
X43163022Y-63723157D01*
X43176212Y-63694277D01*
X43179101Y-63692420D01*
X43180693Y-63689377D01*
X43208285Y-63673664D01*
X43234990Y-63656503D01*
X43239583Y-63655842D01*
X43241409Y-63654803D01*
X43269925Y-63651480D01*
X43348662Y-63651480D01*
X43348678Y-63651481D01*
X43356274Y-63651481D01*
X43514385Y-63651481D01*
X43514388Y-63651481D01*
X43667116Y-63610557D01*
X43747635Y-63564069D01*
X43754169Y-63560297D01*
X43804040Y-63531504D01*
X43804039Y-63531504D01*
X43804047Y-63531500D01*
X43915851Y-63419696D01*
X43915851Y-63419694D01*
X43926055Y-63409491D01*
X43926059Y-63409486D01*
X44419693Y-62915852D01*
X44419696Y-62915851D01*
X44531500Y-62804047D01*
X44581619Y-62717235D01*
X44610557Y-62667116D01*
X44651480Y-62514388D01*
X44651480Y-62356274D01*
X44651480Y-61969388D01*
X44671165Y-61902349D01*
X44671910Y-61901202D01*
X44678858Y-61890647D01*
X44705520Y-61863986D01*
X44770437Y-61751544D01*
X44772430Y-61748518D01*
X44796422Y-61728187D01*
X44819179Y-61706489D01*
X44822868Y-61705777D01*
X44825735Y-61703349D01*
X44856903Y-61699217D01*
X44887786Y-61693265D01*
X44891274Y-61694661D01*
X44894999Y-61694168D01*
X44923457Y-61707545D01*
X44952651Y-61719233D01*
X44954830Y-61722293D01*
X44958231Y-61723892D01*
X44974939Y-61750532D01*
X44993180Y-61776147D01*
X44993976Y-61780885D01*
X44995355Y-61783083D01*
X44995292Y-61788712D01*
X45000000Y-61816704D01*
X45000000Y-63000000D01*
X50250000Y-63000000D01*
X50250000Y-62421153D01*
X51199500Y-62421153D01*
X51199500Y-62578846D01*
X51230261Y-62733489D01*
X51230264Y-62733501D01*
X51290602Y-62879172D01*
X51290609Y-62879185D01*
X51378210Y-63010288D01*
X51378213Y-63010292D01*
X51489707Y-63121786D01*
X51489711Y-63121789D01*
X51620814Y-63209390D01*
X51620827Y-63209397D01*
X51758683Y-63266498D01*
X51766503Y-63269737D01*
X51921153Y-63300499D01*
X51921156Y-63300500D01*
X51921158Y-63300500D01*
X52078844Y-63300500D01*
X52078845Y-63300499D01*
X52233497Y-63269737D01*
X52379179Y-63209394D01*
X52510289Y-63121789D01*
X52621789Y-63010289D01*
X52709394Y-62879179D01*
X52769737Y-62733497D01*
X52783079Y-62666416D01*
X52815463Y-62604509D01*
X52816959Y-62602985D01*
X55505277Y-59914669D01*
X55576465Y-59808127D01*
X55608717Y-59730263D01*
X55625501Y-59689744D01*
X55634024Y-59646898D01*
X55650500Y-59564071D01*
X55650500Y-59504935D01*
X55670185Y-59437896D01*
X55671366Y-59436090D01*
X55709394Y-59379179D01*
X55769737Y-59233497D01*
X55800500Y-59078842D01*
X55800500Y-58921158D01*
X55800500Y-58921155D01*
X55800499Y-58921153D01*
X55774474Y-58790318D01*
X55769737Y-58766503D01*
X55763774Y-58752107D01*
X55709397Y-58620827D01*
X55709390Y-58620814D01*
X55621789Y-58489711D01*
X55621786Y-58489707D01*
X55510292Y-58378213D01*
X55510288Y-58378210D01*
X55379185Y-58290609D01*
X55379172Y-58290602D01*
X55233501Y-58230264D01*
X55233489Y-58230261D01*
X55078845Y-58199500D01*
X55078842Y-58199500D01*
X54921158Y-58199500D01*
X54921155Y-58199500D01*
X54766510Y-58230261D01*
X54766498Y-58230264D01*
X54620827Y-58290602D01*
X54620814Y-58290609D01*
X54489711Y-58378210D01*
X54489707Y-58378213D01*
X54378213Y-58489707D01*
X54378210Y-58489711D01*
X54290609Y-58620814D01*
X54290602Y-58620827D01*
X54230264Y-58766498D01*
X54230261Y-58766510D01*
X54199500Y-58921153D01*
X54199500Y-59078846D01*
X54230260Y-59233488D01*
X54230263Y-59233496D01*
X54232621Y-59239190D01*
X54240084Y-59308660D01*
X54208805Y-59371137D01*
X54205737Y-59374315D01*
X51897068Y-61682984D01*
X51835745Y-61716469D01*
X51833579Y-61716920D01*
X51766508Y-61730261D01*
X51766498Y-61730264D01*
X51620827Y-61790602D01*
X51620814Y-61790609D01*
X51489711Y-61878210D01*
X51489707Y-61878213D01*
X51378213Y-61989707D01*
X51378210Y-61989711D01*
X51290609Y-62120814D01*
X51290602Y-62120827D01*
X51230264Y-62266498D01*
X51230261Y-62266510D01*
X51199500Y-62421153D01*
X50250000Y-62421153D01*
X50250000Y-58500000D01*
X45000000Y-58500000D01*
X44949500Y-58500000D01*
X44882461Y-58480315D01*
X44836706Y-58427511D01*
X44825500Y-58376000D01*
X44825500Y-56213499D01*
X44845185Y-56146460D01*
X44897989Y-56100705D01*
X44925309Y-56091882D01*
X44961025Y-56084777D01*
X45034018Y-56070258D01*
X45179700Y-56009915D01*
X45310810Y-55922310D01*
X45422310Y-55810810D01*
X45509915Y-55679700D01*
X45570258Y-55534018D01*
X45601021Y-55379363D01*
X45601021Y-55221679D01*
X45601021Y-55221676D01*
X45601020Y-55221674D01*
X45591738Y-55175010D01*
X45570258Y-55067024D01*
X45511960Y-54926279D01*
X45509918Y-54921348D01*
X45509911Y-54921335D01*
X45422310Y-54790232D01*
X45422307Y-54790228D01*
X45310813Y-54678734D01*
X45310809Y-54678731D01*
X45179706Y-54591130D01*
X45179693Y-54591123D01*
X45035649Y-54531459D01*
X44981245Y-54487618D01*
X44968540Y-54464350D01*
X44908876Y-54320306D01*
X44908869Y-54320293D01*
X44821268Y-54189190D01*
X44821265Y-54189186D01*
X44709771Y-54077692D01*
X44709767Y-54077689D01*
X44578664Y-53990088D01*
X44578651Y-53990081D01*
X44432980Y-53929743D01*
X44432968Y-53929740D01*
X44278324Y-53898979D01*
X44278321Y-53898979D01*
X44120637Y-53898979D01*
X44120634Y-53898979D01*
X43965989Y-53929740D01*
X43965977Y-53929743D01*
X43820306Y-53990081D01*
X43820293Y-53990088D01*
X43689190Y-54077689D01*
X43689186Y-54077692D01*
X43577692Y-54189186D01*
X43577689Y-54189190D01*
X43490088Y-54320293D01*
X43490081Y-54320306D01*
X43429743Y-54465977D01*
X43429740Y-54465989D01*
X43398979Y-54620632D01*
X43398979Y-54778325D01*
X43411808Y-54842820D01*
X43411788Y-54843033D01*
X43411888Y-54843225D01*
X43408677Y-54877802D01*
X43405581Y-54912412D01*
X43405442Y-54912654D01*
X43405429Y-54912796D01*
X43404912Y-54913580D01*
X43387862Y-54943407D01*
X43383207Y-54949357D01*
X43294480Y-55038085D01*
X43244360Y-55124896D01*
X43240009Y-55132431D01*
X43240005Y-55132437D01*
X43215425Y-55175010D01*
X43215424Y-55175011D01*
X43215423Y-55175016D01*
X43174499Y-55327744D01*
X43174499Y-55327746D01*
X43174499Y-55495847D01*
X43174500Y-55495860D01*
X43174500Y-58075500D01*
X43154815Y-58142539D01*
X43102011Y-58188294D01*
X43050500Y-58199500D01*
X42921155Y-58199500D01*
X42766510Y-58230261D01*
X42766498Y-58230264D01*
X42620827Y-58290602D01*
X42620814Y-58290609D01*
X42489711Y-58378210D01*
X42489707Y-58378213D01*
X42462681Y-58405240D01*
X42401358Y-58438725D01*
X42331666Y-58433741D01*
X42287319Y-58405240D01*
X42260292Y-58378213D01*
X42260288Y-58378210D01*
X42129185Y-58290609D01*
X42129172Y-58290602D01*
X41983501Y-58230264D01*
X41983489Y-58230261D01*
X41828845Y-58199500D01*
X41828842Y-58199500D01*
X41671158Y-58199500D01*
X41671155Y-58199500D01*
X41516510Y-58230261D01*
X41516498Y-58230264D01*
X41370827Y-58290602D01*
X41370814Y-58290609D01*
X41239711Y-58378210D01*
X41239707Y-58378213D01*
X41128213Y-58489707D01*
X41128210Y-58489711D01*
X41040609Y-58620814D01*
X41040602Y-58620827D01*
X40989561Y-58744054D01*
X40945720Y-58798458D01*
X40879426Y-58820523D01*
X40811727Y-58803244D01*
X40764116Y-58752107D01*
X40760439Y-58744054D01*
X40709397Y-58620827D01*
X40709390Y-58620814D01*
X40621789Y-58489711D01*
X40621786Y-58489707D01*
X40510292Y-58378213D01*
X40510288Y-58378210D01*
X40379185Y-58290609D01*
X40379172Y-58290602D01*
X40233501Y-58230264D01*
X40233489Y-58230261D01*
X40078845Y-58199500D01*
X40078842Y-58199500D01*
X39921158Y-58199500D01*
X39921155Y-58199500D01*
X39766510Y-58230261D01*
X39766498Y-58230264D01*
X39620827Y-58290602D01*
X39620814Y-58290609D01*
X39489711Y-58378210D01*
X39489707Y-58378213D01*
X39378213Y-58489707D01*
X39378210Y-58489711D01*
X39290609Y-58620814D01*
X39290602Y-58620827D01*
X39230264Y-58766498D01*
X39230261Y-58766510D01*
X39199500Y-58921153D01*
X39199500Y-59078846D01*
X39230261Y-59233489D01*
X39230264Y-59233501D01*
X39290602Y-59379172D01*
X39290609Y-59379185D01*
X39378210Y-59510288D01*
X39378213Y-59510292D01*
X39489707Y-59621786D01*
X39527289Y-59646898D01*
X39572093Y-59700511D01*
X39580800Y-59769836D01*
X39550645Y-59832863D01*
X39527289Y-59853102D01*
X39489707Y-59878213D01*
X39378213Y-59989707D01*
X39378210Y-59989711D01*
X39290609Y-60120814D01*
X39290602Y-60120827D01*
X39230264Y-60266498D01*
X39230261Y-60266510D01*
X39199500Y-60421153D01*
X39199500Y-60578846D01*
X39230261Y-60733489D01*
X39230264Y-60733501D01*
X39290602Y-60879172D01*
X39290609Y-60879185D01*
X39378210Y-61010288D01*
X39378213Y-61010292D01*
X39489707Y-61121786D01*
X39527289Y-61146898D01*
X39572093Y-61200511D01*
X39580800Y-61269836D01*
X39550645Y-61332863D01*
X39527289Y-61353102D01*
X39489707Y-61378213D01*
X39378213Y-61489707D01*
X39378210Y-61489711D01*
X39290609Y-61620814D01*
X39290602Y-61620827D01*
X39230264Y-61766498D01*
X39230261Y-61766510D01*
X39199500Y-61921153D01*
X39199500Y-62078846D01*
X39230261Y-62233489D01*
X39230264Y-62233501D01*
X39290602Y-62379172D01*
X39290609Y-62379185D01*
X39378210Y-62510288D01*
X39378213Y-62510292D01*
X39489707Y-62621786D01*
X39489710Y-62621788D01*
X39489711Y-62621789D01*
X39501293Y-62629528D01*
X39527289Y-62646898D01*
X39572093Y-62700511D01*
X39580800Y-62769836D01*
X39550645Y-62832863D01*
X39527289Y-62853102D01*
X39489707Y-62878213D01*
X39378213Y-62989707D01*
X39378210Y-62989711D01*
X39290609Y-63120814D01*
X39290602Y-63120827D01*
X39230264Y-63266498D01*
X39230261Y-63266510D01*
X39199500Y-63421153D01*
X39199500Y-63578846D01*
X39230261Y-63733489D01*
X39230264Y-63733501D01*
X39290602Y-63879172D01*
X39290609Y-63879185D01*
X39378210Y-64010288D01*
X39378213Y-64010292D01*
X39489707Y-64121786D01*
X39489711Y-64121789D01*
X39620814Y-64209390D01*
X39620818Y-64209392D01*
X39620821Y-64209394D01*
X39663878Y-64227228D01*
X39718279Y-64271068D01*
X39740345Y-64337362D01*
X39723066Y-64405061D01*
X39671930Y-64452672D01*
X39663877Y-64456350D01*
X39520823Y-64515604D01*
X39520814Y-64515609D01*
X39389711Y-64603210D01*
X39389707Y-64603213D01*
X39278213Y-64714707D01*
X39278210Y-64714711D01*
X39190609Y-64845814D01*
X39190602Y-64845827D01*
X39130264Y-64991498D01*
X39130261Y-64991510D01*
X39099500Y-65146153D01*
X33150500Y-65146153D01*
X33150500Y-49820808D01*
X33159144Y-49791367D01*
X33163542Y-49771153D01*
X35199500Y-49771153D01*
X35199500Y-49928846D01*
X35230261Y-50083489D01*
X35230264Y-50083501D01*
X35290602Y-50229172D01*
X35290609Y-50229185D01*
X35378210Y-50360288D01*
X35378213Y-50360292D01*
X35489707Y-50471786D01*
X35489711Y-50471789D01*
X35620814Y-50559390D01*
X35620827Y-50559397D01*
X35766498Y-50619735D01*
X35766503Y-50619737D01*
X35914577Y-50649191D01*
X35921153Y-50650499D01*
X35921156Y-50650500D01*
X35921158Y-50650500D01*
X36078844Y-50650500D01*
X36078845Y-50650499D01*
X36233497Y-50619737D01*
X36379179Y-50559394D01*
X36510289Y-50471789D01*
X36621789Y-50360289D01*
X36709394Y-50229179D01*
X36769737Y-50083497D01*
X36800500Y-49928842D01*
X36800500Y-49771158D01*
X36800500Y-49771155D01*
X36800499Y-49771153D01*
X36770596Y-49620821D01*
X36769737Y-49616503D01*
X36732866Y-49527487D01*
X36709397Y-49470828D01*
X36709396Y-49470827D01*
X36709394Y-49470821D01*
X36671396Y-49413953D01*
X36650520Y-49347276D01*
X36650500Y-49345064D01*
X36650500Y-48820806D01*
X36659144Y-48791365D01*
X36665668Y-48761379D01*
X36669422Y-48756363D01*
X36670185Y-48753767D01*
X36686810Y-48733134D01*
X36852931Y-48567012D01*
X36914251Y-48533530D01*
X36916330Y-48533096D01*
X36983497Y-48519737D01*
X37129179Y-48459394D01*
X37186411Y-48421153D01*
X42699500Y-48421153D01*
X42699500Y-48578846D01*
X42730261Y-48733489D01*
X42730264Y-48733501D01*
X42790602Y-48879172D01*
X42790609Y-48879185D01*
X42878210Y-49010288D01*
X42878213Y-49010292D01*
X42989707Y-49121786D01*
X42989711Y-49121789D01*
X43120814Y-49209390D01*
X43120827Y-49209397D01*
X43266498Y-49269735D01*
X43266503Y-49269737D01*
X43421153Y-49300499D01*
X43421156Y-49300500D01*
X43421158Y-49300500D01*
X43578844Y-49300500D01*
X43578845Y-49300499D01*
X43733497Y-49269737D01*
X43846166Y-49223067D01*
X43879172Y-49209397D01*
X43879172Y-49209396D01*
X43879179Y-49209394D01*
X44010289Y-49121789D01*
X44121789Y-49010289D01*
X44209394Y-48879179D01*
X44269737Y-48733497D01*
X44300500Y-48578842D01*
X44300500Y-48421158D01*
X44300500Y-48421155D01*
X44276750Y-48301758D01*
X44276750Y-48301757D01*
X44273148Y-48283653D01*
X46699500Y-48283653D01*
X46699500Y-48441346D01*
X46730261Y-48595989D01*
X46730264Y-48596001D01*
X46790602Y-48741672D01*
X46790609Y-48741685D01*
X46878210Y-48872788D01*
X46878213Y-48872792D01*
X46989707Y-48984286D01*
X46989711Y-48984289D01*
X47120814Y-49071890D01*
X47120827Y-49071897D01*
X47211656Y-49109519D01*
X47266503Y-49132237D01*
X47421153Y-49162999D01*
X47421156Y-49163000D01*
X47421158Y-49163000D01*
X47578844Y-49163000D01*
X47578845Y-49162999D01*
X47733497Y-49132237D01*
X47879179Y-49071894D01*
X48010289Y-48984289D01*
X48121789Y-48872789D01*
X48209394Y-48741679D01*
X48269737Y-48595997D01*
X48300500Y-48441342D01*
X48300500Y-48283658D01*
X48300500Y-48283655D01*
X48300499Y-48283653D01*
X48282243Y-48191874D01*
X48269737Y-48129003D01*
X48269735Y-48128998D01*
X48209397Y-47983327D01*
X48209390Y-47983314D01*
X48121789Y-47852211D01*
X48121786Y-47852207D01*
X48010292Y-47740713D01*
X48010288Y-47740710D01*
X47879185Y-47653109D01*
X47879172Y-47653102D01*
X47733501Y-47592764D01*
X47733489Y-47592761D01*
X47578845Y-47562000D01*
X47578842Y-47562000D01*
X47421158Y-47562000D01*
X47421155Y-47562000D01*
X47266510Y-47592761D01*
X47266498Y-47592764D01*
X47120827Y-47653102D01*
X47120814Y-47653109D01*
X46989711Y-47740710D01*
X46989707Y-47740713D01*
X46878213Y-47852207D01*
X46878210Y-47852211D01*
X46790609Y-47983314D01*
X46790602Y-47983327D01*
X46730264Y-48128998D01*
X46730261Y-48129010D01*
X46699500Y-48283653D01*
X44273148Y-48283653D01*
X44269738Y-48266510D01*
X44269737Y-48266503D01*
X44238825Y-48191874D01*
X44209397Y-48120827D01*
X44209390Y-48120814D01*
X44121789Y-47989711D01*
X44121786Y-47989707D01*
X44010292Y-47878213D01*
X44010288Y-47878210D01*
X43879185Y-47790609D01*
X43879172Y-47790602D01*
X43733501Y-47730264D01*
X43733489Y-47730261D01*
X43578845Y-47699500D01*
X43578842Y-47699500D01*
X43421158Y-47699500D01*
X43421155Y-47699500D01*
X43266510Y-47730261D01*
X43266498Y-47730264D01*
X43120827Y-47790602D01*
X43120814Y-47790609D01*
X42989711Y-47878210D01*
X42989707Y-47878213D01*
X42878213Y-47989707D01*
X42878210Y-47989711D01*
X42790609Y-48120814D01*
X42790602Y-48120827D01*
X42730264Y-48266498D01*
X42730261Y-48266510D01*
X42699500Y-48421153D01*
X37186411Y-48421153D01*
X37260289Y-48371789D01*
X37260292Y-48371786D01*
X37304694Y-48327385D01*
X37371786Y-48260292D01*
X37371789Y-48260289D01*
X37459394Y-48129179D01*
X37462854Y-48120827D01*
X37517163Y-47989711D01*
X37519737Y-47983497D01*
X37550500Y-47828842D01*
X37550500Y-47671158D01*
X37550500Y-47671155D01*
X37550499Y-47671153D01*
X37534906Y-47592761D01*
X37519737Y-47516503D01*
X37519735Y-47516498D01*
X37459397Y-47370827D01*
X37459390Y-47370814D01*
X37371789Y-47239711D01*
X37371786Y-47239707D01*
X37260292Y-47128213D01*
X37260288Y-47128210D01*
X37129185Y-47040609D01*
X37129172Y-47040602D01*
X36983501Y-46980264D01*
X36983489Y-46980261D01*
X36828845Y-46949500D01*
X36828842Y-46949500D01*
X36671158Y-46949500D01*
X36671155Y-46949500D01*
X36516510Y-46980261D01*
X36516498Y-46980264D01*
X36370827Y-47040602D01*
X36370814Y-47040609D01*
X36239711Y-47128210D01*
X36239707Y-47128213D01*
X36128213Y-47239707D01*
X36128210Y-47239711D01*
X36040609Y-47370814D01*
X36040602Y-47370827D01*
X35980264Y-47516498D01*
X35980261Y-47516508D01*
X35966920Y-47583580D01*
X35934535Y-47645491D01*
X35932984Y-47647069D01*
X35494727Y-48085325D01*
X35494726Y-48085326D01*
X35423534Y-48191874D01*
X35374499Y-48310255D01*
X35374497Y-48310261D01*
X35349500Y-48435928D01*
X35349500Y-49345064D01*
X35329815Y-49412103D01*
X35328603Y-49413954D01*
X35290608Y-49470817D01*
X35290602Y-49470828D01*
X35230264Y-49616498D01*
X35230261Y-49616510D01*
X35199500Y-49771153D01*
X33163542Y-49771153D01*
X33165668Y-49761381D01*
X33169422Y-49756365D01*
X33170185Y-49753769D01*
X33186819Y-49733127D01*
X38733127Y-44186819D01*
X38794450Y-44153334D01*
X38820808Y-44150500D01*
X41064071Y-44150500D01*
X41148615Y-44133682D01*
X41189744Y-44125501D01*
X41308127Y-44076465D01*
X41414669Y-44005277D01*
X41589140Y-43830805D01*
X41650458Y-43797323D01*
X41720150Y-43802307D01*
X41776083Y-43844178D01*
X41786043Y-43861661D01*
X41786704Y-43861309D01*
X41789577Y-43866685D01*
X41877178Y-43997788D01*
X41877181Y-43997792D01*
X41988675Y-44109286D01*
X41988679Y-44109289D01*
X42119782Y-44196890D01*
X42119795Y-44196897D01*
X42265466Y-44257235D01*
X42265471Y-44257237D01*
X42420121Y-44287999D01*
X42420124Y-44288000D01*
X42420126Y-44288000D01*
X42577812Y-44288000D01*
X42577813Y-44287999D01*
X42732465Y-44257237D01*
X42872867Y-44199080D01*
X42942334Y-44191612D01*
X43004814Y-44222887D01*
X43007999Y-44225961D01*
X43273143Y-44491105D01*
X43306628Y-44552428D01*
X43301644Y-44622120D01*
X43259772Y-44678053D01*
X43220057Y-44697862D01*
X43083609Y-44737503D01*
X43083606Y-44737505D01*
X42944315Y-44819881D01*
X42944307Y-44819887D01*
X42829887Y-44934307D01*
X42829881Y-44934315D01*
X42747505Y-45073606D01*
X42747504Y-45073609D01*
X42702357Y-45229002D01*
X42702356Y-45229008D01*
X42699500Y-45265302D01*
X42699500Y-45308399D01*
X42697117Y-45332590D01*
X42679500Y-45421154D01*
X42679500Y-45575500D01*
X42659815Y-45642539D01*
X42607011Y-45688294D01*
X42555500Y-45699500D01*
X42421155Y-45699500D01*
X42266510Y-45730261D01*
X42266498Y-45730264D01*
X42120827Y-45790602D01*
X42120814Y-45790609D01*
X41989711Y-45878210D01*
X41989707Y-45878213D01*
X41878213Y-45989707D01*
X41878210Y-45989711D01*
X41790609Y-46120814D01*
X41790602Y-46120827D01*
X41730264Y-46266498D01*
X41730261Y-46266510D01*
X41699500Y-46421153D01*
X41699500Y-46578846D01*
X41730261Y-46733489D01*
X41730264Y-46733501D01*
X41790602Y-46879172D01*
X41790609Y-46879185D01*
X41878210Y-47010288D01*
X41878213Y-47010292D01*
X41989707Y-47121786D01*
X41989711Y-47121789D01*
X42120814Y-47209390D01*
X42120827Y-47209397D01*
X42194013Y-47239711D01*
X42266503Y-47269737D01*
X42421153Y-47300499D01*
X42421156Y-47300500D01*
X42421158Y-47300500D01*
X42578844Y-47300500D01*
X42578845Y-47300499D01*
X42733497Y-47269737D01*
X42879179Y-47209394D01*
X42936044Y-47171397D01*
X43002721Y-47150520D01*
X43004935Y-47150500D01*
X46909893Y-47150500D01*
X47021947Y-47128210D01*
X47035566Y-47125501D01*
X47153949Y-47076465D01*
X47260491Y-47005277D01*
X50505276Y-43760492D01*
X50576465Y-43653949D01*
X50625501Y-43535566D01*
X50632476Y-43500500D01*
X50650500Y-43409891D01*
X50650500Y-42577540D01*
X53294200Y-42577540D01*
X53294200Y-42724459D01*
X53322858Y-42868534D01*
X53322861Y-42868544D01*
X53379078Y-43004266D01*
X53379083Y-43004275D01*
X53460698Y-43126419D01*
X53460701Y-43126423D01*
X53564576Y-43230298D01*
X53564580Y-43230301D01*
X53686724Y-43311916D01*
X53686730Y-43311919D01*
X53686731Y-43311920D01*
X53822458Y-43368140D01*
X53966540Y-43396799D01*
X53966544Y-43396800D01*
X53966545Y-43396800D01*
X54113456Y-43396800D01*
X54113457Y-43396799D01*
X54257542Y-43368140D01*
X54393269Y-43311920D01*
X54515420Y-43230301D01*
X54619301Y-43126420D01*
X54700920Y-43004269D01*
X54757140Y-42868542D01*
X54785800Y-42724455D01*
X54785800Y-42577545D01*
X54757140Y-42433458D01*
X54700920Y-42297731D01*
X54700919Y-42297730D01*
X54700916Y-42297724D01*
X54619301Y-42175580D01*
X54619298Y-42175576D01*
X54515423Y-42071701D01*
X54515419Y-42071698D01*
X54393275Y-41990083D01*
X54393266Y-41990078D01*
X54257544Y-41933861D01*
X54257545Y-41933861D01*
X54257542Y-41933860D01*
X54257538Y-41933859D01*
X54257534Y-41933858D01*
X54113459Y-41905200D01*
X54113455Y-41905200D01*
X53966545Y-41905200D01*
X53966540Y-41905200D01*
X53822465Y-41933858D01*
X53822455Y-41933861D01*
X53686733Y-41990078D01*
X53686724Y-41990083D01*
X53564580Y-42071698D01*
X53564576Y-42071701D01*
X53460701Y-42175576D01*
X53460698Y-42175580D01*
X53379083Y-42297724D01*
X53379078Y-42297733D01*
X53322861Y-42433455D01*
X53322858Y-42433465D01*
X53294200Y-42577540D01*
X50650500Y-42577540D01*
X50650500Y-40654935D01*
X50654419Y-40639951D01*
X50653656Y-40627136D01*
X50664098Y-40602950D01*
X50666383Y-40594216D01*
X50668729Y-40590037D01*
X50698462Y-40545540D01*
X53294200Y-40545540D01*
X53294200Y-40692459D01*
X53322858Y-40836534D01*
X53322861Y-40836544D01*
X53379078Y-40972266D01*
X53379083Y-40972275D01*
X53460698Y-41094419D01*
X53460701Y-41094423D01*
X53564576Y-41198298D01*
X53564580Y-41198301D01*
X53686724Y-41279916D01*
X53686733Y-41279921D01*
X53711800Y-41290304D01*
X53822458Y-41336140D01*
X53945978Y-41360709D01*
X53966540Y-41364799D01*
X53966544Y-41364800D01*
X53966545Y-41364800D01*
X54113456Y-41364800D01*
X54113457Y-41364799D01*
X54257542Y-41336140D01*
X54393269Y-41279920D01*
X54515420Y-41198301D01*
X54619301Y-41094420D01*
X54700920Y-40972269D01*
X54738351Y-40881902D01*
X55499500Y-40881902D01*
X55499500Y-41118097D01*
X55536446Y-41351368D01*
X55609433Y-41575996D01*
X55692423Y-41738871D01*
X55716657Y-41786433D01*
X55855483Y-41977510D01*
X56022490Y-42144517D01*
X56213567Y-42283343D01*
X56299663Y-42327211D01*
X56424003Y-42390566D01*
X56424005Y-42390566D01*
X56424008Y-42390568D01*
X56544412Y-42429689D01*
X56648631Y-42463553D01*
X56881903Y-42500500D01*
X56881908Y-42500500D01*
X57118097Y-42500500D01*
X57351368Y-42463553D01*
X57367492Y-42458314D01*
X57575992Y-42390568D01*
X57786433Y-42283343D01*
X57977510Y-42144517D01*
X58144517Y-41977510D01*
X58283343Y-41786433D01*
X58390568Y-41575992D01*
X58463553Y-41351368D01*
X58473177Y-41290606D01*
X58500500Y-41118097D01*
X58500500Y-40881902D01*
X58463553Y-40648631D01*
X58424738Y-40529172D01*
X58390568Y-40424008D01*
X58390566Y-40424005D01*
X58390566Y-40424003D01*
X58329166Y-40303500D01*
X58283343Y-40213567D01*
X58144517Y-40022490D01*
X57977510Y-39855483D01*
X57786433Y-39716657D01*
X57753932Y-39700097D01*
X57575996Y-39609433D01*
X57351368Y-39536446D01*
X57118097Y-39499500D01*
X57118092Y-39499500D01*
X56881908Y-39499500D01*
X56881903Y-39499500D01*
X56648631Y-39536446D01*
X56424003Y-39609433D01*
X56213566Y-39716657D01*
X56190383Y-39733501D01*
X56022490Y-39855483D01*
X56022488Y-39855485D01*
X56022487Y-39855485D01*
X55855485Y-40022487D01*
X55855485Y-40022488D01*
X55855483Y-40022490D01*
X55820904Y-40070084D01*
X55716657Y-40213566D01*
X55609433Y-40424003D01*
X55536446Y-40648631D01*
X55499500Y-40881902D01*
X54738351Y-40881902D01*
X54757140Y-40836542D01*
X54785800Y-40692455D01*
X54785800Y-40545545D01*
X54757140Y-40401458D01*
X54700920Y-40265731D01*
X54700919Y-40265730D01*
X54700916Y-40265724D01*
X54619301Y-40143580D01*
X54619298Y-40143576D01*
X54515423Y-40039701D01*
X54515419Y-40039698D01*
X54393275Y-39958083D01*
X54393266Y-39958078D01*
X54257544Y-39901861D01*
X54257545Y-39901861D01*
X54257542Y-39901860D01*
X54257538Y-39901859D01*
X54257534Y-39901858D01*
X54113459Y-39873200D01*
X54113455Y-39873200D01*
X53966545Y-39873200D01*
X53966540Y-39873200D01*
X53822465Y-39901858D01*
X53822455Y-39901861D01*
X53686733Y-39958078D01*
X53686724Y-39958083D01*
X53564580Y-40039698D01*
X53564576Y-40039701D01*
X53460701Y-40143576D01*
X53460698Y-40143580D01*
X53379083Y-40265724D01*
X53379078Y-40265733D01*
X53322861Y-40401455D01*
X53322858Y-40401465D01*
X53294200Y-40545540D01*
X50698462Y-40545540D01*
X50709394Y-40529179D01*
X50769737Y-40383497D01*
X50778425Y-40339819D01*
X50796231Y-40250308D01*
X50828616Y-40188397D01*
X50889332Y-40153823D01*
X50917848Y-40150500D01*
X51995065Y-40150500D01*
X52062104Y-40170185D01*
X52063909Y-40171366D01*
X52120821Y-40209394D01*
X52120823Y-40209395D01*
X52120827Y-40209397D01*
X52256836Y-40265733D01*
X52266503Y-40269737D01*
X52410767Y-40298433D01*
X52421153Y-40300499D01*
X52421156Y-40300500D01*
X52421158Y-40300500D01*
X52578844Y-40300500D01*
X52578845Y-40300499D01*
X52733497Y-40269737D01*
X52856142Y-40218936D01*
X52879172Y-40209397D01*
X52879172Y-40209396D01*
X52879179Y-40209394D01*
X53010289Y-40121789D01*
X53121789Y-40010289D01*
X53209394Y-39879179D01*
X53269737Y-39733497D01*
X53300500Y-39578842D01*
X53300500Y-39421158D01*
X53300500Y-39421155D01*
X53300499Y-39421153D01*
X53291421Y-39375515D01*
X53269737Y-39266503D01*
X53256062Y-39233489D01*
X53230159Y-39170952D01*
X53222690Y-39101483D01*
X53253965Y-39039004D01*
X53314054Y-39003352D01*
X53344720Y-38999500D01*
X55935931Y-38999500D01*
X57611152Y-38999500D01*
X57678191Y-39019185D01*
X57698833Y-39035819D01*
X58813181Y-40150167D01*
X58846666Y-40211490D01*
X58849500Y-40237848D01*
X58849500Y-55817059D01*
X58829815Y-55884098D01*
X58813181Y-55904740D01*
X58728213Y-55989707D01*
X58728210Y-55989711D01*
X58640609Y-56120814D01*
X58640602Y-56120827D01*
X58580264Y-56266498D01*
X58580261Y-56266510D01*
X58549500Y-56421153D01*
X58549500Y-56578846D01*
X58580261Y-56733489D01*
X58580264Y-56733501D01*
X58640602Y-56879172D01*
X58640609Y-56879185D01*
X58728210Y-57010288D01*
X58728213Y-57010292D01*
X58839707Y-57121786D01*
X58839711Y-57121789D01*
X58970814Y-57209390D01*
X58970827Y-57209397D01*
X59116498Y-57269735D01*
X59116503Y-57269737D01*
X59226987Y-57291713D01*
X59249691Y-57296230D01*
X59311602Y-57328615D01*
X59346176Y-57389330D01*
X59349500Y-57417847D01*
X59349500Y-62564069D01*
X59349500Y-62564071D01*
X59349499Y-62564071D01*
X59372572Y-62680057D01*
X59372573Y-62680061D01*
X59374498Y-62689742D01*
X59416278Y-62790606D01*
X59423535Y-62808127D01*
X59471005Y-62879172D01*
X59494726Y-62914673D01*
X59494727Y-62914674D01*
X63029859Y-66449805D01*
X63063344Y-66511128D01*
X63060109Y-66575803D01*
X63036447Y-66648628D01*
X62999500Y-66881902D01*
X62999500Y-67118097D01*
X63036446Y-67351368D01*
X63109433Y-67575996D01*
X63175721Y-67706092D01*
X63216657Y-67786433D01*
X63355483Y-67977510D01*
X63522490Y-68144517D01*
X63557127Y-68169683D01*
X63599792Y-68225013D01*
X63605771Y-68294626D01*
X63573165Y-68356421D01*
X63557130Y-68370315D01*
X63539365Y-68383222D01*
X63522488Y-68395484D01*
X63355485Y-68562487D01*
X63355485Y-68562488D01*
X63355483Y-68562490D01*
X63335438Y-68590080D01*
X63216657Y-68753566D01*
X63109433Y-68964003D01*
X63036446Y-69188631D01*
X62999500Y-69421902D01*
X62999500Y-69658097D01*
X63036446Y-69891368D01*
X63109433Y-70115996D01*
X63216657Y-70326433D01*
X63355483Y-70517510D01*
X63522490Y-70684517D01*
X63713567Y-70823343D01*
X63812991Y-70874002D01*
X63924003Y-70930566D01*
X63924005Y-70930566D01*
X63924008Y-70930568D01*
X64044412Y-70969689D01*
X64148631Y-71003553D01*
X64381903Y-71040500D01*
X64381908Y-71040500D01*
X64618097Y-71040500D01*
X64851368Y-71003553D01*
X65075992Y-70930568D01*
X65286433Y-70823343D01*
X65477510Y-70684517D01*
X65644517Y-70517510D01*
X65783343Y-70326433D01*
X65890568Y-70115992D01*
X65963553Y-69891368D01*
X65965052Y-69881902D01*
X66000500Y-69658097D01*
X66000500Y-69421902D01*
X65963553Y-69188631D01*
X65909569Y-69022487D01*
X65890568Y-68964008D01*
X65890566Y-68964005D01*
X65890566Y-68964003D01*
X65783342Y-68753566D01*
X65756526Y-68716657D01*
X65644517Y-68562490D01*
X65477510Y-68395483D01*
X65442872Y-68370317D01*
X65400207Y-68314989D01*
X65394228Y-68245375D01*
X65426833Y-68183580D01*
X65442873Y-68169682D01*
X65477510Y-68144517D01*
X65644517Y-67977510D01*
X65783343Y-67786433D01*
X65890568Y-67575992D01*
X65963553Y-67351368D01*
X65978037Y-67259919D01*
X66000500Y-67118097D01*
X66000500Y-66881902D01*
X65963553Y-66648631D01*
X65918875Y-66511128D01*
X65890568Y-66424008D01*
X65890566Y-66424005D01*
X65890566Y-66424003D01*
X65783342Y-66213566D01*
X65644517Y-66022490D01*
X65477510Y-65855483D01*
X65286433Y-65716657D01*
X65075996Y-65609433D01*
X64851368Y-65536446D01*
X64618097Y-65499500D01*
X64618092Y-65499500D01*
X64381908Y-65499500D01*
X64381903Y-65499500D01*
X64148628Y-65536447D01*
X64075803Y-65560109D01*
X64005962Y-65562104D01*
X63949805Y-65529859D01*
X60686819Y-62266873D01*
X60653334Y-62205550D01*
X60650500Y-62179192D01*
X60650500Y-57301902D01*
X62999500Y-57301902D01*
X62999500Y-57538097D01*
X63036446Y-57771368D01*
X63109433Y-57995996D01*
X63149943Y-58075500D01*
X63216657Y-58206433D01*
X63355483Y-58397510D01*
X63522490Y-58564517D01*
X63557127Y-58589683D01*
X63599792Y-58645013D01*
X63605771Y-58714626D01*
X63573165Y-58776421D01*
X63557130Y-58790315D01*
X63545923Y-58798458D01*
X63522488Y-58815484D01*
X63355485Y-58982487D01*
X63355485Y-58982488D01*
X63355483Y-58982490D01*
X63295862Y-59064550D01*
X63216657Y-59173566D01*
X63109433Y-59384003D01*
X63036446Y-59608631D01*
X62999500Y-59841902D01*
X62999500Y-60078097D01*
X63036446Y-60311368D01*
X63109433Y-60535996D01*
X63210062Y-60733489D01*
X63216657Y-60746433D01*
X63355483Y-60937510D01*
X63522490Y-61104517D01*
X63713567Y-61243343D01*
X63806326Y-61290606D01*
X63924003Y-61350566D01*
X63924005Y-61350566D01*
X63924008Y-61350568D01*
X64044412Y-61389689D01*
X64148631Y-61423553D01*
X64381903Y-61460500D01*
X64381908Y-61460500D01*
X64618097Y-61460500D01*
X64851368Y-61423553D01*
X64873958Y-61416213D01*
X65075992Y-61350568D01*
X65286433Y-61243343D01*
X65477510Y-61104517D01*
X65644517Y-60937510D01*
X65783343Y-60746433D01*
X65890568Y-60535992D01*
X65963553Y-60311368D01*
X65984138Y-60181401D01*
X66000500Y-60078097D01*
X66000500Y-59841902D01*
X65963553Y-59608631D01*
X65890566Y-59384003D01*
X65834002Y-59272991D01*
X65783343Y-59173567D01*
X65644517Y-58982490D01*
X65477510Y-58815483D01*
X65442872Y-58790317D01*
X65400207Y-58734989D01*
X65394228Y-58665375D01*
X65426833Y-58603580D01*
X65442873Y-58589682D01*
X65477510Y-58564517D01*
X65644517Y-58397510D01*
X65783343Y-58206433D01*
X65890568Y-57995992D01*
X65963553Y-57771368D01*
X66000500Y-57538097D01*
X66000500Y-57301902D01*
X65963553Y-57068631D01*
X65929689Y-56964412D01*
X65890568Y-56844008D01*
X65890566Y-56844005D01*
X65890566Y-56844003D01*
X65783342Y-56633566D01*
X65644517Y-56442490D01*
X65477510Y-56275483D01*
X65286433Y-56136657D01*
X65255353Y-56120821D01*
X65075996Y-56029433D01*
X64851368Y-55956446D01*
X64618097Y-55919500D01*
X64618092Y-55919500D01*
X64381908Y-55919500D01*
X64381903Y-55919500D01*
X64148631Y-55956446D01*
X63924003Y-56029433D01*
X63713566Y-56136657D01*
X63607803Y-56213499D01*
X63522490Y-56275483D01*
X63522488Y-56275485D01*
X63522487Y-56275485D01*
X63355485Y-56442487D01*
X63355485Y-56442488D01*
X63355483Y-56442490D01*
X63295862Y-56524550D01*
X63216657Y-56633566D01*
X63109433Y-56844003D01*
X63036446Y-57068631D01*
X62999500Y-57301902D01*
X60650500Y-57301902D01*
X60650500Y-46869808D01*
X60670185Y-46802769D01*
X60722989Y-46757014D01*
X60792147Y-46747070D01*
X60855703Y-46776095D01*
X60862181Y-46782127D01*
X62550324Y-48470271D01*
X62550327Y-48470274D01*
X62656160Y-48540989D01*
X62656871Y-48541464D01*
X62656877Y-48541467D01*
X62747118Y-48578846D01*
X62775256Y-48590501D01*
X62775260Y-48590501D01*
X62775261Y-48590502D01*
X62900928Y-48615500D01*
X62900931Y-48615500D01*
X63071408Y-48615500D01*
X63138447Y-48635185D01*
X63181893Y-48683205D01*
X63216657Y-48751433D01*
X63355483Y-48942510D01*
X63522490Y-49109517D01*
X63557127Y-49134683D01*
X63599792Y-49190013D01*
X63605771Y-49259626D01*
X63573165Y-49321421D01*
X63557130Y-49335315D01*
X63543712Y-49345064D01*
X63522488Y-49360484D01*
X63355485Y-49527487D01*
X63355485Y-49527488D01*
X63355483Y-49527490D01*
X63295862Y-49609550D01*
X63216657Y-49718566D01*
X63109433Y-49929003D01*
X63036446Y-50153631D01*
X62999500Y-50386902D01*
X62999500Y-50623097D01*
X63036446Y-50856368D01*
X63109433Y-51080996D01*
X63203958Y-51266510D01*
X63216657Y-51291433D01*
X63355483Y-51482510D01*
X63522490Y-51649517D01*
X63713567Y-51788343D01*
X63812991Y-51839002D01*
X63924003Y-51895566D01*
X63924005Y-51895566D01*
X63924008Y-51895568D01*
X64044412Y-51934689D01*
X64148631Y-51968553D01*
X64381903Y-52005500D01*
X64381908Y-52005500D01*
X64618097Y-52005500D01*
X64851368Y-51968553D01*
X64855163Y-51967320D01*
X65075992Y-51895568D01*
X65286433Y-51788343D01*
X65477510Y-51649517D01*
X65644517Y-51482510D01*
X65783343Y-51291433D01*
X65890568Y-51080992D01*
X65963553Y-50856368D01*
X65977274Y-50769737D01*
X66000500Y-50623097D01*
X66000500Y-50386902D01*
X65963553Y-50153631D01*
X65890566Y-49929003D01*
X65807771Y-49766510D01*
X65783343Y-49718567D01*
X65644517Y-49527490D01*
X65477510Y-49360483D01*
X65442872Y-49335317D01*
X65400207Y-49279989D01*
X65394228Y-49210375D01*
X65426833Y-49148580D01*
X65442873Y-49134682D01*
X65446237Y-49132238D01*
X65477510Y-49109517D01*
X65644517Y-48942510D01*
X65783343Y-48751433D01*
X65890568Y-48540992D01*
X65963553Y-48316368D01*
X65971452Y-48266498D01*
X66000500Y-48083097D01*
X66000500Y-47846902D01*
X65963553Y-47613631D01*
X65890566Y-47389003D01*
X65814495Y-47239707D01*
X65783343Y-47178567D01*
X65644517Y-46987490D01*
X65477510Y-46820483D01*
X65286433Y-46681657D01*
X65075996Y-46574433D01*
X64851368Y-46501446D01*
X64618097Y-46464500D01*
X64618092Y-46464500D01*
X64381908Y-46464500D01*
X64381903Y-46464500D01*
X64148631Y-46501446D01*
X63924003Y-46574433D01*
X63713566Y-46681657D01*
X63642210Y-46733501D01*
X63522490Y-46820483D01*
X63522488Y-46820485D01*
X63522487Y-46820485D01*
X63355484Y-46987488D01*
X63252278Y-47129538D01*
X63196947Y-47172203D01*
X63127334Y-47178182D01*
X63065539Y-47145576D01*
X63064279Y-47144333D01*
X61186819Y-45266873D01*
X61153334Y-45205550D01*
X61150500Y-45179192D01*
X61150500Y-39435928D01*
X61125502Y-39310261D01*
X61125501Y-39310260D01*
X61125501Y-39310256D01*
X61076465Y-39191873D01*
X61056008Y-39161257D01*
X61005276Y-39085330D01*
X61005274Y-39085328D01*
X61005272Y-39085325D01*
X61005271Y-39085324D01*
X59246127Y-37326181D01*
X59212642Y-37264858D01*
X59217626Y-37195166D01*
X59259498Y-37139233D01*
X59324962Y-37114816D01*
X59333808Y-37114500D01*
X62183192Y-37114500D01*
X62250231Y-37134185D01*
X62270873Y-37150819D01*
X63029859Y-37909805D01*
X63063344Y-37971128D01*
X63060109Y-38035803D01*
X63036447Y-38108628D01*
X62999500Y-38341902D01*
X62999500Y-38578097D01*
X63036446Y-38811368D01*
X63109433Y-39035996D01*
X63198695Y-39211181D01*
X63216657Y-39246433D01*
X63355483Y-39437510D01*
X63522490Y-39604517D01*
X63557127Y-39629683D01*
X63599792Y-39685013D01*
X63605771Y-39754626D01*
X63573165Y-39816421D01*
X63557130Y-39830315D01*
X63539365Y-39843222D01*
X63522488Y-39855484D01*
X63355485Y-40022487D01*
X63355485Y-40022488D01*
X63355483Y-40022490D01*
X63320904Y-40070084D01*
X63216657Y-40213566D01*
X63109433Y-40424003D01*
X63036446Y-40648631D01*
X62999500Y-40881902D01*
X62999500Y-41118097D01*
X63036446Y-41351368D01*
X63109433Y-41575996D01*
X63192423Y-41738871D01*
X63216657Y-41786433D01*
X63355483Y-41977510D01*
X63522490Y-42144517D01*
X63713567Y-42283343D01*
X63799663Y-42327211D01*
X63924003Y-42390566D01*
X63924005Y-42390566D01*
X63924008Y-42390568D01*
X64044412Y-42429689D01*
X64148631Y-42463553D01*
X64381903Y-42500500D01*
X64381908Y-42500500D01*
X64618097Y-42500500D01*
X64851368Y-42463553D01*
X64867492Y-42458314D01*
X65075992Y-42390568D01*
X65286433Y-42283343D01*
X65477510Y-42144517D01*
X65644517Y-41977510D01*
X65783343Y-41786433D01*
X65890568Y-41575992D01*
X65963553Y-41351368D01*
X65973177Y-41290606D01*
X66000500Y-41118097D01*
X66000500Y-40881902D01*
X65963553Y-40648631D01*
X65924738Y-40529172D01*
X65890568Y-40424008D01*
X65890566Y-40424005D01*
X65890566Y-40424003D01*
X65829166Y-40303500D01*
X65783343Y-40213567D01*
X65644517Y-40022490D01*
X65477510Y-39855483D01*
X65442872Y-39830317D01*
X65400207Y-39774989D01*
X65394228Y-39705375D01*
X65426833Y-39643580D01*
X65442873Y-39629682D01*
X65455061Y-39620827D01*
X65477510Y-39604517D01*
X65644517Y-39437510D01*
X65783343Y-39246433D01*
X65890568Y-39035992D01*
X65963553Y-38811368D01*
X65987481Y-38660292D01*
X66000500Y-38578097D01*
X66000500Y-38341902D01*
X65963553Y-38108631D01*
X65918875Y-37971128D01*
X65890568Y-37884008D01*
X65890566Y-37884005D01*
X65890566Y-37884003D01*
X65783342Y-37673566D01*
X65644517Y-37482490D01*
X65477510Y-37315483D01*
X65286433Y-37176657D01*
X65252963Y-37159603D01*
X65075996Y-37069433D01*
X64851368Y-36996446D01*
X64618097Y-36959500D01*
X64618092Y-36959500D01*
X64381908Y-36959500D01*
X64381903Y-36959500D01*
X64148628Y-36996447D01*
X64075803Y-37020109D01*
X64005962Y-37022104D01*
X63949805Y-36989859D01*
X62918674Y-35958727D01*
X62918673Y-35958726D01*
X62918669Y-35958723D01*
X62812127Y-35887535D01*
X62693744Y-35838499D01*
X62693738Y-35838497D01*
X62568071Y-35813500D01*
X62568069Y-35813500D01*
X55117941Y-35813500D01*
X55050902Y-35793815D01*
X55005147Y-35741011D01*
X54995203Y-35671853D01*
X55024228Y-35608297D01*
X55030260Y-35601819D01*
X55121786Y-35510292D01*
X55121789Y-35510289D01*
X55209394Y-35379179D01*
X55269737Y-35233497D01*
X55300500Y-35078842D01*
X55300500Y-34921158D01*
X55300500Y-34921155D01*
X55300499Y-34921153D01*
X55269738Y-34766510D01*
X55269737Y-34766503D01*
X55249616Y-34717927D01*
X55209396Y-34620825D01*
X55209394Y-34620822D01*
X55209394Y-34620821D01*
X55174694Y-34568889D01*
X55153816Y-34502215D01*
X55172300Y-34434835D01*
X55174676Y-34431136D01*
X55209394Y-34379179D01*
X55269737Y-34233497D01*
X55300500Y-34078842D01*
X55300500Y-33921158D01*
X55300500Y-33921155D01*
X55300499Y-33921153D01*
X55274531Y-33790606D01*
X55269737Y-33766503D01*
X55258695Y-33739844D01*
X55209396Y-33620825D01*
X55209394Y-33620822D01*
X55209394Y-33620821D01*
X55174694Y-33568889D01*
X55153816Y-33502215D01*
X55172300Y-33434835D01*
X55174676Y-33431136D01*
X55209394Y-33379179D01*
X55269737Y-33233497D01*
X55300500Y-33078842D01*
X55300500Y-32921158D01*
X55300500Y-32921155D01*
X55300499Y-32921153D01*
X55269738Y-32766510D01*
X55269737Y-32766503D01*
X55250012Y-32718882D01*
X55209397Y-32620827D01*
X55209390Y-32620814D01*
X55121789Y-32489711D01*
X55121786Y-32489707D01*
X55010292Y-32378213D01*
X55010288Y-32378210D01*
X54879185Y-32290609D01*
X54879172Y-32290602D01*
X54733501Y-32230264D01*
X54733489Y-32230261D01*
X54578845Y-32199500D01*
X54578842Y-32199500D01*
X54421158Y-32199500D01*
X54421155Y-32199500D01*
X54266510Y-32230261D01*
X54266498Y-32230264D01*
X54120827Y-32290602D01*
X54120814Y-32290609D01*
X53989711Y-32378210D01*
X53989707Y-32378213D01*
X53878213Y-32489707D01*
X53878210Y-32489711D01*
X53790609Y-32620814D01*
X53790602Y-32620827D01*
X53730264Y-32766498D01*
X53730261Y-32766510D01*
X53699500Y-32921153D01*
X53699500Y-33078846D01*
X53730261Y-33233489D01*
X53730264Y-33233501D01*
X53790602Y-33379172D01*
X53790609Y-33379185D01*
X53825304Y-33431109D01*
X53846182Y-33497786D01*
X53827698Y-33565167D01*
X53825304Y-33568891D01*
X53790609Y-33620814D01*
X53790602Y-33620827D01*
X53730264Y-33766498D01*
X53730261Y-33766510D01*
X53699500Y-33921153D01*
X53699500Y-34078846D01*
X53730261Y-34233489D01*
X53730264Y-34233501D01*
X53790602Y-34379172D01*
X53790609Y-34379185D01*
X53825304Y-34431109D01*
X53846182Y-34497786D01*
X53827698Y-34565167D01*
X53825304Y-34568891D01*
X53790609Y-34620814D01*
X53790602Y-34620827D01*
X53730264Y-34766498D01*
X53730261Y-34766510D01*
X53699500Y-34921153D01*
X53699500Y-35078846D01*
X53730261Y-35233489D01*
X53730264Y-35233501D01*
X53790602Y-35379172D01*
X53790609Y-35379185D01*
X53878210Y-35510288D01*
X53878213Y-35510292D01*
X53969740Y-35601819D01*
X54003225Y-35663142D01*
X53998241Y-35732834D01*
X53956369Y-35788767D01*
X53890905Y-35813184D01*
X53882059Y-35813500D01*
X47784808Y-35813500D01*
X47717769Y-35793815D01*
X47697127Y-35777181D01*
X46422694Y-34502747D01*
X46414673Y-34494726D01*
X46414669Y-34494723D01*
X46308127Y-34423535D01*
X46308122Y-34423533D01*
X46302376Y-34421153D01*
X48699500Y-34421153D01*
X48699500Y-34578846D01*
X48730261Y-34733489D01*
X48730264Y-34733501D01*
X48790602Y-34879172D01*
X48790609Y-34879185D01*
X48878210Y-35010288D01*
X48878213Y-35010292D01*
X48989707Y-35121786D01*
X48989711Y-35121789D01*
X49120814Y-35209390D01*
X49120827Y-35209397D01*
X49266498Y-35269735D01*
X49266503Y-35269737D01*
X49421153Y-35300499D01*
X49421156Y-35300500D01*
X49421158Y-35300500D01*
X49578844Y-35300500D01*
X49578845Y-35300499D01*
X49733497Y-35269737D01*
X49879179Y-35209394D01*
X50010289Y-35121789D01*
X50121789Y-35010289D01*
X50209394Y-34879179D01*
X50269737Y-34733497D01*
X50300500Y-34578842D01*
X50300500Y-34421158D01*
X50300500Y-34421155D01*
X50300499Y-34421153D01*
X50291218Y-34374497D01*
X50269737Y-34266503D01*
X50218918Y-34143813D01*
X50209397Y-34120827D01*
X50209390Y-34120814D01*
X50121789Y-33989711D01*
X50121786Y-33989707D01*
X50010292Y-33878213D01*
X50010288Y-33878210D01*
X49879185Y-33790609D01*
X49879172Y-33790602D01*
X49733501Y-33730264D01*
X49733489Y-33730261D01*
X49578845Y-33699500D01*
X49578842Y-33699500D01*
X49421158Y-33699500D01*
X49421155Y-33699500D01*
X49266510Y-33730261D01*
X49266498Y-33730264D01*
X49120827Y-33790602D01*
X49120814Y-33790609D01*
X48989711Y-33878210D01*
X48989707Y-33878213D01*
X48878213Y-33989707D01*
X48878210Y-33989711D01*
X48790609Y-34120814D01*
X48790602Y-34120827D01*
X48730264Y-34266498D01*
X48730261Y-34266510D01*
X48699500Y-34421153D01*
X46302376Y-34421153D01*
X46189744Y-34374499D01*
X46189738Y-34374497D01*
X46064071Y-34349500D01*
X46064069Y-34349500D01*
X36475604Y-34349500D01*
X36475602Y-34349500D01*
X36349934Y-34374497D01*
X36349928Y-34374499D01*
X36231548Y-34423533D01*
X36231539Y-34423538D01*
X36125004Y-34494723D01*
X36125000Y-34494726D01*
X35343724Y-35276001D01*
X35343720Y-35276005D01*
X35320169Y-35311255D01*
X35320169Y-35311256D01*
X35272534Y-35382547D01*
X35223499Y-35500928D01*
X35223497Y-35500934D01*
X35198500Y-35626601D01*
X35198500Y-36075500D01*
X35178815Y-36142539D01*
X35126011Y-36188294D01*
X35074500Y-36199500D01*
X34921155Y-36199500D01*
X34766510Y-36230261D01*
X34766498Y-36230264D01*
X34620827Y-36290602D01*
X34620814Y-36290609D01*
X34489714Y-36378208D01*
X34461962Y-36405959D01*
X34400637Y-36439442D01*
X34330946Y-36434455D01*
X34329037Y-36433725D01*
X34316545Y-36428829D01*
X34307125Y-36422535D01*
X34188742Y-36373499D01*
X34172378Y-36370244D01*
X34161575Y-36368095D01*
X34063069Y-36348500D01*
X34063067Y-36348500D01*
X28920792Y-36348500D01*
X28853753Y-36328815D01*
X28807998Y-36276011D01*
X28798054Y-36206853D01*
X28820475Y-36151613D01*
X28836759Y-36129200D01*
X28922545Y-35960836D01*
X28922545Y-35960835D01*
X28922547Y-35960832D01*
X28980940Y-35781118D01*
X28987292Y-35741011D01*
X29010500Y-35594486D01*
X29010500Y-35405513D01*
X28980940Y-35218881D01*
X28935439Y-35078846D01*
X28922547Y-35039168D01*
X28922545Y-35039165D01*
X28922545Y-35039163D01*
X28862418Y-34921158D01*
X28836760Y-34870801D01*
X28725690Y-34717927D01*
X28592073Y-34584310D01*
X28439199Y-34473240D01*
X28270832Y-34387453D01*
X28210748Y-34367930D01*
X28153073Y-34328493D01*
X28125875Y-34264135D01*
X28137790Y-34195288D01*
X28185034Y-34143813D01*
X28210746Y-34132069D01*
X28270832Y-34112547D01*
X28439199Y-34026760D01*
X28592073Y-33915690D01*
X28725690Y-33782073D01*
X28836760Y-33629199D01*
X28922547Y-33460832D01*
X28980940Y-33281118D01*
X28988482Y-33233501D01*
X29010500Y-33094486D01*
X29010500Y-32905513D01*
X28980940Y-32718881D01*
X28922545Y-32539163D01*
X28877290Y-32450347D01*
X28836760Y-32370801D01*
X28725690Y-32217927D01*
X28592073Y-32084310D01*
X28439199Y-31973240D01*
X28270836Y-31887454D01*
X28091118Y-31829059D01*
X27904486Y-31799500D01*
X27904481Y-31799500D01*
X27715519Y-31799500D01*
X27715514Y-31799500D01*
X27528881Y-31829059D01*
X27349163Y-31887454D01*
X27180800Y-31973240D01*
X27093579Y-32036610D01*
X27027927Y-32084310D01*
X27027925Y-32084312D01*
X27027924Y-32084312D01*
X26894312Y-32217924D01*
X26894312Y-32217925D01*
X26894310Y-32217927D01*
X26885347Y-32230264D01*
X26783240Y-32370800D01*
X26697454Y-32539163D01*
X26639059Y-32718881D01*
X26609500Y-32905513D01*
X26609500Y-33094486D01*
X26639059Y-33281118D01*
X26697454Y-33460836D01*
X26752512Y-33568892D01*
X26783240Y-33629199D01*
X26894310Y-33782073D01*
X27027927Y-33915690D01*
X27180801Y-34026760D01*
X27260347Y-34067290D01*
X27349163Y-34112545D01*
X27349165Y-34112545D01*
X27349168Y-34112547D01*
X27409251Y-34132069D01*
X27466926Y-34171507D01*
X27494124Y-34235866D01*
X27482209Y-34304712D01*
X27434965Y-34356188D01*
X27409253Y-34367930D01*
X27392517Y-34373368D01*
X27349163Y-34387454D01*
X27180800Y-34473240D01*
X27140188Y-34502747D01*
X27027927Y-34584310D01*
X27027925Y-34584312D01*
X27027924Y-34584312D01*
X26894312Y-34717924D01*
X26894312Y-34717925D01*
X26894310Y-34717927D01*
X26882998Y-34733497D01*
X26783240Y-34870800D01*
X26697454Y-35039163D01*
X26639059Y-35218881D01*
X26609500Y-35405513D01*
X26609500Y-35594486D01*
X26639059Y-35781118D01*
X26697454Y-35960836D01*
X26783240Y-36129200D01*
X26799525Y-36151613D01*
X26823006Y-36217419D01*
X26807181Y-36285473D01*
X26757076Y-36334169D01*
X26699208Y-36348500D01*
X23819808Y-36348500D01*
X23752769Y-36328815D01*
X23732127Y-36312181D01*
X21221113Y-33801167D01*
X21187628Y-33739844D01*
X21192612Y-33670152D01*
X21208478Y-33640598D01*
X21216760Y-33629199D01*
X21302547Y-33460832D01*
X21360940Y-33281118D01*
X21368482Y-33233501D01*
X21390500Y-33094486D01*
X21390500Y-32905513D01*
X21360940Y-32718881D01*
X21302545Y-32539163D01*
X21257290Y-32450347D01*
X21216760Y-32370801D01*
X21105690Y-32217927D01*
X20972073Y-32084310D01*
X20819199Y-31973240D01*
X20650836Y-31887454D01*
X20471118Y-31829059D01*
X20284486Y-31799500D01*
X20284481Y-31799500D01*
X20095519Y-31799500D01*
X20095514Y-31799500D01*
X19908881Y-31829059D01*
X19729163Y-31887454D01*
X19560800Y-31973240D01*
X19473579Y-32036610D01*
X19407927Y-32084310D01*
X19407925Y-32084312D01*
X19407924Y-32084312D01*
X19274312Y-32217924D01*
X19274312Y-32217925D01*
X19274310Y-32217927D01*
X19265347Y-32230264D01*
X19163240Y-32370800D01*
X19077454Y-32539163D01*
X19019059Y-32718881D01*
X18989500Y-32905513D01*
X17500500Y-32905513D01*
X17500500Y-31374500D01*
X17520185Y-31307461D01*
X17572989Y-31261706D01*
X17624500Y-31250500D01*
X67875500Y-31250500D01*
X67942539Y-31270185D01*
=======
X29456416Y-14770185D02*
G01*
X29502171Y-14822989D01*
X29512115Y-14892147D01*
X29483090Y-14955703D01*
X29462262Y-14974818D01*
X29402786Y-15018028D01*
X29258028Y-15162786D01*
X29137715Y-15328386D01*
X29044781Y-15510776D01*
X28981522Y-15705465D01*
X28949500Y-15907648D01*
X28949500Y-16112351D01*
X28981522Y-16314534D01*
X29044781Y-16509223D01*
X29137715Y-16691613D01*
X29258028Y-16857213D01*
X29402786Y-17001971D01*
X29557749Y-17114556D01*
X29568390Y-17122287D01*
X29659840Y-17168883D01*
X29661080Y-17169515D01*
X29711876Y-17217490D01*
X29728671Y-17285311D01*
X29706134Y-17351446D01*
X29661080Y-17390485D01*
X29568386Y-17437715D01*
X29402786Y-17558028D01*
X29258028Y-17702786D01*
X29137715Y-17868386D01*
X29044781Y-18050776D01*
X28981522Y-18245465D01*
X28949500Y-18447648D01*
X28949500Y-18652351D01*
X28981522Y-18854534D01*
X29044781Y-19049223D01*
X29075860Y-19110217D01*
X29128765Y-19214049D01*
X29137715Y-19231613D01*
X29258028Y-19397213D01*
X29402786Y-19541971D01*
X29513916Y-19622710D01*
X29568390Y-19662287D01*
X29659840Y-19708883D01*
X29661080Y-19709515D01*
X29711876Y-19757490D01*
X29728671Y-19825311D01*
X29706134Y-19891446D01*
X29661080Y-19930485D01*
X29568386Y-19977715D01*
X29402786Y-20098028D01*
X29258028Y-20242786D01*
X29137715Y-20408386D01*
X29044781Y-20590776D01*
X28981522Y-20785465D01*
X28949500Y-20987648D01*
X28949500Y-21192351D01*
X28981522Y-21394534D01*
X29044781Y-21589223D01*
X29077480Y-21653397D01*
X29126957Y-21750501D01*
X29137715Y-21771613D01*
X29258028Y-21937213D01*
X29402786Y-22081971D01*
X29533030Y-22176597D01*
X29568390Y-22202287D01*
X29659840Y-22248883D01*
X29661080Y-22249515D01*
X29711876Y-22297490D01*
X29728671Y-22365311D01*
X29706134Y-22431446D01*
X29661080Y-22470485D01*
X29568386Y-22517715D01*
X29402786Y-22638028D01*
X29258028Y-22782786D01*
X29137715Y-22948386D01*
X29044781Y-23130776D01*
X28981522Y-23325465D01*
X28949500Y-23527648D01*
X28949500Y-23732351D01*
X28981522Y-23934534D01*
X29044781Y-24129223D01*
X29137715Y-24311613D01*
X29258028Y-24477213D01*
X29402786Y-24621971D01*
X29557749Y-24734556D01*
X29568390Y-24742287D01*
X29659840Y-24788883D01*
X29661080Y-24789515D01*
X29711876Y-24837490D01*
X29728671Y-24905311D01*
X29706134Y-24971446D01*
X29661080Y-25010485D01*
X29568386Y-25057715D01*
X29402786Y-25178028D01*
X29258028Y-25322786D01*
X29137715Y-25488386D01*
X29044781Y-25670776D01*
X28981522Y-25865465D01*
X28949500Y-26067648D01*
X28949500Y-26272351D01*
X28981522Y-26474534D01*
X29044781Y-26669223D01*
X29137715Y-26851613D01*
X29258028Y-27017213D01*
X29402786Y-27161971D01*
X29557749Y-27274556D01*
X29568390Y-27282287D01*
X29659840Y-27328883D01*
X29661080Y-27329515D01*
X29711876Y-27377490D01*
X29728671Y-27445311D01*
X29706134Y-27511446D01*
X29661080Y-27550485D01*
X29568386Y-27597715D01*
X29402786Y-27718028D01*
X29258028Y-27862786D01*
X29137715Y-28028386D01*
X29044781Y-28210776D01*
X28981522Y-28405465D01*
X28949500Y-28607648D01*
X28949500Y-28812351D01*
X28981522Y-29014534D01*
X29044781Y-29209223D01*
X29137715Y-29391613D01*
X29258028Y-29557213D01*
X29402786Y-29701971D01*
X29555857Y-29813181D01*
X29568390Y-29822287D01*
X29659840Y-29868883D01*
X29661080Y-29869515D01*
X29711876Y-29917490D01*
X29728671Y-29985311D01*
X29706134Y-30051446D01*
X29661080Y-30090485D01*
X29568386Y-30137715D01*
X29402786Y-30258028D01*
X29258028Y-30402786D01*
X29137715Y-30568386D01*
X29044781Y-30750776D01*
X28981522Y-30945465D01*
X28949500Y-31147648D01*
X28949500Y-31352351D01*
X28981523Y-31554535D01*
X28981524Y-31554542D01*
X28992455Y-31588183D01*
X28994450Y-31658024D01*
X28958369Y-31717856D01*
X28895668Y-31748684D01*
X28874524Y-31750500D01*
X16481808Y-31750500D01*
X16452367Y-31741855D01*
X16422381Y-31735332D01*
X16417365Y-31731577D01*
X16414769Y-31730815D01*
X16394127Y-31714181D01*
X16317137Y-31637191D01*
X16283652Y-31575868D01*
X16282345Y-31530112D01*
X16289728Y-31483497D01*
X16310500Y-31352352D01*
X16310500Y-31147648D01*
X16300618Y-31085254D01*
X16278477Y-30945465D01*
X16227639Y-30789004D01*
X16215220Y-30750781D01*
X16215218Y-30750778D01*
X16215218Y-30750776D01*
X16181503Y-30684607D01*
X16122287Y-30568390D01*
X16114556Y-30557749D01*
X16001971Y-30402786D01*
X15857213Y-30258028D01*
X15691614Y-30137715D01*
X15681522Y-30132573D01*
X15598917Y-30090483D01*
X15548123Y-30042511D01*
X15531328Y-29974690D01*
X15553865Y-29908555D01*
X15598917Y-29869516D01*
X15691610Y-29822287D01*
X15712770Y-29806913D01*
X15857213Y-29701971D01*
X15857215Y-29701968D01*
X15857219Y-29701966D01*
X16001966Y-29557219D01*
X16001968Y-29557215D01*
X16001971Y-29557213D01*
X16054732Y-29484590D01*
X16122287Y-29391610D01*
X16215220Y-29209219D01*
X16278477Y-29014534D01*
X16310500Y-28812352D01*
X16310500Y-28607648D01*
X16302758Y-28558768D01*
X16278477Y-28405465D01*
X16215218Y-28210776D01*
X16151952Y-28086611D01*
X16122287Y-28028390D01*
X16114556Y-28017749D01*
X16001971Y-27862786D01*
X15857213Y-27718028D01*
X15691614Y-27597715D01*
X15681522Y-27592573D01*
X15598917Y-27550483D01*
X15548123Y-27502511D01*
X15531328Y-27434690D01*
X15553865Y-27368555D01*
X15598917Y-27329516D01*
X15691610Y-27282287D01*
X15839786Y-27174632D01*
X15857213Y-27161971D01*
X15857215Y-27161968D01*
X15857219Y-27161966D01*
X16001966Y-27017219D01*
X16001968Y-27017215D01*
X16001971Y-27017213D01*
X16069998Y-26923580D01*
X16122287Y-26851610D01*
X16215220Y-26669219D01*
X16278477Y-26474534D01*
X16310500Y-26272352D01*
X16310500Y-26067648D01*
X16278477Y-25865466D01*
X16215220Y-25670781D01*
X16215218Y-25670778D01*
X16215218Y-25670776D01*
X16163657Y-25569584D01*
X16122287Y-25488390D01*
X16114556Y-25477749D01*
X16001971Y-25322786D01*
X15857213Y-25178028D01*
X15691614Y-25057715D01*
X15681522Y-25052573D01*
X15598917Y-25010483D01*
X15548123Y-24962511D01*
X15531328Y-24894690D01*
X15553865Y-24828555D01*
X15598917Y-24789516D01*
X15691610Y-24742287D01*
X15839786Y-24634632D01*
X15857213Y-24621971D01*
X15857215Y-24621968D01*
X15857219Y-24621966D01*
X16001966Y-24477219D01*
X16001968Y-24477215D01*
X16001971Y-24477213D01*
X16094807Y-24349433D01*
X16122287Y-24311610D01*
X16215220Y-24129219D01*
X16278477Y-23934534D01*
X16310500Y-23732352D01*
X16310500Y-23527648D01*
X16302147Y-23474909D01*
X16278477Y-23325465D01*
X16215218Y-23130776D01*
X16144661Y-22992302D01*
X16122287Y-22948390D01*
X16114556Y-22937749D01*
X16001971Y-22782786D01*
X15857213Y-22638028D01*
X15691614Y-22517715D01*
X15681522Y-22512573D01*
X15598917Y-22470483D01*
X15548123Y-22422511D01*
X15531328Y-22354690D01*
X15553865Y-22288555D01*
X15598917Y-22249516D01*
X15691610Y-22202287D01*
X15726970Y-22176597D01*
X15857213Y-22081971D01*
X15857215Y-22081968D01*
X15857219Y-22081966D01*
X16001966Y-21937219D01*
X16001968Y-21937215D01*
X16001971Y-21937213D01*
X16054732Y-21864590D01*
X16122287Y-21771610D01*
X16215220Y-21589219D01*
X16278477Y-21394534D01*
X16310500Y-21192352D01*
X16310500Y-20987648D01*
X16278477Y-20785466D01*
X16215220Y-20590781D01*
X16215218Y-20590778D01*
X16215218Y-20590776D01*
X16137977Y-20439184D01*
X16122287Y-20408390D01*
X16086283Y-20358834D01*
X16001971Y-20242786D01*
X15857213Y-20098028D01*
X15691613Y-19977715D01*
X15691612Y-19977714D01*
X15691610Y-19977713D01*
X15634653Y-19948691D01*
X15509223Y-19884781D01*
X15314534Y-19821522D01*
X15139995Y-19793878D01*
X15112352Y-19789500D01*
X14907648Y-19789500D01*
X14883329Y-19793351D01*
X14705465Y-19821522D01*
X14510776Y-19884781D01*
X14328387Y-19977714D01*
X14197384Y-20072892D01*
X14131578Y-20096371D01*
X14063524Y-20080545D01*
X14014830Y-20030439D01*
X14000500Y-19972573D01*
X14000500Y-17127426D01*
X14020185Y-17060387D01*
X14072989Y-17014632D01*
X14142147Y-17004688D01*
X14197385Y-17027108D01*
X14316347Y-17113537D01*
X14328390Y-17122287D01*
X14444607Y-17181503D01*
X14510776Y-17215218D01*
X14510778Y-17215218D01*
X14510781Y-17215220D01*
X14615137Y-17249127D01*
X14705465Y-17278477D01*
X14724697Y-17281523D01*
X14907648Y-17310500D01*
X14907649Y-17310500D01*
X15112351Y-17310500D01*
X15112352Y-17310500D01*
X15314534Y-17278477D01*
X15509219Y-17215220D01*
X15691610Y-17122287D01*
X15839786Y-17014632D01*
X15857213Y-17001971D01*
X15857215Y-17001968D01*
X15857219Y-17001966D01*
X16001966Y-16857219D01*
X16001968Y-16857215D01*
X16001971Y-16857213D01*
X16107097Y-16712517D01*
X16122287Y-16691610D01*
X16215220Y-16509219D01*
X16278477Y-16314534D01*
X16310500Y-16112352D01*
X16310500Y-15907648D01*
X16278477Y-15705466D01*
X16278003Y-15704008D01*
X16215218Y-15510776D01*
X16181503Y-15444607D01*
X16122287Y-15328390D01*
X16103468Y-15302487D01*
X16001971Y-15162786D01*
X15857213Y-15018028D01*
X15797738Y-14974818D01*
X15755072Y-14919489D01*
X15749093Y-14849875D01*
X15781698Y-14788080D01*
X15842537Y-14753723D01*
X15870623Y-14750500D01*
X29389377Y-14750500D01*
X29456416Y-14770185D01*
>>>>>>> Stashed changes
G37*
%TD.AperFunction*%
%TD*%
M02*
