M48
; DRILL file {KiCad 9.0.1} date 2025-11-14T14:34:34-0500
; FORMAT={-:-/ absolute / inch / decimal}
; #@! TF.CreationDate,2025-11-14T14:34:34-05:00
; #@! TF.GenerationSoftware,Kicad,Pcbnew,9.0.1
; #@! TF.FileFunction,Plated,1,2,PTH
FMAT,2
INCH
; #@! TA.AperFunction,Plated,PTH,ViaDrill
T1C0.0118
; #@! TA.AperFunction,Plated,PTH,ComponentDrill
T2C0.0394
%
G90
G05
T1
X0.5236Y-0.7953
X0.5236Y-1.0866
X0.5551Y-0.5315
X0.5551Y-0.6417
X0.5591Y-1.3504
X0.5591Y-2.1063
X0.5626Y-0.8933
X0.5906Y-0.9961
X0.5984Y-0.7953
X0.5984Y-0.8425
X0.6063Y-0.748
X0.6142Y-1.0787
X0.6299Y-1.1417
X0.6299Y-1.2598
X0.6614Y-1.1772
X0.6929Y-1.063
X0.7244Y-0.7953
X0.7244Y-0.8425
X0.7323Y-0.9961
X0.7717Y-1.0787
X0.8031Y-0.7559
X0.8031Y-0.7874
X0.8543Y-1.063
X0.8957Y-0.6378
X0.8976Y-1.4724
X0.8976Y-1.6457
X0.9094Y-2.5591
X0.9094Y-2.7992
X0.9291Y-1.0787
X0.937Y-0.7638
X0.9439Y-1.8277
X0.9488Y-0.8858
X0.9606Y-1.9291
X0.9685Y-0.8071
X0.9695Y-1.7431
X0.9768Y-1.685
X0.9843Y-1.8346
X0.9921Y-0.8465
X1.0079Y-1.0787
X1.0157Y-1.9685
X1.0354Y-1.5079
X1.0591Y-0.7913
X1.0787Y-1.1417
X1.0787Y-1.9213
X1.0787Y-2.1732
X1.1299Y-1.6181
X1.1496Y-2.4134
X1.1575Y-1.6614
X1.1575Y-1.8484
X1.1654Y-1.6142
X1.1733Y-1.7264
X1.1811Y-1.874
X1.187Y-1.7953
X1.189Y-2.0315
X1.189Y-2.2756
X1.2287Y-1.6051
X1.2362Y-0.5669
X1.238Y-0.8994
X1.2512Y-1.7087
X1.2829Y-0.9321
X1.2835Y-1.7717
X1.2874Y-1.7362
X1.2874Y-2.4134
X1.2913Y-1.9134
X1.2913Y-2.189
X1.303Y-1.614
X1.315Y-0.9321
X1.315Y-1.8695
X1.3188Y-1.7381
X1.3228Y-1.6654
X1.3307Y-0.5197
X1.3307Y-0.5512
X1.3307Y-0.5827
X1.3543Y-1.7348
X1.3622Y-0.9577
X1.378Y-1.7598
X1.3937Y-1.6516
T2
X1.4931Y-0.8061
X1.4931Y-0.9061
X1.4931Y-1.0061
X1.4931Y-1.1061
X1.4931Y-1.2061
X1.4931Y-1.3061
X1.4931Y-1.4061
X1.4931Y-1.5061
X1.4931Y-1.6061
X1.4931Y-1.7061
X1.4931Y-1.8061
X1.4931Y-1.9061
X1.4931Y-2.0061
X1.4931Y-2.1061
X1.4931Y-2.2061
X1.4931Y-2.3061
X1.4931Y-2.4061
X1.4931Y-2.5061
X1.4931Y-2.6061
X1.4931Y-2.7061
X1.5931Y-0.8061
X1.5931Y-0.9061
X1.5931Y-1.0061
X1.5931Y-1.1061
X1.5931Y-1.2061
X1.5931Y-1.3061
X1.5931Y-1.4061
X1.5931Y-1.5061
X1.5931Y-1.6061
X1.5931Y-1.7061
X1.5931Y-1.8061
X1.5931Y-1.9061
X1.5931Y-2.0061
X1.5931Y-2.1061
X1.5931Y-2.2061
X1.5931Y-2.3061
X1.5931Y-2.4061
X1.5931Y-2.5061
X1.5931Y-2.6061
X1.5931Y-2.7061
M30
