M48
<<<<<<< Updated upstream
; DRILL file {KiCad 9.0.1} date 2025-10-26T21:15:53-0400
; FORMAT={-:-/ absolute / metric / decimal}
; #@! TF.CreationDate,2025-10-26T21:15:53-04:00
=======
; DRILL file {KiCad 9.0.1} date 2025-10-26T21:35:29-0400
; FORMAT={-:-/ absolute / metric / decimal}
; #@! TF.CreationDate,2025-10-26T21:35:29-04:00
>>>>>>> Stashed changes
; #@! TF.GenerationSoftware,Kicad,Pcbnew,9.0.1
; #@! TF.FileFunction,Plated,1,4,PTH
FMAT,2
METRIC
; #@! TA.AperFunction,Plated,PTH,ViaDrill
T1C0.300
; #@! TA.AperFunction,Plated,PTH,ComponentDrill
<<<<<<< Updated upstream
T2C0.700
; #@! TA.AperFunction,Plated,PTH,ComponentDrill
T3C1.200
=======
T2C0.600
; #@! TA.AperFunction,Plated,PTH,ComponentDrill
T3C0.700
; #@! TA.AperFunction,Plated,PTH,ComponentDrill
T4C0.800
; #@! TA.AperFunction,Plated,PTH,ComponentDrill
T5C0.900
; #@! TA.AperFunction,Plated,PTH,ComponentDrill
T6C1.100
; #@! TA.AperFunction,Plated,PTH,ComponentDrill
T7C1.200
>>>>>>> Stashed changes
%
G90
G05
T1
<<<<<<< Updated upstream
X18.0Y-32.0
X19.0Y-47.0
X19.0Y-58.0
X20.5Y-40.0
X21.0Y-47.5
X21.5Y-38.5
X24.5Y-38.5
X24.979Y-48.478
X25.0Y-50.0
X27.0Y-54.025
X29.5Y-40.5
X29.5Y-43.5
X29.5Y-56.0
X30.5Y-64.0
X31.0Y-42.0
X31.35Y-51.5
X31.35Y-53.512
X32.0Y-32.5
X32.5Y-38.15
X32.5Y-40.0
X33.2Y-58.65
X34.0Y-45.0
X34.5Y-62.0
X35.0Y-37.0
X35.497Y-43.462
X35.5Y-42.52
X35.559Y-44.26
X36.0Y-38.0
X36.0Y-49.85
X36.5Y-37.0
X36.75Y-47.75
X37.15Y-36.434
X37.598Y-39.301
X37.695Y-42.538
X37.9Y-41.004
X38.0Y-40.21
X38.0Y-41.798
X38.5Y-36.5
X39.9Y-65.225
X40.0Y-59.0
X40.0Y-60.5
X40.0Y-62.0
X40.0Y-63.5
X40.25Y-40.938
X41.0Y-59.75
X41.0Y-61.25
X41.687Y-36.236
X41.75Y-59.0
X41.75Y-60.5
X41.75Y-62.0
X41.751Y-63.05
X42.352Y-63.651
X42.499Y-43.487
X42.5Y-46.5
X42.5Y-59.75
X42.5Y-61.25
X42.52Y-45.5
X42.849Y-41.393
X42.885Y-36.59
X42.892Y-40.558
X43.0Y-59.0
X43.0Y-62.0
X43.1Y-65.225
X43.48Y-45.5
X43.5Y-48.5
X44.199Y-54.699
X44.358Y-44.656
X44.582Y-40.982
X44.801Y-55.301
X44.887Y-37.198
X45.0Y-39.0
X45.003Y-39.809
X45.495Y-43.664
X46.0Y-36.0
X46.0Y-40.5
X46.0Y-42.837
X47.371Y-44.815
X47.5Y-32.0
X47.5Y-48.362
X47.5Y-50.637
X47.969Y-41.968
X48.5Y-56.5
X49.0Y-42.85
X49.0Y-54.5
X49.5Y-34.5
X50.0Y-40.15
X50.0Y-46.5
X51.112Y-58.12
X52.0Y-62.5
X52.5Y-34.5
X52.5Y-39.5
X54.5Y-33.0
X54.5Y-34.0
X54.5Y-35.0
X55.0Y-51.5
X55.0Y-59.0
X56.5Y-58.0
X57.5Y-45.5
X58.0Y-58.0
X59.35Y-56.5
X60.0Y-37.5
X62.5Y-49.5
T2
X20.19Y-33.0
X20.19Y-35.5
X27.81Y-33.0
X27.81Y-35.5
T3
X19.96Y-70.0
X22.5Y-70.0
X26.955Y-70.0
X29.495Y-70.0
X32.035Y-70.0
X50.975Y-70.037
X53.515Y-70.037
X64.5Y-38.46
X64.5Y-41.0
X64.5Y-43.54
X64.5Y-47.965
X64.5Y-50.505
X64.5Y-53.045
X64.5Y-57.42
X64.5Y-59.96
X64.5Y-62.5
X64.5Y-67.0
X64.5Y-69.54
X64.5Y-72.08
=======
X16.75Y-36.25
X16.75Y-41.5
X16.75Y-46.5
X16.75Y-51.5
X16.75Y-56.75
X16.75Y-61.75
X17.25Y-16.0
X17.25Y-21.25
X17.25Y-26.25
X20.25Y-16.0
X20.25Y-21.25
X20.25Y-26.25
X20.25Y-36.25
X20.25Y-41.5
X20.25Y-46.5
X20.25Y-51.5
X20.25Y-56.75
X20.25Y-61.75
X22.0Y-36.25
X24.25Y-16.0
X24.25Y-21.25
X24.25Y-26.25
X24.25Y-41.5
X24.25Y-46.5
X24.25Y-51.5
X24.25Y-56.75
X24.25Y-61.75
X27.75Y-16.0
X27.75Y-21.25
X27.75Y-26.25
X36.75Y-58.75
X37.5Y-59.5
X38.25Y-58.75
X38.25Y-60.25
X39.0Y-59.5
X39.0Y-61.0
X39.75Y-58.75
X39.75Y-60.25
X39.75Y-61.75
X40.25Y-24.5
X40.25Y-25.3
X40.5Y-59.5
X40.5Y-61.0
X41.0Y-58.75
X41.0Y-61.75
X42.021Y-26.271
X45.0Y-31.25
X45.0Y-32.25
X47.5Y-41.25
X47.5Y-58.82
X52.75Y-58.75
T2
X15.25Y-68.5
X16.75Y-68.5
X33.0Y-16.75
X34.5Y-16.75
X36.25Y-29.5
X36.25Y-34.25
X37.75Y-29.5
X37.75Y-34.25
X39.25Y-38.25
X40.75Y-38.25
X43.5Y-56.07
X44.0Y-38.25
X45.0Y-23.25
X45.0Y-28.0
X45.0Y-56.07
X45.5Y-38.25
X46.25Y-33.75
X46.5Y-23.25
X46.5Y-28.0
X47.75Y-33.75
X49.0Y-63.07
X50.5Y-63.07
X54.25Y-54.82
X54.25Y-56.32
T3
X21.75Y-67.5
X29.37Y-67.5
X37.69Y-43.25
X37.69Y-45.5
X45.31Y-43.25
X45.31Y-45.5
X54.75Y-59.01
X54.75Y-66.63
X57.0Y-59.01
X57.0Y-66.63
T4
X15.01Y-16.01
X15.01Y-18.55
X15.01Y-21.09
X15.01Y-23.63
X15.01Y-26.17
X15.01Y-28.71
X15.01Y-31.25
X15.01Y-33.79
X15.01Y-36.33
X15.01Y-38.87
X15.01Y-41.41
X15.01Y-43.95
X15.01Y-46.49
X15.01Y-49.03
X15.01Y-51.57
X15.01Y-54.11
X15.01Y-56.65
X15.01Y-59.19
X15.01Y-61.73
X15.01Y-64.27
X30.25Y-16.01
X30.25Y-18.55
X30.25Y-21.09
X30.25Y-23.63
X30.25Y-26.17
X30.25Y-28.71
X30.25Y-31.25
X30.25Y-33.79
X30.25Y-36.33
X30.25Y-38.87
X30.25Y-41.41
X30.25Y-43.95
X30.25Y-46.49
X30.25Y-49.03
X30.25Y-51.57
X30.25Y-54.11
X30.25Y-56.65
X30.25Y-59.19
X30.25Y-61.73
X30.25Y-64.27
T5
X53.96Y-42.75
X53.96Y-47.25
X56.5Y-42.75
X56.5Y-47.25
T6
X41.42Y-17.82
X43.96Y-17.82
X46.5Y-17.82
T7
X48.975Y-69.787
X51.515Y-69.787
X57.21Y-18.28
X59.75Y-18.28
X66.5Y-54.28
X66.5Y-56.82
X66.5Y-59.36
X66.532Y-16.28
X66.532Y-18.82
X66.532Y-21.36
X66.532Y-25.74
X66.532Y-28.28
X66.532Y-30.82
X66.532Y-35.28
X66.532Y-37.82
X66.532Y-40.36
X66.532Y-44.74
X66.532Y-47.28
X66.532Y-49.82
X66.532Y-63.7
X66.532Y-66.24
X66.532Y-68.78
X66.532Y-71.32
>>>>>>> Stashed changes
M30
