%TF.GenerationSoftware,KiCad,Pcbnew,9.0.1*%
<<<<<<< Updated upstream
%TF.CreationDate,2025-10-26T21:15:45-04:00*%
=======
%TF.CreationDate,2025-10-26T21:35:25-04:00*%
>>>>>>> Stashed changes
%TF.ProjectId,Drone-Flight-Controller,44726f6e-652d-4466-9c69-6768742d436f,rev?*%
%TF.SameCoordinates,Original*%
%TF.FileFunction,Soldermask,Bot*%
%TF.FilePolarity,Negative*%
%FSLAX46Y46*%
G04 Gerber Fmt 4.6, Leading zero omitted, Abs format (unit mm)*
<<<<<<< Updated upstream
G04 Created by KiCad (PCBNEW 9.0.1) date 2025-10-26 21:15:45*
=======
G04 Created by KiCad (PCBNEW 9.0.1) date 2025-10-26 21:35:25*
>>>>>>> Stashed changes
%MOMM*%
%LPD*%
G01*
G04 APERTURE LIST*
G04 Aperture macros list*
%AMRoundRect*
0 Rectangle with rounded corners*
0 $1 Rounding radius*
0 $2 $3 $4 $5 $6 $7 $8 $9 X,Y pos of 4 corners*
0 Add a 4 corners polygon primitive as box body*
4,1,4,$2,$3,$4,$5,$6,$7,$8,$9,$2,$3,0*
0 Add four circle primitives for the rounded corners*
1,1,$1+$1,$2,$3*
1,1,$1+$1,$4,$5*
1,1,$1+$1,$6,$7*
1,1,$1+$1,$8,$9*
0 Add four rect primitives between the rounded corners*
20,1,$1+$1,$2,$3,$4,$5,0*
20,1,$1+$1,$4,$5,$6,$7,0*
20,1,$1+$1,$6,$7,$8,$9,0*
20,1,$1+$1,$8,$9,$2,$3,0*%
G04 Aperture macros list end*
<<<<<<< Updated upstream
%ADD10RoundRect,0.135000X0.135000X0.185000X-0.135000X0.185000X-0.135000X-0.185000X0.135000X-0.185000X0*%
%ADD11RoundRect,0.250000X-0.750000X-0.750000X0.750000X-0.750000X0.750000X0.750000X-0.750000X0.750000X0*%
%ADD12C,2.000000*%
%ADD13RoundRect,0.250000X0.750000X-0.750000X0.750000X0.750000X-0.750000X0.750000X-0.750000X-0.750000X0*%
%ADD14C,1.400000*%
%ADD15O,1.400000X1.400000*%
%ADD16C,0.990600*%
%ADD17C,1.000000*%
%ADD18RoundRect,0.140000X0.170000X-0.140000X0.170000X0.140000X-0.170000X0.140000X-0.170000X-0.140000X0*%
%ADD19RoundRect,0.225000X-0.225000X-0.250000X0.225000X-0.250000X0.225000X0.250000X-0.225000X0.250000X0*%
%ADD20RoundRect,0.140000X0.140000X0.170000X-0.140000X0.170000X-0.140000X-0.170000X0.140000X-0.170000X0*%
G04 APERTURE END LIST*
D10*
%TO.C,R10*%
X45500000Y-41000000D03*
X44480000Y-41000000D03*
%TD*%
D11*
%TO.C,J7*%
X19960000Y-70000000D03*
D12*
X22500000Y-70000000D03*
%TD*%
D13*
%TO.C,J3*%
X64500000Y-72080000D03*
D12*
X64500000Y-69540000D03*
X64500000Y-67000000D03*
%TD*%
D14*
%TO.C,R9*%
X27810000Y-33000000D03*
D15*
X20190000Y-33000000D03*
%TD*%
D13*
%TO.C,J4*%
X64500000Y-62500000D03*
D12*
X64500000Y-59960000D03*
X64500000Y-57420000D03*
%TD*%
D16*
%TO.C,J10*%
X48960000Y-41635000D03*
X54040000Y-40619000D03*
X54040000Y-42651000D03*
%TD*%
D17*
%TO.C,J2*%
X39300000Y-67925000D03*
X43700000Y-67925000D03*
%TD*%
D14*
%TO.C,R8*%
X27810000Y-35500000D03*
D15*
X20190000Y-35500000D03*
%TD*%
D13*
%TO.C,J5*%
X64500000Y-53045000D03*
D12*
X64500000Y-50505000D03*
X64500000Y-47965000D03*
%TD*%
D11*
%TO.C,J1*%
X50975000Y-70037500D03*
D12*
X53515000Y-70037500D03*
%TD*%
D13*
%TO.C,J6*%
X64500000Y-43540000D03*
D12*
X64500000Y-41000000D03*
X64500000Y-38460000D03*
%TD*%
D11*
%TO.C,J8*%
X26955000Y-70000000D03*
D12*
X29495000Y-70000000D03*
X32035000Y-70000000D03*
%TD*%
D18*
%TO.C,C5*%
X35500000Y-43480000D03*
X35500000Y-42520000D03*
%TD*%
D19*
%TO.C,C8*%
X45000000Y-45500000D03*
X46550000Y-45500000D03*
%TD*%
D20*
%TO.C,C14*%
X43480000Y-45500000D03*
X42520000Y-45500000D03*
=======
%ADD10R,1.905000X2.000000*%
%ADD11O,1.905000X2.000000*%
%ADD12C,1.200000*%
%ADD13RoundRect,0.250000X0.750000X-0.750000X0.750000X0.750000X-0.750000X0.750000X-0.750000X-0.750000X0*%
%ADD14C,2.000000*%
%ADD15C,1.400000*%
%ADD16O,1.400000X1.400000*%
%ADD17R,1.800000X1.800000*%
%ADD18C,1.800000*%
%ADD19RoundRect,0.250000X-0.750000X-0.750000X0.750000X-0.750000X0.750000X0.750000X-0.750000X0.750000X0*%
%ADD20RoundRect,0.250000X0.750000X0.750000X-0.750000X0.750000X-0.750000X-0.750000X0.750000X-0.750000X0*%
%ADD21RoundRect,0.250000X0.550000X0.550000X-0.550000X0.550000X-0.550000X-0.550000X0.550000X-0.550000X0*%
%ADD22C,1.600000*%
G04 APERTURE END LIST*
D10*
%TO.C,U2*%
X41420000Y-17820000D03*
D11*
X43960000Y-17820000D03*
X46500000Y-17820000D03*
%TD*%
D12*
%TO.C,C10*%
X46250000Y-33750000D03*
X47750000Y-33750000D03*
%TD*%
D13*
%TO.C,J5*%
X66532500Y-21360000D03*
D14*
X66532500Y-18820000D03*
X66532500Y-16280000D03*
%TD*%
D12*
%TO.C,C2*%
X15250000Y-68500000D03*
X16750000Y-68500000D03*
%TD*%
%TO.C,C8*%
X39250000Y-38250000D03*
X40750000Y-38250000D03*
%TD*%
D15*
%TO.C,R3*%
X21750000Y-67500000D03*
D16*
X29370000Y-67500000D03*
%TD*%
D12*
%TO.C,C1*%
X49000000Y-63070000D03*
X50500000Y-63070000D03*
%TD*%
D15*
%TO.C,R5*%
X37690000Y-45500000D03*
D16*
X45310000Y-45500000D03*
%TD*%
D12*
%TO.C,C9*%
X36250000Y-34250000D03*
X37750000Y-34250000D03*
%TD*%
D13*
%TO.C,J7*%
X66500000Y-59360000D03*
D14*
X66500000Y-56820000D03*
X66500000Y-54280000D03*
%TD*%
D15*
%TO.C,R1*%
X57000000Y-59010000D03*
D16*
X57000000Y-66630000D03*
%TD*%
D12*
%TO.C,C12*%
X46500000Y-28000000D03*
X45000000Y-28000000D03*
%TD*%
D15*
%TO.C,R2*%
X54750000Y-66630000D03*
D16*
X54750000Y-59010000D03*
%TD*%
D15*
%TO.C,R4*%
X37690000Y-43250000D03*
D16*
X45310000Y-43250000D03*
%TD*%
D13*
%TO.C,J2*%
X66532500Y-49820000D03*
D14*
X66532500Y-47280000D03*
X66532500Y-44740000D03*
%TD*%
D17*
%TO.C,D1*%
X56500000Y-47250000D03*
D18*
X53960000Y-47250000D03*
%TD*%
D12*
%TO.C,C3*%
X33000000Y-16750000D03*
X34500000Y-16750000D03*
%TD*%
%TO.C,C7*%
X45500000Y-38250000D03*
X44000000Y-38250000D03*
%TD*%
D13*
%TO.C,J4*%
X66532500Y-30820000D03*
D14*
X66532500Y-28280000D03*
X66532500Y-25740000D03*
%TD*%
D19*
%TO.C,J1*%
X48975000Y-69787500D03*
D14*
X51515000Y-69787500D03*
%TD*%
D12*
%TO.C,C11*%
X45000000Y-23250000D03*
X46500000Y-23250000D03*
%TD*%
D13*
%TO.C,J8*%
X66532500Y-71320000D03*
D14*
X66532500Y-68780000D03*
X66532500Y-66240000D03*
X66532500Y-63700000D03*
%TD*%
D20*
%TO.C,J6*%
X59750000Y-18280000D03*
D14*
X57210000Y-18280000D03*
%TD*%
D17*
%TO.C,D2*%
X56500000Y-42750000D03*
D18*
X53960000Y-42750000D03*
%TD*%
D12*
%TO.C,C6*%
X37750000Y-29500000D03*
X36250000Y-29500000D03*
%TD*%
D13*
%TO.C,J3*%
X66532500Y-40360000D03*
D14*
X66532500Y-37820000D03*
X66532500Y-35280000D03*
%TD*%
D21*
%TO.C,U3*%
X30250000Y-64270000D03*
D22*
X30250000Y-61730000D03*
X30250000Y-59190000D03*
X30250000Y-56650000D03*
X30250000Y-54110000D03*
X30250000Y-51570000D03*
X30250000Y-49030000D03*
X30250000Y-46490000D03*
X30250000Y-43950000D03*
X30250000Y-41410000D03*
X30250000Y-38870000D03*
X30250000Y-36330000D03*
X30250000Y-33790000D03*
X30250000Y-31250000D03*
X30250000Y-28710000D03*
X30250000Y-26170000D03*
X30250000Y-23630000D03*
X30250000Y-21090000D03*
X30250000Y-18550000D03*
X30250000Y-16010000D03*
X15010000Y-16010000D03*
X15010000Y-18550000D03*
X15010000Y-21090000D03*
X15010000Y-23630000D03*
X15010000Y-26170000D03*
X15010000Y-28710000D03*
X15010000Y-31250000D03*
X15010000Y-33790000D03*
X15010000Y-36330000D03*
X15010000Y-38870000D03*
X15010000Y-41410000D03*
X15010000Y-43950000D03*
X15010000Y-46490000D03*
X15010000Y-49030000D03*
X15010000Y-51570000D03*
X15010000Y-54110000D03*
X15010000Y-56650000D03*
X15010000Y-59190000D03*
X15010000Y-61730000D03*
X15010000Y-64270000D03*
%TD*%
D12*
%TO.C,C4*%
X54250000Y-56320000D03*
X54250000Y-54820000D03*
%TD*%
%TO.C,C5*%
X43500000Y-56070000D03*
X45000000Y-56070000D03*
>>>>>>> Stashed changes
%TD*%
M02*
