%TF.GenerationSoftware,KiCad,Pcbnew,9.0.1*%
%TF.CreationDate,2025-10-26T21:15:07-04:00*%
%TF.ProjectId,Drone-Flight-Controller,44726f6e-652d-4466-9c69-6768742d436f,rev?*%
%TF.SameCoordinates,Original*%
%TF.FileFunction,Copper,L2,Inr*%
%TF.FilePolarity,Positive*%
%FSLAX46Y46*%
G04 Gerber Fmt 4.6, Leading zero omitted, Abs format (unit mm)*
G04 Created by KiCad (PCBNEW 9.0.1) date 2025-10-26 21:15:07*
%MOMM*%
%LPD*%
G01*
G04 APERTURE LIST*
G04 Aperture macros list*
%AMRoundRect*
0 Rectangle with rounded corners*
0 $1 Rounding radius*
0 $2 $3 $4 $5 $6 $7 $8 $9 X,Y pos of 4 corners*
0 Add a 4 corners polygon primitive as box body*
4,1,4,$2,$3,$4,$5,$6,$7,$8,$9,$2,$3,0*
0 Add four circle primitives for the rounded corners*
1,1,$1+$1,$2,$3*
1,1,$1+$1,$4,$5*
1,1,$1+$1,$6,$7*
1,1,$1+$1,$8,$9*
0 Add four rect primitives between the rounded corners*
20,1,$1+$1,$2,$3,$4,$5,0*
20,1,$1+$1,$4,$5,$6,$7,0*
20,1,$1+$1,$6,$7,$8,$9,0*
20,1,$1+$1,$8,$9,$2,$3,0*%
G04 Aperture macros list end*
%TA.AperFunction,ComponentPad*%
%ADD10RoundRect,0.250000X-0.750000X-0.750000X0.750000X-0.750000X0.750000X0.750000X-0.750000X0.750000X0*%
%TD*%
%TA.AperFunction,ComponentPad*%
%ADD11C,2.000000*%
%TD*%
%TA.AperFunction,ComponentPad*%
%ADD12RoundRect,0.250000X0.750000X-0.750000X0.750000X0.750000X-0.750000X0.750000X-0.750000X-0.750000X0*%
%TD*%
%TA.AperFunction,ComponentPad*%
%ADD13C,1.400000*%
%TD*%
%TA.AperFunction,ComponentPad*%
%ADD14O,1.400000X1.400000*%
%TD*%
%TA.AperFunction,ViaPad*%
%ADD15C,0.600000*%
%TD*%
%TA.AperFunction,Conductor*%
%ADD16C,0.200000*%
%TD*%
%TA.AperFunction,Conductor*%
%ADD17C,0.300000*%
%TD*%
G04 APERTURE END LIST*
D10*
%TO.N,+5V*%
%TO.C,J7*%
X19960000Y-70000000D03*
D11*
%TO.N,GND*%
X22500000Y-70000000D03*
%TD*%
D12*
%TO.N,GND*%
%TO.C,J3*%
X64500000Y-72080000D03*
D11*
%TO.N,+5V*%
X64500000Y-69540000D03*
%TO.N,PWM_0*%
X64500000Y-67000000D03*
%TD*%
D13*
%TO.N,+3.3V*%
%TO.C,R9*%
X27810000Y-33000000D03*
D14*
%TO.N,IMU_SDA*%
X20190000Y-33000000D03*
%TD*%
D12*
%TO.N,GND*%
%TO.C,J4*%
X64500000Y-62500000D03*
D11*
%TO.N,+5V*%
X64500000Y-59960000D03*
%TO.N,PWM_1*%
X64500000Y-57420000D03*
%TD*%
D13*
%TO.N,+3.3V*%
%TO.C,R8*%
X27810000Y-35500000D03*
D14*
%TO.N,IMU_SCL*%
X20190000Y-35500000D03*
%TD*%
D12*
%TO.N,GND*%
%TO.C,J5*%
X64500000Y-53045000D03*
D11*
%TO.N,+5V*%
X64500000Y-50505000D03*
%TO.N,PWM_2*%
X64500000Y-47965000D03*
%TD*%
D10*
%TO.N,+12V*%
%TO.C,J1*%
X50975000Y-70037500D03*
D11*
%TO.N,GND*%
X53515000Y-70037500D03*
%TD*%
D12*
%TO.N,GND*%
%TO.C,J6*%
X64500000Y-43540000D03*
D11*
%TO.N,+5V*%
X64500000Y-41000000D03*
%TO.N,PWM_3*%
X64500000Y-38460000D03*
%TD*%
D10*
%TO.N,GND*%
%TO.C,J8*%
X26955000Y-70000000D03*
D11*
%TO.N,UART_RX*%
X29495000Y-70000000D03*
%TO.N,UART_TX*%
X32035000Y-70000000D03*
%TD*%
D15*
%TO.N,GND*%
X40250000Y-40937500D03*
X62500000Y-49500000D03*
X60000000Y-37500000D03*
X32000000Y-32500000D03*
X18000000Y-32000000D03*
X19000000Y-47000000D03*
X19000000Y-58000000D03*
X30500000Y-64000000D03*
X55000000Y-51500000D03*
X58000000Y-58000000D03*
X48500000Y-56500000D03*
X49000000Y-54500000D03*
X50000000Y-46500000D03*
X57500000Y-45500000D03*
X52500000Y-34500000D03*
X47500000Y-32000000D03*
X56500000Y-58000000D03*
%TO.N,PWM_1*%
X59350000Y-56500000D03*
%TO.N,+3.3V*%
X54500000Y-35000000D03*
%TO.N,+5V*%
X54500000Y-34000000D03*
%TO.N,LED_STATUS*%
X41687238Y-36236500D03*
X54500000Y-33000000D03*
%TO.N,+3.3V*%
X46000000Y-40500000D03*
%TO.N,BOOT0*%
X44582210Y-40982448D03*
%TO.N,GND*%
X35497067Y-43462424D03*
%TO.N,Net-(U3-PC13)*%
X49500000Y-34500000D03*
X42884658Y-36589685D03*
%TO.N,Net-(U3-PB0)*%
X32500000Y-38150000D03*
X37999998Y-40210418D03*
%TO.N,Net-(U3-PB1)*%
X37899899Y-41004133D03*
X32500000Y-40000000D03*
%TO.N,Net-(U3-PB10)*%
X31000000Y-42000000D03*
X37695175Y-42537500D03*
%TO.N,Net-(U3-PB2)*%
X38000001Y-41797848D03*
X34000000Y-45000000D03*
%TO.N,Net-(U3-PA15)*%
X42498968Y-43487500D03*
X44358398Y-44656414D03*
%TO.N,+3.3V*%
X31350000Y-51500000D03*
X31350000Y-53512500D03*
%TO.N,+12V*%
X52000000Y-62500000D03*
X55000000Y-59000000D03*
%TO.N,+3.3V*%
X35559329Y-44260000D03*
X35000000Y-37000000D03*
X44886779Y-37198000D03*
%TO.N,GND*%
X47370607Y-44815403D03*
%TO.N,+3.3V*%
X43500000Y-48500000D03*
%TO.N,SWCLK*%
X47969184Y-41968072D03*
%TO.N,SWDIO*%
X50000000Y-40150000D03*
%TO.N,GND*%
X29500000Y-56000000D03*
%TO.N,BATVOLTAGE_SCL*%
X36750000Y-47750000D03*
X36000000Y-49850000D03*
%TO.N,GND*%
X21000000Y-47500000D03*
%TO.N,BAROMETER_SCK*%
X25000000Y-50000000D03*
X37597521Y-39300999D03*
%TO.N,GND*%
X47500000Y-50637500D03*
%TO.N,+5V*%
X47500000Y-48362500D03*
%TO.N,USB_CONN_D-*%
X41751021Y-63050008D03*
%TO.N,USB_CONN_D+*%
X42352063Y-63651050D03*
%TO.N,USB_CONN_D-*%
X44199479Y-54699479D03*
%TO.N,USB_CONN_D+*%
X44800521Y-55300521D03*
%TO.N,UART_RX*%
X42891886Y-40558147D03*
%TO.N,UART_TX*%
X42848644Y-41393272D03*
%TO.N,GND*%
X51112500Y-58120000D03*
X34500000Y-62000000D03*
X33200000Y-58650000D03*
X20500000Y-40000000D03*
X29500000Y-40500000D03*
X29500000Y-43500000D03*
X24500000Y-38500000D03*
X21500000Y-38500000D03*
%TO.N,IMU_SCL*%
X45002764Y-39809031D03*
%TO.N,IMU_SDA*%
X45000000Y-39000000D03*
%TO.N,SWDIO*%
X42500000Y-46500000D03*
%TO.N,SWO*%
X46000000Y-42837500D03*
X52500000Y-39500000D03*
%TO.N,SWCLK*%
X45495020Y-43664403D03*
%TO.N,GND*%
X46000000Y-36000000D03*
%TO.N,+5V*%
X39900000Y-65225000D03*
%TO.N,GND*%
X43100000Y-65225000D03*
%TO.N,PWM_3*%
X36000000Y-38000000D03*
%TO.N,PWM_2*%
X36500000Y-37000000D03*
%TO.N,PWM_1*%
X37150000Y-36434313D03*
%TO.N,PWM_0*%
X38500000Y-36500000D03*
%TO.N,GND*%
X27000000Y-54025000D03*
X42520000Y-45500000D03*
X24978500Y-48478500D03*
%TO.N,+3.3V*%
X43480000Y-45500000D03*
%TO.N,+5V*%
X42500000Y-59750000D03*
X41750000Y-60500000D03*
X41000000Y-59750000D03*
X40000000Y-60500000D03*
X41750000Y-59000000D03*
X40000000Y-62000000D03*
X40000000Y-63500000D03*
X43000000Y-62000000D03*
X41750000Y-62000000D03*
X42500000Y-61250000D03*
X43000000Y-59000000D03*
X40000000Y-59000000D03*
X41000000Y-61250000D03*
%TO.N,Net-(U3-VCAP1)*%
X35500000Y-42520000D03*
%TO.N,+3.3V*%
X49000000Y-42850000D03*
%TD*%
D16*
%TO.N,+3.3V*%
X52302000Y-37198000D02*
X44886779Y-37198000D01*
X54500000Y-35000000D02*
X52302000Y-37198000D01*
%TO.N,LED_STATUS*%
X45000000Y-33000000D02*
X54500000Y-33000000D01*
X41763500Y-36236500D02*
X45000000Y-33000000D01*
X41687238Y-36236500D02*
X41763500Y-36236500D01*
D17*
%TO.N,+3.3V*%
X43480000Y-43020000D02*
X46000000Y-40500000D01*
X43480000Y-45500000D02*
X43480000Y-43020000D01*
X38217176Y-39000000D02*
X43084779Y-39000000D01*
X43084779Y-39000000D02*
X44886779Y-37198000D01*
X37867175Y-38649999D02*
X38217176Y-39000000D01*
X37866174Y-38651000D02*
X37867175Y-38649999D01*
X36500000Y-38651000D02*
X37866174Y-38651000D01*
D16*
%TO.N,Net-(U3-PB0)*%
X32500000Y-38349943D02*
X32500000Y-38150000D01*
X39001998Y-43142252D02*
X36142250Y-46002000D01*
X36142250Y-46002000D02*
X33584957Y-46002000D01*
X29998000Y-42415043D02*
X29998000Y-40851943D01*
X29998000Y-40851943D02*
X32500000Y-38349943D01*
X39001998Y-41212418D02*
X39001998Y-43142252D01*
X37999998Y-40210418D02*
X39001998Y-41212418D01*
X33584957Y-46002000D02*
X29998000Y-42415043D01*
D17*
%TO.N,+3.3V*%
X36500000Y-40500000D02*
X36500000Y-38651000D01*
D16*
%TO.N,Net-(U3-PB1)*%
X30399000Y-41751057D02*
X32150057Y-40000000D01*
X30399000Y-42248943D02*
X30399000Y-41751057D01*
X38048298Y-40885857D02*
X38600998Y-41438557D01*
X32150057Y-40000000D02*
X32500000Y-40000000D01*
X38018175Y-40885857D02*
X38048298Y-40885857D01*
X38600998Y-42976152D02*
X35976150Y-45601000D01*
X37899899Y-41004133D02*
X38018175Y-40885857D01*
X38600998Y-41438557D02*
X38600998Y-42976152D01*
X33751057Y-45601000D02*
X30399000Y-42248943D01*
X35976150Y-45601000D02*
X33751057Y-45601000D01*
%TO.N,Net-(U3-PB10)*%
X31849943Y-42000000D02*
X31000000Y-42000000D01*
X34710943Y-44861000D02*
X31849943Y-42000000D01*
X36149050Y-44861000D02*
X34710943Y-44861000D01*
X37695175Y-42537500D02*
X37691083Y-42537500D01*
X37677342Y-43332708D02*
X36149050Y-44861000D01*
X37691083Y-42537500D02*
X37677342Y-42551241D01*
X37677342Y-42551241D02*
X37677342Y-43332708D01*
D17*
%TO.N,+3.3V*%
X36500000Y-43872240D02*
X36500000Y-40500000D01*
X36112240Y-44260000D02*
X36500000Y-43872240D01*
X35559329Y-44260000D02*
X36112240Y-44260000D01*
X36500000Y-38651000D02*
X35730346Y-38651000D01*
X35000000Y-37920654D02*
X35000000Y-37000000D01*
X35730346Y-38651000D02*
X35000000Y-37920654D01*
X43500000Y-45520000D02*
X43500000Y-48500000D01*
X43480000Y-45500000D02*
X43500000Y-45520000D01*
%TD*%
%TA.AperFunction,Conductor*%
%TO.N,+5V*%
G36*
X46885098Y-31270185D02*
G01*
X46930853Y-31322989D01*
X46940797Y-31392147D01*
X46911772Y-31455703D01*
X46905740Y-31462181D01*
X46878213Y-31489707D01*
X46878210Y-31489711D01*
X46790609Y-31620814D01*
X46790602Y-31620827D01*
X46730264Y-31766498D01*
X46730261Y-31766510D01*
X46699500Y-31921153D01*
X46699500Y-32078846D01*
X46730261Y-32233489D01*
X46732031Y-32239324D01*
X46729279Y-32240158D01*
X46735503Y-32297359D01*
X46704309Y-32359878D01*
X46644266Y-32395608D01*
X46613445Y-32399500D01*
X45079057Y-32399500D01*
X44920942Y-32399500D01*
X44768215Y-32440423D01*
X44744425Y-32454158D01*
X44738050Y-32457839D01*
X44738049Y-32457838D01*
X44631287Y-32519477D01*
X44631282Y-32519481D01*
X44571922Y-32578842D01*
X44519480Y-32631284D01*
X44519478Y-32631286D01*
X43124005Y-34026760D01*
X41751084Y-35399681D01*
X41689761Y-35433166D01*
X41663403Y-35436000D01*
X41608393Y-35436000D01*
X41453748Y-35466761D01*
X41453736Y-35466764D01*
X41308065Y-35527102D01*
X41308052Y-35527109D01*
X41176949Y-35614710D01*
X41176945Y-35614713D01*
X41065451Y-35726207D01*
X41065448Y-35726211D01*
X40977847Y-35857314D01*
X40977840Y-35857327D01*
X40917502Y-36002998D01*
X40917499Y-36003010D01*
X40886738Y-36157653D01*
X40886738Y-36315346D01*
X40917499Y-36469989D01*
X40917502Y-36470001D01*
X40977840Y-36615672D01*
X40977847Y-36615685D01*
X41065448Y-36746788D01*
X41065451Y-36746792D01*
X41176945Y-36858286D01*
X41176949Y-36858289D01*
X41308052Y-36945890D01*
X41308065Y-36945897D01*
X41453736Y-37006235D01*
X41453741Y-37006237D01*
X41581143Y-37031579D01*
X41608391Y-37036999D01*
X41608394Y-37037000D01*
X41608396Y-37037000D01*
X41766082Y-37037000D01*
X41766083Y-37036999D01*
X41920735Y-37006237D01*
X42045630Y-36954503D01*
X42115099Y-36947035D01*
X42177578Y-36978310D01*
X42196184Y-37000174D01*
X42262868Y-37099973D01*
X42262871Y-37099977D01*
X42374365Y-37211471D01*
X42374369Y-37211474D01*
X42505472Y-37299075D01*
X42505485Y-37299082D01*
X42573816Y-37327385D01*
X42651161Y-37359422D01*
X42805811Y-37390184D01*
X42805814Y-37390185D01*
X42805816Y-37390185D01*
X42963502Y-37390185D01*
X42963503Y-37390184D01*
X43118155Y-37359422D01*
X43230824Y-37312752D01*
X43263830Y-37299082D01*
X43263830Y-37299081D01*
X43263837Y-37299079D01*
X43394947Y-37211474D01*
X43506447Y-37099974D01*
X43594052Y-36968864D01*
X43595861Y-36964498D01*
X43631203Y-36879172D01*
X43654395Y-36823182D01*
X43685158Y-36668527D01*
X43685158Y-36510843D01*
X43685158Y-36510840D01*
X43685157Y-36510838D01*
X43685048Y-36510289D01*
X43654395Y-36356188D01*
X43637476Y-36315342D01*
X43594055Y-36210512D01*
X43594048Y-36210499D01*
X43506447Y-36079396D01*
X43506444Y-36079392D01*
X43394950Y-35967898D01*
X43394946Y-35967895D01*
X43263843Y-35880294D01*
X43263834Y-35880289D01*
X43226767Y-35864936D01*
X43172364Y-35821095D01*
X43150299Y-35754801D01*
X43167578Y-35687102D01*
X43186535Y-35662698D01*
X45212416Y-33636819D01*
X45273739Y-33603334D01*
X45300097Y-33600500D01*
X48996561Y-33600500D01*
X49063600Y-33620185D01*
X49109355Y-33672989D01*
X49119299Y-33742147D01*
X49090274Y-33805703D01*
X49065452Y-33827602D01*
X48989711Y-33878210D01*
X48989707Y-33878213D01*
X48878213Y-33989707D01*
X48878210Y-33989711D01*
X48790609Y-34120814D01*
X48790602Y-34120827D01*
X48730264Y-34266498D01*
X48730261Y-34266510D01*
X48699500Y-34421153D01*
X48699500Y-34578846D01*
X48730261Y-34733489D01*
X48730264Y-34733501D01*
X48790602Y-34879172D01*
X48790609Y-34879185D01*
X48878210Y-35010288D01*
X48878213Y-35010292D01*
X48989707Y-35121786D01*
X48989711Y-35121789D01*
X49120814Y-35209390D01*
X49120827Y-35209397D01*
X49266498Y-35269735D01*
X49266503Y-35269737D01*
X49421153Y-35300499D01*
X49421156Y-35300500D01*
X49421158Y-35300500D01*
X49578844Y-35300500D01*
X49578845Y-35300499D01*
X49733497Y-35269737D01*
X49879179Y-35209394D01*
X50010289Y-35121789D01*
X50121789Y-35010289D01*
X50209394Y-34879179D01*
X50269737Y-34733497D01*
X50300500Y-34578842D01*
X50300500Y-34421158D01*
X50300500Y-34421155D01*
X50300499Y-34421153D01*
X50289912Y-34367931D01*
X50269737Y-34266503D01*
X50257047Y-34235866D01*
X50209397Y-34120827D01*
X50209390Y-34120814D01*
X50121789Y-33989711D01*
X50121786Y-33989707D01*
X50010292Y-33878213D01*
X50010288Y-33878210D01*
X49934548Y-33827602D01*
X49889743Y-33773990D01*
X49881036Y-33704665D01*
X49911190Y-33641637D01*
X49970634Y-33604918D01*
X50003439Y-33600500D01*
X51996561Y-33600500D01*
X52063600Y-33620185D01*
X52109355Y-33672989D01*
X52119299Y-33742147D01*
X52090274Y-33805703D01*
X52065452Y-33827602D01*
X51989711Y-33878210D01*
X51989707Y-33878213D01*
X51878213Y-33989707D01*
X51878210Y-33989711D01*
X51790609Y-34120814D01*
X51790602Y-34120827D01*
X51730264Y-34266498D01*
X51730261Y-34266510D01*
X51699500Y-34421153D01*
X51699500Y-34578846D01*
X51730261Y-34733489D01*
X51730264Y-34733501D01*
X51790602Y-34879172D01*
X51790609Y-34879185D01*
X51878210Y-35010288D01*
X51878213Y-35010292D01*
X51989707Y-35121786D01*
X51989711Y-35121789D01*
X52120814Y-35209390D01*
X52120827Y-35209397D01*
X52266498Y-35269735D01*
X52266503Y-35269737D01*
X52421153Y-35300499D01*
X52421156Y-35300500D01*
X52421158Y-35300500D01*
X52578844Y-35300500D01*
X52578845Y-35300499D01*
X52733497Y-35269737D01*
X52879179Y-35209394D01*
X53010289Y-35121789D01*
X53121789Y-35010289D01*
X53209394Y-34879179D01*
X53269737Y-34733497D01*
X53300500Y-34578842D01*
X53300500Y-34421158D01*
X53300500Y-34421155D01*
X53300499Y-34421153D01*
X53289912Y-34367931D01*
X53269737Y-34266503D01*
X53257047Y-34235866D01*
X53209397Y-34120827D01*
X53209390Y-34120814D01*
X53121789Y-33989711D01*
X53121786Y-33989707D01*
X53010292Y-33878213D01*
X53010288Y-33878210D01*
X52934548Y-33827602D01*
X52889743Y-33773990D01*
X52881036Y-33704665D01*
X52911190Y-33641637D01*
X52970634Y-33604918D01*
X53003439Y-33600500D01*
X53920234Y-33600500D01*
X53987273Y-33620185D01*
X53989125Y-33621398D01*
X54120814Y-33709390D01*
X54120827Y-33709397D01*
X54199894Y-33742147D01*
X54266503Y-33769737D01*
X54371418Y-33790606D01*
X54421153Y-33800499D01*
X54421156Y-33800500D01*
X54421158Y-33800500D01*
X54578844Y-33800500D01*
X54578845Y-33800499D01*
X54733497Y-33769737D01*
X54879179Y-33709394D01*
X55010289Y-33621789D01*
X55121789Y-33510289D01*
X55209394Y-33379179D01*
X55269737Y-33233497D01*
X55300500Y-33078842D01*
X55300500Y-32921158D01*
X55300500Y-32921155D01*
X55300499Y-32921153D01*
X55276499Y-32800499D01*
X55269737Y-32766503D01*
X55256062Y-32733489D01*
X55209397Y-32620827D01*
X55209390Y-32620814D01*
X55121789Y-32489711D01*
X55121786Y-32489707D01*
X55010292Y-32378213D01*
X55010288Y-32378210D01*
X54879185Y-32290609D01*
X54879172Y-32290602D01*
X54733501Y-32230264D01*
X54733489Y-32230261D01*
X54578845Y-32199500D01*
X54578842Y-32199500D01*
X54421158Y-32199500D01*
X54421155Y-32199500D01*
X54266510Y-32230261D01*
X54266498Y-32230264D01*
X54120827Y-32290602D01*
X54120814Y-32290609D01*
X53989125Y-32378602D01*
X53922447Y-32399480D01*
X53920234Y-32399500D01*
X48386555Y-32399500D01*
X48319516Y-32379815D01*
X48273761Y-32327011D01*
X48263817Y-32257853D01*
X48268840Y-32239588D01*
X48267969Y-32239324D01*
X48269731Y-32233509D01*
X48269737Y-32233497D01*
X48300500Y-32078842D01*
X48300500Y-31921158D01*
X48300500Y-31921155D01*
X48300499Y-31921153D01*
X48282180Y-31829059D01*
X48269737Y-31766503D01*
X48269735Y-31766498D01*
X48209397Y-31620827D01*
X48209390Y-31620814D01*
X48121789Y-31489711D01*
X48121786Y-31489707D01*
X48094260Y-31462181D01*
X48060775Y-31400858D01*
X48065759Y-31331166D01*
X48107631Y-31275233D01*
X48173095Y-31250816D01*
X48181941Y-31250500D01*
X67875500Y-31250500D01*
X67942539Y-31270185D01*
X67988294Y-31322989D01*
X67999500Y-31374500D01*
X67999500Y-73375500D01*
X67979815Y-73442539D01*
X67927011Y-73488294D01*
X67875500Y-73499500D01*
X65940031Y-73499500D01*
X65872992Y-73479815D01*
X65827237Y-73427011D01*
X65817293Y-73357853D01*
X65839847Y-73305375D01*
X65838920Y-73304803D01*
X65842710Y-73298657D01*
X65842712Y-73298656D01*
X65934814Y-73149334D01*
X65989999Y-72982797D01*
X66000500Y-72880009D01*
X66000499Y-71279992D01*
X65994233Y-71218656D01*
X65989999Y-71177203D01*
X65989998Y-71177200D01*
X65977750Y-71140238D01*
X65934814Y-71010666D01*
X65842712Y-70861344D01*
X65718656Y-70737288D01*
X65569334Y-70645186D01*
X65402797Y-70590001D01*
X65402795Y-70590000D01*
X65300010Y-70579500D01*
X63699998Y-70579500D01*
X63699981Y-70579501D01*
X63597203Y-70590000D01*
X63597200Y-70590001D01*
X63430668Y-70645185D01*
X63430663Y-70645187D01*
X63281342Y-70737289D01*
X63157289Y-70861342D01*
X63065187Y-71010663D01*
X63065185Y-71010668D01*
X63063746Y-71015011D01*
X63010001Y-71177203D01*
X63010001Y-71177204D01*
X63010000Y-71177204D01*
X62999500Y-71279983D01*
X62999500Y-72880001D01*
X62999501Y-72880018D01*
X63010000Y-72982796D01*
X63010001Y-72982799D01*
X63065185Y-73149331D01*
X63065187Y-73149336D01*
X63161080Y-73304803D01*
X63160008Y-73305463D01*
X63183376Y-73363385D01*
X63170335Y-73432027D01*
X63122254Y-73482722D01*
X63059969Y-73499500D01*
X17624500Y-73499500D01*
X17557461Y-73479815D01*
X17511706Y-73427011D01*
X17500500Y-73375500D01*
X17500500Y-69881902D01*
X20999500Y-69881902D01*
X20999500Y-70118097D01*
X21036446Y-70351368D01*
X21109433Y-70575996D01*
X21191616Y-70737288D01*
X21216657Y-70786433D01*
X21355483Y-70977510D01*
X21522490Y-71144517D01*
X21713567Y-71283343D01*
X21787163Y-71320842D01*
X21924003Y-71390566D01*
X21924005Y-71390566D01*
X21924008Y-71390568D01*
X22039415Y-71428066D01*
X22148631Y-71463553D01*
X22381903Y-71500500D01*
X22381908Y-71500500D01*
X22618097Y-71500500D01*
X22851368Y-71463553D01*
X23075992Y-71390568D01*
X23286433Y-71283343D01*
X23477510Y-71144517D01*
X23644517Y-70977510D01*
X23783343Y-70786433D01*
X23890568Y-70575992D01*
X23963553Y-70351368D01*
X24000500Y-70118097D01*
X24000500Y-69881902D01*
X23963553Y-69648631D01*
X23929689Y-69544412D01*
X23890568Y-69424008D01*
X23890566Y-69424005D01*
X23890566Y-69424003D01*
X23803501Y-69253129D01*
X23803500Y-69253125D01*
X23783346Y-69213571D01*
X23773474Y-69199983D01*
X25454500Y-69199983D01*
X25454500Y-70800001D01*
X25454501Y-70800018D01*
X25465000Y-70902796D01*
X25465001Y-70902799D01*
X25489759Y-70977512D01*
X25520186Y-71069334D01*
X25612288Y-71218656D01*
X25736344Y-71342712D01*
X25885666Y-71434814D01*
X26052203Y-71489999D01*
X26154991Y-71500500D01*
X27755008Y-71500499D01*
X27857797Y-71489999D01*
X28024334Y-71434814D01*
X28173656Y-71342712D01*
X28297712Y-71218656D01*
X28327512Y-71170341D01*
X28379458Y-71123618D01*
X28448420Y-71112395D01*
X28512503Y-71140238D01*
X28513758Y-71141385D01*
X28513786Y-71141353D01*
X28517481Y-71144508D01*
X28517490Y-71144517D01*
X28708567Y-71283343D01*
X28782163Y-71320842D01*
X28919003Y-71390566D01*
X28919005Y-71390566D01*
X28919008Y-71390568D01*
X29034415Y-71428066D01*
X29143631Y-71463553D01*
X29376903Y-71500500D01*
X29376908Y-71500500D01*
X29613097Y-71500500D01*
X29846368Y-71463553D01*
X30070992Y-71390568D01*
X30281433Y-71283343D01*
X30472510Y-71144517D01*
X30639517Y-70977510D01*
X30664682Y-70942872D01*
X30720011Y-70900207D01*
X30789625Y-70894228D01*
X30851420Y-70926833D01*
X30865315Y-70942870D01*
X30890483Y-70977510D01*
X31057490Y-71144517D01*
X31248567Y-71283343D01*
X31322163Y-71320842D01*
X31459003Y-71390566D01*
X31459005Y-71390566D01*
X31459008Y-71390568D01*
X31574415Y-71428066D01*
X31683631Y-71463553D01*
X31916903Y-71500500D01*
X31916908Y-71500500D01*
X32153097Y-71500500D01*
X32386368Y-71463553D01*
X32610992Y-71390568D01*
X32821433Y-71283343D01*
X33012510Y-71144517D01*
X33179517Y-70977510D01*
X33318343Y-70786433D01*
X33425568Y-70575992D01*
X33498553Y-70351368D01*
X33535500Y-70118097D01*
X33535500Y-69881902D01*
X33498553Y-69648631D01*
X33464689Y-69544412D01*
X33425568Y-69424008D01*
X33425566Y-69424005D01*
X33425566Y-69424003D01*
X33357608Y-69290629D01*
X33337450Y-69251067D01*
X33330529Y-69237483D01*
X49474500Y-69237483D01*
X49474500Y-70837501D01*
X49474501Y-70837518D01*
X49485000Y-70940296D01*
X49485001Y-70940299D01*
X49527121Y-71067406D01*
X49540186Y-71106834D01*
X49632288Y-71256156D01*
X49756344Y-71380212D01*
X49905666Y-71472314D01*
X50072203Y-71527499D01*
X50174991Y-71538000D01*
X51775008Y-71537999D01*
X51877797Y-71527499D01*
X52044334Y-71472314D01*
X52193656Y-71380212D01*
X52317712Y-71256156D01*
X52347512Y-71207841D01*
X52399458Y-71161118D01*
X52468420Y-71149895D01*
X52532503Y-71177738D01*
X52533758Y-71178885D01*
X52533786Y-71178853D01*
X52537481Y-71182008D01*
X52537490Y-71182017D01*
X52728567Y-71320843D01*
X52827991Y-71371502D01*
X52939003Y-71428066D01*
X52939005Y-71428066D01*
X52939008Y-71428068D01*
X53048219Y-71463553D01*
X53163631Y-71501053D01*
X53396903Y-71538000D01*
X53396908Y-71538000D01*
X53633097Y-71538000D01*
X53866368Y-71501053D01*
X53868076Y-71500498D01*
X54090992Y-71428068D01*
X54301433Y-71320843D01*
X54492510Y-71182017D01*
X54659517Y-71015010D01*
X54798343Y-70823933D01*
X54905568Y-70613492D01*
X54978553Y-70388868D01*
X54984492Y-70351368D01*
X55015500Y-70155597D01*
X55015500Y-69919402D01*
X54978553Y-69686131D01*
X54905566Y-69461503D01*
X54818501Y-69290629D01*
X54798343Y-69251067D01*
X54659517Y-69059990D01*
X54492510Y-68892983D01*
X54301433Y-68754157D01*
X54090996Y-68646933D01*
X53866368Y-68573946D01*
X53633097Y-68537000D01*
X53633092Y-68537000D01*
X53396908Y-68537000D01*
X53396903Y-68537000D01*
X53163631Y-68573946D01*
X52939003Y-68646933D01*
X52728566Y-68754157D01*
X52639533Y-68818844D01*
X52537490Y-68892983D01*
X52537488Y-68892985D01*
X52533786Y-68896147D01*
X52532305Y-68894413D01*
X52479110Y-68923291D01*
X52409431Y-68918135D01*
X52353601Y-68876126D01*
X52347511Y-68867156D01*
X52340311Y-68855483D01*
X52317712Y-68818844D01*
X52193656Y-68694788D01*
X52044334Y-68602686D01*
X51877797Y-68547501D01*
X51877795Y-68547500D01*
X51775010Y-68537000D01*
X50174998Y-68537000D01*
X50174981Y-68537001D01*
X50072203Y-68547500D01*
X50072200Y-68547501D01*
X49905668Y-68602685D01*
X49905663Y-68602687D01*
X49756342Y-68694789D01*
X49632289Y-68818842D01*
X49540187Y-68968163D01*
X49540186Y-68968166D01*
X49485001Y-69134703D01*
X49485001Y-69134704D01*
X49485000Y-69134704D01*
X49474500Y-69237483D01*
X33330529Y-69237483D01*
X33318343Y-69213567D01*
X33179517Y-69022490D01*
X33012510Y-68855483D01*
X32821433Y-68716657D01*
X32778513Y-68694788D01*
X32610996Y-68609433D01*
X32386368Y-68536446D01*
X32153097Y-68499500D01*
X32153092Y-68499500D01*
X31916908Y-68499500D01*
X31916903Y-68499500D01*
X31683631Y-68536446D01*
X31459003Y-68609433D01*
X31248566Y-68716657D01*
X31159533Y-68781344D01*
X31057490Y-68855483D01*
X31057488Y-68855485D01*
X31057487Y-68855485D01*
X30890484Y-69022488D01*
X30865318Y-69057127D01*
X30809987Y-69099792D01*
X30740374Y-69105771D01*
X30678579Y-69073165D01*
X30664682Y-69057127D01*
X30639517Y-69022490D01*
X30472510Y-68855483D01*
X30281433Y-68716657D01*
X30238513Y-68694788D01*
X30070996Y-68609433D01*
X29846368Y-68536446D01*
X29613097Y-68499500D01*
X29613092Y-68499500D01*
X29376908Y-68499500D01*
X29376903Y-68499500D01*
X29143631Y-68536446D01*
X28919003Y-68609433D01*
X28708566Y-68716657D01*
X28619533Y-68781344D01*
X28517490Y-68855483D01*
X28517488Y-68855485D01*
X28513786Y-68858647D01*
X28512305Y-68856913D01*
X28459110Y-68885791D01*
X28389431Y-68880635D01*
X28333601Y-68838626D01*
X28327511Y-68829656D01*
X28320841Y-68818842D01*
X28297712Y-68781344D01*
X28173656Y-68657288D01*
X28038538Y-68573947D01*
X28024336Y-68565187D01*
X28024331Y-68565185D01*
X27970961Y-68547500D01*
X27857797Y-68510001D01*
X27857795Y-68510000D01*
X27755010Y-68499500D01*
X26154998Y-68499500D01*
X26154981Y-68499501D01*
X26052203Y-68510000D01*
X26052200Y-68510001D01*
X25885668Y-68565185D01*
X25885663Y-68565187D01*
X25736342Y-68657289D01*
X25612289Y-68781342D01*
X25520187Y-68930663D01*
X25520186Y-68930666D01*
X25465001Y-69097203D01*
X25465001Y-69097204D01*
X25465000Y-69097204D01*
X25454500Y-69199983D01*
X23773474Y-69199983D01*
X23726045Y-69134704D01*
X23644517Y-69022490D01*
X23477510Y-68855483D01*
X23286433Y-68716657D01*
X23243513Y-68694788D01*
X23075996Y-68609433D01*
X22851368Y-68536446D01*
X22618097Y-68499500D01*
X22618092Y-68499500D01*
X22381908Y-68499500D01*
X22381903Y-68499500D01*
X22148631Y-68536446D01*
X21924003Y-68609433D01*
X21713566Y-68716657D01*
X21624533Y-68781344D01*
X21522490Y-68855483D01*
X21522488Y-68855485D01*
X21522487Y-68855485D01*
X21355485Y-69022487D01*
X21355485Y-69022488D01*
X21355483Y-69022490D01*
X21301201Y-69097203D01*
X21216657Y-69213566D01*
X21109433Y-69424003D01*
X21036446Y-69648631D01*
X20999500Y-69881902D01*
X17500500Y-69881902D01*
X17500500Y-67998920D01*
X38549499Y-67998920D01*
X38578340Y-68143907D01*
X38578343Y-68143917D01*
X38634912Y-68280488D01*
X38634919Y-68280501D01*
X38717048Y-68403415D01*
X38717051Y-68403419D01*
X38821580Y-68507948D01*
X38821584Y-68507951D01*
X38944498Y-68590080D01*
X38944511Y-68590087D01*
X39081082Y-68646656D01*
X39081087Y-68646658D01*
X39081091Y-68646658D01*
X39081092Y-68646659D01*
X39226079Y-68675500D01*
X39226082Y-68675500D01*
X39373920Y-68675500D01*
X39471462Y-68656096D01*
X39518913Y-68646658D01*
X39655495Y-68590084D01*
X39778416Y-68507951D01*
X39882951Y-68403416D01*
X39965084Y-68280495D01*
X40021658Y-68143913D01*
X40050500Y-67998920D01*
X42949499Y-67998920D01*
X42978340Y-68143907D01*
X42978343Y-68143917D01*
X43034912Y-68280488D01*
X43034919Y-68280501D01*
X43117048Y-68403415D01*
X43117051Y-68403419D01*
X43221580Y-68507948D01*
X43221584Y-68507951D01*
X43344498Y-68590080D01*
X43344511Y-68590087D01*
X43481082Y-68646656D01*
X43481087Y-68646658D01*
X43481091Y-68646658D01*
X43481092Y-68646659D01*
X43626079Y-68675500D01*
X43626082Y-68675500D01*
X43773920Y-68675500D01*
X43871462Y-68656096D01*
X43918913Y-68646658D01*
X44055495Y-68590084D01*
X44178416Y-68507951D01*
X44282951Y-68403416D01*
X44365084Y-68280495D01*
X44421658Y-68143913D01*
X44450500Y-67998918D01*
X44450500Y-67851082D01*
X44450500Y-67851079D01*
X44421659Y-67706092D01*
X44421658Y-67706091D01*
X44421658Y-67706087D01*
X44367771Y-67575992D01*
X44365087Y-67569511D01*
X44365080Y-67569498D01*
X44282951Y-67446584D01*
X44282948Y-67446580D01*
X44178419Y-67342051D01*
X44178415Y-67342048D01*
X44055501Y-67259919D01*
X44055488Y-67259912D01*
X43918917Y-67203343D01*
X43918907Y-67203340D01*
X43773920Y-67174500D01*
X43773918Y-67174500D01*
X43626082Y-67174500D01*
X43626080Y-67174500D01*
X43481092Y-67203340D01*
X43481082Y-67203343D01*
X43344511Y-67259912D01*
X43344498Y-67259919D01*
X43221584Y-67342048D01*
X43221580Y-67342051D01*
X43117051Y-67446580D01*
X43117048Y-67446584D01*
X43034919Y-67569498D01*
X43034912Y-67569511D01*
X42978343Y-67706082D01*
X42978340Y-67706092D01*
X42949500Y-67851079D01*
X42949500Y-67851082D01*
X42949500Y-67998918D01*
X42949500Y-67998920D01*
X42949499Y-67998920D01*
X40050500Y-67998920D01*
X40050500Y-67998918D01*
X40050500Y-67851082D01*
X40050500Y-67851079D01*
X40021659Y-67706092D01*
X40021658Y-67706091D01*
X40021658Y-67706087D01*
X39967771Y-67575992D01*
X39965087Y-67569511D01*
X39965080Y-67569498D01*
X39882951Y-67446584D01*
X39882948Y-67446580D01*
X39778419Y-67342051D01*
X39778415Y-67342048D01*
X39655501Y-67259919D01*
X39655488Y-67259912D01*
X39518917Y-67203343D01*
X39518907Y-67203340D01*
X39373920Y-67174500D01*
X39373918Y-67174500D01*
X39226082Y-67174500D01*
X39226080Y-67174500D01*
X39081092Y-67203340D01*
X39081082Y-67203343D01*
X38944511Y-67259912D01*
X38944498Y-67259919D01*
X38821584Y-67342048D01*
X38821580Y-67342051D01*
X38717051Y-67446580D01*
X38717048Y-67446584D01*
X38634919Y-67569498D01*
X38634912Y-67569511D01*
X38578343Y-67706082D01*
X38578340Y-67706092D01*
X38549500Y-67851079D01*
X38549500Y-67851082D01*
X38549500Y-67998918D01*
X38549500Y-67998920D01*
X38549499Y-67998920D01*
X17500500Y-67998920D01*
X17500500Y-66881902D01*
X62999500Y-66881902D01*
X62999500Y-67118097D01*
X63036446Y-67351368D01*
X63109433Y-67575996D01*
X63175721Y-67706092D01*
X63216657Y-67786433D01*
X63355483Y-67977510D01*
X63522490Y-68144517D01*
X63713567Y-68283343D01*
X63812991Y-68334002D01*
X63924003Y-68390566D01*
X63924005Y-68390566D01*
X63924008Y-68390568D01*
X64044412Y-68429689D01*
X64148631Y-68463553D01*
X64381903Y-68500500D01*
X64381908Y-68500500D01*
X64618097Y-68500500D01*
X64851368Y-68463553D01*
X65075992Y-68390568D01*
X65286433Y-68283343D01*
X65477510Y-68144517D01*
X65644517Y-67977510D01*
X65783343Y-67786433D01*
X65890568Y-67575992D01*
X65963553Y-67351368D01*
X65978037Y-67259919D01*
X66000500Y-67118097D01*
X66000500Y-66881902D01*
X65963553Y-66648631D01*
X65890566Y-66424003D01*
X65783342Y-66213566D01*
X65644517Y-66022490D01*
X65477510Y-65855483D01*
X65286433Y-65716657D01*
X65075996Y-65609433D01*
X64851368Y-65536446D01*
X64618097Y-65499500D01*
X64618092Y-65499500D01*
X64381908Y-65499500D01*
X64381903Y-65499500D01*
X64148631Y-65536446D01*
X63924003Y-65609433D01*
X63713566Y-65716657D01*
X63604550Y-65795862D01*
X63522490Y-65855483D01*
X63522488Y-65855485D01*
X63522487Y-65855485D01*
X63355485Y-66022487D01*
X63355485Y-66022488D01*
X63355483Y-66022490D01*
X63295862Y-66104550D01*
X63216657Y-66213566D01*
X63109433Y-66424003D01*
X63036446Y-66648631D01*
X62999500Y-66881902D01*
X17500500Y-66881902D01*
X17500500Y-62381902D01*
X23499500Y-62381902D01*
X23499500Y-62618097D01*
X23536446Y-62851368D01*
X23609433Y-63075996D01*
X23677405Y-63209397D01*
X23716657Y-63286433D01*
X23855483Y-63477510D01*
X24022490Y-63644517D01*
X24213567Y-63783343D01*
X24285010Y-63819745D01*
X24424003Y-63890566D01*
X24424005Y-63890566D01*
X24424008Y-63890568D01*
X24518139Y-63921153D01*
X24648631Y-63963553D01*
X24881903Y-64000500D01*
X24881908Y-64000500D01*
X25118097Y-64000500D01*
X25351368Y-63963553D01*
X25481861Y-63921153D01*
X29699500Y-63921153D01*
X29699500Y-64078846D01*
X29730261Y-64233489D01*
X29730264Y-64233501D01*
X29790602Y-64379172D01*
X29790609Y-64379185D01*
X29878210Y-64510288D01*
X29878213Y-64510292D01*
X29989707Y-64621786D01*
X29989711Y-64621789D01*
X30120814Y-64709390D01*
X30120827Y-64709397D01*
X30266498Y-64769735D01*
X30266503Y-64769737D01*
X30421153Y-64800499D01*
X30421156Y-64800500D01*
X30421158Y-64800500D01*
X30578844Y-64800500D01*
X30578845Y-64800499D01*
X30733497Y-64769737D01*
X30879179Y-64709394D01*
X31010289Y-64621789D01*
X31121789Y-64510289D01*
X31209394Y-64379179D01*
X31215949Y-64363355D01*
X31269735Y-64233501D01*
X31269737Y-64233497D01*
X31300500Y-64078842D01*
X31300500Y-63921158D01*
X31300500Y-63921155D01*
X31300499Y-63921153D01*
X31293218Y-63884551D01*
X31269737Y-63766503D01*
X31254573Y-63729894D01*
X31209397Y-63620827D01*
X31209390Y-63620814D01*
X31121789Y-63489711D01*
X31121786Y-63489707D01*
X31010292Y-63378213D01*
X31010288Y-63378210D01*
X30879185Y-63290609D01*
X30879172Y-63290602D01*
X30733501Y-63230264D01*
X30733489Y-63230261D01*
X30578845Y-63199500D01*
X30578842Y-63199500D01*
X30421158Y-63199500D01*
X30421155Y-63199500D01*
X30266510Y-63230261D01*
X30266498Y-63230264D01*
X30120827Y-63290602D01*
X30120814Y-63290609D01*
X29989711Y-63378210D01*
X29989707Y-63378213D01*
X29878213Y-63489707D01*
X29878210Y-63489711D01*
X29790609Y-63620814D01*
X29790602Y-63620827D01*
X29730264Y-63766498D01*
X29730261Y-63766510D01*
X29699500Y-63921153D01*
X25481861Y-63921153D01*
X25575992Y-63890568D01*
X25786433Y-63783343D01*
X25977510Y-63644517D01*
X26144517Y-63477510D01*
X26283343Y-63286433D01*
X26390568Y-63075992D01*
X26424630Y-62971161D01*
X40950521Y-62971161D01*
X40950521Y-63128854D01*
X40981282Y-63283497D01*
X40981285Y-63283509D01*
X41041623Y-63429180D01*
X41041630Y-63429193D01*
X41129231Y-63560296D01*
X41129234Y-63560300D01*
X41240728Y-63671794D01*
X41240732Y-63671797D01*
X41371835Y-63759398D01*
X41371848Y-63759405D01*
X41515892Y-63819069D01*
X41570296Y-63862909D01*
X41583001Y-63886178D01*
X41642665Y-64030222D01*
X41642672Y-64030235D01*
X41730273Y-64161338D01*
X41730276Y-64161342D01*
X41841770Y-64272836D01*
X41841774Y-64272839D01*
X41972877Y-64360440D01*
X41972890Y-64360447D01*
X42095964Y-64411425D01*
X42118566Y-64420787D01*
X42273216Y-64451549D01*
X42273219Y-64451550D01*
X42436997Y-64451550D01*
X42436997Y-64452852D01*
X42499038Y-64464613D01*
X42549753Y-64512674D01*
X42566433Y-64580523D01*
X42543783Y-64646619D01*
X42530238Y-64662682D01*
X42478214Y-64714706D01*
X42478210Y-64714711D01*
X42390609Y-64845814D01*
X42390602Y-64845827D01*
X42330264Y-64991498D01*
X42330261Y-64991510D01*
X42299500Y-65146153D01*
X42299500Y-65303846D01*
X42330261Y-65458489D01*
X42330264Y-65458501D01*
X42390602Y-65604172D01*
X42390609Y-65604185D01*
X42478210Y-65735288D01*
X42478213Y-65735292D01*
X42589707Y-65846786D01*
X42589711Y-65846789D01*
X42720814Y-65934390D01*
X42720827Y-65934397D01*
X42866498Y-65994735D01*
X42866503Y-65994737D01*
X43006011Y-66022487D01*
X43021153Y-66025499D01*
X43021156Y-66025500D01*
X43021158Y-66025500D01*
X43178844Y-66025500D01*
X43178845Y-66025499D01*
X43333497Y-65994737D01*
X43479179Y-65934394D01*
X43610289Y-65846789D01*
X43721789Y-65735289D01*
X43809394Y-65604179D01*
X43869737Y-65458497D01*
X43900500Y-65303842D01*
X43900500Y-65146158D01*
X43900500Y-65146155D01*
X43900499Y-65146153D01*
X43869738Y-64991510D01*
X43869737Y-64991503D01*
X43869735Y-64991498D01*
X43809397Y-64845827D01*
X43809390Y-64845814D01*
X43721789Y-64714711D01*
X43721786Y-64714707D01*
X43610292Y-64603213D01*
X43610288Y-64603210D01*
X43479185Y-64515609D01*
X43479172Y-64515602D01*
X43333501Y-64455264D01*
X43333489Y-64455261D01*
X43178845Y-64424500D01*
X43178842Y-64424500D01*
X43021158Y-64424500D01*
X43015066Y-64424500D01*
X43015066Y-64423202D01*
X42953002Y-64411425D01*
X42902297Y-64363355D01*
X42885630Y-64295502D01*
X42908293Y-64229410D01*
X42921826Y-64213365D01*
X42973849Y-64161342D01*
X42973852Y-64161339D01*
X43061457Y-64030229D01*
X43121800Y-63884547D01*
X43152563Y-63729892D01*
X43152563Y-63572208D01*
X43152563Y-63572205D01*
X43152562Y-63572203D01*
X43136152Y-63489707D01*
X43121800Y-63417553D01*
X43115688Y-63402797D01*
X43061460Y-63271877D01*
X43061453Y-63271864D01*
X42973852Y-63140761D01*
X42973849Y-63140757D01*
X42862355Y-63029263D01*
X42862351Y-63029260D01*
X42731248Y-62941659D01*
X42731235Y-62941652D01*
X42587191Y-62881988D01*
X42532787Y-62838147D01*
X42520082Y-62814879D01*
X42460418Y-62670835D01*
X42460411Y-62670822D01*
X42372810Y-62539719D01*
X42372807Y-62539715D01*
X42261313Y-62428221D01*
X42261309Y-62428218D01*
X42130206Y-62340617D01*
X42130193Y-62340610D01*
X41984522Y-62280272D01*
X41984510Y-62280269D01*
X41829866Y-62249508D01*
X41829863Y-62249508D01*
X41672179Y-62249508D01*
X41672176Y-62249508D01*
X41517531Y-62280269D01*
X41517519Y-62280272D01*
X41371848Y-62340610D01*
X41371835Y-62340617D01*
X41240732Y-62428218D01*
X41240728Y-62428221D01*
X41129234Y-62539715D01*
X41129231Y-62539719D01*
X41041630Y-62670822D01*
X41041623Y-62670835D01*
X40981285Y-62816506D01*
X40981282Y-62816518D01*
X40950521Y-62971161D01*
X26424630Y-62971161D01*
X26463553Y-62851368D01*
X26476482Y-62769737D01*
X26500500Y-62618097D01*
X26500500Y-62381902D01*
X26471043Y-62195924D01*
X26463553Y-62148632D01*
X26463552Y-62148628D01*
X26463552Y-62148627D01*
X26411916Y-61989711D01*
X26390568Y-61924008D01*
X26389113Y-61921153D01*
X33699500Y-61921153D01*
X33699500Y-62078846D01*
X33730261Y-62233489D01*
X33730264Y-62233501D01*
X33790602Y-62379172D01*
X33790609Y-62379185D01*
X33878210Y-62510288D01*
X33878213Y-62510292D01*
X33989707Y-62621786D01*
X33989711Y-62621789D01*
X34120814Y-62709390D01*
X34120827Y-62709397D01*
X34266498Y-62769735D01*
X34266503Y-62769737D01*
X34421153Y-62800499D01*
X34421156Y-62800500D01*
X34421158Y-62800500D01*
X34578844Y-62800500D01*
X34578845Y-62800499D01*
X34733497Y-62769737D01*
X34879179Y-62709394D01*
X35010289Y-62621789D01*
X35121789Y-62510289D01*
X35209394Y-62379179D01*
X35269737Y-62233497D01*
X35300500Y-62078842D01*
X35300500Y-61921158D01*
X35300500Y-61921155D01*
X35300499Y-61921153D01*
X35291957Y-61878210D01*
X35269737Y-61766503D01*
X35269735Y-61766498D01*
X35209397Y-61620827D01*
X35209390Y-61620814D01*
X35121789Y-61489711D01*
X35121786Y-61489707D01*
X35010292Y-61378213D01*
X35010288Y-61378210D01*
X34879185Y-61290609D01*
X34879172Y-61290602D01*
X34733501Y-61230264D01*
X34733489Y-61230261D01*
X34578845Y-61199500D01*
X34578842Y-61199500D01*
X34421158Y-61199500D01*
X34421155Y-61199500D01*
X34266510Y-61230261D01*
X34266498Y-61230264D01*
X34120827Y-61290602D01*
X34120814Y-61290609D01*
X33989711Y-61378210D01*
X33989707Y-61378213D01*
X33878213Y-61489707D01*
X33878210Y-61489711D01*
X33790609Y-61620814D01*
X33790602Y-61620827D01*
X33730264Y-61766498D01*
X33730261Y-61766510D01*
X33699500Y-61921153D01*
X26389113Y-61921153D01*
X26283343Y-61713567D01*
X26144517Y-61522490D01*
X25977510Y-61355483D01*
X25786433Y-61216657D01*
X25575996Y-61109433D01*
X25351368Y-61036446D01*
X25118097Y-60999500D01*
X25118092Y-60999500D01*
X24881908Y-60999500D01*
X24881903Y-60999500D01*
X24648631Y-61036446D01*
X24424003Y-61109433D01*
X24213566Y-61216657D01*
X24124536Y-61281342D01*
X24022490Y-61355483D01*
X24022488Y-61355485D01*
X24022487Y-61355485D01*
X23855485Y-61522487D01*
X23855485Y-61522488D01*
X23855483Y-61522490D01*
X23801203Y-61597200D01*
X23716657Y-61713566D01*
X23609433Y-61924003D01*
X23536446Y-62148631D01*
X23499500Y-62381902D01*
X17500500Y-62381902D01*
X17500500Y-57921153D01*
X18199500Y-57921153D01*
X18199500Y-58078846D01*
X18230261Y-58233489D01*
X18230264Y-58233501D01*
X18290602Y-58379172D01*
X18290609Y-58379185D01*
X18378210Y-58510288D01*
X18378213Y-58510292D01*
X18489707Y-58621786D01*
X18489711Y-58621789D01*
X18620814Y-58709390D01*
X18620827Y-58709397D01*
X18758683Y-58766498D01*
X18766503Y-58769737D01*
X18921153Y-58800499D01*
X18921156Y-58800500D01*
X18921158Y-58800500D01*
X19078844Y-58800500D01*
X19078845Y-58800499D01*
X19233497Y-58769737D01*
X19379179Y-58709394D01*
X19510289Y-58621789D01*
X19560925Y-58571153D01*
X32399500Y-58571153D01*
X32399500Y-58728846D01*
X32430261Y-58883489D01*
X32430264Y-58883501D01*
X32490602Y-59029172D01*
X32490609Y-59029185D01*
X32578210Y-59160288D01*
X32578213Y-59160292D01*
X32689707Y-59271786D01*
X32689711Y-59271789D01*
X32820814Y-59359390D01*
X32820827Y-59359397D01*
X32966498Y-59419735D01*
X32966503Y-59419737D01*
X33121153Y-59450499D01*
X33121156Y-59450500D01*
X33121158Y-59450500D01*
X33278844Y-59450500D01*
X33278845Y-59450499D01*
X33433497Y-59419737D01*
X33579179Y-59359394D01*
X33710289Y-59271789D01*
X33821789Y-59160289D01*
X33909394Y-59029179D01*
X33969737Y-58883497D01*
X34000500Y-58728842D01*
X34000500Y-58571158D01*
X34000500Y-58571155D01*
X34000499Y-58571153D01*
X33986346Y-58500000D01*
X45000000Y-58500000D01*
X45000000Y-63000000D01*
X50250000Y-63000000D01*
X50250000Y-62421153D01*
X51199500Y-62421153D01*
X51199500Y-62578846D01*
X51230261Y-62733489D01*
X51230264Y-62733501D01*
X51290602Y-62879172D01*
X51290609Y-62879185D01*
X51378210Y-63010288D01*
X51378213Y-63010292D01*
X51489707Y-63121786D01*
X51489711Y-63121789D01*
X51620814Y-63209390D01*
X51620827Y-63209397D01*
X51766498Y-63269735D01*
X51766503Y-63269737D01*
X51918649Y-63300001D01*
X51921153Y-63300499D01*
X51921156Y-63300500D01*
X51921158Y-63300500D01*
X52078844Y-63300500D01*
X52078845Y-63300499D01*
X52233497Y-63269737D01*
X52379179Y-63209394D01*
X52510289Y-63121789D01*
X52621789Y-63010289D01*
X52709394Y-62879179D01*
X52769737Y-62733497D01*
X52800500Y-62578842D01*
X52800500Y-62421158D01*
X52800500Y-62421155D01*
X52800499Y-62421153D01*
X52784479Y-62340617D01*
X52769737Y-62266503D01*
X52769735Y-62266498D01*
X52709397Y-62120827D01*
X52709390Y-62120814D01*
X52621789Y-61989711D01*
X52621786Y-61989707D01*
X52510292Y-61878213D01*
X52510288Y-61878210D01*
X52393191Y-61799968D01*
X52393142Y-61799936D01*
X52379179Y-61790606D01*
X52379172Y-61790602D01*
X52233501Y-61730264D01*
X52233489Y-61730261D01*
X52081273Y-61699983D01*
X62999500Y-61699983D01*
X62999500Y-63300001D01*
X62999501Y-63300018D01*
X63010000Y-63402796D01*
X63010001Y-63402799D01*
X63065185Y-63569331D01*
X63065187Y-63569336D01*
X63096939Y-63620814D01*
X63157288Y-63718656D01*
X63281344Y-63842712D01*
X63430666Y-63934814D01*
X63597203Y-63989999D01*
X63699991Y-64000500D01*
X65300008Y-64000499D01*
X65402797Y-63989999D01*
X65569334Y-63934814D01*
X65718656Y-63842712D01*
X65842712Y-63718656D01*
X65934814Y-63569334D01*
X65989999Y-63402797D01*
X66000500Y-63300009D01*
X66000499Y-61699992D01*
X65989999Y-61597203D01*
X65934814Y-61430666D01*
X65842712Y-61281344D01*
X65718656Y-61157288D01*
X65569334Y-61065186D01*
X65402797Y-61010001D01*
X65402795Y-61010000D01*
X65300010Y-60999500D01*
X63699998Y-60999500D01*
X63699981Y-60999501D01*
X63597203Y-61010000D01*
X63597200Y-61010001D01*
X63430668Y-61065185D01*
X63430663Y-61065187D01*
X63281342Y-61157289D01*
X63157289Y-61281342D01*
X63065187Y-61430663D01*
X63065186Y-61430666D01*
X63010001Y-61597203D01*
X63010001Y-61597204D01*
X63010000Y-61597204D01*
X62999500Y-61699983D01*
X52081273Y-61699983D01*
X52078845Y-61699500D01*
X52078842Y-61699500D01*
X51921158Y-61699500D01*
X51921155Y-61699500D01*
X51766510Y-61730261D01*
X51766498Y-61730264D01*
X51620827Y-61790602D01*
X51620814Y-61790609D01*
X51489711Y-61878210D01*
X51489707Y-61878213D01*
X51378213Y-61989707D01*
X51378210Y-61989711D01*
X51290609Y-62120814D01*
X51290602Y-62120827D01*
X51230264Y-62266498D01*
X51230261Y-62266510D01*
X51199500Y-62421153D01*
X50250000Y-62421153D01*
X50250000Y-58921153D01*
X54199500Y-58921153D01*
X54199500Y-59078846D01*
X54230261Y-59233489D01*
X54230264Y-59233501D01*
X54290602Y-59379172D01*
X54290609Y-59379185D01*
X54378210Y-59510288D01*
X54378213Y-59510292D01*
X54489707Y-59621786D01*
X54489711Y-59621789D01*
X54620814Y-59709390D01*
X54620827Y-59709397D01*
X54766498Y-59769735D01*
X54766503Y-59769737D01*
X54921153Y-59800499D01*
X54921156Y-59800500D01*
X54921158Y-59800500D01*
X55078844Y-59800500D01*
X55078845Y-59800499D01*
X55233497Y-59769737D01*
X55379179Y-59709394D01*
X55510289Y-59621789D01*
X55621789Y-59510289D01*
X55709394Y-59379179D01*
X55769737Y-59233497D01*
X55800500Y-59078842D01*
X55800500Y-58921158D01*
X55800500Y-58921155D01*
X55800499Y-58921153D01*
X55794250Y-58889737D01*
X55769737Y-58766503D01*
X55750424Y-58719879D01*
X55742956Y-58650410D01*
X55774231Y-58587931D01*
X55834320Y-58552279D01*
X55904145Y-58554773D01*
X55952667Y-58584746D01*
X55989707Y-58621786D01*
X55989711Y-58621789D01*
X56120814Y-58709390D01*
X56120827Y-58709397D01*
X56258683Y-58766498D01*
X56266503Y-58769737D01*
X56421153Y-58800499D01*
X56421156Y-58800500D01*
X56421158Y-58800500D01*
X56578844Y-58800500D01*
X56578845Y-58800499D01*
X56733497Y-58769737D01*
X56879179Y-58709394D01*
X57010289Y-58621789D01*
X57121789Y-58510289D01*
X57135539Y-58489711D01*
X57146898Y-58472712D01*
X57200510Y-58427906D01*
X57269835Y-58419199D01*
X57332862Y-58449353D01*
X57353102Y-58472712D01*
X57378207Y-58510284D01*
X57378213Y-58510292D01*
X57489707Y-58621786D01*
X57489711Y-58621789D01*
X57620814Y-58709390D01*
X57620827Y-58709397D01*
X57758683Y-58766498D01*
X57766503Y-58769737D01*
X57921153Y-58800499D01*
X57921156Y-58800500D01*
X57921158Y-58800500D01*
X58078844Y-58800500D01*
X58078845Y-58800499D01*
X58233497Y-58769737D01*
X58379179Y-58709394D01*
X58510289Y-58621789D01*
X58621789Y-58510289D01*
X58709394Y-58379179D01*
X58769737Y-58233497D01*
X58800500Y-58078842D01*
X58800500Y-57921158D01*
X58800500Y-57921155D01*
X58800499Y-57921153D01*
X58786246Y-57849500D01*
X58769737Y-57766503D01*
X58750000Y-57718853D01*
X58709397Y-57620827D01*
X58709390Y-57620814D01*
X58621789Y-57489711D01*
X58621786Y-57489707D01*
X58510292Y-57378213D01*
X58510288Y-57378210D01*
X58396086Y-57301902D01*
X62999500Y-57301902D01*
X62999500Y-57538097D01*
X63036446Y-57771368D01*
X63109433Y-57995996D01*
X63151646Y-58078842D01*
X63216657Y-58206433D01*
X63355483Y-58397510D01*
X63522490Y-58564517D01*
X63713567Y-58703343D01*
X63789016Y-58741786D01*
X63924003Y-58810566D01*
X63924005Y-58810566D01*
X63924008Y-58810568D01*
X63981958Y-58829397D01*
X64148631Y-58883553D01*
X64381903Y-58920500D01*
X64381908Y-58920500D01*
X64618097Y-58920500D01*
X64851368Y-58883553D01*
X64851565Y-58883489D01*
X65075992Y-58810568D01*
X65286433Y-58703343D01*
X65477510Y-58564517D01*
X65644517Y-58397510D01*
X65783343Y-58206433D01*
X65890568Y-57995992D01*
X65963553Y-57771368D01*
X65968392Y-57740814D01*
X66000500Y-57538097D01*
X66000500Y-57301902D01*
X65963553Y-57068631D01*
X65929689Y-56964412D01*
X65890568Y-56844008D01*
X65890566Y-56844005D01*
X65890566Y-56844003D01*
X65783342Y-56633566D01*
X65644517Y-56442490D01*
X65477510Y-56275483D01*
X65286433Y-56136657D01*
X65255353Y-56120821D01*
X65075996Y-56029433D01*
X64851368Y-55956446D01*
X64618097Y-55919500D01*
X64618092Y-55919500D01*
X64381908Y-55919500D01*
X64381903Y-55919500D01*
X64148631Y-55956446D01*
X63924003Y-56029433D01*
X63713566Y-56136657D01*
X63604550Y-56215862D01*
X63522490Y-56275483D01*
X63522488Y-56275485D01*
X63522487Y-56275485D01*
X63355485Y-56442487D01*
X63355485Y-56442488D01*
X63355483Y-56442490D01*
X63306225Y-56510288D01*
X63216657Y-56633566D01*
X63109433Y-56844003D01*
X63036446Y-57068631D01*
X62999500Y-57301902D01*
X58396086Y-57301902D01*
X58379185Y-57290609D01*
X58379172Y-57290602D01*
X58233501Y-57230264D01*
X58233489Y-57230261D01*
X58078845Y-57199500D01*
X58078842Y-57199500D01*
X57921158Y-57199500D01*
X57921155Y-57199500D01*
X57766510Y-57230261D01*
X57766498Y-57230264D01*
X57620827Y-57290602D01*
X57620814Y-57290609D01*
X57489711Y-57378210D01*
X57489707Y-57378213D01*
X57378213Y-57489707D01*
X57353102Y-57527289D01*
X57299489Y-57572093D01*
X57230164Y-57580800D01*
X57167137Y-57550645D01*
X57146898Y-57527289D01*
X57127470Y-57498213D01*
X57121789Y-57489711D01*
X57121788Y-57489710D01*
X57121786Y-57489707D01*
X57010292Y-57378213D01*
X57010288Y-57378210D01*
X56879185Y-57290609D01*
X56879172Y-57290602D01*
X56733501Y-57230264D01*
X56733489Y-57230261D01*
X56578845Y-57199500D01*
X56578842Y-57199500D01*
X56421158Y-57199500D01*
X56421155Y-57199500D01*
X56266510Y-57230261D01*
X56266498Y-57230264D01*
X56120827Y-57290602D01*
X56120814Y-57290609D01*
X55989711Y-57378210D01*
X55989707Y-57378213D01*
X55878213Y-57489707D01*
X55878210Y-57489711D01*
X55790609Y-57620814D01*
X55790602Y-57620827D01*
X55730264Y-57766498D01*
X55730261Y-57766510D01*
X55699500Y-57921153D01*
X55699500Y-58078846D01*
X55730261Y-58233489D01*
X55730263Y-58233497D01*
X55749575Y-58280120D01*
X55757043Y-58349590D01*
X55725767Y-58412069D01*
X55665678Y-58447721D01*
X55595853Y-58445226D01*
X55547332Y-58415253D01*
X55510292Y-58378213D01*
X55510288Y-58378210D01*
X55379185Y-58290609D01*
X55379172Y-58290602D01*
X55233501Y-58230264D01*
X55233489Y-58230261D01*
X55078845Y-58199500D01*
X55078842Y-58199500D01*
X54921158Y-58199500D01*
X54921155Y-58199500D01*
X54766510Y-58230261D01*
X54766498Y-58230264D01*
X54620827Y-58290602D01*
X54620814Y-58290609D01*
X54489711Y-58378210D01*
X54489707Y-58378213D01*
X54378213Y-58489707D01*
X54378210Y-58489711D01*
X54290609Y-58620814D01*
X54290602Y-58620827D01*
X54230264Y-58766498D01*
X54230261Y-58766510D01*
X54199500Y-58921153D01*
X50250000Y-58921153D01*
X50250000Y-58678813D01*
X50269685Y-58611774D01*
X50322489Y-58566019D01*
X50391647Y-58556075D01*
X50455203Y-58585100D01*
X50477102Y-58609923D01*
X50490707Y-58630284D01*
X50490713Y-58630292D01*
X50602207Y-58741786D01*
X50602211Y-58741789D01*
X50733314Y-58829390D01*
X50733327Y-58829397D01*
X50863919Y-58883489D01*
X50879003Y-58889737D01*
X51033653Y-58920499D01*
X51033656Y-58920500D01*
X51033658Y-58920500D01*
X51191344Y-58920500D01*
X51191345Y-58920499D01*
X51345997Y-58889737D01*
X51491679Y-58829394D01*
X51491686Y-58829388D01*
X51491690Y-58829387D01*
X51517762Y-58811966D01*
X51517766Y-58811964D01*
X51585809Y-58766498D01*
X51622789Y-58741789D01*
X51734289Y-58630289D01*
X51821894Y-58499179D01*
X51882237Y-58353497D01*
X51913000Y-58198842D01*
X51913000Y-58041158D01*
X51913000Y-58041155D01*
X51912999Y-58041153D01*
X51889130Y-57921158D01*
X51882237Y-57886503D01*
X51879652Y-57880263D01*
X51821897Y-57740827D01*
X51821890Y-57740814D01*
X51734289Y-57609711D01*
X51734286Y-57609707D01*
X51622792Y-57498213D01*
X51622788Y-57498210D01*
X51491685Y-57410609D01*
X51491672Y-57410602D01*
X51346001Y-57350264D01*
X51345989Y-57350261D01*
X51191345Y-57319500D01*
X51191342Y-57319500D01*
X51033658Y-57319500D01*
X51033655Y-57319500D01*
X50879010Y-57350261D01*
X50878998Y-57350264D01*
X50733327Y-57410602D01*
X50733314Y-57410609D01*
X50602211Y-57498210D01*
X50602207Y-57498213D01*
X50490713Y-57609707D01*
X50490710Y-57609711D01*
X50403109Y-57740814D01*
X50403102Y-57740827D01*
X50342764Y-57886498D01*
X50342761Y-57886510D01*
X50312000Y-58041153D01*
X50312000Y-58041158D01*
X50312000Y-58198842D01*
X50312000Y-58198844D01*
X50311999Y-58198844D01*
X50342427Y-58351808D01*
X50336200Y-58421400D01*
X50293337Y-58476577D01*
X50227448Y-58499822D01*
X50220810Y-58500000D01*
X45000000Y-58500000D01*
X33986346Y-58500000D01*
X33980942Y-58472829D01*
X33969738Y-58416508D01*
X33969737Y-58416507D01*
X33969737Y-58416503D01*
X33961870Y-58397510D01*
X33909397Y-58270827D01*
X33909390Y-58270814D01*
X33821789Y-58139711D01*
X33821786Y-58139707D01*
X33710292Y-58028213D01*
X33710288Y-58028210D01*
X33579185Y-57940609D01*
X33579172Y-57940602D01*
X33433501Y-57880264D01*
X33433489Y-57880261D01*
X33278845Y-57849500D01*
X33278842Y-57849500D01*
X33121158Y-57849500D01*
X33121155Y-57849500D01*
X32966510Y-57880261D01*
X32966498Y-57880264D01*
X32820827Y-57940602D01*
X32820814Y-57940609D01*
X32689711Y-58028210D01*
X32689707Y-58028213D01*
X32578213Y-58139707D01*
X32578210Y-58139711D01*
X32490609Y-58270814D01*
X32490602Y-58270827D01*
X32430264Y-58416498D01*
X32430261Y-58416510D01*
X32399500Y-58571153D01*
X19560925Y-58571153D01*
X19621789Y-58510289D01*
X19628783Y-58499822D01*
X19631220Y-58496175D01*
X19709390Y-58379185D01*
X19709390Y-58379184D01*
X19709394Y-58379179D01*
X19769737Y-58233497D01*
X19800500Y-58078842D01*
X19800500Y-57921158D01*
X19800500Y-57921155D01*
X19800499Y-57921153D01*
X19786246Y-57849500D01*
X19769737Y-57766503D01*
X19750000Y-57718853D01*
X19709397Y-57620827D01*
X19709390Y-57620814D01*
X19621789Y-57489711D01*
X19621786Y-57489707D01*
X19510292Y-57378213D01*
X19510288Y-57378210D01*
X19379185Y-57290609D01*
X19379172Y-57290602D01*
X19233501Y-57230264D01*
X19233489Y-57230261D01*
X19078845Y-57199500D01*
X19078842Y-57199500D01*
X18921158Y-57199500D01*
X18921155Y-57199500D01*
X18766510Y-57230261D01*
X18766498Y-57230264D01*
X18620827Y-57290602D01*
X18620814Y-57290609D01*
X18489711Y-57378210D01*
X18489707Y-57378213D01*
X18378213Y-57489707D01*
X18378210Y-57489711D01*
X18290609Y-57620814D01*
X18290602Y-57620827D01*
X18230264Y-57766498D01*
X18230261Y-57766510D01*
X18199500Y-57921153D01*
X17500500Y-57921153D01*
X17500500Y-55921153D01*
X28699500Y-55921153D01*
X28699500Y-56078846D01*
X28730261Y-56233489D01*
X28730264Y-56233501D01*
X28790602Y-56379172D01*
X28790609Y-56379185D01*
X28878210Y-56510288D01*
X28878213Y-56510292D01*
X28989707Y-56621786D01*
X28989711Y-56621789D01*
X29120814Y-56709390D01*
X29120827Y-56709397D01*
X29266498Y-56769735D01*
X29266503Y-56769737D01*
X29421153Y-56800499D01*
X29421156Y-56800500D01*
X29421158Y-56800500D01*
X29578844Y-56800500D01*
X29578845Y-56800499D01*
X29733497Y-56769737D01*
X29879179Y-56709394D01*
X30010289Y-56621789D01*
X30121789Y-56510289D01*
X30181348Y-56421153D01*
X47699500Y-56421153D01*
X47699500Y-56578846D01*
X47730261Y-56733489D01*
X47730264Y-56733501D01*
X47790602Y-56879172D01*
X47790609Y-56879185D01*
X47878210Y-57010288D01*
X47878213Y-57010292D01*
X47989707Y-57121786D01*
X47989711Y-57121789D01*
X48120814Y-57209390D01*
X48120827Y-57209397D01*
X48266498Y-57269735D01*
X48266503Y-57269737D01*
X48421153Y-57300499D01*
X48421156Y-57300500D01*
X48421158Y-57300500D01*
X48578844Y-57300500D01*
X48578845Y-57300499D01*
X48733497Y-57269737D01*
X48879179Y-57209394D01*
X49010289Y-57121789D01*
X49121789Y-57010289D01*
X49209394Y-56879179D01*
X49269737Y-56733497D01*
X49300500Y-56578842D01*
X49300500Y-56421158D01*
X49300500Y-56421155D01*
X49300499Y-56421153D01*
X58549500Y-56421153D01*
X58549500Y-56578846D01*
X58580261Y-56733489D01*
X58580264Y-56733501D01*
X58640602Y-56879172D01*
X58640609Y-56879185D01*
X58728210Y-57010288D01*
X58728213Y-57010292D01*
X58839707Y-57121786D01*
X58839711Y-57121789D01*
X58970814Y-57209390D01*
X58970827Y-57209397D01*
X59116498Y-57269735D01*
X59116503Y-57269737D01*
X59271153Y-57300499D01*
X59271156Y-57300500D01*
X59271158Y-57300500D01*
X59428844Y-57300500D01*
X59428845Y-57300499D01*
X59583497Y-57269737D01*
X59729179Y-57209394D01*
X59860289Y-57121789D01*
X59971789Y-57010289D01*
X60059394Y-56879179D01*
X60119737Y-56733497D01*
X60150500Y-56578842D01*
X60150500Y-56421158D01*
X60150500Y-56421155D01*
X60150499Y-56421153D01*
X60139849Y-56367611D01*
X60119737Y-56266503D01*
X60106062Y-56233489D01*
X60059397Y-56120827D01*
X60059390Y-56120814D01*
X59971789Y-55989711D01*
X59971786Y-55989707D01*
X59860292Y-55878213D01*
X59860288Y-55878210D01*
X59729185Y-55790609D01*
X59729172Y-55790602D01*
X59583501Y-55730264D01*
X59583489Y-55730261D01*
X59428845Y-55699500D01*
X59428842Y-55699500D01*
X59271158Y-55699500D01*
X59271155Y-55699500D01*
X59116510Y-55730261D01*
X59116498Y-55730264D01*
X58970827Y-55790602D01*
X58970814Y-55790609D01*
X58839711Y-55878210D01*
X58839707Y-55878213D01*
X58728213Y-55989707D01*
X58728210Y-55989711D01*
X58640609Y-56120814D01*
X58640602Y-56120827D01*
X58580264Y-56266498D01*
X58580261Y-56266510D01*
X58549500Y-56421153D01*
X49300499Y-56421153D01*
X49289849Y-56367611D01*
X49269737Y-56266503D01*
X49256062Y-56233489D01*
X49209397Y-56120827D01*
X49209390Y-56120814D01*
X49121789Y-55989711D01*
X49121786Y-55989707D01*
X49010292Y-55878213D01*
X49010288Y-55878210D01*
X48879185Y-55790609D01*
X48879172Y-55790602D01*
X48733501Y-55730264D01*
X48733489Y-55730261D01*
X48578845Y-55699500D01*
X48578842Y-55699500D01*
X48421158Y-55699500D01*
X48421155Y-55699500D01*
X48266510Y-55730261D01*
X48266498Y-55730264D01*
X48120827Y-55790602D01*
X48120814Y-55790609D01*
X47989711Y-55878210D01*
X47989707Y-55878213D01*
X47878213Y-55989707D01*
X47878210Y-55989711D01*
X47790609Y-56120814D01*
X47790602Y-56120827D01*
X47730264Y-56266498D01*
X47730261Y-56266510D01*
X47699500Y-56421153D01*
X30181348Y-56421153D01*
X30209394Y-56379179D01*
X30269737Y-56233497D01*
X30300500Y-56078842D01*
X30300500Y-55921158D01*
X30300500Y-55921155D01*
X30300499Y-55921153D01*
X30274531Y-55790606D01*
X30269737Y-55766503D01*
X30269735Y-55766498D01*
X30209397Y-55620827D01*
X30209390Y-55620814D01*
X30121789Y-55489711D01*
X30121786Y-55489707D01*
X30010292Y-55378213D01*
X30010288Y-55378210D01*
X29879185Y-55290609D01*
X29879172Y-55290602D01*
X29733501Y-55230264D01*
X29733489Y-55230261D01*
X29578845Y-55199500D01*
X29578842Y-55199500D01*
X29421158Y-55199500D01*
X29421155Y-55199500D01*
X29266510Y-55230261D01*
X29266498Y-55230264D01*
X29120827Y-55290602D01*
X29120814Y-55290609D01*
X28989711Y-55378210D01*
X28989707Y-55378213D01*
X28878213Y-55489707D01*
X28878210Y-55489711D01*
X28790609Y-55620814D01*
X28790602Y-55620827D01*
X28730264Y-55766498D01*
X28730261Y-55766510D01*
X28699500Y-55921153D01*
X17500500Y-55921153D01*
X17500500Y-53946153D01*
X26199500Y-53946153D01*
X26199500Y-54103846D01*
X26230261Y-54258489D01*
X26230264Y-54258501D01*
X26290602Y-54404172D01*
X26290609Y-54404185D01*
X26378210Y-54535288D01*
X26378213Y-54535292D01*
X26489707Y-54646786D01*
X26489711Y-54646789D01*
X26620814Y-54734390D01*
X26620827Y-54734397D01*
X26755617Y-54790228D01*
X26766503Y-54794737D01*
X26921153Y-54825499D01*
X26921156Y-54825500D01*
X26921158Y-54825500D01*
X27078844Y-54825500D01*
X27078845Y-54825499D01*
X27233497Y-54794737D01*
X27379179Y-54734394D01*
X27510289Y-54646789D01*
X27536446Y-54620632D01*
X43398979Y-54620632D01*
X43398979Y-54778325D01*
X43429740Y-54932968D01*
X43429743Y-54932980D01*
X43490081Y-55078651D01*
X43490088Y-55078664D01*
X43577689Y-55209767D01*
X43577692Y-55209771D01*
X43689186Y-55321265D01*
X43689190Y-55321268D01*
X43820293Y-55408869D01*
X43820306Y-55408876D01*
X43964350Y-55468540D01*
X44018754Y-55512380D01*
X44031459Y-55535649D01*
X44091123Y-55679693D01*
X44091130Y-55679706D01*
X44178731Y-55810809D01*
X44178734Y-55810813D01*
X44290228Y-55922307D01*
X44290232Y-55922310D01*
X44421335Y-56009911D01*
X44421348Y-56009918D01*
X44567019Y-56070256D01*
X44567024Y-56070258D01*
X44721674Y-56101020D01*
X44721677Y-56101021D01*
X44721679Y-56101021D01*
X44879365Y-56101021D01*
X44879366Y-56101020D01*
X45034018Y-56070258D01*
X45179700Y-56009915D01*
X45310810Y-55922310D01*
X45422310Y-55810810D01*
X45509915Y-55679700D01*
X45570258Y-55534018D01*
X45601021Y-55379363D01*
X45601021Y-55221679D01*
X45601021Y-55221676D01*
X45601020Y-55221674D01*
X45596609Y-55199500D01*
X45570258Y-55067024D01*
X45546758Y-55010289D01*
X45509918Y-54921348D01*
X45509911Y-54921335D01*
X45422310Y-54790232D01*
X45422307Y-54790228D01*
X45310813Y-54678734D01*
X45310809Y-54678731D01*
X45179706Y-54591130D01*
X45179693Y-54591123D01*
X45035649Y-54531459D01*
X45023732Y-54521856D01*
X45015303Y-54519381D01*
X45005053Y-54507552D01*
X44986555Y-54494711D01*
X44983354Y-54489317D01*
X44981245Y-54487618D01*
X44970105Y-54467220D01*
X44969548Y-54466577D01*
X44968737Y-54464715D01*
X44968546Y-54464364D01*
X44950647Y-54421153D01*
X48199500Y-54421153D01*
X48199500Y-54578846D01*
X48230261Y-54733489D01*
X48230264Y-54733501D01*
X48290602Y-54879172D01*
X48290609Y-54879185D01*
X48378210Y-55010288D01*
X48378213Y-55010292D01*
X48489707Y-55121786D01*
X48489711Y-55121789D01*
X48620814Y-55209390D01*
X48620827Y-55209397D01*
X48766498Y-55269735D01*
X48766503Y-55269737D01*
X48921153Y-55300499D01*
X48921156Y-55300500D01*
X48921158Y-55300500D01*
X49078844Y-55300500D01*
X49078845Y-55300499D01*
X49233497Y-55269737D01*
X49378276Y-55209768D01*
X49379172Y-55209397D01*
X49379172Y-55209396D01*
X49379179Y-55209394D01*
X49510289Y-55121789D01*
X49621789Y-55010289D01*
X49709394Y-54879179D01*
X49769737Y-54733497D01*
X49800500Y-54578842D01*
X49800500Y-54421158D01*
X49800500Y-54421155D01*
X49800499Y-54421153D01*
X49780438Y-54320300D01*
X49769737Y-54266503D01*
X49768558Y-54263656D01*
X49709397Y-54120827D01*
X49709390Y-54120814D01*
X49621789Y-53989711D01*
X49621786Y-53989707D01*
X49510292Y-53878213D01*
X49510288Y-53878210D01*
X49379185Y-53790609D01*
X49379172Y-53790602D01*
X49233501Y-53730264D01*
X49233489Y-53730261D01*
X49078845Y-53699500D01*
X49078842Y-53699500D01*
X48921158Y-53699500D01*
X48921155Y-53699500D01*
X48766510Y-53730261D01*
X48766498Y-53730264D01*
X48620827Y-53790602D01*
X48620814Y-53790609D01*
X48489711Y-53878210D01*
X48489707Y-53878213D01*
X48378213Y-53989707D01*
X48378210Y-53989711D01*
X48290609Y-54120814D01*
X48290602Y-54120827D01*
X48230264Y-54266498D01*
X48230261Y-54266510D01*
X48199500Y-54421153D01*
X44950647Y-54421153D01*
X44936795Y-54387710D01*
X44908876Y-54320306D01*
X44908869Y-54320293D01*
X44821268Y-54189190D01*
X44821265Y-54189186D01*
X44709771Y-54077692D01*
X44709767Y-54077689D01*
X44578664Y-53990088D01*
X44578651Y-53990081D01*
X44432980Y-53929743D01*
X44432968Y-53929740D01*
X44278324Y-53898979D01*
X44278321Y-53898979D01*
X44120637Y-53898979D01*
X44120634Y-53898979D01*
X43965989Y-53929740D01*
X43965977Y-53929743D01*
X43820306Y-53990081D01*
X43820293Y-53990088D01*
X43689190Y-54077689D01*
X43689186Y-54077692D01*
X43577692Y-54189186D01*
X43577689Y-54189190D01*
X43490088Y-54320293D01*
X43490081Y-54320306D01*
X43429743Y-54465977D01*
X43429740Y-54465989D01*
X43398979Y-54620632D01*
X27536446Y-54620632D01*
X27621789Y-54535289D01*
X27709394Y-54404179D01*
X27769737Y-54258497D01*
X27800500Y-54103842D01*
X27800500Y-53946158D01*
X27800500Y-53946155D01*
X27800499Y-53946153D01*
X27791115Y-53898979D01*
X27769737Y-53791503D01*
X27769367Y-53790609D01*
X27709397Y-53645827D01*
X27709390Y-53645814D01*
X27621789Y-53514711D01*
X27621786Y-53514707D01*
X27540732Y-53433653D01*
X30549500Y-53433653D01*
X30549500Y-53591346D01*
X30580261Y-53745989D01*
X30580264Y-53746001D01*
X30640602Y-53891672D01*
X30640609Y-53891685D01*
X30728210Y-54022788D01*
X30728213Y-54022792D01*
X30839707Y-54134286D01*
X30839711Y-54134289D01*
X30970814Y-54221890D01*
X30970827Y-54221897D01*
X31078505Y-54266498D01*
X31116503Y-54282237D01*
X31271153Y-54312999D01*
X31271156Y-54313000D01*
X31271158Y-54313000D01*
X31428844Y-54313000D01*
X31428845Y-54312999D01*
X31583497Y-54282237D01*
X31729179Y-54221894D01*
X31860289Y-54134289D01*
X31971789Y-54022789D01*
X32059394Y-53891679D01*
X32119737Y-53745997D01*
X32150500Y-53591342D01*
X32150500Y-53433658D01*
X32150500Y-53433655D01*
X32150499Y-53433653D01*
X32119738Y-53279010D01*
X32119737Y-53279003D01*
X32109903Y-53255261D01*
X32059397Y-53133327D01*
X32059390Y-53133314D01*
X31971789Y-53002211D01*
X31971786Y-53002207D01*
X31860292Y-52890713D01*
X31860288Y-52890710D01*
X31729185Y-52803109D01*
X31729172Y-52803102D01*
X31583501Y-52742764D01*
X31583489Y-52742761D01*
X31428845Y-52712000D01*
X31428842Y-52712000D01*
X31271158Y-52712000D01*
X31271155Y-52712000D01*
X31116510Y-52742761D01*
X31116498Y-52742764D01*
X30970827Y-52803102D01*
X30970814Y-52803109D01*
X30839711Y-52890710D01*
X30839707Y-52890713D01*
X30728213Y-53002207D01*
X30728210Y-53002211D01*
X30640609Y-53133314D01*
X30640602Y-53133327D01*
X30580264Y-53278998D01*
X30580261Y-53279010D01*
X30549500Y-53433653D01*
X27540732Y-53433653D01*
X27510292Y-53403213D01*
X27510288Y-53403210D01*
X27379185Y-53315609D01*
X27379172Y-53315602D01*
X27233501Y-53255264D01*
X27233489Y-53255261D01*
X27078845Y-53224500D01*
X27078842Y-53224500D01*
X26921158Y-53224500D01*
X26921155Y-53224500D01*
X26766510Y-53255261D01*
X26766498Y-53255264D01*
X26620827Y-53315602D01*
X26620814Y-53315609D01*
X26489711Y-53403210D01*
X26489707Y-53403213D01*
X26378213Y-53514707D01*
X26378210Y-53514711D01*
X26290609Y-53645814D01*
X26290602Y-53645827D01*
X26230264Y-53791498D01*
X26230261Y-53791510D01*
X26199500Y-53946153D01*
X17500500Y-53946153D01*
X17500500Y-51421153D01*
X30549500Y-51421153D01*
X30549500Y-51578846D01*
X30580261Y-51733489D01*
X30580264Y-51733501D01*
X30640602Y-51879172D01*
X30640609Y-51879185D01*
X30728210Y-52010288D01*
X30728213Y-52010292D01*
X30839707Y-52121786D01*
X30839711Y-52121789D01*
X30970814Y-52209390D01*
X30970827Y-52209397D01*
X31056777Y-52244998D01*
X31116503Y-52269737D01*
X31271153Y-52300499D01*
X31271156Y-52300500D01*
X31271158Y-52300500D01*
X31428844Y-52300500D01*
X31428845Y-52300499D01*
X31583497Y-52269737D01*
X31729179Y-52209394D01*
X31860289Y-52121789D01*
X31971789Y-52010289D01*
X32059394Y-51879179D01*
X32119737Y-51733497D01*
X32150500Y-51578842D01*
X32150500Y-51421158D01*
X32150500Y-51421155D01*
X32150499Y-51421153D01*
X32147731Y-51407237D01*
X32119737Y-51266503D01*
X32070566Y-51147792D01*
X32059397Y-51120827D01*
X32059390Y-51120814D01*
X31971789Y-50989711D01*
X31971786Y-50989707D01*
X31860292Y-50878213D01*
X31860288Y-50878210D01*
X31729185Y-50790609D01*
X31729172Y-50790602D01*
X31583501Y-50730264D01*
X31583489Y-50730261D01*
X31428845Y-50699500D01*
X31428842Y-50699500D01*
X31271158Y-50699500D01*
X31271155Y-50699500D01*
X31116510Y-50730261D01*
X31116498Y-50730264D01*
X30970827Y-50790602D01*
X30970814Y-50790609D01*
X30839711Y-50878210D01*
X30839707Y-50878213D01*
X30728213Y-50989707D01*
X30728210Y-50989711D01*
X30640609Y-51120814D01*
X30640602Y-51120827D01*
X30580264Y-51266498D01*
X30580261Y-51266510D01*
X30549500Y-51421153D01*
X17500500Y-51421153D01*
X17500500Y-48399653D01*
X24178000Y-48399653D01*
X24178000Y-48557346D01*
X24208761Y-48711989D01*
X24208764Y-48712001D01*
X24269102Y-48857672D01*
X24269109Y-48857685D01*
X24356710Y-48988788D01*
X24356713Y-48988792D01*
X24468208Y-49100287D01*
X24468211Y-49100289D01*
X24532627Y-49143330D01*
X24577431Y-49196941D01*
X24586139Y-49266266D01*
X24555985Y-49329294D01*
X24532628Y-49349533D01*
X24489713Y-49378208D01*
X24489707Y-49378213D01*
X24378213Y-49489707D01*
X24378210Y-49489711D01*
X24290609Y-49620814D01*
X24290602Y-49620827D01*
X24230264Y-49766498D01*
X24230261Y-49766510D01*
X24199500Y-49921153D01*
X24199500Y-50078846D01*
X24230261Y-50233489D01*
X24230264Y-50233501D01*
X24290602Y-50379172D01*
X24290609Y-50379185D01*
X24378210Y-50510288D01*
X24378213Y-50510292D01*
X24489707Y-50621786D01*
X24489711Y-50621789D01*
X24620814Y-50709390D01*
X24620827Y-50709397D01*
X24766498Y-50769735D01*
X24766503Y-50769737D01*
X24921153Y-50800499D01*
X24921156Y-50800500D01*
X24921158Y-50800500D01*
X25078844Y-50800500D01*
X25078845Y-50800499D01*
X25233497Y-50769737D01*
X25379179Y-50709394D01*
X25510289Y-50621789D01*
X25621789Y-50510289D01*
X25709394Y-50379179D01*
X25769737Y-50233497D01*
X25800500Y-50078842D01*
X25800500Y-49921158D01*
X25800500Y-49921155D01*
X25800499Y-49921153D01*
X25774264Y-49789257D01*
X25770662Y-49771153D01*
X35199500Y-49771153D01*
X35199500Y-49928846D01*
X35230261Y-50083489D01*
X35230264Y-50083501D01*
X35290602Y-50229172D01*
X35290609Y-50229185D01*
X35378210Y-50360288D01*
X35378213Y-50360292D01*
X35489707Y-50471786D01*
X35489711Y-50471789D01*
X35620814Y-50559390D01*
X35620827Y-50559397D01*
X35766498Y-50619735D01*
X35766503Y-50619737D01*
X35921153Y-50650499D01*
X35921156Y-50650500D01*
X35921158Y-50650500D01*
X36078844Y-50650500D01*
X36078845Y-50650499D01*
X36233497Y-50619737D01*
X36379179Y-50559394D01*
X36380288Y-50558653D01*
X46699500Y-50558653D01*
X46699500Y-50716346D01*
X46730261Y-50870989D01*
X46730264Y-50871001D01*
X46790602Y-51016672D01*
X46790609Y-51016685D01*
X46878210Y-51147788D01*
X46878213Y-51147792D01*
X46989707Y-51259286D01*
X46989711Y-51259289D01*
X47120814Y-51346890D01*
X47120827Y-51346897D01*
X47266498Y-51407235D01*
X47266503Y-51407237D01*
X47421153Y-51437999D01*
X47421156Y-51438000D01*
X47421158Y-51438000D01*
X47578844Y-51438000D01*
X47578845Y-51437999D01*
X47663536Y-51421153D01*
X54199500Y-51421153D01*
X54199500Y-51578846D01*
X54230261Y-51733489D01*
X54230264Y-51733501D01*
X54290602Y-51879172D01*
X54290609Y-51879185D01*
X54378210Y-52010288D01*
X54378213Y-52010292D01*
X54489707Y-52121786D01*
X54489711Y-52121789D01*
X54620814Y-52209390D01*
X54620827Y-52209397D01*
X54706777Y-52244998D01*
X54766503Y-52269737D01*
X54921153Y-52300499D01*
X54921156Y-52300500D01*
X54921158Y-52300500D01*
X55078844Y-52300500D01*
X55078845Y-52300499D01*
X55233497Y-52269737D01*
X55293259Y-52244983D01*
X62999500Y-52244983D01*
X62999500Y-53845001D01*
X62999501Y-53845018D01*
X63010000Y-53947796D01*
X63010001Y-53947799D01*
X63034851Y-54022789D01*
X63065186Y-54114334D01*
X63157288Y-54263656D01*
X63281344Y-54387712D01*
X63430666Y-54479814D01*
X63597203Y-54534999D01*
X63699991Y-54545500D01*
X65300008Y-54545499D01*
X65402797Y-54534999D01*
X65569334Y-54479814D01*
X65718656Y-54387712D01*
X65842712Y-54263656D01*
X65934814Y-54114334D01*
X65989999Y-53947797D01*
X66000500Y-53845009D01*
X66000499Y-52244992D01*
X65989999Y-52142203D01*
X65934814Y-51975666D01*
X65842712Y-51826344D01*
X65718656Y-51702288D01*
X65569334Y-51610186D01*
X65402797Y-51555001D01*
X65402795Y-51555000D01*
X65300010Y-51544500D01*
X63699998Y-51544500D01*
X63699981Y-51544501D01*
X63597203Y-51555000D01*
X63597200Y-51555001D01*
X63430668Y-51610185D01*
X63430663Y-51610187D01*
X63281342Y-51702289D01*
X63157289Y-51826342D01*
X63065187Y-51975663D01*
X63065186Y-51975666D01*
X63010001Y-52142203D01*
X63010001Y-52142204D01*
X63010000Y-52142204D01*
X62999500Y-52244983D01*
X55293259Y-52244983D01*
X55379179Y-52209394D01*
X55510289Y-52121789D01*
X55621789Y-52010289D01*
X55709394Y-51879179D01*
X55769737Y-51733497D01*
X55800500Y-51578842D01*
X55800500Y-51421158D01*
X55800500Y-51421155D01*
X55800499Y-51421153D01*
X55797731Y-51407237D01*
X55769737Y-51266503D01*
X55720566Y-51147792D01*
X55709397Y-51120827D01*
X55709390Y-51120814D01*
X55621789Y-50989711D01*
X55621786Y-50989707D01*
X55510292Y-50878213D01*
X55510288Y-50878210D01*
X55379185Y-50790609D01*
X55379172Y-50790602D01*
X55233501Y-50730264D01*
X55233489Y-50730261D01*
X55078845Y-50699500D01*
X55078842Y-50699500D01*
X54921158Y-50699500D01*
X54921155Y-50699500D01*
X54766510Y-50730261D01*
X54766498Y-50730264D01*
X54620827Y-50790602D01*
X54620814Y-50790609D01*
X54489711Y-50878210D01*
X54489707Y-50878213D01*
X54378213Y-50989707D01*
X54378210Y-50989711D01*
X54290609Y-51120814D01*
X54290602Y-51120827D01*
X54230264Y-51266498D01*
X54230261Y-51266510D01*
X54199500Y-51421153D01*
X47663536Y-51421153D01*
X47733497Y-51407237D01*
X47879179Y-51346894D01*
X47879185Y-51346890D01*
X47931456Y-51311964D01*
X47961615Y-51291811D01*
X48010289Y-51259289D01*
X48121789Y-51147789D01*
X48209394Y-51016679D01*
X48269737Y-50870997D01*
X48300500Y-50716342D01*
X48300500Y-50558658D01*
X48300500Y-50558655D01*
X48300499Y-50558653D01*
X48290879Y-50510289D01*
X48269737Y-50404003D01*
X48259452Y-50379172D01*
X48209397Y-50258327D01*
X48209390Y-50258314D01*
X48121789Y-50127211D01*
X48121786Y-50127207D01*
X48010292Y-50015713D01*
X48010288Y-50015710D01*
X47879185Y-49928109D01*
X47879172Y-49928102D01*
X47733501Y-49867764D01*
X47733489Y-49867761D01*
X47578845Y-49837000D01*
X47578842Y-49837000D01*
X47421158Y-49837000D01*
X47421155Y-49837000D01*
X47266510Y-49867761D01*
X47266498Y-49867764D01*
X47120827Y-49928102D01*
X47120814Y-49928109D01*
X46989711Y-50015710D01*
X46989707Y-50015713D01*
X46878213Y-50127207D01*
X46878210Y-50127211D01*
X46790609Y-50258314D01*
X46790602Y-50258327D01*
X46730264Y-50403998D01*
X46730261Y-50404010D01*
X46699500Y-50558653D01*
X36380288Y-50558653D01*
X36510289Y-50471789D01*
X36510292Y-50471786D01*
X36517194Y-50464885D01*
X36621786Y-50360292D01*
X36621789Y-50360289D01*
X36709394Y-50229179D01*
X36769737Y-50083497D01*
X36800500Y-49928842D01*
X36800500Y-49771158D01*
X36800500Y-49771155D01*
X36800499Y-49771153D01*
X36799573Y-49766498D01*
X36769737Y-49616503D01*
X36754138Y-49578844D01*
X36709397Y-49470827D01*
X36709390Y-49470814D01*
X36676207Y-49421153D01*
X61699500Y-49421153D01*
X61699500Y-49578846D01*
X61730261Y-49733489D01*
X61730264Y-49733501D01*
X61790602Y-49879172D01*
X61790609Y-49879185D01*
X61878210Y-50010288D01*
X61878213Y-50010292D01*
X61989707Y-50121786D01*
X61989711Y-50121789D01*
X62120814Y-50209390D01*
X62120827Y-50209397D01*
X62266498Y-50269735D01*
X62266503Y-50269737D01*
X62421153Y-50300499D01*
X62421156Y-50300500D01*
X62421158Y-50300500D01*
X62578844Y-50300500D01*
X62578845Y-50300499D01*
X62733497Y-50269737D01*
X62879179Y-50209394D01*
X63010289Y-50121789D01*
X63121789Y-50010289D01*
X63209394Y-49879179D01*
X63214124Y-49867761D01*
X63226865Y-49837000D01*
X63269737Y-49733497D01*
X63300500Y-49578842D01*
X63300500Y-49421158D01*
X63300500Y-49421155D01*
X63300499Y-49421153D01*
X63269738Y-49266510D01*
X63269737Y-49266503D01*
X63240924Y-49196941D01*
X63218569Y-49142971D01*
X63211100Y-49073502D01*
X63242375Y-49011023D01*
X63302464Y-48975371D01*
X63372289Y-48977865D01*
X63420811Y-49007838D01*
X63522490Y-49109517D01*
X63713567Y-49248343D01*
X63796513Y-49290606D01*
X63924003Y-49355566D01*
X63924005Y-49355566D01*
X63924008Y-49355568D01*
X63993687Y-49378208D01*
X64148631Y-49428553D01*
X64381903Y-49465500D01*
X64381908Y-49465500D01*
X64618097Y-49465500D01*
X64851368Y-49428553D01*
X64874127Y-49421158D01*
X65075992Y-49355568D01*
X65286433Y-49248343D01*
X65477510Y-49109517D01*
X65644517Y-48942510D01*
X65783343Y-48751433D01*
X65890568Y-48540992D01*
X65963553Y-48316368D01*
X65970588Y-48271949D01*
X66000500Y-48083097D01*
X66000500Y-47846902D01*
X65963553Y-47613631D01*
X65901013Y-47421155D01*
X65890568Y-47389008D01*
X65890566Y-47389005D01*
X65890566Y-47389003D01*
X65811327Y-47233489D01*
X65783343Y-47178567D01*
X65644517Y-46987490D01*
X65477510Y-46820483D01*
X65286433Y-46681657D01*
X65075996Y-46574433D01*
X64851368Y-46501446D01*
X64618097Y-46464500D01*
X64618092Y-46464500D01*
X64381908Y-46464500D01*
X64381903Y-46464500D01*
X64148631Y-46501446D01*
X63924003Y-46574433D01*
X63713566Y-46681657D01*
X63642210Y-46733501D01*
X63522490Y-46820483D01*
X63522488Y-46820485D01*
X63522487Y-46820485D01*
X63355485Y-46987487D01*
X63355485Y-46987488D01*
X63355483Y-46987490D01*
X63316895Y-47040602D01*
X63216657Y-47178566D01*
X63109433Y-47389003D01*
X63036446Y-47613631D01*
X62999500Y-47846902D01*
X62999500Y-48083097D01*
X63036446Y-48316368D01*
X63109433Y-48540996D01*
X63207310Y-48733089D01*
X63220206Y-48801758D01*
X63193930Y-48866499D01*
X63136823Y-48906756D01*
X63067018Y-48909748D01*
X63015954Y-48880911D01*
X63014999Y-48882076D01*
X63010288Y-48878210D01*
X62879185Y-48790609D01*
X62879172Y-48790602D01*
X62733501Y-48730264D01*
X62733489Y-48730261D01*
X62578845Y-48699500D01*
X62578842Y-48699500D01*
X62421158Y-48699500D01*
X62421155Y-48699500D01*
X62266510Y-48730261D01*
X62266498Y-48730264D01*
X62120827Y-48790602D01*
X62120814Y-48790609D01*
X61989711Y-48878210D01*
X61989707Y-48878213D01*
X61878213Y-48989707D01*
X61878210Y-48989711D01*
X61790609Y-49120814D01*
X61790602Y-49120827D01*
X61730264Y-49266498D01*
X61730261Y-49266510D01*
X61699500Y-49421153D01*
X36676207Y-49421153D01*
X36621789Y-49339711D01*
X36621786Y-49339707D01*
X36510292Y-49228213D01*
X36510288Y-49228210D01*
X36379185Y-49140609D01*
X36379172Y-49140602D01*
X36233501Y-49080264D01*
X36233489Y-49080261D01*
X36078845Y-49049500D01*
X36078842Y-49049500D01*
X35921158Y-49049500D01*
X35921155Y-49049500D01*
X35766510Y-49080261D01*
X35766498Y-49080264D01*
X35620827Y-49140602D01*
X35620814Y-49140609D01*
X35489711Y-49228210D01*
X35489707Y-49228213D01*
X35378213Y-49339707D01*
X35378210Y-49339711D01*
X35290609Y-49470814D01*
X35290602Y-49470827D01*
X35230264Y-49616498D01*
X35230261Y-49616510D01*
X35199500Y-49771153D01*
X25770662Y-49771153D01*
X25769738Y-49766507D01*
X25769735Y-49766498D01*
X25709397Y-49620827D01*
X25709390Y-49620814D01*
X25621789Y-49489711D01*
X25621786Y-49489707D01*
X25510292Y-49378213D01*
X25510288Y-49378210D01*
X25445872Y-49335168D01*
X25401067Y-49281555D01*
X25392360Y-49212230D01*
X25422515Y-49149203D01*
X25445868Y-49128967D01*
X25488789Y-49100289D01*
X25600289Y-48988789D01*
X25687894Y-48857679D01*
X25748237Y-48711997D01*
X25779000Y-48557342D01*
X25779000Y-48399658D01*
X25779000Y-48399655D01*
X25778999Y-48399653D01*
X25753597Y-48271949D01*
X25748237Y-48245003D01*
X25733489Y-48209397D01*
X25687897Y-48099327D01*
X25687890Y-48099314D01*
X25600289Y-47968211D01*
X25600286Y-47968207D01*
X25488792Y-47856713D01*
X25488788Y-47856710D01*
X25357684Y-47769108D01*
X25357672Y-47769102D01*
X25212001Y-47708764D01*
X25211989Y-47708761D01*
X25057345Y-47678000D01*
X25057342Y-47678000D01*
X24899658Y-47678000D01*
X24899655Y-47678000D01*
X24745010Y-47708761D01*
X24744998Y-47708764D01*
X24599327Y-47769102D01*
X24599314Y-47769109D01*
X24468211Y-47856710D01*
X24468207Y-47856713D01*
X24356713Y-47968207D01*
X24356710Y-47968211D01*
X24269109Y-48099314D01*
X24269102Y-48099327D01*
X24208764Y-48244998D01*
X24208761Y-48245010D01*
X24178000Y-48399653D01*
X17500500Y-48399653D01*
X17500500Y-46921153D01*
X18199500Y-46921153D01*
X18199500Y-47078846D01*
X18230261Y-47233489D01*
X18230264Y-47233501D01*
X18290602Y-47379172D01*
X18290609Y-47379185D01*
X18378210Y-47510288D01*
X18378213Y-47510292D01*
X18489707Y-47621786D01*
X18489711Y-47621789D01*
X18620814Y-47709390D01*
X18620827Y-47709397D01*
X18764984Y-47769108D01*
X18766503Y-47769737D01*
X18921153Y-47800499D01*
X18921156Y-47800500D01*
X18921158Y-47800500D01*
X19078844Y-47800500D01*
X19078845Y-47800499D01*
X19233497Y-47769737D01*
X19379179Y-47709394D01*
X19510289Y-47621789D01*
X19621789Y-47510289D01*
X19681348Y-47421153D01*
X20199500Y-47421153D01*
X20199500Y-47578846D01*
X20230261Y-47733489D01*
X20230264Y-47733501D01*
X20290602Y-47879172D01*
X20290609Y-47879185D01*
X20378210Y-48010288D01*
X20378213Y-48010292D01*
X20489707Y-48121786D01*
X20489711Y-48121789D01*
X20620814Y-48209390D01*
X20620827Y-48209397D01*
X20758683Y-48266498D01*
X20766503Y-48269737D01*
X20921153Y-48300499D01*
X20921156Y-48300500D01*
X20921158Y-48300500D01*
X21078844Y-48300500D01*
X21222378Y-48271949D01*
X21222378Y-48271948D01*
X21233497Y-48269737D01*
X21379179Y-48209394D01*
X21510289Y-48121789D01*
X21621789Y-48010289D01*
X21709394Y-47879179D01*
X21718701Y-47856711D01*
X21741984Y-47800499D01*
X21769737Y-47733497D01*
X21782138Y-47671153D01*
X35949500Y-47671153D01*
X35949500Y-47828846D01*
X35980261Y-47983489D01*
X35980264Y-47983501D01*
X36040602Y-48129172D01*
X36040609Y-48129185D01*
X36128210Y-48260288D01*
X36128213Y-48260292D01*
X36239707Y-48371786D01*
X36239711Y-48371789D01*
X36370814Y-48459390D01*
X36370827Y-48459397D01*
X36516498Y-48519735D01*
X36516503Y-48519737D01*
X36671153Y-48550499D01*
X36671156Y-48550500D01*
X36671158Y-48550500D01*
X36828844Y-48550500D01*
X36828845Y-48550499D01*
X36983497Y-48519737D01*
X37129179Y-48459394D01*
X37260289Y-48371789D01*
X37371789Y-48260289D01*
X37459394Y-48129179D01*
X37471762Y-48099321D01*
X37486411Y-48063954D01*
X37519737Y-47983497D01*
X37550500Y-47828842D01*
X37550500Y-47671158D01*
X37550500Y-47671155D01*
X37550499Y-47671153D01*
X37519738Y-47516510D01*
X37519737Y-47516503D01*
X37480242Y-47421153D01*
X37459397Y-47370827D01*
X37459390Y-47370814D01*
X37371789Y-47239711D01*
X37371786Y-47239707D01*
X37260292Y-47128213D01*
X37260288Y-47128210D01*
X37129185Y-47040609D01*
X37129172Y-47040602D01*
X36983501Y-46980264D01*
X36983489Y-46980261D01*
X36828845Y-46949500D01*
X36828842Y-46949500D01*
X36671158Y-46949500D01*
X36671155Y-46949500D01*
X36516510Y-46980261D01*
X36516498Y-46980264D01*
X36370827Y-47040602D01*
X36370814Y-47040609D01*
X36239711Y-47128210D01*
X36239707Y-47128213D01*
X36128213Y-47239707D01*
X36128210Y-47239711D01*
X36040609Y-47370814D01*
X36040602Y-47370827D01*
X35980264Y-47516498D01*
X35980261Y-47516510D01*
X35949500Y-47671153D01*
X21782138Y-47671153D01*
X21800500Y-47578842D01*
X21800500Y-47421158D01*
X21800500Y-47421155D01*
X21800499Y-47421153D01*
X21789849Y-47367611D01*
X21769737Y-47266503D01*
X21769735Y-47266498D01*
X21709397Y-47120827D01*
X21709390Y-47120814D01*
X21621789Y-46989711D01*
X21621786Y-46989707D01*
X21510292Y-46878213D01*
X21510288Y-46878210D01*
X21379185Y-46790609D01*
X21379172Y-46790602D01*
X21233501Y-46730264D01*
X21233489Y-46730261D01*
X21078845Y-46699500D01*
X21078842Y-46699500D01*
X20921158Y-46699500D01*
X20921155Y-46699500D01*
X20766510Y-46730261D01*
X20766498Y-46730264D01*
X20620827Y-46790602D01*
X20620814Y-46790609D01*
X20489711Y-46878210D01*
X20489707Y-46878213D01*
X20378213Y-46989707D01*
X20378210Y-46989711D01*
X20290609Y-47120814D01*
X20290602Y-47120827D01*
X20230264Y-47266498D01*
X20230261Y-47266510D01*
X20199500Y-47421153D01*
X19681348Y-47421153D01*
X19709394Y-47379179D01*
X19769737Y-47233497D01*
X19800500Y-47078842D01*
X19800500Y-46921158D01*
X19800500Y-46921155D01*
X19800499Y-46921153D01*
X19774531Y-46790606D01*
X19769737Y-46766503D01*
X19756062Y-46733489D01*
X19709397Y-46620827D01*
X19709390Y-46620814D01*
X19621789Y-46489711D01*
X19621786Y-46489707D01*
X19510292Y-46378213D01*
X19510288Y-46378210D01*
X19379185Y-46290609D01*
X19379172Y-46290602D01*
X19233501Y-46230264D01*
X19233489Y-46230261D01*
X19078845Y-46199500D01*
X19078842Y-46199500D01*
X18921158Y-46199500D01*
X18921155Y-46199500D01*
X18766510Y-46230261D01*
X18766498Y-46230264D01*
X18620827Y-46290602D01*
X18620814Y-46290609D01*
X18489711Y-46378210D01*
X18489707Y-46378213D01*
X18378213Y-46489707D01*
X18378210Y-46489711D01*
X18290609Y-46620814D01*
X18290602Y-46620827D01*
X18230264Y-46766498D01*
X18230261Y-46766510D01*
X18199500Y-46921153D01*
X17500500Y-46921153D01*
X17500500Y-39921153D01*
X19699500Y-39921153D01*
X19699500Y-40078846D01*
X19730261Y-40233489D01*
X19730264Y-40233501D01*
X19790602Y-40379172D01*
X19790609Y-40379185D01*
X19878210Y-40510288D01*
X19878213Y-40510292D01*
X19989707Y-40621786D01*
X19989711Y-40621789D01*
X20120814Y-40709390D01*
X20120827Y-40709397D01*
X20240376Y-40758915D01*
X20266503Y-40769737D01*
X20421153Y-40800499D01*
X20421156Y-40800500D01*
X20421158Y-40800500D01*
X20578844Y-40800500D01*
X20578845Y-40800499D01*
X20733497Y-40769737D01*
X20879179Y-40709394D01*
X21010289Y-40621789D01*
X21121789Y-40510289D01*
X21181348Y-40421153D01*
X28699500Y-40421153D01*
X28699500Y-40578846D01*
X28730261Y-40733489D01*
X28730264Y-40733501D01*
X28790602Y-40879172D01*
X28790609Y-40879185D01*
X28878210Y-41010288D01*
X28878213Y-41010292D01*
X28989707Y-41121786D01*
X28989711Y-41121789D01*
X29120814Y-41209390D01*
X29120827Y-41209397D01*
X29213267Y-41247686D01*
X29266503Y-41269737D01*
X29284108Y-41273238D01*
X29297691Y-41275941D01*
X29359602Y-41308325D01*
X29394176Y-41369041D01*
X29397500Y-41397558D01*
X29397500Y-42328373D01*
X29397499Y-42328391D01*
X29397499Y-42494099D01*
X29416682Y-42565692D01*
X29415019Y-42635542D01*
X29375856Y-42693404D01*
X29321100Y-42719402D01*
X29266507Y-42730261D01*
X29266498Y-42730264D01*
X29120827Y-42790602D01*
X29120814Y-42790609D01*
X28989711Y-42878210D01*
X28989707Y-42878213D01*
X28878213Y-42989707D01*
X28878210Y-42989711D01*
X28790609Y-43120814D01*
X28790602Y-43120827D01*
X28730264Y-43266498D01*
X28730261Y-43266510D01*
X28699500Y-43421153D01*
X28699500Y-43578846D01*
X28730261Y-43733489D01*
X28730264Y-43733501D01*
X28790602Y-43879172D01*
X28790609Y-43879185D01*
X28878210Y-44010288D01*
X28878213Y-44010292D01*
X28989707Y-44121786D01*
X28989711Y-44121789D01*
X29120814Y-44209390D01*
X29120827Y-44209397D01*
X29258186Y-44266292D01*
X29266503Y-44269737D01*
X29421153Y-44300499D01*
X29421156Y-44300500D01*
X29421158Y-44300500D01*
X29578844Y-44300500D01*
X29578845Y-44300499D01*
X29733497Y-44269737D01*
X29879179Y-44209394D01*
X30010289Y-44121789D01*
X30121789Y-44010289D01*
X30209394Y-43879179D01*
X30209395Y-43879176D01*
X30209397Y-43879173D01*
X30256560Y-43765309D01*
X30300400Y-43710905D01*
X30366694Y-43688840D01*
X30434394Y-43706119D01*
X30458802Y-43725080D01*
X33100096Y-46366374D01*
X33100106Y-46366385D01*
X33104436Y-46370715D01*
X33104437Y-46370716D01*
X33216241Y-46482520D01*
X33303052Y-46532639D01*
X33303054Y-46532641D01*
X33353170Y-46561576D01*
X33353172Y-46561577D01*
X33505899Y-46602500D01*
X33505900Y-46602500D01*
X36055581Y-46602500D01*
X36055597Y-46602501D01*
X36063193Y-46602501D01*
X36221304Y-46602501D01*
X36221307Y-46602501D01*
X36374035Y-46561577D01*
X36424154Y-46532639D01*
X36510966Y-46482520D01*
X36622770Y-46370716D01*
X36622770Y-46370714D01*
X36632978Y-46360507D01*
X36632980Y-46360504D01*
X39360504Y-43632980D01*
X39360509Y-43632976D01*
X39370712Y-43622772D01*
X39370714Y-43622772D01*
X39482518Y-43510968D01*
X39561575Y-43374036D01*
X39600457Y-43228927D01*
X39602498Y-43221310D01*
X39602498Y-43063195D01*
X39602498Y-41699594D01*
X39622183Y-41632555D01*
X39674987Y-41586800D01*
X39744145Y-41576856D01*
X39795389Y-41596492D01*
X39870821Y-41646894D01*
X39870823Y-41646895D01*
X39870827Y-41646897D01*
X39973153Y-41689281D01*
X40016503Y-41707237D01*
X40153975Y-41734582D01*
X40171153Y-41737999D01*
X40171156Y-41738000D01*
X40171158Y-41738000D01*
X40328844Y-41738000D01*
X40328845Y-41737999D01*
X40483497Y-41707237D01*
X40629179Y-41646894D01*
X40760289Y-41559289D01*
X40871789Y-41447789D01*
X40959394Y-41316679D01*
X41019737Y-41170997D01*
X41050500Y-41016342D01*
X41050500Y-40858658D01*
X41050500Y-40858655D01*
X41050499Y-40858653D01*
X41040915Y-40810473D01*
X41019737Y-40704003D01*
X41005639Y-40669966D01*
X40959397Y-40558327D01*
X40959390Y-40558314D01*
X40871789Y-40427211D01*
X40871786Y-40427207D01*
X40760292Y-40315713D01*
X40760288Y-40315710D01*
X40629185Y-40228109D01*
X40629172Y-40228102D01*
X40483501Y-40167764D01*
X40483489Y-40167761D01*
X40328845Y-40137000D01*
X40328842Y-40137000D01*
X40171158Y-40137000D01*
X40171155Y-40137000D01*
X40016510Y-40167761D01*
X40016498Y-40167764D01*
X39870827Y-40228102D01*
X39870814Y-40228109D01*
X39739711Y-40315710D01*
X39739707Y-40315713D01*
X39628213Y-40427207D01*
X39628210Y-40427211D01*
X39540609Y-40558314D01*
X39540606Y-40558321D01*
X39511023Y-40629739D01*
X39467181Y-40684142D01*
X39400887Y-40706206D01*
X39333187Y-40688926D01*
X39308781Y-40669966D01*
X38834572Y-40195757D01*
X38801087Y-40134434D01*
X38800636Y-40132267D01*
X38769736Y-39976928D01*
X38769735Y-39976921D01*
X38752934Y-39936360D01*
X38707061Y-39825610D01*
X38708642Y-39824955D01*
X38696067Y-39764544D01*
X38721071Y-39699302D01*
X38777378Y-39657934D01*
X38819667Y-39650500D01*
X42400640Y-39650500D01*
X42467679Y-39670185D01*
X42513434Y-39722989D01*
X42523378Y-39792147D01*
X42494353Y-39855703D01*
X42469531Y-39877602D01*
X42381597Y-39936357D01*
X42381593Y-39936360D01*
X42270099Y-40047854D01*
X42270096Y-40047858D01*
X42182495Y-40178961D01*
X42182488Y-40178974D01*
X42122150Y-40324645D01*
X42122147Y-40324657D01*
X42091386Y-40479300D01*
X42091386Y-40636993D01*
X42122147Y-40791636D01*
X42122150Y-40791648D01*
X42160209Y-40883531D01*
X42167678Y-40953000D01*
X42148752Y-40999871D01*
X42139254Y-41014086D01*
X42139246Y-41014100D01*
X42078908Y-41159770D01*
X42078905Y-41159782D01*
X42048144Y-41314425D01*
X42048144Y-41472118D01*
X42078905Y-41626761D01*
X42078908Y-41626773D01*
X42139246Y-41772444D01*
X42139253Y-41772457D01*
X42226854Y-41903560D01*
X42226857Y-41903564D01*
X42338351Y-42015058D01*
X42338355Y-42015061D01*
X42469458Y-42102662D01*
X42469471Y-42102669D01*
X42615142Y-42163007D01*
X42615147Y-42163009D01*
X42764166Y-42192651D01*
X42769797Y-42193771D01*
X42769800Y-42193772D01*
X42769802Y-42193772D01*
X42927488Y-42193772D01*
X42927489Y-42193771D01*
X43082141Y-42163009D01*
X43082153Y-42163003D01*
X43087968Y-42161241D01*
X43088684Y-42163602D01*
X43147375Y-42157286D01*
X43209858Y-42188553D01*
X43245517Y-42248637D01*
X43243032Y-42318463D01*
X43213054Y-42366999D01*
X42974727Y-42605325D01*
X42919905Y-42687372D01*
X42866292Y-42732176D01*
X42796967Y-42740883D01*
X42769352Y-42733042D01*
X42732465Y-42717763D01*
X42732461Y-42717762D01*
X42732456Y-42717760D01*
X42577813Y-42687000D01*
X42577810Y-42687000D01*
X42420126Y-42687000D01*
X42420123Y-42687000D01*
X42265478Y-42717761D01*
X42265466Y-42717764D01*
X42119795Y-42778102D01*
X42119782Y-42778109D01*
X41988679Y-42865710D01*
X41988675Y-42865713D01*
X41877181Y-42977207D01*
X41877178Y-42977211D01*
X41789577Y-43108314D01*
X41789570Y-43108327D01*
X41729232Y-43253998D01*
X41729229Y-43254010D01*
X41698468Y-43408653D01*
X41698468Y-43566346D01*
X41729229Y-43720989D01*
X41729232Y-43721001D01*
X41789570Y-43866672D01*
X41789577Y-43866685D01*
X41877178Y-43997788D01*
X41877181Y-43997792D01*
X41988675Y-44109286D01*
X41988679Y-44109289D01*
X42119782Y-44196890D01*
X42119795Y-44196897D01*
X42265466Y-44257235D01*
X42265471Y-44257237D01*
X42411022Y-44286189D01*
X42420121Y-44287999D01*
X42420124Y-44288000D01*
X42420126Y-44288000D01*
X42577812Y-44288000D01*
X42681308Y-44267413D01*
X42702292Y-44269290D01*
X42723147Y-44266292D01*
X42736394Y-44272342D01*
X42750900Y-44273640D01*
X42767537Y-44286564D01*
X42786703Y-44295317D01*
X42794577Y-44307569D01*
X42806077Y-44316503D01*
X42813085Y-44336369D01*
X42824477Y-44354095D01*
X42828011Y-44378677D01*
X42829322Y-44382392D01*
X42829500Y-44389030D01*
X42829500Y-44594286D01*
X42809815Y-44661325D01*
X42757011Y-44707080D01*
X42687853Y-44717024D01*
X42681309Y-44715903D01*
X42598846Y-44699500D01*
X42598842Y-44699500D01*
X42441158Y-44699500D01*
X42441155Y-44699500D01*
X42286510Y-44730261D01*
X42286498Y-44730264D01*
X42140827Y-44790602D01*
X42140814Y-44790609D01*
X42009711Y-44878210D01*
X42009707Y-44878213D01*
X41898213Y-44989707D01*
X41898210Y-44989711D01*
X41810609Y-45120814D01*
X41810602Y-45120827D01*
X41750264Y-45266498D01*
X41750261Y-45266510D01*
X41719500Y-45421153D01*
X41719500Y-45578846D01*
X41750261Y-45733489D01*
X41750264Y-45733501D01*
X41810602Y-45879171D01*
X41810609Y-45879184D01*
X41835304Y-45916142D01*
X41856182Y-45982819D01*
X41837698Y-46050200D01*
X41835305Y-46053923D01*
X41790608Y-46120816D01*
X41790602Y-46120827D01*
X41730264Y-46266498D01*
X41730261Y-46266510D01*
X41699500Y-46421153D01*
X41699500Y-46578846D01*
X41730261Y-46733489D01*
X41730264Y-46733501D01*
X41790602Y-46879172D01*
X41790609Y-46879185D01*
X41878210Y-47010288D01*
X41878213Y-47010292D01*
X41989707Y-47121786D01*
X41989711Y-47121789D01*
X42120814Y-47209390D01*
X42120827Y-47209397D01*
X42194013Y-47239711D01*
X42266503Y-47269737D01*
X42421153Y-47300499D01*
X42421156Y-47300500D01*
X42421158Y-47300500D01*
X42578844Y-47300500D01*
X42701308Y-47276140D01*
X42770900Y-47282367D01*
X42826077Y-47325230D01*
X42849322Y-47391120D01*
X42849500Y-47397757D01*
X42849500Y-47995064D01*
X42829815Y-48062103D01*
X42828603Y-48063954D01*
X42790608Y-48120817D01*
X42790602Y-48120828D01*
X42730264Y-48266498D01*
X42730261Y-48266510D01*
X42699500Y-48421153D01*
X42699500Y-48578846D01*
X42730261Y-48733489D01*
X42730264Y-48733501D01*
X42790602Y-48879172D01*
X42790609Y-48879185D01*
X42878210Y-49010288D01*
X42878213Y-49010292D01*
X42989707Y-49121786D01*
X42989711Y-49121789D01*
X43120814Y-49209390D01*
X43120827Y-49209397D01*
X43258123Y-49266266D01*
X43266503Y-49269737D01*
X43421153Y-49300499D01*
X43421156Y-49300500D01*
X43421158Y-49300500D01*
X43578844Y-49300500D01*
X43578845Y-49300499D01*
X43589179Y-49298443D01*
X43614287Y-49293450D01*
X43614292Y-49293449D01*
X43699800Y-49276439D01*
X43733497Y-49269737D01*
X43879179Y-49209394D01*
X44010289Y-49121789D01*
X44121789Y-49010289D01*
X44209394Y-48879179D01*
X44269737Y-48733497D01*
X44300500Y-48578842D01*
X44300500Y-48421158D01*
X44300500Y-48421155D01*
X44300499Y-48421153D01*
X44269738Y-48266510D01*
X44269737Y-48266503D01*
X44260834Y-48245010D01*
X44209397Y-48120828D01*
X44209396Y-48120827D01*
X44209394Y-48120821D01*
X44171396Y-48063953D01*
X44150520Y-47997276D01*
X44150500Y-47995064D01*
X44150500Y-46421153D01*
X49199500Y-46421153D01*
X49199500Y-46578846D01*
X49230261Y-46733489D01*
X49230264Y-46733501D01*
X49290602Y-46879172D01*
X49290609Y-46879185D01*
X49378210Y-47010288D01*
X49378213Y-47010292D01*
X49489707Y-47121786D01*
X49489711Y-47121789D01*
X49620814Y-47209390D01*
X49620827Y-47209397D01*
X49694013Y-47239711D01*
X49766503Y-47269737D01*
X49921153Y-47300499D01*
X49921156Y-47300500D01*
X49921158Y-47300500D01*
X50078844Y-47300500D01*
X50078845Y-47300499D01*
X50233497Y-47269737D01*
X50379179Y-47209394D01*
X50510289Y-47121789D01*
X50621789Y-47010289D01*
X50709394Y-46879179D01*
X50769737Y-46733497D01*
X50800500Y-46578842D01*
X50800500Y-46421158D01*
X50800500Y-46421155D01*
X50800499Y-46421153D01*
X50774531Y-46290606D01*
X50769737Y-46266503D01*
X50769735Y-46266498D01*
X50709397Y-46120827D01*
X50709390Y-46120814D01*
X50621789Y-45989711D01*
X50621786Y-45989707D01*
X50510292Y-45878213D01*
X50510288Y-45878210D01*
X50379185Y-45790609D01*
X50379172Y-45790602D01*
X50233501Y-45730264D01*
X50233489Y-45730261D01*
X50078845Y-45699500D01*
X50078842Y-45699500D01*
X49921158Y-45699500D01*
X49921155Y-45699500D01*
X49766510Y-45730261D01*
X49766498Y-45730264D01*
X49620827Y-45790602D01*
X49620814Y-45790609D01*
X49489711Y-45878210D01*
X49489707Y-45878213D01*
X49378213Y-45989707D01*
X49378210Y-45989711D01*
X49290609Y-46120814D01*
X49290602Y-46120827D01*
X49230264Y-46266498D01*
X49230261Y-46266510D01*
X49199500Y-46421153D01*
X44150500Y-46421153D01*
X44150500Y-45975002D01*
X44170185Y-45907963D01*
X44171398Y-45906111D01*
X44189394Y-45879179D01*
X44249737Y-45733497D01*
X44280500Y-45578842D01*
X44280500Y-45578835D01*
X44281097Y-45572782D01*
X44282837Y-45572953D01*
X44300185Y-45513875D01*
X44352989Y-45468120D01*
X44404500Y-45456914D01*
X44437242Y-45456914D01*
X44437243Y-45456913D01*
X44591895Y-45426151D01*
X44737577Y-45365808D01*
X44868687Y-45278203D01*
X44980187Y-45166703D01*
X45067792Y-45035593D01*
X45128135Y-44889911D01*
X45158639Y-44736556D01*
X46570107Y-44736556D01*
X46570107Y-44894249D01*
X46600868Y-45048892D01*
X46600871Y-45048904D01*
X46661209Y-45194575D01*
X46661216Y-45194588D01*
X46748817Y-45325691D01*
X46748820Y-45325695D01*
X46860314Y-45437189D01*
X46860318Y-45437192D01*
X46991421Y-45524793D01*
X46991434Y-45524800D01*
X47121905Y-45578842D01*
X47137110Y-45585140D01*
X47291760Y-45615902D01*
X47291763Y-45615903D01*
X47291765Y-45615903D01*
X47449451Y-45615903D01*
X47449452Y-45615902D01*
X47604104Y-45585140D01*
X47749786Y-45524797D01*
X47880896Y-45437192D01*
X47896935Y-45421153D01*
X56699500Y-45421153D01*
X56699500Y-45578846D01*
X56730261Y-45733489D01*
X56730264Y-45733501D01*
X56790602Y-45879172D01*
X56790609Y-45879185D01*
X56878210Y-46010288D01*
X56878213Y-46010292D01*
X56989707Y-46121786D01*
X56989711Y-46121789D01*
X57120814Y-46209390D01*
X57120827Y-46209397D01*
X57258683Y-46266498D01*
X57266503Y-46269737D01*
X57421153Y-46300499D01*
X57421156Y-46300500D01*
X57421158Y-46300500D01*
X57578844Y-46300500D01*
X57578845Y-46300499D01*
X57733497Y-46269737D01*
X57879179Y-46209394D01*
X58010289Y-46121789D01*
X58121789Y-46010289D01*
X58209394Y-45879179D01*
X58269737Y-45733497D01*
X58300500Y-45578842D01*
X58300500Y-45421158D01*
X58300500Y-45421155D01*
X58300499Y-45421153D01*
X58281511Y-45325695D01*
X58269737Y-45266503D01*
X58228399Y-45166703D01*
X58209397Y-45120827D01*
X58209390Y-45120814D01*
X58121789Y-44989711D01*
X58121786Y-44989707D01*
X58010292Y-44878213D01*
X58010288Y-44878210D01*
X57879185Y-44790609D01*
X57879172Y-44790602D01*
X57733501Y-44730264D01*
X57733489Y-44730261D01*
X57578845Y-44699500D01*
X57578842Y-44699500D01*
X57421158Y-44699500D01*
X57421155Y-44699500D01*
X57266510Y-44730261D01*
X57266498Y-44730264D01*
X57120827Y-44790602D01*
X57120814Y-44790609D01*
X56989711Y-44878210D01*
X56989707Y-44878213D01*
X56878213Y-44989707D01*
X56878210Y-44989711D01*
X56790609Y-45120814D01*
X56790602Y-45120827D01*
X56730264Y-45266498D01*
X56730261Y-45266510D01*
X56699500Y-45421153D01*
X47896935Y-45421153D01*
X47990704Y-45327385D01*
X47992393Y-45325695D01*
X47992396Y-45325692D01*
X48080001Y-45194582D01*
X48140344Y-45048900D01*
X48171107Y-44894245D01*
X48171107Y-44736561D01*
X48171107Y-44736558D01*
X48171106Y-44736556D01*
X48163735Y-44699500D01*
X48140344Y-44581906D01*
X48108007Y-44503837D01*
X48080004Y-44436230D01*
X48079997Y-44436217D01*
X47992396Y-44305114D01*
X47992393Y-44305110D01*
X47880899Y-44193616D01*
X47880895Y-44193613D01*
X47749792Y-44106012D01*
X47749779Y-44106005D01*
X47604108Y-44045667D01*
X47604096Y-44045664D01*
X47449452Y-44014903D01*
X47449449Y-44014903D01*
X47291765Y-44014903D01*
X47291762Y-44014903D01*
X47137117Y-44045664D01*
X47137105Y-44045667D01*
X46991434Y-44106005D01*
X46991421Y-44106012D01*
X46860318Y-44193613D01*
X46860314Y-44193616D01*
X46748820Y-44305110D01*
X46748817Y-44305114D01*
X46661216Y-44436217D01*
X46661209Y-44436230D01*
X46600871Y-44581901D01*
X46600868Y-44581913D01*
X46570107Y-44736556D01*
X45158639Y-44736556D01*
X45158898Y-44735256D01*
X45158898Y-44577572D01*
X45158267Y-44574400D01*
X45158230Y-44565188D01*
X45166378Y-44537016D01*
X45171844Y-44508197D01*
X45175975Y-44503837D01*
X45177644Y-44498070D01*
X45199731Y-44478774D01*
X45219909Y-44457486D01*
X45225740Y-44456052D01*
X45230263Y-44452102D01*
X45259275Y-44447811D01*
X45287760Y-44440811D01*
X45298123Y-44442066D01*
X45299381Y-44441880D01*
X45300404Y-44442342D01*
X45306421Y-44443071D01*
X45416175Y-44464903D01*
X45416178Y-44464903D01*
X45573864Y-44464903D01*
X45573865Y-44464902D01*
X45728517Y-44434140D01*
X45874199Y-44373797D01*
X46005309Y-44286192D01*
X46116809Y-44174692D01*
X46204414Y-44043582D01*
X46264757Y-43897900D01*
X46295520Y-43743245D01*
X46295520Y-43664400D01*
X46315205Y-43597361D01*
X46368009Y-43551606D01*
X46372035Y-43549853D01*
X46379179Y-43546894D01*
X46510289Y-43459289D01*
X46621789Y-43347789D01*
X46709394Y-43216679D01*
X46769737Y-43070997D01*
X46800500Y-42916342D01*
X46800500Y-42758658D01*
X46800500Y-42758655D01*
X46800499Y-42758653D01*
X46793697Y-42724457D01*
X46769737Y-42604003D01*
X46758778Y-42577545D01*
X46709397Y-42458327D01*
X46709390Y-42458314D01*
X46621789Y-42327211D01*
X46621786Y-42327207D01*
X46510292Y-42215713D01*
X46510288Y-42215710D01*
X46379185Y-42128109D01*
X46379172Y-42128102D01*
X46233501Y-42067764D01*
X46233489Y-42067761D01*
X46078845Y-42037000D01*
X46078842Y-42037000D01*
X45921158Y-42037000D01*
X45921155Y-42037000D01*
X45766510Y-42067761D01*
X45766498Y-42067764D01*
X45635149Y-42122170D01*
X45623945Y-42123374D01*
X45614055Y-42128775D01*
X45589829Y-42127042D01*
X45565679Y-42129639D01*
X45555602Y-42124594D01*
X45544363Y-42123791D01*
X45524919Y-42109235D01*
X45503200Y-42098363D01*
X45497449Y-42088671D01*
X45488430Y-42081919D01*
X45479942Y-42059162D01*
X45467549Y-42038274D01*
X45467951Y-42027013D01*
X45464013Y-42016455D01*
X45469176Y-41992721D01*
X45470043Y-41968449D01*
X45476855Y-41957421D01*
X45478865Y-41948182D01*
X45500013Y-41919931D01*
X45530719Y-41889225D01*
X47168684Y-41889225D01*
X47168684Y-42046918D01*
X47199445Y-42201561D01*
X47199448Y-42201573D01*
X47259786Y-42347244D01*
X47259793Y-42347257D01*
X47347394Y-42478360D01*
X47347397Y-42478364D01*
X47458891Y-42589858D01*
X47458895Y-42589861D01*
X47589998Y-42677462D01*
X47590011Y-42677469D01*
X47724178Y-42733042D01*
X47735687Y-42737809D01*
X47888326Y-42768171D01*
X47890337Y-42768571D01*
X47890340Y-42768572D01*
X47890342Y-42768572D01*
X48048023Y-42768572D01*
X48048026Y-42768572D01*
X48051302Y-42767920D01*
X48053055Y-42768076D01*
X48054091Y-42767975D01*
X48054110Y-42768171D01*
X48120892Y-42774143D01*
X48176073Y-42817002D01*
X48199322Y-42882890D01*
X48199500Y-42889536D01*
X48199500Y-42928846D01*
X48230261Y-43083489D01*
X48230264Y-43083501D01*
X48290602Y-43229172D01*
X48290609Y-43229185D01*
X48378210Y-43360288D01*
X48378213Y-43360292D01*
X48489707Y-43471786D01*
X48489711Y-43471789D01*
X48620814Y-43559390D01*
X48620827Y-43559397D01*
X48712482Y-43597361D01*
X48766503Y-43619737D01*
X48921153Y-43650499D01*
X48921156Y-43650500D01*
X48921158Y-43650500D01*
X49078844Y-43650500D01*
X49078845Y-43650499D01*
X49233497Y-43619737D01*
X49379179Y-43559394D01*
X49510289Y-43471789D01*
X49621789Y-43360289D01*
X49709394Y-43229179D01*
X49709496Y-43228934D01*
X49740488Y-43154110D01*
X49769737Y-43083497D01*
X49800500Y-42928842D01*
X49800500Y-42771158D01*
X49800500Y-42771155D01*
X49800499Y-42771153D01*
X49791211Y-42724459D01*
X49769737Y-42616503D01*
X49753598Y-42577540D01*
X53294200Y-42577540D01*
X53294200Y-42724459D01*
X53322858Y-42868534D01*
X53322861Y-42868544D01*
X53379078Y-43004266D01*
X53379083Y-43004275D01*
X53460698Y-43126419D01*
X53460701Y-43126423D01*
X53564576Y-43230298D01*
X53564580Y-43230301D01*
X53686724Y-43311916D01*
X53686730Y-43311919D01*
X53686731Y-43311920D01*
X53822458Y-43368140D01*
X53966540Y-43396799D01*
X53966544Y-43396800D01*
X53966545Y-43396800D01*
X54113456Y-43396800D01*
X54113457Y-43396799D01*
X54257542Y-43368140D01*
X54393269Y-43311920D01*
X54515420Y-43230301D01*
X54619301Y-43126420D01*
X54700920Y-43004269D01*
X54757140Y-42868542D01*
X54777105Y-42768171D01*
X54782712Y-42739983D01*
X62999500Y-42739983D01*
X62999500Y-44340001D01*
X62999501Y-44340018D01*
X63010000Y-44442796D01*
X63010001Y-44442799D01*
X63060200Y-44594286D01*
X63065186Y-44609334D01*
X63157288Y-44758656D01*
X63281344Y-44882712D01*
X63430666Y-44974814D01*
X63597203Y-45029999D01*
X63699991Y-45040500D01*
X65300008Y-45040499D01*
X65402797Y-45029999D01*
X65569334Y-44974814D01*
X65718656Y-44882712D01*
X65842712Y-44758656D01*
X65934814Y-44609334D01*
X65989999Y-44442797D01*
X66000500Y-44340009D01*
X66000499Y-42739992D01*
X65994111Y-42677462D01*
X65989999Y-42637203D01*
X65989998Y-42637200D01*
X65979000Y-42604010D01*
X65934814Y-42470666D01*
X65842712Y-42321344D01*
X65718656Y-42197288D01*
X65606498Y-42128109D01*
X65569336Y-42105187D01*
X65569331Y-42105185D01*
X65561717Y-42102662D01*
X65402797Y-42050001D01*
X65402795Y-42050000D01*
X65300010Y-42039500D01*
X63699998Y-42039500D01*
X63699981Y-42039501D01*
X63597203Y-42050000D01*
X63597200Y-42050001D01*
X63430668Y-42105185D01*
X63430663Y-42105187D01*
X63281342Y-42197289D01*
X63157289Y-42321342D01*
X63065187Y-42470663D01*
X63065185Y-42470668D01*
X63055300Y-42500500D01*
X63010001Y-42637203D01*
X63010001Y-42637204D01*
X63010000Y-42637204D01*
X62999500Y-42739983D01*
X54782712Y-42739983D01*
X54785800Y-42724457D01*
X54785800Y-42577544D01*
X54785799Y-42577540D01*
X54766072Y-42478364D01*
X54757140Y-42433458D01*
X54710700Y-42321342D01*
X54700921Y-42297733D01*
X54700916Y-42297724D01*
X54619301Y-42175580D01*
X54619298Y-42175576D01*
X54515423Y-42071701D01*
X54515419Y-42071698D01*
X54393275Y-41990083D01*
X54393266Y-41990078D01*
X54257544Y-41933861D01*
X54257545Y-41933861D01*
X54257542Y-41933860D01*
X54257538Y-41933859D01*
X54257534Y-41933858D01*
X54113459Y-41905200D01*
X54113455Y-41905200D01*
X53966545Y-41905200D01*
X53966540Y-41905200D01*
X53822465Y-41933858D01*
X53822455Y-41933861D01*
X53686733Y-41990078D01*
X53686724Y-41990083D01*
X53564580Y-42071698D01*
X53564576Y-42071701D01*
X53460701Y-42175576D01*
X53460698Y-42175580D01*
X53379083Y-42297724D01*
X53379078Y-42297733D01*
X53322861Y-42433455D01*
X53322858Y-42433465D01*
X53294200Y-42577540D01*
X49753598Y-42577540D01*
X49745599Y-42558230D01*
X49709397Y-42470827D01*
X49709390Y-42470814D01*
X49621789Y-42339711D01*
X49621786Y-42339707D01*
X49552458Y-42270379D01*
X49518973Y-42209056D01*
X49523957Y-42139364D01*
X49537037Y-42113806D01*
X49539296Y-42110424D01*
X49539301Y-42110420D01*
X49620920Y-41988269D01*
X49677140Y-41852542D01*
X49705800Y-41708455D01*
X49705800Y-41561545D01*
X49677140Y-41417458D01*
X49620920Y-41281731D01*
X49620919Y-41281730D01*
X49620916Y-41281724D01*
X49539301Y-41159580D01*
X49539298Y-41159576D01*
X49435423Y-41055701D01*
X49435419Y-41055698D01*
X49313275Y-40974083D01*
X49313266Y-40974078D01*
X49182073Y-40919737D01*
X49177542Y-40917860D01*
X49177538Y-40917859D01*
X49177534Y-40917858D01*
X49033459Y-40889200D01*
X49033455Y-40889200D01*
X48886545Y-40889200D01*
X48886540Y-40889200D01*
X48742465Y-40917858D01*
X48742455Y-40917861D01*
X48606733Y-40974078D01*
X48606724Y-40974083D01*
X48484581Y-41055697D01*
X48380696Y-41159583D01*
X48380694Y-41159586D01*
X48378358Y-41163082D01*
X48324742Y-41207882D01*
X48255417Y-41216584D01*
X48227812Y-41208744D01*
X48202682Y-41198335D01*
X48202672Y-41198332D01*
X48048029Y-41167572D01*
X48048026Y-41167572D01*
X47890342Y-41167572D01*
X47890339Y-41167572D01*
X47735694Y-41198333D01*
X47735682Y-41198336D01*
X47590011Y-41258674D01*
X47589998Y-41258681D01*
X47458895Y-41346282D01*
X47458891Y-41346285D01*
X47347397Y-41457779D01*
X47347394Y-41457783D01*
X47259793Y-41588886D01*
X47259786Y-41588899D01*
X47199448Y-41734570D01*
X47199445Y-41734582D01*
X47168684Y-41889225D01*
X45530719Y-41889225D01*
X46102931Y-41317013D01*
X46164252Y-41283530D01*
X46166284Y-41283106D01*
X46233497Y-41269737D01*
X46379179Y-41209394D01*
X46510289Y-41121789D01*
X46621789Y-41010289D01*
X46709394Y-40879179D01*
X46769737Y-40733497D01*
X46800500Y-40578842D01*
X46800500Y-40421158D01*
X46800500Y-40421155D01*
X46800499Y-40421153D01*
X46796581Y-40401455D01*
X46769737Y-40266503D01*
X46754138Y-40228844D01*
X46709394Y-40120820D01*
X46676207Y-40071153D01*
X49199500Y-40071153D01*
X49199500Y-40228846D01*
X49230261Y-40383489D01*
X49230264Y-40383501D01*
X49290602Y-40529172D01*
X49290609Y-40529185D01*
X49378210Y-40660288D01*
X49378213Y-40660292D01*
X49489707Y-40771786D01*
X49489711Y-40771789D01*
X49620814Y-40859390D01*
X49620827Y-40859397D01*
X49761971Y-40917860D01*
X49766503Y-40919737D01*
X49885218Y-40943351D01*
X49921153Y-40950499D01*
X49921156Y-40950500D01*
X49921158Y-40950500D01*
X50078844Y-40950500D01*
X50078845Y-40950499D01*
X50233497Y-40919737D01*
X50379179Y-40859394D01*
X50510289Y-40771789D01*
X50621789Y-40660289D01*
X50698462Y-40545540D01*
X53294200Y-40545540D01*
X53294200Y-40692459D01*
X53322858Y-40836534D01*
X53322861Y-40836544D01*
X53379078Y-40972266D01*
X53379083Y-40972275D01*
X53460698Y-41094419D01*
X53460701Y-41094423D01*
X53564576Y-41198298D01*
X53564580Y-41198301D01*
X53686724Y-41279916D01*
X53686730Y-41279919D01*
X53686731Y-41279920D01*
X53822458Y-41336140D01*
X53950593Y-41361627D01*
X53966540Y-41364799D01*
X53966544Y-41364800D01*
X53966545Y-41364800D01*
X54113456Y-41364800D01*
X54113457Y-41364799D01*
X54257542Y-41336140D01*
X54393269Y-41279920D01*
X54515420Y-41198301D01*
X54619301Y-41094420D01*
X54700920Y-40972269D01*
X54738351Y-40881902D01*
X55499500Y-40881902D01*
X55499500Y-41118097D01*
X55536446Y-41351368D01*
X55609433Y-41575996D01*
X55698226Y-41750261D01*
X55716657Y-41786433D01*
X55855483Y-41977510D01*
X56022490Y-42144517D01*
X56213567Y-42283343D01*
X56288148Y-42321344D01*
X56424003Y-42390566D01*
X56424005Y-42390566D01*
X56424008Y-42390568D01*
X56503360Y-42416351D01*
X56648631Y-42463553D01*
X56881903Y-42500500D01*
X56881908Y-42500500D01*
X57118097Y-42500500D01*
X57351368Y-42463553D01*
X57420292Y-42441158D01*
X57575992Y-42390568D01*
X57786433Y-42283343D01*
X57977510Y-42144517D01*
X58144517Y-41977510D01*
X58283343Y-41786433D01*
X58390568Y-41575992D01*
X58463553Y-41351368D01*
X58472355Y-41295794D01*
X58500500Y-41118097D01*
X58500500Y-40881902D01*
X58463553Y-40648631D01*
X58427776Y-40538522D01*
X58390568Y-40424008D01*
X58390566Y-40424005D01*
X58390566Y-40424003D01*
X58334002Y-40312991D01*
X58283343Y-40213567D01*
X58144517Y-40022490D01*
X57977510Y-39855483D01*
X57786433Y-39716657D01*
X57753932Y-39700097D01*
X57575996Y-39609433D01*
X57351368Y-39536446D01*
X57118097Y-39499500D01*
X57118092Y-39499500D01*
X56881908Y-39499500D01*
X56881903Y-39499500D01*
X56648631Y-39536446D01*
X56424003Y-39609433D01*
X56213566Y-39716657D01*
X56114808Y-39788410D01*
X56022490Y-39855483D01*
X56022488Y-39855485D01*
X56022487Y-39855485D01*
X55855485Y-40022487D01*
X55855485Y-40022488D01*
X55855483Y-40022490D01*
X55837055Y-40047854D01*
X55716657Y-40213566D01*
X55609433Y-40424003D01*
X55536446Y-40648631D01*
X55499500Y-40881902D01*
X54738351Y-40881902D01*
X54757140Y-40836542D01*
X54785800Y-40692455D01*
X54785800Y-40545545D01*
X54757140Y-40401458D01*
X54700920Y-40265731D01*
X54700919Y-40265730D01*
X54700916Y-40265724D01*
X54619301Y-40143580D01*
X54619298Y-40143576D01*
X54515423Y-40039701D01*
X54515419Y-40039698D01*
X54393275Y-39958083D01*
X54393266Y-39958078D01*
X54257544Y-39901861D01*
X54257545Y-39901861D01*
X54257542Y-39901860D01*
X54257538Y-39901859D01*
X54257534Y-39901858D01*
X54113459Y-39873200D01*
X54113455Y-39873200D01*
X53966545Y-39873200D01*
X53966540Y-39873200D01*
X53822465Y-39901858D01*
X53822455Y-39901861D01*
X53686733Y-39958078D01*
X53686724Y-39958083D01*
X53564580Y-40039698D01*
X53564576Y-40039701D01*
X53460701Y-40143576D01*
X53460698Y-40143580D01*
X53379083Y-40265724D01*
X53379078Y-40265733D01*
X53322861Y-40401455D01*
X53322858Y-40401465D01*
X53294200Y-40545540D01*
X50698462Y-40545540D01*
X50709394Y-40529179D01*
X50717217Y-40510292D01*
X50724794Y-40492001D01*
X50762297Y-40401458D01*
X50769737Y-40383497D01*
X50800500Y-40228842D01*
X50800500Y-40071158D01*
X50800500Y-40071155D01*
X50800499Y-40071153D01*
X50795865Y-40047858D01*
X50769737Y-39916503D01*
X50754492Y-39879697D01*
X50709397Y-39770827D01*
X50709390Y-39770814D01*
X50621789Y-39639711D01*
X50621786Y-39639707D01*
X50510289Y-39528210D01*
X50495259Y-39518168D01*
X50379185Y-39440609D01*
X50379172Y-39440602D01*
X50332217Y-39421153D01*
X51699500Y-39421153D01*
X51699500Y-39578846D01*
X51730261Y-39733489D01*
X51730264Y-39733501D01*
X51790602Y-39879172D01*
X51790609Y-39879185D01*
X51878210Y-40010288D01*
X51878213Y-40010292D01*
X51989707Y-40121786D01*
X51989711Y-40121789D01*
X52120814Y-40209390D01*
X52120827Y-40209397D01*
X52256836Y-40265733D01*
X52266503Y-40269737D01*
X52421153Y-40300499D01*
X52421156Y-40300500D01*
X52421158Y-40300500D01*
X52578844Y-40300500D01*
X52578845Y-40300499D01*
X52733497Y-40269737D01*
X52846166Y-40223067D01*
X52879172Y-40209397D01*
X52879172Y-40209396D01*
X52879179Y-40209394D01*
X53010289Y-40121789D01*
X53121789Y-40010289D01*
X53209394Y-39879179D01*
X53269737Y-39733497D01*
X53300500Y-39578842D01*
X53300500Y-39421158D01*
X53300500Y-39421155D01*
X53300499Y-39421153D01*
X53291421Y-39375515D01*
X53269737Y-39266503D01*
X53261424Y-39246433D01*
X53209397Y-39120827D01*
X53209390Y-39120814D01*
X53121789Y-38989711D01*
X53121786Y-38989707D01*
X53010292Y-38878213D01*
X53010288Y-38878210D01*
X52879185Y-38790609D01*
X52879172Y-38790602D01*
X52733501Y-38730264D01*
X52733489Y-38730261D01*
X52578845Y-38699500D01*
X52578842Y-38699500D01*
X52421158Y-38699500D01*
X52421155Y-38699500D01*
X52266510Y-38730261D01*
X52266498Y-38730264D01*
X52120827Y-38790602D01*
X52120814Y-38790609D01*
X51989711Y-38878210D01*
X51989707Y-38878213D01*
X51878213Y-38989707D01*
X51878210Y-38989711D01*
X51790609Y-39120814D01*
X51790602Y-39120827D01*
X51730264Y-39266498D01*
X51730261Y-39266510D01*
X51699500Y-39421153D01*
X50332217Y-39421153D01*
X50233501Y-39380264D01*
X50233489Y-39380261D01*
X50078845Y-39349500D01*
X50078842Y-39349500D01*
X49921158Y-39349500D01*
X49921155Y-39349500D01*
X49766510Y-39380261D01*
X49766498Y-39380264D01*
X49620827Y-39440602D01*
X49620814Y-39440609D01*
X49489711Y-39528210D01*
X49489707Y-39528213D01*
X49378213Y-39639707D01*
X49378210Y-39639711D01*
X49290609Y-39770814D01*
X49290602Y-39770827D01*
X49230264Y-39916498D01*
X49230261Y-39916510D01*
X49199500Y-40071153D01*
X46676207Y-40071153D01*
X46621789Y-39989711D01*
X46621786Y-39989707D01*
X46510292Y-39878213D01*
X46510288Y-39878210D01*
X46379185Y-39790609D01*
X46379172Y-39790602D01*
X46233501Y-39730264D01*
X46233489Y-39730261D01*
X46078845Y-39699500D01*
X46078842Y-39699500D01*
X45921158Y-39699500D01*
X45921157Y-39699500D01*
X45915095Y-39700097D01*
X45914915Y-39698270D01*
X45853884Y-39692799D01*
X45798714Y-39649927D01*
X45782923Y-39620213D01*
X45779579Y-39611121D01*
X45772501Y-39575534D01*
X45718971Y-39446300D01*
X45718116Y-39443975D01*
X45715945Y-39411513D01*
X45712467Y-39379163D01*
X45713537Y-39375515D01*
X45713454Y-39374261D01*
X45714420Y-39372510D01*
X45719933Y-39353733D01*
X45769737Y-39233497D01*
X45800500Y-39078842D01*
X45800500Y-38921158D01*
X45800500Y-38921155D01*
X45800499Y-38921153D01*
X45774531Y-38790606D01*
X45769737Y-38766503D01*
X45756062Y-38733489D01*
X45709397Y-38620827D01*
X45709390Y-38620814D01*
X45621789Y-38489711D01*
X45621786Y-38489707D01*
X45510292Y-38378213D01*
X45510288Y-38378210D01*
X45455950Y-38341902D01*
X62999500Y-38341902D01*
X62999500Y-38578097D01*
X63036446Y-38811368D01*
X63109433Y-39035996D01*
X63206990Y-39227461D01*
X63216657Y-39246433D01*
X63355483Y-39437510D01*
X63522490Y-39604517D01*
X63713567Y-39743343D01*
X63802016Y-39788410D01*
X63924003Y-39850566D01*
X63924005Y-39850566D01*
X63924008Y-39850568D01*
X64012082Y-39879185D01*
X64148631Y-39923553D01*
X64381903Y-39960500D01*
X64381908Y-39960500D01*
X64618097Y-39960500D01*
X64851368Y-39923553D01*
X64873044Y-39916510D01*
X65075992Y-39850568D01*
X65286433Y-39743343D01*
X65477510Y-39604517D01*
X65644517Y-39437510D01*
X65783343Y-39246433D01*
X65890568Y-39035992D01*
X65963553Y-38811368D01*
X65975886Y-38733501D01*
X66000500Y-38578097D01*
X66000500Y-38341902D01*
X65963553Y-38108631D01*
X65902639Y-37921158D01*
X65890568Y-37884008D01*
X65890566Y-37884005D01*
X65890566Y-37884003D01*
X65812434Y-37730661D01*
X65783343Y-37673567D01*
X65644517Y-37482490D01*
X65477510Y-37315483D01*
X65286433Y-37176657D01*
X65221771Y-37143710D01*
X65075996Y-37069433D01*
X64851368Y-36996446D01*
X64618097Y-36959500D01*
X64618092Y-36959500D01*
X64381908Y-36959500D01*
X64381903Y-36959500D01*
X64148631Y-36996446D01*
X63924003Y-37069433D01*
X63713566Y-37176657D01*
X63635328Y-37233501D01*
X63522490Y-37315483D01*
X63522488Y-37315485D01*
X63522487Y-37315485D01*
X63355485Y-37482487D01*
X63355485Y-37482488D01*
X63355483Y-37482490D01*
X63322265Y-37528211D01*
X63216657Y-37673566D01*
X63109433Y-37884003D01*
X63036446Y-38108631D01*
X62999500Y-38341902D01*
X45455950Y-38341902D01*
X45379185Y-38290609D01*
X45379172Y-38290602D01*
X45233501Y-38230264D01*
X45233491Y-38230261D01*
X45127948Y-38209267D01*
X45066037Y-38176882D01*
X45031463Y-38116166D01*
X45035204Y-38046396D01*
X45076070Y-37989725D01*
X45116148Y-37968988D01*
X45120260Y-37967739D01*
X45120276Y-37967737D01*
X45265958Y-37907394D01*
X45308195Y-37879172D01*
X45397654Y-37819398D01*
X45464332Y-37798520D01*
X45466545Y-37798500D01*
X52215331Y-37798500D01*
X52215347Y-37798501D01*
X52222943Y-37798501D01*
X52381054Y-37798501D01*
X52381057Y-37798501D01*
X52533785Y-37757577D01*
X52617240Y-37709394D01*
X52670716Y-37678520D01*
X52782520Y-37566716D01*
X52782520Y-37566714D01*
X52792724Y-37556511D01*
X52792727Y-37556506D01*
X52928080Y-37421153D01*
X59199500Y-37421153D01*
X59199500Y-37578846D01*
X59230261Y-37733489D01*
X59230264Y-37733501D01*
X59290602Y-37879172D01*
X59290609Y-37879185D01*
X59378210Y-38010288D01*
X59378213Y-38010292D01*
X59489707Y-38121786D01*
X59489711Y-38121789D01*
X59620814Y-38209390D01*
X59620827Y-38209397D01*
X59693914Y-38239670D01*
X59766503Y-38269737D01*
X59887470Y-38293799D01*
X59921153Y-38300499D01*
X59921156Y-38300500D01*
X59921158Y-38300500D01*
X60078844Y-38300500D01*
X60078845Y-38300499D01*
X60233497Y-38269737D01*
X60347598Y-38222475D01*
X60347599Y-38222475D01*
X60363150Y-38216033D01*
X60379179Y-38209394D01*
X60510289Y-38121789D01*
X60621789Y-38010289D01*
X60709394Y-37879179D01*
X60769737Y-37733497D01*
X60800500Y-37578842D01*
X60800500Y-37421158D01*
X60800500Y-37421155D01*
X60800499Y-37421153D01*
X60776216Y-37299075D01*
X60769737Y-37266503D01*
X60747631Y-37213134D01*
X60709397Y-37120827D01*
X60709390Y-37120814D01*
X60621789Y-36989711D01*
X60621786Y-36989707D01*
X60510292Y-36878213D01*
X60510288Y-36878210D01*
X60379185Y-36790609D01*
X60379172Y-36790602D01*
X60233501Y-36730264D01*
X60233489Y-36730261D01*
X60078845Y-36699500D01*
X60078842Y-36699500D01*
X59921158Y-36699500D01*
X59921155Y-36699500D01*
X59766510Y-36730261D01*
X59766498Y-36730264D01*
X59620827Y-36790602D01*
X59620814Y-36790609D01*
X59489711Y-36878210D01*
X59489707Y-36878213D01*
X59378213Y-36989707D01*
X59378210Y-36989711D01*
X59290609Y-37120814D01*
X59290602Y-37120827D01*
X59230264Y-37266498D01*
X59230261Y-37266510D01*
X59199500Y-37421153D01*
X52928080Y-37421153D01*
X54514662Y-35834572D01*
X54575983Y-35801089D01*
X54578150Y-35800638D01*
X54636085Y-35789113D01*
X54733497Y-35769737D01*
X54879179Y-35709394D01*
X55010289Y-35621789D01*
X55121789Y-35510289D01*
X55209394Y-35379179D01*
X55269737Y-35233497D01*
X55300500Y-35078842D01*
X55300500Y-34921158D01*
X55300500Y-34921155D01*
X55300499Y-34921153D01*
X55269738Y-34766510D01*
X55269738Y-34766508D01*
X55269737Y-34766503D01*
X55256062Y-34733489D01*
X55209397Y-34620827D01*
X55209390Y-34620814D01*
X55121789Y-34489711D01*
X55121786Y-34489707D01*
X55010292Y-34378213D01*
X55010288Y-34378210D01*
X54879185Y-34290609D01*
X54879172Y-34290602D01*
X54733501Y-34230264D01*
X54733489Y-34230261D01*
X54578845Y-34199500D01*
X54578842Y-34199500D01*
X54421158Y-34199500D01*
X54421155Y-34199500D01*
X54266510Y-34230261D01*
X54266498Y-34230264D01*
X54120827Y-34290602D01*
X54120814Y-34290609D01*
X53989711Y-34378210D01*
X53989707Y-34378213D01*
X53878213Y-34489707D01*
X53878210Y-34489711D01*
X53790609Y-34620814D01*
X53790602Y-34620827D01*
X53730264Y-34766498D01*
X53730261Y-34766508D01*
X53699361Y-34921850D01*
X53666976Y-34983761D01*
X53665425Y-34985339D01*
X52089584Y-36561181D01*
X52028261Y-36594666D01*
X52001903Y-36597500D01*
X46795505Y-36597500D01*
X46728466Y-36577815D01*
X46682711Y-36525011D01*
X46672767Y-36455853D01*
X46692403Y-36404610D01*
X46709387Y-36379190D01*
X46709388Y-36379186D01*
X46709394Y-36379179D01*
X46769737Y-36233497D01*
X46800500Y-36078842D01*
X46800500Y-35921158D01*
X46800500Y-35921155D01*
X46800499Y-35921153D01*
X46769737Y-35766503D01*
X46764890Y-35754801D01*
X46709397Y-35620827D01*
X46709390Y-35620814D01*
X46621789Y-35489711D01*
X46621786Y-35489707D01*
X46510292Y-35378213D01*
X46510288Y-35378210D01*
X46379185Y-35290609D01*
X46379172Y-35290602D01*
X46233501Y-35230264D01*
X46233489Y-35230261D01*
X46078845Y-35199500D01*
X46078842Y-35199500D01*
X45921158Y-35199500D01*
X45921155Y-35199500D01*
X45766510Y-35230261D01*
X45766498Y-35230264D01*
X45620827Y-35290602D01*
X45620814Y-35290609D01*
X45489711Y-35378210D01*
X45489707Y-35378213D01*
X45378213Y-35489707D01*
X45378210Y-35489711D01*
X45290609Y-35620814D01*
X45290602Y-35620827D01*
X45230264Y-35766498D01*
X45230261Y-35766510D01*
X45199500Y-35921153D01*
X45199500Y-36078846D01*
X45230261Y-36233489D01*
X45230263Y-36233496D01*
X45239280Y-36255266D01*
X45246748Y-36324735D01*
X45215472Y-36387214D01*
X45155383Y-36422866D01*
X45100527Y-36424334D01*
X44965624Y-36397500D01*
X44965621Y-36397500D01*
X44807937Y-36397500D01*
X44807934Y-36397500D01*
X44653289Y-36428261D01*
X44653277Y-36428264D01*
X44507606Y-36488602D01*
X44507593Y-36488609D01*
X44376490Y-36576210D01*
X44376486Y-36576213D01*
X44264992Y-36687707D01*
X44264989Y-36687711D01*
X44177388Y-36818814D01*
X44177381Y-36818827D01*
X44117043Y-36964498D01*
X44117040Y-36964508D01*
X44103699Y-37031579D01*
X44071314Y-37093490D01*
X44069763Y-37095068D01*
X42851652Y-38313181D01*
X42790329Y-38346666D01*
X42763971Y-38349500D01*
X38537984Y-38349500D01*
X38508543Y-38340855D01*
X38478557Y-38334332D01*
X38473541Y-38330577D01*
X38470945Y-38329815D01*
X38450303Y-38313181D01*
X38376792Y-38239670D01*
X38376772Y-38239648D01*
X38281850Y-38144726D01*
X38281843Y-38144720D01*
X38175312Y-38073539D01*
X38175295Y-38073529D01*
X38056920Y-38024498D01*
X38056912Y-38024496D01*
X37931246Y-37999499D01*
X37931244Y-37999499D01*
X37803106Y-37999499D01*
X37803102Y-37999499D01*
X37798999Y-37999903D01*
X37786848Y-38000500D01*
X36918046Y-38000500D01*
X36887584Y-37991555D01*
X36856686Y-37984254D01*
X36854300Y-37981782D01*
X36851007Y-37980815D01*
X36830225Y-37956832D01*
X36808170Y-37933975D01*
X36806625Y-37929595D01*
X36805252Y-37928011D01*
X36796429Y-37900691D01*
X36787426Y-37855430D01*
X36793653Y-37785839D01*
X36836516Y-37730661D01*
X36861589Y-37716679D01*
X36879179Y-37709394D01*
X37010289Y-37621789D01*
X37121789Y-37510289D01*
X37209394Y-37379179D01*
X37247452Y-37287296D01*
X37291291Y-37232897D01*
X37337818Y-37213135D01*
X37383497Y-37204050D01*
X37529179Y-37143707D01*
X37660289Y-37056102D01*
X37704474Y-37011917D01*
X37765797Y-36978431D01*
X37835488Y-36983415D01*
X37879837Y-37011916D01*
X37989707Y-37121786D01*
X37989711Y-37121789D01*
X38120814Y-37209390D01*
X38120827Y-37209397D01*
X38258683Y-37266498D01*
X38266503Y-37269737D01*
X38354798Y-37287300D01*
X38421153Y-37300499D01*
X38421156Y-37300500D01*
X38421158Y-37300500D01*
X38578844Y-37300500D01*
X38578845Y-37300499D01*
X38733497Y-37269737D01*
X38870150Y-37213134D01*
X38879172Y-37209397D01*
X38879172Y-37209396D01*
X38879179Y-37209394D01*
X39010289Y-37121789D01*
X39121789Y-37010289D01*
X39209394Y-36879179D01*
X39269737Y-36733497D01*
X39300500Y-36578842D01*
X39300500Y-36421158D01*
X39300500Y-36421155D01*
X39300499Y-36421153D01*
X39287578Y-36356195D01*
X39269737Y-36266503D01*
X39256062Y-36233489D01*
X39209397Y-36120827D01*
X39209390Y-36120814D01*
X39121789Y-35989711D01*
X39121786Y-35989707D01*
X39010292Y-35878213D01*
X39010288Y-35878210D01*
X38879185Y-35790609D01*
X38879172Y-35790602D01*
X38733501Y-35730264D01*
X38733489Y-35730261D01*
X38578845Y-35699500D01*
X38578842Y-35699500D01*
X38421158Y-35699500D01*
X38421155Y-35699500D01*
X38266510Y-35730261D01*
X38266498Y-35730264D01*
X38120827Y-35790602D01*
X38120814Y-35790609D01*
X37989711Y-35878210D01*
X37989706Y-35878214D01*
X37945523Y-35922397D01*
X37884200Y-35955881D01*
X37814508Y-35950896D01*
X37770162Y-35922396D01*
X37660292Y-35812526D01*
X37660288Y-35812523D01*
X37529185Y-35724922D01*
X37529172Y-35724915D01*
X37383501Y-35664577D01*
X37383489Y-35664574D01*
X37228845Y-35633813D01*
X37228842Y-35633813D01*
X37071158Y-35633813D01*
X37071155Y-35633813D01*
X36916510Y-35664574D01*
X36916498Y-35664577D01*
X36770827Y-35724915D01*
X36770814Y-35724922D01*
X36639711Y-35812523D01*
X36639707Y-35812526D01*
X36528213Y-35924020D01*
X36528210Y-35924024D01*
X36440609Y-36055127D01*
X36440604Y-36055137D01*
X36402548Y-36147012D01*
X36358706Y-36201416D01*
X36312181Y-36221176D01*
X36266505Y-36230262D01*
X36266498Y-36230264D01*
X36120827Y-36290602D01*
X36120814Y-36290609D01*
X35989711Y-36378210D01*
X35989707Y-36378213D01*
X35878213Y-36489707D01*
X35853102Y-36527289D01*
X35799489Y-36572093D01*
X35730164Y-36580800D01*
X35667137Y-36550645D01*
X35646898Y-36527289D01*
X35621786Y-36489707D01*
X35510292Y-36378213D01*
X35510288Y-36378210D01*
X35379185Y-36290609D01*
X35379172Y-36290602D01*
X35233501Y-36230264D01*
X35233489Y-36230261D01*
X35078845Y-36199500D01*
X35078842Y-36199500D01*
X34921158Y-36199500D01*
X34921155Y-36199500D01*
X34766510Y-36230261D01*
X34766498Y-36230264D01*
X34620827Y-36290602D01*
X34620814Y-36290609D01*
X34489711Y-36378210D01*
X34489707Y-36378213D01*
X34378213Y-36489707D01*
X34378210Y-36489711D01*
X34290609Y-36620814D01*
X34290602Y-36620827D01*
X34230264Y-36766498D01*
X34230261Y-36766510D01*
X34199500Y-36921153D01*
X34199500Y-37078846D01*
X34230261Y-37233489D01*
X34230264Y-37233501D01*
X34290602Y-37379172D01*
X34290606Y-37379179D01*
X34328602Y-37436044D01*
X34349480Y-37502721D01*
X34349500Y-37504935D01*
X34349500Y-37984724D01*
X34367166Y-38073532D01*
X34367166Y-38073534D01*
X34374497Y-38110391D01*
X34374499Y-38110398D01*
X34415504Y-38209394D01*
X34423535Y-38228781D01*
X34491043Y-38329815D01*
X34494726Y-38335327D01*
X34494727Y-38335328D01*
X35225070Y-39065669D01*
X35278323Y-39118922D01*
X35315678Y-39156277D01*
X35422212Y-39227461D01*
X35422221Y-39227466D01*
X35428974Y-39230263D01*
X35540602Y-39276501D01*
X35540606Y-39276501D01*
X35540607Y-39276502D01*
X35666274Y-39301500D01*
X35666277Y-39301500D01*
X35725500Y-39301500D01*
X35792539Y-39321185D01*
X35838294Y-39373989D01*
X35849500Y-39425500D01*
X35849500Y-41622242D01*
X35829815Y-41689281D01*
X35777011Y-41735036D01*
X35707853Y-41744980D01*
X35701309Y-41743859D01*
X35578846Y-41719500D01*
X35578842Y-41719500D01*
X35421158Y-41719500D01*
X35421155Y-41719500D01*
X35266510Y-41750261D01*
X35266498Y-41750264D01*
X35120827Y-41810602D01*
X35120814Y-41810609D01*
X34989711Y-41898210D01*
X34989707Y-41898213D01*
X34878213Y-42009707D01*
X34878210Y-42009711D01*
X34790609Y-42140814D01*
X34790602Y-42140827D01*
X34730264Y-42286498D01*
X34730261Y-42286510D01*
X34699500Y-42441153D01*
X34699500Y-42598846D01*
X34730261Y-42753489D01*
X34730264Y-42753501D01*
X34790602Y-42899172D01*
X34790606Y-42899179D01*
X34802075Y-42916344D01*
X34804602Y-42920125D01*
X34825480Y-42986803D01*
X34806996Y-43054183D01*
X34804603Y-43057906D01*
X34787672Y-43083244D01*
X34787671Y-43083246D01*
X34727331Y-43228922D01*
X34727328Y-43228934D01*
X34696567Y-43383577D01*
X34696567Y-43541270D01*
X34727329Y-43695920D01*
X34728293Y-43699097D01*
X34728308Y-43700843D01*
X34728518Y-43701896D01*
X34728318Y-43701935D01*
X34728917Y-43768964D01*
X34691669Y-43828077D01*
X34628376Y-43857668D01*
X34559131Y-43848343D01*
X34521952Y-43822774D01*
X32337533Y-41638355D01*
X32337531Y-41638352D01*
X32218660Y-41519481D01*
X32218652Y-41519475D01*
X32111797Y-41457783D01*
X32111796Y-41457782D01*
X32111796Y-41457783D01*
X32081728Y-41440423D01*
X31929000Y-41399499D01*
X31899155Y-41399499D01*
X31832116Y-41379814D01*
X31786361Y-41327010D01*
X31776417Y-41257852D01*
X31805442Y-41194296D01*
X31811474Y-41187818D01*
X31999421Y-40999871D01*
X32188820Y-40810471D01*
X32250141Y-40776988D01*
X32300688Y-40776537D01*
X32365416Y-40789412D01*
X32421156Y-40800500D01*
X32421158Y-40800500D01*
X32578844Y-40800500D01*
X32578845Y-40800499D01*
X32733497Y-40769737D01*
X32879179Y-40709394D01*
X33010289Y-40621789D01*
X33121789Y-40510289D01*
X33209394Y-40379179D01*
X33269737Y-40233497D01*
X33300500Y-40078842D01*
X33300500Y-39921158D01*
X33300500Y-39921155D01*
X33300499Y-39921153D01*
X33287436Y-39855483D01*
X33269737Y-39766503D01*
X33260144Y-39743343D01*
X33209397Y-39620827D01*
X33209390Y-39620814D01*
X33121789Y-39489711D01*
X33121786Y-39489707D01*
X33010292Y-39378213D01*
X33010288Y-39378210D01*
X32879185Y-39290609D01*
X32879172Y-39290602D01*
X32733501Y-39230264D01*
X32728460Y-39228735D01*
X32725115Y-39226543D01*
X32721128Y-39226258D01*
X32696135Y-39207548D01*
X32670024Y-39190434D01*
X32668395Y-39186782D01*
X32665195Y-39184386D01*
X32654283Y-39155131D01*
X32641571Y-39126620D01*
X32642175Y-39122668D01*
X32640778Y-39118922D01*
X32647415Y-39088411D01*
X32652135Y-39057554D01*
X32655024Y-39053431D01*
X32655630Y-39050649D01*
X32676776Y-39022400D01*
X32794488Y-38904688D01*
X32834713Y-38877811D01*
X32879179Y-38859394D01*
X33010289Y-38771789D01*
X33121789Y-38660289D01*
X33209394Y-38529179D01*
X33269737Y-38383497D01*
X33300500Y-38228842D01*
X33300500Y-38071158D01*
X33300500Y-38071155D01*
X33300499Y-38071153D01*
X33284298Y-37989707D01*
X33269737Y-37916503D01*
X33256275Y-37884003D01*
X33209397Y-37770827D01*
X33209390Y-37770814D01*
X33121789Y-37639711D01*
X33121786Y-37639707D01*
X33010292Y-37528213D01*
X33010288Y-37528210D01*
X32879185Y-37440609D01*
X32879172Y-37440602D01*
X32733501Y-37380264D01*
X32733489Y-37380261D01*
X32578845Y-37349500D01*
X32578842Y-37349500D01*
X32421158Y-37349500D01*
X32421155Y-37349500D01*
X32266510Y-37380261D01*
X32266498Y-37380264D01*
X32120827Y-37440602D01*
X32120814Y-37440609D01*
X31989711Y-37528210D01*
X31989707Y-37528213D01*
X31878213Y-37639707D01*
X31878210Y-37639711D01*
X31790609Y-37770814D01*
X31790602Y-37770827D01*
X31730264Y-37916498D01*
X31730261Y-37916510D01*
X31699500Y-38071153D01*
X31699500Y-38228843D01*
X31700097Y-38234905D01*
X31697597Y-38235151D01*
X31692343Y-38293799D01*
X31664639Y-38336067D01*
X30149511Y-39851196D01*
X30088188Y-39884681D01*
X30018496Y-39879697D01*
X29992939Y-39866617D01*
X29879185Y-39790609D01*
X29879172Y-39790602D01*
X29733501Y-39730264D01*
X29733489Y-39730261D01*
X29578845Y-39699500D01*
X29578842Y-39699500D01*
X29421158Y-39699500D01*
X29421155Y-39699500D01*
X29266510Y-39730261D01*
X29266498Y-39730264D01*
X29120827Y-39790602D01*
X29120814Y-39790609D01*
X28989711Y-39878210D01*
X28989707Y-39878213D01*
X28878213Y-39989707D01*
X28878210Y-39989711D01*
X28790609Y-40120814D01*
X28790602Y-40120827D01*
X28730264Y-40266498D01*
X28730261Y-40266510D01*
X28699500Y-40421153D01*
X21181348Y-40421153D01*
X21209394Y-40379179D01*
X21269737Y-40233497D01*
X21300500Y-40078842D01*
X21300500Y-39921158D01*
X21300500Y-39921155D01*
X21300499Y-39921153D01*
X21287436Y-39855483D01*
X21269737Y-39766503D01*
X21260144Y-39743343D01*
X21209397Y-39620827D01*
X21209390Y-39620814D01*
X21121789Y-39489711D01*
X21121786Y-39489707D01*
X21084746Y-39452667D01*
X21051261Y-39391344D01*
X21056245Y-39321652D01*
X21098117Y-39265719D01*
X21163581Y-39241302D01*
X21219878Y-39250424D01*
X21266503Y-39269737D01*
X21421153Y-39300499D01*
X21421156Y-39300500D01*
X21421158Y-39300500D01*
X21578844Y-39300500D01*
X21578845Y-39300499D01*
X21733497Y-39269737D01*
X21879179Y-39209394D01*
X22010289Y-39121789D01*
X22121789Y-39010289D01*
X22209394Y-38879179D01*
X22269737Y-38733497D01*
X22300500Y-38578842D01*
X22300500Y-38421158D01*
X22300500Y-38421155D01*
X22300499Y-38421153D01*
X23699500Y-38421153D01*
X23699500Y-38578846D01*
X23730261Y-38733489D01*
X23730264Y-38733501D01*
X23790602Y-38879172D01*
X23790609Y-38879185D01*
X23878210Y-39010288D01*
X23878213Y-39010292D01*
X23989707Y-39121786D01*
X23989711Y-39121789D01*
X24120814Y-39209390D01*
X24120827Y-39209397D01*
X24258683Y-39266498D01*
X24266503Y-39269737D01*
X24421153Y-39300499D01*
X24421156Y-39300500D01*
X24421158Y-39300500D01*
X24578844Y-39300500D01*
X24578845Y-39300499D01*
X24733497Y-39269737D01*
X24879179Y-39209394D01*
X25010289Y-39121789D01*
X25121789Y-39010289D01*
X25209394Y-38879179D01*
X25269737Y-38733497D01*
X25300500Y-38578842D01*
X25300500Y-38421158D01*
X25300500Y-38421155D01*
X25300499Y-38421153D01*
X25269737Y-38266503D01*
X25269735Y-38266498D01*
X25209397Y-38120827D01*
X25209390Y-38120814D01*
X25121789Y-37989711D01*
X25121786Y-37989707D01*
X25010292Y-37878213D01*
X25010288Y-37878210D01*
X24879185Y-37790609D01*
X24879172Y-37790602D01*
X24733501Y-37730264D01*
X24733489Y-37730261D01*
X24578845Y-37699500D01*
X24578842Y-37699500D01*
X24421158Y-37699500D01*
X24421155Y-37699500D01*
X24266510Y-37730261D01*
X24266498Y-37730264D01*
X24120827Y-37790602D01*
X24120814Y-37790609D01*
X23989711Y-37878210D01*
X23989707Y-37878213D01*
X23878213Y-37989707D01*
X23878210Y-37989711D01*
X23790609Y-38120814D01*
X23790602Y-38120827D01*
X23730264Y-38266498D01*
X23730261Y-38266510D01*
X23699500Y-38421153D01*
X22300499Y-38421153D01*
X22269737Y-38266503D01*
X22269735Y-38266498D01*
X22209397Y-38120827D01*
X22209390Y-38120814D01*
X22121789Y-37989711D01*
X22121786Y-37989707D01*
X22010292Y-37878213D01*
X22010288Y-37878210D01*
X21879185Y-37790609D01*
X21879172Y-37790602D01*
X21733501Y-37730264D01*
X21733489Y-37730261D01*
X21578845Y-37699500D01*
X21578842Y-37699500D01*
X21421158Y-37699500D01*
X21421155Y-37699500D01*
X21266510Y-37730261D01*
X21266498Y-37730264D01*
X21120827Y-37790602D01*
X21120814Y-37790609D01*
X20989711Y-37878210D01*
X20989707Y-37878213D01*
X20878213Y-37989707D01*
X20878210Y-37989711D01*
X20790609Y-38120814D01*
X20790602Y-38120827D01*
X20730264Y-38266498D01*
X20730261Y-38266510D01*
X20699500Y-38421153D01*
X20699500Y-38578846D01*
X20730261Y-38733489D01*
X20730264Y-38733501D01*
X20790602Y-38879172D01*
X20790609Y-38879185D01*
X20878210Y-39010288D01*
X20878213Y-39010292D01*
X20915253Y-39047332D01*
X20948738Y-39108655D01*
X20943754Y-39178347D01*
X20901882Y-39234280D01*
X20836418Y-39258697D01*
X20780121Y-39249575D01*
X20733497Y-39230263D01*
X20733492Y-39230262D01*
X20733489Y-39230261D01*
X20578845Y-39199500D01*
X20578842Y-39199500D01*
X20421158Y-39199500D01*
X20421155Y-39199500D01*
X20266510Y-39230261D01*
X20266498Y-39230264D01*
X20120827Y-39290602D01*
X20120814Y-39290609D01*
X19989711Y-39378210D01*
X19989707Y-39378213D01*
X19878213Y-39489707D01*
X19878210Y-39489711D01*
X19790609Y-39620814D01*
X19790602Y-39620827D01*
X19730264Y-39766498D01*
X19730261Y-39766510D01*
X19699500Y-39921153D01*
X17500500Y-39921153D01*
X17500500Y-32905513D01*
X18989500Y-32905513D01*
X18989500Y-33094486D01*
X19019059Y-33281118D01*
X19077454Y-33460836D01*
X19148617Y-33600500D01*
X19163240Y-33629199D01*
X19274310Y-33782073D01*
X19407927Y-33915690D01*
X19560801Y-34026760D01*
X19640347Y-34067290D01*
X19729163Y-34112545D01*
X19729165Y-34112545D01*
X19729168Y-34112547D01*
X19789251Y-34132069D01*
X19846926Y-34171507D01*
X19874124Y-34235866D01*
X19862209Y-34304712D01*
X19814965Y-34356188D01*
X19789253Y-34367930D01*
X19770756Y-34373939D01*
X19729163Y-34387454D01*
X19560800Y-34473240D01*
X19473579Y-34536610D01*
X19407927Y-34584310D01*
X19407925Y-34584312D01*
X19407924Y-34584312D01*
X19274312Y-34717924D01*
X19274312Y-34717925D01*
X19274310Y-34717927D01*
X19262998Y-34733497D01*
X19163240Y-34870800D01*
X19077454Y-35039163D01*
X19019059Y-35218881D01*
X18989500Y-35405513D01*
X18989500Y-35594486D01*
X19019059Y-35781118D01*
X19077454Y-35960836D01*
X19137582Y-36078842D01*
X19163240Y-36129199D01*
X19274310Y-36282073D01*
X19407927Y-36415690D01*
X19560801Y-36526760D01*
X19607678Y-36550645D01*
X19729163Y-36612545D01*
X19729165Y-36612545D01*
X19729168Y-36612547D01*
X19825497Y-36643846D01*
X19908881Y-36670940D01*
X20095514Y-36700500D01*
X20095519Y-36700500D01*
X20284486Y-36700500D01*
X20471118Y-36670940D01*
X20478544Y-36668527D01*
X20650832Y-36612547D01*
X20819199Y-36526760D01*
X20972073Y-36415690D01*
X21105690Y-36282073D01*
X21216760Y-36129199D01*
X21302547Y-35960832D01*
X21360940Y-35781118D01*
X21365108Y-35754801D01*
X21390500Y-35594486D01*
X21390500Y-35405513D01*
X21360940Y-35218881D01*
X21315439Y-35078846D01*
X21302547Y-35039168D01*
X21302545Y-35039165D01*
X21302545Y-35039163D01*
X21242418Y-34921158D01*
X21216760Y-34870801D01*
X21105690Y-34717927D01*
X20972073Y-34584310D01*
X20819199Y-34473240D01*
X20650832Y-34387453D01*
X20590748Y-34367930D01*
X20533073Y-34328493D01*
X20505875Y-34264135D01*
X20517790Y-34195288D01*
X20565034Y-34143813D01*
X20590746Y-34132069D01*
X20650832Y-34112547D01*
X20819199Y-34026760D01*
X20972073Y-33915690D01*
X21105690Y-33782073D01*
X21216760Y-33629199D01*
X21302547Y-33460832D01*
X21360940Y-33281118D01*
X21368482Y-33233501D01*
X21390500Y-33094486D01*
X21390500Y-32905513D01*
X26609500Y-32905513D01*
X26609500Y-33094486D01*
X26639059Y-33281118D01*
X26697454Y-33460836D01*
X26768617Y-33600500D01*
X26783240Y-33629199D01*
X26894310Y-33782073D01*
X27027927Y-33915690D01*
X27180801Y-34026760D01*
X27260347Y-34067290D01*
X27349163Y-34112545D01*
X27349165Y-34112545D01*
X27349168Y-34112547D01*
X27409251Y-34132069D01*
X27466926Y-34171507D01*
X27494124Y-34235866D01*
X27482209Y-34304712D01*
X27434965Y-34356188D01*
X27409253Y-34367930D01*
X27390756Y-34373939D01*
X27349163Y-34387454D01*
X27180800Y-34473240D01*
X27093579Y-34536610D01*
X27027927Y-34584310D01*
X27027925Y-34584312D01*
X27027924Y-34584312D01*
X26894312Y-34717924D01*
X26894312Y-34717925D01*
X26894310Y-34717927D01*
X26882998Y-34733497D01*
X26783240Y-34870800D01*
X26697454Y-35039163D01*
X26639059Y-35218881D01*
X26609500Y-35405513D01*
X26609500Y-35594486D01*
X26639059Y-35781118D01*
X26697454Y-35960836D01*
X26757582Y-36078842D01*
X26783240Y-36129199D01*
X26894310Y-36282073D01*
X27027927Y-36415690D01*
X27180801Y-36526760D01*
X27227678Y-36550645D01*
X27349163Y-36612545D01*
X27349165Y-36612545D01*
X27349168Y-36612547D01*
X27445497Y-36643846D01*
X27528881Y-36670940D01*
X27715514Y-36700500D01*
X27715519Y-36700500D01*
X27904486Y-36700500D01*
X28091118Y-36670940D01*
X28098544Y-36668527D01*
X28270832Y-36612547D01*
X28439199Y-36526760D01*
X28592073Y-36415690D01*
X28725690Y-36282073D01*
X28836760Y-36129199D01*
X28922547Y-35960832D01*
X28980940Y-35781118D01*
X28985108Y-35754801D01*
X29010500Y-35594486D01*
X29010500Y-35405513D01*
X28980940Y-35218881D01*
X28935439Y-35078846D01*
X28922547Y-35039168D01*
X28922545Y-35039165D01*
X28922545Y-35039163D01*
X28862418Y-34921158D01*
X28836760Y-34870801D01*
X28725690Y-34717927D01*
X28592073Y-34584310D01*
X28439199Y-34473240D01*
X28270832Y-34387453D01*
X28210748Y-34367930D01*
X28153073Y-34328493D01*
X28125875Y-34264135D01*
X28137790Y-34195288D01*
X28185034Y-34143813D01*
X28210746Y-34132069D01*
X28270832Y-34112547D01*
X28439199Y-34026760D01*
X28592073Y-33915690D01*
X28725690Y-33782073D01*
X28836760Y-33629199D01*
X28922547Y-33460832D01*
X28980940Y-33281118D01*
X28988482Y-33233501D01*
X29010500Y-33094486D01*
X29010500Y-32905513D01*
X28980940Y-32718881D01*
X28935439Y-32578846D01*
X28922547Y-32539168D01*
X28922545Y-32539165D01*
X28922545Y-32539163D01*
X28887998Y-32471361D01*
X28862418Y-32421158D01*
X28862415Y-32421153D01*
X31199500Y-32421153D01*
X31199500Y-32578846D01*
X31230261Y-32733489D01*
X31230264Y-32733501D01*
X31290602Y-32879172D01*
X31290609Y-32879185D01*
X31378210Y-33010288D01*
X31378213Y-33010292D01*
X31489707Y-33121786D01*
X31489711Y-33121789D01*
X31620814Y-33209390D01*
X31620827Y-33209397D01*
X31766498Y-33269735D01*
X31766503Y-33269737D01*
X31921153Y-33300499D01*
X31921156Y-33300500D01*
X31921158Y-33300500D01*
X32078844Y-33300500D01*
X32078845Y-33300499D01*
X32233497Y-33269737D01*
X32379179Y-33209394D01*
X32510289Y-33121789D01*
X32621789Y-33010289D01*
X32709394Y-32879179D01*
X32769737Y-32733497D01*
X32800500Y-32578842D01*
X32800500Y-32421158D01*
X32800500Y-32421155D01*
X32800499Y-32421153D01*
X32790483Y-32370800D01*
X32769737Y-32266503D01*
X32756062Y-32233489D01*
X32709397Y-32120827D01*
X32709390Y-32120814D01*
X32621789Y-31989711D01*
X32621786Y-31989707D01*
X32510292Y-31878213D01*
X32510288Y-31878210D01*
X32379185Y-31790609D01*
X32379172Y-31790602D01*
X32233501Y-31730264D01*
X32233489Y-31730261D01*
X32078845Y-31699500D01*
X32078842Y-31699500D01*
X31921158Y-31699500D01*
X31921155Y-31699500D01*
X31766510Y-31730261D01*
X31766498Y-31730264D01*
X31620827Y-31790602D01*
X31620814Y-31790609D01*
X31489711Y-31878210D01*
X31489707Y-31878213D01*
X31378213Y-31989707D01*
X31378210Y-31989711D01*
X31290609Y-32120814D01*
X31290602Y-32120827D01*
X31230264Y-32266498D01*
X31230261Y-32266510D01*
X31199500Y-32421153D01*
X28862415Y-32421153D01*
X28836760Y-32370801D01*
X28725690Y-32217927D01*
X28592073Y-32084310D01*
X28439199Y-31973240D01*
X28270836Y-31887454D01*
X28091118Y-31829059D01*
X27904486Y-31799500D01*
X27904481Y-31799500D01*
X27715519Y-31799500D01*
X27715514Y-31799500D01*
X27528881Y-31829059D01*
X27349163Y-31887454D01*
X27180800Y-31973240D01*
X27093579Y-32036610D01*
X27027927Y-32084310D01*
X27027925Y-32084312D01*
X27027924Y-32084312D01*
X26894312Y-32217924D01*
X26894312Y-32217925D01*
X26894310Y-32217927D01*
X26865302Y-32257853D01*
X26783240Y-32370800D01*
X26697454Y-32539163D01*
X26639059Y-32718881D01*
X26609500Y-32905513D01*
X21390500Y-32905513D01*
X21360940Y-32718881D01*
X21315439Y-32578846D01*
X21302547Y-32539168D01*
X21302545Y-32539165D01*
X21302545Y-32539163D01*
X21242418Y-32421158D01*
X21216760Y-32370801D01*
X21105690Y-32217927D01*
X20972073Y-32084310D01*
X20819199Y-31973240D01*
X20650836Y-31887454D01*
X20471118Y-31829059D01*
X20284486Y-31799500D01*
X20284481Y-31799500D01*
X20095519Y-31799500D01*
X20095514Y-31799500D01*
X19908881Y-31829059D01*
X19729163Y-31887454D01*
X19560800Y-31973240D01*
X19473579Y-32036610D01*
X19407927Y-32084310D01*
X19407925Y-32084312D01*
X19407924Y-32084312D01*
X19274312Y-32217924D01*
X19274312Y-32217925D01*
X19274310Y-32217927D01*
X19245302Y-32257853D01*
X19163240Y-32370800D01*
X19077454Y-32539163D01*
X19019059Y-32718881D01*
X18989500Y-32905513D01*
X17500500Y-32905513D01*
X17500500Y-32845134D01*
X17520185Y-32778095D01*
X17572989Y-32732340D01*
X17642147Y-32722396D01*
X17671950Y-32730572D01*
X17766503Y-32769737D01*
X17921153Y-32800499D01*
X17921156Y-32800500D01*
X17921158Y-32800500D01*
X18078844Y-32800500D01*
X18186780Y-32779030D01*
X18186780Y-32779029D01*
X18233497Y-32769737D01*
X18379179Y-32709394D01*
X18510289Y-32621789D01*
X18621789Y-32510289D01*
X18709394Y-32379179D01*
X18769737Y-32233497D01*
X18800500Y-32078842D01*
X18800500Y-31921158D01*
X18800500Y-31921155D01*
X18800499Y-31921153D01*
X18782180Y-31829059D01*
X18769737Y-31766503D01*
X18769735Y-31766498D01*
X18709397Y-31620827D01*
X18709390Y-31620814D01*
X18621789Y-31489711D01*
X18621786Y-31489707D01*
X18594260Y-31462181D01*
X18560775Y-31400858D01*
X18565759Y-31331166D01*
X18607631Y-31275233D01*
X18673095Y-31250816D01*
X18681941Y-31250500D01*
X46818059Y-31250500D01*
X46885098Y-31270185D01*
G37*
%TD.AperFunction*%
%TD*%
M02*
