%TF.GenerationSoftware,KiCad,Pcbnew,9.0.1*%
%TF.CreationDate,2025-10-26T21:15:07-04:00*%
%TF.ProjectId,Drone-Flight-Controller,44726f6e-652d-4466-9c69-6768742d436f,rev?*%
%TF.SameCoordinates,Original*%
%TF.FileFunction,Copper,L4,Bot*%
%TF.FilePolarity,Positive*%
%FSLAX46Y46*%
G04 Gerber Fmt 4.6, Leading zero omitted, Abs format (unit mm)*
G04 Created by KiCad (PCBNEW 9.0.1) date 2025-10-26 21:15:07*
%MOMM*%
%LPD*%
G01*
G04 APERTURE LIST*
G04 Aperture macros list*
%AMRoundRect*
0 Rectangle with rounded corners*
0 $1 Rounding radius*
0 $2 $3 $4 $5 $6 $7 $8 $9 X,Y pos of 4 corners*
0 Add a 4 corners polygon primitive as box body*
4,1,4,$2,$3,$4,$5,$6,$7,$8,$9,$2,$3,0*
0 Add four circle primitives for the rounded corners*
1,1,$1+$1,$2,$3*
1,1,$1+$1,$4,$5*
1,1,$1+$1,$6,$7*
1,1,$1+$1,$8,$9*
0 Add four rect primitives between the rounded corners*
20,1,$1+$1,$2,$3,$4,$5,0*
20,1,$1+$1,$4,$5,$6,$7,0*
20,1,$1+$1,$6,$7,$8,$9,0*
20,1,$1+$1,$8,$9,$2,$3,0*%
G04 Aperture macros list end*
%TA.AperFunction,SMDPad,CuDef*%
%ADD10RoundRect,0.135000X0.135000X0.185000X-0.135000X0.185000X-0.135000X-0.185000X0.135000X-0.185000X0*%
%TD*%
%TA.AperFunction,ComponentPad*%
%ADD11RoundRect,0.250000X-0.750000X-0.750000X0.750000X-0.750000X0.750000X0.750000X-0.750000X0.750000X0*%
%TD*%
%TA.AperFunction,ComponentPad*%
%ADD12C,2.000000*%
%TD*%
%TA.AperFunction,ComponentPad*%
%ADD13RoundRect,0.250000X0.750000X-0.750000X0.750000X0.750000X-0.750000X0.750000X-0.750000X-0.750000X0*%
%TD*%
%TA.AperFunction,ComponentPad*%
%ADD14C,1.400000*%
%TD*%
%TA.AperFunction,ComponentPad*%
%ADD15O,1.400000X1.400000*%
%TD*%
%TA.AperFunction,SMDPad,CuDef*%
%ADD16RoundRect,0.140000X0.170000X-0.140000X0.170000X0.140000X-0.170000X0.140000X-0.170000X-0.140000X0*%
%TD*%
%TA.AperFunction,SMDPad,CuDef*%
%ADD17RoundRect,0.225000X-0.225000X-0.250000X0.225000X-0.250000X0.225000X0.250000X-0.225000X0.250000X0*%
%TD*%
%TA.AperFunction,SMDPad,CuDef*%
%ADD18RoundRect,0.140000X0.140000X0.170000X-0.140000X0.170000X-0.140000X-0.170000X0.140000X-0.170000X0*%
%TD*%
%TA.AperFunction,ViaPad*%
%ADD19C,0.600000*%
%TD*%
%TA.AperFunction,Conductor*%
%ADD20C,0.300000*%
%TD*%
%TA.AperFunction,Conductor*%
%ADD21C,0.200000*%
%TD*%
G04 APERTURE END LIST*
D10*
%TO.P,R10,1*%
%TO.N,+3.3V*%
X45500000Y-41000000D03*
%TO.P,R10,2*%
%TO.N,BOOT0*%
X44480000Y-41000000D03*
%TD*%
D11*
%TO.P,J7,1,Pin_1*%
%TO.N,+5V*%
X19960000Y-70000000D03*
D12*
%TO.P,J7,2,Pin_2*%
%TO.N,GND*%
X22500000Y-70000000D03*
%TD*%
D13*
%TO.P,J3,1,Pin_1*%
%TO.N,GND*%
X64500000Y-72080000D03*
D12*
%TO.P,J3,2,Pin_2*%
%TO.N,+5V*%
X64500000Y-69540000D03*
%TO.P,J3,3,Pin_3*%
%TO.N,PWM_0*%
X64500000Y-67000000D03*
%TD*%
D14*
%TO.P,R9,1*%
%TO.N,+3.3V*%
X27810000Y-33000000D03*
D15*
%TO.P,R9,2*%
%TO.N,IMU_SDA*%
X20190000Y-33000000D03*
%TD*%
D13*
%TO.P,J4,1,Pin_1*%
%TO.N,GND*%
X64500000Y-62500000D03*
D12*
%TO.P,J4,2,Pin_2*%
%TO.N,+5V*%
X64500000Y-59960000D03*
%TO.P,J4,3,Pin_3*%
%TO.N,PWM_1*%
X64500000Y-57420000D03*
%TD*%
D14*
%TO.P,R8,1*%
%TO.N,+3.3V*%
X27810000Y-35500000D03*
D15*
%TO.P,R8,2*%
%TO.N,IMU_SCL*%
X20190000Y-35500000D03*
%TD*%
D13*
%TO.P,J5,1,Pin_1*%
%TO.N,GND*%
X64500000Y-53045000D03*
D12*
%TO.P,J5,2,Pin_2*%
%TO.N,+5V*%
X64500000Y-50505000D03*
%TO.P,J5,3,Pin_3*%
%TO.N,PWM_2*%
X64500000Y-47965000D03*
%TD*%
D11*
%TO.P,J1,1,Pin_1*%
%TO.N,+12V*%
X50975000Y-70037500D03*
D12*
%TO.P,J1,2,Pin_2*%
%TO.N,GND*%
X53515000Y-70037500D03*
%TD*%
D13*
%TO.P,J6,1,Pin_1*%
%TO.N,GND*%
X64500000Y-43540000D03*
D12*
%TO.P,J6,2,Pin_2*%
%TO.N,+5V*%
X64500000Y-41000000D03*
%TO.P,J6,3,Pin_3*%
%TO.N,PWM_3*%
X64500000Y-38460000D03*
%TD*%
D11*
%TO.P,J8,1,Pin_1*%
%TO.N,GND*%
X26955000Y-70000000D03*
D12*
%TO.P,J8,2,Pin_2*%
%TO.N,UART_RX*%
X29495000Y-70000000D03*
%TO.P,J8,3,Pin_3*%
%TO.N,UART_TX*%
X32035000Y-70000000D03*
%TD*%
D16*
%TO.P,C5,1*%
%TO.N,GND*%
X35500000Y-43480000D03*
%TO.P,C5,2*%
%TO.N,Net-(U3-VCAP1)*%
X35500000Y-42520000D03*
%TD*%
D17*
%TO.P,C8,1*%
%TO.N,+3.3V*%
X45000000Y-45500000D03*
%TO.P,C8,2*%
%TO.N,GND*%
X46550000Y-45500000D03*
%TD*%
D18*
%TO.P,C14,1*%
%TO.N,+3.3V*%
X43480000Y-45500000D03*
%TO.P,C14,2*%
%TO.N,GND*%
X42520000Y-45500000D03*
%TD*%
D19*
%TO.N,GND*%
X40250000Y-40937500D03*
X62500000Y-49500000D03*
X60000000Y-37500000D03*
X32000000Y-32500000D03*
X18000000Y-32000000D03*
X19000000Y-47000000D03*
X19000000Y-58000000D03*
X30500000Y-64000000D03*
X55000000Y-51500000D03*
X58000000Y-58000000D03*
X48500000Y-56500000D03*
X49000000Y-54500000D03*
X50000000Y-46500000D03*
X57500000Y-45500000D03*
X52500000Y-34500000D03*
X47500000Y-32000000D03*
X56500000Y-58000000D03*
%TO.N,PWM_1*%
X59350000Y-56500000D03*
%TO.N,+3.3V*%
X54500000Y-35000000D03*
%TO.N,+5V*%
X54500000Y-34000000D03*
%TO.N,LED_STATUS*%
X41687238Y-36236500D03*
X54500000Y-33000000D03*
%TO.N,+3.3V*%
X46000000Y-40500000D03*
%TO.N,BOOT0*%
X44582210Y-40982448D03*
%TO.N,GND*%
X35497067Y-43462424D03*
%TO.N,Net-(U3-PC13)*%
X49500000Y-34500000D03*
X42884658Y-36589685D03*
%TO.N,Net-(U3-PB0)*%
X32500000Y-38150000D03*
X37999998Y-40210418D03*
%TO.N,Net-(U3-PB1)*%
X37899899Y-41004133D03*
X32500000Y-40000000D03*
%TO.N,Net-(U3-PB10)*%
X31000000Y-42000000D03*
X37695175Y-42537500D03*
%TO.N,Net-(U3-PB2)*%
X38000001Y-41797848D03*
X34000000Y-45000000D03*
%TO.N,Net-(U3-PA15)*%
X42498968Y-43487500D03*
X44358398Y-44656414D03*
%TO.N,+3.3V*%
X31350000Y-51500000D03*
X31350000Y-53512500D03*
%TO.N,+12V*%
X52000000Y-62500000D03*
X55000000Y-59000000D03*
%TO.N,+3.3V*%
X35559329Y-44260000D03*
X35000000Y-37000000D03*
X44886779Y-37198000D03*
%TO.N,GND*%
X47370607Y-44815403D03*
%TO.N,+3.3V*%
X43500000Y-48500000D03*
%TO.N,SWCLK*%
X47969184Y-41968072D03*
%TO.N,SWDIO*%
X50000000Y-40150000D03*
%TO.N,GND*%
X29500000Y-56000000D03*
%TO.N,BATVOLTAGE_SCL*%
X36750000Y-47750000D03*
X36000000Y-49850000D03*
%TO.N,GND*%
X21000000Y-47500000D03*
%TO.N,BAROMETER_SCK*%
X25000000Y-50000000D03*
X37597521Y-39300999D03*
%TO.N,GND*%
X47500000Y-50637500D03*
%TO.N,+5V*%
X47500000Y-48362500D03*
%TO.N,USB_CONN_D-*%
X41751021Y-63050008D03*
%TO.N,USB_CONN_D+*%
X42352063Y-63651050D03*
%TO.N,USB_CONN_D-*%
X44199479Y-54699479D03*
%TO.N,USB_CONN_D+*%
X44800521Y-55300521D03*
%TO.N,UART_RX*%
X42891886Y-40558147D03*
%TO.N,UART_TX*%
X42848644Y-41393272D03*
%TO.N,GND*%
X51112500Y-58120000D03*
X34500000Y-62000000D03*
X33200000Y-58650000D03*
X20500000Y-40000000D03*
X29500000Y-40500000D03*
X29500000Y-43500000D03*
X24500000Y-38500000D03*
X21500000Y-38500000D03*
%TO.N,IMU_SCL*%
X45002764Y-39809031D03*
%TO.N,IMU_SDA*%
X45000000Y-39000000D03*
%TO.N,SWDIO*%
X42500000Y-46500000D03*
%TO.N,SWO*%
X46000000Y-42837500D03*
X52500000Y-39500000D03*
%TO.N,SWCLK*%
X45495020Y-43664403D03*
%TO.N,GND*%
X46000000Y-36000000D03*
%TO.N,+5V*%
X39900000Y-65225000D03*
%TO.N,GND*%
X43100000Y-65225000D03*
%TO.N,PWM_3*%
X36000000Y-38000000D03*
%TO.N,PWM_2*%
X36500000Y-37000000D03*
%TO.N,PWM_1*%
X37150000Y-36434313D03*
%TO.N,PWM_0*%
X38500000Y-36500000D03*
%TO.N,GND*%
X27000000Y-54025000D03*
X42520000Y-45500000D03*
X24978500Y-48478500D03*
%TO.N,+3.3V*%
X43480000Y-45500000D03*
%TO.N,+5V*%
X42500000Y-59750000D03*
X41750000Y-60500000D03*
X41000000Y-59750000D03*
X40000000Y-60500000D03*
X41750000Y-59000000D03*
X40000000Y-62000000D03*
X40000000Y-63500000D03*
X43000000Y-62000000D03*
X41750000Y-62000000D03*
X42500000Y-61250000D03*
X43000000Y-59000000D03*
X40000000Y-59000000D03*
X41000000Y-61250000D03*
%TO.N,Net-(U3-VCAP1)*%
X35500000Y-42520000D03*
%TO.N,+3.3V*%
X49000000Y-42850000D03*
%TD*%
D20*
%TO.N,PWM_1*%
X59500000Y-56350000D02*
X59350000Y-56500000D01*
X59500000Y-42000000D02*
X59500000Y-56350000D01*
X59500000Y-39917040D02*
X59500000Y-42000000D01*
X57931960Y-38349000D02*
X58291480Y-38708520D01*
X58291480Y-38708520D02*
X59500000Y-39917040D01*
X56000000Y-38349000D02*
X57931960Y-38349000D01*
%TO.N,PWM_0*%
X60000000Y-62500000D02*
X64500000Y-67000000D01*
X58139480Y-37848000D02*
X60000000Y-39708520D01*
X60000000Y-39708520D02*
X60000000Y-62500000D01*
X38500000Y-36500000D02*
X39848000Y-37848000D01*
X39848000Y-37848000D02*
X58139480Y-37848000D01*
%TO.N,PWM_2*%
X62965000Y-47965000D02*
X64500000Y-47965000D01*
X60500000Y-45500000D02*
X62965000Y-47965000D01*
X60500000Y-39500000D02*
X60500000Y-45500000D01*
X57965000Y-36965000D02*
X60500000Y-39500000D01*
X45965000Y-36965000D02*
X57965000Y-36965000D01*
X42270654Y-35500000D02*
X42271654Y-35501000D01*
X42271654Y-35501000D02*
X44501000Y-35501000D01*
X41728346Y-35501000D02*
X41729346Y-35500000D01*
X44501000Y-35501000D02*
X45965000Y-36965000D01*
X36747193Y-35501000D02*
X41728346Y-35501000D01*
X36500000Y-35748193D02*
X36747193Y-35501000D01*
X41729346Y-35500000D02*
X42270654Y-35500000D01*
X36500000Y-37000000D02*
X36500000Y-35748193D01*
%TO.N,PWM_3*%
X46000000Y-35000000D02*
X47464000Y-36464000D01*
X35849000Y-35690673D02*
X36539673Y-35000000D01*
X47464000Y-36464000D02*
X62504000Y-36464000D01*
X35849000Y-37849000D02*
X35849000Y-35690673D01*
X62504000Y-36464000D02*
X64500000Y-38460000D01*
X36000000Y-38000000D02*
X35849000Y-37849000D01*
X36539673Y-35000000D02*
X46000000Y-35000000D01*
%TO.N,PWM_1*%
X39064687Y-38349000D02*
X56000000Y-38349000D01*
D21*
%TO.N,+3.3V*%
X45500000Y-41000000D02*
X46000000Y-40500000D01*
%TO.N,GND*%
X35500000Y-43465357D02*
X35497067Y-43462424D01*
X35500000Y-43480000D02*
X35500000Y-43465357D01*
D20*
%TO.N,BAROMETER_SCK*%
X35347000Y-39653000D02*
X25000000Y-50000000D01*
X36837695Y-39500000D02*
X36684694Y-39653000D01*
X37398520Y-39500000D02*
X36837695Y-39500000D01*
X37597521Y-39300999D02*
X37398520Y-39500000D01*
X36684694Y-39653000D02*
X35347000Y-39653000D01*
%TO.N,IMU_SCL*%
X22190000Y-37500000D02*
X20190000Y-35500000D01*
X33791478Y-37500000D02*
X22190000Y-37500000D01*
X35292477Y-39001000D02*
X33791478Y-37500000D01*
X35371826Y-39001000D02*
X35292477Y-39001000D01*
X35522825Y-39152000D02*
X35371826Y-39001000D01*
X38649645Y-39351000D02*
X37798645Y-38500000D01*
X44430346Y-39351000D02*
X38649645Y-39351000D01*
X36477174Y-39152000D02*
X35522825Y-39152000D01*
X44730346Y-39651000D02*
X44430346Y-39351000D01*
X37798645Y-38500000D02*
X37129174Y-38500000D01*
X44844733Y-39651000D02*
X44730346Y-39651000D01*
X37129174Y-38500000D02*
X36477174Y-39152000D01*
X45002764Y-39809031D02*
X44844733Y-39651000D01*
%TO.N,IMU_SDA*%
X20190000Y-33690000D02*
X20190000Y-33000000D01*
X23499000Y-36999000D02*
X20190000Y-33690000D01*
X33998998Y-36999000D02*
X23499000Y-36999000D01*
X35499998Y-38500000D02*
X33998998Y-36999000D01*
X35579346Y-38500000D02*
X35499998Y-38500000D01*
X35730346Y-38651000D02*
X35579346Y-38500000D01*
X36269654Y-38651000D02*
X35730346Y-38651000D01*
X36920654Y-38000000D02*
X36269654Y-38651000D01*
X38007166Y-38000000D02*
X36920654Y-38000000D01*
X45000000Y-39000000D02*
X44850000Y-38850000D01*
X44850000Y-38850000D02*
X38857166Y-38850000D01*
X38857166Y-38850000D02*
X38007166Y-38000000D01*
D21*
%TO.N,Net-(U3-PB2)*%
X34500000Y-44500000D02*
X34000000Y-45000000D01*
X34500000Y-42500000D02*
X34500000Y-44500000D01*
X37310665Y-41687500D02*
X37079165Y-41919000D01*
X37955567Y-41687500D02*
X37310665Y-41687500D01*
X38000001Y-41731934D02*
X37955567Y-41687500D01*
X35081000Y-41919000D02*
X34500000Y-42500000D01*
X38000001Y-41797848D02*
X38000001Y-41731934D01*
X37079165Y-41919000D02*
X35081000Y-41919000D01*
D20*
%TO.N,BATVOLTAGE_SCL*%
X36750000Y-47750000D02*
X36000000Y-48500000D01*
X36000000Y-48500000D02*
X36000000Y-49850000D01*
%TO.N,Net-(U3-PA15)*%
X42498968Y-43487500D02*
X43189484Y-43487500D01*
X43189484Y-43487500D02*
X44358398Y-44656414D01*
%TO.N,+3.3V*%
X31350000Y-51500000D02*
X31350000Y-53512500D01*
%TO.N,+12V*%
X55000000Y-59500000D02*
X52000000Y-62500000D01*
X55000000Y-59000000D02*
X55000000Y-59500000D01*
%TO.N,GND*%
X46686010Y-45500000D02*
X47370607Y-44815403D01*
X46550000Y-45500000D02*
X46686010Y-45500000D01*
%TO.N,SWDIO*%
X50000000Y-40150000D02*
X50000000Y-43345822D01*
X50000000Y-43345822D02*
X46845822Y-46500000D01*
X46845822Y-46500000D02*
X42500000Y-46500000D01*
D21*
%TO.N,USB_CONN_D-*%
X43775000Y-61308872D02*
X43775000Y-55406801D01*
X43601000Y-62248943D02*
X43601000Y-61482872D01*
X43248943Y-62601000D02*
X43601000Y-62248943D01*
X42482872Y-62601000D02*
X43248943Y-62601000D01*
X42033864Y-63050008D02*
X42482872Y-62601000D01*
%TO.N,USB_CONN_D+*%
X44225000Y-61495270D02*
X44225000Y-55593199D01*
X44050980Y-62435331D02*
X44050980Y-61669290D01*
%TO.N,USB_CONN_D-*%
X43601000Y-61482872D02*
X43775000Y-61308872D01*
%TO.N,USB_CONN_D+*%
X43435331Y-63050980D02*
X44050980Y-62435331D01*
X42669290Y-63050980D02*
X43435331Y-63050980D01*
%TO.N,USB_CONN_D-*%
X41751021Y-63050008D02*
X42033864Y-63050008D01*
%TO.N,USB_CONN_D+*%
X42352063Y-63368207D02*
X42669290Y-63050980D01*
X44050980Y-61669290D02*
X44225000Y-61495270D01*
X42352063Y-63651050D02*
X42352063Y-63368207D01*
D20*
%TO.N,UART_RX*%
X32000000Y-67212500D02*
X29495000Y-69717500D01*
X38292479Y-42999000D02*
X32000000Y-49291480D01*
X40792480Y-42999000D02*
X38292479Y-42999000D01*
X42197644Y-41593836D02*
X40792480Y-42999000D01*
X42197644Y-41123618D02*
X42197644Y-41593836D01*
X42578990Y-40742272D02*
X42197644Y-41123618D01*
X42891886Y-40742272D02*
X42578990Y-40742272D01*
X32000000Y-49291480D02*
X32000000Y-67212500D01*
X42891886Y-40558147D02*
X42891886Y-40742272D01*
%TO.N,UART_TX*%
X38500000Y-43500000D02*
X41000000Y-43500000D01*
X42848644Y-41651356D02*
X42848644Y-41393272D01*
X32500000Y-49500000D02*
X38500000Y-43500000D01*
X41000000Y-43500000D02*
X42848644Y-41651356D01*
X32035000Y-69717500D02*
X32500000Y-69252500D01*
X32500000Y-69252500D02*
X32500000Y-49500000D01*
%TO.N,PWM_1*%
X37150000Y-36434313D02*
X39064687Y-38349000D01*
%TO.N,SWO*%
X46000000Y-42618920D02*
X49118920Y-39500000D01*
X49118920Y-39500000D02*
X52500000Y-39500000D01*
X46000000Y-42837500D02*
X46000000Y-42618920D01*
%TO.N,SWCLK*%
X48063700Y-41936300D02*
X46335597Y-43664403D01*
X46335597Y-43664403D02*
X45495020Y-43664403D01*
%TO.N,+3.3V*%
X43480000Y-45500000D02*
X45000000Y-45500000D01*
D21*
%TO.N,USB_CONN_D-*%
X44199479Y-54982322D02*
X43775000Y-55406801D01*
X44199479Y-54699479D02*
X44199479Y-54982322D01*
%TO.N,USB_CONN_D+*%
X44517678Y-55300521D02*
X44225000Y-55593199D01*
X44800521Y-55300521D02*
X44517678Y-55300521D01*
D20*
%TO.N,+3.3V*%
X49000000Y-42850000D02*
X47684597Y-44165403D01*
X47684597Y-44165403D02*
X46334597Y-44165403D01*
X46334597Y-44165403D02*
X45000000Y-45500000D01*
%TD*%
%TA.AperFunction,Conductor*%
%TO.N,GND*%
G36*
X47377650Y-44835588D02*
G01*
X47423405Y-44888392D01*
X47433349Y-44957550D01*
X47404324Y-45021106D01*
X47398292Y-45027584D01*
X46612695Y-45813181D01*
X46551372Y-45846666D01*
X46525014Y-45849500D01*
X46074500Y-45849500D01*
X46065814Y-45846949D01*
X46056854Y-45848238D01*
X46032815Y-45837259D01*
X46007461Y-45829815D01*
X46001533Y-45822973D01*
X45993298Y-45819213D01*
X45979010Y-45796980D01*
X45961706Y-45777011D01*
X45959418Y-45766496D01*
X45955523Y-45760435D01*
X45950500Y-45725501D01*
X45950499Y-45520808D01*
X45970183Y-45453768D01*
X45986813Y-45433131D01*
X46567723Y-44852222D01*
X46629046Y-44818737D01*
X46655404Y-44815903D01*
X47310611Y-44815903D01*
X47377650Y-44835588D01*
G37*
%TD.AperFunction*%
%TA.AperFunction,Conductor*%
G36*
X36840686Y-42539185D02*
G01*
X36886441Y-42591989D01*
X36895264Y-42619308D01*
X36925436Y-42770991D01*
X36925439Y-42771001D01*
X36985777Y-42916672D01*
X36985784Y-42916685D01*
X37073385Y-43047788D01*
X37073388Y-43047792D01*
X37110882Y-43085285D01*
X37144368Y-43146607D01*
X37139384Y-43216299D01*
X37110883Y-43260648D01*
X36464272Y-43907259D01*
X36402949Y-43940744D01*
X36333257Y-43935760D01*
X36277324Y-43893888D01*
X36272194Y-43885828D01*
X36272108Y-43885886D01*
X36181118Y-43749711D01*
X36181115Y-43749707D01*
X36069621Y-43638213D01*
X36069617Y-43638210D01*
X35938514Y-43550609D01*
X35938501Y-43550602D01*
X35836727Y-43508447D01*
X35782323Y-43464607D01*
X35760258Y-43398313D01*
X35777537Y-43330613D01*
X35828674Y-43283002D01*
X35849574Y-43274812D01*
X35926395Y-43252494D01*
X36065687Y-43170117D01*
X36180117Y-43055687D01*
X36262494Y-42916395D01*
X36307643Y-42760993D01*
X36310500Y-42724690D01*
X36310500Y-42643500D01*
X36330185Y-42576461D01*
X36382989Y-42530706D01*
X36434500Y-42519500D01*
X36773647Y-42519500D01*
X36840686Y-42539185D01*
G37*
%TD.AperFunction*%
%TA.AperFunction,Conductor*%
G36*
X42101997Y-40010757D02*
G01*
X42133828Y-40018909D01*
X42135356Y-40020553D01*
X42137508Y-40021185D01*
X42159014Y-40046004D01*
X42181397Y-40070084D01*
X42181793Y-40072293D01*
X42183263Y-40073989D01*
X42187938Y-40106508D01*
X42193748Y-40138853D01*
X42193006Y-40141749D01*
X42193207Y-40143147D01*
X42190645Y-40150966D01*
X42184992Y-40173044D01*
X42182599Y-40178807D01*
X42182492Y-40178968D01*
X42164264Y-40222971D01*
X42163709Y-40224310D01*
X42136867Y-40264447D01*
X41692368Y-40708946D01*
X41647898Y-40775502D01*
X41621179Y-40815490D01*
X41572143Y-40933873D01*
X41572141Y-40933879D01*
X41547144Y-41059546D01*
X41547144Y-41273028D01*
X41527459Y-41340067D01*
X41510825Y-41360709D01*
X40559353Y-42312181D01*
X40498030Y-42345666D01*
X40471672Y-42348500D01*
X38823948Y-42348500D01*
X38756909Y-42328815D01*
X38711154Y-42276011D01*
X38701210Y-42206853D01*
X38709387Y-42177048D01*
X38755373Y-42066026D01*
X38769738Y-42031345D01*
X38800501Y-41876690D01*
X38800501Y-41719006D01*
X38800501Y-41719003D01*
X38800500Y-41719001D01*
X38794956Y-41691130D01*
X38769738Y-41564351D01*
X38741106Y-41495227D01*
X38709398Y-41418675D01*
X38709394Y-41418668D01*
X38682363Y-41378213D01*
X38675381Y-41367764D01*
X38654504Y-41301088D01*
X38663924Y-41251419D01*
X38669636Y-41237630D01*
X38700399Y-41082975D01*
X38700399Y-40925291D01*
X38700399Y-40925288D01*
X38700398Y-40925286D01*
X38693220Y-40889200D01*
X38669636Y-40770636D01*
X38663920Y-40756838D01*
X38656453Y-40687370D01*
X38675382Y-40640496D01*
X38675746Y-40639951D01*
X38709392Y-40589597D01*
X38769735Y-40443915D01*
X38800498Y-40289260D01*
X38800498Y-40131576D01*
X38800498Y-40125500D01*
X38820183Y-40058461D01*
X38872987Y-40012706D01*
X38924498Y-40001500D01*
X42070469Y-40001500D01*
X42101997Y-40010757D01*
G37*
%TD.AperFunction*%
%TA.AperFunction,Conductor*%
G36*
X67942539Y-31270185D02*
G01*
X67988294Y-31322989D01*
X67999500Y-31374500D01*
X67999500Y-73375500D01*
X67979815Y-73442539D01*
X67927011Y-73488294D01*
X67875500Y-73499500D01*
X17624500Y-73499500D01*
X17557461Y-73479815D01*
X17511706Y-73427011D01*
X17500500Y-73375500D01*
X17500500Y-69199983D01*
X18459500Y-69199983D01*
X18459500Y-70800001D01*
X18459501Y-70800018D01*
X18470000Y-70902796D01*
X18470001Y-70902799D01*
X18494759Y-70977512D01*
X18525186Y-71069334D01*
X18617288Y-71218656D01*
X18741344Y-71342712D01*
X18890666Y-71434814D01*
X19057203Y-71489999D01*
X19159991Y-71500500D01*
X20760008Y-71500499D01*
X20862797Y-71489999D01*
X21029334Y-71434814D01*
X21178656Y-71342712D01*
X21302712Y-71218656D01*
X21394814Y-71069334D01*
X21449999Y-70902797D01*
X21460500Y-70800009D01*
X21460499Y-69199992D01*
X21459338Y-69188631D01*
X21449999Y-69097203D01*
X21449998Y-69097200D01*
X21394814Y-68930666D01*
X21302712Y-68781344D01*
X21178656Y-68657288D01*
X21029334Y-68565186D01*
X20862797Y-68510001D01*
X20862795Y-68510000D01*
X20760010Y-68499500D01*
X19159998Y-68499500D01*
X19159981Y-68499501D01*
X19057203Y-68510000D01*
X19057200Y-68510001D01*
X18890668Y-68565185D01*
X18890663Y-68565187D01*
X18741342Y-68657289D01*
X18617289Y-68781342D01*
X18525187Y-68930663D01*
X18525185Y-68930668D01*
X18512761Y-68968163D01*
X18470001Y-69097203D01*
X18470001Y-69097204D01*
X18470000Y-69097204D01*
X18459500Y-69199983D01*
X17500500Y-69199983D01*
X17500500Y-62381902D01*
X23499500Y-62381902D01*
X23499500Y-62618097D01*
X23536446Y-62851368D01*
X23609433Y-63075996D01*
X23677405Y-63209397D01*
X23716657Y-63286433D01*
X23855483Y-63477510D01*
X24022490Y-63644517D01*
X24213567Y-63783343D01*
X24285010Y-63819745D01*
X24424003Y-63890566D01*
X24424005Y-63890566D01*
X24424008Y-63890568D01*
X24544412Y-63929689D01*
X24648631Y-63963553D01*
X24881903Y-64000500D01*
X24881908Y-64000500D01*
X25118097Y-64000500D01*
X25351368Y-63963553D01*
X25575992Y-63890568D01*
X25786433Y-63783343D01*
X25977510Y-63644517D01*
X26144517Y-63477510D01*
X26283343Y-63286433D01*
X26390568Y-63075992D01*
X26463553Y-62851368D01*
X26473177Y-62790606D01*
X26500500Y-62618097D01*
X26500500Y-62381902D01*
X26463553Y-62148631D01*
X26390566Y-61924003D01*
X26310315Y-61766503D01*
X26283343Y-61713567D01*
X26144517Y-61522490D01*
X25977510Y-61355483D01*
X25786433Y-61216657D01*
X25754745Y-61200511D01*
X25575996Y-61109433D01*
X25351368Y-61036446D01*
X25118097Y-60999500D01*
X25118092Y-60999500D01*
X24881908Y-60999500D01*
X24881903Y-60999500D01*
X24648631Y-61036446D01*
X24424003Y-61109433D01*
X24213566Y-61216657D01*
X24111785Y-61290606D01*
X24022490Y-61355483D01*
X24022488Y-61355485D01*
X24022487Y-61355485D01*
X23855485Y-61522487D01*
X23855485Y-61522488D01*
X23855483Y-61522490D01*
X23806265Y-61590233D01*
X23716657Y-61713566D01*
X23609433Y-61924003D01*
X23536446Y-62148631D01*
X23499500Y-62381902D01*
X17500500Y-62381902D01*
X17500500Y-39921153D01*
X31699500Y-39921153D01*
X31699500Y-40078846D01*
X31730261Y-40233489D01*
X31730264Y-40233501D01*
X31790602Y-40379172D01*
X31790609Y-40379185D01*
X31878210Y-40510288D01*
X31878213Y-40510292D01*
X31989707Y-40621786D01*
X31989711Y-40621789D01*
X32120814Y-40709390D01*
X32120827Y-40709397D01*
X32235364Y-40756839D01*
X32266503Y-40769737D01*
X32421153Y-40800499D01*
X32421156Y-40800500D01*
X32421158Y-40800500D01*
X32578844Y-40800500D01*
X32578845Y-40800499D01*
X32733497Y-40769737D01*
X32879179Y-40709394D01*
X33010289Y-40621789D01*
X33121789Y-40510289D01*
X33209394Y-40379179D01*
X33269737Y-40233497D01*
X33300500Y-40078842D01*
X33300500Y-39921158D01*
X33300500Y-39921155D01*
X33300499Y-39921153D01*
X33287437Y-39855485D01*
X33269737Y-39766503D01*
X33269735Y-39766498D01*
X33209397Y-39620827D01*
X33209390Y-39620814D01*
X33121789Y-39489711D01*
X33121786Y-39489707D01*
X33010292Y-39378213D01*
X33010288Y-39378210D01*
X32879185Y-39290609D01*
X32879172Y-39290602D01*
X32733501Y-39230264D01*
X32733489Y-39230261D01*
X32578845Y-39199500D01*
X32578842Y-39199500D01*
X32421158Y-39199500D01*
X32421155Y-39199500D01*
X32266510Y-39230261D01*
X32266498Y-39230264D01*
X32120827Y-39290602D01*
X32120814Y-39290609D01*
X31989711Y-39378210D01*
X31989707Y-39378213D01*
X31878213Y-39489707D01*
X31878210Y-39489711D01*
X31790609Y-39620814D01*
X31790602Y-39620827D01*
X31730264Y-39766498D01*
X31730261Y-39766510D01*
X31699500Y-39921153D01*
X17500500Y-39921153D01*
X17500500Y-32905513D01*
X18989500Y-32905513D01*
X18989500Y-33094486D01*
X19019059Y-33281118D01*
X19077454Y-33460836D01*
X19132512Y-33568892D01*
X19163240Y-33629199D01*
X19274310Y-33782073D01*
X19407927Y-33915690D01*
X19509802Y-33989707D01*
X19560802Y-34026761D01*
X19601773Y-34047636D01*
X19640932Y-34067588D01*
X19673176Y-34091258D01*
X19681294Y-34099538D01*
X19684723Y-34104669D01*
X19766930Y-34186876D01*
X19767333Y-34187287D01*
X19783490Y-34217581D01*
X19799959Y-34247742D01*
X19799913Y-34248375D01*
X19800213Y-34248937D01*
X19797422Y-34283207D01*
X19794975Y-34317434D01*
X19794594Y-34317942D01*
X19794543Y-34318576D01*
X19773676Y-34345886D01*
X19753104Y-34373368D01*
X19752350Y-34373797D01*
X19752123Y-34374095D01*
X19751315Y-34374387D01*
X19733229Y-34384692D01*
X19733509Y-34385241D01*
X19560800Y-34473240D01*
X19520188Y-34502747D01*
X19407927Y-34584310D01*
X19407925Y-34584312D01*
X19407924Y-34584312D01*
X19274312Y-34717924D01*
X19274312Y-34717925D01*
X19274310Y-34717927D01*
X19262998Y-34733497D01*
X19163240Y-34870800D01*
X19077454Y-35039163D01*
X19019059Y-35218881D01*
X18989500Y-35405513D01*
X18989500Y-35594486D01*
X19019059Y-35781118D01*
X19077454Y-35960836D01*
X19135879Y-36075500D01*
X19163240Y-36129199D01*
X19274310Y-36282073D01*
X19407927Y-36415690D01*
X19560801Y-36526760D01*
X19595139Y-36544256D01*
X19729163Y-36612545D01*
X19729165Y-36612545D01*
X19729168Y-36612547D01*
X19825497Y-36643846D01*
X19908881Y-36670940D01*
X20095514Y-36700500D01*
X20095519Y-36700500D01*
X20284479Y-36700500D01*
X20284481Y-36700500D01*
X20382711Y-36684941D01*
X20452001Y-36693895D01*
X20489788Y-36719733D01*
X21684724Y-37914669D01*
X21733592Y-37963537D01*
X21775332Y-38005277D01*
X21881866Y-38076461D01*
X21881872Y-38076464D01*
X21881873Y-38076465D01*
X22000256Y-38125501D01*
X22000260Y-38125501D01*
X22000261Y-38125502D01*
X22125928Y-38150500D01*
X22125931Y-38150500D01*
X31582152Y-38150500D01*
X31649191Y-38170185D01*
X31694946Y-38222989D01*
X31703769Y-38250308D01*
X31730261Y-38383491D01*
X31730264Y-38383501D01*
X31790602Y-38529172D01*
X31790609Y-38529185D01*
X31878210Y-38660288D01*
X31878213Y-38660292D01*
X31989707Y-38771786D01*
X31989711Y-38771789D01*
X32120814Y-38859390D01*
X32120827Y-38859397D01*
X32266498Y-38919735D01*
X32266503Y-38919737D01*
X32421153Y-38950499D01*
X32421156Y-38950500D01*
X32421158Y-38950500D01*
X32578844Y-38950500D01*
X32578845Y-38950499D01*
X32733497Y-38919737D01*
X32879179Y-38859394D01*
X33010289Y-38771789D01*
X33121789Y-38660289D01*
X33209394Y-38529179D01*
X33269737Y-38383497D01*
X33278011Y-38341902D01*
X33296231Y-38250308D01*
X33310945Y-38222177D01*
X33324135Y-38193297D01*
X33327024Y-38191440D01*
X33328616Y-38188397D01*
X33356208Y-38172684D01*
X33382913Y-38155523D01*
X33387506Y-38154862D01*
X33389332Y-38153823D01*
X33417848Y-38150500D01*
X33470670Y-38150500D01*
X33537709Y-38170185D01*
X33558350Y-38186818D01*
X34638112Y-39266581D01*
X34671596Y-39327902D01*
X34666612Y-39397594D01*
X34638111Y-39441941D01*
X32012181Y-42067872D01*
X31950858Y-42101357D01*
X31881166Y-42096373D01*
X31825233Y-42054501D01*
X31800816Y-41989037D01*
X31800500Y-41980191D01*
X31800500Y-41921155D01*
X31800499Y-41921153D01*
X31794896Y-41892987D01*
X31769737Y-41766503D01*
X31751174Y-41721688D01*
X31709397Y-41620827D01*
X31709390Y-41620814D01*
X31621789Y-41489711D01*
X31621786Y-41489707D01*
X31510292Y-41378213D01*
X31510288Y-41378210D01*
X31379185Y-41290609D01*
X31379172Y-41290602D01*
X31233501Y-41230264D01*
X31233489Y-41230261D01*
X31078845Y-41199500D01*
X31078842Y-41199500D01*
X30921158Y-41199500D01*
X30921155Y-41199500D01*
X30766510Y-41230261D01*
X30766498Y-41230264D01*
X30620827Y-41290602D01*
X30620814Y-41290609D01*
X30489711Y-41378210D01*
X30489707Y-41378213D01*
X30378213Y-41489707D01*
X30378210Y-41489711D01*
X30290609Y-41620814D01*
X30290602Y-41620827D01*
X30230264Y-41766498D01*
X30230261Y-41766510D01*
X30199500Y-41921153D01*
X30199500Y-42078846D01*
X30230261Y-42233489D01*
X30230264Y-42233501D01*
X30290602Y-42379172D01*
X30290609Y-42379185D01*
X30378210Y-42510288D01*
X30378213Y-42510292D01*
X30489707Y-42621786D01*
X30489711Y-42621789D01*
X30620814Y-42709390D01*
X30620827Y-42709397D01*
X30766129Y-42769582D01*
X30766503Y-42769737D01*
X30921153Y-42800499D01*
X30921156Y-42800500D01*
X30980191Y-42800500D01*
X31047230Y-42820185D01*
X31092985Y-42872989D01*
X31102929Y-42942147D01*
X31073904Y-43005703D01*
X31067872Y-43012181D01*
X24897068Y-49182984D01*
X24835745Y-49216469D01*
X24833579Y-49216920D01*
X24766508Y-49230261D01*
X24766498Y-49230264D01*
X24620827Y-49290602D01*
X24620814Y-49290609D01*
X24489711Y-49378210D01*
X24489707Y-49378213D01*
X24378213Y-49489707D01*
X24378210Y-49489711D01*
X24290609Y-49620814D01*
X24290602Y-49620827D01*
X24230264Y-49766498D01*
X24230261Y-49766510D01*
X24199500Y-49921153D01*
X24199500Y-50078846D01*
X24230261Y-50233489D01*
X24230264Y-50233501D01*
X24290602Y-50379172D01*
X24290609Y-50379185D01*
X24378210Y-50510288D01*
X24378213Y-50510292D01*
X24489707Y-50621786D01*
X24489711Y-50621789D01*
X24620814Y-50709390D01*
X24620827Y-50709397D01*
X24766498Y-50769735D01*
X24766503Y-50769737D01*
X24921153Y-50800499D01*
X24921156Y-50800500D01*
X24921158Y-50800500D01*
X25078844Y-50800500D01*
X25078845Y-50800499D01*
X25233497Y-50769737D01*
X25379179Y-50709394D01*
X25510289Y-50621789D01*
X25621789Y-50510289D01*
X25709394Y-50379179D01*
X25769737Y-50233497D01*
X25783079Y-50166416D01*
X25815463Y-50104509D01*
X25816959Y-50102985D01*
X33718862Y-42201083D01*
X33780184Y-42167599D01*
X33849876Y-42172583D01*
X33905809Y-42214455D01*
X33930226Y-42279919D01*
X33926317Y-42320858D01*
X33899499Y-42420943D01*
X33899499Y-42589046D01*
X33899500Y-42589059D01*
X33899500Y-44102044D01*
X33879815Y-44169083D01*
X33827011Y-44214838D01*
X33799691Y-44223661D01*
X33766510Y-44230261D01*
X33766498Y-44230264D01*
X33620827Y-44290602D01*
X33620814Y-44290609D01*
X33489711Y-44378210D01*
X33489707Y-44378213D01*
X33378213Y-44489707D01*
X33378210Y-44489711D01*
X33290609Y-44620814D01*
X33290602Y-44620827D01*
X33230264Y-44766498D01*
X33230261Y-44766510D01*
X33199500Y-44921153D01*
X33199500Y-45078846D01*
X33230261Y-45233489D01*
X33230264Y-45233501D01*
X33290602Y-45379172D01*
X33290609Y-45379185D01*
X33378210Y-45510288D01*
X33378213Y-45510292D01*
X33489707Y-45621786D01*
X33489711Y-45621789D01*
X33620814Y-45709390D01*
X33620827Y-45709397D01*
X33758678Y-45766496D01*
X33766503Y-45769737D01*
X33903462Y-45796980D01*
X33921153Y-45800499D01*
X33921156Y-45800500D01*
X33921158Y-45800500D01*
X34078844Y-45800500D01*
X34078845Y-45800499D01*
X34233497Y-45769737D01*
X34286287Y-45747870D01*
X34355752Y-45740402D01*
X34418232Y-45771676D01*
X34453885Y-45831765D01*
X34451392Y-45901590D01*
X34421418Y-45950113D01*
X31494725Y-48876808D01*
X31494724Y-48876809D01*
X31473820Y-48908095D01*
X31453194Y-48938965D01*
X31438364Y-48961159D01*
X31423535Y-48983352D01*
X31423533Y-48983355D01*
X31374499Y-49101735D01*
X31374497Y-49101741D01*
X31349500Y-49227408D01*
X31349500Y-50582152D01*
X31329815Y-50649191D01*
X31277011Y-50694946D01*
X31249692Y-50703769D01*
X31116508Y-50730261D01*
X31116498Y-50730264D01*
X30970827Y-50790602D01*
X30970814Y-50790609D01*
X30839711Y-50878210D01*
X30839707Y-50878213D01*
X30728213Y-50989707D01*
X30728210Y-50989711D01*
X30640609Y-51120814D01*
X30640602Y-51120827D01*
X30580264Y-51266498D01*
X30580261Y-51266510D01*
X30549500Y-51421153D01*
X30549500Y-51578846D01*
X30580261Y-51733489D01*
X30580264Y-51733501D01*
X30640602Y-51879172D01*
X30640606Y-51879179D01*
X30678602Y-51936044D01*
X30699480Y-52002721D01*
X30699500Y-52004935D01*
X30699500Y-53007564D01*
X30679815Y-53074603D01*
X30678603Y-53076454D01*
X30640608Y-53133317D01*
X30640602Y-53133328D01*
X30580264Y-53278998D01*
X30580261Y-53279010D01*
X30549500Y-53433653D01*
X30549500Y-53591346D01*
X30580261Y-53745989D01*
X30580264Y-53746001D01*
X30640602Y-53891672D01*
X30640609Y-53891685D01*
X30728210Y-54022788D01*
X30728213Y-54022792D01*
X30839707Y-54134286D01*
X30839711Y-54134289D01*
X30970814Y-54221890D01*
X30970827Y-54221897D01*
X31116498Y-54282235D01*
X31116503Y-54282237D01*
X31226987Y-54304213D01*
X31249691Y-54308730D01*
X31311602Y-54341115D01*
X31346176Y-54401830D01*
X31349500Y-54430347D01*
X31349500Y-66891691D01*
X31329815Y-66958730D01*
X31313181Y-66979372D01*
X29813123Y-68479429D01*
X29751800Y-68512914D01*
X29706045Y-68514221D01*
X29613098Y-68499500D01*
X29613092Y-68499500D01*
X29376908Y-68499500D01*
X29376903Y-68499500D01*
X29143631Y-68536446D01*
X28919003Y-68609433D01*
X28708566Y-68716657D01*
X28619536Y-68781342D01*
X28517490Y-68855483D01*
X28517488Y-68855485D01*
X28517487Y-68855485D01*
X28350485Y-69022487D01*
X28350485Y-69022488D01*
X28350483Y-69022490D01*
X28296203Y-69097200D01*
X28211657Y-69213566D01*
X28104433Y-69424003D01*
X28031446Y-69648631D01*
X27994500Y-69881902D01*
X27994500Y-70118097D01*
X28031446Y-70351368D01*
X28104433Y-70575996D01*
X28159728Y-70684517D01*
X28211657Y-70786433D01*
X28350483Y-70977510D01*
X28517490Y-71144517D01*
X28708567Y-71283343D01*
X28807991Y-71334002D01*
X28919003Y-71390566D01*
X28919005Y-71390566D01*
X28919008Y-71390568D01*
X29039412Y-71429689D01*
X29143631Y-71463553D01*
X29376903Y-71500500D01*
X29376908Y-71500500D01*
X29613097Y-71500500D01*
X29846368Y-71463553D01*
X30070992Y-71390568D01*
X30281433Y-71283343D01*
X30472510Y-71144517D01*
X30639517Y-70977510D01*
X30664682Y-70942872D01*
X30720011Y-70900207D01*
X30789625Y-70894228D01*
X30851420Y-70926833D01*
X30865315Y-70942870D01*
X30890483Y-70977510D01*
X31057490Y-71144517D01*
X31248567Y-71283343D01*
X31347991Y-71334002D01*
X31459003Y-71390566D01*
X31459005Y-71390566D01*
X31459008Y-71390568D01*
X31579412Y-71429689D01*
X31683631Y-71463553D01*
X31916903Y-71500500D01*
X31916908Y-71500500D01*
X32153097Y-71500500D01*
X32386368Y-71463553D01*
X32610992Y-71390568D01*
X32821433Y-71283343D01*
X33012510Y-71144517D01*
X33179517Y-70977510D01*
X33318343Y-70786433D01*
X33425568Y-70575992D01*
X33498553Y-70351368D01*
X33502502Y-70326433D01*
X33535500Y-70118097D01*
X33535500Y-69881902D01*
X33498553Y-69648631D01*
X33425566Y-69424003D01*
X33357608Y-69290629D01*
X33330533Y-69237491D01*
X33330529Y-69237483D01*
X49474500Y-69237483D01*
X49474500Y-70837501D01*
X49474501Y-70837518D01*
X49485000Y-70940296D01*
X49485001Y-70940299D01*
X49505962Y-71003553D01*
X49540186Y-71106834D01*
X49632288Y-71256156D01*
X49756344Y-71380212D01*
X49905666Y-71472314D01*
X50072203Y-71527499D01*
X50174991Y-71538000D01*
X51775008Y-71537999D01*
X51877797Y-71527499D01*
X52044334Y-71472314D01*
X52193656Y-71380212D01*
X52317712Y-71256156D01*
X52409814Y-71106834D01*
X52464999Y-70940297D01*
X52475500Y-70837509D01*
X52475499Y-69237492D01*
X52464999Y-69134703D01*
X52409814Y-68968166D01*
X52317712Y-68818844D01*
X52193656Y-68694788D01*
X52044334Y-68602686D01*
X51877797Y-68547501D01*
X51877795Y-68547500D01*
X51775010Y-68537000D01*
X50174998Y-68537000D01*
X50174981Y-68537001D01*
X50072203Y-68547500D01*
X50072200Y-68547501D01*
X49905668Y-68602685D01*
X49905663Y-68602687D01*
X49756342Y-68694789D01*
X49632289Y-68818842D01*
X49540187Y-68968163D01*
X49540186Y-68968166D01*
X49485001Y-69134703D01*
X49485001Y-69134704D01*
X49485000Y-69134704D01*
X49474500Y-69237483D01*
X33330529Y-69237483D01*
X33318343Y-69213567D01*
X33179517Y-69022490D01*
X33179514Y-69022487D01*
X33176653Y-69018549D01*
X33177726Y-69017769D01*
X33151637Y-68959522D01*
X33150500Y-68942769D01*
X33150500Y-67998920D01*
X38549499Y-67998920D01*
X38578340Y-68143907D01*
X38578343Y-68143917D01*
X38634912Y-68280488D01*
X38634919Y-68280501D01*
X38717048Y-68403415D01*
X38717051Y-68403419D01*
X38821580Y-68507948D01*
X38821584Y-68507951D01*
X38944498Y-68590080D01*
X38944511Y-68590087D01*
X39081082Y-68646656D01*
X39081087Y-68646658D01*
X39081091Y-68646658D01*
X39081092Y-68646659D01*
X39226079Y-68675500D01*
X39226082Y-68675500D01*
X39373920Y-68675500D01*
X39471462Y-68656096D01*
X39518913Y-68646658D01*
X39655495Y-68590084D01*
X39778416Y-68507951D01*
X39882951Y-68403416D01*
X39965084Y-68280495D01*
X40021658Y-68143913D01*
X40050500Y-67998920D01*
X42949499Y-67998920D01*
X42978340Y-68143907D01*
X42978343Y-68143917D01*
X43034912Y-68280488D01*
X43034919Y-68280501D01*
X43117048Y-68403415D01*
X43117051Y-68403419D01*
X43221580Y-68507948D01*
X43221584Y-68507951D01*
X43344498Y-68590080D01*
X43344511Y-68590087D01*
X43481082Y-68646656D01*
X43481087Y-68646658D01*
X43481091Y-68646658D01*
X43481092Y-68646659D01*
X43626079Y-68675500D01*
X43626082Y-68675500D01*
X43773920Y-68675500D01*
X43871462Y-68656096D01*
X43918913Y-68646658D01*
X44055495Y-68590084D01*
X44178416Y-68507951D01*
X44282951Y-68403416D01*
X44365084Y-68280495D01*
X44421658Y-68143913D01*
X44450500Y-67998918D01*
X44450500Y-67851082D01*
X44450500Y-67851079D01*
X44421659Y-67706092D01*
X44421658Y-67706091D01*
X44421658Y-67706087D01*
X44367771Y-67575992D01*
X44365087Y-67569511D01*
X44365080Y-67569498D01*
X44282951Y-67446584D01*
X44282948Y-67446580D01*
X44178419Y-67342051D01*
X44178415Y-67342048D01*
X44055501Y-67259919D01*
X44055488Y-67259912D01*
X43918917Y-67203343D01*
X43918907Y-67203340D01*
X43773920Y-67174500D01*
X43773918Y-67174500D01*
X43626082Y-67174500D01*
X43626080Y-67174500D01*
X43481092Y-67203340D01*
X43481082Y-67203343D01*
X43344511Y-67259912D01*
X43344498Y-67259919D01*
X43221584Y-67342048D01*
X43221580Y-67342051D01*
X43117051Y-67446580D01*
X43117048Y-67446584D01*
X43034919Y-67569498D01*
X43034912Y-67569511D01*
X42978343Y-67706082D01*
X42978340Y-67706092D01*
X42949500Y-67851079D01*
X42949500Y-67851082D01*
X42949500Y-67998918D01*
X42949500Y-67998920D01*
X42949499Y-67998920D01*
X40050500Y-67998920D01*
X40050500Y-67998918D01*
X40050500Y-67851082D01*
X40050500Y-67851079D01*
X40021659Y-67706092D01*
X40021658Y-67706091D01*
X40021658Y-67706087D01*
X39967771Y-67575992D01*
X39965087Y-67569511D01*
X39965080Y-67569498D01*
X39882951Y-67446584D01*
X39882948Y-67446580D01*
X39778419Y-67342051D01*
X39778415Y-67342048D01*
X39655501Y-67259919D01*
X39655488Y-67259912D01*
X39518917Y-67203343D01*
X39518907Y-67203340D01*
X39373920Y-67174500D01*
X39373918Y-67174500D01*
X39226082Y-67174500D01*
X39226080Y-67174500D01*
X39081092Y-67203340D01*
X39081082Y-67203343D01*
X38944511Y-67259912D01*
X38944498Y-67259919D01*
X38821584Y-67342048D01*
X38821580Y-67342051D01*
X38717051Y-67446580D01*
X38717048Y-67446584D01*
X38634919Y-67569498D01*
X38634912Y-67569511D01*
X38578343Y-67706082D01*
X38578340Y-67706092D01*
X38549500Y-67851079D01*
X38549500Y-67851082D01*
X38549500Y-67998918D01*
X38549500Y-67998920D01*
X38549499Y-67998920D01*
X33150500Y-67998920D01*
X33150500Y-65146153D01*
X39099500Y-65146153D01*
X39099500Y-65303846D01*
X39130261Y-65458489D01*
X39130264Y-65458501D01*
X39190602Y-65604172D01*
X39190609Y-65604185D01*
X39278210Y-65735288D01*
X39278213Y-65735292D01*
X39389707Y-65846786D01*
X39389711Y-65846789D01*
X39520814Y-65934390D01*
X39520827Y-65934397D01*
X39666498Y-65994735D01*
X39666503Y-65994737D01*
X39806011Y-66022487D01*
X39821153Y-66025499D01*
X39821156Y-66025500D01*
X39821158Y-66025500D01*
X39978844Y-66025500D01*
X39978845Y-66025499D01*
X40133497Y-65994737D01*
X40279179Y-65934394D01*
X40410289Y-65846789D01*
X40521789Y-65735289D01*
X40609394Y-65604179D01*
X40669737Y-65458497D01*
X40700500Y-65303842D01*
X40700500Y-65146158D01*
X40700500Y-65146155D01*
X40700499Y-65146153D01*
X40669738Y-64991510D01*
X40669737Y-64991503D01*
X40669735Y-64991498D01*
X40609397Y-64845827D01*
X40609390Y-64845814D01*
X40521789Y-64714711D01*
X40521786Y-64714707D01*
X40410292Y-64603213D01*
X40410288Y-64603210D01*
X40279185Y-64515609D01*
X40279176Y-64515604D01*
X40236122Y-64497771D01*
X40181719Y-64453930D01*
X40159654Y-64387636D01*
X40176933Y-64319936D01*
X40228070Y-64272326D01*
X40236116Y-64268652D01*
X40286926Y-64247606D01*
X40379173Y-64209397D01*
X40379176Y-64209395D01*
X40379179Y-64209394D01*
X40510289Y-64121789D01*
X40621789Y-64010289D01*
X40709394Y-63879179D01*
X40769737Y-63733497D01*
X40800500Y-63578842D01*
X40800500Y-63470445D01*
X40820185Y-63403406D01*
X40872989Y-63357651D01*
X40942147Y-63347707D01*
X41005703Y-63376732D01*
X41039062Y-63422994D01*
X41041626Y-63429186D01*
X41041630Y-63429193D01*
X41129231Y-63560296D01*
X41129234Y-63560300D01*
X41240728Y-63671794D01*
X41240732Y-63671797D01*
X41371835Y-63759398D01*
X41371848Y-63759405D01*
X41515892Y-63819069D01*
X41570296Y-63862909D01*
X41583001Y-63886178D01*
X41642665Y-64030222D01*
X41642672Y-64030235D01*
X41730273Y-64161338D01*
X41730276Y-64161342D01*
X41841770Y-64272836D01*
X41841774Y-64272839D01*
X41972877Y-64360440D01*
X41972890Y-64360447D01*
X42118561Y-64420785D01*
X42118566Y-64420787D01*
X42273216Y-64451549D01*
X42273219Y-64451550D01*
X42273221Y-64451550D01*
X42430907Y-64451550D01*
X42430908Y-64451549D01*
X42585560Y-64420787D01*
X42731242Y-64360444D01*
X42862352Y-64272839D01*
X42973852Y-64161339D01*
X43061457Y-64030229D01*
X43121800Y-63884547D01*
X43126255Y-63862146D01*
X43148308Y-63751288D01*
X43163022Y-63723157D01*
X43176212Y-63694277D01*
X43179101Y-63692420D01*
X43180693Y-63689377D01*
X43208285Y-63673664D01*
X43234990Y-63656503D01*
X43239583Y-63655842D01*
X43241409Y-63654803D01*
X43269925Y-63651480D01*
X43348662Y-63651480D01*
X43348678Y-63651481D01*
X43356274Y-63651481D01*
X43514385Y-63651481D01*
X43514388Y-63651481D01*
X43667116Y-63610557D01*
X43747635Y-63564069D01*
X43754169Y-63560297D01*
X43804040Y-63531504D01*
X43804039Y-63531504D01*
X43804047Y-63531500D01*
X43915851Y-63419696D01*
X43915851Y-63419694D01*
X43926055Y-63409491D01*
X43926059Y-63409486D01*
X44419693Y-62915852D01*
X44419696Y-62915851D01*
X44531500Y-62804047D01*
X44581619Y-62717235D01*
X44610557Y-62667116D01*
X44651480Y-62514388D01*
X44651480Y-62356274D01*
X44651480Y-61969388D01*
X44671165Y-61902349D01*
X44671910Y-61901202D01*
X44678858Y-61890647D01*
X44705520Y-61863986D01*
X44770437Y-61751544D01*
X44772430Y-61748518D01*
X44796422Y-61728187D01*
X44819179Y-61706489D01*
X44822868Y-61705777D01*
X44825735Y-61703349D01*
X44856903Y-61699217D01*
X44887786Y-61693265D01*
X44891274Y-61694661D01*
X44894999Y-61694168D01*
X44923457Y-61707545D01*
X44952651Y-61719233D01*
X44954830Y-61722293D01*
X44958231Y-61723892D01*
X44974939Y-61750532D01*
X44993180Y-61776147D01*
X44993976Y-61780885D01*
X44995355Y-61783083D01*
X44995292Y-61788712D01*
X45000000Y-61816704D01*
X45000000Y-63000000D01*
X50250000Y-63000000D01*
X50250000Y-62421153D01*
X51199500Y-62421153D01*
X51199500Y-62578846D01*
X51230261Y-62733489D01*
X51230264Y-62733501D01*
X51290602Y-62879172D01*
X51290609Y-62879185D01*
X51378210Y-63010288D01*
X51378213Y-63010292D01*
X51489707Y-63121786D01*
X51489711Y-63121789D01*
X51620814Y-63209390D01*
X51620827Y-63209397D01*
X51758683Y-63266498D01*
X51766503Y-63269737D01*
X51921153Y-63300499D01*
X51921156Y-63300500D01*
X51921158Y-63300500D01*
X52078844Y-63300500D01*
X52078845Y-63300499D01*
X52233497Y-63269737D01*
X52379179Y-63209394D01*
X52510289Y-63121789D01*
X52621789Y-63010289D01*
X52709394Y-62879179D01*
X52769737Y-62733497D01*
X52783079Y-62666416D01*
X52815463Y-62604509D01*
X52816959Y-62602985D01*
X55505277Y-59914669D01*
X55576465Y-59808127D01*
X55608717Y-59730263D01*
X55625501Y-59689744D01*
X55634024Y-59646898D01*
X55650500Y-59564071D01*
X55650500Y-59504935D01*
X55670185Y-59437896D01*
X55671366Y-59436090D01*
X55709394Y-59379179D01*
X55769737Y-59233497D01*
X55800500Y-59078842D01*
X55800500Y-58921158D01*
X55800500Y-58921155D01*
X55800499Y-58921153D01*
X55774474Y-58790318D01*
X55769737Y-58766503D01*
X55763774Y-58752107D01*
X55709397Y-58620827D01*
X55709390Y-58620814D01*
X55621789Y-58489711D01*
X55621786Y-58489707D01*
X55510292Y-58378213D01*
X55510288Y-58378210D01*
X55379185Y-58290609D01*
X55379172Y-58290602D01*
X55233501Y-58230264D01*
X55233489Y-58230261D01*
X55078845Y-58199500D01*
X55078842Y-58199500D01*
X54921158Y-58199500D01*
X54921155Y-58199500D01*
X54766510Y-58230261D01*
X54766498Y-58230264D01*
X54620827Y-58290602D01*
X54620814Y-58290609D01*
X54489711Y-58378210D01*
X54489707Y-58378213D01*
X54378213Y-58489707D01*
X54378210Y-58489711D01*
X54290609Y-58620814D01*
X54290602Y-58620827D01*
X54230264Y-58766498D01*
X54230261Y-58766510D01*
X54199500Y-58921153D01*
X54199500Y-59078846D01*
X54230260Y-59233488D01*
X54230263Y-59233496D01*
X54232621Y-59239190D01*
X54240084Y-59308660D01*
X54208805Y-59371137D01*
X54205737Y-59374315D01*
X51897068Y-61682984D01*
X51835745Y-61716469D01*
X51833579Y-61716920D01*
X51766508Y-61730261D01*
X51766498Y-61730264D01*
X51620827Y-61790602D01*
X51620814Y-61790609D01*
X51489711Y-61878210D01*
X51489707Y-61878213D01*
X51378213Y-61989707D01*
X51378210Y-61989711D01*
X51290609Y-62120814D01*
X51290602Y-62120827D01*
X51230264Y-62266498D01*
X51230261Y-62266510D01*
X51199500Y-62421153D01*
X50250000Y-62421153D01*
X50250000Y-58500000D01*
X45000000Y-58500000D01*
X44949500Y-58500000D01*
X44882461Y-58480315D01*
X44836706Y-58427511D01*
X44825500Y-58376000D01*
X44825500Y-56213499D01*
X44845185Y-56146460D01*
X44897989Y-56100705D01*
X44925309Y-56091882D01*
X44961025Y-56084777D01*
X45034018Y-56070258D01*
X45179700Y-56009915D01*
X45310810Y-55922310D01*
X45422310Y-55810810D01*
X45509915Y-55679700D01*
X45570258Y-55534018D01*
X45601021Y-55379363D01*
X45601021Y-55221679D01*
X45601021Y-55221676D01*
X45601020Y-55221674D01*
X45591738Y-55175010D01*
X45570258Y-55067024D01*
X45511960Y-54926279D01*
X45509918Y-54921348D01*
X45509911Y-54921335D01*
X45422310Y-54790232D01*
X45422307Y-54790228D01*
X45310813Y-54678734D01*
X45310809Y-54678731D01*
X45179706Y-54591130D01*
X45179693Y-54591123D01*
X45035649Y-54531459D01*
X44981245Y-54487618D01*
X44968540Y-54464350D01*
X44908876Y-54320306D01*
X44908869Y-54320293D01*
X44821268Y-54189190D01*
X44821265Y-54189186D01*
X44709771Y-54077692D01*
X44709767Y-54077689D01*
X44578664Y-53990088D01*
X44578651Y-53990081D01*
X44432980Y-53929743D01*
X44432968Y-53929740D01*
X44278324Y-53898979D01*
X44278321Y-53898979D01*
X44120637Y-53898979D01*
X44120634Y-53898979D01*
X43965989Y-53929740D01*
X43965977Y-53929743D01*
X43820306Y-53990081D01*
X43820293Y-53990088D01*
X43689190Y-54077689D01*
X43689186Y-54077692D01*
X43577692Y-54189186D01*
X43577689Y-54189190D01*
X43490088Y-54320293D01*
X43490081Y-54320306D01*
X43429743Y-54465977D01*
X43429740Y-54465989D01*
X43398979Y-54620632D01*
X43398979Y-54778325D01*
X43411808Y-54842820D01*
X43411788Y-54843033D01*
X43411888Y-54843225D01*
X43408677Y-54877802D01*
X43405581Y-54912412D01*
X43405442Y-54912654D01*
X43405429Y-54912796D01*
X43404912Y-54913580D01*
X43387862Y-54943407D01*
X43383207Y-54949357D01*
X43294480Y-55038085D01*
X43244360Y-55124896D01*
X43240009Y-55132431D01*
X43240005Y-55132437D01*
X43215425Y-55175010D01*
X43215424Y-55175011D01*
X43215423Y-55175016D01*
X43174499Y-55327744D01*
X43174499Y-55327746D01*
X43174499Y-55495847D01*
X43174500Y-55495860D01*
X43174500Y-58075500D01*
X43154815Y-58142539D01*
X43102011Y-58188294D01*
X43050500Y-58199500D01*
X42921155Y-58199500D01*
X42766510Y-58230261D01*
X42766498Y-58230264D01*
X42620827Y-58290602D01*
X42620814Y-58290609D01*
X42489711Y-58378210D01*
X42489707Y-58378213D01*
X42462681Y-58405240D01*
X42401358Y-58438725D01*
X42331666Y-58433741D01*
X42287319Y-58405240D01*
X42260292Y-58378213D01*
X42260288Y-58378210D01*
X42129185Y-58290609D01*
X42129172Y-58290602D01*
X41983501Y-58230264D01*
X41983489Y-58230261D01*
X41828845Y-58199500D01*
X41828842Y-58199500D01*
X41671158Y-58199500D01*
X41671155Y-58199500D01*
X41516510Y-58230261D01*
X41516498Y-58230264D01*
X41370827Y-58290602D01*
X41370814Y-58290609D01*
X41239711Y-58378210D01*
X41239707Y-58378213D01*
X41128213Y-58489707D01*
X41128210Y-58489711D01*
X41040609Y-58620814D01*
X41040602Y-58620827D01*
X40989561Y-58744054D01*
X40945720Y-58798458D01*
X40879426Y-58820523D01*
X40811727Y-58803244D01*
X40764116Y-58752107D01*
X40760439Y-58744054D01*
X40709397Y-58620827D01*
X40709390Y-58620814D01*
X40621789Y-58489711D01*
X40621786Y-58489707D01*
X40510292Y-58378213D01*
X40510288Y-58378210D01*
X40379185Y-58290609D01*
X40379172Y-58290602D01*
X40233501Y-58230264D01*
X40233489Y-58230261D01*
X40078845Y-58199500D01*
X40078842Y-58199500D01*
X39921158Y-58199500D01*
X39921155Y-58199500D01*
X39766510Y-58230261D01*
X39766498Y-58230264D01*
X39620827Y-58290602D01*
X39620814Y-58290609D01*
X39489711Y-58378210D01*
X39489707Y-58378213D01*
X39378213Y-58489707D01*
X39378210Y-58489711D01*
X39290609Y-58620814D01*
X39290602Y-58620827D01*
X39230264Y-58766498D01*
X39230261Y-58766510D01*
X39199500Y-58921153D01*
X39199500Y-59078846D01*
X39230261Y-59233489D01*
X39230264Y-59233501D01*
X39290602Y-59379172D01*
X39290609Y-59379185D01*
X39378210Y-59510288D01*
X39378213Y-59510292D01*
X39489707Y-59621786D01*
X39527289Y-59646898D01*
X39572093Y-59700511D01*
X39580800Y-59769836D01*
X39550645Y-59832863D01*
X39527289Y-59853102D01*
X39489707Y-59878213D01*
X39378213Y-59989707D01*
X39378210Y-59989711D01*
X39290609Y-60120814D01*
X39290602Y-60120827D01*
X39230264Y-60266498D01*
X39230261Y-60266510D01*
X39199500Y-60421153D01*
X39199500Y-60578846D01*
X39230261Y-60733489D01*
X39230264Y-60733501D01*
X39290602Y-60879172D01*
X39290609Y-60879185D01*
X39378210Y-61010288D01*
X39378213Y-61010292D01*
X39489707Y-61121786D01*
X39527289Y-61146898D01*
X39572093Y-61200511D01*
X39580800Y-61269836D01*
X39550645Y-61332863D01*
X39527289Y-61353102D01*
X39489707Y-61378213D01*
X39378213Y-61489707D01*
X39378210Y-61489711D01*
X39290609Y-61620814D01*
X39290602Y-61620827D01*
X39230264Y-61766498D01*
X39230261Y-61766510D01*
X39199500Y-61921153D01*
X39199500Y-62078846D01*
X39230261Y-62233489D01*
X39230264Y-62233501D01*
X39290602Y-62379172D01*
X39290609Y-62379185D01*
X39378210Y-62510288D01*
X39378213Y-62510292D01*
X39489707Y-62621786D01*
X39489710Y-62621788D01*
X39489711Y-62621789D01*
X39501293Y-62629528D01*
X39527289Y-62646898D01*
X39572093Y-62700511D01*
X39580800Y-62769836D01*
X39550645Y-62832863D01*
X39527289Y-62853102D01*
X39489707Y-62878213D01*
X39378213Y-62989707D01*
X39378210Y-62989711D01*
X39290609Y-63120814D01*
X39290602Y-63120827D01*
X39230264Y-63266498D01*
X39230261Y-63266510D01*
X39199500Y-63421153D01*
X39199500Y-63578846D01*
X39230261Y-63733489D01*
X39230264Y-63733501D01*
X39290602Y-63879172D01*
X39290609Y-63879185D01*
X39378210Y-64010288D01*
X39378213Y-64010292D01*
X39489707Y-64121786D01*
X39489711Y-64121789D01*
X39620814Y-64209390D01*
X39620818Y-64209392D01*
X39620821Y-64209394D01*
X39663878Y-64227228D01*
X39718279Y-64271068D01*
X39740345Y-64337362D01*
X39723066Y-64405061D01*
X39671930Y-64452672D01*
X39663877Y-64456350D01*
X39520823Y-64515604D01*
X39520814Y-64515609D01*
X39389711Y-64603210D01*
X39389707Y-64603213D01*
X39278213Y-64714707D01*
X39278210Y-64714711D01*
X39190609Y-64845814D01*
X39190602Y-64845827D01*
X39130264Y-64991498D01*
X39130261Y-64991510D01*
X39099500Y-65146153D01*
X33150500Y-65146153D01*
X33150500Y-49820808D01*
X33159144Y-49791367D01*
X33163542Y-49771153D01*
X35199500Y-49771153D01*
X35199500Y-49928846D01*
X35230261Y-50083489D01*
X35230264Y-50083501D01*
X35290602Y-50229172D01*
X35290609Y-50229185D01*
X35378210Y-50360288D01*
X35378213Y-50360292D01*
X35489707Y-50471786D01*
X35489711Y-50471789D01*
X35620814Y-50559390D01*
X35620827Y-50559397D01*
X35766498Y-50619735D01*
X35766503Y-50619737D01*
X35914577Y-50649191D01*
X35921153Y-50650499D01*
X35921156Y-50650500D01*
X35921158Y-50650500D01*
X36078844Y-50650500D01*
X36078845Y-50650499D01*
X36233497Y-50619737D01*
X36379179Y-50559394D01*
X36510289Y-50471789D01*
X36621789Y-50360289D01*
X36709394Y-50229179D01*
X36769737Y-50083497D01*
X36800500Y-49928842D01*
X36800500Y-49771158D01*
X36800500Y-49771155D01*
X36800499Y-49771153D01*
X36770596Y-49620821D01*
X36769737Y-49616503D01*
X36732866Y-49527487D01*
X36709397Y-49470828D01*
X36709396Y-49470827D01*
X36709394Y-49470821D01*
X36671396Y-49413953D01*
X36650520Y-49347276D01*
X36650500Y-49345064D01*
X36650500Y-48820806D01*
X36659144Y-48791365D01*
X36665668Y-48761379D01*
X36669422Y-48756363D01*
X36670185Y-48753767D01*
X36686810Y-48733134D01*
X36852931Y-48567012D01*
X36914251Y-48533530D01*
X36916330Y-48533096D01*
X36983497Y-48519737D01*
X37129179Y-48459394D01*
X37186411Y-48421153D01*
X42699500Y-48421153D01*
X42699500Y-48578846D01*
X42730261Y-48733489D01*
X42730264Y-48733501D01*
X42790602Y-48879172D01*
X42790609Y-48879185D01*
X42878210Y-49010288D01*
X42878213Y-49010292D01*
X42989707Y-49121786D01*
X42989711Y-49121789D01*
X43120814Y-49209390D01*
X43120827Y-49209397D01*
X43266498Y-49269735D01*
X43266503Y-49269737D01*
X43421153Y-49300499D01*
X43421156Y-49300500D01*
X43421158Y-49300500D01*
X43578844Y-49300500D01*
X43578845Y-49300499D01*
X43733497Y-49269737D01*
X43846166Y-49223067D01*
X43879172Y-49209397D01*
X43879172Y-49209396D01*
X43879179Y-49209394D01*
X44010289Y-49121789D01*
X44121789Y-49010289D01*
X44209394Y-48879179D01*
X44269737Y-48733497D01*
X44300500Y-48578842D01*
X44300500Y-48421158D01*
X44300500Y-48421155D01*
X44276750Y-48301758D01*
X44276750Y-48301757D01*
X44273148Y-48283653D01*
X46699500Y-48283653D01*
X46699500Y-48441346D01*
X46730261Y-48595989D01*
X46730264Y-48596001D01*
X46790602Y-48741672D01*
X46790609Y-48741685D01*
X46878210Y-48872788D01*
X46878213Y-48872792D01*
X46989707Y-48984286D01*
X46989711Y-48984289D01*
X47120814Y-49071890D01*
X47120827Y-49071897D01*
X47211656Y-49109519D01*
X47266503Y-49132237D01*
X47421153Y-49162999D01*
X47421156Y-49163000D01*
X47421158Y-49163000D01*
X47578844Y-49163000D01*
X47578845Y-49162999D01*
X47733497Y-49132237D01*
X47879179Y-49071894D01*
X48010289Y-48984289D01*
X48121789Y-48872789D01*
X48209394Y-48741679D01*
X48269737Y-48595997D01*
X48300500Y-48441342D01*
X48300500Y-48283658D01*
X48300500Y-48283655D01*
X48300499Y-48283653D01*
X48282243Y-48191874D01*
X48269737Y-48129003D01*
X48269735Y-48128998D01*
X48209397Y-47983327D01*
X48209390Y-47983314D01*
X48121789Y-47852211D01*
X48121786Y-47852207D01*
X48010292Y-47740713D01*
X48010288Y-47740710D01*
X47879185Y-47653109D01*
X47879172Y-47653102D01*
X47733501Y-47592764D01*
X47733489Y-47592761D01*
X47578845Y-47562000D01*
X47578842Y-47562000D01*
X47421158Y-47562000D01*
X47421155Y-47562000D01*
X47266510Y-47592761D01*
X47266498Y-47592764D01*
X47120827Y-47653102D01*
X47120814Y-47653109D01*
X46989711Y-47740710D01*
X46989707Y-47740713D01*
X46878213Y-47852207D01*
X46878210Y-47852211D01*
X46790609Y-47983314D01*
X46790602Y-47983327D01*
X46730264Y-48128998D01*
X46730261Y-48129010D01*
X46699500Y-48283653D01*
X44273148Y-48283653D01*
X44269738Y-48266510D01*
X44269737Y-48266503D01*
X44238825Y-48191874D01*
X44209397Y-48120827D01*
X44209390Y-48120814D01*
X44121789Y-47989711D01*
X44121786Y-47989707D01*
X44010292Y-47878213D01*
X44010288Y-47878210D01*
X43879185Y-47790609D01*
X43879172Y-47790602D01*
X43733501Y-47730264D01*
X43733489Y-47730261D01*
X43578845Y-47699500D01*
X43578842Y-47699500D01*
X43421158Y-47699500D01*
X43421155Y-47699500D01*
X43266510Y-47730261D01*
X43266498Y-47730264D01*
X43120827Y-47790602D01*
X43120814Y-47790609D01*
X42989711Y-47878210D01*
X42989707Y-47878213D01*
X42878213Y-47989707D01*
X42878210Y-47989711D01*
X42790609Y-48120814D01*
X42790602Y-48120827D01*
X42730264Y-48266498D01*
X42730261Y-48266510D01*
X42699500Y-48421153D01*
X37186411Y-48421153D01*
X37260289Y-48371789D01*
X37260292Y-48371786D01*
X37304694Y-48327385D01*
X37371786Y-48260292D01*
X37371789Y-48260289D01*
X37459394Y-48129179D01*
X37462854Y-48120827D01*
X37517163Y-47989711D01*
X37519737Y-47983497D01*
X37550500Y-47828842D01*
X37550500Y-47671158D01*
X37550500Y-47671155D01*
X37550499Y-47671153D01*
X37534906Y-47592761D01*
X37519737Y-47516503D01*
X37519735Y-47516498D01*
X37459397Y-47370827D01*
X37459390Y-47370814D01*
X37371789Y-47239711D01*
X37371786Y-47239707D01*
X37260292Y-47128213D01*
X37260288Y-47128210D01*
X37129185Y-47040609D01*
X37129172Y-47040602D01*
X36983501Y-46980264D01*
X36983489Y-46980261D01*
X36828845Y-46949500D01*
X36828842Y-46949500D01*
X36671158Y-46949500D01*
X36671155Y-46949500D01*
X36516510Y-46980261D01*
X36516498Y-46980264D01*
X36370827Y-47040602D01*
X36370814Y-47040609D01*
X36239711Y-47128210D01*
X36239707Y-47128213D01*
X36128213Y-47239707D01*
X36128210Y-47239711D01*
X36040609Y-47370814D01*
X36040602Y-47370827D01*
X35980264Y-47516498D01*
X35980261Y-47516508D01*
X35966920Y-47583580D01*
X35934535Y-47645491D01*
X35932984Y-47647069D01*
X35494727Y-48085325D01*
X35494726Y-48085326D01*
X35423534Y-48191874D01*
X35374499Y-48310255D01*
X35374497Y-48310261D01*
X35349500Y-48435928D01*
X35349500Y-49345064D01*
X35329815Y-49412103D01*
X35328603Y-49413954D01*
X35290608Y-49470817D01*
X35290602Y-49470828D01*
X35230264Y-49616498D01*
X35230261Y-49616510D01*
X35199500Y-49771153D01*
X33163542Y-49771153D01*
X33165668Y-49761381D01*
X33169422Y-49756365D01*
X33170185Y-49753769D01*
X33186819Y-49733127D01*
X38733127Y-44186819D01*
X38794450Y-44153334D01*
X38820808Y-44150500D01*
X41064071Y-44150500D01*
X41148615Y-44133682D01*
X41189744Y-44125501D01*
X41308127Y-44076465D01*
X41414669Y-44005277D01*
X41589140Y-43830805D01*
X41650458Y-43797323D01*
X41720150Y-43802307D01*
X41776083Y-43844178D01*
X41786043Y-43861661D01*
X41786704Y-43861309D01*
X41789577Y-43866685D01*
X41877178Y-43997788D01*
X41877181Y-43997792D01*
X41988675Y-44109286D01*
X41988679Y-44109289D01*
X42119782Y-44196890D01*
X42119795Y-44196897D01*
X42265466Y-44257235D01*
X42265471Y-44257237D01*
X42420121Y-44287999D01*
X42420124Y-44288000D01*
X42420126Y-44288000D01*
X42577812Y-44288000D01*
X42577813Y-44287999D01*
X42732465Y-44257237D01*
X42872867Y-44199080D01*
X42942334Y-44191612D01*
X43004814Y-44222887D01*
X43007999Y-44225961D01*
X43273143Y-44491105D01*
X43306628Y-44552428D01*
X43301644Y-44622120D01*
X43259772Y-44678053D01*
X43220057Y-44697862D01*
X43083609Y-44737503D01*
X43083606Y-44737505D01*
X42944315Y-44819881D01*
X42944307Y-44819887D01*
X42829887Y-44934307D01*
X42829881Y-44934315D01*
X42747505Y-45073606D01*
X42747504Y-45073609D01*
X42702357Y-45229002D01*
X42702356Y-45229008D01*
X42699500Y-45265302D01*
X42699500Y-45308399D01*
X42697117Y-45332590D01*
X42679500Y-45421154D01*
X42679500Y-45575500D01*
X42659815Y-45642539D01*
X42607011Y-45688294D01*
X42555500Y-45699500D01*
X42421155Y-45699500D01*
X42266510Y-45730261D01*
X42266498Y-45730264D01*
X42120827Y-45790602D01*
X42120814Y-45790609D01*
X41989711Y-45878210D01*
X41989707Y-45878213D01*
X41878213Y-45989707D01*
X41878210Y-45989711D01*
X41790609Y-46120814D01*
X41790602Y-46120827D01*
X41730264Y-46266498D01*
X41730261Y-46266510D01*
X41699500Y-46421153D01*
X41699500Y-46578846D01*
X41730261Y-46733489D01*
X41730264Y-46733501D01*
X41790602Y-46879172D01*
X41790609Y-46879185D01*
X41878210Y-47010288D01*
X41878213Y-47010292D01*
X41989707Y-47121786D01*
X41989711Y-47121789D01*
X42120814Y-47209390D01*
X42120827Y-47209397D01*
X42194013Y-47239711D01*
X42266503Y-47269737D01*
X42421153Y-47300499D01*
X42421156Y-47300500D01*
X42421158Y-47300500D01*
X42578844Y-47300500D01*
X42578845Y-47300499D01*
X42733497Y-47269737D01*
X42879179Y-47209394D01*
X42936044Y-47171397D01*
X43002721Y-47150520D01*
X43004935Y-47150500D01*
X46909893Y-47150500D01*
X47021947Y-47128210D01*
X47035566Y-47125501D01*
X47153949Y-47076465D01*
X47260491Y-47005277D01*
X50505276Y-43760492D01*
X50576465Y-43653949D01*
X50625501Y-43535566D01*
X50632476Y-43500500D01*
X50650500Y-43409891D01*
X50650500Y-42577540D01*
X53294200Y-42577540D01*
X53294200Y-42724459D01*
X53322858Y-42868534D01*
X53322861Y-42868544D01*
X53379078Y-43004266D01*
X53379083Y-43004275D01*
X53460698Y-43126419D01*
X53460701Y-43126423D01*
X53564576Y-43230298D01*
X53564580Y-43230301D01*
X53686724Y-43311916D01*
X53686730Y-43311919D01*
X53686731Y-43311920D01*
X53822458Y-43368140D01*
X53966540Y-43396799D01*
X53966544Y-43396800D01*
X53966545Y-43396800D01*
X54113456Y-43396800D01*
X54113457Y-43396799D01*
X54257542Y-43368140D01*
X54393269Y-43311920D01*
X54515420Y-43230301D01*
X54619301Y-43126420D01*
X54700920Y-43004269D01*
X54757140Y-42868542D01*
X54785800Y-42724455D01*
X54785800Y-42577545D01*
X54757140Y-42433458D01*
X54700920Y-42297731D01*
X54700919Y-42297730D01*
X54700916Y-42297724D01*
X54619301Y-42175580D01*
X54619298Y-42175576D01*
X54515423Y-42071701D01*
X54515419Y-42071698D01*
X54393275Y-41990083D01*
X54393266Y-41990078D01*
X54257544Y-41933861D01*
X54257545Y-41933861D01*
X54257542Y-41933860D01*
X54257538Y-41933859D01*
X54257534Y-41933858D01*
X54113459Y-41905200D01*
X54113455Y-41905200D01*
X53966545Y-41905200D01*
X53966540Y-41905200D01*
X53822465Y-41933858D01*
X53822455Y-41933861D01*
X53686733Y-41990078D01*
X53686724Y-41990083D01*
X53564580Y-42071698D01*
X53564576Y-42071701D01*
X53460701Y-42175576D01*
X53460698Y-42175580D01*
X53379083Y-42297724D01*
X53379078Y-42297733D01*
X53322861Y-42433455D01*
X53322858Y-42433465D01*
X53294200Y-42577540D01*
X50650500Y-42577540D01*
X50650500Y-40654935D01*
X50654419Y-40639951D01*
X50653656Y-40627136D01*
X50664098Y-40602950D01*
X50666383Y-40594216D01*
X50668729Y-40590037D01*
X50698462Y-40545540D01*
X53294200Y-40545540D01*
X53294200Y-40692459D01*
X53322858Y-40836534D01*
X53322861Y-40836544D01*
X53379078Y-40972266D01*
X53379083Y-40972275D01*
X53460698Y-41094419D01*
X53460701Y-41094423D01*
X53564576Y-41198298D01*
X53564580Y-41198301D01*
X53686724Y-41279916D01*
X53686733Y-41279921D01*
X53711800Y-41290304D01*
X53822458Y-41336140D01*
X53945978Y-41360709D01*
X53966540Y-41364799D01*
X53966544Y-41364800D01*
X53966545Y-41364800D01*
X54113456Y-41364800D01*
X54113457Y-41364799D01*
X54257542Y-41336140D01*
X54393269Y-41279920D01*
X54515420Y-41198301D01*
X54619301Y-41094420D01*
X54700920Y-40972269D01*
X54738351Y-40881902D01*
X55499500Y-40881902D01*
X55499500Y-41118097D01*
X55536446Y-41351368D01*
X55609433Y-41575996D01*
X55692423Y-41738871D01*
X55716657Y-41786433D01*
X55855483Y-41977510D01*
X56022490Y-42144517D01*
X56213567Y-42283343D01*
X56299663Y-42327211D01*
X56424003Y-42390566D01*
X56424005Y-42390566D01*
X56424008Y-42390568D01*
X56544412Y-42429689D01*
X56648631Y-42463553D01*
X56881903Y-42500500D01*
X56881908Y-42500500D01*
X57118097Y-42500500D01*
X57351368Y-42463553D01*
X57367492Y-42458314D01*
X57575992Y-42390568D01*
X57786433Y-42283343D01*
X57977510Y-42144517D01*
X58144517Y-41977510D01*
X58283343Y-41786433D01*
X58390568Y-41575992D01*
X58463553Y-41351368D01*
X58473177Y-41290606D01*
X58500500Y-41118097D01*
X58500500Y-40881902D01*
X58463553Y-40648631D01*
X58424738Y-40529172D01*
X58390568Y-40424008D01*
X58390566Y-40424005D01*
X58390566Y-40424003D01*
X58329166Y-40303500D01*
X58283343Y-40213567D01*
X58144517Y-40022490D01*
X57977510Y-39855483D01*
X57786433Y-39716657D01*
X57753932Y-39700097D01*
X57575996Y-39609433D01*
X57351368Y-39536446D01*
X57118097Y-39499500D01*
X57118092Y-39499500D01*
X56881908Y-39499500D01*
X56881903Y-39499500D01*
X56648631Y-39536446D01*
X56424003Y-39609433D01*
X56213566Y-39716657D01*
X56190383Y-39733501D01*
X56022490Y-39855483D01*
X56022488Y-39855485D01*
X56022487Y-39855485D01*
X55855485Y-40022487D01*
X55855485Y-40022488D01*
X55855483Y-40022490D01*
X55820904Y-40070084D01*
X55716657Y-40213566D01*
X55609433Y-40424003D01*
X55536446Y-40648631D01*
X55499500Y-40881902D01*
X54738351Y-40881902D01*
X54757140Y-40836542D01*
X54785800Y-40692455D01*
X54785800Y-40545545D01*
X54757140Y-40401458D01*
X54700920Y-40265731D01*
X54700919Y-40265730D01*
X54700916Y-40265724D01*
X54619301Y-40143580D01*
X54619298Y-40143576D01*
X54515423Y-40039701D01*
X54515419Y-40039698D01*
X54393275Y-39958083D01*
X54393266Y-39958078D01*
X54257544Y-39901861D01*
X54257545Y-39901861D01*
X54257542Y-39901860D01*
X54257538Y-39901859D01*
X54257534Y-39901858D01*
X54113459Y-39873200D01*
X54113455Y-39873200D01*
X53966545Y-39873200D01*
X53966540Y-39873200D01*
X53822465Y-39901858D01*
X53822455Y-39901861D01*
X53686733Y-39958078D01*
X53686724Y-39958083D01*
X53564580Y-40039698D01*
X53564576Y-40039701D01*
X53460701Y-40143576D01*
X53460698Y-40143580D01*
X53379083Y-40265724D01*
X53379078Y-40265733D01*
X53322861Y-40401455D01*
X53322858Y-40401465D01*
X53294200Y-40545540D01*
X50698462Y-40545540D01*
X50709394Y-40529179D01*
X50769737Y-40383497D01*
X50778425Y-40339819D01*
X50796231Y-40250308D01*
X50828616Y-40188397D01*
X50889332Y-40153823D01*
X50917848Y-40150500D01*
X51995065Y-40150500D01*
X52062104Y-40170185D01*
X52063909Y-40171366D01*
X52120821Y-40209394D01*
X52120823Y-40209395D01*
X52120827Y-40209397D01*
X52256836Y-40265733D01*
X52266503Y-40269737D01*
X52410767Y-40298433D01*
X52421153Y-40300499D01*
X52421156Y-40300500D01*
X52421158Y-40300500D01*
X52578844Y-40300500D01*
X52578845Y-40300499D01*
X52733497Y-40269737D01*
X52856142Y-40218936D01*
X52879172Y-40209397D01*
X52879172Y-40209396D01*
X52879179Y-40209394D01*
X53010289Y-40121789D01*
X53121789Y-40010289D01*
X53209394Y-39879179D01*
X53269737Y-39733497D01*
X53300500Y-39578842D01*
X53300500Y-39421158D01*
X53300500Y-39421155D01*
X53300499Y-39421153D01*
X53291421Y-39375515D01*
X53269737Y-39266503D01*
X53256062Y-39233489D01*
X53230159Y-39170952D01*
X53222690Y-39101483D01*
X53253965Y-39039004D01*
X53314054Y-39003352D01*
X53344720Y-38999500D01*
X55935931Y-38999500D01*
X57611152Y-38999500D01*
X57678191Y-39019185D01*
X57698833Y-39035819D01*
X58813181Y-40150167D01*
X58846666Y-40211490D01*
X58849500Y-40237848D01*
X58849500Y-55817059D01*
X58829815Y-55884098D01*
X58813181Y-55904740D01*
X58728213Y-55989707D01*
X58728210Y-55989711D01*
X58640609Y-56120814D01*
X58640602Y-56120827D01*
X58580264Y-56266498D01*
X58580261Y-56266510D01*
X58549500Y-56421153D01*
X58549500Y-56578846D01*
X58580261Y-56733489D01*
X58580264Y-56733501D01*
X58640602Y-56879172D01*
X58640609Y-56879185D01*
X58728210Y-57010288D01*
X58728213Y-57010292D01*
X58839707Y-57121786D01*
X58839711Y-57121789D01*
X58970814Y-57209390D01*
X58970827Y-57209397D01*
X59116498Y-57269735D01*
X59116503Y-57269737D01*
X59226987Y-57291713D01*
X59249691Y-57296230D01*
X59311602Y-57328615D01*
X59346176Y-57389330D01*
X59349500Y-57417847D01*
X59349500Y-62564069D01*
X59349500Y-62564071D01*
X59349499Y-62564071D01*
X59372572Y-62680057D01*
X59372573Y-62680061D01*
X59374498Y-62689742D01*
X59416278Y-62790606D01*
X59423535Y-62808127D01*
X59471005Y-62879172D01*
X59494726Y-62914673D01*
X59494727Y-62914674D01*
X63029859Y-66449805D01*
X63063344Y-66511128D01*
X63060109Y-66575803D01*
X63036447Y-66648628D01*
X62999500Y-66881902D01*
X62999500Y-67118097D01*
X63036446Y-67351368D01*
X63109433Y-67575996D01*
X63175721Y-67706092D01*
X63216657Y-67786433D01*
X63355483Y-67977510D01*
X63522490Y-68144517D01*
X63557127Y-68169683D01*
X63599792Y-68225013D01*
X63605771Y-68294626D01*
X63573165Y-68356421D01*
X63557130Y-68370315D01*
X63539365Y-68383222D01*
X63522488Y-68395484D01*
X63355485Y-68562487D01*
X63355485Y-68562488D01*
X63355483Y-68562490D01*
X63335438Y-68590080D01*
X63216657Y-68753566D01*
X63109433Y-68964003D01*
X63036446Y-69188631D01*
X62999500Y-69421902D01*
X62999500Y-69658097D01*
X63036446Y-69891368D01*
X63109433Y-70115996D01*
X63216657Y-70326433D01*
X63355483Y-70517510D01*
X63522490Y-70684517D01*
X63713567Y-70823343D01*
X63812991Y-70874002D01*
X63924003Y-70930566D01*
X63924005Y-70930566D01*
X63924008Y-70930568D01*
X64044412Y-70969689D01*
X64148631Y-71003553D01*
X64381903Y-71040500D01*
X64381908Y-71040500D01*
X64618097Y-71040500D01*
X64851368Y-71003553D01*
X65075992Y-70930568D01*
X65286433Y-70823343D01*
X65477510Y-70684517D01*
X65644517Y-70517510D01*
X65783343Y-70326433D01*
X65890568Y-70115992D01*
X65963553Y-69891368D01*
X65965052Y-69881902D01*
X66000500Y-69658097D01*
X66000500Y-69421902D01*
X65963553Y-69188631D01*
X65909569Y-69022487D01*
X65890568Y-68964008D01*
X65890566Y-68964005D01*
X65890566Y-68964003D01*
X65783342Y-68753566D01*
X65756526Y-68716657D01*
X65644517Y-68562490D01*
X65477510Y-68395483D01*
X65442872Y-68370317D01*
X65400207Y-68314989D01*
X65394228Y-68245375D01*
X65426833Y-68183580D01*
X65442873Y-68169682D01*
X65477510Y-68144517D01*
X65644517Y-67977510D01*
X65783343Y-67786433D01*
X65890568Y-67575992D01*
X65963553Y-67351368D01*
X65978037Y-67259919D01*
X66000500Y-67118097D01*
X66000500Y-66881902D01*
X65963553Y-66648631D01*
X65918875Y-66511128D01*
X65890568Y-66424008D01*
X65890566Y-66424005D01*
X65890566Y-66424003D01*
X65783342Y-66213566D01*
X65644517Y-66022490D01*
X65477510Y-65855483D01*
X65286433Y-65716657D01*
X65075996Y-65609433D01*
X64851368Y-65536446D01*
X64618097Y-65499500D01*
X64618092Y-65499500D01*
X64381908Y-65499500D01*
X64381903Y-65499500D01*
X64148628Y-65536447D01*
X64075803Y-65560109D01*
X64005962Y-65562104D01*
X63949805Y-65529859D01*
X60686819Y-62266873D01*
X60653334Y-62205550D01*
X60650500Y-62179192D01*
X60650500Y-57301902D01*
X62999500Y-57301902D01*
X62999500Y-57538097D01*
X63036446Y-57771368D01*
X63109433Y-57995996D01*
X63149943Y-58075500D01*
X63216657Y-58206433D01*
X63355483Y-58397510D01*
X63522490Y-58564517D01*
X63557127Y-58589683D01*
X63599792Y-58645013D01*
X63605771Y-58714626D01*
X63573165Y-58776421D01*
X63557130Y-58790315D01*
X63545923Y-58798458D01*
X63522488Y-58815484D01*
X63355485Y-58982487D01*
X63355485Y-58982488D01*
X63355483Y-58982490D01*
X63295862Y-59064550D01*
X63216657Y-59173566D01*
X63109433Y-59384003D01*
X63036446Y-59608631D01*
X62999500Y-59841902D01*
X62999500Y-60078097D01*
X63036446Y-60311368D01*
X63109433Y-60535996D01*
X63210062Y-60733489D01*
X63216657Y-60746433D01*
X63355483Y-60937510D01*
X63522490Y-61104517D01*
X63713567Y-61243343D01*
X63806326Y-61290606D01*
X63924003Y-61350566D01*
X63924005Y-61350566D01*
X63924008Y-61350568D01*
X64044412Y-61389689D01*
X64148631Y-61423553D01*
X64381903Y-61460500D01*
X64381908Y-61460500D01*
X64618097Y-61460500D01*
X64851368Y-61423553D01*
X64873958Y-61416213D01*
X65075992Y-61350568D01*
X65286433Y-61243343D01*
X65477510Y-61104517D01*
X65644517Y-60937510D01*
X65783343Y-60746433D01*
X65890568Y-60535992D01*
X65963553Y-60311368D01*
X65984138Y-60181401D01*
X66000500Y-60078097D01*
X66000500Y-59841902D01*
X65963553Y-59608631D01*
X65890566Y-59384003D01*
X65834002Y-59272991D01*
X65783343Y-59173567D01*
X65644517Y-58982490D01*
X65477510Y-58815483D01*
X65442872Y-58790317D01*
X65400207Y-58734989D01*
X65394228Y-58665375D01*
X65426833Y-58603580D01*
X65442873Y-58589682D01*
X65477510Y-58564517D01*
X65644517Y-58397510D01*
X65783343Y-58206433D01*
X65890568Y-57995992D01*
X65963553Y-57771368D01*
X66000500Y-57538097D01*
X66000500Y-57301902D01*
X65963553Y-57068631D01*
X65929689Y-56964412D01*
X65890568Y-56844008D01*
X65890566Y-56844005D01*
X65890566Y-56844003D01*
X65783342Y-56633566D01*
X65644517Y-56442490D01*
X65477510Y-56275483D01*
X65286433Y-56136657D01*
X65255353Y-56120821D01*
X65075996Y-56029433D01*
X64851368Y-55956446D01*
X64618097Y-55919500D01*
X64618092Y-55919500D01*
X64381908Y-55919500D01*
X64381903Y-55919500D01*
X64148631Y-55956446D01*
X63924003Y-56029433D01*
X63713566Y-56136657D01*
X63607803Y-56213499D01*
X63522490Y-56275483D01*
X63522488Y-56275485D01*
X63522487Y-56275485D01*
X63355485Y-56442487D01*
X63355485Y-56442488D01*
X63355483Y-56442490D01*
X63295862Y-56524550D01*
X63216657Y-56633566D01*
X63109433Y-56844003D01*
X63036446Y-57068631D01*
X62999500Y-57301902D01*
X60650500Y-57301902D01*
X60650500Y-46869808D01*
X60670185Y-46802769D01*
X60722989Y-46757014D01*
X60792147Y-46747070D01*
X60855703Y-46776095D01*
X60862181Y-46782127D01*
X62550324Y-48470271D01*
X62550327Y-48470274D01*
X62656160Y-48540989D01*
X62656871Y-48541464D01*
X62656877Y-48541467D01*
X62747118Y-48578846D01*
X62775256Y-48590501D01*
X62775260Y-48590501D01*
X62775261Y-48590502D01*
X62900928Y-48615500D01*
X62900931Y-48615500D01*
X63071408Y-48615500D01*
X63138447Y-48635185D01*
X63181893Y-48683205D01*
X63216657Y-48751433D01*
X63355483Y-48942510D01*
X63522490Y-49109517D01*
X63557127Y-49134683D01*
X63599792Y-49190013D01*
X63605771Y-49259626D01*
X63573165Y-49321421D01*
X63557130Y-49335315D01*
X63543712Y-49345064D01*
X63522488Y-49360484D01*
X63355485Y-49527487D01*
X63355485Y-49527488D01*
X63355483Y-49527490D01*
X63295862Y-49609550D01*
X63216657Y-49718566D01*
X63109433Y-49929003D01*
X63036446Y-50153631D01*
X62999500Y-50386902D01*
X62999500Y-50623097D01*
X63036446Y-50856368D01*
X63109433Y-51080996D01*
X63203958Y-51266510D01*
X63216657Y-51291433D01*
X63355483Y-51482510D01*
X63522490Y-51649517D01*
X63713567Y-51788343D01*
X63812991Y-51839002D01*
X63924003Y-51895566D01*
X63924005Y-51895566D01*
X63924008Y-51895568D01*
X64044412Y-51934689D01*
X64148631Y-51968553D01*
X64381903Y-52005500D01*
X64381908Y-52005500D01*
X64618097Y-52005500D01*
X64851368Y-51968553D01*
X64855163Y-51967320D01*
X65075992Y-51895568D01*
X65286433Y-51788343D01*
X65477510Y-51649517D01*
X65644517Y-51482510D01*
X65783343Y-51291433D01*
X65890568Y-51080992D01*
X65963553Y-50856368D01*
X65977274Y-50769737D01*
X66000500Y-50623097D01*
X66000500Y-50386902D01*
X65963553Y-50153631D01*
X65890566Y-49929003D01*
X65807771Y-49766510D01*
X65783343Y-49718567D01*
X65644517Y-49527490D01*
X65477510Y-49360483D01*
X65442872Y-49335317D01*
X65400207Y-49279989D01*
X65394228Y-49210375D01*
X65426833Y-49148580D01*
X65442873Y-49134682D01*
X65446237Y-49132238D01*
X65477510Y-49109517D01*
X65644517Y-48942510D01*
X65783343Y-48751433D01*
X65890568Y-48540992D01*
X65963553Y-48316368D01*
X65971452Y-48266498D01*
X66000500Y-48083097D01*
X66000500Y-47846902D01*
X65963553Y-47613631D01*
X65890566Y-47389003D01*
X65814495Y-47239707D01*
X65783343Y-47178567D01*
X65644517Y-46987490D01*
X65477510Y-46820483D01*
X65286433Y-46681657D01*
X65075996Y-46574433D01*
X64851368Y-46501446D01*
X64618097Y-46464500D01*
X64618092Y-46464500D01*
X64381908Y-46464500D01*
X64381903Y-46464500D01*
X64148631Y-46501446D01*
X63924003Y-46574433D01*
X63713566Y-46681657D01*
X63642210Y-46733501D01*
X63522490Y-46820483D01*
X63522488Y-46820485D01*
X63522487Y-46820485D01*
X63355484Y-46987488D01*
X63252278Y-47129538D01*
X63196947Y-47172203D01*
X63127334Y-47178182D01*
X63065539Y-47145576D01*
X63064279Y-47144333D01*
X61186819Y-45266873D01*
X61153334Y-45205550D01*
X61150500Y-45179192D01*
X61150500Y-39435928D01*
X61125502Y-39310261D01*
X61125501Y-39310260D01*
X61125501Y-39310256D01*
X61076465Y-39191873D01*
X61056008Y-39161257D01*
X61005276Y-39085330D01*
X61005274Y-39085328D01*
X61005272Y-39085325D01*
X61005271Y-39085324D01*
X59246127Y-37326181D01*
X59212642Y-37264858D01*
X59217626Y-37195166D01*
X59259498Y-37139233D01*
X59324962Y-37114816D01*
X59333808Y-37114500D01*
X62183192Y-37114500D01*
X62250231Y-37134185D01*
X62270873Y-37150819D01*
X63029859Y-37909805D01*
X63063344Y-37971128D01*
X63060109Y-38035803D01*
X63036447Y-38108628D01*
X62999500Y-38341902D01*
X62999500Y-38578097D01*
X63036446Y-38811368D01*
X63109433Y-39035996D01*
X63198695Y-39211181D01*
X63216657Y-39246433D01*
X63355483Y-39437510D01*
X63522490Y-39604517D01*
X63557127Y-39629683D01*
X63599792Y-39685013D01*
X63605771Y-39754626D01*
X63573165Y-39816421D01*
X63557130Y-39830315D01*
X63539365Y-39843222D01*
X63522488Y-39855484D01*
X63355485Y-40022487D01*
X63355485Y-40022488D01*
X63355483Y-40022490D01*
X63320904Y-40070084D01*
X63216657Y-40213566D01*
X63109433Y-40424003D01*
X63036446Y-40648631D01*
X62999500Y-40881902D01*
X62999500Y-41118097D01*
X63036446Y-41351368D01*
X63109433Y-41575996D01*
X63192423Y-41738871D01*
X63216657Y-41786433D01*
X63355483Y-41977510D01*
X63522490Y-42144517D01*
X63713567Y-42283343D01*
X63799663Y-42327211D01*
X63924003Y-42390566D01*
X63924005Y-42390566D01*
X63924008Y-42390568D01*
X64044412Y-42429689D01*
X64148631Y-42463553D01*
X64381903Y-42500500D01*
X64381908Y-42500500D01*
X64618097Y-42500500D01*
X64851368Y-42463553D01*
X64867492Y-42458314D01*
X65075992Y-42390568D01*
X65286433Y-42283343D01*
X65477510Y-42144517D01*
X65644517Y-41977510D01*
X65783343Y-41786433D01*
X65890568Y-41575992D01*
X65963553Y-41351368D01*
X65973177Y-41290606D01*
X66000500Y-41118097D01*
X66000500Y-40881902D01*
X65963553Y-40648631D01*
X65924738Y-40529172D01*
X65890568Y-40424008D01*
X65890566Y-40424005D01*
X65890566Y-40424003D01*
X65829166Y-40303500D01*
X65783343Y-40213567D01*
X65644517Y-40022490D01*
X65477510Y-39855483D01*
X65442872Y-39830317D01*
X65400207Y-39774989D01*
X65394228Y-39705375D01*
X65426833Y-39643580D01*
X65442873Y-39629682D01*
X65455061Y-39620827D01*
X65477510Y-39604517D01*
X65644517Y-39437510D01*
X65783343Y-39246433D01*
X65890568Y-39035992D01*
X65963553Y-38811368D01*
X65987481Y-38660292D01*
X66000500Y-38578097D01*
X66000500Y-38341902D01*
X65963553Y-38108631D01*
X65918875Y-37971128D01*
X65890568Y-37884008D01*
X65890566Y-37884005D01*
X65890566Y-37884003D01*
X65783342Y-37673566D01*
X65644517Y-37482490D01*
X65477510Y-37315483D01*
X65286433Y-37176657D01*
X65252963Y-37159603D01*
X65075996Y-37069433D01*
X64851368Y-36996446D01*
X64618097Y-36959500D01*
X64618092Y-36959500D01*
X64381908Y-36959500D01*
X64381903Y-36959500D01*
X64148628Y-36996447D01*
X64075803Y-37020109D01*
X64005962Y-37022104D01*
X63949805Y-36989859D01*
X62918674Y-35958727D01*
X62918673Y-35958726D01*
X62918669Y-35958723D01*
X62812127Y-35887535D01*
X62693744Y-35838499D01*
X62693738Y-35838497D01*
X62568071Y-35813500D01*
X62568069Y-35813500D01*
X55117941Y-35813500D01*
X55050902Y-35793815D01*
X55005147Y-35741011D01*
X54995203Y-35671853D01*
X55024228Y-35608297D01*
X55030260Y-35601819D01*
X55121786Y-35510292D01*
X55121789Y-35510289D01*
X55209394Y-35379179D01*
X55269737Y-35233497D01*
X55300500Y-35078842D01*
X55300500Y-34921158D01*
X55300500Y-34921155D01*
X55300499Y-34921153D01*
X55269738Y-34766510D01*
X55269737Y-34766503D01*
X55249616Y-34717927D01*
X55209396Y-34620825D01*
X55209394Y-34620822D01*
X55209394Y-34620821D01*
X55174694Y-34568889D01*
X55153816Y-34502215D01*
X55172300Y-34434835D01*
X55174676Y-34431136D01*
X55209394Y-34379179D01*
X55269737Y-34233497D01*
X55300500Y-34078842D01*
X55300500Y-33921158D01*
X55300500Y-33921155D01*
X55300499Y-33921153D01*
X55274531Y-33790606D01*
X55269737Y-33766503D01*
X55258695Y-33739844D01*
X55209396Y-33620825D01*
X55209394Y-33620822D01*
X55209394Y-33620821D01*
X55174694Y-33568889D01*
X55153816Y-33502215D01*
X55172300Y-33434835D01*
X55174676Y-33431136D01*
X55209394Y-33379179D01*
X55269737Y-33233497D01*
X55300500Y-33078842D01*
X55300500Y-32921158D01*
X55300500Y-32921155D01*
X55300499Y-32921153D01*
X55269738Y-32766510D01*
X55269737Y-32766503D01*
X55250012Y-32718882D01*
X55209397Y-32620827D01*
X55209390Y-32620814D01*
X55121789Y-32489711D01*
X55121786Y-32489707D01*
X55010292Y-32378213D01*
X55010288Y-32378210D01*
X54879185Y-32290609D01*
X54879172Y-32290602D01*
X54733501Y-32230264D01*
X54733489Y-32230261D01*
X54578845Y-32199500D01*
X54578842Y-32199500D01*
X54421158Y-32199500D01*
X54421155Y-32199500D01*
X54266510Y-32230261D01*
X54266498Y-32230264D01*
X54120827Y-32290602D01*
X54120814Y-32290609D01*
X53989711Y-32378210D01*
X53989707Y-32378213D01*
X53878213Y-32489707D01*
X53878210Y-32489711D01*
X53790609Y-32620814D01*
X53790602Y-32620827D01*
X53730264Y-32766498D01*
X53730261Y-32766510D01*
X53699500Y-32921153D01*
X53699500Y-33078846D01*
X53730261Y-33233489D01*
X53730264Y-33233501D01*
X53790602Y-33379172D01*
X53790609Y-33379185D01*
X53825304Y-33431109D01*
X53846182Y-33497786D01*
X53827698Y-33565167D01*
X53825304Y-33568891D01*
X53790609Y-33620814D01*
X53790602Y-33620827D01*
X53730264Y-33766498D01*
X53730261Y-33766510D01*
X53699500Y-33921153D01*
X53699500Y-34078846D01*
X53730261Y-34233489D01*
X53730264Y-34233501D01*
X53790602Y-34379172D01*
X53790609Y-34379185D01*
X53825304Y-34431109D01*
X53846182Y-34497786D01*
X53827698Y-34565167D01*
X53825304Y-34568891D01*
X53790609Y-34620814D01*
X53790602Y-34620827D01*
X53730264Y-34766498D01*
X53730261Y-34766510D01*
X53699500Y-34921153D01*
X53699500Y-35078846D01*
X53730261Y-35233489D01*
X53730264Y-35233501D01*
X53790602Y-35379172D01*
X53790609Y-35379185D01*
X53878210Y-35510288D01*
X53878213Y-35510292D01*
X53969740Y-35601819D01*
X54003225Y-35663142D01*
X53998241Y-35732834D01*
X53956369Y-35788767D01*
X53890905Y-35813184D01*
X53882059Y-35813500D01*
X47784808Y-35813500D01*
X47717769Y-35793815D01*
X47697127Y-35777181D01*
X46422694Y-34502747D01*
X46414673Y-34494726D01*
X46414669Y-34494723D01*
X46308127Y-34423535D01*
X46308122Y-34423533D01*
X46302376Y-34421153D01*
X48699500Y-34421153D01*
X48699500Y-34578846D01*
X48730261Y-34733489D01*
X48730264Y-34733501D01*
X48790602Y-34879172D01*
X48790609Y-34879185D01*
X48878210Y-35010288D01*
X48878213Y-35010292D01*
X48989707Y-35121786D01*
X48989711Y-35121789D01*
X49120814Y-35209390D01*
X49120827Y-35209397D01*
X49266498Y-35269735D01*
X49266503Y-35269737D01*
X49421153Y-35300499D01*
X49421156Y-35300500D01*
X49421158Y-35300500D01*
X49578844Y-35300500D01*
X49578845Y-35300499D01*
X49733497Y-35269737D01*
X49879179Y-35209394D01*
X50010289Y-35121789D01*
X50121789Y-35010289D01*
X50209394Y-34879179D01*
X50269737Y-34733497D01*
X50300500Y-34578842D01*
X50300500Y-34421158D01*
X50300500Y-34421155D01*
X50300499Y-34421153D01*
X50291218Y-34374497D01*
X50269737Y-34266503D01*
X50218918Y-34143813D01*
X50209397Y-34120827D01*
X50209390Y-34120814D01*
X50121789Y-33989711D01*
X50121786Y-33989707D01*
X50010292Y-33878213D01*
X50010288Y-33878210D01*
X49879185Y-33790609D01*
X49879172Y-33790602D01*
X49733501Y-33730264D01*
X49733489Y-33730261D01*
X49578845Y-33699500D01*
X49578842Y-33699500D01*
X49421158Y-33699500D01*
X49421155Y-33699500D01*
X49266510Y-33730261D01*
X49266498Y-33730264D01*
X49120827Y-33790602D01*
X49120814Y-33790609D01*
X48989711Y-33878210D01*
X48989707Y-33878213D01*
X48878213Y-33989707D01*
X48878210Y-33989711D01*
X48790609Y-34120814D01*
X48790602Y-34120827D01*
X48730264Y-34266498D01*
X48730261Y-34266510D01*
X48699500Y-34421153D01*
X46302376Y-34421153D01*
X46189744Y-34374499D01*
X46189738Y-34374497D01*
X46064071Y-34349500D01*
X46064069Y-34349500D01*
X36475604Y-34349500D01*
X36475602Y-34349500D01*
X36349934Y-34374497D01*
X36349928Y-34374499D01*
X36231548Y-34423533D01*
X36231539Y-34423538D01*
X36125004Y-34494723D01*
X36125000Y-34494726D01*
X35343724Y-35276001D01*
X35343720Y-35276005D01*
X35320169Y-35311255D01*
X35320169Y-35311256D01*
X35272534Y-35382547D01*
X35223499Y-35500928D01*
X35223497Y-35500934D01*
X35198500Y-35626601D01*
X35198500Y-36075500D01*
X35178815Y-36142539D01*
X35126011Y-36188294D01*
X35074500Y-36199500D01*
X34921155Y-36199500D01*
X34766510Y-36230261D01*
X34766498Y-36230264D01*
X34620827Y-36290602D01*
X34620814Y-36290609D01*
X34489714Y-36378208D01*
X34461962Y-36405959D01*
X34400637Y-36439442D01*
X34330946Y-36434455D01*
X34329037Y-36433725D01*
X34316545Y-36428829D01*
X34307125Y-36422535D01*
X34188742Y-36373499D01*
X34172378Y-36370244D01*
X34161575Y-36368095D01*
X34063069Y-36348500D01*
X34063067Y-36348500D01*
X28920792Y-36348500D01*
X28853753Y-36328815D01*
X28807998Y-36276011D01*
X28798054Y-36206853D01*
X28820475Y-36151613D01*
X28836759Y-36129200D01*
X28922545Y-35960836D01*
X28922545Y-35960835D01*
X28922547Y-35960832D01*
X28980940Y-35781118D01*
X28987292Y-35741011D01*
X29010500Y-35594486D01*
X29010500Y-35405513D01*
X28980940Y-35218881D01*
X28935439Y-35078846D01*
X28922547Y-35039168D01*
X28922545Y-35039165D01*
X28922545Y-35039163D01*
X28862418Y-34921158D01*
X28836760Y-34870801D01*
X28725690Y-34717927D01*
X28592073Y-34584310D01*
X28439199Y-34473240D01*
X28270832Y-34387453D01*
X28210748Y-34367930D01*
X28153073Y-34328493D01*
X28125875Y-34264135D01*
X28137790Y-34195288D01*
X28185034Y-34143813D01*
X28210746Y-34132069D01*
X28270832Y-34112547D01*
X28439199Y-34026760D01*
X28592073Y-33915690D01*
X28725690Y-33782073D01*
X28836760Y-33629199D01*
X28922547Y-33460832D01*
X28980940Y-33281118D01*
X28988482Y-33233501D01*
X29010500Y-33094486D01*
X29010500Y-32905513D01*
X28980940Y-32718881D01*
X28922545Y-32539163D01*
X28877290Y-32450347D01*
X28836760Y-32370801D01*
X28725690Y-32217927D01*
X28592073Y-32084310D01*
X28439199Y-31973240D01*
X28270836Y-31887454D01*
X28091118Y-31829059D01*
X27904486Y-31799500D01*
X27904481Y-31799500D01*
X27715519Y-31799500D01*
X27715514Y-31799500D01*
X27528881Y-31829059D01*
X27349163Y-31887454D01*
X27180800Y-31973240D01*
X27093579Y-32036610D01*
X27027927Y-32084310D01*
X27027925Y-32084312D01*
X27027924Y-32084312D01*
X26894312Y-32217924D01*
X26894312Y-32217925D01*
X26894310Y-32217927D01*
X26885347Y-32230264D01*
X26783240Y-32370800D01*
X26697454Y-32539163D01*
X26639059Y-32718881D01*
X26609500Y-32905513D01*
X26609500Y-33094486D01*
X26639059Y-33281118D01*
X26697454Y-33460836D01*
X26752512Y-33568892D01*
X26783240Y-33629199D01*
X26894310Y-33782073D01*
X27027927Y-33915690D01*
X27180801Y-34026760D01*
X27260347Y-34067290D01*
X27349163Y-34112545D01*
X27349165Y-34112545D01*
X27349168Y-34112547D01*
X27409251Y-34132069D01*
X27466926Y-34171507D01*
X27494124Y-34235866D01*
X27482209Y-34304712D01*
X27434965Y-34356188D01*
X27409253Y-34367930D01*
X27392517Y-34373368D01*
X27349163Y-34387454D01*
X27180800Y-34473240D01*
X27140188Y-34502747D01*
X27027927Y-34584310D01*
X27027925Y-34584312D01*
X27027924Y-34584312D01*
X26894312Y-34717924D01*
X26894312Y-34717925D01*
X26894310Y-34717927D01*
X26882998Y-34733497D01*
X26783240Y-34870800D01*
X26697454Y-35039163D01*
X26639059Y-35218881D01*
X26609500Y-35405513D01*
X26609500Y-35594486D01*
X26639059Y-35781118D01*
X26697454Y-35960836D01*
X26783240Y-36129200D01*
X26799525Y-36151613D01*
X26823006Y-36217419D01*
X26807181Y-36285473D01*
X26757076Y-36334169D01*
X26699208Y-36348500D01*
X23819808Y-36348500D01*
X23752769Y-36328815D01*
X23732127Y-36312181D01*
X21221113Y-33801167D01*
X21187628Y-33739844D01*
X21192612Y-33670152D01*
X21208478Y-33640598D01*
X21216760Y-33629199D01*
X21302547Y-33460832D01*
X21360940Y-33281118D01*
X21368482Y-33233501D01*
X21390500Y-33094486D01*
X21390500Y-32905513D01*
X21360940Y-32718881D01*
X21302545Y-32539163D01*
X21257290Y-32450347D01*
X21216760Y-32370801D01*
X21105690Y-32217927D01*
X20972073Y-32084310D01*
X20819199Y-31973240D01*
X20650836Y-31887454D01*
X20471118Y-31829059D01*
X20284486Y-31799500D01*
X20284481Y-31799500D01*
X20095519Y-31799500D01*
X20095514Y-31799500D01*
X19908881Y-31829059D01*
X19729163Y-31887454D01*
X19560800Y-31973240D01*
X19473579Y-32036610D01*
X19407927Y-32084310D01*
X19407925Y-32084312D01*
X19407924Y-32084312D01*
X19274312Y-32217924D01*
X19274312Y-32217925D01*
X19274310Y-32217927D01*
X19265347Y-32230264D01*
X19163240Y-32370800D01*
X19077454Y-32539163D01*
X19019059Y-32718881D01*
X18989500Y-32905513D01*
X17500500Y-32905513D01*
X17500500Y-31374500D01*
X17520185Y-31307461D01*
X17572989Y-31261706D01*
X17624500Y-31250500D01*
X67875500Y-31250500D01*
X67942539Y-31270185D01*
G37*
%TD.AperFunction*%
%TD*%
M02*
