%TF.GenerationSoftware,KiCad,Pcbnew,9.0.1*%
%TF.CreationDate,2025-10-26T21:15:07-04:00*%
%TF.ProjectId,Drone-Flight-Controller,44726f6e-652d-4466-9c69-6768742d436f,rev?*%
%TF.SameCoordinates,Original*%
%TF.FileFunction,Legend,Top*%
%TF.FilePolarity,Positive*%
%FSLAX46Y46*%
G04 Gerber Fmt 4.6, Leading zero omitted, Abs format (unit mm)*
G04 Created by KiCad (PCBNEW 9.0.1) date 2025-10-26 21:15:07*
%MOMM*%
%LPD*%
G01*
G04 APERTURE LIST*
%ADD10C,0.100000*%
%ADD11C,0.150000*%
%ADD12C,0.125000*%
%ADD13C,0.120000*%
G04 APERTURE END LIST*
D10*
X60899122Y-33100276D02*
X60899122Y-33433609D01*
X60684836Y-33100276D02*
X60684836Y-33362180D01*
X60684836Y-33362180D02*
X60708646Y-33409800D01*
X60708646Y-33409800D02*
X60756265Y-33433609D01*
X60756265Y-33433609D02*
X60827693Y-33433609D01*
X60827693Y-33433609D02*
X60875312Y-33409800D01*
X60875312Y-33409800D02*
X60899122Y-33385990D01*
X61422931Y-33385990D02*
X61399122Y-33409800D01*
X61399122Y-33409800D02*
X61327693Y-33433609D01*
X61327693Y-33433609D02*
X61280074Y-33433609D01*
X61280074Y-33433609D02*
X61208646Y-33409800D01*
X61208646Y-33409800D02*
X61161027Y-33362180D01*
X61161027Y-33362180D02*
X61137217Y-33314561D01*
X61137217Y-33314561D02*
X61113408Y-33219323D01*
X61113408Y-33219323D02*
X61113408Y-33147895D01*
X61113408Y-33147895D02*
X61137217Y-33052657D01*
X61137217Y-33052657D02*
X61161027Y-33005038D01*
X61161027Y-33005038D02*
X61208646Y-32957419D01*
X61208646Y-32957419D02*
X61280074Y-32933609D01*
X61280074Y-32933609D02*
X61327693Y-32933609D01*
X61327693Y-32933609D02*
X61399122Y-32957419D01*
X61399122Y-32957419D02*
X61422931Y-32981228D01*
X61994360Y-33409800D02*
X62041979Y-33433609D01*
X62041979Y-33433609D02*
X62137217Y-33433609D01*
X62137217Y-33433609D02*
X62184836Y-33409800D01*
X62184836Y-33409800D02*
X62208645Y-33362180D01*
X62208645Y-33362180D02*
X62208645Y-33338371D01*
X62208645Y-33338371D02*
X62184836Y-33290752D01*
X62184836Y-33290752D02*
X62137217Y-33266942D01*
X62137217Y-33266942D02*
X62065788Y-33266942D01*
X62065788Y-33266942D02*
X62018169Y-33243133D01*
X62018169Y-33243133D02*
X61994360Y-33195514D01*
X61994360Y-33195514D02*
X61994360Y-33171704D01*
X61994360Y-33171704D02*
X62018169Y-33124085D01*
X62018169Y-33124085D02*
X62065788Y-33100276D01*
X62065788Y-33100276D02*
X62137217Y-33100276D01*
X62137217Y-33100276D02*
X62184836Y-33124085D01*
X62351503Y-33100276D02*
X62541979Y-33100276D01*
X62422931Y-32933609D02*
X62422931Y-33362180D01*
X62422931Y-33362180D02*
X62446741Y-33409800D01*
X62446741Y-33409800D02*
X62494360Y-33433609D01*
X62494360Y-33433609D02*
X62541979Y-33433609D01*
X62922931Y-33433609D02*
X62922931Y-33171704D01*
X62922931Y-33171704D02*
X62899121Y-33124085D01*
X62899121Y-33124085D02*
X62851502Y-33100276D01*
X62851502Y-33100276D02*
X62756264Y-33100276D01*
X62756264Y-33100276D02*
X62708645Y-33124085D01*
X62922931Y-33409800D02*
X62875312Y-33433609D01*
X62875312Y-33433609D02*
X62756264Y-33433609D01*
X62756264Y-33433609D02*
X62708645Y-33409800D01*
X62708645Y-33409800D02*
X62684836Y-33362180D01*
X62684836Y-33362180D02*
X62684836Y-33314561D01*
X62684836Y-33314561D02*
X62708645Y-33266942D01*
X62708645Y-33266942D02*
X62756264Y-33243133D01*
X62756264Y-33243133D02*
X62875312Y-33243133D01*
X62875312Y-33243133D02*
X62922931Y-33219323D01*
X63089598Y-33100276D02*
X63280074Y-33100276D01*
X63161026Y-32933609D02*
X63161026Y-33362180D01*
X63161026Y-33362180D02*
X63184836Y-33409800D01*
X63184836Y-33409800D02*
X63232455Y-33433609D01*
X63232455Y-33433609D02*
X63280074Y-33433609D01*
X63661026Y-33100276D02*
X63661026Y-33433609D01*
X63446740Y-33100276D02*
X63446740Y-33362180D01*
X63446740Y-33362180D02*
X63470550Y-33409800D01*
X63470550Y-33409800D02*
X63518169Y-33433609D01*
X63518169Y-33433609D02*
X63589597Y-33433609D01*
X63589597Y-33433609D02*
X63637216Y-33409800D01*
X63637216Y-33409800D02*
X63661026Y-33385990D01*
X63875312Y-33409800D02*
X63922931Y-33433609D01*
X63922931Y-33433609D02*
X64018169Y-33433609D01*
X64018169Y-33433609D02*
X64065788Y-33409800D01*
X64065788Y-33409800D02*
X64089597Y-33362180D01*
X64089597Y-33362180D02*
X64089597Y-33338371D01*
X64089597Y-33338371D02*
X64065788Y-33290752D01*
X64065788Y-33290752D02*
X64018169Y-33266942D01*
X64018169Y-33266942D02*
X63946740Y-33266942D01*
X63946740Y-33266942D02*
X63899121Y-33243133D01*
X63899121Y-33243133D02*
X63875312Y-33195514D01*
X63875312Y-33195514D02*
X63875312Y-33171704D01*
X63875312Y-33171704D02*
X63899121Y-33124085D01*
X63899121Y-33124085D02*
X63946740Y-33100276D01*
X63946740Y-33100276D02*
X64018169Y-33100276D01*
X64018169Y-33100276D02*
X64065788Y-33124085D01*
X60922931Y-33933609D02*
X60684836Y-33933609D01*
X60684836Y-33933609D02*
X60661027Y-34171704D01*
X60661027Y-34171704D02*
X60684836Y-34147895D01*
X60684836Y-34147895D02*
X60732455Y-34124085D01*
X60732455Y-34124085D02*
X60851503Y-34124085D01*
X60851503Y-34124085D02*
X60899122Y-34147895D01*
X60899122Y-34147895D02*
X60922931Y-34171704D01*
X60922931Y-34171704D02*
X60946741Y-34219323D01*
X60946741Y-34219323D02*
X60946741Y-34338371D01*
X60946741Y-34338371D02*
X60922931Y-34385990D01*
X60922931Y-34385990D02*
X60899122Y-34409800D01*
X60899122Y-34409800D02*
X60851503Y-34433609D01*
X60851503Y-34433609D02*
X60732455Y-34433609D01*
X60732455Y-34433609D02*
X60684836Y-34409800D01*
X60684836Y-34409800D02*
X60661027Y-34385990D01*
X61113407Y-34100276D02*
X61232455Y-34433609D01*
X61232455Y-34433609D02*
X61351502Y-34100276D01*
X61994359Y-34433609D02*
X61946740Y-34409800D01*
X61946740Y-34409800D02*
X61922930Y-34385990D01*
X61922930Y-34385990D02*
X61899121Y-34338371D01*
X61899121Y-34338371D02*
X61899121Y-34195514D01*
X61899121Y-34195514D02*
X61922930Y-34147895D01*
X61922930Y-34147895D02*
X61946740Y-34124085D01*
X61946740Y-34124085D02*
X61994359Y-34100276D01*
X61994359Y-34100276D02*
X62065787Y-34100276D01*
X62065787Y-34100276D02*
X62113406Y-34124085D01*
X62113406Y-34124085D02*
X62137216Y-34147895D01*
X62137216Y-34147895D02*
X62161025Y-34195514D01*
X62161025Y-34195514D02*
X62161025Y-34338371D01*
X62161025Y-34338371D02*
X62137216Y-34385990D01*
X62137216Y-34385990D02*
X62113406Y-34409800D01*
X62113406Y-34409800D02*
X62065787Y-34433609D01*
X62065787Y-34433609D02*
X61994359Y-34433609D01*
X62375311Y-34433609D02*
X62375311Y-33933609D01*
X62422930Y-34243133D02*
X62565787Y-34433609D01*
X62565787Y-34100276D02*
X62375311Y-34290752D01*
X60637217Y-34933609D02*
X60946741Y-34933609D01*
X60946741Y-34933609D02*
X60780074Y-35124085D01*
X60780074Y-35124085D02*
X60851503Y-35124085D01*
X60851503Y-35124085D02*
X60899122Y-35147895D01*
X60899122Y-35147895D02*
X60922931Y-35171704D01*
X60922931Y-35171704D02*
X60946741Y-35219323D01*
X60946741Y-35219323D02*
X60946741Y-35338371D01*
X60946741Y-35338371D02*
X60922931Y-35385990D01*
X60922931Y-35385990D02*
X60899122Y-35409800D01*
X60899122Y-35409800D02*
X60851503Y-35433609D01*
X60851503Y-35433609D02*
X60708646Y-35433609D01*
X60708646Y-35433609D02*
X60661027Y-35409800D01*
X60661027Y-35409800D02*
X60637217Y-35385990D01*
X61161026Y-35385990D02*
X61184836Y-35409800D01*
X61184836Y-35409800D02*
X61161026Y-35433609D01*
X61161026Y-35433609D02*
X61137217Y-35409800D01*
X61137217Y-35409800D02*
X61161026Y-35385990D01*
X61161026Y-35385990D02*
X61161026Y-35433609D01*
X61351502Y-34933609D02*
X61661026Y-34933609D01*
X61661026Y-34933609D02*
X61494359Y-35124085D01*
X61494359Y-35124085D02*
X61565788Y-35124085D01*
X61565788Y-35124085D02*
X61613407Y-35147895D01*
X61613407Y-35147895D02*
X61637216Y-35171704D01*
X61637216Y-35171704D02*
X61661026Y-35219323D01*
X61661026Y-35219323D02*
X61661026Y-35338371D01*
X61661026Y-35338371D02*
X61637216Y-35385990D01*
X61637216Y-35385990D02*
X61613407Y-35409800D01*
X61613407Y-35409800D02*
X61565788Y-35433609D01*
X61565788Y-35433609D02*
X61422931Y-35433609D01*
X61422931Y-35433609D02*
X61375312Y-35409800D01*
X61375312Y-35409800D02*
X61351502Y-35385990D01*
X61827692Y-35100276D02*
X61946740Y-35433609D01*
X61946740Y-35433609D02*
X62065787Y-35100276D01*
X62708644Y-35433609D02*
X62661025Y-35409800D01*
X62661025Y-35409800D02*
X62637215Y-35385990D01*
X62637215Y-35385990D02*
X62613406Y-35338371D01*
X62613406Y-35338371D02*
X62613406Y-35195514D01*
X62613406Y-35195514D02*
X62637215Y-35147895D01*
X62637215Y-35147895D02*
X62661025Y-35124085D01*
X62661025Y-35124085D02*
X62708644Y-35100276D01*
X62708644Y-35100276D02*
X62780072Y-35100276D01*
X62780072Y-35100276D02*
X62827691Y-35124085D01*
X62827691Y-35124085D02*
X62851501Y-35147895D01*
X62851501Y-35147895D02*
X62875310Y-35195514D01*
X62875310Y-35195514D02*
X62875310Y-35338371D01*
X62875310Y-35338371D02*
X62851501Y-35385990D01*
X62851501Y-35385990D02*
X62827691Y-35409800D01*
X62827691Y-35409800D02*
X62780072Y-35433609D01*
X62780072Y-35433609D02*
X62708644Y-35433609D01*
X63089596Y-35433609D02*
X63089596Y-34933609D01*
X63137215Y-35243133D02*
X63280072Y-35433609D01*
X63280072Y-35100276D02*
X63089596Y-35290752D01*
X21603884Y-57179180D02*
X21756265Y-57179180D01*
X21661027Y-57045847D02*
X21661027Y-57388704D01*
X21661027Y-57388704D02*
X21680074Y-57426800D01*
X21680074Y-57426800D02*
X21718169Y-57445847D01*
X21718169Y-57445847D02*
X21756265Y-57445847D01*
X21889598Y-57445847D02*
X21889598Y-57045847D01*
X22061026Y-57445847D02*
X22061026Y-57236323D01*
X22061026Y-57236323D02*
X22041979Y-57198228D01*
X22041979Y-57198228D02*
X22003883Y-57179180D01*
X22003883Y-57179180D02*
X21946740Y-57179180D01*
X21946740Y-57179180D02*
X21908645Y-57198228D01*
X21908645Y-57198228D02*
X21889598Y-57217276D01*
X22251503Y-57445847D02*
X22251503Y-57179180D01*
X22251503Y-57045847D02*
X22232455Y-57064895D01*
X22232455Y-57064895D02*
X22251503Y-57083942D01*
X22251503Y-57083942D02*
X22270550Y-57064895D01*
X22270550Y-57064895D02*
X22251503Y-57045847D01*
X22251503Y-57045847D02*
X22251503Y-57083942D01*
X22422931Y-57426800D02*
X22461026Y-57445847D01*
X22461026Y-57445847D02*
X22537217Y-57445847D01*
X22537217Y-57445847D02*
X22575312Y-57426800D01*
X22575312Y-57426800D02*
X22594360Y-57388704D01*
X22594360Y-57388704D02*
X22594360Y-57369657D01*
X22594360Y-57369657D02*
X22575312Y-57331561D01*
X22575312Y-57331561D02*
X22537217Y-57312514D01*
X22537217Y-57312514D02*
X22480074Y-57312514D01*
X22480074Y-57312514D02*
X22441979Y-57293466D01*
X22441979Y-57293466D02*
X22422931Y-57255371D01*
X22422931Y-57255371D02*
X22422931Y-57236323D01*
X22422931Y-57236323D02*
X22441979Y-57198228D01*
X22441979Y-57198228D02*
X22480074Y-57179180D01*
X22480074Y-57179180D02*
X22537217Y-57179180D01*
X22537217Y-57179180D02*
X22575312Y-57198228D01*
X23032455Y-57179180D02*
X23241979Y-57179180D01*
X23241979Y-57179180D02*
X23032455Y-57445847D01*
X23032455Y-57445847D02*
X23241979Y-57445847D01*
X23451503Y-57445847D02*
X23413408Y-57426800D01*
X23413408Y-57426800D02*
X23394361Y-57407752D01*
X23394361Y-57407752D02*
X23375313Y-57369657D01*
X23375313Y-57369657D02*
X23375313Y-57255371D01*
X23375313Y-57255371D02*
X23394361Y-57217276D01*
X23394361Y-57217276D02*
X23413408Y-57198228D01*
X23413408Y-57198228D02*
X23451503Y-57179180D01*
X23451503Y-57179180D02*
X23508646Y-57179180D01*
X23508646Y-57179180D02*
X23546742Y-57198228D01*
X23546742Y-57198228D02*
X23565789Y-57217276D01*
X23565789Y-57217276D02*
X23584837Y-57255371D01*
X23584837Y-57255371D02*
X23584837Y-57369657D01*
X23584837Y-57369657D02*
X23565789Y-57407752D01*
X23565789Y-57407752D02*
X23546742Y-57426800D01*
X23546742Y-57426800D02*
X23508646Y-57445847D01*
X23508646Y-57445847D02*
X23451503Y-57445847D01*
X23756266Y-57179180D02*
X23756266Y-57445847D01*
X23756266Y-57217276D02*
X23775313Y-57198228D01*
X23775313Y-57198228D02*
X23813408Y-57179180D01*
X23813408Y-57179180D02*
X23870551Y-57179180D01*
X23870551Y-57179180D02*
X23908647Y-57198228D01*
X23908647Y-57198228D02*
X23927694Y-57236323D01*
X23927694Y-57236323D02*
X23927694Y-57445847D01*
X24270552Y-57426800D02*
X24232456Y-57445847D01*
X24232456Y-57445847D02*
X24156266Y-57445847D01*
X24156266Y-57445847D02*
X24118171Y-57426800D01*
X24118171Y-57426800D02*
X24099123Y-57388704D01*
X24099123Y-57388704D02*
X24099123Y-57236323D01*
X24099123Y-57236323D02*
X24118171Y-57198228D01*
X24118171Y-57198228D02*
X24156266Y-57179180D01*
X24156266Y-57179180D02*
X24232456Y-57179180D01*
X24232456Y-57179180D02*
X24270552Y-57198228D01*
X24270552Y-57198228D02*
X24289599Y-57236323D01*
X24289599Y-57236323D02*
X24289599Y-57274419D01*
X24289599Y-57274419D02*
X24099123Y-57312514D01*
X24765790Y-57445847D02*
X24765790Y-57179180D01*
X24765790Y-57045847D02*
X24746742Y-57064895D01*
X24746742Y-57064895D02*
X24765790Y-57083942D01*
X24765790Y-57083942D02*
X24784837Y-57064895D01*
X24784837Y-57064895D02*
X24765790Y-57045847D01*
X24765790Y-57045847D02*
X24765790Y-57083942D01*
X24937218Y-57426800D02*
X24975313Y-57445847D01*
X24975313Y-57445847D02*
X25051504Y-57445847D01*
X25051504Y-57445847D02*
X25089599Y-57426800D01*
X25089599Y-57426800D02*
X25108647Y-57388704D01*
X25108647Y-57388704D02*
X25108647Y-57369657D01*
X25108647Y-57369657D02*
X25089599Y-57331561D01*
X25089599Y-57331561D02*
X25051504Y-57312514D01*
X25051504Y-57312514D02*
X24994361Y-57312514D01*
X24994361Y-57312514D02*
X24956266Y-57293466D01*
X24956266Y-57293466D02*
X24937218Y-57255371D01*
X24937218Y-57255371D02*
X24937218Y-57236323D01*
X24937218Y-57236323D02*
X24956266Y-57198228D01*
X24956266Y-57198228D02*
X24994361Y-57179180D01*
X24994361Y-57179180D02*
X25051504Y-57179180D01*
X25051504Y-57179180D02*
X25089599Y-57198228D01*
X25546742Y-57045847D02*
X25794361Y-57045847D01*
X25794361Y-57045847D02*
X25661028Y-57198228D01*
X25661028Y-57198228D02*
X25718171Y-57198228D01*
X25718171Y-57198228D02*
X25756266Y-57217276D01*
X25756266Y-57217276D02*
X25775314Y-57236323D01*
X25775314Y-57236323D02*
X25794361Y-57274419D01*
X25794361Y-57274419D02*
X25794361Y-57369657D01*
X25794361Y-57369657D02*
X25775314Y-57407752D01*
X25775314Y-57407752D02*
X25756266Y-57426800D01*
X25756266Y-57426800D02*
X25718171Y-57445847D01*
X25718171Y-57445847D02*
X25603885Y-57445847D01*
X25603885Y-57445847D02*
X25565790Y-57426800D01*
X25565790Y-57426800D02*
X25546742Y-57407752D01*
X25965790Y-57407752D02*
X25984837Y-57426800D01*
X25984837Y-57426800D02*
X25965790Y-57445847D01*
X25965790Y-57445847D02*
X25946742Y-57426800D01*
X25946742Y-57426800D02*
X25965790Y-57407752D01*
X25965790Y-57407752D02*
X25965790Y-57445847D01*
X26118170Y-57045847D02*
X26365789Y-57045847D01*
X26365789Y-57045847D02*
X26232456Y-57198228D01*
X26232456Y-57198228D02*
X26289599Y-57198228D01*
X26289599Y-57198228D02*
X26327694Y-57217276D01*
X26327694Y-57217276D02*
X26346742Y-57236323D01*
X26346742Y-57236323D02*
X26365789Y-57274419D01*
X26365789Y-57274419D02*
X26365789Y-57369657D01*
X26365789Y-57369657D02*
X26346742Y-57407752D01*
X26346742Y-57407752D02*
X26327694Y-57426800D01*
X26327694Y-57426800D02*
X26289599Y-57445847D01*
X26289599Y-57445847D02*
X26175313Y-57445847D01*
X26175313Y-57445847D02*
X26137218Y-57426800D01*
X26137218Y-57426800D02*
X26118170Y-57407752D01*
X26499122Y-57179180D02*
X26594360Y-57445847D01*
X26594360Y-57445847D02*
X26689599Y-57179180D01*
D11*
X55836779Y-69878922D02*
X56598684Y-69878922D01*
X56217731Y-70259875D02*
X56217731Y-69497970D01*
X57312969Y-70593208D02*
X57312969Y-69164636D01*
X58027255Y-69878922D02*
X58789160Y-69878922D01*
X56360588Y-71869819D02*
X55789160Y-71869819D01*
X56074874Y-71869819D02*
X56074874Y-70869819D01*
X56074874Y-70869819D02*
X55979636Y-71012676D01*
X55979636Y-71012676D02*
X55884398Y-71107914D01*
X55884398Y-71107914D02*
X55789160Y-71155533D01*
X56741541Y-70965057D02*
X56789160Y-70917438D01*
X56789160Y-70917438D02*
X56884398Y-70869819D01*
X56884398Y-70869819D02*
X57122493Y-70869819D01*
X57122493Y-70869819D02*
X57217731Y-70917438D01*
X57217731Y-70917438D02*
X57265350Y-70965057D01*
X57265350Y-70965057D02*
X57312969Y-71060295D01*
X57312969Y-71060295D02*
X57312969Y-71155533D01*
X57312969Y-71155533D02*
X57265350Y-71298390D01*
X57265350Y-71298390D02*
X56693922Y-71869819D01*
X56693922Y-71869819D02*
X57312969Y-71869819D01*
X57646303Y-71203152D02*
X57884398Y-71869819D01*
X57884398Y-71869819D02*
X58122493Y-71203152D01*
X59265351Y-71869819D02*
X59265351Y-71203152D01*
X59265351Y-70869819D02*
X59217732Y-70917438D01*
X59217732Y-70917438D02*
X59265351Y-70965057D01*
X59265351Y-70965057D02*
X59312970Y-70917438D01*
X59312970Y-70917438D02*
X59265351Y-70869819D01*
X59265351Y-70869819D02*
X59265351Y-70965057D01*
X59741541Y-71203152D02*
X59741541Y-71869819D01*
X59741541Y-71298390D02*
X59789160Y-71250771D01*
X59789160Y-71250771D02*
X59884398Y-71203152D01*
X59884398Y-71203152D02*
X60027255Y-71203152D01*
X60027255Y-71203152D02*
X60122493Y-71250771D01*
X60122493Y-71250771D02*
X60170112Y-71346009D01*
X60170112Y-71346009D02*
X60170112Y-71869819D01*
D10*
X27338972Y-44554152D02*
X27338972Y-44820819D01*
X27338972Y-44954152D02*
X27358020Y-44935104D01*
X27358020Y-44935104D02*
X27338972Y-44916057D01*
X27338972Y-44916057D02*
X27319925Y-44935104D01*
X27319925Y-44935104D02*
X27338972Y-44954152D01*
X27338972Y-44954152D02*
X27338972Y-44916057D01*
X27148496Y-44554152D02*
X27148496Y-44820819D01*
X27148496Y-44782723D02*
X27129449Y-44801771D01*
X27129449Y-44801771D02*
X27091354Y-44820819D01*
X27091354Y-44820819D02*
X27034211Y-44820819D01*
X27034211Y-44820819D02*
X26996115Y-44801771D01*
X26996115Y-44801771D02*
X26977068Y-44763676D01*
X26977068Y-44763676D02*
X26977068Y-44554152D01*
X26977068Y-44763676D02*
X26958020Y-44801771D01*
X26958020Y-44801771D02*
X26919925Y-44820819D01*
X26919925Y-44820819D02*
X26862782Y-44820819D01*
X26862782Y-44820819D02*
X26824687Y-44801771D01*
X26824687Y-44801771D02*
X26805639Y-44763676D01*
X26805639Y-44763676D02*
X26805639Y-44554152D01*
X26443735Y-44820819D02*
X26443735Y-44554152D01*
X26615163Y-44820819D02*
X26615163Y-44611295D01*
X26615163Y-44611295D02*
X26596116Y-44573200D01*
X26596116Y-44573200D02*
X26558021Y-44554152D01*
X26558021Y-44554152D02*
X26500878Y-44554152D01*
X26500878Y-44554152D02*
X26462782Y-44573200D01*
X26462782Y-44573200D02*
X26443735Y-44592247D01*
D11*
X64261905Y-34454819D02*
X64261905Y-33454819D01*
X64261905Y-33454819D02*
X64500000Y-33454819D01*
X64500000Y-33454819D02*
X64642857Y-33502438D01*
X64642857Y-33502438D02*
X64738095Y-33597676D01*
X64738095Y-33597676D02*
X64785714Y-33692914D01*
X64785714Y-33692914D02*
X64833333Y-33883390D01*
X64833333Y-33883390D02*
X64833333Y-34026247D01*
X64833333Y-34026247D02*
X64785714Y-34216723D01*
X64785714Y-34216723D02*
X64738095Y-34311961D01*
X64738095Y-34311961D02*
X64642857Y-34407200D01*
X64642857Y-34407200D02*
X64500000Y-34454819D01*
X64500000Y-34454819D02*
X64261905Y-34454819D01*
X65214286Y-33550057D02*
X65261905Y-33502438D01*
X65261905Y-33502438D02*
X65357143Y-33454819D01*
X65357143Y-33454819D02*
X65595238Y-33454819D01*
X65595238Y-33454819D02*
X65690476Y-33502438D01*
X65690476Y-33502438D02*
X65738095Y-33550057D01*
X65738095Y-33550057D02*
X65785714Y-33645295D01*
X65785714Y-33645295D02*
X65785714Y-33740533D01*
X65785714Y-33740533D02*
X65738095Y-33883390D01*
X65738095Y-33883390D02*
X65166667Y-34454819D01*
X65166667Y-34454819D02*
X65785714Y-34454819D01*
X64261905Y-32954819D02*
X64261905Y-31954819D01*
X64261905Y-31954819D02*
X64500000Y-31954819D01*
X64500000Y-31954819D02*
X64642857Y-32002438D01*
X64642857Y-32002438D02*
X64738095Y-32097676D01*
X64738095Y-32097676D02*
X64785714Y-32192914D01*
X64785714Y-32192914D02*
X64833333Y-32383390D01*
X64833333Y-32383390D02*
X64833333Y-32526247D01*
X64833333Y-32526247D02*
X64785714Y-32716723D01*
X64785714Y-32716723D02*
X64738095Y-32811961D01*
X64738095Y-32811961D02*
X64642857Y-32907200D01*
X64642857Y-32907200D02*
X64500000Y-32954819D01*
X64500000Y-32954819D02*
X64261905Y-32954819D01*
X65166667Y-31954819D02*
X65785714Y-31954819D01*
X65785714Y-31954819D02*
X65452381Y-32335771D01*
X65452381Y-32335771D02*
X65595238Y-32335771D01*
X65595238Y-32335771D02*
X65690476Y-32383390D01*
X65690476Y-32383390D02*
X65738095Y-32431009D01*
X65738095Y-32431009D02*
X65785714Y-32526247D01*
X65785714Y-32526247D02*
X65785714Y-32764342D01*
X65785714Y-32764342D02*
X65738095Y-32859580D01*
X65738095Y-32859580D02*
X65690476Y-32907200D01*
X65690476Y-32907200D02*
X65595238Y-32954819D01*
X65595238Y-32954819D02*
X65309524Y-32954819D01*
X65309524Y-32954819D02*
X65214286Y-32907200D01*
X65214286Y-32907200D02*
X65166667Y-32859580D01*
X64261905Y-35954819D02*
X64261905Y-34954819D01*
X64261905Y-34954819D02*
X64500000Y-34954819D01*
X64500000Y-34954819D02*
X64642857Y-35002438D01*
X64642857Y-35002438D02*
X64738095Y-35097676D01*
X64738095Y-35097676D02*
X64785714Y-35192914D01*
X64785714Y-35192914D02*
X64833333Y-35383390D01*
X64833333Y-35383390D02*
X64833333Y-35526247D01*
X64833333Y-35526247D02*
X64785714Y-35716723D01*
X64785714Y-35716723D02*
X64738095Y-35811961D01*
X64738095Y-35811961D02*
X64642857Y-35907200D01*
X64642857Y-35907200D02*
X64500000Y-35954819D01*
X64500000Y-35954819D02*
X64261905Y-35954819D01*
X65785714Y-35954819D02*
X65214286Y-35954819D01*
X65500000Y-35954819D02*
X65500000Y-34954819D01*
X65500000Y-34954819D02*
X65404762Y-35097676D01*
X65404762Y-35097676D02*
X65309524Y-35192914D01*
X65309524Y-35192914D02*
X65214286Y-35240533D01*
X44261905Y-32454819D02*
X44833333Y-32454819D01*
X44547619Y-33454819D02*
X44547619Y-32454819D01*
X45166667Y-33454819D02*
X45166667Y-32454819D01*
X45166667Y-32454819D02*
X45547619Y-32454819D01*
X45547619Y-32454819D02*
X45642857Y-32502438D01*
X45642857Y-32502438D02*
X45690476Y-32550057D01*
X45690476Y-32550057D02*
X45738095Y-32645295D01*
X45738095Y-32645295D02*
X45738095Y-32788152D01*
X45738095Y-32788152D02*
X45690476Y-32883390D01*
X45690476Y-32883390D02*
X45642857Y-32931009D01*
X45642857Y-32931009D02*
X45547619Y-32978628D01*
X45547619Y-32978628D02*
X45166667Y-32978628D01*
X46690476Y-33454819D02*
X46119048Y-33454819D01*
X46404762Y-33454819D02*
X46404762Y-32454819D01*
X46404762Y-32454819D02*
X46309524Y-32597676D01*
X46309524Y-32597676D02*
X46214286Y-32692914D01*
X46214286Y-32692914D02*
X46119048Y-32740533D01*
X47023810Y-32454819D02*
X47642857Y-32454819D01*
X47642857Y-32454819D02*
X47309524Y-32835771D01*
X47309524Y-32835771D02*
X47452381Y-32835771D01*
X47452381Y-32835771D02*
X47547619Y-32883390D01*
X47547619Y-32883390D02*
X47595238Y-32931009D01*
X47595238Y-32931009D02*
X47642857Y-33026247D01*
X47642857Y-33026247D02*
X47642857Y-33264342D01*
X47642857Y-33264342D02*
X47595238Y-33359580D01*
X47595238Y-33359580D02*
X47547619Y-33407200D01*
X47547619Y-33407200D02*
X47452381Y-33454819D01*
X47452381Y-33454819D02*
X47166667Y-33454819D01*
X47166667Y-33454819D02*
X47071429Y-33407200D01*
X47071429Y-33407200D02*
X47023810Y-33359580D01*
X47761905Y-32506819D02*
X48333333Y-32506819D01*
X48047619Y-33506819D02*
X48047619Y-32506819D01*
X48666667Y-33506819D02*
X48666667Y-32506819D01*
X48666667Y-32506819D02*
X49047619Y-32506819D01*
X49047619Y-32506819D02*
X49142857Y-32554438D01*
X49142857Y-32554438D02*
X49190476Y-32602057D01*
X49190476Y-32602057D02*
X49238095Y-32697295D01*
X49238095Y-32697295D02*
X49238095Y-32840152D01*
X49238095Y-32840152D02*
X49190476Y-32935390D01*
X49190476Y-32935390D02*
X49142857Y-32983009D01*
X49142857Y-32983009D02*
X49047619Y-33030628D01*
X49047619Y-33030628D02*
X48666667Y-33030628D01*
X50190476Y-33506819D02*
X49619048Y-33506819D01*
X49904762Y-33506819D02*
X49904762Y-32506819D01*
X49904762Y-32506819D02*
X49809524Y-32649676D01*
X49809524Y-32649676D02*
X49714286Y-32744914D01*
X49714286Y-32744914D02*
X49619048Y-32792533D01*
X50571429Y-32602057D02*
X50619048Y-32554438D01*
X50619048Y-32554438D02*
X50714286Y-32506819D01*
X50714286Y-32506819D02*
X50952381Y-32506819D01*
X50952381Y-32506819D02*
X51047619Y-32554438D01*
X51047619Y-32554438D02*
X51095238Y-32602057D01*
X51095238Y-32602057D02*
X51142857Y-32697295D01*
X51142857Y-32697295D02*
X51142857Y-32792533D01*
X51142857Y-32792533D02*
X51095238Y-32935390D01*
X51095238Y-32935390D02*
X50523810Y-33506819D01*
X50523810Y-33506819D02*
X51142857Y-33506819D01*
X31954819Y-44238094D02*
X31954819Y-43666666D01*
X32954819Y-43952380D02*
X31954819Y-43952380D01*
X32954819Y-43333332D02*
X31954819Y-43333332D01*
X31954819Y-43333332D02*
X31954819Y-42952380D01*
X31954819Y-42952380D02*
X32002438Y-42857142D01*
X32002438Y-42857142D02*
X32050057Y-42809523D01*
X32050057Y-42809523D02*
X32145295Y-42761904D01*
X32145295Y-42761904D02*
X32288152Y-42761904D01*
X32288152Y-42761904D02*
X32383390Y-42809523D01*
X32383390Y-42809523D02*
X32431009Y-42857142D01*
X32431009Y-42857142D02*
X32478628Y-42952380D01*
X32478628Y-42952380D02*
X32478628Y-43333332D01*
X32954819Y-41809523D02*
X32954819Y-42380951D01*
X32954819Y-42095237D02*
X31954819Y-42095237D01*
X31954819Y-42095237D02*
X32097676Y-42190475D01*
X32097676Y-42190475D02*
X32192914Y-42285713D01*
X32192914Y-42285713D02*
X32240533Y-42380951D01*
X32954819Y-40857142D02*
X32954819Y-41428570D01*
X32954819Y-41142856D02*
X31954819Y-41142856D01*
X31954819Y-41142856D02*
X32097676Y-41238094D01*
X32097676Y-41238094D02*
X32192914Y-41333332D01*
X32192914Y-41333332D02*
X32240533Y-41428570D01*
X29506819Y-49238094D02*
X29506819Y-48666666D01*
X30506819Y-48952380D02*
X29506819Y-48952380D01*
X30506819Y-48333332D02*
X29506819Y-48333332D01*
X29506819Y-48333332D02*
X29506819Y-47952380D01*
X29506819Y-47952380D02*
X29554438Y-47857142D01*
X29554438Y-47857142D02*
X29602057Y-47809523D01*
X29602057Y-47809523D02*
X29697295Y-47761904D01*
X29697295Y-47761904D02*
X29840152Y-47761904D01*
X29840152Y-47761904D02*
X29935390Y-47809523D01*
X29935390Y-47809523D02*
X29983009Y-47857142D01*
X29983009Y-47857142D02*
X30030628Y-47952380D01*
X30030628Y-47952380D02*
X30030628Y-48333332D01*
X30506819Y-46809523D02*
X30506819Y-47380951D01*
X30506819Y-47095237D02*
X29506819Y-47095237D01*
X29506819Y-47095237D02*
X29649676Y-47190475D01*
X29649676Y-47190475D02*
X29744914Y-47285713D01*
X29744914Y-47285713D02*
X29792533Y-47380951D01*
X29506819Y-46190475D02*
X29506819Y-46095237D01*
X29506819Y-46095237D02*
X29554438Y-45999999D01*
X29554438Y-45999999D02*
X29602057Y-45952380D01*
X29602057Y-45952380D02*
X29697295Y-45904761D01*
X29697295Y-45904761D02*
X29887771Y-45857142D01*
X29887771Y-45857142D02*
X30125866Y-45857142D01*
X30125866Y-45857142D02*
X30316342Y-45904761D01*
X30316342Y-45904761D02*
X30411580Y-45952380D01*
X30411580Y-45952380D02*
X30459200Y-45999999D01*
X30459200Y-45999999D02*
X30506819Y-46095237D01*
X30506819Y-46095237D02*
X30506819Y-46190475D01*
X30506819Y-46190475D02*
X30459200Y-46285713D01*
X30459200Y-46285713D02*
X30411580Y-46333332D01*
X30411580Y-46333332D02*
X30316342Y-46380951D01*
X30316342Y-46380951D02*
X30125866Y-46428570D01*
X30125866Y-46428570D02*
X29887771Y-46428570D01*
X29887771Y-46428570D02*
X29697295Y-46380951D01*
X29697295Y-46380951D02*
X29602057Y-46333332D01*
X29602057Y-46333332D02*
X29554438Y-46285713D01*
X29554438Y-46285713D02*
X29506819Y-46190475D01*
X31506819Y-46761904D02*
X31506819Y-46190476D01*
X32506819Y-46476190D02*
X31506819Y-46476190D01*
X32506819Y-45857142D02*
X31506819Y-45857142D01*
X31506819Y-45857142D02*
X31506819Y-45476190D01*
X31506819Y-45476190D02*
X31554438Y-45380952D01*
X31554438Y-45380952D02*
X31602057Y-45333333D01*
X31602057Y-45333333D02*
X31697295Y-45285714D01*
X31697295Y-45285714D02*
X31840152Y-45285714D01*
X31840152Y-45285714D02*
X31935390Y-45333333D01*
X31935390Y-45333333D02*
X31983009Y-45380952D01*
X31983009Y-45380952D02*
X32030628Y-45476190D01*
X32030628Y-45476190D02*
X32030628Y-45857142D01*
X32506819Y-44809523D02*
X32506819Y-44619047D01*
X32506819Y-44619047D02*
X32459200Y-44523809D01*
X32459200Y-44523809D02*
X32411580Y-44476190D01*
X32411580Y-44476190D02*
X32268723Y-44380952D01*
X32268723Y-44380952D02*
X32078247Y-44333333D01*
X32078247Y-44333333D02*
X31697295Y-44333333D01*
X31697295Y-44333333D02*
X31602057Y-44380952D01*
X31602057Y-44380952D02*
X31554438Y-44428571D01*
X31554438Y-44428571D02*
X31506819Y-44523809D01*
X31506819Y-44523809D02*
X31506819Y-44714285D01*
X31506819Y-44714285D02*
X31554438Y-44809523D01*
X31554438Y-44809523D02*
X31602057Y-44857142D01*
X31602057Y-44857142D02*
X31697295Y-44904761D01*
X31697295Y-44904761D02*
X31935390Y-44904761D01*
X31935390Y-44904761D02*
X32030628Y-44857142D01*
X32030628Y-44857142D02*
X32078247Y-44809523D01*
X32078247Y-44809523D02*
X32125866Y-44714285D01*
X32125866Y-44714285D02*
X32125866Y-44523809D01*
X32125866Y-44523809D02*
X32078247Y-44428571D01*
X32078247Y-44428571D02*
X32030628Y-44380952D01*
X32030628Y-44380952D02*
X31935390Y-44333333D01*
X33738095Y-47954819D02*
X34309523Y-47954819D01*
X34023809Y-48954819D02*
X34023809Y-47954819D01*
X34642857Y-48954819D02*
X34642857Y-47954819D01*
X34642857Y-47954819D02*
X35023809Y-47954819D01*
X35023809Y-47954819D02*
X35119047Y-48002438D01*
X35119047Y-48002438D02*
X35166666Y-48050057D01*
X35166666Y-48050057D02*
X35214285Y-48145295D01*
X35214285Y-48145295D02*
X35214285Y-48288152D01*
X35214285Y-48288152D02*
X35166666Y-48383390D01*
X35166666Y-48383390D02*
X35119047Y-48431009D01*
X35119047Y-48431009D02*
X35023809Y-48478628D01*
X35023809Y-48478628D02*
X34642857Y-48478628D01*
X35785714Y-48383390D02*
X35690476Y-48335771D01*
X35690476Y-48335771D02*
X35642857Y-48288152D01*
X35642857Y-48288152D02*
X35595238Y-48192914D01*
X35595238Y-48192914D02*
X35595238Y-48145295D01*
X35595238Y-48145295D02*
X35642857Y-48050057D01*
X35642857Y-48050057D02*
X35690476Y-48002438D01*
X35690476Y-48002438D02*
X35785714Y-47954819D01*
X35785714Y-47954819D02*
X35976190Y-47954819D01*
X35976190Y-47954819D02*
X36071428Y-48002438D01*
X36071428Y-48002438D02*
X36119047Y-48050057D01*
X36119047Y-48050057D02*
X36166666Y-48145295D01*
X36166666Y-48145295D02*
X36166666Y-48192914D01*
X36166666Y-48192914D02*
X36119047Y-48288152D01*
X36119047Y-48288152D02*
X36071428Y-48335771D01*
X36071428Y-48335771D02*
X35976190Y-48383390D01*
X35976190Y-48383390D02*
X35785714Y-48383390D01*
X35785714Y-48383390D02*
X35690476Y-48431009D01*
X35690476Y-48431009D02*
X35642857Y-48478628D01*
X35642857Y-48478628D02*
X35595238Y-48573866D01*
X35595238Y-48573866D02*
X35595238Y-48764342D01*
X35595238Y-48764342D02*
X35642857Y-48859580D01*
X35642857Y-48859580D02*
X35690476Y-48907200D01*
X35690476Y-48907200D02*
X35785714Y-48954819D01*
X35785714Y-48954819D02*
X35976190Y-48954819D01*
X35976190Y-48954819D02*
X36071428Y-48907200D01*
X36071428Y-48907200D02*
X36119047Y-48859580D01*
X36119047Y-48859580D02*
X36166666Y-48764342D01*
X36166666Y-48764342D02*
X36166666Y-48573866D01*
X36166666Y-48573866D02*
X36119047Y-48478628D01*
X36119047Y-48478628D02*
X36071428Y-48431009D01*
X36071428Y-48431009D02*
X35976190Y-48383390D01*
X36738095Y-47954819D02*
X37309523Y-47954819D01*
X37023809Y-48954819D02*
X37023809Y-47954819D01*
X37642857Y-48954819D02*
X37642857Y-47954819D01*
X37642857Y-47954819D02*
X38023809Y-47954819D01*
X38023809Y-47954819D02*
X38119047Y-48002438D01*
X38119047Y-48002438D02*
X38166666Y-48050057D01*
X38166666Y-48050057D02*
X38214285Y-48145295D01*
X38214285Y-48145295D02*
X38214285Y-48288152D01*
X38214285Y-48288152D02*
X38166666Y-48383390D01*
X38166666Y-48383390D02*
X38119047Y-48431009D01*
X38119047Y-48431009D02*
X38023809Y-48478628D01*
X38023809Y-48478628D02*
X37642857Y-48478628D01*
X38547619Y-47954819D02*
X39214285Y-47954819D01*
X39214285Y-47954819D02*
X38785714Y-48954819D01*
X48238095Y-38954819D02*
X48809523Y-38954819D01*
X48523809Y-39954819D02*
X48523809Y-38954819D01*
X49142857Y-39954819D02*
X49142857Y-38954819D01*
X49142857Y-38954819D02*
X49523809Y-38954819D01*
X49523809Y-38954819D02*
X49619047Y-39002438D01*
X49619047Y-39002438D02*
X49666666Y-39050057D01*
X49666666Y-39050057D02*
X49714285Y-39145295D01*
X49714285Y-39145295D02*
X49714285Y-39288152D01*
X49714285Y-39288152D02*
X49666666Y-39383390D01*
X49666666Y-39383390D02*
X49619047Y-39431009D01*
X49619047Y-39431009D02*
X49523809Y-39478628D01*
X49523809Y-39478628D02*
X49142857Y-39478628D01*
X50571428Y-38954819D02*
X50380952Y-38954819D01*
X50380952Y-38954819D02*
X50285714Y-39002438D01*
X50285714Y-39002438D02*
X50238095Y-39050057D01*
X50238095Y-39050057D02*
X50142857Y-39192914D01*
X50142857Y-39192914D02*
X50095238Y-39383390D01*
X50095238Y-39383390D02*
X50095238Y-39764342D01*
X50095238Y-39764342D02*
X50142857Y-39859580D01*
X50142857Y-39859580D02*
X50190476Y-39907200D01*
X50190476Y-39907200D02*
X50285714Y-39954819D01*
X50285714Y-39954819D02*
X50476190Y-39954819D01*
X50476190Y-39954819D02*
X50571428Y-39907200D01*
X50571428Y-39907200D02*
X50619047Y-39859580D01*
X50619047Y-39859580D02*
X50666666Y-39764342D01*
X50666666Y-39764342D02*
X50666666Y-39526247D01*
X50666666Y-39526247D02*
X50619047Y-39431009D01*
X50619047Y-39431009D02*
X50571428Y-39383390D01*
X50571428Y-39383390D02*
X50476190Y-39335771D01*
X50476190Y-39335771D02*
X50285714Y-39335771D01*
X50285714Y-39335771D02*
X50190476Y-39383390D01*
X50190476Y-39383390D02*
X50142857Y-39431009D01*
X50142857Y-39431009D02*
X50095238Y-39526247D01*
X33454819Y-43761904D02*
X33454819Y-43190476D01*
X34454819Y-43476190D02*
X33454819Y-43476190D01*
X34454819Y-42857142D02*
X33454819Y-42857142D01*
X33454819Y-42857142D02*
X33454819Y-42476190D01*
X33454819Y-42476190D02*
X33502438Y-42380952D01*
X33502438Y-42380952D02*
X33550057Y-42333333D01*
X33550057Y-42333333D02*
X33645295Y-42285714D01*
X33645295Y-42285714D02*
X33788152Y-42285714D01*
X33788152Y-42285714D02*
X33883390Y-42333333D01*
X33883390Y-42333333D02*
X33931009Y-42380952D01*
X33931009Y-42380952D02*
X33978628Y-42476190D01*
X33978628Y-42476190D02*
X33978628Y-42857142D01*
X33454819Y-41380952D02*
X33454819Y-41857142D01*
X33454819Y-41857142D02*
X33931009Y-41904761D01*
X33931009Y-41904761D02*
X33883390Y-41857142D01*
X33883390Y-41857142D02*
X33835771Y-41761904D01*
X33835771Y-41761904D02*
X33835771Y-41523809D01*
X33835771Y-41523809D02*
X33883390Y-41428571D01*
X33883390Y-41428571D02*
X33931009Y-41380952D01*
X33931009Y-41380952D02*
X34026247Y-41333333D01*
X34026247Y-41333333D02*
X34264342Y-41333333D01*
X34264342Y-41333333D02*
X34359580Y-41380952D01*
X34359580Y-41380952D02*
X34407200Y-41428571D01*
X34407200Y-41428571D02*
X34454819Y-41523809D01*
X34454819Y-41523809D02*
X34454819Y-41761904D01*
X34454819Y-41761904D02*
X34407200Y-41857142D01*
X34407200Y-41857142D02*
X34359580Y-41904761D01*
X30506819Y-41261904D02*
X30506819Y-40690476D01*
X31506819Y-40976190D02*
X30506819Y-40976190D01*
X31506819Y-40357142D02*
X30506819Y-40357142D01*
X30506819Y-40357142D02*
X30506819Y-39976190D01*
X30506819Y-39976190D02*
X30554438Y-39880952D01*
X30554438Y-39880952D02*
X30602057Y-39833333D01*
X30602057Y-39833333D02*
X30697295Y-39785714D01*
X30697295Y-39785714D02*
X30840152Y-39785714D01*
X30840152Y-39785714D02*
X30935390Y-39833333D01*
X30935390Y-39833333D02*
X30983009Y-39880952D01*
X30983009Y-39880952D02*
X31030628Y-39976190D01*
X31030628Y-39976190D02*
X31030628Y-40357142D01*
X30840152Y-38928571D02*
X31506819Y-38928571D01*
X30459200Y-39166666D02*
X31173485Y-39404761D01*
X31173485Y-39404761D02*
X31173485Y-38785714D01*
X30738095Y-35954819D02*
X31309523Y-35954819D01*
X31023809Y-36954819D02*
X31023809Y-35954819D01*
X31642857Y-36954819D02*
X31642857Y-35954819D01*
X31642857Y-35954819D02*
X32023809Y-35954819D01*
X32023809Y-35954819D02*
X32119047Y-36002438D01*
X32119047Y-36002438D02*
X32166666Y-36050057D01*
X32166666Y-36050057D02*
X32214285Y-36145295D01*
X32214285Y-36145295D02*
X32214285Y-36288152D01*
X32214285Y-36288152D02*
X32166666Y-36383390D01*
X32166666Y-36383390D02*
X32119047Y-36431009D01*
X32119047Y-36431009D02*
X32023809Y-36478628D01*
X32023809Y-36478628D02*
X31642857Y-36478628D01*
X32547619Y-35954819D02*
X33166666Y-35954819D01*
X33166666Y-35954819D02*
X32833333Y-36335771D01*
X32833333Y-36335771D02*
X32976190Y-36335771D01*
X32976190Y-36335771D02*
X33071428Y-36383390D01*
X33071428Y-36383390D02*
X33119047Y-36431009D01*
X33119047Y-36431009D02*
X33166666Y-36526247D01*
X33166666Y-36526247D02*
X33166666Y-36764342D01*
X33166666Y-36764342D02*
X33119047Y-36859580D01*
X33119047Y-36859580D02*
X33071428Y-36907200D01*
X33071428Y-36907200D02*
X32976190Y-36954819D01*
X32976190Y-36954819D02*
X32690476Y-36954819D01*
X32690476Y-36954819D02*
X32595238Y-36907200D01*
X32595238Y-36907200D02*
X32547619Y-36859580D01*
X44238095Y-43506819D02*
X44809523Y-43506819D01*
X44523809Y-44506819D02*
X44523809Y-43506819D01*
X45142857Y-44506819D02*
X45142857Y-43506819D01*
X45142857Y-43506819D02*
X45523809Y-43506819D01*
X45523809Y-43506819D02*
X45619047Y-43554438D01*
X45619047Y-43554438D02*
X45666666Y-43602057D01*
X45666666Y-43602057D02*
X45714285Y-43697295D01*
X45714285Y-43697295D02*
X45714285Y-43840152D01*
X45714285Y-43840152D02*
X45666666Y-43935390D01*
X45666666Y-43935390D02*
X45619047Y-43983009D01*
X45619047Y-43983009D02*
X45523809Y-44030628D01*
X45523809Y-44030628D02*
X45142857Y-44030628D01*
X46095238Y-43602057D02*
X46142857Y-43554438D01*
X46142857Y-43554438D02*
X46238095Y-43506819D01*
X46238095Y-43506819D02*
X46476190Y-43506819D01*
X46476190Y-43506819D02*
X46571428Y-43554438D01*
X46571428Y-43554438D02*
X46619047Y-43602057D01*
X46619047Y-43602057D02*
X46666666Y-43697295D01*
X46666666Y-43697295D02*
X46666666Y-43792533D01*
X46666666Y-43792533D02*
X46619047Y-43935390D01*
X46619047Y-43935390D02*
X46047619Y-44506819D01*
X46047619Y-44506819D02*
X46666666Y-44506819D01*
X45857142Y-55369580D02*
X45809523Y-55417200D01*
X45809523Y-55417200D02*
X45666666Y-55464819D01*
X45666666Y-55464819D02*
X45571428Y-55464819D01*
X45571428Y-55464819D02*
X45428571Y-55417200D01*
X45428571Y-55417200D02*
X45333333Y-55321961D01*
X45333333Y-55321961D02*
X45285714Y-55226723D01*
X45285714Y-55226723D02*
X45238095Y-55036247D01*
X45238095Y-55036247D02*
X45238095Y-54893390D01*
X45238095Y-54893390D02*
X45285714Y-54702914D01*
X45285714Y-54702914D02*
X45333333Y-54607676D01*
X45333333Y-54607676D02*
X45428571Y-54512438D01*
X45428571Y-54512438D02*
X45571428Y-54464819D01*
X45571428Y-54464819D02*
X45666666Y-54464819D01*
X45666666Y-54464819D02*
X45809523Y-54512438D01*
X45809523Y-54512438D02*
X45857142Y-54560057D01*
X46809523Y-55464819D02*
X46238095Y-55464819D01*
X46523809Y-55464819D02*
X46523809Y-54464819D01*
X46523809Y-54464819D02*
X46428571Y-54607676D01*
X46428571Y-54607676D02*
X46333333Y-54702914D01*
X46333333Y-54702914D02*
X46238095Y-54750533D01*
X47428571Y-54464819D02*
X47523809Y-54464819D01*
X47523809Y-54464819D02*
X47619047Y-54512438D01*
X47619047Y-54512438D02*
X47666666Y-54560057D01*
X47666666Y-54560057D02*
X47714285Y-54655295D01*
X47714285Y-54655295D02*
X47761904Y-54845771D01*
X47761904Y-54845771D02*
X47761904Y-55083866D01*
X47761904Y-55083866D02*
X47714285Y-55274342D01*
X47714285Y-55274342D02*
X47666666Y-55369580D01*
X47666666Y-55369580D02*
X47619047Y-55417200D01*
X47619047Y-55417200D02*
X47523809Y-55464819D01*
X47523809Y-55464819D02*
X47428571Y-55464819D01*
X47428571Y-55464819D02*
X47333333Y-55417200D01*
X47333333Y-55417200D02*
X47285714Y-55369580D01*
X47285714Y-55369580D02*
X47238095Y-55274342D01*
X47238095Y-55274342D02*
X47190476Y-55083866D01*
X47190476Y-55083866D02*
X47190476Y-54845771D01*
X47190476Y-54845771D02*
X47238095Y-54655295D01*
X47238095Y-54655295D02*
X47285714Y-54560057D01*
X47285714Y-54560057D02*
X47333333Y-54512438D01*
X47333333Y-54512438D02*
X47428571Y-54464819D01*
X21857142Y-46699580D02*
X21809523Y-46747200D01*
X21809523Y-46747200D02*
X21666666Y-46794819D01*
X21666666Y-46794819D02*
X21571428Y-46794819D01*
X21571428Y-46794819D02*
X21428571Y-46747200D01*
X21428571Y-46747200D02*
X21333333Y-46651961D01*
X21333333Y-46651961D02*
X21285714Y-46556723D01*
X21285714Y-46556723D02*
X21238095Y-46366247D01*
X21238095Y-46366247D02*
X21238095Y-46223390D01*
X21238095Y-46223390D02*
X21285714Y-46032914D01*
X21285714Y-46032914D02*
X21333333Y-45937676D01*
X21333333Y-45937676D02*
X21428571Y-45842438D01*
X21428571Y-45842438D02*
X21571428Y-45794819D01*
X21571428Y-45794819D02*
X21666666Y-45794819D01*
X21666666Y-45794819D02*
X21809523Y-45842438D01*
X21809523Y-45842438D02*
X21857142Y-45890057D01*
X22238095Y-45890057D02*
X22285714Y-45842438D01*
X22285714Y-45842438D02*
X22380952Y-45794819D01*
X22380952Y-45794819D02*
X22619047Y-45794819D01*
X22619047Y-45794819D02*
X22714285Y-45842438D01*
X22714285Y-45842438D02*
X22761904Y-45890057D01*
X22761904Y-45890057D02*
X22809523Y-45985295D01*
X22809523Y-45985295D02*
X22809523Y-46080533D01*
X22809523Y-46080533D02*
X22761904Y-46223390D01*
X22761904Y-46223390D02*
X22190476Y-46794819D01*
X22190476Y-46794819D02*
X22809523Y-46794819D01*
X23142857Y-45794819D02*
X23761904Y-45794819D01*
X23761904Y-45794819D02*
X23428571Y-46175771D01*
X23428571Y-46175771D02*
X23571428Y-46175771D01*
X23571428Y-46175771D02*
X23666666Y-46223390D01*
X23666666Y-46223390D02*
X23714285Y-46271009D01*
X23714285Y-46271009D02*
X23761904Y-46366247D01*
X23761904Y-46366247D02*
X23761904Y-46604342D01*
X23761904Y-46604342D02*
X23714285Y-46699580D01*
X23714285Y-46699580D02*
X23666666Y-46747200D01*
X23666666Y-46747200D02*
X23571428Y-46794819D01*
X23571428Y-46794819D02*
X23285714Y-46794819D01*
X23285714Y-46794819D02*
X23190476Y-46747200D01*
X23190476Y-46747200D02*
X23142857Y-46699580D01*
X22199580Y-50142857D02*
X22247200Y-50190476D01*
X22247200Y-50190476D02*
X22294819Y-50333333D01*
X22294819Y-50333333D02*
X22294819Y-50428571D01*
X22294819Y-50428571D02*
X22247200Y-50571428D01*
X22247200Y-50571428D02*
X22151961Y-50666666D01*
X22151961Y-50666666D02*
X22056723Y-50714285D01*
X22056723Y-50714285D02*
X21866247Y-50761904D01*
X21866247Y-50761904D02*
X21723390Y-50761904D01*
X21723390Y-50761904D02*
X21532914Y-50714285D01*
X21532914Y-50714285D02*
X21437676Y-50666666D01*
X21437676Y-50666666D02*
X21342438Y-50571428D01*
X21342438Y-50571428D02*
X21294819Y-50428571D01*
X21294819Y-50428571D02*
X21294819Y-50333333D01*
X21294819Y-50333333D02*
X21342438Y-50190476D01*
X21342438Y-50190476D02*
X21390057Y-50142857D01*
X21390057Y-49761904D02*
X21342438Y-49714285D01*
X21342438Y-49714285D02*
X21294819Y-49619047D01*
X21294819Y-49619047D02*
X21294819Y-49380952D01*
X21294819Y-49380952D02*
X21342438Y-49285714D01*
X21342438Y-49285714D02*
X21390057Y-49238095D01*
X21390057Y-49238095D02*
X21485295Y-49190476D01*
X21485295Y-49190476D02*
X21580533Y-49190476D01*
X21580533Y-49190476D02*
X21723390Y-49238095D01*
X21723390Y-49238095D02*
X22294819Y-49809523D01*
X22294819Y-49809523D02*
X22294819Y-49190476D01*
X21390057Y-48809523D02*
X21342438Y-48761904D01*
X21342438Y-48761904D02*
X21294819Y-48666666D01*
X21294819Y-48666666D02*
X21294819Y-48428571D01*
X21294819Y-48428571D02*
X21342438Y-48333333D01*
X21342438Y-48333333D02*
X21390057Y-48285714D01*
X21390057Y-48285714D02*
X21485295Y-48238095D01*
X21485295Y-48238095D02*
X21580533Y-48238095D01*
X21580533Y-48238095D02*
X21723390Y-48285714D01*
X21723390Y-48285714D02*
X22294819Y-48857142D01*
X22294819Y-48857142D02*
X22294819Y-48238095D01*
X53833333Y-56859580D02*
X53785714Y-56907200D01*
X53785714Y-56907200D02*
X53642857Y-56954819D01*
X53642857Y-56954819D02*
X53547619Y-56954819D01*
X53547619Y-56954819D02*
X53404762Y-56907200D01*
X53404762Y-56907200D02*
X53309524Y-56811961D01*
X53309524Y-56811961D02*
X53261905Y-56716723D01*
X53261905Y-56716723D02*
X53214286Y-56526247D01*
X53214286Y-56526247D02*
X53214286Y-56383390D01*
X53214286Y-56383390D02*
X53261905Y-56192914D01*
X53261905Y-56192914D02*
X53309524Y-56097676D01*
X53309524Y-56097676D02*
X53404762Y-56002438D01*
X53404762Y-56002438D02*
X53547619Y-55954819D01*
X53547619Y-55954819D02*
X53642857Y-55954819D01*
X53642857Y-55954819D02*
X53785714Y-56002438D01*
X53785714Y-56002438D02*
X53833333Y-56050057D01*
X54166667Y-55954819D02*
X54833333Y-55954819D01*
X54833333Y-55954819D02*
X54404762Y-56954819D01*
X52333333Y-63359580D02*
X52285714Y-63407200D01*
X52285714Y-63407200D02*
X52142857Y-63454819D01*
X52142857Y-63454819D02*
X52047619Y-63454819D01*
X52047619Y-63454819D02*
X51904762Y-63407200D01*
X51904762Y-63407200D02*
X51809524Y-63311961D01*
X51809524Y-63311961D02*
X51761905Y-63216723D01*
X51761905Y-63216723D02*
X51714286Y-63026247D01*
X51714286Y-63026247D02*
X51714286Y-62883390D01*
X51714286Y-62883390D02*
X51761905Y-62692914D01*
X51761905Y-62692914D02*
X51809524Y-62597676D01*
X51809524Y-62597676D02*
X51904762Y-62502438D01*
X51904762Y-62502438D02*
X52047619Y-62454819D01*
X52047619Y-62454819D02*
X52142857Y-62454819D01*
X52142857Y-62454819D02*
X52285714Y-62502438D01*
X52285714Y-62502438D02*
X52333333Y-62550057D01*
X52714286Y-62550057D02*
X52761905Y-62502438D01*
X52761905Y-62502438D02*
X52857143Y-62454819D01*
X52857143Y-62454819D02*
X53095238Y-62454819D01*
X53095238Y-62454819D02*
X53190476Y-62502438D01*
X53190476Y-62502438D02*
X53238095Y-62550057D01*
X53238095Y-62550057D02*
X53285714Y-62645295D01*
X53285714Y-62645295D02*
X53285714Y-62740533D01*
X53285714Y-62740533D02*
X53238095Y-62883390D01*
X53238095Y-62883390D02*
X52666667Y-63454819D01*
X52666667Y-63454819D02*
X53285714Y-63454819D01*
X31833333Y-51954819D02*
X31500000Y-51478628D01*
X31261905Y-51954819D02*
X31261905Y-50954819D01*
X31261905Y-50954819D02*
X31642857Y-50954819D01*
X31642857Y-50954819D02*
X31738095Y-51002438D01*
X31738095Y-51002438D02*
X31785714Y-51050057D01*
X31785714Y-51050057D02*
X31833333Y-51145295D01*
X31833333Y-51145295D02*
X31833333Y-51288152D01*
X31833333Y-51288152D02*
X31785714Y-51383390D01*
X31785714Y-51383390D02*
X31738095Y-51431009D01*
X31738095Y-51431009D02*
X31642857Y-51478628D01*
X31642857Y-51478628D02*
X31261905Y-51478628D01*
X32166667Y-50954819D02*
X32833333Y-50954819D01*
X32833333Y-50954819D02*
X32404762Y-51954819D01*
X31833333Y-50454819D02*
X31500000Y-49978628D01*
X31261905Y-50454819D02*
X31261905Y-49454819D01*
X31261905Y-49454819D02*
X31642857Y-49454819D01*
X31642857Y-49454819D02*
X31738095Y-49502438D01*
X31738095Y-49502438D02*
X31785714Y-49550057D01*
X31785714Y-49550057D02*
X31833333Y-49645295D01*
X31833333Y-49645295D02*
X31833333Y-49788152D01*
X31833333Y-49788152D02*
X31785714Y-49883390D01*
X31785714Y-49883390D02*
X31738095Y-49931009D01*
X31738095Y-49931009D02*
X31642857Y-49978628D01*
X31642857Y-49978628D02*
X31261905Y-49978628D01*
X32690476Y-49454819D02*
X32500000Y-49454819D01*
X32500000Y-49454819D02*
X32404762Y-49502438D01*
X32404762Y-49502438D02*
X32357143Y-49550057D01*
X32357143Y-49550057D02*
X32261905Y-49692914D01*
X32261905Y-49692914D02*
X32214286Y-49883390D01*
X32214286Y-49883390D02*
X32214286Y-50264342D01*
X32214286Y-50264342D02*
X32261905Y-50359580D01*
X32261905Y-50359580D02*
X32309524Y-50407200D01*
X32309524Y-50407200D02*
X32404762Y-50454819D01*
X32404762Y-50454819D02*
X32595238Y-50454819D01*
X32595238Y-50454819D02*
X32690476Y-50407200D01*
X32690476Y-50407200D02*
X32738095Y-50359580D01*
X32738095Y-50359580D02*
X32785714Y-50264342D01*
X32785714Y-50264342D02*
X32785714Y-50026247D01*
X32785714Y-50026247D02*
X32738095Y-49931009D01*
X32738095Y-49931009D02*
X32690476Y-49883390D01*
X32690476Y-49883390D02*
X32595238Y-49835771D01*
X32595238Y-49835771D02*
X32404762Y-49835771D01*
X32404762Y-49835771D02*
X32309524Y-49883390D01*
X32309524Y-49883390D02*
X32261905Y-49931009D01*
X32261905Y-49931009D02*
X32214286Y-50026247D01*
X30523333Y-57454819D02*
X30190000Y-56978628D01*
X29951905Y-57454819D02*
X29951905Y-56454819D01*
X29951905Y-56454819D02*
X30332857Y-56454819D01*
X30332857Y-56454819D02*
X30428095Y-56502438D01*
X30428095Y-56502438D02*
X30475714Y-56550057D01*
X30475714Y-56550057D02*
X30523333Y-56645295D01*
X30523333Y-56645295D02*
X30523333Y-56788152D01*
X30523333Y-56788152D02*
X30475714Y-56883390D01*
X30475714Y-56883390D02*
X30428095Y-56931009D01*
X30428095Y-56931009D02*
X30332857Y-56978628D01*
X30332857Y-56978628D02*
X29951905Y-56978628D01*
X31428095Y-56454819D02*
X30951905Y-56454819D01*
X30951905Y-56454819D02*
X30904286Y-56931009D01*
X30904286Y-56931009D02*
X30951905Y-56883390D01*
X30951905Y-56883390D02*
X31047143Y-56835771D01*
X31047143Y-56835771D02*
X31285238Y-56835771D01*
X31285238Y-56835771D02*
X31380476Y-56883390D01*
X31380476Y-56883390D02*
X31428095Y-56931009D01*
X31428095Y-56931009D02*
X31475714Y-57026247D01*
X31475714Y-57026247D02*
X31475714Y-57264342D01*
X31475714Y-57264342D02*
X31428095Y-57359580D01*
X31428095Y-57359580D02*
X31380476Y-57407200D01*
X31380476Y-57407200D02*
X31285238Y-57454819D01*
X31285238Y-57454819D02*
X31047143Y-57454819D01*
X31047143Y-57454819D02*
X30951905Y-57407200D01*
X30951905Y-57407200D02*
X30904286Y-57359580D01*
X30523333Y-58954819D02*
X30190000Y-58478628D01*
X29951905Y-58954819D02*
X29951905Y-57954819D01*
X29951905Y-57954819D02*
X30332857Y-57954819D01*
X30332857Y-57954819D02*
X30428095Y-58002438D01*
X30428095Y-58002438D02*
X30475714Y-58050057D01*
X30475714Y-58050057D02*
X30523333Y-58145295D01*
X30523333Y-58145295D02*
X30523333Y-58288152D01*
X30523333Y-58288152D02*
X30475714Y-58383390D01*
X30475714Y-58383390D02*
X30428095Y-58431009D01*
X30428095Y-58431009D02*
X30332857Y-58478628D01*
X30332857Y-58478628D02*
X29951905Y-58478628D01*
X31380476Y-58288152D02*
X31380476Y-58954819D01*
X31142381Y-57907200D02*
X30904286Y-58621485D01*
X30904286Y-58621485D02*
X31523333Y-58621485D01*
X57454819Y-57666666D02*
X56978628Y-57999999D01*
X57454819Y-58238094D02*
X56454819Y-58238094D01*
X56454819Y-58238094D02*
X56454819Y-57857142D01*
X56454819Y-57857142D02*
X56502438Y-57761904D01*
X56502438Y-57761904D02*
X56550057Y-57714285D01*
X56550057Y-57714285D02*
X56645295Y-57666666D01*
X56645295Y-57666666D02*
X56788152Y-57666666D01*
X56788152Y-57666666D02*
X56883390Y-57714285D01*
X56883390Y-57714285D02*
X56931009Y-57761904D01*
X56931009Y-57761904D02*
X56978628Y-57857142D01*
X56978628Y-57857142D02*
X56978628Y-58238094D01*
X56454819Y-57333332D02*
X56454819Y-56714285D01*
X56454819Y-56714285D02*
X56835771Y-57047618D01*
X56835771Y-57047618D02*
X56835771Y-56904761D01*
X56835771Y-56904761D02*
X56883390Y-56809523D01*
X56883390Y-56809523D02*
X56931009Y-56761904D01*
X56931009Y-56761904D02*
X57026247Y-56714285D01*
X57026247Y-56714285D02*
X57264342Y-56714285D01*
X57264342Y-56714285D02*
X57359580Y-56761904D01*
X57359580Y-56761904D02*
X57407200Y-56809523D01*
X57407200Y-56809523D02*
X57454819Y-56904761D01*
X57454819Y-56904761D02*
X57454819Y-57190475D01*
X57454819Y-57190475D02*
X57407200Y-57285713D01*
X57407200Y-57285713D02*
X57359580Y-57333332D01*
X56454819Y-57656666D02*
X55978628Y-57989999D01*
X56454819Y-58228094D02*
X55454819Y-58228094D01*
X55454819Y-58228094D02*
X55454819Y-57847142D01*
X55454819Y-57847142D02*
X55502438Y-57751904D01*
X55502438Y-57751904D02*
X55550057Y-57704285D01*
X55550057Y-57704285D02*
X55645295Y-57656666D01*
X55645295Y-57656666D02*
X55788152Y-57656666D01*
X55788152Y-57656666D02*
X55883390Y-57704285D01*
X55883390Y-57704285D02*
X55931009Y-57751904D01*
X55931009Y-57751904D02*
X55978628Y-57847142D01*
X55978628Y-57847142D02*
X55978628Y-58228094D01*
X55550057Y-57275713D02*
X55502438Y-57228094D01*
X55502438Y-57228094D02*
X55454819Y-57132856D01*
X55454819Y-57132856D02*
X55454819Y-56894761D01*
X55454819Y-56894761D02*
X55502438Y-56799523D01*
X55502438Y-56799523D02*
X55550057Y-56751904D01*
X55550057Y-56751904D02*
X55645295Y-56704285D01*
X55645295Y-56704285D02*
X55740533Y-56704285D01*
X55740533Y-56704285D02*
X55883390Y-56751904D01*
X55883390Y-56751904D02*
X56454819Y-57323332D01*
X56454819Y-57323332D02*
X56454819Y-56704285D01*
X20377142Y-42519580D02*
X20329523Y-42567200D01*
X20329523Y-42567200D02*
X20186666Y-42614819D01*
X20186666Y-42614819D02*
X20091428Y-42614819D01*
X20091428Y-42614819D02*
X19948571Y-42567200D01*
X19948571Y-42567200D02*
X19853333Y-42471961D01*
X19853333Y-42471961D02*
X19805714Y-42376723D01*
X19805714Y-42376723D02*
X19758095Y-42186247D01*
X19758095Y-42186247D02*
X19758095Y-42043390D01*
X19758095Y-42043390D02*
X19805714Y-41852914D01*
X19805714Y-41852914D02*
X19853333Y-41757676D01*
X19853333Y-41757676D02*
X19948571Y-41662438D01*
X19948571Y-41662438D02*
X20091428Y-41614819D01*
X20091428Y-41614819D02*
X20186666Y-41614819D01*
X20186666Y-41614819D02*
X20329523Y-41662438D01*
X20329523Y-41662438D02*
X20377142Y-41710057D01*
X20758095Y-41710057D02*
X20805714Y-41662438D01*
X20805714Y-41662438D02*
X20900952Y-41614819D01*
X20900952Y-41614819D02*
X21139047Y-41614819D01*
X21139047Y-41614819D02*
X21234285Y-41662438D01*
X21234285Y-41662438D02*
X21281904Y-41710057D01*
X21281904Y-41710057D02*
X21329523Y-41805295D01*
X21329523Y-41805295D02*
X21329523Y-41900533D01*
X21329523Y-41900533D02*
X21281904Y-42043390D01*
X21281904Y-42043390D02*
X20710476Y-42614819D01*
X20710476Y-42614819D02*
X21329523Y-42614819D01*
X22281904Y-42614819D02*
X21710476Y-42614819D01*
X21996190Y-42614819D02*
X21996190Y-41614819D01*
X21996190Y-41614819D02*
X21900952Y-41757676D01*
X21900952Y-41757676D02*
X21805714Y-41852914D01*
X21805714Y-41852914D02*
X21710476Y-41900533D01*
X25357142Y-37859580D02*
X25309523Y-37907200D01*
X25309523Y-37907200D02*
X25166666Y-37954819D01*
X25166666Y-37954819D02*
X25071428Y-37954819D01*
X25071428Y-37954819D02*
X24928571Y-37907200D01*
X24928571Y-37907200D02*
X24833333Y-37811961D01*
X24833333Y-37811961D02*
X24785714Y-37716723D01*
X24785714Y-37716723D02*
X24738095Y-37526247D01*
X24738095Y-37526247D02*
X24738095Y-37383390D01*
X24738095Y-37383390D02*
X24785714Y-37192914D01*
X24785714Y-37192914D02*
X24833333Y-37097676D01*
X24833333Y-37097676D02*
X24928571Y-37002438D01*
X24928571Y-37002438D02*
X25071428Y-36954819D01*
X25071428Y-36954819D02*
X25166666Y-36954819D01*
X25166666Y-36954819D02*
X25309523Y-37002438D01*
X25309523Y-37002438D02*
X25357142Y-37050057D01*
X26309523Y-37954819D02*
X25738095Y-37954819D01*
X26023809Y-37954819D02*
X26023809Y-36954819D01*
X26023809Y-36954819D02*
X25928571Y-37097676D01*
X25928571Y-37097676D02*
X25833333Y-37192914D01*
X25833333Y-37192914D02*
X25738095Y-37240533D01*
X26785714Y-37954819D02*
X26976190Y-37954819D01*
X26976190Y-37954819D02*
X27071428Y-37907200D01*
X27071428Y-37907200D02*
X27119047Y-37859580D01*
X27119047Y-37859580D02*
X27214285Y-37716723D01*
X27214285Y-37716723D02*
X27261904Y-37526247D01*
X27261904Y-37526247D02*
X27261904Y-37145295D01*
X27261904Y-37145295D02*
X27214285Y-37050057D01*
X27214285Y-37050057D02*
X27166666Y-37002438D01*
X27166666Y-37002438D02*
X27071428Y-36954819D01*
X27071428Y-36954819D02*
X26880952Y-36954819D01*
X26880952Y-36954819D02*
X26785714Y-37002438D01*
X26785714Y-37002438D02*
X26738095Y-37050057D01*
X26738095Y-37050057D02*
X26690476Y-37145295D01*
X26690476Y-37145295D02*
X26690476Y-37383390D01*
X26690476Y-37383390D02*
X26738095Y-37478628D01*
X26738095Y-37478628D02*
X26785714Y-37526247D01*
X26785714Y-37526247D02*
X26880952Y-37573866D01*
X26880952Y-37573866D02*
X27071428Y-37573866D01*
X27071428Y-37573866D02*
X27166666Y-37526247D01*
X27166666Y-37526247D02*
X27214285Y-37478628D01*
X27214285Y-37478628D02*
X27261904Y-37383390D01*
X22357142Y-37859580D02*
X22309523Y-37907200D01*
X22309523Y-37907200D02*
X22166666Y-37954819D01*
X22166666Y-37954819D02*
X22071428Y-37954819D01*
X22071428Y-37954819D02*
X21928571Y-37907200D01*
X21928571Y-37907200D02*
X21833333Y-37811961D01*
X21833333Y-37811961D02*
X21785714Y-37716723D01*
X21785714Y-37716723D02*
X21738095Y-37526247D01*
X21738095Y-37526247D02*
X21738095Y-37383390D01*
X21738095Y-37383390D02*
X21785714Y-37192914D01*
X21785714Y-37192914D02*
X21833333Y-37097676D01*
X21833333Y-37097676D02*
X21928571Y-37002438D01*
X21928571Y-37002438D02*
X22071428Y-36954819D01*
X22071428Y-36954819D02*
X22166666Y-36954819D01*
X22166666Y-36954819D02*
X22309523Y-37002438D01*
X22309523Y-37002438D02*
X22357142Y-37050057D01*
X23309523Y-37954819D02*
X22738095Y-37954819D01*
X23023809Y-37954819D02*
X23023809Y-36954819D01*
X23023809Y-36954819D02*
X22928571Y-37097676D01*
X22928571Y-37097676D02*
X22833333Y-37192914D01*
X22833333Y-37192914D02*
X22738095Y-37240533D01*
X23880952Y-37383390D02*
X23785714Y-37335771D01*
X23785714Y-37335771D02*
X23738095Y-37288152D01*
X23738095Y-37288152D02*
X23690476Y-37192914D01*
X23690476Y-37192914D02*
X23690476Y-37145295D01*
X23690476Y-37145295D02*
X23738095Y-37050057D01*
X23738095Y-37050057D02*
X23785714Y-37002438D01*
X23785714Y-37002438D02*
X23880952Y-36954819D01*
X23880952Y-36954819D02*
X24071428Y-36954819D01*
X24071428Y-36954819D02*
X24166666Y-37002438D01*
X24166666Y-37002438D02*
X24214285Y-37050057D01*
X24214285Y-37050057D02*
X24261904Y-37145295D01*
X24261904Y-37145295D02*
X24261904Y-37192914D01*
X24261904Y-37192914D02*
X24214285Y-37288152D01*
X24214285Y-37288152D02*
X24166666Y-37335771D01*
X24166666Y-37335771D02*
X24071428Y-37383390D01*
X24071428Y-37383390D02*
X23880952Y-37383390D01*
X23880952Y-37383390D02*
X23785714Y-37431009D01*
X23785714Y-37431009D02*
X23738095Y-37478628D01*
X23738095Y-37478628D02*
X23690476Y-37573866D01*
X23690476Y-37573866D02*
X23690476Y-37764342D01*
X23690476Y-37764342D02*
X23738095Y-37859580D01*
X23738095Y-37859580D02*
X23785714Y-37907200D01*
X23785714Y-37907200D02*
X23880952Y-37954819D01*
X23880952Y-37954819D02*
X24071428Y-37954819D01*
X24071428Y-37954819D02*
X24166666Y-37907200D01*
X24166666Y-37907200D02*
X24214285Y-37859580D01*
X24214285Y-37859580D02*
X24261904Y-37764342D01*
X24261904Y-37764342D02*
X24261904Y-37573866D01*
X24261904Y-37573866D02*
X24214285Y-37478628D01*
X24214285Y-37478628D02*
X24166666Y-37431009D01*
X24166666Y-37431009D02*
X24071428Y-37383390D01*
X28357142Y-39859580D02*
X28309523Y-39907200D01*
X28309523Y-39907200D02*
X28166666Y-39954819D01*
X28166666Y-39954819D02*
X28071428Y-39954819D01*
X28071428Y-39954819D02*
X27928571Y-39907200D01*
X27928571Y-39907200D02*
X27833333Y-39811961D01*
X27833333Y-39811961D02*
X27785714Y-39716723D01*
X27785714Y-39716723D02*
X27738095Y-39526247D01*
X27738095Y-39526247D02*
X27738095Y-39383390D01*
X27738095Y-39383390D02*
X27785714Y-39192914D01*
X27785714Y-39192914D02*
X27833333Y-39097676D01*
X27833333Y-39097676D02*
X27928571Y-39002438D01*
X27928571Y-39002438D02*
X28071428Y-38954819D01*
X28071428Y-38954819D02*
X28166666Y-38954819D01*
X28166666Y-38954819D02*
X28309523Y-39002438D01*
X28309523Y-39002438D02*
X28357142Y-39050057D01*
X28738095Y-39050057D02*
X28785714Y-39002438D01*
X28785714Y-39002438D02*
X28880952Y-38954819D01*
X28880952Y-38954819D02*
X29119047Y-38954819D01*
X29119047Y-38954819D02*
X29214285Y-39002438D01*
X29214285Y-39002438D02*
X29261904Y-39050057D01*
X29261904Y-39050057D02*
X29309523Y-39145295D01*
X29309523Y-39145295D02*
X29309523Y-39240533D01*
X29309523Y-39240533D02*
X29261904Y-39383390D01*
X29261904Y-39383390D02*
X28690476Y-39954819D01*
X28690476Y-39954819D02*
X29309523Y-39954819D01*
X29928571Y-38954819D02*
X30023809Y-38954819D01*
X30023809Y-38954819D02*
X30119047Y-39002438D01*
X30119047Y-39002438D02*
X30166666Y-39050057D01*
X30166666Y-39050057D02*
X30214285Y-39145295D01*
X30214285Y-39145295D02*
X30261904Y-39335771D01*
X30261904Y-39335771D02*
X30261904Y-39573866D01*
X30261904Y-39573866D02*
X30214285Y-39764342D01*
X30214285Y-39764342D02*
X30166666Y-39859580D01*
X30166666Y-39859580D02*
X30119047Y-39907200D01*
X30119047Y-39907200D02*
X30023809Y-39954819D01*
X30023809Y-39954819D02*
X29928571Y-39954819D01*
X29928571Y-39954819D02*
X29833333Y-39907200D01*
X29833333Y-39907200D02*
X29785714Y-39859580D01*
X29785714Y-39859580D02*
X29738095Y-39764342D01*
X29738095Y-39764342D02*
X29690476Y-39573866D01*
X29690476Y-39573866D02*
X29690476Y-39335771D01*
X29690476Y-39335771D02*
X29738095Y-39145295D01*
X29738095Y-39145295D02*
X29785714Y-39050057D01*
X29785714Y-39050057D02*
X29833333Y-39002438D01*
X29833333Y-39002438D02*
X29928571Y-38954819D01*
X28357142Y-44359580D02*
X28309523Y-44407200D01*
X28309523Y-44407200D02*
X28166666Y-44454819D01*
X28166666Y-44454819D02*
X28071428Y-44454819D01*
X28071428Y-44454819D02*
X27928571Y-44407200D01*
X27928571Y-44407200D02*
X27833333Y-44311961D01*
X27833333Y-44311961D02*
X27785714Y-44216723D01*
X27785714Y-44216723D02*
X27738095Y-44026247D01*
X27738095Y-44026247D02*
X27738095Y-43883390D01*
X27738095Y-43883390D02*
X27785714Y-43692914D01*
X27785714Y-43692914D02*
X27833333Y-43597676D01*
X27833333Y-43597676D02*
X27928571Y-43502438D01*
X27928571Y-43502438D02*
X28071428Y-43454819D01*
X28071428Y-43454819D02*
X28166666Y-43454819D01*
X28166666Y-43454819D02*
X28309523Y-43502438D01*
X28309523Y-43502438D02*
X28357142Y-43550057D01*
X29309523Y-44454819D02*
X28738095Y-44454819D01*
X29023809Y-44454819D02*
X29023809Y-43454819D01*
X29023809Y-43454819D02*
X28928571Y-43597676D01*
X28928571Y-43597676D02*
X28833333Y-43692914D01*
X28833333Y-43692914D02*
X28738095Y-43740533D01*
X29642857Y-43454819D02*
X30309523Y-43454819D01*
X30309523Y-43454819D02*
X29880952Y-44454819D01*
X44504819Y-41699404D02*
X45314342Y-41699404D01*
X45314342Y-41699404D02*
X45409580Y-41651785D01*
X45409580Y-41651785D02*
X45457200Y-41604166D01*
X45457200Y-41604166D02*
X45504819Y-41508928D01*
X45504819Y-41508928D02*
X45504819Y-41318452D01*
X45504819Y-41318452D02*
X45457200Y-41223214D01*
X45457200Y-41223214D02*
X45409580Y-41175595D01*
X45409580Y-41175595D02*
X45314342Y-41127976D01*
X45314342Y-41127976D02*
X44504819Y-41127976D01*
X44504819Y-40747023D02*
X44504819Y-40127976D01*
X44504819Y-40127976D02*
X44885771Y-40461309D01*
X44885771Y-40461309D02*
X44885771Y-40318452D01*
X44885771Y-40318452D02*
X44933390Y-40223214D01*
X44933390Y-40223214D02*
X44981009Y-40175595D01*
X44981009Y-40175595D02*
X45076247Y-40127976D01*
X45076247Y-40127976D02*
X45314342Y-40127976D01*
X45314342Y-40127976D02*
X45409580Y-40175595D01*
X45409580Y-40175595D02*
X45457200Y-40223214D01*
X45457200Y-40223214D02*
X45504819Y-40318452D01*
X45504819Y-40318452D02*
X45504819Y-40604166D01*
X45504819Y-40604166D02*
X45457200Y-40699404D01*
X45457200Y-40699404D02*
X45409580Y-40747023D01*
X20896666Y-65234819D02*
X20896666Y-65949104D01*
X20896666Y-65949104D02*
X20849047Y-66091961D01*
X20849047Y-66091961D02*
X20753809Y-66187200D01*
X20753809Y-66187200D02*
X20610952Y-66234819D01*
X20610952Y-66234819D02*
X20515714Y-66234819D01*
X21277619Y-65234819D02*
X21944285Y-65234819D01*
X21944285Y-65234819D02*
X21515714Y-66234819D01*
X46083333Y-63924819D02*
X45607143Y-63924819D01*
X45607143Y-63924819D02*
X45607143Y-62924819D01*
X46940476Y-63924819D02*
X46369048Y-63924819D01*
X46654762Y-63924819D02*
X46654762Y-62924819D01*
X46654762Y-62924819D02*
X46559524Y-63067676D01*
X46559524Y-63067676D02*
X46464286Y-63162914D01*
X46464286Y-63162914D02*
X46369048Y-63210533D01*
X59734819Y-69873333D02*
X60449104Y-69873333D01*
X60449104Y-69873333D02*
X60591961Y-69920952D01*
X60591961Y-69920952D02*
X60687200Y-70016190D01*
X60687200Y-70016190D02*
X60734819Y-70159047D01*
X60734819Y-70159047D02*
X60734819Y-70254285D01*
X59734819Y-69492380D02*
X59734819Y-68873333D01*
X59734819Y-68873333D02*
X60115771Y-69206666D01*
X60115771Y-69206666D02*
X60115771Y-69063809D01*
X60115771Y-69063809D02*
X60163390Y-68968571D01*
X60163390Y-68968571D02*
X60211009Y-68920952D01*
X60211009Y-68920952D02*
X60306247Y-68873333D01*
X60306247Y-68873333D02*
X60544342Y-68873333D01*
X60544342Y-68873333D02*
X60639580Y-68920952D01*
X60639580Y-68920952D02*
X60687200Y-68968571D01*
X60687200Y-68968571D02*
X60734819Y-69063809D01*
X60734819Y-69063809D02*
X60734819Y-69349523D01*
X60734819Y-69349523D02*
X60687200Y-69444761D01*
X60687200Y-69444761D02*
X60639580Y-69492380D01*
X44554819Y-50261904D02*
X45364342Y-50261904D01*
X45364342Y-50261904D02*
X45459580Y-50214285D01*
X45459580Y-50214285D02*
X45507200Y-50166666D01*
X45507200Y-50166666D02*
X45554819Y-50071428D01*
X45554819Y-50071428D02*
X45554819Y-49880952D01*
X45554819Y-49880952D02*
X45507200Y-49785714D01*
X45507200Y-49785714D02*
X45459580Y-49738095D01*
X45459580Y-49738095D02*
X45364342Y-49690476D01*
X45364342Y-49690476D02*
X44554819Y-49690476D01*
X44888152Y-48785714D02*
X45554819Y-48785714D01*
X44507200Y-49023809D02*
X45221485Y-49261904D01*
X45221485Y-49261904D02*
X45221485Y-48642857D01*
X48238095Y-56954819D02*
X48238095Y-57764342D01*
X48238095Y-57764342D02*
X48285714Y-57859580D01*
X48285714Y-57859580D02*
X48333333Y-57907200D01*
X48333333Y-57907200D02*
X48428571Y-57954819D01*
X48428571Y-57954819D02*
X48619047Y-57954819D01*
X48619047Y-57954819D02*
X48714285Y-57907200D01*
X48714285Y-57907200D02*
X48761904Y-57859580D01*
X48761904Y-57859580D02*
X48809523Y-57764342D01*
X48809523Y-57764342D02*
X48809523Y-56954819D01*
X49809523Y-57954819D02*
X49238095Y-57954819D01*
X49523809Y-57954819D02*
X49523809Y-56954819D01*
X49523809Y-56954819D02*
X49428571Y-57097676D01*
X49428571Y-57097676D02*
X49333333Y-57192914D01*
X49333333Y-57192914D02*
X49238095Y-57240533D01*
X17833333Y-33704819D02*
X17500000Y-33228628D01*
X17261905Y-33704819D02*
X17261905Y-32704819D01*
X17261905Y-32704819D02*
X17642857Y-32704819D01*
X17642857Y-32704819D02*
X17738095Y-32752438D01*
X17738095Y-32752438D02*
X17785714Y-32800057D01*
X17785714Y-32800057D02*
X17833333Y-32895295D01*
X17833333Y-32895295D02*
X17833333Y-33038152D01*
X17833333Y-33038152D02*
X17785714Y-33133390D01*
X17785714Y-33133390D02*
X17738095Y-33181009D01*
X17738095Y-33181009D02*
X17642857Y-33228628D01*
X17642857Y-33228628D02*
X17261905Y-33228628D01*
X18309524Y-33704819D02*
X18500000Y-33704819D01*
X18500000Y-33704819D02*
X18595238Y-33657200D01*
X18595238Y-33657200D02*
X18642857Y-33609580D01*
X18642857Y-33609580D02*
X18738095Y-33466723D01*
X18738095Y-33466723D02*
X18785714Y-33276247D01*
X18785714Y-33276247D02*
X18785714Y-32895295D01*
X18785714Y-32895295D02*
X18738095Y-32800057D01*
X18738095Y-32800057D02*
X18690476Y-32752438D01*
X18690476Y-32752438D02*
X18595238Y-32704819D01*
X18595238Y-32704819D02*
X18404762Y-32704819D01*
X18404762Y-32704819D02*
X18309524Y-32752438D01*
X18309524Y-32752438D02*
X18261905Y-32800057D01*
X18261905Y-32800057D02*
X18214286Y-32895295D01*
X18214286Y-32895295D02*
X18214286Y-33133390D01*
X18214286Y-33133390D02*
X18261905Y-33228628D01*
X18261905Y-33228628D02*
X18309524Y-33276247D01*
X18309524Y-33276247D02*
X18404762Y-33323866D01*
X18404762Y-33323866D02*
X18595238Y-33323866D01*
X18595238Y-33323866D02*
X18690476Y-33276247D01*
X18690476Y-33276247D02*
X18738095Y-33228628D01*
X18738095Y-33228628D02*
X18785714Y-33133390D01*
X59734819Y-60293333D02*
X60449104Y-60293333D01*
X60449104Y-60293333D02*
X60591961Y-60340952D01*
X60591961Y-60340952D02*
X60687200Y-60436190D01*
X60687200Y-60436190D02*
X60734819Y-60579047D01*
X60734819Y-60579047D02*
X60734819Y-60674285D01*
X60068152Y-59388571D02*
X60734819Y-59388571D01*
X59687200Y-59626666D02*
X60401485Y-59864761D01*
X60401485Y-59864761D02*
X60401485Y-59245714D01*
X50690476Y-43789819D02*
X50690476Y-44504104D01*
X50690476Y-44504104D02*
X50642857Y-44646961D01*
X50642857Y-44646961D02*
X50547619Y-44742200D01*
X50547619Y-44742200D02*
X50404762Y-44789819D01*
X50404762Y-44789819D02*
X50309524Y-44789819D01*
X51690476Y-44789819D02*
X51119048Y-44789819D01*
X51404762Y-44789819D02*
X51404762Y-43789819D01*
X51404762Y-43789819D02*
X51309524Y-43932676D01*
X51309524Y-43932676D02*
X51214286Y-44027914D01*
X51214286Y-44027914D02*
X51119048Y-44075533D01*
X52309524Y-43789819D02*
X52404762Y-43789819D01*
X52404762Y-43789819D02*
X52500000Y-43837438D01*
X52500000Y-43837438D02*
X52547619Y-43885057D01*
X52547619Y-43885057D02*
X52595238Y-43980295D01*
X52595238Y-43980295D02*
X52642857Y-44170771D01*
X52642857Y-44170771D02*
X52642857Y-44408866D01*
X52642857Y-44408866D02*
X52595238Y-44599342D01*
X52595238Y-44599342D02*
X52547619Y-44694580D01*
X52547619Y-44694580D02*
X52500000Y-44742200D01*
X52500000Y-44742200D02*
X52404762Y-44789819D01*
X52404762Y-44789819D02*
X52309524Y-44789819D01*
X52309524Y-44789819D02*
X52214286Y-44742200D01*
X52214286Y-44742200D02*
X52166667Y-44694580D01*
X52166667Y-44694580D02*
X52119048Y-44599342D01*
X52119048Y-44599342D02*
X52071429Y-44408866D01*
X52071429Y-44408866D02*
X52071429Y-44170771D01*
X52071429Y-44170771D02*
X52119048Y-43980295D01*
X52119048Y-43980295D02*
X52166667Y-43885057D01*
X52166667Y-43885057D02*
X52214286Y-43837438D01*
X52214286Y-43837438D02*
X52309524Y-43789819D01*
X41833333Y-49159580D02*
X41785714Y-49207200D01*
X41785714Y-49207200D02*
X41642857Y-49254819D01*
X41642857Y-49254819D02*
X41547619Y-49254819D01*
X41547619Y-49254819D02*
X41404762Y-49207200D01*
X41404762Y-49207200D02*
X41309524Y-49111961D01*
X41309524Y-49111961D02*
X41261905Y-49016723D01*
X41261905Y-49016723D02*
X41214286Y-48826247D01*
X41214286Y-48826247D02*
X41214286Y-48683390D01*
X41214286Y-48683390D02*
X41261905Y-48492914D01*
X41261905Y-48492914D02*
X41309524Y-48397676D01*
X41309524Y-48397676D02*
X41404762Y-48302438D01*
X41404762Y-48302438D02*
X41547619Y-48254819D01*
X41547619Y-48254819D02*
X41642857Y-48254819D01*
X41642857Y-48254819D02*
X41785714Y-48302438D01*
X41785714Y-48302438D02*
X41833333Y-48350057D01*
X42690476Y-48254819D02*
X42500000Y-48254819D01*
X42500000Y-48254819D02*
X42404762Y-48302438D01*
X42404762Y-48302438D02*
X42357143Y-48350057D01*
X42357143Y-48350057D02*
X42261905Y-48492914D01*
X42261905Y-48492914D02*
X42214286Y-48683390D01*
X42214286Y-48683390D02*
X42214286Y-49064342D01*
X42214286Y-49064342D02*
X42261905Y-49159580D01*
X42261905Y-49159580D02*
X42309524Y-49207200D01*
X42309524Y-49207200D02*
X42404762Y-49254819D01*
X42404762Y-49254819D02*
X42595238Y-49254819D01*
X42595238Y-49254819D02*
X42690476Y-49207200D01*
X42690476Y-49207200D02*
X42738095Y-49159580D01*
X42738095Y-49159580D02*
X42785714Y-49064342D01*
X42785714Y-49064342D02*
X42785714Y-48826247D01*
X42785714Y-48826247D02*
X42738095Y-48731009D01*
X42738095Y-48731009D02*
X42690476Y-48683390D01*
X42690476Y-48683390D02*
X42595238Y-48635771D01*
X42595238Y-48635771D02*
X42404762Y-48635771D01*
X42404762Y-48635771D02*
X42309524Y-48683390D01*
X42309524Y-48683390D02*
X42261905Y-48731009D01*
X42261905Y-48731009D02*
X42214286Y-48826247D01*
X41623809Y-35578628D02*
X41623809Y-36054819D01*
X41290476Y-35054819D02*
X41623809Y-35578628D01*
X41623809Y-35578628D02*
X41957142Y-35054819D01*
X42814285Y-36054819D02*
X42242857Y-36054819D01*
X42528571Y-36054819D02*
X42528571Y-35054819D01*
X42528571Y-35054819D02*
X42433333Y-35197676D01*
X42433333Y-35197676D02*
X42338095Y-35292914D01*
X42338095Y-35292914D02*
X42242857Y-35340533D01*
X24204819Y-46261904D02*
X25014342Y-46261904D01*
X25014342Y-46261904D02*
X25109580Y-46214285D01*
X25109580Y-46214285D02*
X25157200Y-46166666D01*
X25157200Y-46166666D02*
X25204819Y-46071428D01*
X25204819Y-46071428D02*
X25204819Y-45880952D01*
X25204819Y-45880952D02*
X25157200Y-45785714D01*
X25157200Y-45785714D02*
X25109580Y-45738095D01*
X25109580Y-45738095D02*
X25014342Y-45690476D01*
X25014342Y-45690476D02*
X24204819Y-45690476D01*
X24204819Y-44785714D02*
X24204819Y-44976190D01*
X24204819Y-44976190D02*
X24252438Y-45071428D01*
X24252438Y-45071428D02*
X24300057Y-45119047D01*
X24300057Y-45119047D02*
X24442914Y-45214285D01*
X24442914Y-45214285D02*
X24633390Y-45261904D01*
X24633390Y-45261904D02*
X25014342Y-45261904D01*
X25014342Y-45261904D02*
X25109580Y-45214285D01*
X25109580Y-45214285D02*
X25157200Y-45166666D01*
X25157200Y-45166666D02*
X25204819Y-45071428D01*
X25204819Y-45071428D02*
X25204819Y-44880952D01*
X25204819Y-44880952D02*
X25157200Y-44785714D01*
X25157200Y-44785714D02*
X25109580Y-44738095D01*
X25109580Y-44738095D02*
X25014342Y-44690476D01*
X25014342Y-44690476D02*
X24776247Y-44690476D01*
X24776247Y-44690476D02*
X24681009Y-44738095D01*
X24681009Y-44738095D02*
X24633390Y-44785714D01*
X24633390Y-44785714D02*
X24585771Y-44880952D01*
X24585771Y-44880952D02*
X24585771Y-45071428D01*
X24585771Y-45071428D02*
X24633390Y-45166666D01*
X24633390Y-45166666D02*
X24681009Y-45214285D01*
X24681009Y-45214285D02*
X24776247Y-45261904D01*
X24054819Y-54761904D02*
X24864342Y-54761904D01*
X24864342Y-54761904D02*
X24959580Y-54714285D01*
X24959580Y-54714285D02*
X25007200Y-54666666D01*
X25007200Y-54666666D02*
X25054819Y-54571428D01*
X25054819Y-54571428D02*
X25054819Y-54380952D01*
X25054819Y-54380952D02*
X25007200Y-54285714D01*
X25007200Y-54285714D02*
X24959580Y-54238095D01*
X24959580Y-54238095D02*
X24864342Y-54190476D01*
X24864342Y-54190476D02*
X24054819Y-54190476D01*
X24054819Y-53238095D02*
X24054819Y-53714285D01*
X24054819Y-53714285D02*
X24531009Y-53761904D01*
X24531009Y-53761904D02*
X24483390Y-53714285D01*
X24483390Y-53714285D02*
X24435771Y-53619047D01*
X24435771Y-53619047D02*
X24435771Y-53380952D01*
X24435771Y-53380952D02*
X24483390Y-53285714D01*
X24483390Y-53285714D02*
X24531009Y-53238095D01*
X24531009Y-53238095D02*
X24626247Y-53190476D01*
X24626247Y-53190476D02*
X24864342Y-53190476D01*
X24864342Y-53190476D02*
X24959580Y-53238095D01*
X24959580Y-53238095D02*
X25007200Y-53285714D01*
X25007200Y-53285714D02*
X25054819Y-53380952D01*
X25054819Y-53380952D02*
X25054819Y-53619047D01*
X25054819Y-53619047D02*
X25007200Y-53714285D01*
X25007200Y-53714285D02*
X24959580Y-53761904D01*
X40166666Y-61454819D02*
X40166666Y-62169104D01*
X40166666Y-62169104D02*
X40119047Y-62311961D01*
X40119047Y-62311961D02*
X40023809Y-62407200D01*
X40023809Y-62407200D02*
X39880952Y-62454819D01*
X39880952Y-62454819D02*
X39785714Y-62454819D01*
X40595238Y-61550057D02*
X40642857Y-61502438D01*
X40642857Y-61502438D02*
X40738095Y-61454819D01*
X40738095Y-61454819D02*
X40976190Y-61454819D01*
X40976190Y-61454819D02*
X41071428Y-61502438D01*
X41071428Y-61502438D02*
X41119047Y-61550057D01*
X41119047Y-61550057D02*
X41166666Y-61645295D01*
X41166666Y-61645295D02*
X41166666Y-61740533D01*
X41166666Y-61740533D02*
X41119047Y-61883390D01*
X41119047Y-61883390D02*
X40547619Y-62454819D01*
X40547619Y-62454819D02*
X41166666Y-62454819D01*
X47377142Y-38359580D02*
X47329523Y-38407200D01*
X47329523Y-38407200D02*
X47186666Y-38454819D01*
X47186666Y-38454819D02*
X47091428Y-38454819D01*
X47091428Y-38454819D02*
X46948571Y-38407200D01*
X46948571Y-38407200D02*
X46853333Y-38311961D01*
X46853333Y-38311961D02*
X46805714Y-38216723D01*
X46805714Y-38216723D02*
X46758095Y-38026247D01*
X46758095Y-38026247D02*
X46758095Y-37883390D01*
X46758095Y-37883390D02*
X46805714Y-37692914D01*
X46805714Y-37692914D02*
X46853333Y-37597676D01*
X46853333Y-37597676D02*
X46948571Y-37502438D01*
X46948571Y-37502438D02*
X47091428Y-37454819D01*
X47091428Y-37454819D02*
X47186666Y-37454819D01*
X47186666Y-37454819D02*
X47329523Y-37502438D01*
X47329523Y-37502438D02*
X47377142Y-37550057D01*
X48329523Y-38454819D02*
X47758095Y-38454819D01*
X48043809Y-38454819D02*
X48043809Y-37454819D01*
X48043809Y-37454819D02*
X47948571Y-37597676D01*
X47948571Y-37597676D02*
X47853333Y-37692914D01*
X47853333Y-37692914D02*
X47758095Y-37740533D01*
X49281904Y-38454819D02*
X48710476Y-38454819D01*
X48996190Y-38454819D02*
X48996190Y-37454819D01*
X48996190Y-37454819D02*
X48900952Y-37597676D01*
X48900952Y-37597676D02*
X48805714Y-37692914D01*
X48805714Y-37692914D02*
X48710476Y-37740533D01*
X17833333Y-35954819D02*
X17500000Y-35478628D01*
X17261905Y-35954819D02*
X17261905Y-34954819D01*
X17261905Y-34954819D02*
X17642857Y-34954819D01*
X17642857Y-34954819D02*
X17738095Y-35002438D01*
X17738095Y-35002438D02*
X17785714Y-35050057D01*
X17785714Y-35050057D02*
X17833333Y-35145295D01*
X17833333Y-35145295D02*
X17833333Y-35288152D01*
X17833333Y-35288152D02*
X17785714Y-35383390D01*
X17785714Y-35383390D02*
X17738095Y-35431009D01*
X17738095Y-35431009D02*
X17642857Y-35478628D01*
X17642857Y-35478628D02*
X17261905Y-35478628D01*
X18404762Y-35383390D02*
X18309524Y-35335771D01*
X18309524Y-35335771D02*
X18261905Y-35288152D01*
X18261905Y-35288152D02*
X18214286Y-35192914D01*
X18214286Y-35192914D02*
X18214286Y-35145295D01*
X18214286Y-35145295D02*
X18261905Y-35050057D01*
X18261905Y-35050057D02*
X18309524Y-35002438D01*
X18309524Y-35002438D02*
X18404762Y-34954819D01*
X18404762Y-34954819D02*
X18595238Y-34954819D01*
X18595238Y-34954819D02*
X18690476Y-35002438D01*
X18690476Y-35002438D02*
X18738095Y-35050057D01*
X18738095Y-35050057D02*
X18785714Y-35145295D01*
X18785714Y-35145295D02*
X18785714Y-35192914D01*
X18785714Y-35192914D02*
X18738095Y-35288152D01*
X18738095Y-35288152D02*
X18690476Y-35335771D01*
X18690476Y-35335771D02*
X18595238Y-35383390D01*
X18595238Y-35383390D02*
X18404762Y-35383390D01*
X18404762Y-35383390D02*
X18309524Y-35431009D01*
X18309524Y-35431009D02*
X18261905Y-35478628D01*
X18261905Y-35478628D02*
X18214286Y-35573866D01*
X18214286Y-35573866D02*
X18214286Y-35764342D01*
X18214286Y-35764342D02*
X18261905Y-35859580D01*
X18261905Y-35859580D02*
X18309524Y-35907200D01*
X18309524Y-35907200D02*
X18404762Y-35954819D01*
X18404762Y-35954819D02*
X18595238Y-35954819D01*
X18595238Y-35954819D02*
X18690476Y-35907200D01*
X18690476Y-35907200D02*
X18738095Y-35859580D01*
X18738095Y-35859580D02*
X18785714Y-35764342D01*
X18785714Y-35764342D02*
X18785714Y-35573866D01*
X18785714Y-35573866D02*
X18738095Y-35478628D01*
X18738095Y-35478628D02*
X18690476Y-35431009D01*
X18690476Y-35431009D02*
X18595238Y-35383390D01*
X38054819Y-34206666D02*
X37578628Y-34539999D01*
X38054819Y-34778094D02*
X37054819Y-34778094D01*
X37054819Y-34778094D02*
X37054819Y-34397142D01*
X37054819Y-34397142D02*
X37102438Y-34301904D01*
X37102438Y-34301904D02*
X37150057Y-34254285D01*
X37150057Y-34254285D02*
X37245295Y-34206666D01*
X37245295Y-34206666D02*
X37388152Y-34206666D01*
X37388152Y-34206666D02*
X37483390Y-34254285D01*
X37483390Y-34254285D02*
X37531009Y-34301904D01*
X37531009Y-34301904D02*
X37578628Y-34397142D01*
X37578628Y-34397142D02*
X37578628Y-34778094D01*
X38054819Y-33254285D02*
X38054819Y-33825713D01*
X38054819Y-33539999D02*
X37054819Y-33539999D01*
X37054819Y-33539999D02*
X37197676Y-33635237D01*
X37197676Y-33635237D02*
X37292914Y-33730475D01*
X37292914Y-33730475D02*
X37340533Y-33825713D01*
X40488095Y-53956819D02*
X41059523Y-53956819D01*
X40773809Y-54956819D02*
X40773809Y-53956819D01*
X41392857Y-54956819D02*
X41392857Y-53956819D01*
X41392857Y-53956819D02*
X41773809Y-53956819D01*
X41773809Y-53956819D02*
X41869047Y-54004438D01*
X41869047Y-54004438D02*
X41916666Y-54052057D01*
X41916666Y-54052057D02*
X41964285Y-54147295D01*
X41964285Y-54147295D02*
X41964285Y-54290152D01*
X41964285Y-54290152D02*
X41916666Y-54385390D01*
X41916666Y-54385390D02*
X41869047Y-54433009D01*
X41869047Y-54433009D02*
X41773809Y-54480628D01*
X41773809Y-54480628D02*
X41392857Y-54480628D01*
X42916666Y-54956819D02*
X42345238Y-54956819D01*
X42630952Y-54956819D02*
X42630952Y-53956819D01*
X42630952Y-53956819D02*
X42535714Y-54099676D01*
X42535714Y-54099676D02*
X42440476Y-54194914D01*
X42440476Y-54194914D02*
X42345238Y-54242533D01*
X34284819Y-35666666D02*
X34284819Y-36142856D01*
X34284819Y-36142856D02*
X33284819Y-36142856D01*
X33380057Y-35380951D02*
X33332438Y-35333332D01*
X33332438Y-35333332D02*
X33284819Y-35238094D01*
X33284819Y-35238094D02*
X33284819Y-34999999D01*
X33284819Y-34999999D02*
X33332438Y-34904761D01*
X33332438Y-34904761D02*
X33380057Y-34857142D01*
X33380057Y-34857142D02*
X33475295Y-34809523D01*
X33475295Y-34809523D02*
X33570533Y-34809523D01*
X33570533Y-34809523D02*
X33713390Y-34857142D01*
X33713390Y-34857142D02*
X34284819Y-35428570D01*
X34284819Y-35428570D02*
X34284819Y-34809523D01*
X34199580Y-33627857D02*
X34247200Y-33675476D01*
X34247200Y-33675476D02*
X34294819Y-33818333D01*
X34294819Y-33818333D02*
X34294819Y-33913571D01*
X34294819Y-33913571D02*
X34247200Y-34056428D01*
X34247200Y-34056428D02*
X34151961Y-34151666D01*
X34151961Y-34151666D02*
X34056723Y-34199285D01*
X34056723Y-34199285D02*
X33866247Y-34246904D01*
X33866247Y-34246904D02*
X33723390Y-34246904D01*
X33723390Y-34246904D02*
X33532914Y-34199285D01*
X33532914Y-34199285D02*
X33437676Y-34151666D01*
X33437676Y-34151666D02*
X33342438Y-34056428D01*
X33342438Y-34056428D02*
X33294819Y-33913571D01*
X33294819Y-33913571D02*
X33294819Y-33818333D01*
X33294819Y-33818333D02*
X33342438Y-33675476D01*
X33342438Y-33675476D02*
X33390057Y-33627857D01*
X34294819Y-32675476D02*
X34294819Y-33246904D01*
X34294819Y-32961190D02*
X33294819Y-32961190D01*
X33294819Y-32961190D02*
X33437676Y-33056428D01*
X33437676Y-33056428D02*
X33532914Y-33151666D01*
X33532914Y-33151666D02*
X33580533Y-33246904D01*
X33294819Y-31770714D02*
X33294819Y-32246904D01*
X33294819Y-32246904D02*
X33771009Y-32294523D01*
X33771009Y-32294523D02*
X33723390Y-32246904D01*
X33723390Y-32246904D02*
X33675771Y-32151666D01*
X33675771Y-32151666D02*
X33675771Y-31913571D01*
X33675771Y-31913571D02*
X33723390Y-31818333D01*
X33723390Y-31818333D02*
X33771009Y-31770714D01*
X33771009Y-31770714D02*
X33866247Y-31723095D01*
X33866247Y-31723095D02*
X34104342Y-31723095D01*
X34104342Y-31723095D02*
X34199580Y-31770714D01*
X34199580Y-31770714D02*
X34247200Y-31818333D01*
X34247200Y-31818333D02*
X34294819Y-31913571D01*
X34294819Y-31913571D02*
X34294819Y-32151666D01*
X34294819Y-32151666D02*
X34247200Y-32246904D01*
X34247200Y-32246904D02*
X34199580Y-32294523D01*
X34333333Y-64859580D02*
X34285714Y-64907200D01*
X34285714Y-64907200D02*
X34142857Y-64954819D01*
X34142857Y-64954819D02*
X34047619Y-64954819D01*
X34047619Y-64954819D02*
X33904762Y-64907200D01*
X33904762Y-64907200D02*
X33809524Y-64811961D01*
X33809524Y-64811961D02*
X33761905Y-64716723D01*
X33761905Y-64716723D02*
X33714286Y-64526247D01*
X33714286Y-64526247D02*
X33714286Y-64383390D01*
X33714286Y-64383390D02*
X33761905Y-64192914D01*
X33761905Y-64192914D02*
X33809524Y-64097676D01*
X33809524Y-64097676D02*
X33904762Y-64002438D01*
X33904762Y-64002438D02*
X34047619Y-63954819D01*
X34047619Y-63954819D02*
X34142857Y-63954819D01*
X34142857Y-63954819D02*
X34285714Y-64002438D01*
X34285714Y-64002438D02*
X34333333Y-64050057D01*
X35190476Y-64288152D02*
X35190476Y-64954819D01*
X34952381Y-63907200D02*
X34714286Y-64621485D01*
X34714286Y-64621485D02*
X35333333Y-64621485D01*
X59734819Y-50838333D02*
X60449104Y-50838333D01*
X60449104Y-50838333D02*
X60591961Y-50885952D01*
X60591961Y-50885952D02*
X60687200Y-50981190D01*
X60687200Y-50981190D02*
X60734819Y-51124047D01*
X60734819Y-51124047D02*
X60734819Y-51219285D01*
X59734819Y-49885952D02*
X59734819Y-50362142D01*
X59734819Y-50362142D02*
X60211009Y-50409761D01*
X60211009Y-50409761D02*
X60163390Y-50362142D01*
X60163390Y-50362142D02*
X60115771Y-50266904D01*
X60115771Y-50266904D02*
X60115771Y-50028809D01*
X60115771Y-50028809D02*
X60163390Y-49933571D01*
X60163390Y-49933571D02*
X60211009Y-49885952D01*
X60211009Y-49885952D02*
X60306247Y-49838333D01*
X60306247Y-49838333D02*
X60544342Y-49838333D01*
X60544342Y-49838333D02*
X60639580Y-49885952D01*
X60639580Y-49885952D02*
X60687200Y-49933571D01*
X60687200Y-49933571D02*
X60734819Y-50028809D01*
X60734819Y-50028809D02*
X60734819Y-50266904D01*
X60734819Y-50266904D02*
X60687200Y-50362142D01*
X60687200Y-50362142D02*
X60639580Y-50409761D01*
X53666666Y-65204819D02*
X53666666Y-65919104D01*
X53666666Y-65919104D02*
X53619047Y-66061961D01*
X53619047Y-66061961D02*
X53523809Y-66157200D01*
X53523809Y-66157200D02*
X53380952Y-66204819D01*
X53380952Y-66204819D02*
X53285714Y-66204819D01*
X54666666Y-66204819D02*
X54095238Y-66204819D01*
X54380952Y-66204819D02*
X54380952Y-65204819D01*
X54380952Y-65204819D02*
X54285714Y-65347676D01*
X54285714Y-65347676D02*
X54190476Y-65442914D01*
X54190476Y-65442914D02*
X54095238Y-65490533D01*
X59734819Y-41333333D02*
X60449104Y-41333333D01*
X60449104Y-41333333D02*
X60591961Y-41380952D01*
X60591961Y-41380952D02*
X60687200Y-41476190D01*
X60687200Y-41476190D02*
X60734819Y-41619047D01*
X60734819Y-41619047D02*
X60734819Y-41714285D01*
X59734819Y-40428571D02*
X59734819Y-40619047D01*
X59734819Y-40619047D02*
X59782438Y-40714285D01*
X59782438Y-40714285D02*
X59830057Y-40761904D01*
X59830057Y-40761904D02*
X59972914Y-40857142D01*
X59972914Y-40857142D02*
X60163390Y-40904761D01*
X60163390Y-40904761D02*
X60544342Y-40904761D01*
X60544342Y-40904761D02*
X60639580Y-40857142D01*
X60639580Y-40857142D02*
X60687200Y-40809523D01*
X60687200Y-40809523D02*
X60734819Y-40714285D01*
X60734819Y-40714285D02*
X60734819Y-40523809D01*
X60734819Y-40523809D02*
X60687200Y-40428571D01*
X60687200Y-40428571D02*
X60639580Y-40380952D01*
X60639580Y-40380952D02*
X60544342Y-40333333D01*
X60544342Y-40333333D02*
X60306247Y-40333333D01*
X60306247Y-40333333D02*
X60211009Y-40380952D01*
X60211009Y-40380952D02*
X60163390Y-40428571D01*
X60163390Y-40428571D02*
X60115771Y-40523809D01*
X60115771Y-40523809D02*
X60115771Y-40714285D01*
X60115771Y-40714285D02*
X60163390Y-40809523D01*
X60163390Y-40809523D02*
X60211009Y-40857142D01*
X60211009Y-40857142D02*
X60306247Y-40904761D01*
X30454819Y-56261904D02*
X31264342Y-56261904D01*
X31264342Y-56261904D02*
X31359580Y-56214285D01*
X31359580Y-56214285D02*
X31407200Y-56166666D01*
X31407200Y-56166666D02*
X31454819Y-56071428D01*
X31454819Y-56071428D02*
X31454819Y-55880952D01*
X31454819Y-55880952D02*
X31407200Y-55785714D01*
X31407200Y-55785714D02*
X31359580Y-55738095D01*
X31359580Y-55738095D02*
X31264342Y-55690476D01*
X31264342Y-55690476D02*
X30454819Y-55690476D01*
X30550057Y-55261904D02*
X30502438Y-55214285D01*
X30502438Y-55214285D02*
X30454819Y-55119047D01*
X30454819Y-55119047D02*
X30454819Y-54880952D01*
X30454819Y-54880952D02*
X30502438Y-54785714D01*
X30502438Y-54785714D02*
X30550057Y-54738095D01*
X30550057Y-54738095D02*
X30645295Y-54690476D01*
X30645295Y-54690476D02*
X30740533Y-54690476D01*
X30740533Y-54690476D02*
X30883390Y-54738095D01*
X30883390Y-54738095D02*
X31454819Y-55309523D01*
X31454819Y-55309523D02*
X31454819Y-54690476D01*
X37959580Y-32206666D02*
X38007200Y-32254285D01*
X38007200Y-32254285D02*
X38054819Y-32397142D01*
X38054819Y-32397142D02*
X38054819Y-32492380D01*
X38054819Y-32492380D02*
X38007200Y-32635237D01*
X38007200Y-32635237D02*
X37911961Y-32730475D01*
X37911961Y-32730475D02*
X37816723Y-32778094D01*
X37816723Y-32778094D02*
X37626247Y-32825713D01*
X37626247Y-32825713D02*
X37483390Y-32825713D01*
X37483390Y-32825713D02*
X37292914Y-32778094D01*
X37292914Y-32778094D02*
X37197676Y-32730475D01*
X37197676Y-32730475D02*
X37102438Y-32635237D01*
X37102438Y-32635237D02*
X37054819Y-32492380D01*
X37054819Y-32492380D02*
X37054819Y-32397142D01*
X37054819Y-32397142D02*
X37102438Y-32254285D01*
X37102438Y-32254285D02*
X37150057Y-32206666D01*
X37054819Y-31873332D02*
X37054819Y-31254285D01*
X37054819Y-31254285D02*
X37435771Y-31587618D01*
X37435771Y-31587618D02*
X37435771Y-31444761D01*
X37435771Y-31444761D02*
X37483390Y-31349523D01*
X37483390Y-31349523D02*
X37531009Y-31301904D01*
X37531009Y-31301904D02*
X37626247Y-31254285D01*
X37626247Y-31254285D02*
X37864342Y-31254285D01*
X37864342Y-31254285D02*
X37959580Y-31301904D01*
X37959580Y-31301904D02*
X38007200Y-31349523D01*
X38007200Y-31349523D02*
X38054819Y-31444761D01*
X38054819Y-31444761D02*
X38054819Y-31730475D01*
X38054819Y-31730475D02*
X38007200Y-31825713D01*
X38007200Y-31825713D02*
X37959580Y-31873332D01*
D12*
X36177190Y-32821428D02*
X36201000Y-32845237D01*
X36201000Y-32845237D02*
X36224809Y-32916666D01*
X36224809Y-32916666D02*
X36224809Y-32964285D01*
X36224809Y-32964285D02*
X36201000Y-33035713D01*
X36201000Y-33035713D02*
X36153380Y-33083332D01*
X36153380Y-33083332D02*
X36105761Y-33107142D01*
X36105761Y-33107142D02*
X36010523Y-33130951D01*
X36010523Y-33130951D02*
X35939095Y-33130951D01*
X35939095Y-33130951D02*
X35843857Y-33107142D01*
X35843857Y-33107142D02*
X35796238Y-33083332D01*
X35796238Y-33083332D02*
X35748619Y-33035713D01*
X35748619Y-33035713D02*
X35724809Y-32964285D01*
X35724809Y-32964285D02*
X35724809Y-32916666D01*
X35724809Y-32916666D02*
X35748619Y-32845237D01*
X35748619Y-32845237D02*
X35772428Y-32821428D01*
X36224809Y-32345237D02*
X36224809Y-32630951D01*
X36224809Y-32488094D02*
X35724809Y-32488094D01*
X35724809Y-32488094D02*
X35796238Y-32535713D01*
X35796238Y-32535713D02*
X35843857Y-32583332D01*
X35843857Y-32583332D02*
X35867666Y-32630951D01*
X35724809Y-31916666D02*
X35724809Y-32011904D01*
X35724809Y-32011904D02*
X35748619Y-32059523D01*
X35748619Y-32059523D02*
X35772428Y-32083333D01*
X35772428Y-32083333D02*
X35843857Y-32130952D01*
X35843857Y-32130952D02*
X35939095Y-32154761D01*
X35939095Y-32154761D02*
X36129571Y-32154761D01*
X36129571Y-32154761D02*
X36177190Y-32130952D01*
X36177190Y-32130952D02*
X36201000Y-32107142D01*
X36201000Y-32107142D02*
X36224809Y-32059523D01*
X36224809Y-32059523D02*
X36224809Y-31964285D01*
X36224809Y-31964285D02*
X36201000Y-31916666D01*
X36201000Y-31916666D02*
X36177190Y-31892857D01*
X36177190Y-31892857D02*
X36129571Y-31869047D01*
X36129571Y-31869047D02*
X36010523Y-31869047D01*
X36010523Y-31869047D02*
X35962904Y-31892857D01*
X35962904Y-31892857D02*
X35939095Y-31916666D01*
X35939095Y-31916666D02*
X35915285Y-31964285D01*
X35915285Y-31964285D02*
X35915285Y-32059523D01*
X35915285Y-32059523D02*
X35939095Y-32107142D01*
X35939095Y-32107142D02*
X35962904Y-32130952D01*
X35962904Y-32130952D02*
X36010523Y-32154761D01*
D11*
X26954819Y-49966904D02*
X27764342Y-49966904D01*
X27764342Y-49966904D02*
X27859580Y-49919285D01*
X27859580Y-49919285D02*
X27907200Y-49871666D01*
X27907200Y-49871666D02*
X27954819Y-49776428D01*
X27954819Y-49776428D02*
X27954819Y-49585952D01*
X27954819Y-49585952D02*
X27907200Y-49490714D01*
X27907200Y-49490714D02*
X27859580Y-49443095D01*
X27859580Y-49443095D02*
X27764342Y-49395476D01*
X27764342Y-49395476D02*
X26954819Y-49395476D01*
X26954819Y-49014523D02*
X26954819Y-48347857D01*
X26954819Y-48347857D02*
X27954819Y-48776428D01*
X47333333Y-31859580D02*
X47285714Y-31907200D01*
X47285714Y-31907200D02*
X47142857Y-31954819D01*
X47142857Y-31954819D02*
X47047619Y-31954819D01*
X47047619Y-31954819D02*
X46904762Y-31907200D01*
X46904762Y-31907200D02*
X46809524Y-31811961D01*
X46809524Y-31811961D02*
X46761905Y-31716723D01*
X46761905Y-31716723D02*
X46714286Y-31526247D01*
X46714286Y-31526247D02*
X46714286Y-31383390D01*
X46714286Y-31383390D02*
X46761905Y-31192914D01*
X46761905Y-31192914D02*
X46809524Y-31097676D01*
X46809524Y-31097676D02*
X46904762Y-31002438D01*
X46904762Y-31002438D02*
X47047619Y-30954819D01*
X47047619Y-30954819D02*
X47142857Y-30954819D01*
X47142857Y-30954819D02*
X47285714Y-31002438D01*
X47285714Y-31002438D02*
X47333333Y-31050057D01*
X48285714Y-31954819D02*
X47714286Y-31954819D01*
X48000000Y-31954819D02*
X48000000Y-30954819D01*
X48000000Y-30954819D02*
X47904762Y-31097676D01*
X47904762Y-31097676D02*
X47809524Y-31192914D01*
X47809524Y-31192914D02*
X47714286Y-31240533D01*
X47333333Y-36859580D02*
X47285714Y-36907200D01*
X47285714Y-36907200D02*
X47142857Y-36954819D01*
X47142857Y-36954819D02*
X47047619Y-36954819D01*
X47047619Y-36954819D02*
X46904762Y-36907200D01*
X46904762Y-36907200D02*
X46809524Y-36811961D01*
X46809524Y-36811961D02*
X46761905Y-36716723D01*
X46761905Y-36716723D02*
X46714286Y-36526247D01*
X46714286Y-36526247D02*
X46714286Y-36383390D01*
X46714286Y-36383390D02*
X46761905Y-36192914D01*
X46761905Y-36192914D02*
X46809524Y-36097676D01*
X46809524Y-36097676D02*
X46904762Y-36002438D01*
X46904762Y-36002438D02*
X47047619Y-35954819D01*
X47047619Y-35954819D02*
X47142857Y-35954819D01*
X47142857Y-35954819D02*
X47285714Y-36002438D01*
X47285714Y-36002438D02*
X47333333Y-36050057D01*
X47809524Y-36954819D02*
X48000000Y-36954819D01*
X48000000Y-36954819D02*
X48095238Y-36907200D01*
X48095238Y-36907200D02*
X48142857Y-36859580D01*
X48142857Y-36859580D02*
X48238095Y-36716723D01*
X48238095Y-36716723D02*
X48285714Y-36526247D01*
X48285714Y-36526247D02*
X48285714Y-36145295D01*
X48285714Y-36145295D02*
X48238095Y-36050057D01*
X48238095Y-36050057D02*
X48190476Y-36002438D01*
X48190476Y-36002438D02*
X48095238Y-35954819D01*
X48095238Y-35954819D02*
X47904762Y-35954819D01*
X47904762Y-35954819D02*
X47809524Y-36002438D01*
X47809524Y-36002438D02*
X47761905Y-36050057D01*
X47761905Y-36050057D02*
X47714286Y-36145295D01*
X47714286Y-36145295D02*
X47714286Y-36383390D01*
X47714286Y-36383390D02*
X47761905Y-36478628D01*
X47761905Y-36478628D02*
X47809524Y-36526247D01*
X47809524Y-36526247D02*
X47904762Y-36573866D01*
X47904762Y-36573866D02*
X48095238Y-36573866D01*
X48095238Y-36573866D02*
X48190476Y-36526247D01*
X48190476Y-36526247D02*
X48238095Y-36478628D01*
X48238095Y-36478628D02*
X48285714Y-36383390D01*
X29161666Y-65234819D02*
X29161666Y-65949104D01*
X29161666Y-65949104D02*
X29114047Y-66091961D01*
X29114047Y-66091961D02*
X29018809Y-66187200D01*
X29018809Y-66187200D02*
X28875952Y-66234819D01*
X28875952Y-66234819D02*
X28780714Y-66234819D01*
X29780714Y-65663390D02*
X29685476Y-65615771D01*
X29685476Y-65615771D02*
X29637857Y-65568152D01*
X29637857Y-65568152D02*
X29590238Y-65472914D01*
X29590238Y-65472914D02*
X29590238Y-65425295D01*
X29590238Y-65425295D02*
X29637857Y-65330057D01*
X29637857Y-65330057D02*
X29685476Y-65282438D01*
X29685476Y-65282438D02*
X29780714Y-65234819D01*
X29780714Y-65234819D02*
X29971190Y-65234819D01*
X29971190Y-65234819D02*
X30066428Y-65282438D01*
X30066428Y-65282438D02*
X30114047Y-65330057D01*
X30114047Y-65330057D02*
X30161666Y-65425295D01*
X30161666Y-65425295D02*
X30161666Y-65472914D01*
X30161666Y-65472914D02*
X30114047Y-65568152D01*
X30114047Y-65568152D02*
X30066428Y-65615771D01*
X30066428Y-65615771D02*
X29971190Y-65663390D01*
X29971190Y-65663390D02*
X29780714Y-65663390D01*
X29780714Y-65663390D02*
X29685476Y-65711009D01*
X29685476Y-65711009D02*
X29637857Y-65758628D01*
X29637857Y-65758628D02*
X29590238Y-65853866D01*
X29590238Y-65853866D02*
X29590238Y-66044342D01*
X29590238Y-66044342D02*
X29637857Y-66139580D01*
X29637857Y-66139580D02*
X29685476Y-66187200D01*
X29685476Y-66187200D02*
X29780714Y-66234819D01*
X29780714Y-66234819D02*
X29971190Y-66234819D01*
X29971190Y-66234819D02*
X30066428Y-66187200D01*
X30066428Y-66187200D02*
X30114047Y-66139580D01*
X30114047Y-66139580D02*
X30161666Y-66044342D01*
X30161666Y-66044342D02*
X30161666Y-65853866D01*
X30161666Y-65853866D02*
X30114047Y-65758628D01*
X30114047Y-65758628D02*
X30066428Y-65711009D01*
X30066428Y-65711009D02*
X29971190Y-65663390D01*
D10*
%TO.C,D2*%
X68140000Y-34000000D02*
G75*
G02*
X68040000Y-34000000I-50000J0D01*
G01*
X68040000Y-34000000D02*
G75*
G02*
X68140000Y-34000000I50000J0D01*
G01*
%TO.C,D3*%
X68140000Y-33000000D02*
G75*
G02*
X68040000Y-33000000I-50000J0D01*
G01*
X68040000Y-33000000D02*
G75*
G02*
X68140000Y-33000000I50000J0D01*
G01*
%TO.C,D1*%
X68140000Y-35000000D02*
G75*
G02*
X68040000Y-35000000I-50000J0D01*
G01*
X68040000Y-35000000D02*
G75*
G02*
X68140000Y-35000000I50000J0D01*
G01*
D13*
%TO.C,TP13*%
X48200000Y-34500000D02*
G75*
G02*
X46800000Y-34500000I-700000J0D01*
G01*
X46800000Y-34500000D02*
G75*
G02*
X48200000Y-34500000I700000J0D01*
G01*
%TO.C,TP12*%
X50200000Y-34500000D02*
G75*
G02*
X48800000Y-34500000I-700000J0D01*
G01*
X48800000Y-34500000D02*
G75*
G02*
X50200000Y-34500000I700000J0D01*
G01*
%TO.C,TP11*%
X31700000Y-42000000D02*
G75*
G02*
X30300000Y-42000000I-700000J0D01*
G01*
X30300000Y-42000000D02*
G75*
G02*
X31700000Y-42000000I700000J0D01*
G01*
%TO.C,TP10*%
X32200000Y-47500000D02*
G75*
G02*
X30800000Y-47500000I-700000J0D01*
G01*
X30800000Y-47500000D02*
G75*
G02*
X32200000Y-47500000I700000J0D01*
G01*
%TO.C,TP9*%
X34200000Y-47000000D02*
G75*
G02*
X32800000Y-47000000I-700000J0D01*
G01*
X32800000Y-47000000D02*
G75*
G02*
X34200000Y-47000000I700000J0D01*
G01*
%TO.C,TP8*%
X36200000Y-46500000D02*
G75*
G02*
X34800000Y-46500000I-700000J0D01*
G01*
X34800000Y-46500000D02*
G75*
G02*
X36200000Y-46500000I700000J0D01*
G01*
%TO.C,TP7*%
X38200000Y-46500000D02*
G75*
G02*
X36800000Y-46500000I-700000J0D01*
G01*
X36800000Y-46500000D02*
G75*
G02*
X38200000Y-46500000I700000J0D01*
G01*
%TO.C,TP6*%
X47700000Y-39500000D02*
G75*
G02*
X46300000Y-39500000I-700000J0D01*
G01*
X46300000Y-39500000D02*
G75*
G02*
X47700000Y-39500000I700000J0D01*
G01*
%TO.C,TP5*%
X34700000Y-45000000D02*
G75*
G02*
X33300000Y-45000000I-700000J0D01*
G01*
X33300000Y-45000000D02*
G75*
G02*
X34700000Y-45000000I700000J0D01*
G01*
%TO.C,TP4*%
X33200000Y-40000000D02*
G75*
G02*
X31800000Y-40000000I-700000J0D01*
G01*
X31800000Y-40000000D02*
G75*
G02*
X33200000Y-40000000I700000J0D01*
G01*
%TO.C,TP3*%
X33200000Y-38000000D02*
G75*
G02*
X31800000Y-38000000I-700000J0D01*
G01*
X31800000Y-38000000D02*
G75*
G02*
X33200000Y-38000000I700000J0D01*
G01*
%TO.C,TP2*%
X46200000Y-45500000D02*
G75*
G02*
X44800000Y-45500000I-700000J0D01*
G01*
X44800000Y-45500000D02*
G75*
G02*
X46200000Y-45500000I700000J0D01*
G01*
%TO.C,C23*%
X22392164Y-47140000D02*
X22607836Y-47140000D01*
X22392164Y-47860000D02*
X22607836Y-47860000D01*
%TO.C,C22*%
X22640000Y-49607836D02*
X22640000Y-49392164D01*
X23360000Y-49607836D02*
X23360000Y-49392164D01*
%TO.C,C7*%
X52107836Y-56860000D02*
X51892164Y-56860000D01*
X52107836Y-56140000D02*
X51892164Y-56140000D01*
%TO.C,C2*%
X52392164Y-61140000D02*
X52607836Y-61140000D01*
X52392164Y-61860000D02*
X52607836Y-61860000D01*
%TO.C,R7*%
X30143641Y-51880000D02*
X29836359Y-51880000D01*
X30143641Y-51120000D02*
X29836359Y-51120000D01*
%TO.C,R6*%
X30153641Y-50880000D02*
X29846359Y-50880000D01*
X30153641Y-50120000D02*
X29846359Y-50120000D01*
%TO.C,R5*%
X28346359Y-56620000D02*
X28653641Y-56620000D01*
X28346359Y-57380000D02*
X28653641Y-57380000D01*
%TO.C,R4*%
X28653641Y-58380000D02*
X28346359Y-58380000D01*
X28653641Y-57620000D02*
X28346359Y-57620000D01*
%TO.C,R3*%
X56620000Y-59663641D02*
X56620000Y-59356359D01*
X57380000Y-59663641D02*
X57380000Y-59356359D01*
%TO.C,R2*%
X56380000Y-59346359D02*
X56380000Y-59653641D01*
X55620000Y-59346359D02*
X55620000Y-59653641D01*
%TO.C,C21*%
X21127836Y-41360000D02*
X20912164Y-41360000D01*
X21127836Y-40640000D02*
X20912164Y-40640000D01*
%TO.C,C19*%
X25872164Y-38140000D02*
X26087836Y-38140000D01*
X25872164Y-38860000D02*
X26087836Y-38860000D01*
%TO.C,C18*%
X23107836Y-38860000D02*
X22892164Y-38860000D01*
X23107836Y-38140000D02*
X22892164Y-38140000D01*
%TO.C,C20*%
X29127836Y-41860000D02*
X28912164Y-41860000D01*
X29127836Y-41140000D02*
X28912164Y-41140000D01*
%TO.C,C17*%
X28892164Y-42140000D02*
X29107836Y-42140000D01*
X28892164Y-42860000D02*
X29107836Y-42860000D01*
%TO.C,U3*%
X43385000Y-37327500D02*
X43620000Y-37327500D01*
X36640000Y-37327500D02*
X37115000Y-37327500D01*
X43860000Y-37802500D02*
X43860000Y-37627500D01*
X36640000Y-37802500D02*
X36640000Y-37327500D01*
X43860000Y-44072500D02*
X43860000Y-44547500D01*
X36640000Y-44072500D02*
X36640000Y-44547500D01*
X43860000Y-44547500D02*
X43385000Y-44547500D01*
X36640000Y-44547500D02*
X37115000Y-44547500D01*
X44190000Y-37567500D02*
X43860000Y-37327500D01*
X44190000Y-37087500D01*
X44190000Y-37567500D01*
G36*
X44190000Y-37567500D02*
G01*
X43860000Y-37327500D01*
X44190000Y-37087500D01*
X44190000Y-37567500D01*
G37*
%TO.C,J7*%
X24140000Y-66780000D02*
X24140000Y-73520000D01*
X20260000Y-73520000D02*
X24140000Y-73520000D01*
X18320000Y-73520000D02*
X19660000Y-73520000D01*
X18320000Y-72600000D02*
X24140000Y-72600000D01*
X18320000Y-71600000D02*
X24140000Y-71600000D01*
X18320000Y-68500000D02*
X24140000Y-68500000D01*
X18320000Y-66780000D02*
X24140000Y-66780000D01*
X18320000Y-66780000D02*
X18320000Y-73520000D01*
X20400000Y-74130000D02*
X19520000Y-74130000D01*
X19960000Y-73520000D01*
X20400000Y-74130000D01*
G36*
X20400000Y-74130000D02*
G01*
X19520000Y-74130000D01*
X19960000Y-73520000D01*
X20400000Y-74130000D01*
G37*
%TO.C,L1*%
X47636252Y-59110000D02*
X44863748Y-59110000D01*
X47636252Y-62530000D02*
X44863748Y-62530000D01*
%TO.C,J3*%
X61280000Y-65360000D02*
X68020000Y-65360000D01*
X61280000Y-73720000D02*
X61280000Y-65360000D01*
X61280000Y-73720000D02*
X68020000Y-73720000D01*
X63000000Y-73720000D02*
X63000000Y-65360000D01*
X66100000Y-73720000D02*
X66100000Y-65360000D01*
X67100000Y-73720000D02*
X67100000Y-65360000D01*
X68020000Y-71780000D02*
X68020000Y-65360000D01*
X68020000Y-73720000D02*
X68020000Y-72380000D01*
X68630000Y-72520000D02*
X68020000Y-72080000D01*
X68630000Y-71640000D01*
X68630000Y-72520000D01*
G36*
X68630000Y-72520000D02*
G01*
X68020000Y-72080000D01*
X68630000Y-71640000D01*
X68630000Y-72520000D01*
G37*
%TO.C,U4*%
X45940000Y-49500000D02*
X45940000Y-50300000D01*
X45940000Y-49500000D02*
X45940000Y-48700000D01*
X49060000Y-49500000D02*
X49060000Y-50300000D01*
X49060000Y-49500000D02*
X49060000Y-48700000D01*
X45990000Y-50800000D02*
X45660000Y-51040000D01*
X45660000Y-50560000D01*
X45990000Y-50800000D01*
G36*
X45990000Y-50800000D02*
G01*
X45660000Y-51040000D01*
X45660000Y-50560000D01*
X45990000Y-50800000D01*
G37*
%TO.C,U1*%
X52250000Y-57510000D02*
X51450000Y-57510000D01*
X52250000Y-57510000D02*
X53050000Y-57510000D01*
X52250000Y-60630000D02*
X51450000Y-60630000D01*
X52250000Y-60630000D02*
X53050000Y-60630000D01*
X50950000Y-57560000D02*
X50710000Y-57230000D01*
X51190000Y-57230000D01*
X50950000Y-57560000D01*
G36*
X50950000Y-57560000D02*
G01*
X50710000Y-57230000D01*
X51190000Y-57230000D01*
X50950000Y-57560000D01*
G37*
%TO.C,R9*%
X21130000Y-33000000D02*
X22080000Y-33000000D01*
X22080000Y-32080000D02*
X22080000Y-33920000D01*
X22080000Y-33920000D02*
X25920000Y-33920000D01*
X25920000Y-32080000D02*
X22080000Y-32080000D01*
X25920000Y-33920000D02*
X25920000Y-32080000D01*
X26870000Y-33000000D02*
X25920000Y-33000000D01*
%TO.C,J4*%
X61280000Y-55780000D02*
X68020000Y-55780000D01*
X61280000Y-64140000D02*
X61280000Y-55780000D01*
X61280000Y-64140000D02*
X68020000Y-64140000D01*
X63000000Y-64140000D02*
X63000000Y-55780000D01*
X66100000Y-64140000D02*
X66100000Y-55780000D01*
X67100000Y-64140000D02*
X67100000Y-55780000D01*
X68020000Y-62200000D02*
X68020000Y-55780000D01*
X68020000Y-64140000D02*
X68020000Y-62800000D01*
X68630000Y-62940000D02*
X68020000Y-62500000D01*
X68630000Y-62060000D01*
X68630000Y-62940000D01*
G36*
X68630000Y-62940000D02*
G01*
X68020000Y-62500000D01*
X68630000Y-62060000D01*
X68630000Y-62940000D01*
G37*
%TO.C,J10*%
X49595000Y-42905000D02*
X49595000Y-42270000D01*
X50230000Y-42905000D02*
X49595000Y-42905000D01*
%TO.C,C6*%
X39625000Y-50065000D02*
X40000000Y-50065000D01*
X39812500Y-49877500D02*
X39812500Y-50252500D01*
X40429437Y-50440000D02*
X41129437Y-49740000D01*
X40429437Y-52560000D02*
X41129437Y-53260000D01*
X41129437Y-49740000D02*
X43760000Y-49740000D01*
X41129437Y-53260000D02*
X43760000Y-53260000D01*
X43760000Y-49740000D02*
X43760000Y-50440000D01*
X43760000Y-53260000D02*
X43760000Y-52560000D01*
%TO.C,Y1*%
X44100000Y-31500000D02*
X40100000Y-31500000D01*
X44100000Y-34800000D02*
X44100000Y-31500000D01*
%TO.C,U6*%
X22850000Y-39600000D02*
X22850000Y-40125000D01*
X22850000Y-39600000D02*
X23375000Y-39600000D01*
X22850000Y-43375000D02*
X22850000Y-43600000D01*
X23315000Y-43900000D02*
X23090000Y-43900000D01*
X27150000Y-39600000D02*
X26625000Y-39600000D01*
X27150000Y-39600000D02*
X27150000Y-40125000D01*
X27150000Y-43900000D02*
X26625000Y-43900000D01*
X27150000Y-43900000D02*
X27150000Y-43375000D01*
X22850000Y-43900000D02*
X22520000Y-44140000D01*
X22520000Y-43660000D01*
X22850000Y-43900000D01*
G36*
X22850000Y-43900000D02*
G01*
X22520000Y-44140000D01*
X22520000Y-43660000D01*
X22850000Y-43900000D01*
G37*
%TO.C,U5*%
X25440000Y-54000000D02*
X25440000Y-53200000D01*
X25440000Y-54000000D02*
X25440000Y-54800000D01*
X28560000Y-54000000D02*
X28560000Y-53200000D01*
X28560000Y-54000000D02*
X28560000Y-54800000D01*
X25490000Y-55300000D02*
X25160000Y-55540000D01*
X25160000Y-55060000D01*
X25490000Y-55300000D01*
G36*
X25490000Y-55300000D02*
G01*
X25160000Y-55540000D01*
X25160000Y-55060000D01*
X25490000Y-55300000D01*
G37*
%TO.C,J2*%
X37590000Y-69665000D02*
X37590000Y-66435000D01*
X37590000Y-73835000D02*
X37590000Y-71885000D01*
X38310000Y-64515000D02*
X39390000Y-64515000D01*
X39390000Y-64515000D02*
X39390000Y-64085000D01*
X43610000Y-64515000D02*
X44690000Y-64515000D01*
X45410000Y-69665000D02*
X45410000Y-66435000D01*
X45410000Y-73835000D02*
X37590000Y-73835000D01*
X45410000Y-73835000D02*
X45410000Y-71885000D01*
%TO.C,C11*%
X45392164Y-37640000D02*
X45607836Y-37640000D01*
X45392164Y-38360000D02*
X45607836Y-38360000D01*
%TO.C,R8*%
X21130000Y-35500000D02*
X22080000Y-35500000D01*
X22080000Y-34580000D02*
X22080000Y-36420000D01*
X22080000Y-36420000D02*
X25920000Y-36420000D01*
X25920000Y-34580000D02*
X22080000Y-34580000D01*
X25920000Y-36420000D02*
X25920000Y-34580000D01*
X26870000Y-35500000D02*
X25920000Y-35500000D01*
%TO.C,R1*%
X38720000Y-34193641D02*
X38720000Y-33886359D01*
X39480000Y-34193641D02*
X39480000Y-33886359D01*
%TO.C,TP1*%
X42950000Y-56500000D02*
G75*
G02*
X40550000Y-56500000I-1200000J0D01*
G01*
X40550000Y-56500000D02*
G75*
G02*
X42950000Y-56500000I1200000J0D01*
G01*
%TO.C,C15*%
X34640000Y-33092836D02*
X34640000Y-32877164D01*
X35360000Y-33092836D02*
X35360000Y-32877164D01*
%TO.C,C4*%
X34240000Y-60240000D02*
X34240000Y-60940000D01*
X34240000Y-63760000D02*
X34240000Y-63060000D01*
X36870563Y-60240000D02*
X34240000Y-60240000D01*
X36870563Y-63760000D02*
X34240000Y-63760000D01*
X37570563Y-60940000D02*
X36870563Y-60240000D01*
X37570563Y-63060000D02*
X36870563Y-63760000D01*
X38187500Y-63622500D02*
X38187500Y-63247500D01*
X38375000Y-63435000D02*
X38000000Y-63435000D01*
%TO.C,J5*%
X61280000Y-46325000D02*
X68020000Y-46325000D01*
X61280000Y-54685000D02*
X61280000Y-46325000D01*
X61280000Y-54685000D02*
X68020000Y-54685000D01*
X63000000Y-54685000D02*
X63000000Y-46325000D01*
X66100000Y-54685000D02*
X66100000Y-46325000D01*
X67100000Y-54685000D02*
X67100000Y-46325000D01*
X68020000Y-52745000D02*
X68020000Y-46325000D01*
X68020000Y-54685000D02*
X68020000Y-53345000D01*
X68630000Y-53485000D02*
X68020000Y-53045000D01*
X68630000Y-52605000D01*
X68630000Y-53485000D01*
G36*
X68630000Y-53485000D02*
G01*
X68020000Y-53045000D01*
X68630000Y-52605000D01*
X68630000Y-53485000D01*
G37*
%TO.C,J1*%
X49335000Y-66817500D02*
X49335000Y-73557500D01*
X49335000Y-66817500D02*
X55155000Y-66817500D01*
X49335000Y-68537500D02*
X55155000Y-68537500D01*
X49335000Y-71637500D02*
X55155000Y-71637500D01*
X49335000Y-72637500D02*
X55155000Y-72637500D01*
X49335000Y-73557500D02*
X50675000Y-73557500D01*
X51275000Y-73557500D02*
X55155000Y-73557500D01*
X55155000Y-66817500D02*
X55155000Y-73557500D01*
X51415000Y-74167500D02*
X50535000Y-74167500D01*
X50975000Y-73557500D01*
X51415000Y-74167500D01*
G36*
X51415000Y-74167500D02*
G01*
X50535000Y-74167500D01*
X50975000Y-73557500D01*
X51415000Y-74167500D01*
G37*
%TO.C,J6*%
X61280000Y-36820000D02*
X68020000Y-36820000D01*
X61280000Y-45180000D02*
X61280000Y-36820000D01*
X61280000Y-45180000D02*
X68020000Y-45180000D01*
X63000000Y-45180000D02*
X63000000Y-36820000D01*
X66100000Y-45180000D02*
X66100000Y-36820000D01*
X67100000Y-45180000D02*
X67100000Y-36820000D01*
X68020000Y-43240000D02*
X68020000Y-36820000D01*
X68020000Y-45180000D02*
X68020000Y-43840000D01*
X68630000Y-43980000D02*
X68020000Y-43540000D01*
X68630000Y-43100000D01*
X68630000Y-43980000D01*
G36*
X68630000Y-43980000D02*
G01*
X68020000Y-43540000D01*
X68630000Y-43100000D01*
X68630000Y-43980000D01*
G37*
%TO.C,U2*%
X32090000Y-53590000D02*
X33350000Y-53590000D01*
X32090000Y-57350000D02*
X32090000Y-53590000D01*
X38910000Y-53590000D02*
X37650000Y-53590000D01*
X38910000Y-57350000D02*
X38910000Y-53590000D01*
X32190000Y-58630000D02*
X31860000Y-58870000D01*
X31860000Y-58390000D01*
X32190000Y-58630000D01*
G36*
X32190000Y-58630000D02*
G01*
X31860000Y-58870000D01*
X31860000Y-58390000D01*
X32190000Y-58630000D01*
G37*
%TO.C,C3*%
X38740000Y-32127836D02*
X38740000Y-31912164D01*
X39460000Y-32127836D02*
X39460000Y-31912164D01*
%TO.C,C16*%
X35640000Y-34107836D02*
X35640000Y-33892164D01*
X36360000Y-34107836D02*
X36360000Y-33892164D01*
D10*
%TO.C,U7*%
X23900000Y-47855000D02*
X23900000Y-48005000D01*
X23900000Y-47855000D02*
X24540000Y-47855000D01*
X23900000Y-50555000D02*
X24540000Y-50555000D01*
X23925000Y-50280000D02*
X23925000Y-50430000D01*
X25460000Y-47855000D02*
X25900000Y-47855000D01*
X25460000Y-50555000D02*
X26100000Y-50555000D01*
X26100000Y-50405000D02*
X26100000Y-50555000D01*
X26460000Y-47855000D02*
X26100000Y-47855000D01*
X26100000Y-47495000D01*
X26460000Y-47855000D01*
G36*
X26460000Y-47855000D02*
G01*
X26100000Y-47855000D01*
X26100000Y-47495000D01*
X26460000Y-47855000D01*
G37*
D13*
%TO.C,C1*%
X45372164Y-32360000D02*
X45587836Y-32360000D01*
X45372164Y-31640000D02*
X45587836Y-31640000D01*
%TO.C,C9*%
X45392164Y-36640000D02*
X45607836Y-36640000D01*
X45392164Y-37360000D02*
X45607836Y-37360000D01*
%TO.C,J8*%
X25315000Y-66780000D02*
X25315000Y-73520000D01*
X25315000Y-66780000D02*
X33675000Y-66780000D01*
X25315000Y-68500000D02*
X33675000Y-68500000D01*
X25315000Y-71600000D02*
X33675000Y-71600000D01*
X25315000Y-72600000D02*
X33675000Y-72600000D01*
X25315000Y-73520000D02*
X26655000Y-73520000D01*
X27255000Y-73520000D02*
X33675000Y-73520000D01*
X33675000Y-66780000D02*
X33675000Y-73520000D01*
X27395000Y-74130000D02*
X26515000Y-74130000D01*
X26955000Y-73520000D01*
X27395000Y-74130000D01*
G36*
X27395000Y-74130000D02*
G01*
X26515000Y-74130000D01*
X26955000Y-73520000D01*
X27395000Y-74130000D01*
G37*
%TD*%
M02*
