%TF.GenerationSoftware,KiCad,Pcbnew,9.0.1*%
%TF.CreationDate,2025-10-26T21:15:07-04:00*%
%TF.ProjectId,Drone-Flight-Controller,44726f6e-652d-4466-9c69-6768742d436f,rev?*%
%TF.SameCoordinates,Original*%
%TF.FileFunction,Legend,Bot*%
%TF.FilePolarity,Positive*%
%FSLAX46Y46*%
G04 Gerber Fmt 4.6, Leading zero omitted, Abs format (unit mm)*
G04 Created by KiCad (PCBNEW 9.0.1) date 2025-10-26 21:15:07*
%MOMM*%
%LPD*%
G01*
G04 APERTURE LIST*
%ADD10C,0.150000*%
%ADD11C,0.120000*%
G04 APERTURE END LIST*
D10*
X45632857Y-39954819D02*
X45966190Y-39478628D01*
X46204285Y-39954819D02*
X46204285Y-38954819D01*
X46204285Y-38954819D02*
X45823333Y-38954819D01*
X45823333Y-38954819D02*
X45728095Y-39002438D01*
X45728095Y-39002438D02*
X45680476Y-39050057D01*
X45680476Y-39050057D02*
X45632857Y-39145295D01*
X45632857Y-39145295D02*
X45632857Y-39288152D01*
X45632857Y-39288152D02*
X45680476Y-39383390D01*
X45680476Y-39383390D02*
X45728095Y-39431009D01*
X45728095Y-39431009D02*
X45823333Y-39478628D01*
X45823333Y-39478628D02*
X46204285Y-39478628D01*
X44680476Y-39954819D02*
X45251904Y-39954819D01*
X44966190Y-39954819D02*
X44966190Y-38954819D01*
X44966190Y-38954819D02*
X45061428Y-39097676D01*
X45061428Y-39097676D02*
X45156666Y-39192914D01*
X45156666Y-39192914D02*
X45251904Y-39240533D01*
X44061428Y-38954819D02*
X43966190Y-38954819D01*
X43966190Y-38954819D02*
X43870952Y-39002438D01*
X43870952Y-39002438D02*
X43823333Y-39050057D01*
X43823333Y-39050057D02*
X43775714Y-39145295D01*
X43775714Y-39145295D02*
X43728095Y-39335771D01*
X43728095Y-39335771D02*
X43728095Y-39573866D01*
X43728095Y-39573866D02*
X43775714Y-39764342D01*
X43775714Y-39764342D02*
X43823333Y-39859580D01*
X43823333Y-39859580D02*
X43870952Y-39907200D01*
X43870952Y-39907200D02*
X43966190Y-39954819D01*
X43966190Y-39954819D02*
X44061428Y-39954819D01*
X44061428Y-39954819D02*
X44156666Y-39907200D01*
X44156666Y-39907200D02*
X44204285Y-39859580D01*
X44204285Y-39859580D02*
X44251904Y-39764342D01*
X44251904Y-39764342D02*
X44299523Y-39573866D01*
X44299523Y-39573866D02*
X44299523Y-39335771D01*
X44299523Y-39335771D02*
X44251904Y-39145295D01*
X44251904Y-39145295D02*
X44204285Y-39050057D01*
X44204285Y-39050057D02*
X44156666Y-39002438D01*
X44156666Y-39002438D02*
X44061428Y-38954819D01*
X37019580Y-42833333D02*
X37067200Y-42785714D01*
X37067200Y-42785714D02*
X37114819Y-42642857D01*
X37114819Y-42642857D02*
X37114819Y-42547619D01*
X37114819Y-42547619D02*
X37067200Y-42404762D01*
X37067200Y-42404762D02*
X36971961Y-42309524D01*
X36971961Y-42309524D02*
X36876723Y-42261905D01*
X36876723Y-42261905D02*
X36686247Y-42214286D01*
X36686247Y-42214286D02*
X36543390Y-42214286D01*
X36543390Y-42214286D02*
X36352914Y-42261905D01*
X36352914Y-42261905D02*
X36257676Y-42309524D01*
X36257676Y-42309524D02*
X36162438Y-42404762D01*
X36162438Y-42404762D02*
X36114819Y-42547619D01*
X36114819Y-42547619D02*
X36114819Y-42642857D01*
X36114819Y-42642857D02*
X36162438Y-42785714D01*
X36162438Y-42785714D02*
X36210057Y-42833333D01*
X36114819Y-43738095D02*
X36114819Y-43261905D01*
X36114819Y-43261905D02*
X36591009Y-43214286D01*
X36591009Y-43214286D02*
X36543390Y-43261905D01*
X36543390Y-43261905D02*
X36495771Y-43357143D01*
X36495771Y-43357143D02*
X36495771Y-43595238D01*
X36495771Y-43595238D02*
X36543390Y-43690476D01*
X36543390Y-43690476D02*
X36591009Y-43738095D01*
X36591009Y-43738095D02*
X36686247Y-43785714D01*
X36686247Y-43785714D02*
X36924342Y-43785714D01*
X36924342Y-43785714D02*
X37019580Y-43738095D01*
X37019580Y-43738095D02*
X37067200Y-43690476D01*
X37067200Y-43690476D02*
X37114819Y-43595238D01*
X37114819Y-43595238D02*
X37114819Y-43357143D01*
X37114819Y-43357143D02*
X37067200Y-43261905D01*
X37067200Y-43261905D02*
X37019580Y-43214286D01*
X45941666Y-47289580D02*
X45989285Y-47337200D01*
X45989285Y-47337200D02*
X46132142Y-47384819D01*
X46132142Y-47384819D02*
X46227380Y-47384819D01*
X46227380Y-47384819D02*
X46370237Y-47337200D01*
X46370237Y-47337200D02*
X46465475Y-47241961D01*
X46465475Y-47241961D02*
X46513094Y-47146723D01*
X46513094Y-47146723D02*
X46560713Y-46956247D01*
X46560713Y-46956247D02*
X46560713Y-46813390D01*
X46560713Y-46813390D02*
X46513094Y-46622914D01*
X46513094Y-46622914D02*
X46465475Y-46527676D01*
X46465475Y-46527676D02*
X46370237Y-46432438D01*
X46370237Y-46432438D02*
X46227380Y-46384819D01*
X46227380Y-46384819D02*
X46132142Y-46384819D01*
X46132142Y-46384819D02*
X45989285Y-46432438D01*
X45989285Y-46432438D02*
X45941666Y-46480057D01*
X45370237Y-46813390D02*
X45465475Y-46765771D01*
X45465475Y-46765771D02*
X45513094Y-46718152D01*
X45513094Y-46718152D02*
X45560713Y-46622914D01*
X45560713Y-46622914D02*
X45560713Y-46575295D01*
X45560713Y-46575295D02*
X45513094Y-46480057D01*
X45513094Y-46480057D02*
X45465475Y-46432438D01*
X45465475Y-46432438D02*
X45370237Y-46384819D01*
X45370237Y-46384819D02*
X45179761Y-46384819D01*
X45179761Y-46384819D02*
X45084523Y-46432438D01*
X45084523Y-46432438D02*
X45036904Y-46480057D01*
X45036904Y-46480057D02*
X44989285Y-46575295D01*
X44989285Y-46575295D02*
X44989285Y-46622914D01*
X44989285Y-46622914D02*
X45036904Y-46718152D01*
X45036904Y-46718152D02*
X45084523Y-46765771D01*
X45084523Y-46765771D02*
X45179761Y-46813390D01*
X45179761Y-46813390D02*
X45370237Y-46813390D01*
X45370237Y-46813390D02*
X45465475Y-46861009D01*
X45465475Y-46861009D02*
X45513094Y-46908628D01*
X45513094Y-46908628D02*
X45560713Y-47003866D01*
X45560713Y-47003866D02*
X45560713Y-47194342D01*
X45560713Y-47194342D02*
X45513094Y-47289580D01*
X45513094Y-47289580D02*
X45465475Y-47337200D01*
X45465475Y-47337200D02*
X45370237Y-47384819D01*
X45370237Y-47384819D02*
X45179761Y-47384819D01*
X45179761Y-47384819D02*
X45084523Y-47337200D01*
X45084523Y-47337200D02*
X45036904Y-47289580D01*
X45036904Y-47289580D02*
X44989285Y-47194342D01*
X44989285Y-47194342D02*
X44989285Y-47003866D01*
X44989285Y-47003866D02*
X45036904Y-46908628D01*
X45036904Y-46908628D02*
X45084523Y-46861009D01*
X45084523Y-46861009D02*
X45179761Y-46813390D01*
X43642857Y-44699580D02*
X43690476Y-44747200D01*
X43690476Y-44747200D02*
X43833333Y-44794819D01*
X43833333Y-44794819D02*
X43928571Y-44794819D01*
X43928571Y-44794819D02*
X44071428Y-44747200D01*
X44071428Y-44747200D02*
X44166666Y-44651961D01*
X44166666Y-44651961D02*
X44214285Y-44556723D01*
X44214285Y-44556723D02*
X44261904Y-44366247D01*
X44261904Y-44366247D02*
X44261904Y-44223390D01*
X44261904Y-44223390D02*
X44214285Y-44032914D01*
X44214285Y-44032914D02*
X44166666Y-43937676D01*
X44166666Y-43937676D02*
X44071428Y-43842438D01*
X44071428Y-43842438D02*
X43928571Y-43794819D01*
X43928571Y-43794819D02*
X43833333Y-43794819D01*
X43833333Y-43794819D02*
X43690476Y-43842438D01*
X43690476Y-43842438D02*
X43642857Y-43890057D01*
X42690476Y-44794819D02*
X43261904Y-44794819D01*
X42976190Y-44794819D02*
X42976190Y-43794819D01*
X42976190Y-43794819D02*
X43071428Y-43937676D01*
X43071428Y-43937676D02*
X43166666Y-44032914D01*
X43166666Y-44032914D02*
X43261904Y-44080533D01*
X41833333Y-44128152D02*
X41833333Y-44794819D01*
X42071428Y-43747200D02*
X42309523Y-44461485D01*
X42309523Y-44461485D02*
X41690476Y-44461485D01*
D11*
%TO.C,R10*%
X45143641Y-40620000D02*
X44836359Y-40620000D01*
X45143641Y-41380000D02*
X44836359Y-41380000D01*
%TO.C,C5*%
X35140000Y-43107836D02*
X35140000Y-42892164D01*
X35860000Y-43107836D02*
X35860000Y-42892164D01*
%TO.C,C8*%
X45634420Y-44990000D02*
X45915580Y-44990000D01*
X45634420Y-46010000D02*
X45915580Y-46010000D01*
%TO.C,C14*%
X43107836Y-45140000D02*
X42892164Y-45140000D01*
X43107836Y-45860000D02*
X42892164Y-45860000D01*
%TD*%
M02*
