%TF.GenerationSoftware,KiCad,Pcbnew,9.0.1*%
%TF.CreationDate,2025-10-26T21:15:07-04:00*%
%TF.ProjectId,Drone-Flight-Controller,44726f6e-652d-4466-9c69-6768742d436f,rev?*%
%TF.SameCoordinates,Original*%
%TF.FileFunction,Copper,L3,Inr*%
%TF.FilePolarity,Positive*%
%FSLAX46Y46*%
G04 Gerber Fmt 4.6, Leading zero omitted, Abs format (unit mm)*
G04 Created by KiCad (PCBNEW 9.0.1) date 2025-10-26 21:15:07*
%MOMM*%
%LPD*%
G01*
G04 APERTURE LIST*
G04 Aperture macros list*
%AMRoundRect*
0 Rectangle with rounded corners*
0 $1 Rounding radius*
0 $2 $3 $4 $5 $6 $7 $8 $9 X,Y pos of 4 corners*
0 Add a 4 corners polygon primitive as box body*
4,1,4,$2,$3,$4,$5,$6,$7,$8,$9,$2,$3,0*
0 Add four circle primitives for the rounded corners*
1,1,$1+$1,$2,$3*
1,1,$1+$1,$4,$5*
1,1,$1+$1,$6,$7*
1,1,$1+$1,$8,$9*
0 Add four rect primitives between the rounded corners*
20,1,$1+$1,$2,$3,$4,$5,0*
20,1,$1+$1,$4,$5,$6,$7,0*
20,1,$1+$1,$6,$7,$8,$9,0*
20,1,$1+$1,$8,$9,$2,$3,0*%
G04 Aperture macros list end*
%TA.AperFunction,ComponentPad*%
%ADD10RoundRect,0.250000X-0.750000X-0.750000X0.750000X-0.750000X0.750000X0.750000X-0.750000X0.750000X0*%
%TD*%
%TA.AperFunction,ComponentPad*%
%ADD11C,2.000000*%
%TD*%
%TA.AperFunction,ComponentPad*%
%ADD12RoundRect,0.250000X0.750000X-0.750000X0.750000X0.750000X-0.750000X0.750000X-0.750000X-0.750000X0*%
%TD*%
%TA.AperFunction,ComponentPad*%
%ADD13C,1.400000*%
%TD*%
%TA.AperFunction,ComponentPad*%
%ADD14O,1.400000X1.400000*%
%TD*%
%TA.AperFunction,ViaPad*%
%ADD15C,0.600000*%
%TD*%
%TA.AperFunction,Conductor*%
%ADD16C,0.200000*%
%TD*%
G04 APERTURE END LIST*
D10*
%TO.N,+5V*%
%TO.C,J7*%
X19960000Y-70000000D03*
D11*
%TO.N,GND*%
X22500000Y-70000000D03*
%TD*%
D12*
%TO.N,GND*%
%TO.C,J3*%
X64500000Y-72080000D03*
D11*
%TO.N,+5V*%
X64500000Y-69540000D03*
%TO.N,PWM_0*%
X64500000Y-67000000D03*
%TD*%
D13*
%TO.N,+3.3V*%
%TO.C,R9*%
X27810000Y-33000000D03*
D14*
%TO.N,IMU_SDA*%
X20190000Y-33000000D03*
%TD*%
D12*
%TO.N,GND*%
%TO.C,J4*%
X64500000Y-62500000D03*
D11*
%TO.N,+5V*%
X64500000Y-59960000D03*
%TO.N,PWM_1*%
X64500000Y-57420000D03*
%TD*%
D13*
%TO.N,+3.3V*%
%TO.C,R8*%
X27810000Y-35500000D03*
D14*
%TO.N,IMU_SCL*%
X20190000Y-35500000D03*
%TD*%
D12*
%TO.N,GND*%
%TO.C,J5*%
X64500000Y-53045000D03*
D11*
%TO.N,+5V*%
X64500000Y-50505000D03*
%TO.N,PWM_2*%
X64500000Y-47965000D03*
%TD*%
D10*
%TO.N,+12V*%
%TO.C,J1*%
X50975000Y-70037500D03*
D11*
%TO.N,GND*%
X53515000Y-70037500D03*
%TD*%
D12*
%TO.N,GND*%
%TO.C,J6*%
X64500000Y-43540000D03*
D11*
%TO.N,+5V*%
X64500000Y-41000000D03*
%TO.N,PWM_3*%
X64500000Y-38460000D03*
%TD*%
D10*
%TO.N,GND*%
%TO.C,J8*%
X26955000Y-70000000D03*
D11*
%TO.N,UART_RX*%
X29495000Y-70000000D03*
%TO.N,UART_TX*%
X32035000Y-70000000D03*
%TD*%
D15*
%TO.N,GND*%
X40250000Y-40937500D03*
X62500000Y-49500000D03*
X60000000Y-37500000D03*
X32000000Y-32500000D03*
X18000000Y-32000000D03*
X19000000Y-47000000D03*
X19000000Y-58000000D03*
X30500000Y-64000000D03*
X55000000Y-51500000D03*
X58000000Y-58000000D03*
X48500000Y-56500000D03*
X49000000Y-54500000D03*
X50000000Y-46500000D03*
X57500000Y-45500000D03*
X52500000Y-34500000D03*
X47500000Y-32000000D03*
X56500000Y-58000000D03*
%TO.N,PWM_1*%
X59350000Y-56500000D03*
%TO.N,+3.3V*%
X54500000Y-35000000D03*
%TO.N,+5V*%
X54500000Y-34000000D03*
%TO.N,LED_STATUS*%
X41687238Y-36236500D03*
X54500000Y-33000000D03*
%TO.N,+3.3V*%
X46000000Y-40500000D03*
%TO.N,BOOT0*%
X44582210Y-40982448D03*
%TO.N,GND*%
X35497067Y-43462424D03*
%TO.N,Net-(U3-PC13)*%
X49500000Y-34500000D03*
X42884658Y-36589685D03*
%TO.N,Net-(U3-PB0)*%
X32500000Y-38150000D03*
X37999998Y-40210418D03*
%TO.N,Net-(U3-PB1)*%
X37899899Y-41004133D03*
X32500000Y-40000000D03*
%TO.N,Net-(U3-PB10)*%
X31000000Y-42000000D03*
X37695175Y-42537500D03*
%TO.N,Net-(U3-PB2)*%
X38000001Y-41797848D03*
X34000000Y-45000000D03*
%TO.N,Net-(U3-PA15)*%
X42498968Y-43487500D03*
X44358398Y-44656414D03*
%TO.N,+3.3V*%
X31350000Y-51500000D03*
X31350000Y-53512500D03*
%TO.N,+12V*%
X52000000Y-62500000D03*
X55000000Y-59000000D03*
%TO.N,+3.3V*%
X35559329Y-44260000D03*
X35000000Y-37000000D03*
X44886779Y-37198000D03*
%TO.N,GND*%
X47370607Y-44815403D03*
%TO.N,+3.3V*%
X43500000Y-48500000D03*
%TO.N,SWCLK*%
X47969184Y-41968072D03*
%TO.N,SWDIO*%
X50000000Y-40150000D03*
%TO.N,GND*%
X29500000Y-56000000D03*
%TO.N,BATVOLTAGE_SCL*%
X36750000Y-47750000D03*
X36000000Y-49850000D03*
%TO.N,GND*%
X21000000Y-47500000D03*
%TO.N,BAROMETER_SCK*%
X25000000Y-50000000D03*
X37597521Y-39300999D03*
%TO.N,GND*%
X47500000Y-50637500D03*
%TO.N,+5V*%
X47500000Y-48362500D03*
%TO.N,USB_CONN_D-*%
X41751021Y-63050008D03*
%TO.N,USB_CONN_D+*%
X42352063Y-63651050D03*
%TO.N,USB_CONN_D-*%
X44199479Y-54699479D03*
%TO.N,USB_CONN_D+*%
X44800521Y-55300521D03*
%TO.N,UART_RX*%
X42891886Y-40558147D03*
%TO.N,UART_TX*%
X42848644Y-41393272D03*
%TO.N,GND*%
X51112500Y-58120000D03*
X34500000Y-62000000D03*
X33200000Y-58650000D03*
X20500000Y-40000000D03*
X29500000Y-40500000D03*
X29500000Y-43500000D03*
X24500000Y-38500000D03*
X21500000Y-38500000D03*
%TO.N,IMU_SCL*%
X45002764Y-39809031D03*
%TO.N,IMU_SDA*%
X45000000Y-39000000D03*
%TO.N,SWDIO*%
X42500000Y-46500000D03*
%TO.N,SWO*%
X46000000Y-42837500D03*
X52500000Y-39500000D03*
%TO.N,SWCLK*%
X45495020Y-43664403D03*
%TO.N,GND*%
X46000000Y-36000000D03*
%TO.N,+5V*%
X39900000Y-65225000D03*
%TO.N,GND*%
X43100000Y-65225000D03*
%TO.N,PWM_3*%
X36000000Y-38000000D03*
%TO.N,PWM_2*%
X36500000Y-37000000D03*
%TO.N,PWM_1*%
X37150000Y-36434313D03*
%TO.N,PWM_0*%
X38500000Y-36500000D03*
%TO.N,GND*%
X27000000Y-54025000D03*
X42520000Y-45500000D03*
X24978500Y-48478500D03*
%TO.N,+3.3V*%
X43480000Y-45500000D03*
%TO.N,+5V*%
X42500000Y-59750000D03*
X41750000Y-60500000D03*
X41000000Y-59750000D03*
X40000000Y-60500000D03*
X41750000Y-59000000D03*
X40000000Y-62000000D03*
X40000000Y-63500000D03*
X43000000Y-62000000D03*
X41750000Y-62000000D03*
X42500000Y-61250000D03*
X43000000Y-59000000D03*
X40000000Y-59000000D03*
X41000000Y-61250000D03*
%TO.N,Net-(U3-VCAP1)*%
X35500000Y-42520000D03*
%TO.N,+3.3V*%
X49000000Y-42850000D03*
%TD*%
D16*
%TO.N,Net-(U3-PC13)*%
X44974343Y-34500000D02*
X49500000Y-34500000D01*
X42884658Y-36589685D02*
X44974343Y-34500000D01*
%TD*%
%TA.AperFunction,Conductor*%
%TO.N,GND*%
G36*
X67942539Y-31270185D02*
G01*
X67988294Y-31322989D01*
X67999500Y-31374500D01*
X67999500Y-73375500D01*
X67979815Y-73442539D01*
X67927011Y-73488294D01*
X67875500Y-73499500D01*
X17624500Y-73499500D01*
X17557461Y-73479815D01*
X17511706Y-73427011D01*
X17500500Y-73375500D01*
X17500500Y-69199983D01*
X18459500Y-69199983D01*
X18459500Y-70800001D01*
X18459501Y-70800018D01*
X18470000Y-70902796D01*
X18470001Y-70902799D01*
X18494759Y-70977512D01*
X18525186Y-71069334D01*
X18617288Y-71218656D01*
X18741344Y-71342712D01*
X18890666Y-71434814D01*
X19057203Y-71489999D01*
X19159991Y-71500500D01*
X20760008Y-71500499D01*
X20862797Y-71489999D01*
X21029334Y-71434814D01*
X21178656Y-71342712D01*
X21302712Y-71218656D01*
X21394814Y-71069334D01*
X21449999Y-70902797D01*
X21460500Y-70800009D01*
X21460499Y-69881902D01*
X27994500Y-69881902D01*
X27994500Y-70118097D01*
X28031446Y-70351368D01*
X28104433Y-70575996D01*
X28159728Y-70684517D01*
X28211657Y-70786433D01*
X28350483Y-70977510D01*
X28517490Y-71144517D01*
X28708567Y-71283343D01*
X28807991Y-71334002D01*
X28919003Y-71390566D01*
X28919005Y-71390566D01*
X28919008Y-71390568D01*
X29039412Y-71429689D01*
X29143631Y-71463553D01*
X29376903Y-71500500D01*
X29376908Y-71500500D01*
X29613097Y-71500500D01*
X29846368Y-71463553D01*
X30070992Y-71390568D01*
X30281433Y-71283343D01*
X30472510Y-71144517D01*
X30639517Y-70977510D01*
X30664682Y-70942872D01*
X30720011Y-70900207D01*
X30789625Y-70894228D01*
X30851420Y-70926833D01*
X30865315Y-70942870D01*
X30890483Y-70977510D01*
X31057490Y-71144517D01*
X31248567Y-71283343D01*
X31347991Y-71334002D01*
X31459003Y-71390566D01*
X31459005Y-71390566D01*
X31459008Y-71390568D01*
X31579412Y-71429689D01*
X31683631Y-71463553D01*
X31916903Y-71500500D01*
X31916908Y-71500500D01*
X32153097Y-71500500D01*
X32386368Y-71463553D01*
X32610992Y-71390568D01*
X32821433Y-71283343D01*
X33012510Y-71144517D01*
X33179517Y-70977510D01*
X33318343Y-70786433D01*
X33425568Y-70575992D01*
X33498553Y-70351368D01*
X33502502Y-70326433D01*
X33535500Y-70118097D01*
X33535500Y-69881902D01*
X33498553Y-69648631D01*
X33425566Y-69424003D01*
X33357608Y-69290629D01*
X33330533Y-69237491D01*
X33330529Y-69237483D01*
X49474500Y-69237483D01*
X49474500Y-70837501D01*
X49474501Y-70837518D01*
X49485000Y-70940296D01*
X49485001Y-70940299D01*
X49505962Y-71003553D01*
X49540186Y-71106834D01*
X49632288Y-71256156D01*
X49756344Y-71380212D01*
X49905666Y-71472314D01*
X50072203Y-71527499D01*
X50174991Y-71538000D01*
X51775008Y-71537999D01*
X51877797Y-71527499D01*
X52044334Y-71472314D01*
X52193656Y-71380212D01*
X52317712Y-71256156D01*
X52409814Y-71106834D01*
X52464999Y-70940297D01*
X52475500Y-70837509D01*
X52475499Y-69237492D01*
X52464999Y-69134703D01*
X52409814Y-68968166D01*
X52317712Y-68818844D01*
X52193656Y-68694788D01*
X52044334Y-68602686D01*
X51877797Y-68547501D01*
X51877795Y-68547500D01*
X51775010Y-68537000D01*
X50174998Y-68537000D01*
X50174981Y-68537001D01*
X50072203Y-68547500D01*
X50072200Y-68547501D01*
X49905668Y-68602685D01*
X49905663Y-68602687D01*
X49756342Y-68694789D01*
X49632289Y-68818842D01*
X49540187Y-68968163D01*
X49540186Y-68968166D01*
X49485001Y-69134703D01*
X49485001Y-69134704D01*
X49485000Y-69134704D01*
X49474500Y-69237483D01*
X33330529Y-69237483D01*
X33318343Y-69213567D01*
X33179517Y-69022490D01*
X33012510Y-68855483D01*
X32821433Y-68716657D01*
X32778513Y-68694788D01*
X32610996Y-68609433D01*
X32386368Y-68536446D01*
X32153097Y-68499500D01*
X32153092Y-68499500D01*
X31916908Y-68499500D01*
X31916903Y-68499500D01*
X31683631Y-68536446D01*
X31459003Y-68609433D01*
X31248566Y-68716657D01*
X31159536Y-68781342D01*
X31057490Y-68855483D01*
X31057488Y-68855485D01*
X31057487Y-68855485D01*
X30890484Y-69022488D01*
X30865318Y-69057127D01*
X30809987Y-69099792D01*
X30740374Y-69105771D01*
X30678579Y-69073165D01*
X30664682Y-69057127D01*
X30639517Y-69022490D01*
X30472510Y-68855483D01*
X30281433Y-68716657D01*
X30238513Y-68694788D01*
X30070996Y-68609433D01*
X29846368Y-68536446D01*
X29613097Y-68499500D01*
X29613092Y-68499500D01*
X29376908Y-68499500D01*
X29376903Y-68499500D01*
X29143631Y-68536446D01*
X28919003Y-68609433D01*
X28708566Y-68716657D01*
X28619536Y-68781342D01*
X28517490Y-68855483D01*
X28517488Y-68855485D01*
X28517487Y-68855485D01*
X28350485Y-69022487D01*
X28350485Y-69022488D01*
X28350483Y-69022490D01*
X28296203Y-69097200D01*
X28211657Y-69213566D01*
X28104433Y-69424003D01*
X28031446Y-69648631D01*
X27994500Y-69881902D01*
X21460499Y-69881902D01*
X21460499Y-69199992D01*
X21459338Y-69188631D01*
X21449999Y-69097203D01*
X21449998Y-69097200D01*
X21394814Y-68930666D01*
X21302712Y-68781344D01*
X21178656Y-68657288D01*
X21029334Y-68565186D01*
X20862797Y-68510001D01*
X20862795Y-68510000D01*
X20760010Y-68499500D01*
X19159998Y-68499500D01*
X19159981Y-68499501D01*
X19057203Y-68510000D01*
X19057200Y-68510001D01*
X18890668Y-68565185D01*
X18890663Y-68565187D01*
X18741342Y-68657289D01*
X18617289Y-68781342D01*
X18525187Y-68930663D01*
X18525185Y-68930668D01*
X18512761Y-68968163D01*
X18470001Y-69097203D01*
X18470001Y-69097204D01*
X18470000Y-69097204D01*
X18459500Y-69199983D01*
X17500500Y-69199983D01*
X17500500Y-67998920D01*
X38549499Y-67998920D01*
X38578340Y-68143907D01*
X38578343Y-68143917D01*
X38634912Y-68280488D01*
X38634919Y-68280501D01*
X38717048Y-68403415D01*
X38717051Y-68403419D01*
X38821580Y-68507948D01*
X38821584Y-68507951D01*
X38944498Y-68590080D01*
X38944511Y-68590087D01*
X39081082Y-68646656D01*
X39081087Y-68646658D01*
X39081091Y-68646658D01*
X39081092Y-68646659D01*
X39226079Y-68675500D01*
X39226082Y-68675500D01*
X39373920Y-68675500D01*
X39471462Y-68656096D01*
X39518913Y-68646658D01*
X39655495Y-68590084D01*
X39778416Y-68507951D01*
X39882951Y-68403416D01*
X39965084Y-68280495D01*
X40021658Y-68143913D01*
X40050500Y-67998920D01*
X42949499Y-67998920D01*
X42978340Y-68143907D01*
X42978343Y-68143917D01*
X43034912Y-68280488D01*
X43034919Y-68280501D01*
X43117048Y-68403415D01*
X43117051Y-68403419D01*
X43221580Y-68507948D01*
X43221584Y-68507951D01*
X43344498Y-68590080D01*
X43344511Y-68590087D01*
X43481082Y-68646656D01*
X43481087Y-68646658D01*
X43481091Y-68646658D01*
X43481092Y-68646659D01*
X43626079Y-68675500D01*
X43626082Y-68675500D01*
X43773920Y-68675500D01*
X43871462Y-68656096D01*
X43918913Y-68646658D01*
X44055495Y-68590084D01*
X44178416Y-68507951D01*
X44282951Y-68403416D01*
X44365084Y-68280495D01*
X44421658Y-68143913D01*
X44450500Y-67998918D01*
X44450500Y-67851082D01*
X44450500Y-67851079D01*
X44421659Y-67706092D01*
X44421658Y-67706091D01*
X44421658Y-67706087D01*
X44367771Y-67575992D01*
X44365087Y-67569511D01*
X44365080Y-67569498D01*
X44282951Y-67446584D01*
X44282948Y-67446580D01*
X44178419Y-67342051D01*
X44178415Y-67342048D01*
X44055501Y-67259919D01*
X44055488Y-67259912D01*
X43918917Y-67203343D01*
X43918907Y-67203340D01*
X43773920Y-67174500D01*
X43773918Y-67174500D01*
X43626082Y-67174500D01*
X43626080Y-67174500D01*
X43481092Y-67203340D01*
X43481082Y-67203343D01*
X43344511Y-67259912D01*
X43344498Y-67259919D01*
X43221584Y-67342048D01*
X43221580Y-67342051D01*
X43117051Y-67446580D01*
X43117048Y-67446584D01*
X43034919Y-67569498D01*
X43034912Y-67569511D01*
X42978343Y-67706082D01*
X42978340Y-67706092D01*
X42949500Y-67851079D01*
X42949500Y-67851082D01*
X42949500Y-67998918D01*
X42949500Y-67998920D01*
X42949499Y-67998920D01*
X40050500Y-67998920D01*
X40050500Y-67998918D01*
X40050500Y-67851082D01*
X40050500Y-67851079D01*
X40021659Y-67706092D01*
X40021658Y-67706091D01*
X40021658Y-67706087D01*
X39967771Y-67575992D01*
X39965087Y-67569511D01*
X39965080Y-67569498D01*
X39882951Y-67446584D01*
X39882948Y-67446580D01*
X39778419Y-67342051D01*
X39778415Y-67342048D01*
X39655501Y-67259919D01*
X39655488Y-67259912D01*
X39518917Y-67203343D01*
X39518907Y-67203340D01*
X39373920Y-67174500D01*
X39373918Y-67174500D01*
X39226082Y-67174500D01*
X39226080Y-67174500D01*
X39081092Y-67203340D01*
X39081082Y-67203343D01*
X38944511Y-67259912D01*
X38944498Y-67259919D01*
X38821584Y-67342048D01*
X38821580Y-67342051D01*
X38717051Y-67446580D01*
X38717048Y-67446584D01*
X38634919Y-67569498D01*
X38634912Y-67569511D01*
X38578343Y-67706082D01*
X38578340Y-67706092D01*
X38549500Y-67851079D01*
X38549500Y-67851082D01*
X38549500Y-67998918D01*
X38549500Y-67998920D01*
X38549499Y-67998920D01*
X17500500Y-67998920D01*
X17500500Y-66881902D01*
X62999500Y-66881902D01*
X62999500Y-67118097D01*
X63036446Y-67351368D01*
X63109433Y-67575996D01*
X63175721Y-67706092D01*
X63216657Y-67786433D01*
X63355483Y-67977510D01*
X63522490Y-68144517D01*
X63557127Y-68169683D01*
X63599792Y-68225013D01*
X63605771Y-68294626D01*
X63573165Y-68356421D01*
X63557130Y-68370315D01*
X63539365Y-68383222D01*
X63522488Y-68395484D01*
X63355485Y-68562487D01*
X63355485Y-68562488D01*
X63355483Y-68562490D01*
X63353524Y-68565187D01*
X63216657Y-68753566D01*
X63109433Y-68964003D01*
X63036446Y-69188631D01*
X62999500Y-69421902D01*
X62999500Y-69658097D01*
X63036446Y-69891368D01*
X63109433Y-70115996D01*
X63216657Y-70326433D01*
X63355483Y-70517510D01*
X63522490Y-70684517D01*
X63713567Y-70823343D01*
X63812991Y-70874002D01*
X63924003Y-70930566D01*
X63924005Y-70930566D01*
X63924008Y-70930568D01*
X64044412Y-70969689D01*
X64148631Y-71003553D01*
X64381903Y-71040500D01*
X64381908Y-71040500D01*
X64618097Y-71040500D01*
X64851368Y-71003553D01*
X65075992Y-70930568D01*
X65286433Y-70823343D01*
X65477510Y-70684517D01*
X65644517Y-70517510D01*
X65783343Y-70326433D01*
X65890568Y-70115992D01*
X65963553Y-69891368D01*
X65965052Y-69881902D01*
X66000500Y-69658097D01*
X66000500Y-69421902D01*
X65963553Y-69188631D01*
X65909569Y-69022487D01*
X65890568Y-68964008D01*
X65890566Y-68964005D01*
X65890566Y-68964003D01*
X65783342Y-68753566D01*
X65756526Y-68716657D01*
X65644517Y-68562490D01*
X65477510Y-68395483D01*
X65442872Y-68370317D01*
X65400207Y-68314989D01*
X65394228Y-68245375D01*
X65426833Y-68183580D01*
X65442873Y-68169682D01*
X65477510Y-68144517D01*
X65644517Y-67977510D01*
X65783343Y-67786433D01*
X65890568Y-67575992D01*
X65963553Y-67351368D01*
X65978037Y-67259919D01*
X66000500Y-67118097D01*
X66000500Y-66881902D01*
X65963553Y-66648631D01*
X65890566Y-66424003D01*
X65783342Y-66213566D01*
X65644517Y-66022490D01*
X65477510Y-65855483D01*
X65286433Y-65716657D01*
X65075996Y-65609433D01*
X64851368Y-65536446D01*
X64618097Y-65499500D01*
X64618092Y-65499500D01*
X64381908Y-65499500D01*
X64381903Y-65499500D01*
X64148631Y-65536446D01*
X63924003Y-65609433D01*
X63713566Y-65716657D01*
X63604550Y-65795862D01*
X63522490Y-65855483D01*
X63522488Y-65855485D01*
X63522487Y-65855485D01*
X63355485Y-66022487D01*
X63355485Y-66022488D01*
X63355483Y-66022490D01*
X63295862Y-66104550D01*
X63216657Y-66213566D01*
X63109433Y-66424003D01*
X63036446Y-66648631D01*
X62999500Y-66881902D01*
X17500500Y-66881902D01*
X17500500Y-65146153D01*
X39099500Y-65146153D01*
X39099500Y-65303846D01*
X39130261Y-65458489D01*
X39130264Y-65458501D01*
X39190602Y-65604172D01*
X39190609Y-65604185D01*
X39278210Y-65735288D01*
X39278213Y-65735292D01*
X39389707Y-65846786D01*
X39389711Y-65846789D01*
X39520814Y-65934390D01*
X39520827Y-65934397D01*
X39666498Y-65994735D01*
X39666503Y-65994737D01*
X39806011Y-66022487D01*
X39821153Y-66025499D01*
X39821156Y-66025500D01*
X39821158Y-66025500D01*
X39978844Y-66025500D01*
X39978845Y-66025499D01*
X40133497Y-65994737D01*
X40279179Y-65934394D01*
X40410289Y-65846789D01*
X40521789Y-65735289D01*
X40609394Y-65604179D01*
X40669737Y-65458497D01*
X40700500Y-65303842D01*
X40700500Y-65146158D01*
X40700500Y-65146155D01*
X40700499Y-65146153D01*
X40669738Y-64991510D01*
X40669737Y-64991503D01*
X40669735Y-64991498D01*
X40609397Y-64845827D01*
X40609390Y-64845814D01*
X40521789Y-64714711D01*
X40521786Y-64714707D01*
X40410292Y-64603213D01*
X40410288Y-64603210D01*
X40279185Y-64515609D01*
X40279176Y-64515604D01*
X40236122Y-64497771D01*
X40181719Y-64453930D01*
X40159654Y-64387636D01*
X40176933Y-64319936D01*
X40228070Y-64272326D01*
X40236116Y-64268652D01*
X40286926Y-64247606D01*
X40379173Y-64209397D01*
X40379176Y-64209395D01*
X40379179Y-64209394D01*
X40510289Y-64121789D01*
X40621789Y-64010289D01*
X40709394Y-63879179D01*
X40769737Y-63733497D01*
X40800500Y-63578842D01*
X40800500Y-63470445D01*
X40820185Y-63403406D01*
X40872989Y-63357651D01*
X40942147Y-63347707D01*
X41005703Y-63376732D01*
X41039062Y-63422994D01*
X41041626Y-63429186D01*
X41041630Y-63429193D01*
X41129231Y-63560296D01*
X41129234Y-63560300D01*
X41240728Y-63671794D01*
X41240732Y-63671797D01*
X41371835Y-63759398D01*
X41371848Y-63759405D01*
X41515892Y-63819069D01*
X41570296Y-63862909D01*
X41583001Y-63886178D01*
X41642665Y-64030222D01*
X41642672Y-64030235D01*
X41730273Y-64161338D01*
X41730276Y-64161342D01*
X41841770Y-64272836D01*
X41841774Y-64272839D01*
X41972877Y-64360440D01*
X41972890Y-64360447D01*
X42118561Y-64420785D01*
X42118566Y-64420787D01*
X42273216Y-64451549D01*
X42273219Y-64451550D01*
X42273221Y-64451550D01*
X42430907Y-64451550D01*
X42430908Y-64451549D01*
X42585560Y-64420787D01*
X42731242Y-64360444D01*
X42862352Y-64272839D01*
X42973852Y-64161339D01*
X43061457Y-64030229D01*
X43121800Y-63884547D01*
X43152563Y-63729892D01*
X43152563Y-63572208D01*
X43152563Y-63572205D01*
X43152562Y-63572203D01*
X43150194Y-63560296D01*
X43121800Y-63417553D01*
X43092869Y-63347707D01*
X43061460Y-63271877D01*
X43061453Y-63271864D01*
X42973852Y-63140761D01*
X42973849Y-63140757D01*
X42862353Y-63029261D01*
X42859868Y-63027601D01*
X42858860Y-63026395D01*
X42857644Y-63025397D01*
X42857833Y-63025166D01*
X42836802Y-63000000D01*
X45000000Y-63000000D01*
X50250000Y-63000000D01*
X50250000Y-62421153D01*
X51199500Y-62421153D01*
X51199500Y-62578846D01*
X51230261Y-62733489D01*
X51230264Y-62733501D01*
X51290602Y-62879172D01*
X51290609Y-62879185D01*
X51378210Y-63010288D01*
X51378213Y-63010292D01*
X51489707Y-63121786D01*
X51489711Y-63121789D01*
X51620814Y-63209390D01*
X51620827Y-63209397D01*
X51758683Y-63266498D01*
X51766503Y-63269737D01*
X51921153Y-63300499D01*
X51921156Y-63300500D01*
X51921158Y-63300500D01*
X52078844Y-63300500D01*
X52078845Y-63300499D01*
X52233497Y-63269737D01*
X52379179Y-63209394D01*
X52510289Y-63121789D01*
X52621789Y-63010289D01*
X52709394Y-62879179D01*
X52769737Y-62733497D01*
X52800500Y-62578842D01*
X52800500Y-62421158D01*
X52800500Y-62421155D01*
X52800499Y-62421153D01*
X52792151Y-62379185D01*
X52769737Y-62266503D01*
X52740847Y-62196755D01*
X52709397Y-62120827D01*
X52709390Y-62120814D01*
X52621789Y-61989711D01*
X52621786Y-61989707D01*
X52510292Y-61878213D01*
X52510288Y-61878210D01*
X52379185Y-61790609D01*
X52379172Y-61790602D01*
X52233501Y-61730264D01*
X52233489Y-61730261D01*
X52078845Y-61699500D01*
X52078842Y-61699500D01*
X51921158Y-61699500D01*
X51921155Y-61699500D01*
X51766510Y-61730261D01*
X51766498Y-61730264D01*
X51620827Y-61790602D01*
X51620814Y-61790609D01*
X51489711Y-61878210D01*
X51489707Y-61878213D01*
X51378213Y-61989707D01*
X51378210Y-61989711D01*
X51290609Y-62120814D01*
X51290602Y-62120827D01*
X51230264Y-62266498D01*
X51230261Y-62266510D01*
X51199500Y-62421153D01*
X50250000Y-62421153D01*
X50250000Y-58921153D01*
X54199500Y-58921153D01*
X54199500Y-59078846D01*
X54230261Y-59233489D01*
X54230264Y-59233501D01*
X54290602Y-59379172D01*
X54290609Y-59379185D01*
X54378210Y-59510288D01*
X54378213Y-59510292D01*
X54489707Y-59621786D01*
X54489711Y-59621789D01*
X54620814Y-59709390D01*
X54620827Y-59709397D01*
X54699498Y-59741983D01*
X54766503Y-59769737D01*
X54871418Y-59790606D01*
X54921153Y-59800499D01*
X54921156Y-59800500D01*
X54921158Y-59800500D01*
X55078844Y-59800500D01*
X55078845Y-59800499D01*
X55233497Y-59769737D01*
X55379179Y-59709394D01*
X55510289Y-59621789D01*
X55621789Y-59510289D01*
X55709394Y-59379179D01*
X55769737Y-59233497D01*
X55800500Y-59078842D01*
X55800500Y-58921158D01*
X55800500Y-58921155D01*
X55800499Y-58921153D01*
X55774474Y-58790318D01*
X55769737Y-58766503D01*
X55763774Y-58752107D01*
X55709397Y-58620827D01*
X55709390Y-58620814D01*
X55621789Y-58489711D01*
X55621786Y-58489707D01*
X55510292Y-58378213D01*
X55510288Y-58378210D01*
X55379185Y-58290609D01*
X55379172Y-58290602D01*
X55233501Y-58230264D01*
X55233489Y-58230261D01*
X55078845Y-58199500D01*
X55078842Y-58199500D01*
X54921158Y-58199500D01*
X54921155Y-58199500D01*
X54766510Y-58230261D01*
X54766498Y-58230264D01*
X54620827Y-58290602D01*
X54620814Y-58290609D01*
X54489711Y-58378210D01*
X54489707Y-58378213D01*
X54378213Y-58489707D01*
X54378210Y-58489711D01*
X54290609Y-58620814D01*
X54290602Y-58620827D01*
X54230264Y-58766498D01*
X54230261Y-58766510D01*
X54199500Y-58921153D01*
X50250000Y-58921153D01*
X50250000Y-58500000D01*
X45000000Y-58500000D01*
X45000000Y-63000000D01*
X42836802Y-63000000D01*
X42815064Y-62973987D01*
X42806358Y-62904662D01*
X42836514Y-62841635D01*
X42895958Y-62804918D01*
X42928761Y-62800500D01*
X43078844Y-62800500D01*
X43078845Y-62800499D01*
X43233497Y-62769737D01*
X43379179Y-62709394D01*
X43510289Y-62621789D01*
X43621789Y-62510289D01*
X43709394Y-62379179D01*
X43769737Y-62233497D01*
X43800500Y-62078842D01*
X43800500Y-61921158D01*
X43800500Y-61921155D01*
X43800499Y-61921153D01*
X43774531Y-61790606D01*
X43769737Y-61766503D01*
X43769735Y-61766498D01*
X43709397Y-61620827D01*
X43709390Y-61620814D01*
X43621789Y-61489711D01*
X43621786Y-61489707D01*
X43510292Y-61378213D01*
X43510288Y-61378210D01*
X43379185Y-61290609D01*
X43379169Y-61290601D01*
X43377038Y-61289718D01*
X43376094Y-61288957D01*
X43373809Y-61287736D01*
X43374040Y-61287302D01*
X43322638Y-61245873D01*
X43300579Y-61179577D01*
X43300500Y-61175161D01*
X43300500Y-61171155D01*
X43300499Y-61171153D01*
X43287244Y-61104517D01*
X43269737Y-61016503D01*
X43237018Y-60937511D01*
X43209397Y-60870827D01*
X43209390Y-60870814D01*
X43121789Y-60739711D01*
X43121786Y-60739707D01*
X43010292Y-60628213D01*
X43010284Y-60628207D01*
X42972712Y-60603102D01*
X42927906Y-60549490D01*
X42919199Y-60480165D01*
X42949353Y-60417138D01*
X42972712Y-60396898D01*
X42999279Y-60379145D01*
X43010289Y-60371789D01*
X43121789Y-60260289D01*
X43209394Y-60129179D01*
X43212854Y-60120827D01*
X43267163Y-59989711D01*
X43269737Y-59983497D01*
X43300500Y-59828842D01*
X43300500Y-59824837D01*
X43301093Y-59822814D01*
X43301097Y-59822782D01*
X43301103Y-59822782D01*
X43320185Y-59757798D01*
X43372989Y-59712043D01*
X43376986Y-59710302D01*
X43379179Y-59709394D01*
X43510289Y-59621789D01*
X43621789Y-59510289D01*
X43709394Y-59379179D01*
X43769737Y-59233497D01*
X43800500Y-59078842D01*
X43800500Y-58921158D01*
X43800500Y-58921155D01*
X43800499Y-58921153D01*
X43774474Y-58790318D01*
X43769737Y-58766503D01*
X43763774Y-58752107D01*
X43709397Y-58620827D01*
X43709390Y-58620814D01*
X43640377Y-58517529D01*
X43621789Y-58489711D01*
X43621786Y-58489707D01*
X43510292Y-58378213D01*
X43510288Y-58378210D01*
X43379185Y-58290609D01*
X43379172Y-58290602D01*
X43233501Y-58230264D01*
X43233489Y-58230261D01*
X43078845Y-58199500D01*
X43078842Y-58199500D01*
X42921158Y-58199500D01*
X42921155Y-58199500D01*
X42766510Y-58230261D01*
X42766498Y-58230264D01*
X42620827Y-58290602D01*
X42620814Y-58290609D01*
X42489711Y-58378210D01*
X42489707Y-58378213D01*
X42462681Y-58405240D01*
X42401358Y-58438725D01*
X42331666Y-58433741D01*
X42287319Y-58405240D01*
X42260292Y-58378213D01*
X42260288Y-58378210D01*
X42129185Y-58290609D01*
X42129172Y-58290602D01*
X41983501Y-58230264D01*
X41983489Y-58230261D01*
X41828845Y-58199500D01*
X41828842Y-58199500D01*
X41671158Y-58199500D01*
X41671155Y-58199500D01*
X41516510Y-58230261D01*
X41516498Y-58230264D01*
X41370827Y-58290602D01*
X41370814Y-58290609D01*
X41239711Y-58378210D01*
X41239707Y-58378213D01*
X41128213Y-58489707D01*
X41128210Y-58489711D01*
X41040609Y-58620814D01*
X41040602Y-58620827D01*
X40989561Y-58744054D01*
X40945720Y-58798458D01*
X40879426Y-58820523D01*
X40811727Y-58803244D01*
X40764116Y-58752107D01*
X40760439Y-58744054D01*
X40709397Y-58620827D01*
X40709390Y-58620814D01*
X40621789Y-58489711D01*
X40621786Y-58489707D01*
X40510292Y-58378213D01*
X40510288Y-58378210D01*
X40379185Y-58290609D01*
X40379172Y-58290602D01*
X40233501Y-58230264D01*
X40233489Y-58230261D01*
X40078845Y-58199500D01*
X40078842Y-58199500D01*
X39921158Y-58199500D01*
X39921155Y-58199500D01*
X39766510Y-58230261D01*
X39766498Y-58230264D01*
X39620827Y-58290602D01*
X39620814Y-58290609D01*
X39489711Y-58378210D01*
X39489707Y-58378213D01*
X39378213Y-58489707D01*
X39378210Y-58489711D01*
X39290609Y-58620814D01*
X39290602Y-58620827D01*
X39230264Y-58766498D01*
X39230261Y-58766510D01*
X39199500Y-58921153D01*
X39199500Y-59078846D01*
X39230261Y-59233489D01*
X39230264Y-59233501D01*
X39290602Y-59379172D01*
X39290609Y-59379185D01*
X39378210Y-59510288D01*
X39378213Y-59510292D01*
X39489707Y-59621786D01*
X39527289Y-59646898D01*
X39572093Y-59700511D01*
X39580800Y-59769836D01*
X39550645Y-59832863D01*
X39527289Y-59853102D01*
X39489707Y-59878213D01*
X39378213Y-59989707D01*
X39378210Y-59989711D01*
X39290609Y-60120814D01*
X39290602Y-60120827D01*
X39230264Y-60266498D01*
X39230261Y-60266510D01*
X39199500Y-60421153D01*
X39199500Y-60578846D01*
X39230261Y-60733489D01*
X39230264Y-60733501D01*
X39290602Y-60879172D01*
X39290609Y-60879185D01*
X39378210Y-61010288D01*
X39378213Y-61010292D01*
X39489707Y-61121786D01*
X39527289Y-61146898D01*
X39572093Y-61200511D01*
X39580800Y-61269836D01*
X39550645Y-61332863D01*
X39527289Y-61353102D01*
X39489707Y-61378213D01*
X39378213Y-61489707D01*
X39378210Y-61489711D01*
X39290609Y-61620814D01*
X39290602Y-61620827D01*
X39230264Y-61766498D01*
X39230261Y-61766510D01*
X39199500Y-61921153D01*
X39199500Y-62078846D01*
X39230261Y-62233489D01*
X39230264Y-62233501D01*
X39290602Y-62379172D01*
X39290609Y-62379185D01*
X39378210Y-62510288D01*
X39378213Y-62510292D01*
X39489707Y-62621786D01*
X39489710Y-62621788D01*
X39489711Y-62621789D01*
X39515219Y-62638833D01*
X39527289Y-62646898D01*
X39572093Y-62700511D01*
X39580800Y-62769836D01*
X39550645Y-62832863D01*
X39527289Y-62853102D01*
X39489707Y-62878213D01*
X39378213Y-62989707D01*
X39378210Y-62989711D01*
X39290609Y-63120814D01*
X39290602Y-63120827D01*
X39230264Y-63266498D01*
X39230261Y-63266510D01*
X39199500Y-63421153D01*
X39199500Y-63578846D01*
X39230261Y-63733489D01*
X39230264Y-63733501D01*
X39290602Y-63879172D01*
X39290609Y-63879185D01*
X39378210Y-64010288D01*
X39378213Y-64010292D01*
X39489707Y-64121786D01*
X39489711Y-64121789D01*
X39620814Y-64209390D01*
X39620818Y-64209392D01*
X39620821Y-64209394D01*
X39663878Y-64227228D01*
X39718279Y-64271068D01*
X39740345Y-64337362D01*
X39723066Y-64405061D01*
X39671930Y-64452672D01*
X39663877Y-64456350D01*
X39520823Y-64515604D01*
X39520814Y-64515609D01*
X39389711Y-64603210D01*
X39389707Y-64603213D01*
X39278213Y-64714707D01*
X39278210Y-64714711D01*
X39190609Y-64845814D01*
X39190602Y-64845827D01*
X39130264Y-64991498D01*
X39130261Y-64991510D01*
X39099500Y-65146153D01*
X17500500Y-65146153D01*
X17500500Y-62381902D01*
X23499500Y-62381902D01*
X23499500Y-62618097D01*
X23536446Y-62851368D01*
X23609433Y-63075996D01*
X23677405Y-63209397D01*
X23716657Y-63286433D01*
X23855483Y-63477510D01*
X24022490Y-63644517D01*
X24213567Y-63783343D01*
X24285010Y-63819745D01*
X24424003Y-63890566D01*
X24424005Y-63890566D01*
X24424008Y-63890568D01*
X24544412Y-63929689D01*
X24648631Y-63963553D01*
X24881903Y-64000500D01*
X24881908Y-64000500D01*
X25118097Y-64000500D01*
X25351368Y-63963553D01*
X25575992Y-63890568D01*
X25786433Y-63783343D01*
X25977510Y-63644517D01*
X26144517Y-63477510D01*
X26283343Y-63286433D01*
X26390568Y-63075992D01*
X26463553Y-62851368D01*
X26473177Y-62790606D01*
X26500500Y-62618097D01*
X26500500Y-62381902D01*
X26463553Y-62148631D01*
X26390566Y-61924003D01*
X26310315Y-61766503D01*
X26283343Y-61713567D01*
X26144517Y-61522490D01*
X25977510Y-61355483D01*
X25786433Y-61216657D01*
X25754745Y-61200511D01*
X25575996Y-61109433D01*
X25351368Y-61036446D01*
X25118097Y-60999500D01*
X25118092Y-60999500D01*
X24881908Y-60999500D01*
X24881903Y-60999500D01*
X24648631Y-61036446D01*
X24424003Y-61109433D01*
X24213566Y-61216657D01*
X24116333Y-61287302D01*
X24022490Y-61355483D01*
X24022488Y-61355485D01*
X24022487Y-61355485D01*
X23855485Y-61522487D01*
X23855485Y-61522488D01*
X23855483Y-61522490D01*
X23795862Y-61604550D01*
X23716657Y-61713566D01*
X23609433Y-61924003D01*
X23536446Y-62148631D01*
X23499500Y-62381902D01*
X17500500Y-62381902D01*
X17500500Y-57301902D01*
X62999500Y-57301902D01*
X62999500Y-57538097D01*
X63036446Y-57771368D01*
X63109433Y-57995996D01*
X63213124Y-58199500D01*
X63216657Y-58206433D01*
X63355483Y-58397510D01*
X63522490Y-58564517D01*
X63557127Y-58589683D01*
X63599792Y-58645013D01*
X63605771Y-58714626D01*
X63573165Y-58776421D01*
X63557130Y-58790315D01*
X63545923Y-58798458D01*
X63522488Y-58815484D01*
X63355485Y-58982487D01*
X63355485Y-58982488D01*
X63355483Y-58982490D01*
X63295862Y-59064550D01*
X63216657Y-59173566D01*
X63109433Y-59384003D01*
X63036446Y-59608631D01*
X62999500Y-59841902D01*
X62999500Y-60078097D01*
X63036446Y-60311368D01*
X63109433Y-60535996D01*
X63210062Y-60733489D01*
X63216657Y-60746433D01*
X63355483Y-60937510D01*
X63522490Y-61104517D01*
X63713567Y-61243343D01*
X63800693Y-61287736D01*
X63924003Y-61350566D01*
X63924005Y-61350566D01*
X63924008Y-61350568D01*
X64044412Y-61389689D01*
X64148631Y-61423553D01*
X64381903Y-61460500D01*
X64381908Y-61460500D01*
X64618097Y-61460500D01*
X64851368Y-61423553D01*
X65075992Y-61350568D01*
X65286433Y-61243343D01*
X65477510Y-61104517D01*
X65644517Y-60937510D01*
X65783343Y-60746433D01*
X65890568Y-60535992D01*
X65963553Y-60311368D01*
X65992410Y-60129172D01*
X66000500Y-60078097D01*
X66000500Y-59841902D01*
X65963553Y-59608631D01*
X65890566Y-59384003D01*
X65783342Y-59173566D01*
X65644517Y-58982490D01*
X65477510Y-58815483D01*
X65442872Y-58790317D01*
X65400207Y-58734989D01*
X65394228Y-58665375D01*
X65426833Y-58603580D01*
X65442873Y-58589682D01*
X65477510Y-58564517D01*
X65644517Y-58397510D01*
X65783343Y-58206433D01*
X65890568Y-57995992D01*
X65963553Y-57771368D01*
X66000500Y-57538097D01*
X66000500Y-57301902D01*
X65963553Y-57068631D01*
X65929689Y-56964412D01*
X65890568Y-56844008D01*
X65890566Y-56844005D01*
X65890566Y-56844003D01*
X65783342Y-56633566D01*
X65644517Y-56442490D01*
X65477510Y-56275483D01*
X65286433Y-56136657D01*
X65255353Y-56120821D01*
X65075996Y-56029433D01*
X64851368Y-55956446D01*
X64618097Y-55919500D01*
X64618092Y-55919500D01*
X64381908Y-55919500D01*
X64381903Y-55919500D01*
X64148631Y-55956446D01*
X63924003Y-56029433D01*
X63713566Y-56136657D01*
X63604550Y-56215862D01*
X63522490Y-56275483D01*
X63522488Y-56275485D01*
X63522487Y-56275485D01*
X63355485Y-56442487D01*
X63355485Y-56442488D01*
X63355483Y-56442490D01*
X63295862Y-56524550D01*
X63216657Y-56633566D01*
X63109433Y-56844003D01*
X63036446Y-57068631D01*
X62999500Y-57301902D01*
X17500500Y-57301902D01*
X17500500Y-56421153D01*
X58549500Y-56421153D01*
X58549500Y-56578846D01*
X58580261Y-56733489D01*
X58580264Y-56733501D01*
X58640602Y-56879172D01*
X58640609Y-56879185D01*
X58728210Y-57010288D01*
X58728213Y-57010292D01*
X58839707Y-57121786D01*
X58839711Y-57121789D01*
X58970814Y-57209390D01*
X58970827Y-57209397D01*
X59116498Y-57269735D01*
X59116503Y-57269737D01*
X59271153Y-57300499D01*
X59271156Y-57300500D01*
X59271158Y-57300500D01*
X59428844Y-57300500D01*
X59428845Y-57300499D01*
X59583497Y-57269737D01*
X59729179Y-57209394D01*
X59860289Y-57121789D01*
X59971789Y-57010289D01*
X60059394Y-56879179D01*
X60119737Y-56733497D01*
X60150500Y-56578842D01*
X60150500Y-56421158D01*
X60150500Y-56421155D01*
X60150499Y-56421153D01*
X60119737Y-56266503D01*
X60119735Y-56266498D01*
X60059397Y-56120827D01*
X60059390Y-56120814D01*
X59971789Y-55989711D01*
X59971786Y-55989707D01*
X59860292Y-55878213D01*
X59860288Y-55878210D01*
X59729185Y-55790609D01*
X59729172Y-55790602D01*
X59583501Y-55730264D01*
X59583489Y-55730261D01*
X59428845Y-55699500D01*
X59428842Y-55699500D01*
X59271158Y-55699500D01*
X59271155Y-55699500D01*
X59116510Y-55730261D01*
X59116498Y-55730264D01*
X58970827Y-55790602D01*
X58970814Y-55790609D01*
X58839711Y-55878210D01*
X58839707Y-55878213D01*
X58728213Y-55989707D01*
X58728210Y-55989711D01*
X58640609Y-56120814D01*
X58640602Y-56120827D01*
X58580264Y-56266498D01*
X58580261Y-56266510D01*
X58549500Y-56421153D01*
X17500500Y-56421153D01*
X17500500Y-54620632D01*
X43398979Y-54620632D01*
X43398979Y-54778325D01*
X43429740Y-54932968D01*
X43429743Y-54932980D01*
X43490081Y-55078651D01*
X43490088Y-55078664D01*
X43577689Y-55209767D01*
X43577692Y-55209771D01*
X43689186Y-55321265D01*
X43689190Y-55321268D01*
X43820293Y-55408869D01*
X43820306Y-55408876D01*
X43964350Y-55468540D01*
X44018754Y-55512380D01*
X44031459Y-55535649D01*
X44091123Y-55679693D01*
X44091130Y-55679706D01*
X44178731Y-55810809D01*
X44178734Y-55810813D01*
X44290228Y-55922307D01*
X44290232Y-55922310D01*
X44421335Y-56009911D01*
X44421348Y-56009918D01*
X44567019Y-56070256D01*
X44567024Y-56070258D01*
X44721674Y-56101020D01*
X44721677Y-56101021D01*
X44721679Y-56101021D01*
X44879365Y-56101021D01*
X44879366Y-56101020D01*
X45034018Y-56070258D01*
X45179700Y-56009915D01*
X45310810Y-55922310D01*
X45422310Y-55810810D01*
X45509915Y-55679700D01*
X45570258Y-55534018D01*
X45601021Y-55379363D01*
X45601021Y-55221679D01*
X45601021Y-55221676D01*
X45601020Y-55221674D01*
X45572572Y-55078658D01*
X45570258Y-55067024D01*
X45514731Y-54932968D01*
X45509918Y-54921348D01*
X45509911Y-54921335D01*
X45422310Y-54790232D01*
X45422307Y-54790228D01*
X45310813Y-54678734D01*
X45310809Y-54678731D01*
X45179706Y-54591130D01*
X45179693Y-54591123D01*
X45035649Y-54531459D01*
X44981245Y-54487618D01*
X44968540Y-54464350D01*
X44908876Y-54320306D01*
X44908869Y-54320293D01*
X44821268Y-54189190D01*
X44821265Y-54189186D01*
X44709771Y-54077692D01*
X44709767Y-54077689D01*
X44578664Y-53990088D01*
X44578651Y-53990081D01*
X44432980Y-53929743D01*
X44432968Y-53929740D01*
X44278324Y-53898979D01*
X44278321Y-53898979D01*
X44120637Y-53898979D01*
X44120634Y-53898979D01*
X43965989Y-53929740D01*
X43965977Y-53929743D01*
X43820306Y-53990081D01*
X43820293Y-53990088D01*
X43689190Y-54077689D01*
X43689186Y-54077692D01*
X43577692Y-54189186D01*
X43577689Y-54189190D01*
X43490088Y-54320293D01*
X43490081Y-54320306D01*
X43429743Y-54465977D01*
X43429740Y-54465989D01*
X43398979Y-54620632D01*
X17500500Y-54620632D01*
X17500500Y-53433653D01*
X30549500Y-53433653D01*
X30549500Y-53591346D01*
X30580261Y-53745989D01*
X30580264Y-53746001D01*
X30640602Y-53891672D01*
X30640609Y-53891685D01*
X30728210Y-54022788D01*
X30728213Y-54022792D01*
X30839707Y-54134286D01*
X30839711Y-54134289D01*
X30970814Y-54221890D01*
X30970827Y-54221897D01*
X31116498Y-54282235D01*
X31116503Y-54282237D01*
X31271153Y-54312999D01*
X31271156Y-54313000D01*
X31271158Y-54313000D01*
X31428844Y-54313000D01*
X31428845Y-54312999D01*
X31583497Y-54282237D01*
X31729179Y-54221894D01*
X31860289Y-54134289D01*
X31971789Y-54022789D01*
X32059394Y-53891679D01*
X32119737Y-53745997D01*
X32150500Y-53591342D01*
X32150500Y-53433658D01*
X32150500Y-53433655D01*
X32150499Y-53433653D01*
X32119738Y-53279010D01*
X32119737Y-53279003D01*
X32119735Y-53278998D01*
X32059397Y-53133327D01*
X32059390Y-53133314D01*
X31971789Y-53002211D01*
X31971786Y-53002207D01*
X31860292Y-52890713D01*
X31860288Y-52890710D01*
X31729185Y-52803109D01*
X31729172Y-52803102D01*
X31583501Y-52742764D01*
X31583489Y-52742761D01*
X31428845Y-52712000D01*
X31428842Y-52712000D01*
X31271158Y-52712000D01*
X31271155Y-52712000D01*
X31116510Y-52742761D01*
X31116498Y-52742764D01*
X30970827Y-52803102D01*
X30970814Y-52803109D01*
X30839711Y-52890710D01*
X30839707Y-52890713D01*
X30728213Y-53002207D01*
X30728210Y-53002211D01*
X30640609Y-53133314D01*
X30640602Y-53133327D01*
X30580264Y-53278998D01*
X30580261Y-53279010D01*
X30549500Y-53433653D01*
X17500500Y-53433653D01*
X17500500Y-51421153D01*
X30549500Y-51421153D01*
X30549500Y-51578846D01*
X30580261Y-51733489D01*
X30580264Y-51733501D01*
X30640602Y-51879172D01*
X30640609Y-51879185D01*
X30728210Y-52010288D01*
X30728213Y-52010292D01*
X30839707Y-52121786D01*
X30839711Y-52121789D01*
X30970814Y-52209390D01*
X30970827Y-52209397D01*
X31116498Y-52269735D01*
X31116503Y-52269737D01*
X31271153Y-52300499D01*
X31271156Y-52300500D01*
X31271158Y-52300500D01*
X31428844Y-52300500D01*
X31428845Y-52300499D01*
X31583497Y-52269737D01*
X31729179Y-52209394D01*
X31860289Y-52121789D01*
X31971789Y-52010289D01*
X32059394Y-51879179D01*
X32119737Y-51733497D01*
X32150500Y-51578842D01*
X32150500Y-51421158D01*
X32150500Y-51421155D01*
X32150499Y-51421153D01*
X32119738Y-51266510D01*
X32119737Y-51266503D01*
X32119735Y-51266498D01*
X32059397Y-51120827D01*
X32059390Y-51120814D01*
X31971789Y-50989711D01*
X31971786Y-50989707D01*
X31860292Y-50878213D01*
X31860288Y-50878210D01*
X31729185Y-50790609D01*
X31729172Y-50790602D01*
X31583501Y-50730264D01*
X31583489Y-50730261D01*
X31428845Y-50699500D01*
X31428842Y-50699500D01*
X31271158Y-50699500D01*
X31271155Y-50699500D01*
X31116510Y-50730261D01*
X31116498Y-50730264D01*
X30970827Y-50790602D01*
X30970814Y-50790609D01*
X30839711Y-50878210D01*
X30839707Y-50878213D01*
X30728213Y-50989707D01*
X30728210Y-50989711D01*
X30640609Y-51120814D01*
X30640602Y-51120827D01*
X30580264Y-51266498D01*
X30580261Y-51266510D01*
X30549500Y-51421153D01*
X17500500Y-51421153D01*
X17500500Y-49921153D01*
X24199500Y-49921153D01*
X24199500Y-50078846D01*
X24230261Y-50233489D01*
X24230264Y-50233501D01*
X24290602Y-50379172D01*
X24290609Y-50379185D01*
X24378210Y-50510288D01*
X24378213Y-50510292D01*
X24489707Y-50621786D01*
X24489711Y-50621789D01*
X24620814Y-50709390D01*
X24620827Y-50709397D01*
X24766498Y-50769735D01*
X24766503Y-50769737D01*
X24921153Y-50800499D01*
X24921156Y-50800500D01*
X24921158Y-50800500D01*
X25078844Y-50800500D01*
X25078845Y-50800499D01*
X25233497Y-50769737D01*
X25379179Y-50709394D01*
X25510289Y-50621789D01*
X25621789Y-50510289D01*
X25709394Y-50379179D01*
X25769737Y-50233497D01*
X25800500Y-50078842D01*
X25800500Y-49921158D01*
X25800500Y-49921155D01*
X25800499Y-49921153D01*
X25774264Y-49789257D01*
X25770662Y-49771153D01*
X35199500Y-49771153D01*
X35199500Y-49928846D01*
X35230261Y-50083489D01*
X35230264Y-50083501D01*
X35290602Y-50229172D01*
X35290609Y-50229185D01*
X35378210Y-50360288D01*
X35378213Y-50360292D01*
X35489707Y-50471786D01*
X35489711Y-50471789D01*
X35620814Y-50559390D01*
X35620827Y-50559397D01*
X35766498Y-50619735D01*
X35766503Y-50619737D01*
X35921153Y-50650499D01*
X35921156Y-50650500D01*
X35921158Y-50650500D01*
X36078844Y-50650500D01*
X36078845Y-50650499D01*
X36233497Y-50619737D01*
X36379179Y-50559394D01*
X36510289Y-50471789D01*
X36621789Y-50360289D01*
X36709394Y-50229179D01*
X36769737Y-50083497D01*
X36800500Y-49928842D01*
X36800500Y-49771158D01*
X36800500Y-49771155D01*
X36800499Y-49771153D01*
X36770596Y-49620821D01*
X36769737Y-49616503D01*
X36732866Y-49527487D01*
X36709397Y-49470827D01*
X36709390Y-49470814D01*
X36621789Y-49339711D01*
X36621786Y-49339707D01*
X36510292Y-49228213D01*
X36510288Y-49228210D01*
X36379185Y-49140609D01*
X36379172Y-49140602D01*
X36233501Y-49080264D01*
X36233489Y-49080261D01*
X36078845Y-49049500D01*
X36078842Y-49049500D01*
X35921158Y-49049500D01*
X35921155Y-49049500D01*
X35766510Y-49080261D01*
X35766498Y-49080264D01*
X35620827Y-49140602D01*
X35620814Y-49140609D01*
X35489711Y-49228210D01*
X35489707Y-49228213D01*
X35378213Y-49339707D01*
X35378210Y-49339711D01*
X35290609Y-49470814D01*
X35290602Y-49470827D01*
X35230264Y-49616498D01*
X35230261Y-49616510D01*
X35199500Y-49771153D01*
X25770662Y-49771153D01*
X25769738Y-49766507D01*
X25769735Y-49766498D01*
X25709397Y-49620827D01*
X25709390Y-49620814D01*
X25621789Y-49489711D01*
X25621786Y-49489707D01*
X25510292Y-49378213D01*
X25510288Y-49378210D01*
X25379185Y-49290609D01*
X25379172Y-49290602D01*
X25233501Y-49230264D01*
X25233489Y-49230261D01*
X25078845Y-49199500D01*
X25078842Y-49199500D01*
X24921158Y-49199500D01*
X24921155Y-49199500D01*
X24766510Y-49230261D01*
X24766498Y-49230264D01*
X24620827Y-49290602D01*
X24620814Y-49290609D01*
X24489711Y-49378210D01*
X24489707Y-49378213D01*
X24378213Y-49489707D01*
X24378210Y-49489711D01*
X24290609Y-49620814D01*
X24290602Y-49620827D01*
X24230264Y-49766498D01*
X24230261Y-49766510D01*
X24199500Y-49921153D01*
X17500500Y-49921153D01*
X17500500Y-47671153D01*
X35949500Y-47671153D01*
X35949500Y-47828846D01*
X35980261Y-47983489D01*
X35980264Y-47983501D01*
X36040602Y-48129172D01*
X36040609Y-48129185D01*
X36128210Y-48260288D01*
X36128213Y-48260292D01*
X36239707Y-48371786D01*
X36239711Y-48371789D01*
X36370814Y-48459390D01*
X36370827Y-48459397D01*
X36516498Y-48519735D01*
X36516503Y-48519737D01*
X36671153Y-48550499D01*
X36671156Y-48550500D01*
X36671158Y-48550500D01*
X36828844Y-48550500D01*
X36828845Y-48550499D01*
X36983497Y-48519737D01*
X37129179Y-48459394D01*
X37186411Y-48421153D01*
X42699500Y-48421153D01*
X42699500Y-48578846D01*
X42730261Y-48733489D01*
X42730264Y-48733501D01*
X42790602Y-48879172D01*
X42790609Y-48879185D01*
X42878210Y-49010288D01*
X42878213Y-49010292D01*
X42989707Y-49121786D01*
X42989711Y-49121789D01*
X43120814Y-49209390D01*
X43120827Y-49209397D01*
X43266498Y-49269735D01*
X43266503Y-49269737D01*
X43421153Y-49300499D01*
X43421156Y-49300500D01*
X43421158Y-49300500D01*
X43578844Y-49300500D01*
X43578845Y-49300499D01*
X43733497Y-49269737D01*
X43879179Y-49209394D01*
X44010289Y-49121789D01*
X44121789Y-49010289D01*
X44209394Y-48879179D01*
X44269737Y-48733497D01*
X44300500Y-48578842D01*
X44300500Y-48421158D01*
X44300500Y-48421155D01*
X44276750Y-48301758D01*
X44276750Y-48301757D01*
X44273148Y-48283653D01*
X46699500Y-48283653D01*
X46699500Y-48441346D01*
X46730261Y-48595989D01*
X46730264Y-48596001D01*
X46790602Y-48741672D01*
X46790609Y-48741685D01*
X46878210Y-48872788D01*
X46878213Y-48872792D01*
X46989707Y-48984286D01*
X46989711Y-48984289D01*
X47120814Y-49071890D01*
X47120827Y-49071897D01*
X47211656Y-49109519D01*
X47266503Y-49132237D01*
X47421153Y-49162999D01*
X47421156Y-49163000D01*
X47421158Y-49163000D01*
X47578844Y-49163000D01*
X47578845Y-49162999D01*
X47733497Y-49132237D01*
X47879179Y-49071894D01*
X48010289Y-48984289D01*
X48121789Y-48872789D01*
X48209394Y-48741679D01*
X48269737Y-48595997D01*
X48300500Y-48441342D01*
X48300500Y-48283658D01*
X48300500Y-48283655D01*
X48300499Y-48283653D01*
X48269772Y-48129179D01*
X48269737Y-48129003D01*
X48269735Y-48128998D01*
X48209397Y-47983327D01*
X48209390Y-47983314D01*
X48161022Y-47910927D01*
X48121789Y-47852210D01*
X48116481Y-47846902D01*
X62999500Y-47846902D01*
X62999500Y-48083097D01*
X63036446Y-48316368D01*
X63109433Y-48540996D01*
X63211687Y-48741679D01*
X63216657Y-48751433D01*
X63355483Y-48942510D01*
X63522490Y-49109517D01*
X63557127Y-49134683D01*
X63599792Y-49190013D01*
X63605771Y-49259626D01*
X63573165Y-49321421D01*
X63557130Y-49335315D01*
X63551080Y-49339711D01*
X63522488Y-49360484D01*
X63355485Y-49527487D01*
X63355485Y-49527488D01*
X63355483Y-49527490D01*
X63295862Y-49609550D01*
X63216657Y-49718566D01*
X63109433Y-49929003D01*
X63036446Y-50153631D01*
X62999500Y-50386902D01*
X62999500Y-50623097D01*
X63036446Y-50856368D01*
X63109433Y-51080996D01*
X63203958Y-51266510D01*
X63216657Y-51291433D01*
X63355483Y-51482510D01*
X63522490Y-51649517D01*
X63713567Y-51788343D01*
X63812991Y-51839002D01*
X63924003Y-51895566D01*
X63924005Y-51895566D01*
X63924008Y-51895568D01*
X64044412Y-51934689D01*
X64148631Y-51968553D01*
X64381903Y-52005500D01*
X64381908Y-52005500D01*
X64618097Y-52005500D01*
X64851368Y-51968553D01*
X65075992Y-51895568D01*
X65286433Y-51788343D01*
X65477510Y-51649517D01*
X65644517Y-51482510D01*
X65783343Y-51291433D01*
X65890568Y-51080992D01*
X65963553Y-50856368D01*
X65977274Y-50769737D01*
X66000500Y-50623097D01*
X66000500Y-50386902D01*
X65963553Y-50153631D01*
X65890566Y-49929003D01*
X65807771Y-49766510D01*
X65783343Y-49718567D01*
X65644517Y-49527490D01*
X65477510Y-49360483D01*
X65442872Y-49335317D01*
X65400207Y-49279989D01*
X65394228Y-49210375D01*
X65426833Y-49148580D01*
X65442873Y-49134682D01*
X65446237Y-49132238D01*
X65477510Y-49109517D01*
X65644517Y-48942510D01*
X65783343Y-48751433D01*
X65890568Y-48540992D01*
X65963553Y-48316368D01*
X65971452Y-48266498D01*
X66000500Y-48083097D01*
X66000500Y-47846902D01*
X65963553Y-47613631D01*
X65890566Y-47389003D01*
X65814495Y-47239707D01*
X65783343Y-47178567D01*
X65644517Y-46987490D01*
X65477510Y-46820483D01*
X65286433Y-46681657D01*
X65075996Y-46574433D01*
X64851368Y-46501446D01*
X64618097Y-46464500D01*
X64618092Y-46464500D01*
X64381908Y-46464500D01*
X64381903Y-46464500D01*
X64148631Y-46501446D01*
X63924003Y-46574433D01*
X63713566Y-46681657D01*
X63642210Y-46733501D01*
X63522490Y-46820483D01*
X63522488Y-46820485D01*
X63522487Y-46820485D01*
X63355485Y-46987487D01*
X63355485Y-46987488D01*
X63355483Y-46987490D01*
X63316895Y-47040602D01*
X63216657Y-47178566D01*
X63109433Y-47389003D01*
X63036446Y-47613631D01*
X62999500Y-47846902D01*
X48116481Y-47846902D01*
X48010292Y-47740713D01*
X48010288Y-47740710D01*
X47879185Y-47653109D01*
X47879172Y-47653102D01*
X47733501Y-47592764D01*
X47733489Y-47592761D01*
X47578845Y-47562000D01*
X47578842Y-47562000D01*
X47421158Y-47562000D01*
X47421155Y-47562000D01*
X47266510Y-47592761D01*
X47266498Y-47592764D01*
X47120827Y-47653102D01*
X47120814Y-47653109D01*
X46989711Y-47740710D01*
X46989707Y-47740713D01*
X46878213Y-47852207D01*
X46878210Y-47852211D01*
X46790609Y-47983314D01*
X46790602Y-47983327D01*
X46730264Y-48128998D01*
X46730261Y-48129010D01*
X46699500Y-48283653D01*
X44273148Y-48283653D01*
X44269738Y-48266510D01*
X44269737Y-48266503D01*
X44267163Y-48260288D01*
X44209397Y-48120827D01*
X44209390Y-48120814D01*
X44121789Y-47989711D01*
X44121786Y-47989707D01*
X44010292Y-47878213D01*
X44010288Y-47878210D01*
X43879185Y-47790609D01*
X43879172Y-47790602D01*
X43733501Y-47730264D01*
X43733489Y-47730261D01*
X43578845Y-47699500D01*
X43578842Y-47699500D01*
X43421158Y-47699500D01*
X43421155Y-47699500D01*
X43266510Y-47730261D01*
X43266498Y-47730264D01*
X43120827Y-47790602D01*
X43120814Y-47790609D01*
X42989711Y-47878210D01*
X42989707Y-47878213D01*
X42878213Y-47989707D01*
X42878210Y-47989711D01*
X42790609Y-48120814D01*
X42790602Y-48120827D01*
X42730264Y-48266498D01*
X42730261Y-48266510D01*
X42699500Y-48421153D01*
X37186411Y-48421153D01*
X37260289Y-48371789D01*
X37260292Y-48371786D01*
X37304694Y-48327385D01*
X37371786Y-48260292D01*
X37371789Y-48260289D01*
X37459394Y-48129179D01*
X37462854Y-48120827D01*
X37517163Y-47989711D01*
X37519737Y-47983497D01*
X37550500Y-47828842D01*
X37550500Y-47671158D01*
X37550500Y-47671155D01*
X37550499Y-47671153D01*
X37519738Y-47516510D01*
X37519737Y-47516503D01*
X37519735Y-47516498D01*
X37459397Y-47370827D01*
X37459390Y-47370814D01*
X37371789Y-47239711D01*
X37371786Y-47239707D01*
X37260292Y-47128213D01*
X37260288Y-47128210D01*
X37129185Y-47040609D01*
X37129172Y-47040602D01*
X36983501Y-46980264D01*
X36983489Y-46980261D01*
X36828845Y-46949500D01*
X36828842Y-46949500D01*
X36671158Y-46949500D01*
X36671155Y-46949500D01*
X36516510Y-46980261D01*
X36516498Y-46980264D01*
X36370827Y-47040602D01*
X36370814Y-47040609D01*
X36239711Y-47128210D01*
X36239707Y-47128213D01*
X36128213Y-47239707D01*
X36128210Y-47239711D01*
X36040609Y-47370814D01*
X36040602Y-47370827D01*
X35980264Y-47516498D01*
X35980261Y-47516510D01*
X35949500Y-47671153D01*
X17500500Y-47671153D01*
X17500500Y-46421153D01*
X41699500Y-46421153D01*
X41699500Y-46578846D01*
X41730261Y-46733489D01*
X41730264Y-46733501D01*
X41790602Y-46879172D01*
X41790609Y-46879185D01*
X41878210Y-47010288D01*
X41878213Y-47010292D01*
X41989707Y-47121786D01*
X41989711Y-47121789D01*
X42120814Y-47209390D01*
X42120827Y-47209397D01*
X42194013Y-47239711D01*
X42266503Y-47269737D01*
X42421153Y-47300499D01*
X42421156Y-47300500D01*
X42421158Y-47300500D01*
X42578844Y-47300500D01*
X42578845Y-47300499D01*
X42733497Y-47269737D01*
X42879179Y-47209394D01*
X43010289Y-47121789D01*
X43121789Y-47010289D01*
X43209394Y-46879179D01*
X43269737Y-46733497D01*
X43300500Y-46578842D01*
X43300500Y-46424500D01*
X43320185Y-46357461D01*
X43372989Y-46311706D01*
X43424500Y-46300500D01*
X43558844Y-46300500D01*
X43558845Y-46300499D01*
X43713497Y-46269737D01*
X43859179Y-46209394D01*
X43990289Y-46121789D01*
X44101789Y-46010289D01*
X44189394Y-45879179D01*
X44249737Y-45733497D01*
X44280500Y-45578842D01*
X44280500Y-45578835D01*
X44281097Y-45572782D01*
X44282837Y-45572953D01*
X44300185Y-45513875D01*
X44352989Y-45468120D01*
X44404500Y-45456914D01*
X44437242Y-45456914D01*
X44437243Y-45456913D01*
X44591895Y-45426151D01*
X44737577Y-45365808D01*
X44868687Y-45278203D01*
X44980187Y-45166703D01*
X45067792Y-45035593D01*
X45070219Y-45029735D01*
X45128133Y-44889915D01*
X45128135Y-44889911D01*
X45158898Y-44735256D01*
X45158898Y-44577572D01*
X45158897Y-44577567D01*
X45158826Y-44576843D01*
X45158898Y-44576463D01*
X45158898Y-44571480D01*
X45159843Y-44571480D01*
X45171844Y-44508197D01*
X45219909Y-44457486D01*
X45287760Y-44440811D01*
X45306421Y-44443071D01*
X45416175Y-44464903D01*
X45416178Y-44464903D01*
X45573864Y-44464903D01*
X45573865Y-44464902D01*
X45728517Y-44434140D01*
X45874199Y-44373797D01*
X46005309Y-44286192D01*
X46116809Y-44174692D01*
X46204414Y-44043582D01*
X46208125Y-44034624D01*
X46244411Y-43947020D01*
X46264757Y-43897900D01*
X46295520Y-43743245D01*
X46295520Y-43664400D01*
X46315205Y-43597361D01*
X46368009Y-43551606D01*
X46372035Y-43549853D01*
X46379179Y-43546894D01*
X46510289Y-43459289D01*
X46621789Y-43347789D01*
X46709394Y-43216679D01*
X46769737Y-43070997D01*
X46800500Y-42916342D01*
X46800500Y-42758658D01*
X46800500Y-42758655D01*
X46800499Y-42758653D01*
X46793697Y-42724456D01*
X46769737Y-42604003D01*
X46758778Y-42577545D01*
X46709397Y-42458327D01*
X46709390Y-42458314D01*
X46621789Y-42327211D01*
X46621786Y-42327207D01*
X46510292Y-42215713D01*
X46510288Y-42215710D01*
X46379185Y-42128109D01*
X46379172Y-42128102D01*
X46233501Y-42067764D01*
X46233489Y-42067761D01*
X46078845Y-42037000D01*
X46078842Y-42037000D01*
X45921158Y-42037000D01*
X45921155Y-42037000D01*
X45766510Y-42067761D01*
X45766498Y-42067764D01*
X45620827Y-42128102D01*
X45620814Y-42128109D01*
X45489711Y-42215710D01*
X45489707Y-42215713D01*
X45378213Y-42327207D01*
X45378210Y-42327211D01*
X45290609Y-42458314D01*
X45290602Y-42458327D01*
X45230264Y-42603998D01*
X45230261Y-42604010D01*
X45199500Y-42758653D01*
X45199500Y-42837502D01*
X45179815Y-42904541D01*
X45127011Y-42950296D01*
X45122957Y-42952061D01*
X45115842Y-42955008D01*
X45115838Y-42955010D01*
X44984735Y-43042610D01*
X44984727Y-43042616D01*
X44873233Y-43154110D01*
X44873230Y-43154114D01*
X44785629Y-43285217D01*
X44785622Y-43285230D01*
X44725284Y-43430901D01*
X44725281Y-43430913D01*
X44694520Y-43585556D01*
X44694520Y-43743257D01*
X44694592Y-43743989D01*
X44694520Y-43744368D01*
X44694520Y-43749337D01*
X44693577Y-43749337D01*
X44681565Y-43812634D01*
X44633494Y-43863338D01*
X44565641Y-43880004D01*
X44546997Y-43877745D01*
X44437244Y-43855914D01*
X44437240Y-43855914D01*
X44279556Y-43855914D01*
X44279553Y-43855914D01*
X44124908Y-43886675D01*
X44124896Y-43886678D01*
X43979225Y-43947016D01*
X43979212Y-43947023D01*
X43848109Y-44034624D01*
X43848105Y-44034627D01*
X43736611Y-44146121D01*
X43736608Y-44146125D01*
X43649007Y-44277228D01*
X43649000Y-44277241D01*
X43588662Y-44422912D01*
X43588659Y-44422924D01*
X43557898Y-44577567D01*
X43557301Y-44583632D01*
X43555560Y-44583460D01*
X43538213Y-44642539D01*
X43485409Y-44688294D01*
X43433898Y-44699500D01*
X43401155Y-44699500D01*
X43246510Y-44730261D01*
X43246498Y-44730264D01*
X43100827Y-44790602D01*
X43100814Y-44790609D01*
X42969711Y-44878210D01*
X42969707Y-44878213D01*
X42858213Y-44989707D01*
X42858210Y-44989711D01*
X42770609Y-45120814D01*
X42770602Y-45120827D01*
X42710264Y-45266498D01*
X42710261Y-45266510D01*
X42679500Y-45421153D01*
X42679500Y-45575500D01*
X42659815Y-45642539D01*
X42607011Y-45688294D01*
X42555500Y-45699500D01*
X42421155Y-45699500D01*
X42266510Y-45730261D01*
X42266498Y-45730264D01*
X42120827Y-45790602D01*
X42120814Y-45790609D01*
X41989711Y-45878210D01*
X41989707Y-45878213D01*
X41878213Y-45989707D01*
X41878210Y-45989711D01*
X41790609Y-46120814D01*
X41790602Y-46120827D01*
X41730264Y-46266498D01*
X41730261Y-46266510D01*
X41699500Y-46421153D01*
X17500500Y-46421153D01*
X17500500Y-44921153D01*
X33199500Y-44921153D01*
X33199500Y-45078846D01*
X33230261Y-45233489D01*
X33230264Y-45233501D01*
X33290602Y-45379172D01*
X33290609Y-45379185D01*
X33378210Y-45510288D01*
X33378213Y-45510292D01*
X33489707Y-45621786D01*
X33489711Y-45621789D01*
X33620814Y-45709390D01*
X33620827Y-45709397D01*
X33766498Y-45769735D01*
X33766503Y-45769737D01*
X33921153Y-45800499D01*
X33921156Y-45800500D01*
X33921158Y-45800500D01*
X34078844Y-45800500D01*
X34078845Y-45800499D01*
X34233497Y-45769737D01*
X34379179Y-45709394D01*
X34510289Y-45621789D01*
X34621789Y-45510289D01*
X34709394Y-45379179D01*
X34769737Y-45233497D01*
X34800500Y-45078842D01*
X34800500Y-44932612D01*
X34820185Y-44865573D01*
X34872989Y-44819818D01*
X34942147Y-44809874D01*
X35005703Y-44838899D01*
X35012181Y-44844931D01*
X35049036Y-44881786D01*
X35049040Y-44881789D01*
X35180143Y-44969390D01*
X35180156Y-44969397D01*
X35325827Y-45029735D01*
X35325832Y-45029737D01*
X35480482Y-45060499D01*
X35480485Y-45060500D01*
X35480487Y-45060500D01*
X35638173Y-45060500D01*
X35638174Y-45060499D01*
X35792826Y-45029737D01*
X35938508Y-44969394D01*
X36069618Y-44881789D01*
X36181118Y-44770289D01*
X36268723Y-44639179D01*
X36329066Y-44493497D01*
X36359829Y-44338842D01*
X36359829Y-44181158D01*
X36359829Y-44181155D01*
X36359828Y-44181153D01*
X36345533Y-44109289D01*
X36329066Y-44026503D01*
X36317174Y-43997792D01*
X36268726Y-43880827D01*
X36268719Y-43880814D01*
X36181118Y-43749711D01*
X36181115Y-43749707D01*
X36069621Y-43638213D01*
X36069617Y-43638210D01*
X35938514Y-43550609D01*
X35938501Y-43550602D01*
X35797680Y-43492273D01*
X35743276Y-43448432D01*
X35730036Y-43408653D01*
X41698468Y-43408653D01*
X41698468Y-43566346D01*
X41729229Y-43720989D01*
X41729232Y-43721001D01*
X41789570Y-43866672D01*
X41789577Y-43866685D01*
X41877178Y-43997788D01*
X41877181Y-43997792D01*
X41988675Y-44109286D01*
X41988679Y-44109289D01*
X42119782Y-44196890D01*
X42119795Y-44196897D01*
X42265466Y-44257235D01*
X42265471Y-44257237D01*
X42411022Y-44286189D01*
X42420121Y-44287999D01*
X42420124Y-44288000D01*
X42420126Y-44288000D01*
X42577812Y-44288000D01*
X42577813Y-44287999D01*
X42732465Y-44257237D01*
X42878147Y-44196894D01*
X43009257Y-44109289D01*
X43120757Y-43997789D01*
X43208362Y-43866679D01*
X43268705Y-43720997D01*
X43299468Y-43566342D01*
X43299468Y-43408658D01*
X43299468Y-43408655D01*
X43299467Y-43408653D01*
X43289847Y-43360289D01*
X43268705Y-43254003D01*
X43265759Y-43246890D01*
X43208365Y-43108327D01*
X43208358Y-43108314D01*
X43120757Y-42977211D01*
X43120754Y-42977207D01*
X43009260Y-42865713D01*
X43009256Y-42865710D01*
X42878153Y-42778109D01*
X42878140Y-42778102D01*
X42732469Y-42717764D01*
X42732457Y-42717761D01*
X42577813Y-42687000D01*
X42577810Y-42687000D01*
X42420126Y-42687000D01*
X42420123Y-42687000D01*
X42265478Y-42717761D01*
X42265466Y-42717764D01*
X42119795Y-42778102D01*
X42119782Y-42778109D01*
X41988679Y-42865710D01*
X41988675Y-42865713D01*
X41877181Y-42977207D01*
X41877178Y-42977211D01*
X41789577Y-43108314D01*
X41789570Y-43108327D01*
X41729232Y-43253998D01*
X41729229Y-43254010D01*
X41698468Y-43408653D01*
X35730036Y-43408653D01*
X35721211Y-43382138D01*
X35738490Y-43314439D01*
X35789627Y-43266828D01*
X35797649Y-43263164D01*
X35879179Y-43229394D01*
X36010289Y-43141789D01*
X36121789Y-43030289D01*
X36209394Y-42899179D01*
X36269737Y-42753497D01*
X36300500Y-42598842D01*
X36300500Y-42441158D01*
X36300500Y-42441155D01*
X36300499Y-42441153D01*
X36290437Y-42390568D01*
X36269737Y-42286503D01*
X36247783Y-42233501D01*
X36209397Y-42140827D01*
X36209390Y-42140814D01*
X36121789Y-42009711D01*
X36121786Y-42009707D01*
X36010292Y-41898213D01*
X36010288Y-41898210D01*
X35879185Y-41810609D01*
X35879172Y-41810602D01*
X35733501Y-41750264D01*
X35733489Y-41750261D01*
X35578845Y-41719500D01*
X35578842Y-41719500D01*
X35421158Y-41719500D01*
X35421155Y-41719500D01*
X35266510Y-41750261D01*
X35266498Y-41750264D01*
X35120827Y-41810602D01*
X35120814Y-41810609D01*
X34989711Y-41898210D01*
X34989707Y-41898213D01*
X34878213Y-42009707D01*
X34878210Y-42009711D01*
X34790609Y-42140814D01*
X34790602Y-42140827D01*
X34730264Y-42286498D01*
X34730261Y-42286510D01*
X34699500Y-42441153D01*
X34699500Y-42598846D01*
X34730261Y-42753489D01*
X34730264Y-42753501D01*
X34790602Y-42899172D01*
X34790609Y-42899185D01*
X34878210Y-43030288D01*
X34878213Y-43030292D01*
X34989707Y-43141786D01*
X34989711Y-43141789D01*
X35120814Y-43229390D01*
X35120827Y-43229397D01*
X35261648Y-43287726D01*
X35316052Y-43331566D01*
X35338117Y-43397860D01*
X35320838Y-43465560D01*
X35269701Y-43513171D01*
X35261649Y-43516848D01*
X35180152Y-43550604D01*
X35180143Y-43550609D01*
X35049040Y-43638210D01*
X35049036Y-43638213D01*
X34937542Y-43749707D01*
X34937539Y-43749711D01*
X34849938Y-43880814D01*
X34849931Y-43880827D01*
X34789593Y-44026498D01*
X34789590Y-44026510D01*
X34758829Y-44181153D01*
X34758829Y-44327388D01*
X34739144Y-44394427D01*
X34686340Y-44440182D01*
X34617182Y-44450126D01*
X34553626Y-44421101D01*
X34547148Y-44415069D01*
X34510292Y-44378213D01*
X34510288Y-44378210D01*
X34379185Y-44290609D01*
X34379172Y-44290602D01*
X34233501Y-44230264D01*
X34233489Y-44230261D01*
X34078845Y-44199500D01*
X34078842Y-44199500D01*
X33921158Y-44199500D01*
X33921155Y-44199500D01*
X33766510Y-44230261D01*
X33766498Y-44230264D01*
X33620827Y-44290602D01*
X33620814Y-44290609D01*
X33489711Y-44378210D01*
X33489707Y-44378213D01*
X33378213Y-44489707D01*
X33378210Y-44489711D01*
X33290609Y-44620814D01*
X33290602Y-44620827D01*
X33230264Y-44766498D01*
X33230261Y-44766510D01*
X33199500Y-44921153D01*
X17500500Y-44921153D01*
X17500500Y-41921153D01*
X30199500Y-41921153D01*
X30199500Y-42078846D01*
X30230261Y-42233489D01*
X30230264Y-42233501D01*
X30290602Y-42379172D01*
X30290609Y-42379185D01*
X30378210Y-42510288D01*
X30378213Y-42510292D01*
X30489707Y-42621786D01*
X30489711Y-42621789D01*
X30620814Y-42709390D01*
X30620827Y-42709397D01*
X30762116Y-42767920D01*
X30766503Y-42769737D01*
X30921153Y-42800499D01*
X30921156Y-42800500D01*
X30921158Y-42800500D01*
X31078844Y-42800500D01*
X31078845Y-42800499D01*
X31233497Y-42769737D01*
X31379179Y-42709394D01*
X31510289Y-42621789D01*
X31621789Y-42510289D01*
X31709394Y-42379179D01*
X31769737Y-42233497D01*
X31800500Y-42078842D01*
X31800500Y-41921158D01*
X31800500Y-41921155D01*
X31800499Y-41921153D01*
X31799628Y-41916772D01*
X31769737Y-41766503D01*
X31763010Y-41750263D01*
X31709397Y-41620827D01*
X31709390Y-41620814D01*
X31621789Y-41489711D01*
X31621786Y-41489707D01*
X31510292Y-41378213D01*
X31510288Y-41378210D01*
X31379185Y-41290609D01*
X31379172Y-41290602D01*
X31233501Y-41230264D01*
X31233489Y-41230261D01*
X31078845Y-41199500D01*
X31078842Y-41199500D01*
X30921158Y-41199500D01*
X30921155Y-41199500D01*
X30766510Y-41230261D01*
X30766498Y-41230264D01*
X30620827Y-41290602D01*
X30620814Y-41290609D01*
X30489711Y-41378210D01*
X30489707Y-41378213D01*
X30378213Y-41489707D01*
X30378210Y-41489711D01*
X30290609Y-41620814D01*
X30290602Y-41620827D01*
X30230264Y-41766498D01*
X30230261Y-41766510D01*
X30199500Y-41921153D01*
X17500500Y-41921153D01*
X17500500Y-39921153D01*
X31699500Y-39921153D01*
X31699500Y-40078846D01*
X31730261Y-40233489D01*
X31730264Y-40233501D01*
X31790602Y-40379172D01*
X31790609Y-40379185D01*
X31878210Y-40510288D01*
X31878213Y-40510292D01*
X31989707Y-40621786D01*
X31989711Y-40621789D01*
X32120814Y-40709390D01*
X32120827Y-40709397D01*
X32235364Y-40756839D01*
X32266503Y-40769737D01*
X32421153Y-40800499D01*
X32421156Y-40800500D01*
X32421158Y-40800500D01*
X32578844Y-40800500D01*
X32578845Y-40800499D01*
X32733497Y-40769737D01*
X32879179Y-40709394D01*
X33010289Y-40621789D01*
X33121789Y-40510289D01*
X33209394Y-40379179D01*
X33269737Y-40233497D01*
X33300500Y-40078842D01*
X33300500Y-39921158D01*
X33300500Y-39921155D01*
X33300499Y-39921153D01*
X33287437Y-39855485D01*
X33269737Y-39766503D01*
X33266069Y-39757647D01*
X33209397Y-39620827D01*
X33209390Y-39620814D01*
X33121789Y-39489711D01*
X33121786Y-39489707D01*
X33010292Y-39378213D01*
X33010288Y-39378210D01*
X32921924Y-39319167D01*
X32879184Y-39290609D01*
X32879172Y-39290602D01*
X32733501Y-39230264D01*
X32733489Y-39230261D01*
X32692723Y-39222152D01*
X36797021Y-39222152D01*
X36797021Y-39379845D01*
X36827782Y-39534488D01*
X36827785Y-39534500D01*
X36888123Y-39680171D01*
X36888130Y-39680184D01*
X36975731Y-39811287D01*
X36975734Y-39811291D01*
X37087229Y-39922786D01*
X37087232Y-39922788D01*
X37154095Y-39967464D01*
X37198899Y-40021075D01*
X37207607Y-40090400D01*
X37206825Y-40094737D01*
X37201446Y-40121786D01*
X37199498Y-40131578D01*
X37199498Y-40289264D01*
X37230258Y-40443906D01*
X37230261Y-40443915D01*
X37235976Y-40457713D01*
X37243442Y-40527182D01*
X37224517Y-40574050D01*
X37190506Y-40624952D01*
X37190501Y-40624961D01*
X37130163Y-40770631D01*
X37130160Y-40770643D01*
X37099399Y-40925286D01*
X37099399Y-41082979D01*
X37130160Y-41237622D01*
X37130163Y-41237634D01*
X37190501Y-41383305D01*
X37190508Y-41383318D01*
X37224517Y-41434215D01*
X37245395Y-41500892D01*
X37235977Y-41550557D01*
X37230264Y-41564349D01*
X37230262Y-41564353D01*
X37199501Y-41719001D01*
X37199501Y-41849733D01*
X37179816Y-41916772D01*
X37163182Y-41937414D01*
X37073388Y-42027207D01*
X37073385Y-42027211D01*
X36985784Y-42158314D01*
X36985777Y-42158327D01*
X36925439Y-42303998D01*
X36925436Y-42304010D01*
X36894675Y-42458653D01*
X36894675Y-42616346D01*
X36925436Y-42770989D01*
X36925439Y-42771001D01*
X36985777Y-42916672D01*
X36985784Y-42916685D01*
X37073385Y-43047788D01*
X37073388Y-43047792D01*
X37184882Y-43159286D01*
X37184886Y-43159289D01*
X37315989Y-43246890D01*
X37316002Y-43246897D01*
X37461673Y-43307235D01*
X37461678Y-43307237D01*
X37616328Y-43337999D01*
X37616331Y-43338000D01*
X37616333Y-43338000D01*
X37774019Y-43338000D01*
X37774020Y-43337999D01*
X37928672Y-43307237D01*
X38074354Y-43246894D01*
X38205464Y-43159289D01*
X38316964Y-43047789D01*
X38404569Y-42916679D01*
X38464912Y-42770997D01*
X38495675Y-42616342D01*
X38495675Y-42485614D01*
X38515360Y-42418575D01*
X38531989Y-42397937D01*
X38621790Y-42308137D01*
X38709395Y-42177027D01*
X38769738Y-42031345D01*
X38800501Y-41876690D01*
X38800501Y-41719006D01*
X38800501Y-41719003D01*
X38800500Y-41719001D01*
X38795097Y-41691838D01*
X38769738Y-41564351D01*
X38740075Y-41492737D01*
X38709398Y-41418675D01*
X38709396Y-41418671D01*
X38709395Y-41418669D01*
X38685770Y-41383312D01*
X38681706Y-41377229D01*
X38681706Y-41377228D01*
X38675384Y-41367767D01*
X38658680Y-41314425D01*
X42048144Y-41314425D01*
X42048144Y-41472118D01*
X42078905Y-41626761D01*
X42078908Y-41626773D01*
X42139246Y-41772444D01*
X42139253Y-41772457D01*
X42226854Y-41903560D01*
X42226857Y-41903564D01*
X42338351Y-42015058D01*
X42338355Y-42015061D01*
X42469458Y-42102662D01*
X42469471Y-42102669D01*
X42615142Y-42163007D01*
X42615147Y-42163009D01*
X42764166Y-42192651D01*
X42769797Y-42193771D01*
X42769800Y-42193772D01*
X42769802Y-42193772D01*
X42927488Y-42193772D01*
X42927489Y-42193771D01*
X43082141Y-42163009D01*
X43194810Y-42116339D01*
X43227816Y-42102669D01*
X43227816Y-42102668D01*
X43227823Y-42102666D01*
X43358933Y-42015061D01*
X43470433Y-41903561D01*
X43480012Y-41889225D01*
X47168684Y-41889225D01*
X47168684Y-42046918D01*
X47199445Y-42201561D01*
X47199448Y-42201573D01*
X47259786Y-42347244D01*
X47259793Y-42347257D01*
X47347394Y-42478360D01*
X47347397Y-42478364D01*
X47458891Y-42589858D01*
X47458895Y-42589861D01*
X47589998Y-42677462D01*
X47590011Y-42677469D01*
X47703457Y-42724459D01*
X47735687Y-42737809D01*
X47888326Y-42768171D01*
X47890337Y-42768571D01*
X47890340Y-42768572D01*
X47890342Y-42768572D01*
X48048023Y-42768572D01*
X48048026Y-42768572D01*
X48051302Y-42767920D01*
X48053055Y-42768076D01*
X48054091Y-42767975D01*
X48054110Y-42768171D01*
X48120892Y-42774143D01*
X48176073Y-42817002D01*
X48199322Y-42882890D01*
X48199500Y-42889536D01*
X48199500Y-42928846D01*
X48230261Y-43083489D01*
X48230264Y-43083501D01*
X48290602Y-43229172D01*
X48290609Y-43229185D01*
X48378210Y-43360288D01*
X48378213Y-43360292D01*
X48489707Y-43471786D01*
X48489711Y-43471789D01*
X48620814Y-43559390D01*
X48620827Y-43559397D01*
X48712482Y-43597361D01*
X48766503Y-43619737D01*
X48921153Y-43650499D01*
X48921156Y-43650500D01*
X48921158Y-43650500D01*
X49078844Y-43650500D01*
X49078845Y-43650499D01*
X49233497Y-43619737D01*
X49379179Y-43559394D01*
X49510289Y-43471789D01*
X49621789Y-43360289D01*
X49709394Y-43229179D01*
X49769737Y-43083497D01*
X49800500Y-42928842D01*
X49800500Y-42771158D01*
X49800500Y-42771155D01*
X49800499Y-42771153D01*
X49789879Y-42717763D01*
X49769737Y-42616503D01*
X49753598Y-42577540D01*
X53294200Y-42577540D01*
X53294200Y-42724459D01*
X53322858Y-42868534D01*
X53322861Y-42868544D01*
X53379078Y-43004266D01*
X53379083Y-43004275D01*
X53460698Y-43126419D01*
X53460701Y-43126423D01*
X53564576Y-43230298D01*
X53564580Y-43230301D01*
X53686724Y-43311916D01*
X53686730Y-43311919D01*
X53686731Y-43311920D01*
X53822458Y-43368140D01*
X53966540Y-43396799D01*
X53966544Y-43396800D01*
X53966545Y-43396800D01*
X54113456Y-43396800D01*
X54113457Y-43396799D01*
X54257542Y-43368140D01*
X54393269Y-43311920D01*
X54515420Y-43230301D01*
X54619301Y-43126420D01*
X54700920Y-43004269D01*
X54757140Y-42868542D01*
X54785800Y-42724455D01*
X54785800Y-42577545D01*
X54757140Y-42433458D01*
X54705230Y-42308137D01*
X54700921Y-42297733D01*
X54700916Y-42297724D01*
X54619301Y-42175580D01*
X54619298Y-42175576D01*
X54515423Y-42071701D01*
X54515419Y-42071698D01*
X54393275Y-41990083D01*
X54393266Y-41990078D01*
X54257544Y-41933861D01*
X54257545Y-41933861D01*
X54257542Y-41933860D01*
X54257538Y-41933859D01*
X54257534Y-41933858D01*
X54113459Y-41905200D01*
X54113455Y-41905200D01*
X53966545Y-41905200D01*
X53966540Y-41905200D01*
X53822465Y-41933858D01*
X53822455Y-41933861D01*
X53686733Y-41990078D01*
X53686724Y-41990083D01*
X53564580Y-42071698D01*
X53564576Y-42071701D01*
X53460701Y-42175576D01*
X53460698Y-42175580D01*
X53379083Y-42297724D01*
X53379078Y-42297733D01*
X53322861Y-42433455D01*
X53322858Y-42433465D01*
X53294200Y-42577540D01*
X49753598Y-42577540D01*
X49745599Y-42558230D01*
X49709397Y-42470827D01*
X49709390Y-42470814D01*
X49621789Y-42339711D01*
X49621786Y-42339707D01*
X49552458Y-42270379D01*
X49518973Y-42209056D01*
X49523957Y-42139364D01*
X49537037Y-42113806D01*
X49539296Y-42110424D01*
X49539301Y-42110420D01*
X49620920Y-41988269D01*
X49677140Y-41852542D01*
X49705800Y-41708455D01*
X49705800Y-41561545D01*
X49677140Y-41417458D01*
X49628694Y-41300499D01*
X49620921Y-41281733D01*
X49620916Y-41281724D01*
X49539301Y-41159580D01*
X49539298Y-41159576D01*
X49435423Y-41055701D01*
X49435419Y-41055698D01*
X49313275Y-40974083D01*
X49313266Y-40974078D01*
X49182073Y-40919737D01*
X49177542Y-40917860D01*
X49177538Y-40917859D01*
X49177534Y-40917858D01*
X49033459Y-40889200D01*
X49033455Y-40889200D01*
X48886545Y-40889200D01*
X48886540Y-40889200D01*
X48742465Y-40917858D01*
X48742455Y-40917861D01*
X48606733Y-40974078D01*
X48606724Y-40974083D01*
X48484581Y-41055697D01*
X48380696Y-41159583D01*
X48380694Y-41159586D01*
X48378358Y-41163082D01*
X48324742Y-41207882D01*
X48255417Y-41216584D01*
X48227812Y-41208744D01*
X48202682Y-41198335D01*
X48202672Y-41198332D01*
X48048029Y-41167572D01*
X48048026Y-41167572D01*
X47890342Y-41167572D01*
X47890339Y-41167572D01*
X47735694Y-41198333D01*
X47735682Y-41198336D01*
X47590011Y-41258674D01*
X47589998Y-41258681D01*
X47458895Y-41346282D01*
X47458891Y-41346285D01*
X47347397Y-41457779D01*
X47347394Y-41457783D01*
X47259793Y-41588886D01*
X47259786Y-41588899D01*
X47199448Y-41734570D01*
X47199445Y-41734582D01*
X47168684Y-41889225D01*
X43480012Y-41889225D01*
X43558038Y-41772451D01*
X43618381Y-41626769D01*
X43649144Y-41472114D01*
X43649144Y-41435652D01*
X43668829Y-41368613D01*
X43721633Y-41322858D01*
X43790791Y-41312914D01*
X43854347Y-41341939D01*
X43876246Y-41366761D01*
X43960420Y-41492736D01*
X43960423Y-41492740D01*
X44071917Y-41604234D01*
X44071921Y-41604237D01*
X44203024Y-41691838D01*
X44203037Y-41691845D01*
X44306186Y-41734570D01*
X44348713Y-41752185D01*
X44450627Y-41772457D01*
X44503363Y-41782947D01*
X44503366Y-41782948D01*
X44503368Y-41782948D01*
X44661054Y-41782948D01*
X44661055Y-41782947D01*
X44698200Y-41775558D01*
X44768769Y-41761522D01*
X44768774Y-41761521D01*
X44799945Y-41755320D01*
X44815707Y-41752185D01*
X44961389Y-41691842D01*
X45092499Y-41604237D01*
X45203999Y-41492737D01*
X45291604Y-41361627D01*
X45307663Y-41322858D01*
X45354278Y-41210318D01*
X45356782Y-41211355D01*
X45388649Y-41162699D01*
X45452452Y-41134224D01*
X45521523Y-41144765D01*
X45537930Y-41154008D01*
X45546561Y-41159775D01*
X45620821Y-41209394D01*
X45620823Y-41209395D01*
X45620827Y-41209397D01*
X45722279Y-41251419D01*
X45766503Y-41269737D01*
X45921153Y-41300499D01*
X45921156Y-41300500D01*
X45921158Y-41300500D01*
X46078844Y-41300500D01*
X46078845Y-41300499D01*
X46233497Y-41269737D01*
X46379179Y-41209394D01*
X46510289Y-41121789D01*
X46621789Y-41010289D01*
X46709394Y-40879179D01*
X46769737Y-40733497D01*
X46800500Y-40578842D01*
X46800500Y-40421158D01*
X46800500Y-40421155D01*
X46800499Y-40421153D01*
X46796581Y-40401455D01*
X46769737Y-40266503D01*
X46754138Y-40228844D01*
X46709394Y-40120820D01*
X46676207Y-40071153D01*
X49199500Y-40071153D01*
X49199500Y-40228846D01*
X49230261Y-40383489D01*
X49230264Y-40383501D01*
X49290602Y-40529172D01*
X49290609Y-40529185D01*
X49378210Y-40660288D01*
X49378213Y-40660292D01*
X49489707Y-40771786D01*
X49489711Y-40771789D01*
X49620814Y-40859390D01*
X49620827Y-40859397D01*
X49761971Y-40917860D01*
X49766503Y-40919737D01*
X49885218Y-40943351D01*
X49921153Y-40950499D01*
X49921156Y-40950500D01*
X49921158Y-40950500D01*
X50078844Y-40950500D01*
X50078845Y-40950499D01*
X50233497Y-40919737D01*
X50379179Y-40859394D01*
X50510289Y-40771789D01*
X50621789Y-40660289D01*
X50698462Y-40545540D01*
X53294200Y-40545540D01*
X53294200Y-40692459D01*
X53322858Y-40836534D01*
X53322861Y-40836544D01*
X53379078Y-40972266D01*
X53379083Y-40972275D01*
X53460698Y-41094419D01*
X53460701Y-41094423D01*
X53564576Y-41198298D01*
X53564580Y-41198301D01*
X53686724Y-41279916D01*
X53686730Y-41279919D01*
X53686731Y-41279920D01*
X53822458Y-41336140D01*
X53950558Y-41361620D01*
X53966540Y-41364799D01*
X53966544Y-41364800D01*
X53966545Y-41364800D01*
X54113456Y-41364800D01*
X54113457Y-41364799D01*
X54257542Y-41336140D01*
X54393269Y-41279920D01*
X54515420Y-41198301D01*
X54619301Y-41094420D01*
X54700920Y-40972269D01*
X54738351Y-40881902D01*
X55499500Y-40881902D01*
X55499500Y-41118097D01*
X55536446Y-41351368D01*
X55609433Y-41575996D01*
X55698226Y-41750261D01*
X55716657Y-41786433D01*
X55855483Y-41977510D01*
X56022490Y-42144517D01*
X56213567Y-42283343D01*
X56262228Y-42308137D01*
X56424003Y-42390566D01*
X56424005Y-42390566D01*
X56424008Y-42390568D01*
X56513473Y-42419637D01*
X56648631Y-42463553D01*
X56881903Y-42500500D01*
X56881908Y-42500500D01*
X57118097Y-42500500D01*
X57351368Y-42463553D01*
X57366433Y-42458658D01*
X57575992Y-42390568D01*
X57786433Y-42283343D01*
X57977510Y-42144517D01*
X58144517Y-41977510D01*
X58283343Y-41786433D01*
X58390568Y-41575992D01*
X58463553Y-41351368D01*
X58469404Y-41314425D01*
X58500500Y-41118097D01*
X58500500Y-40881902D01*
X58463553Y-40648631D01*
X58427776Y-40538522D01*
X58390568Y-40424008D01*
X58390566Y-40424005D01*
X58390566Y-40424003D01*
X58334002Y-40312991D01*
X58283343Y-40213567D01*
X58144517Y-40022490D01*
X57977510Y-39855483D01*
X57786433Y-39716657D01*
X57753932Y-39700097D01*
X57575996Y-39609433D01*
X57351368Y-39536446D01*
X57118097Y-39499500D01*
X57118092Y-39499500D01*
X56881908Y-39499500D01*
X56881903Y-39499500D01*
X56648631Y-39536446D01*
X56424003Y-39609433D01*
X56213566Y-39716657D01*
X56114808Y-39788410D01*
X56022490Y-39855483D01*
X56022488Y-39855485D01*
X56022487Y-39855485D01*
X55855485Y-40022487D01*
X55855485Y-40022488D01*
X55855483Y-40022490D01*
X55837055Y-40047854D01*
X55716657Y-40213566D01*
X55609433Y-40424003D01*
X55536446Y-40648631D01*
X55499500Y-40881902D01*
X54738351Y-40881902D01*
X54757140Y-40836542D01*
X54785800Y-40692455D01*
X54785800Y-40545545D01*
X54757140Y-40401458D01*
X54700920Y-40265731D01*
X54700919Y-40265730D01*
X54700916Y-40265724D01*
X54619301Y-40143580D01*
X54619298Y-40143576D01*
X54515423Y-40039701D01*
X54515419Y-40039698D01*
X54393275Y-39958083D01*
X54393266Y-39958078D01*
X54257544Y-39901861D01*
X54257545Y-39901861D01*
X54257542Y-39901860D01*
X54257538Y-39901859D01*
X54257534Y-39901858D01*
X54113459Y-39873200D01*
X54113455Y-39873200D01*
X53966545Y-39873200D01*
X53966540Y-39873200D01*
X53822465Y-39901858D01*
X53822455Y-39901861D01*
X53686733Y-39958078D01*
X53686724Y-39958083D01*
X53564580Y-40039698D01*
X53564576Y-40039701D01*
X53460701Y-40143576D01*
X53460698Y-40143580D01*
X53379083Y-40265724D01*
X53379078Y-40265733D01*
X53322861Y-40401455D01*
X53322858Y-40401465D01*
X53294200Y-40545540D01*
X50698462Y-40545540D01*
X50709394Y-40529179D01*
X50717217Y-40510292D01*
X50724794Y-40492001D01*
X50762297Y-40401458D01*
X50769737Y-40383497D01*
X50800500Y-40228842D01*
X50800500Y-40071158D01*
X50800500Y-40071155D01*
X50800499Y-40071153D01*
X50795865Y-40047858D01*
X50769737Y-39916503D01*
X50757878Y-39887873D01*
X50709397Y-39770827D01*
X50709390Y-39770814D01*
X50621789Y-39639711D01*
X50621786Y-39639707D01*
X50510289Y-39528210D01*
X50495259Y-39518168D01*
X50379185Y-39440609D01*
X50379172Y-39440602D01*
X50332217Y-39421153D01*
X51699500Y-39421153D01*
X51699500Y-39578846D01*
X51730261Y-39733489D01*
X51730264Y-39733501D01*
X51790602Y-39879172D01*
X51790609Y-39879185D01*
X51878210Y-40010288D01*
X51878213Y-40010292D01*
X51989707Y-40121786D01*
X51989711Y-40121789D01*
X52120814Y-40209390D01*
X52120827Y-40209397D01*
X52256836Y-40265733D01*
X52266503Y-40269737D01*
X52421153Y-40300499D01*
X52421156Y-40300500D01*
X52421158Y-40300500D01*
X52578844Y-40300500D01*
X52578845Y-40300499D01*
X52733497Y-40269737D01*
X52846166Y-40223067D01*
X52879172Y-40209397D01*
X52879172Y-40209396D01*
X52879179Y-40209394D01*
X53010289Y-40121789D01*
X53121789Y-40010289D01*
X53209394Y-39879179D01*
X53269737Y-39733497D01*
X53300500Y-39578842D01*
X53300500Y-39421158D01*
X53300500Y-39421155D01*
X53300499Y-39421153D01*
X53291421Y-39375515D01*
X53269737Y-39266503D01*
X53256062Y-39233489D01*
X53209397Y-39120827D01*
X53209390Y-39120814D01*
X53121789Y-38989711D01*
X53121786Y-38989707D01*
X53010292Y-38878213D01*
X53010288Y-38878210D01*
X52879185Y-38790609D01*
X52879172Y-38790602D01*
X52733501Y-38730264D01*
X52733489Y-38730261D01*
X52578845Y-38699500D01*
X52578842Y-38699500D01*
X52421158Y-38699500D01*
X52421155Y-38699500D01*
X52266510Y-38730261D01*
X52266498Y-38730264D01*
X52120827Y-38790602D01*
X52120814Y-38790609D01*
X51989711Y-38878210D01*
X51989707Y-38878213D01*
X51878213Y-38989707D01*
X51878210Y-38989711D01*
X51790609Y-39120814D01*
X51790602Y-39120827D01*
X51730264Y-39266498D01*
X51730261Y-39266510D01*
X51699500Y-39421153D01*
X50332217Y-39421153D01*
X50233501Y-39380264D01*
X50233489Y-39380261D01*
X50078845Y-39349500D01*
X50078842Y-39349500D01*
X49921158Y-39349500D01*
X49921155Y-39349500D01*
X49766510Y-39380261D01*
X49766498Y-39380264D01*
X49620827Y-39440602D01*
X49620814Y-39440609D01*
X49489711Y-39528210D01*
X49489707Y-39528213D01*
X49378213Y-39639707D01*
X49378210Y-39639711D01*
X49290609Y-39770814D01*
X49290602Y-39770827D01*
X49230264Y-39916498D01*
X49230261Y-39916510D01*
X49199500Y-40071153D01*
X46676207Y-40071153D01*
X46621789Y-39989711D01*
X46621786Y-39989707D01*
X46510292Y-39878213D01*
X46510288Y-39878210D01*
X46379185Y-39790609D01*
X46379172Y-39790602D01*
X46233501Y-39730264D01*
X46233489Y-39730261D01*
X46078845Y-39699500D01*
X46078842Y-39699500D01*
X45921158Y-39699500D01*
X45921157Y-39699500D01*
X45915095Y-39700097D01*
X45914915Y-39698270D01*
X45853884Y-39692799D01*
X45798714Y-39649927D01*
X45782923Y-39620213D01*
X45779579Y-39611121D01*
X45772501Y-39575534D01*
X45718971Y-39446300D01*
X45718116Y-39443975D01*
X45715945Y-39411513D01*
X45712467Y-39379163D01*
X45713537Y-39375515D01*
X45713454Y-39374261D01*
X45714420Y-39372510D01*
X45719933Y-39353733D01*
X45769737Y-39233497D01*
X45800500Y-39078842D01*
X45800500Y-38921158D01*
X45800500Y-38921155D01*
X45800499Y-38921153D01*
X45774531Y-38790606D01*
X45769737Y-38766503D01*
X45769735Y-38766498D01*
X45709397Y-38620827D01*
X45709390Y-38620814D01*
X45621789Y-38489711D01*
X45621786Y-38489707D01*
X45510292Y-38378213D01*
X45510288Y-38378210D01*
X45455950Y-38341902D01*
X62999500Y-38341902D01*
X62999500Y-38578097D01*
X63036446Y-38811368D01*
X63109433Y-39035996D01*
X63192743Y-39199500D01*
X63216657Y-39246433D01*
X63355483Y-39437510D01*
X63522490Y-39604517D01*
X63557127Y-39629683D01*
X63599792Y-39685013D01*
X63605771Y-39754626D01*
X63573165Y-39816421D01*
X63557130Y-39830315D01*
X63539365Y-39843222D01*
X63522488Y-39855484D01*
X63355485Y-40022487D01*
X63355485Y-40022488D01*
X63355483Y-40022490D01*
X63337055Y-40047854D01*
X63216657Y-40213566D01*
X63109433Y-40424003D01*
X63036446Y-40648631D01*
X62999500Y-40881902D01*
X62999500Y-41118097D01*
X63036446Y-41351368D01*
X63109433Y-41575996D01*
X63198226Y-41750261D01*
X63216657Y-41786433D01*
X63355483Y-41977510D01*
X63522490Y-42144517D01*
X63713567Y-42283343D01*
X63762228Y-42308137D01*
X63924003Y-42390566D01*
X63924005Y-42390566D01*
X63924008Y-42390568D01*
X64013473Y-42419637D01*
X64148631Y-42463553D01*
X64381903Y-42500500D01*
X64381908Y-42500500D01*
X64618097Y-42500500D01*
X64851368Y-42463553D01*
X64866433Y-42458658D01*
X65075992Y-42390568D01*
X65286433Y-42283343D01*
X65477510Y-42144517D01*
X65644517Y-41977510D01*
X65783343Y-41786433D01*
X65890568Y-41575992D01*
X65963553Y-41351368D01*
X65969404Y-41314425D01*
X66000500Y-41118097D01*
X66000500Y-40881902D01*
X65963553Y-40648631D01*
X65927776Y-40538522D01*
X65890568Y-40424008D01*
X65890566Y-40424005D01*
X65890566Y-40424003D01*
X65834002Y-40312991D01*
X65783343Y-40213567D01*
X65644517Y-40022490D01*
X65477510Y-39855483D01*
X65442872Y-39830317D01*
X65400207Y-39774989D01*
X65394228Y-39705375D01*
X65426833Y-39643580D01*
X65442873Y-39629682D01*
X65455061Y-39620827D01*
X65477510Y-39604517D01*
X65644517Y-39437510D01*
X65783343Y-39246433D01*
X65890568Y-39035992D01*
X65963553Y-38811368D01*
X65965274Y-38800500D01*
X66000500Y-38578097D01*
X66000500Y-38341902D01*
X65963553Y-38108631D01*
X65917772Y-37967733D01*
X65890568Y-37884008D01*
X65890566Y-37884005D01*
X65890566Y-37884003D01*
X65801599Y-37709397D01*
X65783343Y-37673567D01*
X65644517Y-37482490D01*
X65477510Y-37315483D01*
X65286433Y-37176657D01*
X65221771Y-37143710D01*
X65075996Y-37069433D01*
X64851368Y-36996446D01*
X64618097Y-36959500D01*
X64618092Y-36959500D01*
X64381908Y-36959500D01*
X64381903Y-36959500D01*
X64148631Y-36996446D01*
X63924003Y-37069433D01*
X63713566Y-37176657D01*
X63635328Y-37233501D01*
X63522490Y-37315483D01*
X63522488Y-37315485D01*
X63522487Y-37315485D01*
X63355485Y-37482487D01*
X63355485Y-37482488D01*
X63355483Y-37482490D01*
X63322265Y-37528211D01*
X63216657Y-37673566D01*
X63109433Y-37884003D01*
X63036446Y-38108631D01*
X62999500Y-38341902D01*
X45455950Y-38341902D01*
X45379185Y-38290609D01*
X45379172Y-38290602D01*
X45233501Y-38230264D01*
X45233491Y-38230261D01*
X45127948Y-38209267D01*
X45066037Y-38176882D01*
X45031463Y-38116166D01*
X45035204Y-38046396D01*
X45076070Y-37989725D01*
X45116152Y-37968987D01*
X45120260Y-37967739D01*
X45120276Y-37967737D01*
X45265958Y-37907394D01*
X45397068Y-37819789D01*
X45508568Y-37708289D01*
X45596173Y-37577179D01*
X45656516Y-37431497D01*
X45687279Y-37276842D01*
X45687279Y-37119158D01*
X45687279Y-37119155D01*
X45687278Y-37119153D01*
X45679260Y-37078846D01*
X45656516Y-36964503D01*
X45628891Y-36897809D01*
X45596176Y-36818827D01*
X45596169Y-36818814D01*
X45508568Y-36687711D01*
X45508565Y-36687707D01*
X45397071Y-36576213D01*
X45397067Y-36576210D01*
X45265964Y-36488609D01*
X45265951Y-36488602D01*
X45120280Y-36428264D01*
X45120268Y-36428261D01*
X44965624Y-36397500D01*
X44965621Y-36397500D01*
X44807937Y-36397500D01*
X44807934Y-36397500D01*
X44653289Y-36428261D01*
X44653277Y-36428264D01*
X44507606Y-36488602D01*
X44507593Y-36488609D01*
X44376490Y-36576210D01*
X44376486Y-36576213D01*
X44264992Y-36687707D01*
X44264989Y-36687711D01*
X44177388Y-36818814D01*
X44177381Y-36818827D01*
X44117043Y-36964498D01*
X44117040Y-36964510D01*
X44086279Y-37119153D01*
X44086279Y-37276846D01*
X44117040Y-37431489D01*
X44117043Y-37431501D01*
X44177381Y-37577172D01*
X44177388Y-37577185D01*
X44264989Y-37708288D01*
X44264992Y-37708292D01*
X44376486Y-37819786D01*
X44376490Y-37819789D01*
X44507593Y-37907390D01*
X44507606Y-37907397D01*
X44653272Y-37967733D01*
X44653282Y-37967737D01*
X44717304Y-37980472D01*
X44758829Y-37988732D01*
X44820740Y-38021117D01*
X44855314Y-38081832D01*
X44851575Y-38151602D01*
X44810709Y-38208274D01*
X44770641Y-38229007D01*
X44766505Y-38230261D01*
X44620827Y-38290602D01*
X44620814Y-38290609D01*
X44489711Y-38378210D01*
X44489707Y-38378213D01*
X44378213Y-38489707D01*
X44378210Y-38489711D01*
X44290609Y-38620814D01*
X44290602Y-38620827D01*
X44230264Y-38766498D01*
X44230261Y-38766510D01*
X44199500Y-38921153D01*
X44199500Y-39078846D01*
X44230261Y-39233489D01*
X44230264Y-39233501D01*
X44282827Y-39360400D01*
X44290296Y-39429869D01*
X44282827Y-39455304D01*
X44233028Y-39575529D01*
X44233025Y-39575541D01*
X44202264Y-39730184D01*
X44202264Y-39887877D01*
X44233025Y-40042520D01*
X44233027Y-40042527D01*
X44262759Y-40114309D01*
X44270227Y-40183778D01*
X44238951Y-40246257D01*
X44206657Y-40271115D01*
X44203030Y-40273053D01*
X44071921Y-40360658D01*
X44071917Y-40360661D01*
X43960423Y-40472155D01*
X43918742Y-40534535D01*
X43865129Y-40579339D01*
X43795804Y-40588046D01*
X43732777Y-40557891D01*
X43696058Y-40498447D01*
X43693620Y-40485269D01*
X43693575Y-40485279D01*
X43661624Y-40324657D01*
X43661623Y-40324650D01*
X43651620Y-40300500D01*
X43601283Y-40178974D01*
X43601276Y-40178961D01*
X43513675Y-40047858D01*
X43513672Y-40047854D01*
X43402178Y-39936360D01*
X43402174Y-39936357D01*
X43271071Y-39848756D01*
X43271058Y-39848749D01*
X43125387Y-39788411D01*
X43125375Y-39788408D01*
X42970731Y-39757647D01*
X42970728Y-39757647D01*
X42813044Y-39757647D01*
X42813041Y-39757647D01*
X42658396Y-39788408D01*
X42658384Y-39788411D01*
X42512713Y-39848749D01*
X42512700Y-39848756D01*
X42381597Y-39936357D01*
X42381593Y-39936360D01*
X42270099Y-40047854D01*
X42270096Y-40047858D01*
X42182495Y-40178961D01*
X42182488Y-40178974D01*
X42122150Y-40324645D01*
X42122147Y-40324657D01*
X42091386Y-40479300D01*
X42091386Y-40636993D01*
X42122147Y-40791636D01*
X42122150Y-40791648D01*
X42160209Y-40883531D01*
X42167678Y-40953000D01*
X42148752Y-40999871D01*
X42139254Y-41014086D01*
X42139246Y-41014100D01*
X42078908Y-41159770D01*
X42078905Y-41159782D01*
X42048144Y-41314425D01*
X38658680Y-41314425D01*
X38654504Y-41301091D01*
X38663924Y-41251419D01*
X38669636Y-41237630D01*
X38700399Y-41082975D01*
X38700399Y-40925291D01*
X38700399Y-40925288D01*
X38700398Y-40925286D01*
X38698920Y-40917858D01*
X38669636Y-40770636D01*
X38663920Y-40756838D01*
X38656453Y-40687370D01*
X38675382Y-40640496D01*
X38677723Y-40636993D01*
X38709392Y-40589597D01*
X38710035Y-40588046D01*
X38742242Y-40510289D01*
X38769735Y-40443915D01*
X38800498Y-40289260D01*
X38800498Y-40131576D01*
X38800498Y-40131573D01*
X38800497Y-40131571D01*
X38793174Y-40094757D01*
X38769735Y-39976921D01*
X38752934Y-39936360D01*
X38709395Y-39831245D01*
X38709388Y-39831232D01*
X38621787Y-39700129D01*
X38621784Y-39700125D01*
X38510289Y-39588630D01*
X38482693Y-39570191D01*
X38443423Y-39543951D01*
X38398618Y-39490340D01*
X38389911Y-39421016D01*
X38390689Y-39416698D01*
X38398021Y-39379841D01*
X38398021Y-39222157D01*
X38398021Y-39222154D01*
X38398020Y-39222152D01*
X38369514Y-39078844D01*
X38367258Y-39067502D01*
X38318795Y-38950500D01*
X38306918Y-38921826D01*
X38306911Y-38921813D01*
X38219310Y-38790710D01*
X38219307Y-38790706D01*
X38107813Y-38679212D01*
X38107809Y-38679209D01*
X37976706Y-38591608D01*
X37976693Y-38591601D01*
X37831022Y-38531263D01*
X37831010Y-38531260D01*
X37676366Y-38500499D01*
X37676363Y-38500499D01*
X37518679Y-38500499D01*
X37518676Y-38500499D01*
X37364031Y-38531260D01*
X37364019Y-38531263D01*
X37218348Y-38591601D01*
X37218335Y-38591608D01*
X37087232Y-38679209D01*
X37087228Y-38679212D01*
X36975734Y-38790706D01*
X36975731Y-38790710D01*
X36888130Y-38921813D01*
X36888123Y-38921826D01*
X36827785Y-39067497D01*
X36827782Y-39067509D01*
X36797021Y-39222152D01*
X32692723Y-39222152D01*
X32578845Y-39199500D01*
X32578842Y-39199500D01*
X32421158Y-39199500D01*
X32421155Y-39199500D01*
X32266510Y-39230261D01*
X32266498Y-39230264D01*
X32120827Y-39290602D01*
X32120814Y-39290609D01*
X31989711Y-39378210D01*
X31989707Y-39378213D01*
X31878213Y-39489707D01*
X31878210Y-39489711D01*
X31790609Y-39620814D01*
X31790602Y-39620827D01*
X31730264Y-39766498D01*
X31730261Y-39766510D01*
X31699500Y-39921153D01*
X17500500Y-39921153D01*
X17500500Y-38071153D01*
X31699500Y-38071153D01*
X31699500Y-38228846D01*
X31730261Y-38383489D01*
X31730264Y-38383501D01*
X31790602Y-38529172D01*
X31790609Y-38529185D01*
X31878210Y-38660288D01*
X31878213Y-38660292D01*
X31989707Y-38771786D01*
X31989711Y-38771789D01*
X32120814Y-38859390D01*
X32120827Y-38859397D01*
X32166254Y-38878213D01*
X32266503Y-38919737D01*
X32421153Y-38950499D01*
X32421156Y-38950500D01*
X32421158Y-38950500D01*
X32578844Y-38950500D01*
X32578845Y-38950499D01*
X32733497Y-38919737D01*
X32879179Y-38859394D01*
X33010289Y-38771789D01*
X33121789Y-38660289D01*
X33209394Y-38529179D01*
X33269737Y-38383497D01*
X33300500Y-38228842D01*
X33300500Y-38071158D01*
X33300500Y-38071155D01*
X33300499Y-38071153D01*
X33279928Y-37967737D01*
X33269737Y-37916503D01*
X33251713Y-37872989D01*
X33209397Y-37770827D01*
X33209390Y-37770814D01*
X33121789Y-37639711D01*
X33121786Y-37639707D01*
X33010292Y-37528213D01*
X33010288Y-37528210D01*
X32879185Y-37440609D01*
X32879172Y-37440602D01*
X32733501Y-37380264D01*
X32733489Y-37380261D01*
X32578845Y-37349500D01*
X32578842Y-37349500D01*
X32421158Y-37349500D01*
X32421155Y-37349500D01*
X32266510Y-37380261D01*
X32266498Y-37380264D01*
X32120827Y-37440602D01*
X32120814Y-37440609D01*
X31989711Y-37528210D01*
X31989707Y-37528213D01*
X31878213Y-37639707D01*
X31878210Y-37639711D01*
X31790609Y-37770814D01*
X31790602Y-37770827D01*
X31730264Y-37916498D01*
X31730261Y-37916510D01*
X31699500Y-38071153D01*
X17500500Y-38071153D01*
X17500500Y-36921153D01*
X34199500Y-36921153D01*
X34199500Y-37078846D01*
X34230261Y-37233489D01*
X34230264Y-37233501D01*
X34290602Y-37379172D01*
X34290609Y-37379185D01*
X34378210Y-37510288D01*
X34378213Y-37510292D01*
X34489707Y-37621786D01*
X34489711Y-37621789D01*
X34620814Y-37709390D01*
X34620827Y-37709397D01*
X34734425Y-37756450D01*
X34766503Y-37769737D01*
X34921153Y-37800499D01*
X34921156Y-37800500D01*
X35075500Y-37800500D01*
X35142539Y-37820185D01*
X35188294Y-37872989D01*
X35199500Y-37924500D01*
X35199500Y-38078846D01*
X35230261Y-38233489D01*
X35230264Y-38233501D01*
X35290602Y-38379172D01*
X35290609Y-38379185D01*
X35378210Y-38510288D01*
X35378213Y-38510292D01*
X35489707Y-38621786D01*
X35489711Y-38621789D01*
X35620814Y-38709390D01*
X35620827Y-38709397D01*
X35758683Y-38766498D01*
X35766503Y-38769737D01*
X35871921Y-38790706D01*
X35921153Y-38800499D01*
X35921156Y-38800500D01*
X35921158Y-38800500D01*
X36078844Y-38800500D01*
X36078845Y-38800499D01*
X36233497Y-38769737D01*
X36379179Y-38709394D01*
X36510289Y-38621789D01*
X36621789Y-38510289D01*
X36709394Y-38379179D01*
X36769737Y-38233497D01*
X36800500Y-38078842D01*
X36800500Y-37921158D01*
X36800500Y-37921155D01*
X36787426Y-37855431D01*
X36793653Y-37785840D01*
X36836515Y-37730662D01*
X36861589Y-37716679D01*
X36879179Y-37709394D01*
X37010289Y-37621789D01*
X37121789Y-37510289D01*
X37209394Y-37379179D01*
X37247452Y-37287296D01*
X37291291Y-37232897D01*
X37337818Y-37213135D01*
X37383497Y-37204050D01*
X37529179Y-37143707D01*
X37660289Y-37056102D01*
X37704474Y-37011917D01*
X37765797Y-36978431D01*
X37835488Y-36983415D01*
X37879837Y-37011916D01*
X37989707Y-37121786D01*
X37989711Y-37121789D01*
X38120814Y-37209390D01*
X38120827Y-37209397D01*
X38266498Y-37269735D01*
X38266503Y-37269737D01*
X38354798Y-37287300D01*
X38421153Y-37300499D01*
X38421156Y-37300500D01*
X38421158Y-37300500D01*
X38578844Y-37300500D01*
X38578845Y-37300499D01*
X38733497Y-37269737D01*
X38870150Y-37213134D01*
X38879172Y-37209397D01*
X38879172Y-37209396D01*
X38879179Y-37209394D01*
X39010289Y-37121789D01*
X39121789Y-37010289D01*
X39209394Y-36879179D01*
X39269737Y-36733497D01*
X39300500Y-36578842D01*
X39300500Y-36421158D01*
X39300500Y-36421155D01*
X39300499Y-36421153D01*
X39291957Y-36378210D01*
X39269737Y-36266503D01*
X39224651Y-36157653D01*
X40886738Y-36157653D01*
X40886738Y-36315346D01*
X40917499Y-36469989D01*
X40917502Y-36470001D01*
X40977840Y-36615672D01*
X40977847Y-36615685D01*
X41065448Y-36746788D01*
X41065451Y-36746792D01*
X41176945Y-36858286D01*
X41176949Y-36858289D01*
X41308052Y-36945890D01*
X41308065Y-36945897D01*
X41453736Y-37006235D01*
X41453741Y-37006237D01*
X41608391Y-37036999D01*
X41608394Y-37037000D01*
X41608396Y-37037000D01*
X41766082Y-37037000D01*
X41766083Y-37036999D01*
X41920735Y-37006237D01*
X42045630Y-36954503D01*
X42115099Y-36947035D01*
X42177578Y-36978310D01*
X42196184Y-37000174D01*
X42262868Y-37099973D01*
X42262871Y-37099977D01*
X42374365Y-37211471D01*
X42374369Y-37211474D01*
X42505472Y-37299075D01*
X42505485Y-37299082D01*
X42627207Y-37349500D01*
X42651161Y-37359422D01*
X42805811Y-37390184D01*
X42805814Y-37390185D01*
X42805816Y-37390185D01*
X42963502Y-37390185D01*
X42963503Y-37390184D01*
X43118155Y-37359422D01*
X43230824Y-37312752D01*
X43263830Y-37299082D01*
X43263830Y-37299081D01*
X43263837Y-37299079D01*
X43394947Y-37211474D01*
X43506447Y-37099974D01*
X43594052Y-36968864D01*
X43595856Y-36964510D01*
X43639853Y-36858289D01*
X43654395Y-36823182D01*
X43673771Y-36725770D01*
X43685296Y-36667835D01*
X43717681Y-36605924D01*
X43719176Y-36604401D01*
X45186759Y-35136819D01*
X45248082Y-35103334D01*
X45274440Y-35100500D01*
X48920234Y-35100500D01*
X48987273Y-35120185D01*
X48989125Y-35121398D01*
X49120814Y-35209390D01*
X49120827Y-35209397D01*
X49266498Y-35269735D01*
X49266503Y-35269737D01*
X49421153Y-35300499D01*
X49421156Y-35300500D01*
X49421158Y-35300500D01*
X49578844Y-35300500D01*
X49578845Y-35300499D01*
X49733497Y-35269737D01*
X49879179Y-35209394D01*
X50010289Y-35121789D01*
X50121789Y-35010289D01*
X50209394Y-34879179D01*
X50269737Y-34733497D01*
X50300500Y-34578842D01*
X50300500Y-34421158D01*
X50300500Y-34421155D01*
X50300499Y-34421153D01*
X50289912Y-34367931D01*
X50269737Y-34266503D01*
X50218918Y-34143813D01*
X50209397Y-34120827D01*
X50209390Y-34120814D01*
X50121789Y-33989711D01*
X50121786Y-33989707D01*
X50010292Y-33878213D01*
X50010288Y-33878210D01*
X49879185Y-33790609D01*
X49879172Y-33790602D01*
X49733501Y-33730264D01*
X49733489Y-33730261D01*
X49578845Y-33699500D01*
X49578842Y-33699500D01*
X49421158Y-33699500D01*
X49421155Y-33699500D01*
X49266510Y-33730261D01*
X49266498Y-33730264D01*
X49120827Y-33790602D01*
X49120814Y-33790609D01*
X48989125Y-33878602D01*
X48922447Y-33899480D01*
X48920234Y-33899500D01*
X45061012Y-33899500D01*
X45060996Y-33899499D01*
X45053400Y-33899499D01*
X44895286Y-33899499D01*
X44787930Y-33928265D01*
X44742553Y-33940424D01*
X44742552Y-33940425D01*
X44692439Y-33969359D01*
X44692438Y-33969360D01*
X44657196Y-33989707D01*
X44605628Y-34019479D01*
X44605625Y-34019481D01*
X42869997Y-35755110D01*
X42808674Y-35788595D01*
X42806508Y-35789046D01*
X42651166Y-35819946D01*
X42651156Y-35819949D01*
X42526265Y-35871680D01*
X42456795Y-35879149D01*
X42394316Y-35847873D01*
X42375711Y-35826010D01*
X42309027Y-35726211D01*
X42309024Y-35726207D01*
X42197530Y-35614713D01*
X42197526Y-35614710D01*
X42066423Y-35527109D01*
X42066410Y-35527102D01*
X41920739Y-35466764D01*
X41920727Y-35466761D01*
X41766083Y-35436000D01*
X41766080Y-35436000D01*
X41608396Y-35436000D01*
X41608393Y-35436000D01*
X41453748Y-35466761D01*
X41453736Y-35466764D01*
X41308065Y-35527102D01*
X41308052Y-35527109D01*
X41176949Y-35614710D01*
X41176945Y-35614713D01*
X41065451Y-35726207D01*
X41065448Y-35726211D01*
X40977847Y-35857314D01*
X40977840Y-35857327D01*
X40917502Y-36002998D01*
X40917499Y-36003010D01*
X40886738Y-36157653D01*
X39224651Y-36157653D01*
X39220243Y-36147012D01*
X39209397Y-36120826D01*
X39209390Y-36120814D01*
X39121789Y-35989711D01*
X39121786Y-35989707D01*
X39010292Y-35878213D01*
X39010288Y-35878210D01*
X38879185Y-35790609D01*
X38879172Y-35790602D01*
X38733501Y-35730264D01*
X38733489Y-35730261D01*
X38578845Y-35699500D01*
X38578842Y-35699500D01*
X38421158Y-35699500D01*
X38421155Y-35699500D01*
X38266510Y-35730261D01*
X38266498Y-35730264D01*
X38120827Y-35790602D01*
X38120814Y-35790609D01*
X37989711Y-35878210D01*
X37989706Y-35878214D01*
X37945523Y-35922397D01*
X37884200Y-35955881D01*
X37814508Y-35950896D01*
X37770162Y-35922396D01*
X37660292Y-35812526D01*
X37660288Y-35812523D01*
X37529185Y-35724922D01*
X37529172Y-35724915D01*
X37383501Y-35664577D01*
X37383489Y-35664574D01*
X37228845Y-35633813D01*
X37228842Y-35633813D01*
X37071158Y-35633813D01*
X37071155Y-35633813D01*
X36916510Y-35664574D01*
X36916498Y-35664577D01*
X36770827Y-35724915D01*
X36770814Y-35724922D01*
X36639711Y-35812523D01*
X36639707Y-35812526D01*
X36528213Y-35924020D01*
X36528210Y-35924024D01*
X36440609Y-36055127D01*
X36440604Y-36055137D01*
X36402548Y-36147012D01*
X36358706Y-36201416D01*
X36312181Y-36221176D01*
X36266505Y-36230262D01*
X36266498Y-36230264D01*
X36120827Y-36290602D01*
X36120814Y-36290609D01*
X35989711Y-36378210D01*
X35989707Y-36378213D01*
X35878213Y-36489707D01*
X35853102Y-36527289D01*
X35799489Y-36572093D01*
X35730164Y-36580800D01*
X35667137Y-36550645D01*
X35646898Y-36527289D01*
X35621786Y-36489707D01*
X35510292Y-36378213D01*
X35510288Y-36378210D01*
X35379185Y-36290609D01*
X35379172Y-36290602D01*
X35233501Y-36230264D01*
X35233489Y-36230261D01*
X35078845Y-36199500D01*
X35078842Y-36199500D01*
X34921158Y-36199500D01*
X34921155Y-36199500D01*
X34766510Y-36230261D01*
X34766498Y-36230264D01*
X34620827Y-36290602D01*
X34620814Y-36290609D01*
X34489711Y-36378210D01*
X34489707Y-36378213D01*
X34378213Y-36489707D01*
X34378210Y-36489711D01*
X34290609Y-36620814D01*
X34290602Y-36620827D01*
X34230264Y-36766498D01*
X34230261Y-36766510D01*
X34199500Y-36921153D01*
X17500500Y-36921153D01*
X17500500Y-32905513D01*
X18989500Y-32905513D01*
X18989500Y-33094486D01*
X19019059Y-33281118D01*
X19077454Y-33460836D01*
X19132512Y-33568892D01*
X19163240Y-33629199D01*
X19274310Y-33782073D01*
X19407927Y-33915690D01*
X19560801Y-34026760D01*
X19640347Y-34067290D01*
X19729163Y-34112545D01*
X19729165Y-34112545D01*
X19729168Y-34112547D01*
X19789251Y-34132069D01*
X19846926Y-34171507D01*
X19874124Y-34235866D01*
X19862209Y-34304712D01*
X19814965Y-34356188D01*
X19789253Y-34367930D01*
X19770756Y-34373939D01*
X19729163Y-34387454D01*
X19560800Y-34473240D01*
X19473579Y-34536610D01*
X19407927Y-34584310D01*
X19407925Y-34584312D01*
X19407924Y-34584312D01*
X19274312Y-34717924D01*
X19274312Y-34717925D01*
X19274310Y-34717927D01*
X19262998Y-34733497D01*
X19163240Y-34870800D01*
X19077454Y-35039163D01*
X19019059Y-35218881D01*
X18989500Y-35405513D01*
X18989500Y-35594486D01*
X19019059Y-35781118D01*
X19077454Y-35960836D01*
X19158968Y-36120814D01*
X19163240Y-36129199D01*
X19274310Y-36282073D01*
X19407927Y-36415690D01*
X19560801Y-36526760D01*
X19607678Y-36550645D01*
X19729163Y-36612545D01*
X19729165Y-36612545D01*
X19729168Y-36612547D01*
X19825497Y-36643846D01*
X19908881Y-36670940D01*
X20095514Y-36700500D01*
X20095519Y-36700500D01*
X20284486Y-36700500D01*
X20471118Y-36670940D01*
X20480674Y-36667835D01*
X20650832Y-36612547D01*
X20819199Y-36526760D01*
X20972073Y-36415690D01*
X21105690Y-36282073D01*
X21216760Y-36129199D01*
X21302547Y-35960832D01*
X21360940Y-35781118D01*
X21365059Y-35755110D01*
X21390500Y-35594486D01*
X21390500Y-35405513D01*
X21360940Y-35218881D01*
X21315439Y-35078846D01*
X21302547Y-35039168D01*
X21302545Y-35039165D01*
X21302545Y-35039163D01*
X21242418Y-34921158D01*
X21216760Y-34870801D01*
X21105690Y-34717927D01*
X20972073Y-34584310D01*
X20819199Y-34473240D01*
X20650832Y-34387453D01*
X20590748Y-34367930D01*
X20533073Y-34328493D01*
X20505875Y-34264135D01*
X20517790Y-34195288D01*
X20565034Y-34143813D01*
X20590746Y-34132069D01*
X20650832Y-34112547D01*
X20819199Y-34026760D01*
X20972073Y-33915690D01*
X21105690Y-33782073D01*
X21216760Y-33629199D01*
X21302547Y-33460832D01*
X21360940Y-33281118D01*
X21368482Y-33233501D01*
X21390500Y-33094486D01*
X21390500Y-32905513D01*
X26609500Y-32905513D01*
X26609500Y-33094486D01*
X26639059Y-33281118D01*
X26697454Y-33460836D01*
X26752512Y-33568892D01*
X26783240Y-33629199D01*
X26894310Y-33782073D01*
X27027927Y-33915690D01*
X27180801Y-34026760D01*
X27260347Y-34067290D01*
X27349163Y-34112545D01*
X27349165Y-34112545D01*
X27349168Y-34112547D01*
X27409251Y-34132069D01*
X27466926Y-34171507D01*
X27494124Y-34235866D01*
X27482209Y-34304712D01*
X27434965Y-34356188D01*
X27409253Y-34367930D01*
X27390756Y-34373939D01*
X27349163Y-34387454D01*
X27180800Y-34473240D01*
X27093579Y-34536610D01*
X27027927Y-34584310D01*
X27027925Y-34584312D01*
X27027924Y-34584312D01*
X26894312Y-34717924D01*
X26894312Y-34717925D01*
X26894310Y-34717927D01*
X26882998Y-34733497D01*
X26783240Y-34870800D01*
X26697454Y-35039163D01*
X26639059Y-35218881D01*
X26609500Y-35405513D01*
X26609500Y-35594486D01*
X26639059Y-35781118D01*
X26697454Y-35960836D01*
X26778968Y-36120814D01*
X26783240Y-36129199D01*
X26894310Y-36282073D01*
X27027927Y-36415690D01*
X27180801Y-36526760D01*
X27227678Y-36550645D01*
X27349163Y-36612545D01*
X27349165Y-36612545D01*
X27349168Y-36612547D01*
X27445497Y-36643846D01*
X27528881Y-36670940D01*
X27715514Y-36700500D01*
X27715519Y-36700500D01*
X27904486Y-36700500D01*
X28091118Y-36670940D01*
X28100674Y-36667835D01*
X28270832Y-36612547D01*
X28439199Y-36526760D01*
X28592073Y-36415690D01*
X28725690Y-36282073D01*
X28836760Y-36129199D01*
X28922547Y-35960832D01*
X28980940Y-35781118D01*
X28985059Y-35755110D01*
X29010500Y-35594486D01*
X29010500Y-35405513D01*
X28980940Y-35218881D01*
X28935439Y-35078846D01*
X28922547Y-35039168D01*
X28922545Y-35039165D01*
X28922545Y-35039163D01*
X28862418Y-34921158D01*
X28836760Y-34870801D01*
X28725690Y-34717927D01*
X28592073Y-34584310D01*
X28439199Y-34473240D01*
X28270832Y-34387453D01*
X28210748Y-34367930D01*
X28153073Y-34328493D01*
X28125875Y-34264135D01*
X28137790Y-34195288D01*
X28185034Y-34143813D01*
X28210746Y-34132069D01*
X28270832Y-34112547D01*
X28439199Y-34026760D01*
X28592073Y-33915690D01*
X28725690Y-33782073D01*
X28836760Y-33629199D01*
X28922547Y-33460832D01*
X28980940Y-33281118D01*
X28988482Y-33233501D01*
X29010500Y-33094486D01*
X29010500Y-32921153D01*
X53699500Y-32921153D01*
X53699500Y-33078846D01*
X53730261Y-33233489D01*
X53730264Y-33233501D01*
X53790602Y-33379172D01*
X53790609Y-33379185D01*
X53825304Y-33431109D01*
X53846182Y-33497786D01*
X53827698Y-33565167D01*
X53825304Y-33568891D01*
X53790609Y-33620814D01*
X53790602Y-33620827D01*
X53730264Y-33766498D01*
X53730261Y-33766510D01*
X53699500Y-33921153D01*
X53699500Y-34078846D01*
X53730261Y-34233489D01*
X53730264Y-34233501D01*
X53790602Y-34379172D01*
X53790609Y-34379185D01*
X53825304Y-34431109D01*
X53846182Y-34497786D01*
X53827698Y-34565167D01*
X53825304Y-34568891D01*
X53790609Y-34620814D01*
X53790602Y-34620827D01*
X53730264Y-34766498D01*
X53730261Y-34766510D01*
X53699500Y-34921153D01*
X53699500Y-35078846D01*
X53730261Y-35233489D01*
X53730264Y-35233501D01*
X53790602Y-35379172D01*
X53790609Y-35379185D01*
X53878210Y-35510288D01*
X53878213Y-35510292D01*
X53989707Y-35621786D01*
X53989711Y-35621789D01*
X54120814Y-35709390D01*
X54120827Y-35709397D01*
X54231190Y-35755110D01*
X54266503Y-35769737D01*
X54421153Y-35800499D01*
X54421156Y-35800500D01*
X54421158Y-35800500D01*
X54578844Y-35800500D01*
X54578845Y-35800499D01*
X54733497Y-35769737D01*
X54879179Y-35709394D01*
X55010289Y-35621789D01*
X55121789Y-35510289D01*
X55209394Y-35379179D01*
X55269737Y-35233497D01*
X55300500Y-35078842D01*
X55300500Y-34921158D01*
X55300500Y-34921155D01*
X55300499Y-34921153D01*
X55269738Y-34766510D01*
X55269737Y-34766503D01*
X55249616Y-34717927D01*
X55209396Y-34620825D01*
X55209394Y-34620822D01*
X55209394Y-34620821D01*
X55174694Y-34568889D01*
X55153816Y-34502215D01*
X55172300Y-34434835D01*
X55174676Y-34431136D01*
X55209394Y-34379179D01*
X55269737Y-34233497D01*
X55300500Y-34078842D01*
X55300500Y-33921158D01*
X55300500Y-33921155D01*
X55300499Y-33921153D01*
X55274531Y-33790606D01*
X55269737Y-33766503D01*
X55269735Y-33766498D01*
X55209396Y-33620825D01*
X55209394Y-33620822D01*
X55209394Y-33620821D01*
X55174694Y-33568889D01*
X55153816Y-33502215D01*
X55172300Y-33434835D01*
X55174676Y-33431136D01*
X55209394Y-33379179D01*
X55269737Y-33233497D01*
X55300500Y-33078842D01*
X55300500Y-32921158D01*
X55300500Y-32921155D01*
X55300499Y-32921153D01*
X55269738Y-32766510D01*
X55269737Y-32766503D01*
X55250012Y-32718882D01*
X55209397Y-32620827D01*
X55209390Y-32620814D01*
X55121789Y-32489711D01*
X55121786Y-32489707D01*
X55010292Y-32378213D01*
X55010288Y-32378210D01*
X54879185Y-32290609D01*
X54879172Y-32290602D01*
X54733501Y-32230264D01*
X54733489Y-32230261D01*
X54578845Y-32199500D01*
X54578842Y-32199500D01*
X54421158Y-32199500D01*
X54421155Y-32199500D01*
X54266510Y-32230261D01*
X54266498Y-32230264D01*
X54120827Y-32290602D01*
X54120814Y-32290609D01*
X53989711Y-32378210D01*
X53989707Y-32378213D01*
X53878213Y-32489707D01*
X53878210Y-32489711D01*
X53790609Y-32620814D01*
X53790602Y-32620827D01*
X53730264Y-32766498D01*
X53730261Y-32766510D01*
X53699500Y-32921153D01*
X29010500Y-32921153D01*
X29010500Y-32905513D01*
X28980940Y-32718881D01*
X28922545Y-32539163D01*
X28877290Y-32450347D01*
X28836760Y-32370801D01*
X28725690Y-32217927D01*
X28592073Y-32084310D01*
X28439199Y-31973240D01*
X28270836Y-31887454D01*
X28091118Y-31829059D01*
X27904486Y-31799500D01*
X27904481Y-31799500D01*
X27715519Y-31799500D01*
X27715514Y-31799500D01*
X27528881Y-31829059D01*
X27349163Y-31887454D01*
X27180800Y-31973240D01*
X27093579Y-32036610D01*
X27027927Y-32084310D01*
X27027925Y-32084312D01*
X27027924Y-32084312D01*
X26894312Y-32217924D01*
X26894312Y-32217925D01*
X26894310Y-32217927D01*
X26885347Y-32230264D01*
X26783240Y-32370800D01*
X26697454Y-32539163D01*
X26639059Y-32718881D01*
X26609500Y-32905513D01*
X21390500Y-32905513D01*
X21360940Y-32718881D01*
X21302545Y-32539163D01*
X21257290Y-32450347D01*
X21216760Y-32370801D01*
X21105690Y-32217927D01*
X20972073Y-32084310D01*
X20819199Y-31973240D01*
X20650836Y-31887454D01*
X20471118Y-31829059D01*
X20284486Y-31799500D01*
X20284481Y-31799500D01*
X20095519Y-31799500D01*
X20095514Y-31799500D01*
X19908881Y-31829059D01*
X19729163Y-31887454D01*
X19560800Y-31973240D01*
X19473579Y-32036610D01*
X19407927Y-32084310D01*
X19407925Y-32084312D01*
X19407924Y-32084312D01*
X19274312Y-32217924D01*
X19274312Y-32217925D01*
X19274310Y-32217927D01*
X19265347Y-32230264D01*
X19163240Y-32370800D01*
X19077454Y-32539163D01*
X19019059Y-32718881D01*
X18989500Y-32905513D01*
X17500500Y-32905513D01*
X17500500Y-31374500D01*
X17520185Y-31307461D01*
X17572989Y-31261706D01*
X17624500Y-31250500D01*
X67875500Y-31250500D01*
X67942539Y-31270185D01*
G37*
%TD.AperFunction*%
%TD*%
M02*
